<svg xmlns="http://www.w3.org/2000/svg" xmlns:xlink="http://www.w3.org/1999/xlink" width="475.497" height="572.609" viewBox="0 0 475.497 572.609">
  <defs>
    <linearGradient id="linear-gradient" x1="0.45" y1="-0.104" x2="0.158" y2="0.86" gradientUnits="objectBoundingBox">
      <stop offset="0" stop-color="#b1c4e5"/>
      <stop offset="1" stop-color="#fef3e9"/>
    </linearGradient>
    <clipPath id="clip-path">
      <path id="Path_40" data-name="Path 40" d="M608.742,735.077a955.138,955.138,0,0,1,59.064-104.832l-.077-.051,1.07-1.455,62.727-85.391.113-.25.088-.194a215.166,215.166,0,0,0,2.739-268.425,11.028,11.028,0,0,0-14.925-2.348L632.4,331.657l-9.589,6.549-2.093,1.429-11.4,7.788-23.076,15.762-.055.036a12.546,12.546,0,0,0-5.508,10.388,12.347,12.347,0,0,0,1.365,5.533l-.071.28.146-.1a12.448,12.448,0,0,0,13.682,6.566c.109-.023.207-.073.315-.1a12.447,12.447,0,0,0,2.086-.667c.027-.013.05-.029.075-.041a12.523,12.523,0,0,0,3.962-2.76l-.016.038a32.918,32.918,0,0,1,52.982,10.1c.384.933.739,1.881,1.11,2.821a213.1,213.1,0,0,1,7.364,22.018,215.68,215.68,0,0,1-2.939,124.216c-.117.357-.237.715-.352,1.07l-22.122,66.844L601.6,720.212,456.55,340.412a12.617,12.617,0,0,1,.565-10.425h0c5.761-10.439,13.042-23.672,12.366-22.667l-.007.007a10.384,10.384,0,0,0-14.365-14.369l-.055.035L310.23,391.909l-.164.114a12.6,12.6,0,0,0,7.117,22.942H355.2a12.588,12.588,0,0,1,11.827,8.315l0-.006L526.743,842.823h39.264Z" transform="translate(-173.604 -138.323)" fill="url(#linear-gradient)"/>
    </clipPath>
  </defs>
  <g id="Mask_Group_24" data-name="Mask Group 24" transform="translate(-131 -131.891)" opacity="0.2" clip-path="url(#clip-path)">
    <rect id="Rectangle_578" data-name="Rectangle 578" width="552" height="660" transform="translate(93 108)" fill="url(#linear-gradient)"/>
  </g>
</svg>
