<svg width="1061" height="268" viewBox="0 0 1061 268" fill="none" xmlns="http://www.w3.org/2000/svg">
<path d="M76.0641 0.210938C28.0934 0.475966 0 41.8209 0 90.0567C0 128.486 21.7326 164.796 68.6432 164.796C112.373 164.796 131.986 136.702 131.986 107.549C131.986 74.4198 104.953 54.0124 80.3046 54.0124C53.8014 54.0124 42.9351 74.9499 40.8149 96.6825H38.1646C38.1646 56.9277 53.0063 20.8834 74.4739 11.0772L114.494 38.1105L119.794 1.00603C104.688 1.00603 91.1709 0.210938 76.0641 0.210938ZM86.6654 118.15C86.6654 142.533 79.2445 154.194 70.2334 154.194C58.837 154.194 46.1155 136.172 46.1155 104.368C46.1155 92.442 50.8861 65.4087 65.9929 65.4087C83.75 65.4087 86.6654 104.898 86.6654 118.15Z" fill="black"/>
<path d="M195.181 164.001H238.381C228.575 148.099 224.335 88.4665 224.335 56.1326L267.8 164.001L313.385 56.1326C313.385 88.2015 313.385 148.099 303.579 164.001H366.392C362.151 157.375 360.561 147.834 360.561 140.148V24.8589C360.561 17.173 362.151 7.89685 366.392 1.00603H313.385L280.787 83.4309L245.537 1.00603H195.181C199.422 7.89685 201.012 17.173 201.012 24.8589V140.148C201.012 147.834 199.422 157.375 195.181 164.001Z" fill="black"/>
<path d="M376.873 164.001H435.445C431.204 157.375 429.614 147.834 429.614 140.148V24.8589C429.614 17.173 431.204 7.89685 435.445 1.00603H376.873C381.113 7.89685 382.704 17.173 382.704 24.8589V140.148C382.704 147.834 381.113 157.375 376.873 164.001Z" fill="black"/>
<path d="M445.978 164.001H556.231L562.327 118.945C542.449 141.208 522.307 154.194 498.719 154.194V24.8589C498.719 17.173 500.309 7.89685 504.55 1.00603H445.978C450.218 7.89685 451.809 17.173 451.809 24.8589V140.148C451.809 147.834 450.218 157.375 445.978 164.001Z" fill="black"/>
<path d="M570.211 164.001H680.465L686.56 118.945C666.683 141.208 646.541 154.194 622.953 154.194V24.8589C622.953 17.173 624.543 7.89685 628.783 1.00603H570.211C574.452 7.89685 576.042 17.173 576.042 24.8589V140.148C576.042 147.834 574.452 157.375 570.211 164.001Z" fill="black"/>
<path d="M694.445 164.001H753.017C748.777 157.375 747.186 147.834 747.186 140.148V24.8589C747.186 17.173 748.777 7.89685 753.017 1.00603H694.445C698.686 7.89685 700.276 17.173 700.276 24.8589V140.148C700.276 147.834 698.686 157.375 694.445 164.001Z" fill="black"/>
<path d="M922.082 82.6358C922.082 41.2908 894.784 0.210938 840.453 0.210938C786.121 0.210938 759.088 41.2908 759.088 82.6358C759.088 123.716 786.121 164.796 840.453 164.796C894.784 164.796 922.082 123.716 922.082 82.6358ZM803.348 82.6358C800.433 46.8565 809.974 11.0772 834.887 11.0772C859.8 11.0772 874.907 46.8565 877.822 82.6358C880.737 118.415 870.931 154.194 846.283 154.194C821.37 154.194 806.264 118.415 803.348 82.6358Z" fill="black"/>
<path d="M927.901 164.001H975.076C965.27 147.834 955.729 92.442 955.729 45.2663L1031.53 164.001H1054.85V24.8589C1054.85 17.173 1056.44 7.89685 1060.68 1.00603H1013.51C1022.78 16.3779 1032.85 64.0836 1032.85 95.0923L972.426 1.00603H927.901C932.141 7.89685 933.731 17.173 933.731 24.8589V140.148C933.731 147.834 932.141 157.375 927.901 164.001Z" fill="black"/>
<mask id="path-2-outside-1" maskUnits="userSpaceOnUse" x="7" y="207.777" width="1048" height="60" fill="black">
<rect fill="white" x="7" y="207.777" width="1048" height="60"/>
<path d="M58.1242 227.531C57.299 224.278 53.6916 222.651 47.302 222.651C43.6475 222.651 41.0539 222.957 39.5214 223.57C37.9888 224.183 37.2225 225.079 37.2225 226.258C37.2225 227.248 37.7177 227.979 38.7079 228.451C39.6982 228.922 41.4429 229.241 43.9422 229.406L66.1878 231.068C69.7008 231.327 72.7306 231.811 75.277 232.518C77.8234 233.202 80.0161 234.168 81.8551 235.418C83.7178 236.668 85.1089 238.259 86.0284 240.193C86.9479 242.102 87.4077 244.389 87.4077 247.054C87.4077 249.246 87.1483 251.203 86.6296 252.925C86.1109 254.622 85.3564 256.119 84.3662 257.416C83.3759 258.713 82.0556 259.833 80.4051 260.776C78.7547 261.719 76.9156 262.497 74.8879 263.11C72.8838 263.723 70.4671 264.206 67.6378 264.56C64.832 264.937 61.8848 265.197 58.7961 265.338C55.7075 265.503 52.1472 265.586 48.1154 265.586C42.5982 265.586 37.8709 265.409 33.9334 265.055C30.0195 264.725 26.4475 264.148 23.2174 263.322C19.9872 262.474 17.3819 261.33 15.4014 259.892C13.4444 258.454 11.9118 256.638 10.8037 254.445C9.71912 252.229 9.11789 249.588 9 246.523H36.692C37.2579 248.787 38.4721 250.39 40.3348 251.333C42.221 252.253 44.9796 252.712 48.6106 252.712C55.8725 252.712 59.5035 251.333 59.5035 248.574C59.5035 247.419 58.9848 246.606 57.9473 246.134C56.9335 245.639 55.2123 245.274 52.7838 245.038L31.5639 243.163C28.8289 242.928 26.4121 242.598 24.3137 242.173C22.2389 241.725 20.2819 241.112 18.4429 240.334C16.6038 239.532 15.0948 238.566 13.916 237.434C12.7606 236.279 11.8529 234.852 11.1927 233.155C10.5326 231.457 10.2025 229.5 10.2025 227.284C10.2025 224.572 10.733 222.215 11.794 220.21C12.8785 218.183 14.4111 216.509 16.3916 215.188C18.3957 213.868 20.9657 212.807 24.1015 212.005C27.2374 211.18 30.7033 210.603 34.4993 210.272C38.2953 209.942 42.7043 209.777 47.7264 209.777C52.7249 209.777 57.0868 209.942 60.812 210.272C64.5609 210.603 68.0032 211.18 71.1391 212.005C74.2749 212.807 76.8331 213.88 78.8136 215.224C80.8177 216.568 82.3856 218.265 83.5174 220.317C84.6491 222.344 85.2739 224.749 85.3918 227.531H58.1242Z"/>
<path d="M167.329 211.829V229.724H142.962V263.535H119.195V229.724H94.8276V211.829H167.329Z"/>
<path d="M186.243 216.568C192.963 212.041 203.349 209.777 217.401 209.777C231.453 209.777 241.828 212.041 248.524 216.568C255.243 221.095 258.603 228.133 258.603 237.682C258.603 247.231 255.243 254.268 248.524 258.795C241.828 263.322 231.453 265.586 217.401 265.586C203.349 265.586 192.963 263.322 186.243 258.795C179.547 254.268 176.199 247.231 176.199 237.682C176.199 228.133 179.547 221.095 186.243 216.568ZM206.084 246.134C208.677 248.091 212.45 249.07 217.401 249.07C222.352 249.07 226.125 248.091 228.718 246.134C231.312 244.154 232.609 241.336 232.609 237.682C232.609 234.027 231.312 231.221 228.718 229.264C226.125 227.284 222.352 226.294 217.401 226.294C212.45 226.294 208.677 227.284 206.084 229.264C203.49 231.221 202.193 234.027 202.193 237.682C202.193 241.336 203.49 244.154 206.084 246.134Z"/>
<path d="M333.432 245.533L345.845 263.535H318.366L310.019 250.378H293.255V263.535H269.524V211.829H322.362C330.308 211.829 335.99 213.314 339.409 216.285C342.827 219.232 344.537 223.747 344.537 229.83C344.537 234.263 343.57 237.646 341.637 239.98C339.703 242.315 336.968 243.918 333.432 244.79V245.533ZM312.99 236.656C316.361 236.656 318.047 235.241 318.047 232.412C318.047 229.559 316.361 228.133 312.99 228.133H293.255V236.656H312.99Z"/>
<path d="M379.012 263.535H355.281V211.829H379.012V263.535Z"/>
<path d="M414.619 224.95V230.997H454.194V242.88H414.619V249.6H456.812V263.535H390.888V211.829H456.246V224.95H414.619Z"/>
<path d="M515.513 227.531C514.688 224.278 511.08 222.651 504.691 222.651C501.036 222.651 498.443 222.957 496.91 223.57C495.378 224.183 494.611 225.079 494.611 226.258C494.611 227.248 495.107 227.979 496.097 228.451C497.087 228.922 498.832 229.241 501.331 229.406L523.577 231.068C527.09 231.327 530.119 231.811 532.666 232.518C535.212 233.202 537.405 234.168 539.244 235.418C541.107 236.668 542.498 238.259 543.417 240.193C544.337 242.102 544.797 244.389 544.797 247.054C544.797 249.246 544.537 251.203 544.018 252.925C543.5 254.622 542.745 256.119 541.755 257.416C540.765 258.713 539.444 259.833 537.794 260.776C536.144 261.719 534.304 262.497 532.277 263.11C530.273 263.723 527.856 264.206 525.027 264.56C522.221 264.937 519.274 265.197 516.185 265.338C513.096 265.503 509.536 265.586 505.504 265.586C499.987 265.586 495.26 265.409 491.322 265.055C487.408 264.725 483.836 264.148 480.606 263.322C477.376 262.474 474.771 261.33 472.79 259.892C470.833 258.454 469.301 256.638 468.193 254.445C467.108 252.229 466.507 249.588 466.389 246.523H494.081C494.647 248.787 495.861 250.39 497.724 251.333C499.61 252.253 502.368 252.712 505.999 252.712C513.261 252.712 516.892 251.333 516.892 248.574C516.892 247.419 516.374 246.606 515.336 246.134C514.322 245.639 512.601 245.274 510.173 245.038L488.953 243.163C486.218 242.928 483.801 242.598 481.703 242.173C479.628 241.725 477.671 241.112 475.832 240.334C473.993 239.532 472.484 238.566 471.305 237.434C470.15 236.279 469.242 234.852 468.582 233.155C467.921 231.457 467.591 229.5 467.591 227.284C467.591 224.572 468.122 222.215 469.183 220.21C470.267 218.183 471.8 216.509 473.78 215.188C475.785 213.868 478.355 212.807 481.49 212.005C484.626 211.18 488.092 210.603 491.888 210.272C495.684 209.942 500.093 209.777 505.115 209.777C510.114 209.777 514.476 209.942 518.201 210.272C521.95 210.603 525.392 211.18 528.528 212.005C531.664 212.807 534.222 213.88 536.202 215.224C538.207 216.568 539.775 218.265 540.906 220.317C542.038 222.344 542.663 224.749 542.781 227.531H515.513Z"/>
<path d="M635.745 227.531C634.92 224.278 631.313 222.651 624.923 222.651C621.269 222.651 618.675 222.957 617.142 223.57C615.61 224.183 614.844 225.079 614.844 226.258C614.844 227.248 615.339 227.979 616.329 228.451C617.319 228.922 619.064 229.241 621.563 229.406L643.809 231.068C647.322 231.327 650.352 231.811 652.898 232.518C655.444 233.202 657.637 234.168 659.476 235.418C661.339 236.668 662.73 238.259 663.649 240.193C664.569 242.102 665.029 244.389 665.029 247.054C665.029 249.246 664.769 251.203 664.251 252.925C663.732 254.622 662.978 256.119 661.987 257.416C660.997 258.713 659.677 259.833 658.026 260.776C656.376 261.719 654.537 262.497 652.509 263.11C650.505 263.723 648.088 264.206 645.259 264.56C642.453 264.937 639.506 265.197 636.417 265.338C633.329 265.503 629.768 265.586 625.737 265.586C620.219 265.586 615.492 265.409 611.555 265.055C607.641 264.725 604.069 264.148 600.838 263.322C597.608 262.474 595.003 261.33 593.022 259.892C591.066 258.454 589.533 256.638 588.425 254.445C587.34 252.229 586.739 249.588 586.621 246.523H614.313C614.879 248.787 616.093 250.39 617.956 251.333C619.842 252.253 622.601 252.712 626.232 252.712C633.494 252.712 637.125 251.333 637.125 248.574C637.125 247.419 636.606 246.606 635.568 246.134C634.555 245.639 632.833 245.274 630.405 245.038L609.185 243.163C606.45 242.928 604.033 242.598 601.935 242.173C599.86 241.725 597.903 241.112 596.064 240.334C594.225 239.532 592.716 238.566 591.537 237.434C590.382 236.279 589.474 234.852 588.814 233.155C588.154 231.457 587.824 229.5 587.824 227.284C587.824 224.572 588.354 222.215 589.415 220.21C590.5 218.183 592.032 216.509 594.013 215.188C596.017 213.868 598.587 212.807 601.723 212.005C604.858 211.18 608.324 210.603 612.12 210.272C615.916 209.942 620.325 209.777 625.347 209.777C630.346 209.777 634.708 209.942 638.433 210.272C642.182 210.603 645.624 211.18 648.76 212.005C651.896 212.807 654.454 213.88 656.435 215.224C658.439 216.568 660.007 218.265 661.138 220.317C662.27 222.344 662.895 224.749 663.013 227.531H635.745Z"/>
<path d="M747.709 211.829H772.501L755.596 263.535H729.99L724.402 244.826C723.978 243.411 723.53 241.831 723.058 240.086C722.61 238.318 722.268 236.915 722.033 235.878L721.644 234.286H721.078C720.205 238.13 719.286 241.69 718.319 244.967L712.802 263.535H686.666L670.185 211.829H695.083L699.575 229.123C699.928 230.538 700.306 232.129 700.707 233.897C701.107 235.642 701.414 237.033 701.626 238.071L701.944 239.662H702.546C703.394 235.819 704.255 232.377 705.127 229.335L710.22 211.829H732.501L737.559 229.335C737.936 230.703 738.337 232.247 738.761 233.968C739.209 235.689 739.551 237.069 739.787 238.106L740.176 239.662H740.777C741.531 235.819 742.333 232.259 743.182 228.981L747.709 211.829Z"/>
<path d="M804.713 263.535H780.982V211.829H804.713V263.535Z"/>
<path d="M866.986 211.829C871.23 211.829 874.826 212.218 877.773 212.996C880.72 213.774 883.09 214.988 884.882 216.638C886.697 218.265 888.006 220.258 888.807 222.615C889.609 224.95 890.01 227.779 890.01 231.103C890.01 234.381 889.609 237.175 888.807 239.485C888.006 241.796 886.697 243.753 884.882 245.356C883.09 246.959 880.72 248.15 877.773 248.928C874.826 249.683 871.23 250.06 866.986 250.06H840.32V263.535H816.553V211.829H866.986ZM858.286 236.161C862.105 236.161 864.015 234.558 864.015 231.351C864.015 228.168 862.105 226.576 858.286 226.576H840.32V236.161H858.286Z"/>
<path d="M924.167 224.95V230.997H963.742V242.88H924.167V249.6H966.359V263.535H900.436V211.829H965.793V224.95H924.167Z"/>
<path d="M1023.47 211.829C1028.49 211.829 1032.81 212.3 1036.41 213.243C1040.02 214.163 1043.07 215.648 1045.57 217.699C1048.1 219.727 1049.96 222.391 1051.16 225.692C1052.39 228.993 1053 232.99 1053 237.682C1053 242.374 1052.39 246.37 1051.16 249.671C1049.96 252.972 1048.1 255.648 1045.57 257.699C1043.07 259.727 1040.02 261.212 1036.41 262.155C1032.81 263.075 1028.49 263.535 1023.47 263.535H977.599V211.829H1023.47ZM1015.9 227.885H1001.36V247.478H1015.9C1023.3 247.478 1027.01 244.213 1027.01 237.682C1027.01 231.151 1023.3 227.885 1015.9 227.885Z"/>
</mask>
<path d="M58.1242 227.531C57.299 224.278 53.6916 222.651 47.302 222.651C43.6475 222.651 41.0539 222.957 39.5214 223.57C37.9888 224.183 37.2225 225.079 37.2225 226.258C37.2225 227.248 37.7177 227.979 38.7079 228.451C39.6982 228.922 41.4429 229.241 43.9422 229.406L66.1878 231.068C69.7008 231.327 72.7306 231.811 75.277 232.518C77.8234 233.202 80.0161 234.168 81.8551 235.418C83.7178 236.668 85.1089 238.259 86.0284 240.193C86.9479 242.102 87.4077 244.389 87.4077 247.054C87.4077 249.246 87.1483 251.203 86.6296 252.925C86.1109 254.622 85.3564 256.119 84.3662 257.416C83.3759 258.713 82.0556 259.833 80.4051 260.776C78.7547 261.719 76.9156 262.497 74.8879 263.11C72.8838 263.723 70.4671 264.206 67.6378 264.56C64.832 264.937 61.8848 265.197 58.7961 265.338C55.7075 265.503 52.1472 265.586 48.1154 265.586C42.5982 265.586 37.8709 265.409 33.9334 265.055C30.0195 264.725 26.4475 264.148 23.2174 263.322C19.9872 262.474 17.3819 261.33 15.4014 259.892C13.4444 258.454 11.9118 256.638 10.8037 254.445C9.71912 252.229 9.11789 249.588 9 246.523H36.692C37.2579 248.787 38.4721 250.39 40.3348 251.333C42.221 252.253 44.9796 252.712 48.6106 252.712C55.8725 252.712 59.5035 251.333 59.5035 248.574C59.5035 247.419 58.9848 246.606 57.9473 246.134C56.9335 245.639 55.2123 245.274 52.7838 245.038L31.5639 243.163C28.8289 242.928 26.4121 242.598 24.3137 242.173C22.2389 241.725 20.2819 241.112 18.4429 240.334C16.6038 239.532 15.0948 238.566 13.916 237.434C12.7606 236.279 11.8529 234.852 11.1927 233.155C10.5326 231.457 10.2025 229.5 10.2025 227.284C10.2025 224.572 10.733 222.215 11.794 220.21C12.8785 218.183 14.4111 216.509 16.3916 215.188C18.3957 213.868 20.9657 212.807 24.1015 212.005C27.2374 211.18 30.7033 210.603 34.4993 210.272C38.2953 209.942 42.7043 209.777 47.7264 209.777C52.7249 209.777 57.0868 209.942 60.812 210.272C64.5609 210.603 68.0032 211.18 71.1391 212.005C74.2749 212.807 76.8331 213.88 78.8136 215.224C80.8177 216.568 82.3856 218.265 83.5174 220.317C84.6491 222.344 85.2739 224.749 85.3918 227.531H58.1242Z" stroke="black" stroke-width="3.6" mask="url(#path-2-outside-1)"/>
<path d="M167.329 211.829V229.724H142.962V263.535H119.195V229.724H94.8276V211.829H167.329Z" stroke="black" stroke-width="3.6" mask="url(#path-2-outside-1)"/>
<path d="M186.243 216.568C192.963 212.041 203.349 209.777 217.401 209.777C231.453 209.777 241.828 212.041 248.524 216.568C255.243 221.095 258.603 228.133 258.603 237.682C258.603 247.231 255.243 254.268 248.524 258.795C241.828 263.322 231.453 265.586 217.401 265.586C203.349 265.586 192.963 263.322 186.243 258.795C179.547 254.268 176.199 247.231 176.199 237.682C176.199 228.133 179.547 221.095 186.243 216.568ZM206.084 246.134C208.677 248.091 212.45 249.07 217.401 249.07C222.352 249.07 226.125 248.091 228.718 246.134C231.312 244.154 232.609 241.336 232.609 237.682C232.609 234.027 231.312 231.221 228.718 229.264C226.125 227.284 222.352 226.294 217.401 226.294C212.45 226.294 208.677 227.284 206.084 229.264C203.49 231.221 202.193 234.027 202.193 237.682C202.193 241.336 203.49 244.154 206.084 246.134Z" stroke="black" stroke-width="3.6" mask="url(#path-2-outside-1)"/>
<path d="M333.432 245.533L345.845 263.535H318.366L310.019 250.378H293.255V263.535H269.524V211.829H322.362C330.308 211.829 335.99 213.314 339.409 216.285C342.827 219.232 344.537 223.747 344.537 229.83C344.537 234.263 343.57 237.646 341.637 239.98C339.703 242.315 336.968 243.918 333.432 244.79V245.533ZM312.99 236.656C316.361 236.656 318.047 235.241 318.047 232.412C318.047 229.559 316.361 228.133 312.99 228.133H293.255V236.656H312.99Z" stroke="black" stroke-width="3.6" mask="url(#path-2-outside-1)"/>
<path d="M379.012 263.535H355.281V211.829H379.012V263.535Z" stroke="black" stroke-width="3.6" mask="url(#path-2-outside-1)"/>
<path d="M414.619 224.95V230.997H454.194V242.88H414.619V249.6H456.812V263.535H390.888V211.829H456.246V224.95H414.619Z" stroke="black" stroke-width="3.6" mask="url(#path-2-outside-1)"/>
<path d="M515.513 227.531C514.688 224.278 511.08 222.651 504.691 222.651C501.036 222.651 498.443 222.957 496.91 223.57C495.378 224.183 494.611 225.079 494.611 226.258C494.611 227.248 495.107 227.979 496.097 228.451C497.087 228.922 498.832 229.241 501.331 229.406L523.577 231.068C527.09 231.327 530.119 231.811 532.666 232.518C535.212 233.202 537.405 234.168 539.244 235.418C541.107 236.668 542.498 238.259 543.417 240.193C544.337 242.102 544.797 244.389 544.797 247.054C544.797 249.246 544.537 251.203 544.018 252.925C543.5 254.622 542.745 256.119 541.755 257.416C540.765 258.713 539.444 259.833 537.794 260.776C536.144 261.719 534.304 262.497 532.277 263.11C530.273 263.723 527.856 264.206 525.027 264.56C522.221 264.937 519.274 265.197 516.185 265.338C513.096 265.503 509.536 265.586 505.504 265.586C499.987 265.586 495.26 265.409 491.322 265.055C487.408 264.725 483.836 264.148 480.606 263.322C477.376 262.474 474.771 261.33 472.79 259.892C470.833 258.454 469.301 256.638 468.193 254.445C467.108 252.229 466.507 249.588 466.389 246.523H494.081C494.647 248.787 495.861 250.39 497.724 251.333C499.61 252.253 502.368 252.712 505.999 252.712C513.261 252.712 516.892 251.333 516.892 248.574C516.892 247.419 516.374 246.606 515.336 246.134C514.322 245.639 512.601 245.274 510.173 245.038L488.953 243.163C486.218 242.928 483.801 242.598 481.703 242.173C479.628 241.725 477.671 241.112 475.832 240.334C473.993 239.532 472.484 238.566 471.305 237.434C470.15 236.279 469.242 234.852 468.582 233.155C467.921 231.457 467.591 229.5 467.591 227.284C467.591 224.572 468.122 222.215 469.183 220.21C470.267 218.183 471.8 216.509 473.78 215.188C475.785 213.868 478.355 212.807 481.49 212.005C484.626 211.18 488.092 210.603 491.888 210.272C495.684 209.942 500.093 209.777 505.115 209.777C510.114 209.777 514.476 209.942 518.201 210.272C521.95 210.603 525.392 211.18 528.528 212.005C531.664 212.807 534.222 213.88 536.202 215.224C538.207 216.568 539.775 218.265 540.906 220.317C542.038 222.344 542.663 224.749 542.781 227.531H515.513Z" stroke="black" stroke-width="3.6" mask="url(#path-2-outside-1)"/>
<path d="M635.745 227.531C634.92 224.278 631.313 222.651 624.923 222.651C621.269 222.651 618.675 222.957 617.142 223.57C615.61 224.183 614.844 225.079 614.844 226.258C614.844 227.248 615.339 227.979 616.329 228.451C617.319 228.922 619.064 229.241 621.563 229.406L643.809 231.068C647.322 231.327 650.352 231.811 652.898 232.518C655.444 233.202 657.637 234.168 659.476 235.418C661.339 236.668 662.73 238.259 663.649 240.193C664.569 242.102 665.029 244.389 665.029 247.054C665.029 249.246 664.769 251.203 664.251 252.925C663.732 254.622 662.978 256.119 661.987 257.416C660.997 258.713 659.677 259.833 658.026 260.776C656.376 261.719 654.537 262.497 652.509 263.11C650.505 263.723 648.088 264.206 645.259 264.56C642.453 264.937 639.506 265.197 636.417 265.338C633.329 265.503 629.768 265.586 625.737 265.586C620.219 265.586 615.492 265.409 611.555 265.055C607.641 264.725 604.069 264.148 600.838 263.322C597.608 262.474 595.003 261.33 593.022 259.892C591.066 258.454 589.533 256.638 588.425 254.445C587.34 252.229 586.739 249.588 586.621 246.523H614.313C614.879 248.787 616.093 250.39 617.956 251.333C619.842 252.253 622.601 252.712 626.232 252.712C633.494 252.712 637.125 251.333 637.125 248.574C637.125 247.419 636.606 246.606 635.568 246.134C634.555 245.639 632.833 245.274 630.405 245.038L609.185 243.163C606.45 242.928 604.033 242.598 601.935 242.173C599.86 241.725 597.903 241.112 596.064 240.334C594.225 239.532 592.716 238.566 591.537 237.434C590.382 236.279 589.474 234.852 588.814 233.155C588.154 231.457 587.824 229.5 587.824 227.284C587.824 224.572 588.354 222.215 589.415 220.21C590.5 218.183 592.032 216.509 594.013 215.188C596.017 213.868 598.587 212.807 601.723 212.005C604.858 211.18 608.324 210.603 612.12 210.272C615.916 209.942 620.325 209.777 625.347 209.777C630.346 209.777 634.708 209.942 638.433 210.272C642.182 210.603 645.624 211.18 648.76 212.005C651.896 212.807 654.454 213.88 656.435 215.224C658.439 216.568 660.007 218.265 661.138 220.317C662.27 222.344 662.895 224.749 663.013 227.531H635.745Z" stroke="black" stroke-width="3.6" mask="url(#path-2-outside-1)"/>
<path d="M747.709 211.829H772.501L755.596 263.535H729.99L724.402 244.826C723.978 243.411 723.53 241.831 723.058 240.086C722.61 238.318 722.268 236.915 722.033 235.878L721.644 234.286H721.078C720.205 238.13 719.286 241.69 718.319 244.967L712.802 263.535H686.666L670.185 211.829H695.083L699.575 229.123C699.928 230.538 700.306 232.129 700.707 233.897C701.107 235.642 701.414 237.033 701.626 238.071L701.944 239.662H702.546C703.394 235.819 704.255 232.377 705.127 229.335L710.22 211.829H732.501L737.559 229.335C737.936 230.703 738.337 232.247 738.761 233.968C739.209 235.689 739.551 237.069 739.787 238.106L740.176 239.662H740.777C741.531 235.819 742.333 232.259 743.182 228.981L747.709 211.829Z" stroke="black" stroke-width="3.6" mask="url(#path-2-outside-1)"/>
<path d="M804.713 263.535H780.982V211.829H804.713V263.535Z" stroke="black" stroke-width="3.6" mask="url(#path-2-outside-1)"/>
<path d="M866.986 211.829C871.23 211.829 874.826 212.218 877.773 212.996C880.72 213.774 883.09 214.988 884.882 216.638C886.697 218.265 888.006 220.258 888.807 222.615C889.609 224.95 890.01 227.779 890.01 231.103C890.01 234.381 889.609 237.175 888.807 239.485C888.006 241.796 886.697 243.753 884.882 245.356C883.09 246.959 880.72 248.15 877.773 248.928C874.826 249.683 871.23 250.06 866.986 250.06H840.32V263.535H816.553V211.829H866.986ZM858.286 236.161C862.105 236.161 864.015 234.558 864.015 231.351C864.015 228.168 862.105 226.576 858.286 226.576H840.32V236.161H858.286Z" stroke="black" stroke-width="3.6" mask="url(#path-2-outside-1)"/>
<path d="M924.167 224.95V230.997H963.742V242.88H924.167V249.6H966.359V263.535H900.436V211.829H965.793V224.95H924.167Z" stroke="black" stroke-width="3.6" mask="url(#path-2-outside-1)"/>
<path d="M1023.47 211.829C1028.49 211.829 1032.81 212.3 1036.41 213.243C1040.02 214.163 1043.07 215.648 1045.57 217.699C1048.1 219.727 1049.96 222.391 1051.16 225.692C1052.39 228.993 1053 232.99 1053 237.682C1053 242.374 1052.39 246.37 1051.16 249.671C1049.96 252.972 1048.1 255.648 1045.57 257.699C1043.07 259.727 1040.02 261.212 1036.41 262.155C1032.81 263.075 1028.49 263.535 1023.47 263.535H977.599V211.829H1023.47ZM1015.9 227.885H1001.36V247.478H1015.9C1023.3 247.478 1027.01 244.213 1027.01 237.682C1027.01 231.151 1023.3 227.885 1015.9 227.885Z" stroke="black" stroke-width="3.6" mask="url(#path-2-outside-1)"/>
</svg>
