<svg width="1048" height="267" viewBox="0 0 1048 267" fill="none" xmlns="http://www.w3.org/2000/svg">
<path d="M122.327 2.65306V0.795929H4V37.9388L43 10.8776H85.1837C65.551 31.8367 46.7143 62.8776 34.5102 101.082L31.8571 110.898C27.8776 127.347 25.4898 144.857 25.4898 163.959H73.2449C73.2449 146.184 74.8367 128.408 78.0204 110.898L79.8775 101.082C87.8367 63.9388 101.898 34.4898 122.327 2.65306Z" fill="black"/>
<path d="M180.698 163.959H223.943C214.127 148.041 209.882 88.3469 209.882 55.9796L253.392 163.959L299.025 55.9796C299.025 88.0816 299.025 148.041 289.208 163.959H352.086C347.841 157.327 346.249 147.776 346.249 140.082V24.6735C346.249 16.9796 347.841 7.69388 352.086 0.795929H299.025L266.392 83.3061L231.106 0.795929H180.698C184.943 7.69388 186.535 16.9796 186.535 24.6735V140.082C186.535 147.776 184.943 157.327 180.698 163.959Z" fill="black"/>
<path d="M362.578 163.959H421.21C416.966 157.327 415.374 147.776 415.374 140.082V24.6735C415.374 16.9796 416.966 7.69388 421.21 0.795929H362.578C366.823 7.69388 368.414 16.9796 368.414 24.6735V140.082C368.414 147.776 366.823 157.327 362.578 163.959Z" fill="black"/>
<path d="M431.754 163.959H542.122L548.224 118.857C528.326 141.143 508.162 154.143 484.55 154.143V24.6735C484.55 16.9796 486.142 7.69388 490.387 0.795929H431.754C435.999 7.69388 437.591 16.9796 437.591 24.6735V140.082C437.591 147.776 435.999 157.327 431.754 163.959Z" fill="black"/>
<path d="M556.116 163.959H666.484L672.586 118.857C652.688 141.143 632.525 154.143 608.912 154.143V24.6735C608.912 16.9796 610.504 7.69388 614.749 0.795929H556.116C560.361 7.69388 561.953 16.9796 561.953 24.6735V140.082C561.953 147.776 560.361 157.327 556.116 163.959Z" fill="black"/>
<path d="M680.479 163.959H739.111C734.866 157.327 733.275 147.776 733.275 140.082V24.6735C733.275 16.9796 734.866 7.69388 739.111 0.795929H680.479C684.724 7.69388 686.315 16.9796 686.315 24.6735V140.082C686.315 147.776 684.724 157.327 680.479 163.959Z" fill="black"/>
<path d="M908.352 82.5102C908.352 41.1224 881.025 0 826.638 0C772.25 0 745.189 41.1224 745.189 82.5102C745.189 123.633 772.25 164.755 826.638 164.755C881.025 164.755 908.352 123.633 908.352 82.5102ZM789.495 82.5102C786.576 46.6939 796.127 10.8776 821.066 10.8776C846.005 10.8776 861.127 46.6939 864.046 82.5102C866.964 118.327 857.148 154.143 832.474 154.143C807.535 154.143 792.413 118.327 789.495 82.5102Z" fill="black"/>
<path d="M914.176 163.959H961.401C951.584 147.775 942.033 92.3265 942.033 45.102L1017.91 163.959H1041.26V24.6735C1041.26 16.9796 1042.85 7.69388 1047.09 0.795929H999.87C1009.16 16.1837 1019.24 63.9388 1019.24 94.9796L958.747 0.795929H914.176C918.421 7.69388 920.013 16.9796 920.013 24.6735V140.082C920.013 147.776 918.421 157.327 914.176 163.959Z" fill="black"/>
<mask id="path-2-outside-1" maskUnits="userSpaceOnUse" x="0" y="207" width="1048" height="60" fill="black">
<rect fill="white" y="207" width="1048" height="60"/>
<path d="M51.1242 226.754C50.299 223.5 46.6916 221.873 40.302 221.873C36.6475 221.873 34.0539 222.18 32.5214 222.793C30.9888 223.406 30.2225 224.302 30.2225 225.481C30.2225 226.471 30.7177 227.202 31.7079 227.674C32.6982 228.145 34.4429 228.463 36.9422 228.628L59.1878 230.291C62.7008 230.55 65.7306 231.033 68.277 231.741C70.8234 232.424 73.0161 233.391 74.8551 234.641C76.7178 235.89 78.1089 237.482 79.0284 239.415C79.9479 241.325 80.4077 243.612 80.4077 246.276C80.4077 248.469 80.1483 250.426 79.6296 252.147C79.1109 253.845 78.3564 255.342 77.3662 256.639C76.3759 257.936 75.0556 259.055 73.4051 259.999C71.7547 260.942 69.9156 261.72 67.8879 262.333C65.8838 262.946 63.4671 263.429 60.6378 263.783C57.832 264.16 54.8848 264.419 51.7961 264.561C48.7075 264.726 45.1472 264.808 41.1154 264.808C35.5982 264.808 30.8709 264.632 26.9334 264.278C23.0195 263.948 19.4475 263.37 16.2174 262.545C12.9872 261.696 10.3819 260.553 8.40135 259.114C6.4444 257.676 4.91185 255.861 3.80369 253.668C2.71912 251.452 2.11789 248.811 2 245.746H29.692C30.2579 248.009 31.4721 249.613 33.3348 250.556C35.221 251.475 37.9796 251.935 41.6106 251.935C48.8725 251.935 52.5035 250.556 52.5035 247.797C52.5035 246.642 51.9848 245.828 50.9473 245.357C49.9335 244.862 48.2123 244.496 45.7838 244.26L24.5639 242.386C21.8289 242.15 19.4121 241.82 17.3137 241.396C15.2389 240.948 13.2819 240.335 11.4429 239.557C9.60381 238.755 8.09484 237.788 6.91595 236.657C5.76065 235.501 4.8529 234.075 4.19273 232.377C3.53255 230.68 3.20246 228.723 3.20246 226.506C3.20246 223.795 3.73296 221.437 4.79396 219.433C5.87853 217.405 7.41109 215.731 9.39161 214.411C11.3957 213.091 13.9657 212.03 17.1015 211.228C20.2374 210.403 23.7033 209.825 27.4993 209.495C31.2953 209.165 35.7043 209 40.7264 209C45.7249 209 50.0868 209.165 53.812 209.495C57.5609 209.825 61.0032 210.403 64.1391 211.228C67.2749 212.03 69.8331 213.103 71.8136 214.446C73.8177 215.79 75.3856 217.488 76.5174 219.539C77.6491 221.567 78.2739 223.972 78.3918 226.754H51.1242Z"/>
<path d="M160.329 211.051V228.947H135.962V262.757H112.195V228.947H87.8276V211.051H160.329Z"/>
<path d="M179.243 215.79C185.963 211.263 196.349 209 210.401 209C224.453 209 234.828 211.263 241.524 215.79C248.243 220.317 251.603 227.355 251.603 236.904C251.603 246.453 248.243 253.491 241.524 258.018C234.828 262.545 224.453 264.808 210.401 264.808C196.349 264.808 185.963 262.545 179.243 258.018C172.547 253.491 169.199 246.453 169.199 236.904C169.199 227.355 172.547 220.317 179.243 215.79ZM199.084 245.357C201.677 247.314 205.45 248.292 210.401 248.292C215.352 248.292 219.125 247.314 221.718 245.357C224.312 243.376 225.609 240.559 225.609 236.904C225.609 233.25 224.312 230.444 221.718 228.487C219.125 226.506 215.352 225.516 210.401 225.516C205.45 225.516 201.677 226.506 199.084 228.487C196.49 230.444 195.193 233.25 195.193 236.904C195.193 240.559 196.49 243.376 199.084 245.357Z"/>
<path d="M326.432 244.756L338.845 262.757H311.366L303.019 249.601H286.255V262.757H262.524V211.051H315.362C323.308 211.051 328.99 212.537 332.409 215.507C335.827 218.455 337.537 222.97 337.537 229.053C337.537 233.485 336.57 236.869 334.637 239.203C332.703 241.537 329.968 243.141 326.432 244.013V244.756ZM305.99 235.879C309.361 235.879 311.047 234.464 311.047 231.635C311.047 228.782 309.361 227.355 305.99 227.355H286.255V235.879H305.99Z"/>
<path d="M372.012 262.757H348.281V211.051H372.012V262.757Z"/>
<path d="M407.619 224.172V230.22H447.194V242.103H407.619V248.823H449.812V262.757H383.888V211.051H449.246V224.172H407.619Z"/>
<path d="M508.513 226.754C507.688 223.5 504.08 221.873 497.691 221.873C494.036 221.873 491.443 222.18 489.91 222.793C488.378 223.406 487.611 224.302 487.611 225.481C487.611 226.471 488.107 227.202 489.097 227.674C490.087 228.145 491.832 228.463 494.331 228.628L516.577 230.291C520.09 230.55 523.119 231.033 525.666 231.741C528.212 232.424 530.405 233.391 532.244 234.641C534.107 235.89 535.498 237.482 536.417 239.415C537.337 241.325 537.797 243.612 537.797 246.276C537.797 248.469 537.537 250.426 537.018 252.147C536.5 253.845 535.745 255.342 534.755 256.639C533.765 257.936 532.444 259.055 530.794 259.999C529.144 260.942 527.304 261.72 525.277 262.333C523.273 262.946 520.856 263.429 518.027 263.783C515.221 264.16 512.274 264.419 509.185 264.561C506.096 264.726 502.536 264.808 498.504 264.808C492.987 264.808 488.26 264.632 484.322 264.278C480.408 263.948 476.836 263.37 473.606 262.545C470.376 261.696 467.771 260.553 465.79 259.114C463.833 257.676 462.301 255.861 461.193 253.668C460.108 251.452 459.507 248.811 459.389 245.746H487.081C487.647 248.009 488.861 249.613 490.724 250.556C492.61 251.475 495.368 251.935 498.999 251.935C506.261 251.935 509.892 250.556 509.892 247.797C509.892 246.642 509.374 245.828 508.336 245.357C507.322 244.862 505.601 244.496 503.173 244.26L481.953 242.386C479.218 242.15 476.801 241.82 474.703 241.396C472.628 240.948 470.671 240.335 468.832 239.557C466.993 238.755 465.484 237.788 464.305 236.657C463.15 235.501 462.242 234.075 461.582 232.377C460.921 230.68 460.591 228.723 460.591 226.506C460.591 223.795 461.122 221.437 462.183 219.433C463.267 217.405 464.8 215.731 466.78 214.411C468.785 213.091 471.355 212.03 474.49 211.228C477.626 210.403 481.092 209.825 484.888 209.495C488.684 209.165 493.093 209 498.115 209C503.114 209 507.476 209.165 511.201 209.495C514.95 209.825 518.392 210.403 521.528 211.228C524.664 212.03 527.222 213.103 529.202 214.446C531.207 215.79 532.775 217.488 533.906 219.539C535.038 221.567 535.663 223.972 535.781 226.754H508.513Z"/>
<path d="M628.745 226.754C627.92 223.5 624.313 221.873 617.923 221.873C614.269 221.873 611.675 222.18 610.142 222.793C608.61 223.406 607.844 224.302 607.844 225.481C607.844 226.471 608.339 227.202 609.329 227.674C610.319 228.145 612.064 228.463 614.563 228.628L636.809 230.291C640.322 230.55 643.352 231.033 645.898 231.741C648.444 232.424 650.637 233.391 652.476 234.641C654.339 235.89 655.73 237.482 656.649 239.415C657.569 241.325 658.029 243.612 658.029 246.276C658.029 248.469 657.769 250.426 657.251 252.147C656.732 253.845 655.978 255.342 654.987 256.639C653.997 257.936 652.677 259.055 651.026 259.999C649.376 260.942 647.537 261.72 645.509 262.333C643.505 262.946 641.088 263.429 638.259 263.783C635.453 264.16 632.506 264.419 629.417 264.561C626.329 264.726 622.768 264.808 618.737 264.808C613.219 264.808 608.492 264.632 604.555 264.278C600.641 263.948 597.069 263.37 593.838 262.545C590.608 261.696 588.003 260.553 586.022 259.114C584.066 257.676 582.533 255.861 581.425 253.668C580.34 251.452 579.739 248.811 579.621 245.746H607.313C607.879 248.009 609.093 249.613 610.956 250.556C612.842 251.475 615.601 251.935 619.232 251.935C626.494 251.935 630.125 250.556 630.125 247.797C630.125 246.642 629.606 245.828 628.568 245.357C627.555 244.862 625.833 244.496 623.405 244.26L602.185 242.386C599.45 242.15 597.033 241.82 594.935 241.396C592.86 240.948 590.903 240.335 589.064 239.557C587.225 238.755 585.716 237.788 584.537 236.657C583.382 235.501 582.474 234.075 581.814 232.377C581.154 230.68 580.824 228.723 580.824 226.506C580.824 223.795 581.354 221.437 582.415 219.433C583.5 217.405 585.032 215.731 587.013 214.411C589.017 213.091 591.587 212.03 594.723 211.228C597.858 210.403 601.324 209.825 605.12 209.495C608.916 209.165 613.325 209 618.347 209C623.346 209 627.708 209.165 631.433 209.495C635.182 209.825 638.624 210.403 641.76 211.228C644.896 212.03 647.454 213.103 649.435 214.446C651.439 215.79 653.007 217.488 654.138 219.539C655.27 221.567 655.895 223.972 656.013 226.754H628.745Z"/>
<path d="M740.709 211.051H765.501L748.596 262.757H722.99L717.402 244.048C716.978 242.634 716.53 241.054 716.058 239.309C715.61 237.541 715.268 236.138 715.033 235.101L714.644 233.509H714.078C713.205 237.352 712.286 240.912 711.319 244.19L705.802 262.757H679.666L663.185 211.051H688.083L692.575 228.346C692.928 229.76 693.306 231.352 693.707 233.12C694.107 234.865 694.414 236.256 694.626 237.293L694.944 238.885H695.546C696.394 235.042 697.255 231.599 698.127 228.558L703.22 211.051H725.501L730.559 228.558C730.936 229.925 731.337 231.47 731.761 233.191C732.209 234.912 732.551 236.291 732.787 237.329L733.176 238.885H733.777C734.531 235.042 735.333 231.481 736.182 228.204L740.709 211.051Z"/>
<path d="M797.713 262.757H773.982V211.051H797.713V262.757Z"/>
<path d="M859.986 211.051C864.23 211.051 867.826 211.44 870.773 212.218C873.72 212.996 876.09 214.211 877.882 215.861C879.697 217.488 881.006 219.48 881.807 221.838C882.609 224.172 883.01 227.002 883.01 230.326C883.01 233.603 882.609 236.397 881.807 238.708C881.006 241.019 879.697 242.975 877.882 244.579C876.09 246.182 873.72 247.373 870.773 248.151C867.826 248.905 864.23 249.283 859.986 249.283H833.32V262.757H809.553V211.051H859.986ZM851.286 235.383C855.105 235.383 857.015 233.78 857.015 230.574C857.015 227.391 855.105 225.799 851.286 225.799H833.32V235.383H851.286Z"/>
<path d="M917.167 224.172V230.22H956.742V242.103H917.167V248.823H959.359V262.757H893.436V211.051H958.793V224.172H917.167Z"/>
<path d="M1016.47 211.051C1021.49 211.051 1025.81 211.523 1029.41 212.466C1033.02 213.385 1036.07 214.871 1038.57 216.922C1041.1 218.95 1042.96 221.614 1044.16 224.915C1045.39 228.216 1046 232.212 1046 236.904C1046 241.596 1045.39 245.593 1044.16 248.893C1042.96 252.194 1041.1 254.87 1038.57 256.922C1036.07 258.949 1033.02 260.435 1029.41 261.378C1025.81 262.297 1021.49 262.757 1016.47 262.757H970.599V211.051H1016.47ZM1008.9 227.108H994.365V246.701H1008.9C1016.3 246.701 1020.01 243.435 1020.01 236.904C1020.01 230.373 1016.3 227.108 1008.9 227.108Z"/>
</mask>
<path d="M51.1242 226.754C50.299 223.5 46.6916 221.873 40.302 221.873C36.6475 221.873 34.0539 222.18 32.5214 222.793C30.9888 223.406 30.2225 224.302 30.2225 225.481C30.2225 226.471 30.7177 227.202 31.7079 227.674C32.6982 228.145 34.4429 228.463 36.9422 228.628L59.1878 230.291C62.7008 230.55 65.7306 231.033 68.277 231.741C70.8234 232.424 73.0161 233.391 74.8551 234.641C76.7178 235.89 78.1089 237.482 79.0284 239.415C79.9479 241.325 80.4077 243.612 80.4077 246.276C80.4077 248.469 80.1483 250.426 79.6296 252.147C79.1109 253.845 78.3564 255.342 77.3662 256.639C76.3759 257.936 75.0556 259.055 73.4051 259.999C71.7547 260.942 69.9156 261.72 67.8879 262.333C65.8838 262.946 63.4671 263.429 60.6378 263.783C57.832 264.16 54.8848 264.419 51.7961 264.561C48.7075 264.726 45.1472 264.808 41.1154 264.808C35.5982 264.808 30.8709 264.632 26.9334 264.278C23.0195 263.948 19.4475 263.37 16.2174 262.545C12.9872 261.696 10.3819 260.553 8.40135 259.114C6.4444 257.676 4.91185 255.861 3.80369 253.668C2.71912 251.452 2.11789 248.811 2 245.746H29.692C30.2579 248.009 31.4721 249.613 33.3348 250.556C35.221 251.475 37.9796 251.935 41.6106 251.935C48.8725 251.935 52.5035 250.556 52.5035 247.797C52.5035 246.642 51.9848 245.828 50.9473 245.357C49.9335 244.862 48.2123 244.496 45.7838 244.26L24.5639 242.386C21.8289 242.15 19.4121 241.82 17.3137 241.396C15.2389 240.948 13.2819 240.335 11.4429 239.557C9.60381 238.755 8.09484 237.788 6.91595 236.657C5.76065 235.501 4.8529 234.075 4.19273 232.377C3.53255 230.68 3.20246 228.723 3.20246 226.506C3.20246 223.795 3.73296 221.437 4.79396 219.433C5.87853 217.405 7.41109 215.731 9.39161 214.411C11.3957 213.091 13.9657 212.03 17.1015 211.228C20.2374 210.403 23.7033 209.825 27.4993 209.495C31.2953 209.165 35.7043 209 40.7264 209C45.7249 209 50.0868 209.165 53.812 209.495C57.5609 209.825 61.0032 210.403 64.1391 211.228C67.2749 212.03 69.8331 213.103 71.8136 214.446C73.8177 215.79 75.3856 217.488 76.5174 219.539C77.6491 221.567 78.2739 223.972 78.3918 226.754H51.1242Z" stroke="black" stroke-width="3.6" mask="url(#path-2-outside-1)"/>
<path d="M160.329 211.051V228.947H135.962V262.757H112.195V228.947H87.8276V211.051H160.329Z" stroke="black" stroke-width="3.6" mask="url(#path-2-outside-1)"/>
<path d="M179.243 215.79C185.963 211.263 196.349 209 210.401 209C224.453 209 234.828 211.263 241.524 215.79C248.243 220.317 251.603 227.355 251.603 236.904C251.603 246.453 248.243 253.491 241.524 258.018C234.828 262.545 224.453 264.808 210.401 264.808C196.349 264.808 185.963 262.545 179.243 258.018C172.547 253.491 169.199 246.453 169.199 236.904C169.199 227.355 172.547 220.317 179.243 215.79ZM199.084 245.357C201.677 247.314 205.45 248.292 210.401 248.292C215.352 248.292 219.125 247.314 221.718 245.357C224.312 243.376 225.609 240.559 225.609 236.904C225.609 233.25 224.312 230.444 221.718 228.487C219.125 226.506 215.352 225.516 210.401 225.516C205.45 225.516 201.677 226.506 199.084 228.487C196.49 230.444 195.193 233.25 195.193 236.904C195.193 240.559 196.49 243.376 199.084 245.357Z" stroke="black" stroke-width="3.6" mask="url(#path-2-outside-1)"/>
<path d="M326.432 244.756L338.845 262.757H311.366L303.019 249.601H286.255V262.757H262.524V211.051H315.362C323.308 211.051 328.99 212.537 332.409 215.507C335.827 218.455 337.537 222.97 337.537 229.053C337.537 233.485 336.57 236.869 334.637 239.203C332.703 241.537 329.968 243.141 326.432 244.013V244.756ZM305.99 235.879C309.361 235.879 311.047 234.464 311.047 231.635C311.047 228.782 309.361 227.355 305.99 227.355H286.255V235.879H305.99Z" stroke="black" stroke-width="3.6" mask="url(#path-2-outside-1)"/>
<path d="M372.012 262.757H348.281V211.051H372.012V262.757Z" stroke="black" stroke-width="3.6" mask="url(#path-2-outside-1)"/>
<path d="M407.619 224.172V230.22H447.194V242.103H407.619V248.823H449.812V262.757H383.888V211.051H449.246V224.172H407.619Z" stroke="black" stroke-width="3.6" mask="url(#path-2-outside-1)"/>
<path d="M508.513 226.754C507.688 223.5 504.08 221.873 497.691 221.873C494.036 221.873 491.443 222.18 489.91 222.793C488.378 223.406 487.611 224.302 487.611 225.481C487.611 226.471 488.107 227.202 489.097 227.674C490.087 228.145 491.832 228.463 494.331 228.628L516.577 230.291C520.09 230.55 523.119 231.033 525.666 231.741C528.212 232.424 530.405 233.391 532.244 234.641C534.107 235.89 535.498 237.482 536.417 239.415C537.337 241.325 537.797 243.612 537.797 246.276C537.797 248.469 537.537 250.426 537.018 252.147C536.5 253.845 535.745 255.342 534.755 256.639C533.765 257.936 532.444 259.055 530.794 259.999C529.144 260.942 527.304 261.72 525.277 262.333C523.273 262.946 520.856 263.429 518.027 263.783C515.221 264.16 512.274 264.419 509.185 264.561C506.096 264.726 502.536 264.808 498.504 264.808C492.987 264.808 488.26 264.632 484.322 264.278C480.408 263.948 476.836 263.37 473.606 262.545C470.376 261.696 467.771 260.553 465.79 259.114C463.833 257.676 462.301 255.861 461.193 253.668C460.108 251.452 459.507 248.811 459.389 245.746H487.081C487.647 248.009 488.861 249.613 490.724 250.556C492.61 251.475 495.368 251.935 498.999 251.935C506.261 251.935 509.892 250.556 509.892 247.797C509.892 246.642 509.374 245.828 508.336 245.357C507.322 244.862 505.601 244.496 503.173 244.26L481.953 242.386C479.218 242.15 476.801 241.82 474.703 241.396C472.628 240.948 470.671 240.335 468.832 239.557C466.993 238.755 465.484 237.788 464.305 236.657C463.15 235.501 462.242 234.075 461.582 232.377C460.921 230.68 460.591 228.723 460.591 226.506C460.591 223.795 461.122 221.437 462.183 219.433C463.267 217.405 464.8 215.731 466.78 214.411C468.785 213.091 471.355 212.03 474.49 211.228C477.626 210.403 481.092 209.825 484.888 209.495C488.684 209.165 493.093 209 498.115 209C503.114 209 507.476 209.165 511.201 209.495C514.95 209.825 518.392 210.403 521.528 211.228C524.664 212.03 527.222 213.103 529.202 214.446C531.207 215.79 532.775 217.488 533.906 219.539C535.038 221.567 535.663 223.972 535.781 226.754H508.513Z" stroke="black" stroke-width="3.6" mask="url(#path-2-outside-1)"/>
<path d="M628.745 226.754C627.92 223.5 624.313 221.873 617.923 221.873C614.269 221.873 611.675 222.18 610.142 222.793C608.61 223.406 607.844 224.302 607.844 225.481C607.844 226.471 608.339 227.202 609.329 227.674C610.319 228.145 612.064 228.463 614.563 228.628L636.809 230.291C640.322 230.55 643.352 231.033 645.898 231.741C648.444 232.424 650.637 233.391 652.476 234.641C654.339 235.89 655.73 237.482 656.649 239.415C657.569 241.325 658.029 243.612 658.029 246.276C658.029 248.469 657.769 250.426 657.251 252.147C656.732 253.845 655.978 255.342 654.987 256.639C653.997 257.936 652.677 259.055 651.026 259.999C649.376 260.942 647.537 261.72 645.509 262.333C643.505 262.946 641.088 263.429 638.259 263.783C635.453 264.16 632.506 264.419 629.417 264.561C626.329 264.726 622.768 264.808 618.737 264.808C613.219 264.808 608.492 264.632 604.555 264.278C600.641 263.948 597.069 263.37 593.838 262.545C590.608 261.696 588.003 260.553 586.022 259.114C584.066 257.676 582.533 255.861 581.425 253.668C580.34 251.452 579.739 248.811 579.621 245.746H607.313C607.879 248.009 609.093 249.613 610.956 250.556C612.842 251.475 615.601 251.935 619.232 251.935C626.494 251.935 630.125 250.556 630.125 247.797C630.125 246.642 629.606 245.828 628.568 245.357C627.555 244.862 625.833 244.496 623.405 244.26L602.185 242.386C599.45 242.15 597.033 241.82 594.935 241.396C592.86 240.948 590.903 240.335 589.064 239.557C587.225 238.755 585.716 237.788 584.537 236.657C583.382 235.501 582.474 234.075 581.814 232.377C581.154 230.68 580.824 228.723 580.824 226.506C580.824 223.795 581.354 221.437 582.415 219.433C583.5 217.405 585.032 215.731 587.013 214.411C589.017 213.091 591.587 212.03 594.723 211.228C597.858 210.403 601.324 209.825 605.12 209.495C608.916 209.165 613.325 209 618.347 209C623.346 209 627.708 209.165 631.433 209.495C635.182 209.825 638.624 210.403 641.76 211.228C644.896 212.03 647.454 213.103 649.435 214.446C651.439 215.79 653.007 217.488 654.138 219.539C655.27 221.567 655.895 223.972 656.013 226.754H628.745Z" stroke="black" stroke-width="3.6" mask="url(#path-2-outside-1)"/>
<path d="M740.709 211.051H765.501L748.596 262.757H722.99L717.402 244.048C716.978 242.634 716.53 241.054 716.058 239.309C715.61 237.541 715.268 236.138 715.033 235.101L714.644 233.509H714.078C713.205 237.352 712.286 240.912 711.319 244.19L705.802 262.757H679.666L663.185 211.051H688.083L692.575 228.346C692.928 229.76 693.306 231.352 693.707 233.12C694.107 234.865 694.414 236.256 694.626 237.293L694.944 238.885H695.546C696.394 235.042 697.255 231.599 698.127 228.558L703.22 211.051H725.501L730.559 228.558C730.936 229.925 731.337 231.47 731.761 233.191C732.209 234.912 732.551 236.291 732.787 237.329L733.176 238.885H733.777C734.531 235.042 735.333 231.481 736.182 228.204L740.709 211.051Z" stroke="black" stroke-width="3.6" mask="url(#path-2-outside-1)"/>
<path d="M797.713 262.757H773.982V211.051H797.713V262.757Z" stroke="black" stroke-width="3.6" mask="url(#path-2-outside-1)"/>
<path d="M859.986 211.051C864.23 211.051 867.826 211.44 870.773 212.218C873.72 212.996 876.09 214.211 877.882 215.861C879.697 217.488 881.006 219.48 881.807 221.838C882.609 224.172 883.01 227.002 883.01 230.326C883.01 233.603 882.609 236.397 881.807 238.708C881.006 241.019 879.697 242.975 877.882 244.579C876.09 246.182 873.72 247.373 870.773 248.151C867.826 248.905 864.23 249.283 859.986 249.283H833.32V262.757H809.553V211.051H859.986ZM851.286 235.383C855.105 235.383 857.015 233.78 857.015 230.574C857.015 227.391 855.105 225.799 851.286 225.799H833.32V235.383H851.286Z" stroke="black" stroke-width="3.6" mask="url(#path-2-outside-1)"/>
<path d="M917.167 224.172V230.22H956.742V242.103H917.167V248.823H959.359V262.757H893.436V211.051H958.793V224.172H917.167Z" stroke="black" stroke-width="3.6" mask="url(#path-2-outside-1)"/>
<path d="M1016.47 211.051C1021.49 211.051 1025.81 211.523 1029.41 212.466C1033.02 213.385 1036.07 214.871 1038.57 216.922C1041.1 218.95 1042.96 221.614 1044.16 224.915C1045.39 228.216 1046 232.212 1046 236.904C1046 241.596 1045.39 245.593 1044.16 248.893C1042.96 252.194 1041.1 254.87 1038.57 256.922C1036.07 258.949 1033.02 260.435 1029.41 261.378C1025.81 262.297 1021.49 262.757 1016.47 262.757H970.599V211.051H1016.47ZM1008.9 227.108H994.365V246.701H1008.9C1016.3 246.701 1020.01 243.435 1020.01 236.904C1020.01 230.373 1016.3 227.108 1008.9 227.108Z" stroke="black" stroke-width="3.6" mask="url(#path-2-outside-1)"/>
</svg>
