<svg width="1058" height="268" viewBox="0 0 1058 268" fill="none" xmlns="http://www.w3.org/2000/svg">
<path d="M65.1095 164.585C53.2714 164.585 43.2002 163.348 34.8959 160.874C26.7683 158.224 20.0541 154.778 14.7535 150.538C9.62955 146.121 5.91911 141.174 3.62217 135.696C1.32523 130.042 0.176758 124.211 0.176758 118.204C0.176758 112.727 1.14854 107.603 3.09211 102.832C5.21236 98.0617 8.12771 93.8212 11.8382 90.1108C15.7253 86.4003 20.3192 83.3083 25.6198 80.8347C30.9204 78.361 36.9278 76.6825 43.6419 75.7991V74.4739C32.6873 72.5303 24.118 68.2898 17.9339 61.7524C11.7498 55.0382 8.65777 47.529 8.65777 39.2247C8.65777 31.2737 10.4246 24.8246 13.9584 19.8774C17.6688 14.7534 22.2627 10.778 27.74 7.95096C33.3941 4.94726 39.4898 2.91536 46.0272 1.85523C52.7414 0.618413 59.1021 0 65.1095 0C71.1169 0 77.3893 0.618413 83.9268 1.85523C90.6409 2.91536 96.7366 4.94726 102.214 7.95096C107.691 10.778 112.197 14.7534 115.731 19.8774C119.441 24.8246 121.296 31.2737 121.296 39.2247C121.296 47.529 118.204 55.0382 112.02 61.7524C105.836 68.2898 97.355 72.5303 86.5771 74.4739V75.7991C99.8287 77.3892 110.342 82.1598 118.116 90.1108C125.89 97.885 129.777 107.249 129.777 118.204C129.777 124.211 128.629 130.042 126.332 135.696C124.035 141.174 120.324 146.121 115.201 150.538C110.077 154.778 103.362 158.224 95.0581 160.874C86.9305 163.348 76.9476 164.585 65.1095 164.585ZM65.1095 10.8663C59.4555 10.8663 54.8616 13.5166 51.3279 18.8172C47.9708 23.9412 46.2923 30.6553 46.2923 38.9597C46.2923 43.0235 46.734 46.9989 47.6174 50.8861C48.5009 54.5965 49.7377 57.9536 51.3279 60.9573C53.0947 63.7843 55.1267 66.0812 57.4236 67.8481C59.7205 69.615 62.2825 70.4984 65.1095 70.4984C67.9365 70.4984 70.4985 69.615 72.7954 67.8481C75.0924 66.0812 77.0359 63.7843 78.6261 60.9573C80.393 57.9536 81.7182 54.5965 82.6016 50.8861C83.4851 46.9989 83.9268 43.0235 83.9268 38.9597C83.9268 30.6553 82.1599 23.9412 78.6261 18.8172C75.2691 13.5166 70.7635 10.8663 65.1095 10.8663ZM65.1095 81.8948C61.9291 81.8948 59.1021 82.8666 56.6285 84.8101C54.3316 86.577 52.388 89.139 50.7978 92.496C49.3843 95.6764 48.2358 99.4752 47.3524 103.892C46.6456 108.31 46.2923 112.992 46.2923 117.939C46.2923 122.886 46.6456 127.569 47.3524 131.986C48.2358 136.403 49.3843 140.29 50.7978 143.647C52.388 146.828 54.3316 149.39 56.6285 151.333C59.1021 153.1 61.9291 153.983 65.1095 153.983C68.2899 153.983 71.0286 153.1 73.3255 151.333C75.6224 149.39 77.566 146.828 79.1562 143.647C80.7464 140.29 81.8949 136.403 82.6016 131.986C83.4851 127.569 83.9268 122.886 83.9268 117.939C83.9268 112.992 83.4851 108.31 82.6016 103.892C81.8949 99.4752 80.7464 95.6764 79.1562 92.496C77.566 89.139 75.6224 86.577 73.3255 84.8101C71.0286 82.8666 68.2899 81.8948 65.1095 81.8948Z" fill="black"/>
<path d="M191.993 163.79C194.114 160.432 195.615 156.634 196.499 152.393C197.382 147.976 197.824 143.824 197.824 139.937V24.6479C197.824 20.7608 197.382 16.697 196.499 12.4565C195.615 8.21598 194.114 4.32885 191.993 0.795097H242.349L277.599 83.2199L310.198 0.795097H363.204C361.084 4.32885 359.582 8.21598 358.698 12.4565C357.815 16.697 357.373 20.7608 357.373 24.6479V139.937C357.373 143.824 357.815 147.976 358.698 152.393C359.582 156.634 361.084 160.432 363.204 163.79H300.391C301.982 161.139 303.307 157.429 304.367 152.658C305.604 147.711 306.575 142.145 307.282 135.961C307.989 129.777 308.519 123.151 308.872 116.084C309.402 108.84 309.756 101.684 309.932 94.6163C310.109 87.5488 310.198 80.658 310.198 73.9438C310.198 67.2297 310.198 61.2223 310.198 55.9217L264.612 163.79L221.147 55.9217C221.147 61.2223 221.235 67.2297 221.412 73.9438C221.765 80.658 222.119 87.6371 222.472 94.8813C223.002 101.949 223.621 109.016 224.327 116.084C225.211 123.151 226.182 129.777 227.243 135.961C228.303 142.145 229.451 147.711 230.688 152.658C232.102 157.429 233.603 161.139 235.194 163.79H191.993Z" fill="black"/>
<path d="M373.685 163.79C375.805 160.432 377.307 156.634 378.191 152.393C379.074 147.976 379.516 143.824 379.516 139.937V24.6479C379.516 20.7608 379.074 16.697 378.191 12.4565C377.307 8.21598 375.805 4.32885 373.685 0.795097H432.257C430.137 4.32885 428.635 8.21598 427.751 12.4565C426.868 16.697 426.426 20.7608 426.426 24.6479V139.937C426.426 143.824 426.868 147.976 427.751 152.393C428.635 156.634 430.137 160.432 432.257 163.79H373.685Z" fill="black"/>
<path d="M442.79 163.79C444.91 160.432 446.412 156.634 447.296 152.393C448.179 147.976 448.621 143.824 448.621 139.937V24.6479C448.621 20.7608 448.179 16.697 447.296 12.4565C446.412 8.21598 444.91 4.32885 442.79 0.795097H501.362C499.242 4.32885 497.74 8.21598 496.856 12.4565C495.973 16.697 495.531 20.7608 495.531 24.6479V153.983C507.369 153.983 518.412 150.891 528.66 144.707C538.908 138.523 549.068 129.866 559.139 118.734L553.043 163.79H442.79Z" fill="black"/>
<path d="M567.024 163.79C569.144 160.432 570.646 156.634 571.529 152.393C572.412 147.976 572.854 143.824 572.854 139.937V24.6479C572.854 20.7608 572.412 16.697 571.529 12.4565C570.646 8.21598 569.144 4.32885 567.024 0.795097H625.596C623.475 4.32885 621.973 8.21598 621.09 12.4565C620.207 16.697 619.765 20.7608 619.765 24.6479V153.983C631.603 153.983 642.646 150.891 652.894 144.707C663.142 138.523 673.301 129.866 683.372 118.734L677.277 163.79H567.024Z" fill="black"/>
<path d="M691.257 163.79C693.377 160.432 694.879 156.634 695.763 152.393C696.646 147.976 697.088 143.824 697.088 139.937V24.6479C697.088 20.7608 696.646 16.697 695.763 12.4565C694.879 8.21598 693.377 4.32885 691.257 0.795097H749.829C747.709 4.32885 746.207 8.21598 745.324 12.4565C744.44 16.697 743.998 20.7608 743.998 24.6479V139.937C743.998 143.824 744.44 147.976 745.324 152.393C746.207 156.634 747.709 160.432 749.829 163.79H691.257Z" fill="black"/>
<path d="M918.894 82.4249C918.894 92.6727 917.128 102.744 913.594 112.638C910.237 122.533 905.113 131.367 898.222 139.142C891.508 146.739 883.027 152.923 872.779 157.694C862.708 162.288 850.87 164.585 837.265 164.585C823.66 164.585 811.733 162.288 801.485 157.694C791.414 152.923 782.933 146.739 776.042 139.142C769.328 131.367 764.293 122.533 760.936 112.638C757.579 102.744 755.9 92.6727 755.9 82.4249C755.9 72.177 757.579 62.1057 760.936 52.2112C764.293 42.3167 769.328 33.4823 776.042 25.7081C782.933 17.9338 791.414 11.7497 801.485 7.15586C811.733 2.38529 823.66 0 837.265 0C850.87 0 862.708 2.38529 872.779 7.15586C883.027 11.7497 891.508 17.9338 898.222 25.7081C905.113 33.4823 910.237 42.3167 913.594 52.2112C917.128 62.1057 918.894 72.177 918.894 82.4249ZM800.16 82.4249C800.867 91.4359 802.281 100.27 804.401 108.928C806.698 117.409 809.613 125.007 813.147 131.721C816.857 138.435 821.186 143.824 826.133 147.888C831.257 151.951 836.911 153.983 843.095 153.983C849.279 153.983 854.492 151.951 858.732 147.888C863.149 143.824 866.595 138.435 869.069 131.721C871.719 125.007 873.486 117.409 874.369 108.928C875.253 100.27 875.341 91.4359 874.634 82.4249C873.927 73.4138 872.426 64.6677 870.129 56.1867C868.008 47.529 865.093 39.8431 861.383 33.129C857.849 26.4148 853.52 21.0258 848.396 16.962C843.449 12.8982 837.883 10.8663 831.699 10.8663C825.515 10.8663 820.214 12.8982 815.797 16.962C811.557 21.0258 808.111 26.4148 805.461 33.129C802.987 39.8431 801.309 47.529 800.425 56.1867C799.542 64.6677 799.454 73.4138 800.16 82.4249Z" fill="black"/>
<path d="M924.713 163.79C926.833 160.432 928.335 156.634 929.218 152.393C930.102 147.976 930.543 143.824 930.543 139.937V24.6479C930.543 20.7608 930.102 16.697 929.218 12.4565C928.335 8.21598 926.833 4.32885 924.713 0.795097H969.238L1029.67 94.8813C1029.67 87.1071 1029.05 78.6261 1027.81 69.4383C1026.75 60.0738 1025.25 50.9744 1023.3 42.14C1021.54 33.129 1019.51 25.0013 1017.21 17.7571C1014.91 10.3362 1012.61 4.68222 1010.32 0.795097H1057.49C1055.37 4.32885 1053.87 8.21598 1052.99 12.4565C1052.1 16.697 1051.66 20.7608 1051.66 24.6479V163.79H1028.34L952.541 45.0554C952.541 56.8935 953.071 68.9966 954.131 81.3647C955.191 93.5562 956.605 105.129 958.372 116.084C960.315 126.862 962.436 136.491 964.733 144.972C967.029 153.453 969.415 159.726 971.888 163.79H924.713Z" fill="black"/>
<mask id="path-2-outside-1" maskUnits="userSpaceOnUse" x="5" y="207.79" width="1048" height="60" fill="black">
<rect fill="white" x="5" y="207.79" width="1048" height="60"/>
<path d="M56.1242 227.544C55.299 224.29 51.6916 222.663 45.302 222.663C41.6475 222.663 39.0539 222.97 37.5214 223.583C35.9888 224.196 35.2225 225.092 35.2225 226.271C35.2225 227.261 35.7177 227.992 36.7079 228.464C37.6982 228.935 39.4429 229.253 41.9422 229.418L64.1878 231.081C67.7008 231.34 70.7306 231.823 73.277 232.531C75.8234 233.215 78.0161 234.181 79.8551 235.431C81.7178 236.68 83.1089 238.272 84.0284 240.205C84.9479 242.115 85.4077 244.402 85.4077 247.066C85.4077 249.259 85.1483 251.216 84.6296 252.937C84.1109 254.635 83.3564 256.132 82.3662 257.429C81.3759 258.726 80.0556 259.846 78.4051 260.789C76.7547 261.732 74.9156 262.51 72.8879 263.123C70.8838 263.736 68.4671 264.219 65.6378 264.573C62.832 264.95 59.8848 265.209 56.7961 265.351C53.7075 265.516 50.1472 265.598 46.1154 265.598C40.5982 265.598 35.8709 265.422 31.9334 265.068C28.0195 264.738 24.4475 264.16 21.2174 263.335C17.9872 262.486 15.3819 261.343 13.4014 259.904C11.4444 258.466 9.91185 256.651 8.80369 254.458C7.71912 252.242 7.11789 249.601 7 246.536H34.692C35.2579 248.799 36.4721 250.403 38.3348 251.346C40.221 252.265 42.9796 252.725 46.6106 252.725C53.8725 252.725 57.5035 251.346 57.5035 248.587C57.5035 247.432 56.9848 246.618 55.9473 246.147C54.9335 245.652 53.2123 245.286 50.7838 245.051L29.5639 243.176C26.8289 242.94 24.4121 242.61 22.3137 242.186C20.2389 241.738 18.2819 241.125 16.4429 240.347C14.6038 239.545 13.0948 238.578 11.916 237.447C10.7606 236.291 9.8529 234.865 9.19273 233.167C8.53255 231.47 8.20246 229.513 8.20246 227.296C8.20246 224.585 8.73296 222.227 9.79396 220.223C10.8785 218.195 12.4111 216.521 14.3916 215.201C16.3957 213.881 18.9657 212.82 22.1015 212.018C25.2374 211.193 28.7033 210.615 32.4993 210.285C36.2953 209.955 40.7043 209.79 45.7264 209.79C50.7249 209.79 55.0868 209.955 58.812 210.285C62.5609 210.615 66.0032 211.193 69.1391 212.018C72.2749 212.82 74.8331 213.893 76.8136 215.236C78.8177 216.58 80.3856 218.278 81.5174 220.329C82.6491 222.357 83.2739 224.762 83.3918 227.544H56.1242Z"/>
<path d="M165.329 211.841V229.737H140.962V263.547H117.195V229.737H92.8276V211.841H165.329Z"/>
<path d="M184.243 216.58C190.963 212.053 201.349 209.79 215.401 209.79C229.453 209.79 239.828 212.053 246.524 216.58C253.243 221.107 256.603 228.145 256.603 237.694C256.603 247.243 253.243 254.281 246.524 258.808C239.828 263.335 229.453 265.598 215.401 265.598C201.349 265.598 190.963 263.335 184.243 258.808C177.547 254.281 174.199 247.243 174.199 237.694C174.199 228.145 177.547 221.107 184.243 216.58ZM204.084 246.147C206.677 248.104 210.45 249.082 215.401 249.082C220.352 249.082 224.125 248.104 226.718 246.147C229.312 244.166 230.609 241.349 230.609 237.694C230.609 234.04 229.312 231.234 226.718 229.277C224.125 227.296 220.352 226.306 215.401 226.306C210.45 226.306 206.677 227.296 204.084 229.277C201.49 231.234 200.193 234.04 200.193 237.694C200.193 241.349 201.49 244.166 204.084 246.147Z"/>
<path d="M331.432 245.546L343.845 263.547H316.366L308.019 250.391H291.255V263.547H267.524V211.841H320.362C328.308 211.841 333.99 213.327 337.409 216.297C340.827 219.245 342.537 223.76 342.537 229.843C342.537 234.275 341.57 237.659 339.637 239.993C337.703 242.327 334.968 243.931 331.432 244.803V245.546ZM310.99 236.669C314.361 236.669 316.047 235.254 316.047 232.425C316.047 229.572 314.361 228.145 310.99 228.145H291.255V236.669H310.99Z"/>
<path d="M377.012 263.547H353.281V211.841H377.012V263.547Z"/>
<path d="M412.619 224.962V231.01H452.194V242.893H412.619V249.613H454.812V263.547H388.888V211.841H454.246V224.962H412.619Z"/>
<path d="M513.513 227.544C512.688 224.29 509.08 222.663 502.691 222.663C499.036 222.663 496.443 222.97 494.91 223.583C493.378 224.196 492.611 225.092 492.611 226.271C492.611 227.261 493.107 227.992 494.097 228.464C495.087 228.935 496.832 229.253 499.331 229.418L521.577 231.081C525.09 231.34 528.119 231.823 530.666 232.531C533.212 233.215 535.405 234.181 537.244 235.431C539.107 236.68 540.498 238.272 541.417 240.205C542.337 242.115 542.797 244.402 542.797 247.066C542.797 249.259 542.537 251.216 542.018 252.937C541.5 254.635 540.745 256.132 539.755 257.429C538.765 258.726 537.444 259.846 535.794 260.789C534.144 261.732 532.304 262.51 530.277 263.123C528.273 263.736 525.856 264.219 523.027 264.573C520.221 264.95 517.274 265.209 514.185 265.351C511.096 265.516 507.536 265.598 503.504 265.598C497.987 265.598 493.26 265.422 489.322 265.068C485.408 264.738 481.836 264.16 478.606 263.335C475.376 262.486 472.771 261.343 470.79 259.904C468.833 258.466 467.301 256.651 466.193 254.458C465.108 252.242 464.507 249.601 464.389 246.536H492.081C492.647 248.799 493.861 250.403 495.724 251.346C497.61 252.265 500.368 252.725 503.999 252.725C511.261 252.725 514.892 251.346 514.892 248.587C514.892 247.432 514.374 246.618 513.336 246.147C512.322 245.652 510.601 245.286 508.173 245.051L486.953 243.176C484.218 242.94 481.801 242.61 479.703 242.186C477.628 241.738 475.671 241.125 473.832 240.347C471.993 239.545 470.484 238.578 469.305 237.447C468.15 236.291 467.242 234.865 466.582 233.167C465.921 231.47 465.591 229.513 465.591 227.296C465.591 224.585 466.122 222.227 467.183 220.223C468.267 218.195 469.8 216.521 471.78 215.201C473.785 213.881 476.355 212.82 479.49 212.018C482.626 211.193 486.092 210.615 489.888 210.285C493.684 209.955 498.093 209.79 503.115 209.79C508.114 209.79 512.476 209.955 516.201 210.285C519.95 210.615 523.392 211.193 526.528 212.018C529.664 212.82 532.222 213.893 534.202 215.236C536.207 216.58 537.775 218.278 538.906 220.329C540.038 222.357 540.663 224.762 540.781 227.544H513.513Z"/>
<path d="M633.745 227.544C632.92 224.29 629.313 222.663 622.923 222.663C619.269 222.663 616.675 222.97 615.142 223.583C613.61 224.196 612.844 225.092 612.844 226.271C612.844 227.261 613.339 227.992 614.329 228.464C615.319 228.935 617.064 229.253 619.563 229.418L641.809 231.081C645.322 231.34 648.352 231.823 650.898 232.531C653.444 233.215 655.637 234.181 657.476 235.431C659.339 236.68 660.73 238.272 661.649 240.205C662.569 242.115 663.029 244.402 663.029 247.066C663.029 249.259 662.769 251.216 662.251 252.937C661.732 254.635 660.978 256.132 659.987 257.429C658.997 258.726 657.677 259.846 656.026 260.789C654.376 261.732 652.537 262.51 650.509 263.123C648.505 263.736 646.088 264.219 643.259 264.573C640.453 264.95 637.506 265.209 634.417 265.351C631.329 265.516 627.768 265.598 623.737 265.598C618.219 265.598 613.492 265.422 609.555 265.068C605.641 264.738 602.069 264.16 598.838 263.335C595.608 262.486 593.003 261.343 591.022 259.904C589.066 258.466 587.533 256.651 586.425 254.458C585.34 252.242 584.739 249.601 584.621 246.536H612.313C612.879 248.799 614.093 250.403 615.956 251.346C617.842 252.265 620.601 252.725 624.232 252.725C631.494 252.725 635.125 251.346 635.125 248.587C635.125 247.432 634.606 246.618 633.568 246.147C632.555 245.652 630.833 245.286 628.405 245.051L607.185 243.176C604.45 242.94 602.033 242.61 599.935 242.186C597.86 241.738 595.903 241.125 594.064 240.347C592.225 239.545 590.716 238.578 589.537 237.447C588.382 236.291 587.474 234.865 586.814 233.167C586.154 231.47 585.824 229.513 585.824 227.296C585.824 224.585 586.354 222.227 587.415 220.223C588.5 218.195 590.032 216.521 592.013 215.201C594.017 213.881 596.587 212.82 599.723 212.018C602.858 211.193 606.324 210.615 610.12 210.285C613.916 209.955 618.325 209.79 623.347 209.79C628.346 209.79 632.708 209.955 636.433 210.285C640.182 210.615 643.624 211.193 646.76 212.018C649.896 212.82 652.454 213.893 654.435 215.236C656.439 216.58 658.007 218.278 659.138 220.329C660.27 222.357 660.895 224.762 661.013 227.544H633.745Z"/>
<path d="M745.709 211.841H770.501L753.596 263.547H727.99L722.402 244.838C721.978 243.424 721.53 241.844 721.058 240.099C720.61 238.331 720.268 236.928 720.033 235.891L719.644 234.299H719.078C718.205 238.142 717.286 241.702 716.319 244.98L710.802 263.547H684.666L668.185 211.841H693.083L697.575 229.136C697.928 230.55 698.306 232.142 698.707 233.91C699.107 235.655 699.414 237.046 699.626 238.083L699.944 239.675H700.546C701.394 235.832 702.255 232.389 703.127 229.348L708.22 211.841H730.501L735.559 229.348C735.936 230.715 736.337 232.26 736.761 233.981C737.209 235.702 737.551 237.081 737.787 238.119L738.176 239.675H738.777C739.531 235.832 740.333 232.271 741.182 228.994L745.709 211.841Z"/>
<path d="M802.713 263.547H778.982V211.841H802.713V263.547Z"/>
<path d="M864.986 211.841C869.23 211.841 872.826 212.23 875.773 213.008C878.72 213.786 881.09 215.001 882.882 216.651C884.697 218.278 886.006 220.27 886.807 222.628C887.609 224.962 888.01 227.792 888.01 231.116C888.01 234.393 887.609 237.187 886.807 239.498C886.006 241.809 884.697 243.766 882.882 245.369C881.09 246.972 878.72 248.163 875.773 248.941C872.826 249.695 869.23 250.073 864.986 250.073H838.32V263.547H814.553V211.841H864.986ZM856.286 236.174C860.105 236.174 862.015 234.57 862.015 231.364C862.015 228.181 860.105 226.589 856.286 226.589H838.32V236.174H856.286Z"/>
<path d="M922.167 224.962V231.01H961.742V242.893H922.167V249.613H964.359V263.547H898.436V211.841H963.793V224.962H922.167Z"/>
<path d="M1021.47 211.841C1026.49 211.841 1030.81 212.313 1034.41 213.256C1038.02 214.175 1041.07 215.661 1043.57 217.712C1046.1 219.74 1047.96 222.404 1049.16 225.705C1050.39 229.006 1051 233.002 1051 237.694C1051 242.386 1050.39 246.383 1049.16 249.684C1047.96 252.984 1046.1 255.66 1043.57 257.712C1041.07 259.739 1038.02 261.225 1034.41 262.168C1030.81 263.087 1026.49 263.547 1021.47 263.547H975.599V211.841H1021.47ZM1013.9 227.898H999.365V247.491H1013.9C1021.3 247.491 1025.01 244.225 1025.01 237.694C1025.01 231.163 1021.3 227.898 1013.9 227.898Z"/>
</mask>
<path d="M56.1242 227.544C55.299 224.29 51.6916 222.663 45.302 222.663C41.6475 222.663 39.0539 222.97 37.5214 223.583C35.9888 224.196 35.2225 225.092 35.2225 226.271C35.2225 227.261 35.7177 227.992 36.7079 228.464C37.6982 228.935 39.4429 229.253 41.9422 229.418L64.1878 231.081C67.7008 231.34 70.7306 231.823 73.277 232.531C75.8234 233.215 78.0161 234.181 79.8551 235.431C81.7178 236.68 83.1089 238.272 84.0284 240.205C84.9479 242.115 85.4077 244.402 85.4077 247.066C85.4077 249.259 85.1483 251.216 84.6296 252.937C84.1109 254.635 83.3564 256.132 82.3662 257.429C81.3759 258.726 80.0556 259.846 78.4051 260.789C76.7547 261.732 74.9156 262.51 72.8879 263.123C70.8838 263.736 68.4671 264.219 65.6378 264.573C62.832 264.95 59.8848 265.209 56.7961 265.351C53.7075 265.516 50.1472 265.598 46.1154 265.598C40.5982 265.598 35.8709 265.422 31.9334 265.068C28.0195 264.738 24.4475 264.16 21.2174 263.335C17.9872 262.486 15.3819 261.343 13.4014 259.904C11.4444 258.466 9.91185 256.651 8.80369 254.458C7.71912 252.242 7.11789 249.601 7 246.536H34.692C35.2579 248.799 36.4721 250.403 38.3348 251.346C40.221 252.265 42.9796 252.725 46.6106 252.725C53.8725 252.725 57.5035 251.346 57.5035 248.587C57.5035 247.432 56.9848 246.618 55.9473 246.147C54.9335 245.652 53.2123 245.286 50.7838 245.051L29.5639 243.176C26.8289 242.94 24.4121 242.61 22.3137 242.186C20.2389 241.738 18.2819 241.125 16.4429 240.347C14.6038 239.545 13.0948 238.578 11.916 237.447C10.7606 236.291 9.8529 234.865 9.19273 233.167C8.53255 231.47 8.20246 229.513 8.20246 227.296C8.20246 224.585 8.73296 222.227 9.79396 220.223C10.8785 218.195 12.4111 216.521 14.3916 215.201C16.3957 213.881 18.9657 212.82 22.1015 212.018C25.2374 211.193 28.7033 210.615 32.4993 210.285C36.2953 209.955 40.7043 209.79 45.7264 209.79C50.7249 209.79 55.0868 209.955 58.812 210.285C62.5609 210.615 66.0032 211.193 69.1391 212.018C72.2749 212.82 74.8331 213.893 76.8136 215.236C78.8177 216.58 80.3856 218.278 81.5174 220.329C82.6491 222.357 83.2739 224.762 83.3918 227.544H56.1242Z" stroke="black" stroke-width="3.6" mask="url(#path-2-outside-1)"/>
<path d="M165.329 211.841V229.737H140.962V263.547H117.195V229.737H92.8276V211.841H165.329Z" stroke="black" stroke-width="3.6" mask="url(#path-2-outside-1)"/>
<path d="M184.243 216.58C190.963 212.053 201.349 209.79 215.401 209.79C229.453 209.79 239.828 212.053 246.524 216.58C253.243 221.107 256.603 228.145 256.603 237.694C256.603 247.243 253.243 254.281 246.524 258.808C239.828 263.335 229.453 265.598 215.401 265.598C201.349 265.598 190.963 263.335 184.243 258.808C177.547 254.281 174.199 247.243 174.199 237.694C174.199 228.145 177.547 221.107 184.243 216.58ZM204.084 246.147C206.677 248.104 210.45 249.082 215.401 249.082C220.352 249.082 224.125 248.104 226.718 246.147C229.312 244.166 230.609 241.349 230.609 237.694C230.609 234.04 229.312 231.234 226.718 229.277C224.125 227.296 220.352 226.306 215.401 226.306C210.45 226.306 206.677 227.296 204.084 229.277C201.49 231.234 200.193 234.04 200.193 237.694C200.193 241.349 201.49 244.166 204.084 246.147Z" stroke="black" stroke-width="3.6" mask="url(#path-2-outside-1)"/>
<path d="M331.432 245.546L343.845 263.547H316.366L308.019 250.391H291.255V263.547H267.524V211.841H320.362C328.308 211.841 333.99 213.327 337.409 216.297C340.827 219.245 342.537 223.76 342.537 229.843C342.537 234.275 341.57 237.659 339.637 239.993C337.703 242.327 334.968 243.931 331.432 244.803V245.546ZM310.99 236.669C314.361 236.669 316.047 235.254 316.047 232.425C316.047 229.572 314.361 228.145 310.99 228.145H291.255V236.669H310.99Z" stroke="black" stroke-width="3.6" mask="url(#path-2-outside-1)"/>
<path d="M377.012 263.547H353.281V211.841H377.012V263.547Z" stroke="black" stroke-width="3.6" mask="url(#path-2-outside-1)"/>
<path d="M412.619 224.962V231.01H452.194V242.893H412.619V249.613H454.812V263.547H388.888V211.841H454.246V224.962H412.619Z" stroke="black" stroke-width="3.6" mask="url(#path-2-outside-1)"/>
<path d="M513.513 227.544C512.688 224.29 509.08 222.663 502.691 222.663C499.036 222.663 496.443 222.97 494.91 223.583C493.378 224.196 492.611 225.092 492.611 226.271C492.611 227.261 493.107 227.992 494.097 228.464C495.087 228.935 496.832 229.253 499.331 229.418L521.577 231.081C525.09 231.34 528.119 231.823 530.666 232.531C533.212 233.215 535.405 234.181 537.244 235.431C539.107 236.68 540.498 238.272 541.417 240.205C542.337 242.115 542.797 244.402 542.797 247.066C542.797 249.259 542.537 251.216 542.018 252.937C541.5 254.635 540.745 256.132 539.755 257.429C538.765 258.726 537.444 259.846 535.794 260.789C534.144 261.732 532.304 262.51 530.277 263.123C528.273 263.736 525.856 264.219 523.027 264.573C520.221 264.95 517.274 265.209 514.185 265.351C511.096 265.516 507.536 265.598 503.504 265.598C497.987 265.598 493.26 265.422 489.322 265.068C485.408 264.738 481.836 264.16 478.606 263.335C475.376 262.486 472.771 261.343 470.79 259.904C468.833 258.466 467.301 256.651 466.193 254.458C465.108 252.242 464.507 249.601 464.389 246.536H492.081C492.647 248.799 493.861 250.403 495.724 251.346C497.61 252.265 500.368 252.725 503.999 252.725C511.261 252.725 514.892 251.346 514.892 248.587C514.892 247.432 514.374 246.618 513.336 246.147C512.322 245.652 510.601 245.286 508.173 245.051L486.953 243.176C484.218 242.94 481.801 242.61 479.703 242.186C477.628 241.738 475.671 241.125 473.832 240.347C471.993 239.545 470.484 238.578 469.305 237.447C468.15 236.291 467.242 234.865 466.582 233.167C465.921 231.47 465.591 229.513 465.591 227.296C465.591 224.585 466.122 222.227 467.183 220.223C468.267 218.195 469.8 216.521 471.78 215.201C473.785 213.881 476.355 212.82 479.49 212.018C482.626 211.193 486.092 210.615 489.888 210.285C493.684 209.955 498.093 209.79 503.115 209.79C508.114 209.79 512.476 209.955 516.201 210.285C519.95 210.615 523.392 211.193 526.528 212.018C529.664 212.82 532.222 213.893 534.202 215.236C536.207 216.58 537.775 218.278 538.906 220.329C540.038 222.357 540.663 224.762 540.781 227.544H513.513Z" stroke="black" stroke-width="3.6" mask="url(#path-2-outside-1)"/>
<path d="M633.745 227.544C632.92 224.29 629.313 222.663 622.923 222.663C619.269 222.663 616.675 222.97 615.142 223.583C613.61 224.196 612.844 225.092 612.844 226.271C612.844 227.261 613.339 227.992 614.329 228.464C615.319 228.935 617.064 229.253 619.563 229.418L641.809 231.081C645.322 231.34 648.352 231.823 650.898 232.531C653.444 233.215 655.637 234.181 657.476 235.431C659.339 236.68 660.73 238.272 661.649 240.205C662.569 242.115 663.029 244.402 663.029 247.066C663.029 249.259 662.769 251.216 662.251 252.937C661.732 254.635 660.978 256.132 659.987 257.429C658.997 258.726 657.677 259.846 656.026 260.789C654.376 261.732 652.537 262.51 650.509 263.123C648.505 263.736 646.088 264.219 643.259 264.573C640.453 264.95 637.506 265.209 634.417 265.351C631.329 265.516 627.768 265.598 623.737 265.598C618.219 265.598 613.492 265.422 609.555 265.068C605.641 264.738 602.069 264.16 598.838 263.335C595.608 262.486 593.003 261.343 591.022 259.904C589.066 258.466 587.533 256.651 586.425 254.458C585.34 252.242 584.739 249.601 584.621 246.536H612.313C612.879 248.799 614.093 250.403 615.956 251.346C617.842 252.265 620.601 252.725 624.232 252.725C631.494 252.725 635.125 251.346 635.125 248.587C635.125 247.432 634.606 246.618 633.568 246.147C632.555 245.652 630.833 245.286 628.405 245.051L607.185 243.176C604.45 242.94 602.033 242.61 599.935 242.186C597.86 241.738 595.903 241.125 594.064 240.347C592.225 239.545 590.716 238.578 589.537 237.447C588.382 236.291 587.474 234.865 586.814 233.167C586.154 231.47 585.824 229.513 585.824 227.296C585.824 224.585 586.354 222.227 587.415 220.223C588.5 218.195 590.032 216.521 592.013 215.201C594.017 213.881 596.587 212.82 599.723 212.018C602.858 211.193 606.324 210.615 610.12 210.285C613.916 209.955 618.325 209.79 623.347 209.79C628.346 209.79 632.708 209.955 636.433 210.285C640.182 210.615 643.624 211.193 646.76 212.018C649.896 212.82 652.454 213.893 654.435 215.236C656.439 216.58 658.007 218.278 659.138 220.329C660.27 222.357 660.895 224.762 661.013 227.544H633.745Z" stroke="black" stroke-width="3.6" mask="url(#path-2-outside-1)"/>
<path d="M745.709 211.841H770.501L753.596 263.547H727.99L722.402 244.838C721.978 243.424 721.53 241.844 721.058 240.099C720.61 238.331 720.268 236.928 720.033 235.891L719.644 234.299H719.078C718.205 238.142 717.286 241.702 716.319 244.98L710.802 263.547H684.666L668.185 211.841H693.083L697.575 229.136C697.928 230.55 698.306 232.142 698.707 233.91C699.107 235.655 699.414 237.046 699.626 238.083L699.944 239.675H700.546C701.394 235.832 702.255 232.389 703.127 229.348L708.22 211.841H730.501L735.559 229.348C735.936 230.715 736.337 232.26 736.761 233.981C737.209 235.702 737.551 237.081 737.787 238.119L738.176 239.675H738.777C739.531 235.832 740.333 232.271 741.182 228.994L745.709 211.841Z" stroke="black" stroke-width="3.6" mask="url(#path-2-outside-1)"/>
<path d="M802.713 263.547H778.982V211.841H802.713V263.547Z" stroke="black" stroke-width="3.6" mask="url(#path-2-outside-1)"/>
<path d="M864.986 211.841C869.23 211.841 872.826 212.23 875.773 213.008C878.72 213.786 881.09 215.001 882.882 216.651C884.697 218.278 886.006 220.27 886.807 222.628C887.609 224.962 888.01 227.792 888.01 231.116C888.01 234.393 887.609 237.187 886.807 239.498C886.006 241.809 884.697 243.766 882.882 245.369C881.09 246.972 878.72 248.163 875.773 248.941C872.826 249.695 869.23 250.073 864.986 250.073H838.32V263.547H814.553V211.841H864.986ZM856.286 236.174C860.105 236.174 862.015 234.57 862.015 231.364C862.015 228.181 860.105 226.589 856.286 226.589H838.32V236.174H856.286Z" stroke="black" stroke-width="3.6" mask="url(#path-2-outside-1)"/>
<path d="M922.167 224.962V231.01H961.742V242.893H922.167V249.613H964.359V263.547H898.436V211.841H963.793V224.962H922.167Z" stroke="black" stroke-width="3.6" mask="url(#path-2-outside-1)"/>
<path d="M1021.47 211.841C1026.49 211.841 1030.81 212.313 1034.41 213.256C1038.02 214.175 1041.07 215.661 1043.57 217.712C1046.1 219.74 1047.96 222.404 1049.16 225.705C1050.39 229.006 1051 233.002 1051 237.694C1051 242.386 1050.39 246.383 1049.16 249.684C1047.96 252.984 1046.1 255.66 1043.57 257.712C1041.07 259.739 1038.02 261.225 1034.41 262.168C1030.81 263.087 1026.49 263.547 1021.47 263.547H975.599V211.841H1021.47ZM1013.9 227.898H999.365V247.491H1013.9C1021.3 247.491 1025.01 244.225 1025.01 237.694C1025.01 231.163 1021.3 227.898 1013.9 227.898Z" stroke="black" stroke-width="3.6" mask="url(#path-2-outside-1)"/>
</svg>
