<svg width="160" height="65" viewBox="0 0 160 65" fill="none" xmlns="http://www.w3.org/2000/svg">
<rect width="160" height="65" rx="32.5" fill="#F1F1F1"/>
<path d="M41.0578 36.8595C40.3012 36.8595 39.6858 36.2441 39.6858 35.4881C39.6858 34.7321 40.3012 34.1171 41.0578 34.1171C41.8144 34.1171 42.4299 34.7319 42.4299 35.4881C42.4299 36.2442 41.8144 36.8595 41.0578 36.8595ZM25.8924 36.8595C25.1358 36.8595 24.5204 36.2441 24.5204 35.4881C24.5204 34.7321 25.1357 34.1171 25.8924 34.1171C26.6489 34.1171 27.2643 34.7319 27.2643 35.4881C27.2643 36.2442 26.6491 36.8595 25.8924 36.8595ZM41.5499 28.6006L44.292 23.8548C44.3675 23.7238 44.3879 23.5683 44.3488 23.4223C44.3096 23.2763 44.2141 23.1518 44.0832 23.0761C43.9521 23.0007 43.7965 22.9803 43.6504 23.0195C43.5043 23.0586 43.3797 23.154 43.3039 23.2848L40.5275 28.0905C38.4041 27.1224 36.0196 26.5829 33.4751 26.5829C30.9306 26.5829 28.546 27.1224 26.4228 28.0905L23.6462 23.2848C23.5704 23.154 23.4458 23.0586 23.2997 23.0195C23.1537 22.9803 22.998 23.0007 22.8669 23.0761C22.736 23.1517 22.6404 23.2762 22.6012 23.4223C22.5621 23.5683 22.5825 23.7239 22.6581 23.8548L25.4003 28.6006C20.6916 31.1597 17.4711 35.9232 17 41.551H49.9501C49.4786 35.9233 46.2582 31.1598 41.5499 28.6006Z" fill="url(#paint0_linear)"/>
<path d="M67.3938 25.5782L62.1914 40.5646H64.5892L65.831 36.8394H71.1833L72.425 40.5646H74.8228L69.6204 25.5782H67.3938ZM68.5071 28.554L70.4768 34.6128H66.5375L68.5071 28.554Z" fill="black"/>
<path d="M76.6143 29.7744V40.5646H78.8409V36.1971C78.8409 33.2212 80.2111 31.5727 81.6027 31.5727C82.6089 31.5727 83.2726 32.0865 83.2726 33.5424V40.5646H85.4991V32.8359C85.4991 30.7378 84.2146 29.6031 82.3306 29.6031C80.8962 29.6031 79.6116 30.331 78.8409 31.6155V29.7744H76.6143Z" fill="black"/>
<path d="M87.7603 35.1695C87.7603 38.6163 89.3874 40.7358 92.5774 40.7358C93.9904 40.7358 95.1465 39.9437 95.5104 39.3228V40.5646H97.737V25.4069H95.5104V30.9733C95.018 30.2668 93.6906 29.6031 92.6202 29.6031C89.3874 29.6031 87.7603 31.8296 87.7603 35.1695ZM90.1153 35.1695C90.1153 32.9429 91.2714 31.5727 92.8771 31.5727C94.4828 31.5727 95.6389 32.9429 95.6389 35.1695C95.6389 37.396 94.4828 38.7662 92.8771 38.7662C91.2714 38.7662 90.1153 37.396 90.1153 35.1695Z" fill="black"/>
<path d="M102.968 40.5646V36.5611C102.968 33.157 104.445 31.5727 105.88 31.5727C106.329 31.5727 106.8 31.6798 107.143 31.8939L107.528 29.86C107.207 29.7315 106.736 29.6031 106.158 29.6031C105.002 29.6031 103.717 30.2882 102.968 31.5727V29.7744H100.741V40.5646H102.968Z" fill="black"/>
<path d="M108.647 35.1695C108.647 38.2096 110.616 40.7358 113.956 40.7358C117.296 40.7358 119.266 38.2096 119.266 35.1695C119.266 32.1294 117.296 29.6031 113.956 29.6031C110.616 29.6031 108.647 32.1294 108.647 35.1695ZM111.002 35.1695C111.002 33.3497 112.008 31.5727 113.956 31.5727C115.904 31.5727 116.911 33.3497 116.911 35.1695C116.911 36.9892 115.904 38.7662 113.956 38.7662C112.008 38.7662 111.002 36.9892 111.002 35.1695Z" fill="black"/>
<path d="M121.302 26.7343C121.302 27.5906 121.965 28.2543 122.843 28.2543C123.721 28.2543 124.385 27.5906 124.385 26.7343C124.385 25.8779 123.721 25.1714 122.843 25.1714C121.965 25.1714 121.302 25.8779 121.302 26.7343ZM121.73 29.7744V40.5646H123.956V29.7744H121.73Z" fill="black"/>
<path d="M126.355 35.1695C126.355 38.6163 127.982 40.7358 131.172 40.7358C132.585 40.7358 133.741 39.9437 134.105 39.3228V40.5646H136.332V25.4069H134.105V30.9733C133.613 30.2668 132.286 29.6031 131.215 29.6031C127.982 29.6031 126.355 31.8296 126.355 35.1695ZM128.71 35.1695C128.71 32.9429 129.866 31.5727 131.472 31.5727C133.078 31.5727 134.234 32.9429 134.234 35.1695C134.234 37.396 133.078 38.7662 131.472 38.7662C129.866 38.7662 128.71 37.396 128.71 35.1695Z" fill="black"/>
<defs>
<linearGradient id="paint0_linear" x1="17" y1="27" x2="58.5" y2="54" gradientUnits="userSpaceOnUse">
<stop stop-color="#24B4BB"/>
<stop offset="1" stop-color="#FFB37D"/>
</linearGradient>
</defs>
</svg>
