<svg width="86" height="34" viewBox="0 0 86 34" fill="none" xmlns="http://www.w3.org/2000/svg">
<g filter="url(#filter0_d)">
<path fill-rule="evenodd" clip-rule="evenodd" d="M8 0C5.79086 0 4 1.79086 4 4V16C4 18.2091 5.79086 20 8 20H33.5V25.5L38.2143 20H78C80.2091 20 82 18.2091 82 16V4C82 1.79086 80.2091 0 78 0H8Z" fill="url(#paint0_linear)"/>
<path d="M17.0183 8.048C16.5863 6.464 15.4103 5.504 13.6223 5.504C11.5943 5.504 9.73426 6.956 9.73426 9.8C9.73426 12.644 11.5943 14.096 13.6223 14.096C15.4103 14.096 16.5863 13.136 17.0183 11.552L15.7703 11.24C15.3503 12.308 14.7623 12.848 13.6223 12.848C12.2063 12.848 11.0783 11.852 11.0783 9.8C11.0783 7.748 12.2063 6.752 13.6223 6.752C14.7623 6.752 15.3503 7.292 15.7703 8.36L17.0183 8.048ZM17.6471 10.976C17.6471 12.68 18.7511 14.096 20.6231 14.096C22.4951 14.096 23.5991 12.68 23.5991 10.976C23.5991 9.272 22.4951 7.856 20.6231 7.856C18.7511 7.856 17.6471 9.272 17.6471 10.976ZM18.9671 10.976C18.9671 9.956 19.5311 8.96 20.6231 8.96C21.7151 8.96 22.2791 9.956 22.2791 10.976C22.2791 11.996 21.7151 12.992 20.6231 12.992C19.5311 12.992 18.9671 11.996 18.9671 10.976ZM24.7038 7.952V14H25.9518V11.708C25.9518 9.908 26.6118 8.96 27.3678 8.96C27.8958 8.96 28.2558 9.284 28.2558 9.944V14H29.5038V11.576C29.5038 9.908 30.1758 8.96 30.9198 8.96C31.4478 8.96 31.8078 9.284 31.8078 9.944V14H33.0558V9.668C33.0558 8.612 32.4318 7.856 31.3278 7.856C30.5478 7.856 29.8638 8.312 29.4438 9.104C29.2638 8.348 28.5918 7.856 27.7758 7.856C27.0438 7.856 26.4438 8.228 25.9518 8.984V7.952H24.7038ZM34.0282 6.248C34.0282 6.728 34.4002 7.1 34.8922 7.1C35.3842 7.1 35.7562 6.728 35.7562 6.248C35.7562 5.768 35.3842 5.372 34.8922 5.372C34.4002 5.372 34.0282 5.768 34.0282 6.248ZM34.2682 7.952V14H35.5162V7.952H34.2682ZM36.769 7.952V14H38.017V11.552C38.017 9.884 38.785 8.96 39.565 8.96C40.129 8.96 40.501 9.248 40.501 10.064V14H41.749V9.668C41.749 8.492 41.029 7.856 39.973 7.856C39.169 7.856 38.449 8.264 38.017 8.984V7.952H36.769ZM43.1124 9.884C43.1124 10.4 43.2564 10.832 43.5204 11.156C43.0764 11.408 42.7884 11.84 42.7884 12.38C42.7884 12.8 42.9204 13.112 43.1364 13.328C42.8244 13.616 42.6204 14.036 42.6204 14.552C42.6204 15.872 43.7604 16.544 45.2844 16.544C46.6404 16.544 47.9364 15.956 47.9364 14.456C47.9364 13.316 47.1204 12.728 45.9324 12.728H44.6004C44.1804 12.728 43.9764 12.584 43.9764 12.26C43.9764 12.032 44.0844 11.852 44.3004 11.732C44.5764 11.84 44.9124 11.912 45.2724 11.912C46.4964 11.912 47.4444 11.156 47.4444 9.884C47.4444 9.5 47.3484 9.164 47.1804 8.876L47.9964 8.42L47.4924 7.52L46.3764 8.12C46.0524 7.952 45.6804 7.856 45.2724 7.856C44.0484 7.856 43.1124 8.624 43.1124 9.884ZM45.6684 13.784C46.2564 13.784 46.6644 13.976 46.6644 14.552C46.6644 15.14 46.1484 15.464 45.2844 15.464C44.3604 15.464 43.8204 15.08 43.8204 14.48C43.8204 14.168 43.9044 13.94 44.0844 13.748C44.2764 13.772 44.4804 13.784 44.6964 13.784H45.6684ZM44.3244 9.884C44.3244 9.284 44.7204 8.9 45.2724 8.9C45.8364 8.9 46.2324 9.284 46.2324 9.884C46.2324 10.484 45.8364 10.868 45.2724 10.868C44.7204 10.868 44.3244 10.484 44.3244 9.884ZM56.019 6.92C55.575 6.128 54.855 5.504 53.703 5.504C52.479 5.504 51.507 6.44 51.507 7.712C51.507 10.304 55.083 9.944 55.083 11.588C55.083 12.332 54.555 12.848 53.799 12.848C52.839 12.848 52.347 12.008 52.107 11.072L51.027 11.756C51.327 13.1 52.323 14.096 53.799 14.096C55.311 14.096 56.427 13.076 56.427 11.54C56.427 8.948 52.827 9.272 52.827 7.616C52.827 7.124 53.163 6.704 53.703 6.704C54.195 6.704 54.615 6.992 54.951 7.628L56.019 6.92ZM57.256 10.976C57.256 12.68 58.36 14.096 60.232 14.096C62.104 14.096 63.208 12.68 63.208 10.976C63.208 9.272 62.104 7.856 60.232 7.856C58.36 7.856 57.256 9.272 57.256 10.976ZM58.576 10.976C58.576 9.956 59.14 8.96 60.232 8.96C61.324 8.96 61.888 9.956 61.888 10.976C61.888 11.996 61.324 12.992 60.232 12.992C59.14 12.992 58.576 11.996 58.576 10.976ZM63.9742 10.976C63.9742 12.68 65.0782 14.096 66.9502 14.096C68.8222 14.096 69.9262 12.68 69.9262 10.976C69.9262 9.272 68.8222 7.856 66.9502 7.856C65.0782 7.856 63.9742 9.272 63.9742 10.976ZM65.2942 10.976C65.2942 9.956 65.8582 8.96 66.9502 8.96C68.0422 8.96 68.6062 9.956 68.6062 10.976C68.6062 11.996 68.0422 12.992 66.9502 12.992C65.8582 12.992 65.2942 11.996 65.2942 10.976ZM70.9488 7.952V14H72.1968V11.552C72.1968 9.884 72.9648 8.96 73.7448 8.96C74.3088 8.96 74.6808 9.248 74.6808 10.064V14H75.9288V9.668C75.9288 8.492 75.2088 7.856 74.1528 7.856C73.3488 7.856 72.6288 8.264 72.1968 8.984V7.952H70.9488Z" fill="white"/>
</g>
<defs>
<filter id="filter0_d" x="0" y="0" width="86" height="33.5" filterUnits="userSpaceOnUse" color-interpolation-filters="sRGB">
<feFlood flood-opacity="0" result="BackgroundImageFix"/>
<feColorMatrix in="SourceAlpha" type="matrix" values="0 0 0 0 0 0 0 0 0 0 0 0 0 0 0 0 0 0 127 0"/>
<feOffset dy="4"/>
<feGaussianBlur stdDeviation="2"/>
<feColorMatrix type="matrix" values="0 0 0 0 0.905882 0 0 0 0 0.45098 0 0 0 0 0.160784 0 0 0 0.21 0"/>
<feBlend mode="normal" in2="BackgroundImageFix" result="effect1_dropShadow"/>
<feBlend mode="normal" in="SourceGraphic" in2="effect1_dropShadow" result="shape"/>
</filter>
<linearGradient id="paint0_linear" x1="38" y1="3" x2="85" y2="14.5" gradientUnits="userSpaceOnUse">
<stop stop-color="#E77329" stop-opacity="0.5"/>
<stop offset="1" stop-color="#E77329" stop-opacity="0"/>
</linearGradient>
</defs>
</svg>
