<svg width="223" height="23" viewBox="0 0 223 23" fill="none" xmlns="http://www.w3.org/2000/svg">
<path d="M5.24609 4.62891V7.47656H16.5312V10.9805H5.24609V14.25H17.2578V18H0.441406V0.867188H16.9883V4.62891H5.24609Z" fill="black"/>
<path d="M29.8855 11.2617L35.7448 18H29.698L26.78 14.1094L23.8152 18H17.7683L23.6394 11.2617L18.3894 5.05078H24.155L26.78 8.66016L29.3581 5.05078H35.1237L29.8855 11.2617Z" fill="black"/>
<path d="M41.3061 16.6875H41.1772V22.3945H36.4545V5.05078H41.0834V6.70312H41.2123C42.3686 5.38281 44.0092 4.72266 46.1342 4.72266C48.3686 4.72266 50.142 5.32422 51.4545 6.52734C52.767 7.73047 53.4233 9.42578 53.4233 11.6133C53.4233 13.8008 52.767 15.4961 51.4545 16.6992C50.142 17.9023 48.3686 18.5039 46.1342 18.5039C44.1264 18.5039 42.517 17.8984 41.3061 16.6875ZM44.8217 8.17969C43.603 8.17969 42.6655 8.48438 42.0092 9.09375C41.353 9.70312 41.0248 10.543 41.0248 11.6133C41.0248 12.6836 41.353 13.5234 42.0092 14.1328C42.6655 14.7344 43.603 15.0352 44.8217 15.0352C46.0327 15.0352 46.9506 14.7461 47.5756 14.168C48.2006 13.582 48.5131 12.7305 48.5131 11.6133C48.5131 10.4961 48.2006 9.64453 47.5756 9.05859C46.9506 8.47266 46.0327 8.17969 44.8217 8.17969Z" fill="black"/>
<path d="M54.6955 18V0.621094H59.4181V18H54.6955Z" fill="black"/>
<path d="M62.8583 6.36328C64.3192 5.15234 66.4637 4.54688 69.2919 4.54688C72.12 4.54688 74.2645 5.15234 75.7255 6.36328C77.1864 7.57422 77.9169 9.29297 77.9169 11.5195C77.9169 13.7461 77.1864 15.4688 75.7255 16.6875C74.2645 17.8984 72.12 18.5039 69.2919 18.5039C66.4637 18.5039 64.3192 17.8984 62.8583 16.6875C61.3973 15.4688 60.6669 13.7461 60.6669 11.5195C60.6669 9.29297 61.3973 7.57422 62.8583 6.36328ZM66.5145 14.1211C67.1473 14.7305 68.0731 15.0352 69.2919 15.0352C70.5106 15.0352 71.4325 14.7305 72.0575 14.1211C72.6903 13.5117 73.0067 12.6445 73.0067 11.5195C73.0067 10.4023 72.6903 9.53906 72.0575 8.92969C71.4325 8.32031 70.5106 8.01562 69.2919 8.01562C68.0731 8.01562 67.1473 8.32031 66.5145 8.92969C65.8895 9.53906 65.577 10.4023 65.577 11.5195C65.577 12.6445 65.8895 13.5117 66.5145 14.1211Z" fill="black"/>
<path d="M79.1773 5.05078H83.8063V6.75H83.9352C84.5992 6.03906 85.3844 5.52344 86.2906 5.20312C87.2047 4.875 88.3023 4.71094 89.5836 4.71094C89.9508 4.71094 90.318 4.74609 90.6852 4.81641V9.38672C89.8883 9.21484 89.1695 9.12891 88.5289 9.12891C85.443 9.12891 83.9 10.3594 83.9 12.8203V18H79.1773V5.05078Z" fill="black"/>
<path d="M108.235 11.5195C108.235 11.9727 108.211 12.3633 108.164 12.6914H95.9886C96.2386 14.4961 97.4691 15.3984 99.68 15.3984C100.141 15.3984 100.559 15.3633 100.934 15.293C101.317 15.2148 101.618 15.125 101.836 15.0234C102.063 14.9141 102.258 14.7891 102.422 14.6484C102.586 14.5078 102.7 14.3867 102.762 14.2852C102.832 14.1836 102.887 14.082 102.926 13.9805H108.047C108.008 14.4492 107.903 14.8867 107.731 15.293C107.559 15.6992 107.27 16.1055 106.864 16.5117C106.465 16.918 105.961 17.2656 105.352 17.5547C104.75 17.8359 103.965 18.0625 102.996 18.2344C102.028 18.4141 100.922 18.5039 99.68 18.5039C96.8519 18.5039 94.7073 17.8984 93.2464 16.6875C91.7855 15.4688 91.055 13.7461 91.055 11.5195C91.055 9.29297 91.7816 7.57422 93.2347 6.36328C94.6956 5.15234 96.8323 4.54688 99.6448 4.54688C102.457 4.54688 104.59 5.15234 106.043 6.36328C107.504 7.57422 108.235 9.29297 108.235 11.5195ZM103.184 9.78516C102.778 8.36328 101.598 7.65234 99.6448 7.65234C97.6917 7.65234 96.512 8.36328 96.1058 9.78516H103.184Z" fill="black"/>
<path d="M131.076 0.867188H136.677L128.627 18H123.646L115.595 0.867188H121.22L124.818 9.1875C125.013 9.63281 125.217 10.1172 125.427 10.6406C125.638 11.1562 125.802 11.5625 125.92 11.8594L126.084 12.3164H126.213C126.619 11.2305 127.041 10.1875 127.478 9.1875L131.076 0.867188Z" fill="black"/>
<path d="M136.415 6.36328C137.875 5.15234 140.02 4.54688 142.848 4.54688C145.676 4.54688 147.821 5.15234 149.282 6.36328C150.743 7.57422 151.473 9.29297 151.473 11.5195C151.473 13.7461 150.743 15.4688 149.282 16.6875C147.821 17.8984 145.676 18.5039 142.848 18.5039C140.02 18.5039 137.875 17.8984 136.415 16.6875C134.954 15.4688 134.223 13.7461 134.223 11.5195C134.223 9.29297 134.954 7.57422 136.415 6.36328ZM140.071 14.1211C140.704 14.7305 141.629 15.0352 142.848 15.0352C144.067 15.0352 144.989 14.7305 145.614 14.1211C146.247 13.5117 146.563 12.6445 146.563 11.5195C146.563 10.4023 146.247 9.53906 145.614 8.92969C144.989 8.32031 144.067 8.01562 142.848 8.01562C141.629 8.01562 140.704 8.32031 140.071 8.92969C139.446 9.53906 139.133 10.4023 139.133 11.5195C139.133 12.6445 139.446 13.5117 140.071 14.1211Z" fill="black"/>
<path d="M152.734 18V0.621094H157.456V18H152.734Z" fill="black"/>
<path d="M170.529 5.05078H175.861L169.416 18H164.518L158.072 5.05078H163.404L165.631 10.1367C165.826 10.5742 166.029 11.0547 166.24 11.5781C166.451 12.0938 166.611 12.5 166.721 12.7969L166.896 13.2422H167.025C167.447 12.1719 167.873 11.1406 168.303 10.1484L170.529 5.05078Z" fill="black"/>
<path d="M190 10.577C196.195 10.577 202.39 10.6037 208.586 10.6515C212.007 10.6779 215.468 10.8627 218.891 10.7261C219.112 10.7173 218.451 10.6173 218.259 10.4776C217.797 10.1401 217.373 9.70961 216.917 9.35548C215.167 7.99645 213.266 6.92216 211.409 5.82345C211.153 5.67187 211.01 5.58125 210.761 5.41766C210.574 5.29524 210.109 4.82438 210.194 5.06984C210.297 5.37318 210.866 5.76462 211.053 5.91455C211.582 6.33911 212.155 6.66722 212.719 7.00769C215.398 8.62594 218.139 10.0745 220.908 11.4217C221.101 11.5156 220.942 11.4667 220.869 11.4714C220.584 11.4896 220.215 11.8091 219.961 11.9351C218.984 12.4204 218.037 12.9742 217.076 13.5086C215.568 14.3474 214.021 15.1073 212.612 16.2042C212.068 16.6277 211.681 17.2545 211.182 17.7321" stroke="black" stroke-width="2" stroke-linecap="round" stroke-linejoin="round"/>
</svg>
