<svg width="224" height="28" viewBox="0 0 224 28" fill="none" xmlns="http://www.w3.org/2000/svg">
<path d="M6.24609 4.62891V7.47656H17.5312V10.9805H6.24609V14.25H18.2578V18H1.44141V0.867188H17.9883V4.62891H6.24609Z" fill="black"/>
<path d="M30.8855 11.2617L36.7448 18H30.698L27.78 14.1094L24.8152 18H18.7683L24.6394 11.2617L19.3894 5.05078H25.155L27.78 8.66016L30.3581 5.05078H36.1237L30.8855 11.2617Z" fill="black"/>
<path d="M42.3061 16.6875H42.1772V22.3945H37.4545V5.05078H42.0834V6.70312H42.2123C43.3686 5.38281 45.0092 4.72266 47.1342 4.72266C49.3686 4.72266 51.142 5.32422 52.4545 6.52734C53.767 7.73047 54.4233 9.42578 54.4233 11.6133C54.4233 13.8008 53.767 15.4961 52.4545 16.6992C51.142 17.9023 49.3686 18.5039 47.1342 18.5039C45.1264 18.5039 43.517 17.8984 42.3061 16.6875ZM45.8217 8.17969C44.603 8.17969 43.6655 8.48438 43.0092 9.09375C42.353 9.70312 42.0248 10.543 42.0248 11.6133C42.0248 12.6836 42.353 13.5234 43.0092 14.1328C43.6655 14.7344 44.603 15.0352 45.8217 15.0352C47.0327 15.0352 47.9506 14.7461 48.5756 14.168C49.2006 13.582 49.5131 12.7305 49.5131 11.6133C49.5131 10.4961 49.2006 9.64453 48.5756 9.05859C47.9506 8.47266 47.0327 8.17969 45.8217 8.17969Z" fill="black"/>
<path d="M55.6955 18V0.621094H60.4181V18H55.6955Z" fill="black"/>
<path d="M63.8583 6.36328C65.3192 5.15234 67.4637 4.54688 70.2919 4.54688C73.12 4.54688 75.2645 5.15234 76.7255 6.36328C78.1864 7.57422 78.9169 9.29297 78.9169 11.5195C78.9169 13.7461 78.1864 15.4688 76.7255 16.6875C75.2645 17.8984 73.12 18.5039 70.2919 18.5039C67.4637 18.5039 65.3192 17.8984 63.8583 16.6875C62.3973 15.4688 61.6669 13.7461 61.6669 11.5195C61.6669 9.29297 62.3973 7.57422 63.8583 6.36328ZM67.5145 14.1211C68.1473 14.7305 69.0731 15.0352 70.2919 15.0352C71.5106 15.0352 72.4325 14.7305 73.0575 14.1211C73.6903 13.5117 74.0067 12.6445 74.0067 11.5195C74.0067 10.4023 73.6903 9.53906 73.0575 8.92969C72.4325 8.32031 71.5106 8.01562 70.2919 8.01562C69.0731 8.01562 68.1473 8.32031 67.5145 8.92969C66.8895 9.53906 66.577 10.4023 66.577 11.5195C66.577 12.6445 66.8895 13.5117 67.5145 14.1211Z" fill="black"/>
<path d="M80.1773 5.05078H84.8063V6.75H84.9352C85.5992 6.03906 86.3844 5.52344 87.2906 5.20312C88.2047 4.875 89.3023 4.71094 90.5836 4.71094C90.9508 4.71094 91.318 4.74609 91.6852 4.81641V9.38672C90.8883 9.21484 90.1695 9.12891 89.5289 9.12891C86.443 9.12891 84.9 10.3594 84.9 12.8203V18H80.1773V5.05078Z" fill="black"/>
<path d="M109.235 11.5195C109.235 11.9727 109.211 12.3633 109.164 12.6914H96.9886C97.2386 14.4961 98.4691 15.3984 100.68 15.3984C101.141 15.3984 101.559 15.3633 101.934 15.293C102.317 15.2148 102.618 15.125 102.836 15.0234C103.063 14.9141 103.258 14.7891 103.422 14.6484C103.586 14.5078 103.7 14.3867 103.762 14.2852C103.832 14.1836 103.887 14.082 103.926 13.9805H109.047C109.008 14.4492 108.903 14.8867 108.731 15.293C108.559 15.6992 108.27 16.1055 107.864 16.5117C107.465 16.918 106.961 17.2656 106.352 17.5547C105.75 17.8359 104.965 18.0625 103.996 18.2344C103.028 18.4141 101.922 18.5039 100.68 18.5039C97.8519 18.5039 95.7073 17.8984 94.2464 16.6875C92.7855 15.4688 92.055 13.7461 92.055 11.5195C92.055 9.29297 92.7816 7.57422 94.2347 6.36328C95.6956 5.15234 97.8323 4.54688 100.645 4.54688C103.457 4.54688 105.59 5.15234 107.043 6.36328C108.504 7.57422 109.235 9.29297 109.235 11.5195ZM104.184 9.78516C103.778 8.36328 102.598 7.65234 100.645 7.65234C98.6917 7.65234 97.512 8.36328 97.1058 9.78516H104.184Z" fill="black"/>
<path d="M132.076 0.867188H137.677L129.627 18H124.646L116.595 0.867188H122.22L125.818 9.1875C126.013 9.63281 126.217 10.1172 126.427 10.6406C126.638 11.1562 126.802 11.5625 126.92 11.8594L127.084 12.3164H127.213C127.619 11.2305 128.041 10.1875 128.478 9.1875L132.076 0.867188Z" fill="black"/>
<path d="M137.415 6.36328C138.875 5.15234 141.02 4.54688 143.848 4.54688C146.676 4.54688 148.821 5.15234 150.282 6.36328C151.743 7.57422 152.473 9.29297 152.473 11.5195C152.473 13.7461 151.743 15.4688 150.282 16.6875C148.821 17.8984 146.676 18.5039 143.848 18.5039C141.02 18.5039 138.875 17.8984 137.415 16.6875C135.954 15.4688 135.223 13.7461 135.223 11.5195C135.223 9.29297 135.954 7.57422 137.415 6.36328ZM141.071 14.1211C141.704 14.7305 142.629 15.0352 143.848 15.0352C145.067 15.0352 145.989 14.7305 146.614 14.1211C147.247 13.5117 147.563 12.6445 147.563 11.5195C147.563 10.4023 147.247 9.53906 146.614 8.92969C145.989 8.32031 145.067 8.01562 143.848 8.01562C142.629 8.01562 141.704 8.32031 141.071 8.92969C140.446 9.53906 140.133 10.4023 140.133 11.5195C140.133 12.6445 140.446 13.5117 141.071 14.1211Z" fill="black"/>
<path d="M153.734 18V0.621094H158.456V18H153.734Z" fill="black"/>
<path d="M171.529 5.05078H176.861L170.416 18H165.518L159.072 5.05078H164.404L166.631 10.1367C166.826 10.5742 167.029 11.0547 167.24 11.5781C167.451 12.0938 167.611 12.5 167.721 12.7969L167.896 13.2422H168.025C168.447 12.1719 168.873 11.1406 169.303 10.1484L171.529 5.05078Z" fill="black"/>
<path d="M0 26.3672H176.943V27.5625H0V26.3672Z" fill="black"/>
<path d="M191 10.577C197.195 10.577 203.39 10.6037 209.586 10.6515C213.007 10.6779 216.468 10.8627 219.891 10.7261C220.112 10.7173 219.451 10.6173 219.259 10.4776C218.797 10.1401 218.373 9.70961 217.917 9.35548C216.167 7.99645 214.266 6.92216 212.409 5.82345C212.153 5.67187 212.01 5.58125 211.761 5.41766C211.574 5.29524 211.109 4.82438 211.194 5.06984C211.297 5.37318 211.866 5.76462 212.053 5.91455C212.582 6.33911 213.155 6.66722 213.719 7.00769C216.398 8.62594 219.139 10.0745 221.908 11.4217C222.101 11.5156 221.942 11.4667 221.869 11.4714C221.584 11.4896 221.215 11.8091 220.961 11.9351C219.984 12.4204 219.037 12.9742 218.076 13.5086C216.568 14.3474 215.021 15.1073 213.612 16.2042C213.068 16.6277 212.681 17.2545 212.182 17.7321" stroke="black" stroke-width="2" stroke-linecap="round" stroke-linejoin="round"/>
</svg>
