<svg width="20" height="20" viewBox="0 0 20 20" fill="none" xmlns="http://www.w3.org/2000/svg">
<path d="M13.0666 2H6.92935C5.62193 2.00021 4.36814 2.51977 3.44373 3.44437C2.51932 4.36898 2 5.62293 2 6.93041V13.0704C2 14.3778 2.51934 15.6317 3.44378 16.5562C4.36821 17.4807 5.622 18 6.92935 18H13.0698C14.3772 18 15.631 17.4807 16.5554 16.5562C17.4799 15.6317 17.9992 14.3778 17.9992 13.0704V6.93041C17.9993 6.28271 17.8718 5.64132 17.6239 5.04294C17.376 4.44455 17.0127 3.90089 16.5546 3.44301C16.0965 2.98512 15.5527 2.622 14.9542 2.3744C14.3557 2.12681 13.7143 1.99958 13.0666 2V2ZM16.4601 12.48C16.4601 13.5364 16.0404 14.5496 15.2935 15.2966C14.5465 16.0436 13.5334 16.4632 12.4771 16.4632H7.51731C6.99418 16.4633 6.47618 16.3604 5.99285 16.1602C5.50951 15.9601 5.07034 15.6667 4.7004 15.2968C4.33046 14.927 4.03699 14.4878 3.83677 14.0045C3.63656 13.5212 3.53352 13.0031 3.53352 12.48V7.52001C3.53373 6.46353 3.95354 5.45038 4.70062 4.70341C5.44771 3.95644 6.46087 3.53681 7.51731 3.53681H12.4771C13.5334 3.53702 14.5463 3.95673 15.2932 4.70368C16.0402 5.45063 16.4599 6.46367 16.4601 7.52001V12.48Z" fill="black"/>
<path d="M10.2072 5.81445C9.65368 5.81435 9.10561 5.92326 8.59423 6.13501C8.08285 6.34676 7.61818 6.65718 7.22677 7.04854C6.83536 7.43989 6.52488 7.9045 6.31305 8.41587C6.10121 8.92724 5.99219 9.47535 5.99219 10.0289C5.9924 11.1467 6.43657 12.2186 7.22701 13.0089C8.01746 13.7993 9.08942 14.2432 10.2072 14.2432C11.3248 14.243 12.3966 13.799 13.1868 13.0086C13.9771 12.2183 14.4212 11.1465 14.4214 10.0289C14.4214 8.91113 13.9774 7.83916 13.187 7.0488C12.3967 6.25845 11.3248 5.81445 10.2072 5.81445V5.81445ZM10.2072 12.564C9.53475 12.564 8.88988 12.297 8.41433 11.8216C7.93879 11.3461 7.67152 10.7013 7.6713 10.0289C7.6712 9.6958 7.73671 9.36596 7.86412 9.05823C7.99152 8.7505 8.1783 8.47091 8.4138 8.2354C8.6493 7.99989 8.92889 7.81308 9.23661 7.68567C9.54432 7.55826 9.87412 7.49274 10.2072 7.49285C10.5401 7.49285 10.8699 7.55846 11.1775 7.68591C11.4851 7.81337 11.7646 8.00017 12 8.23567C12.2354 8.47117 12.4222 8.75075 12.5495 9.05842C12.6769 9.3661 12.7424 9.69587 12.7422 10.0289C12.7414 10.7008 12.474 11.3449 11.9987 11.8197C11.5234 12.2946 10.879 12.5614 10.2072 12.5616V12.564Z" fill="black"/>
<path d="M15.2017 5.74778C15.2015 6.03195 15.0884 6.30441 14.8874 6.50527C14.6864 6.70614 14.4139 6.819 14.1298 6.819C13.8457 6.819 13.5732 6.70612 13.3723 6.50523C13.1714 6.30434 13.0586 6.03188 13.0586 5.74778C13.0586 5.46361 13.1714 5.19106 13.3723 4.99004C13.5731 4.78902 13.8456 4.67599 14.1298 4.67578C14.414 4.67599 14.6865 4.789 14.8875 4.98999C15.0885 5.19098 15.2015 5.46353 15.2017 5.74778V5.74778Z" fill="black"/>
</svg>
