<svg width="149" height="65" viewBox="0 0 149 65" fill="none" xmlns="http://www.w3.org/2000/svg">
<rect width="149" height="65" rx="32.5" fill="white"/>
<rect width="149" height="65" rx="32.5" fill="white"/>
<path d="M52.9275 32.4763C52.9687 36.9109 56.8178 38.3866 56.8605 38.4054C56.8279 38.5095 56.2454 40.5084 54.8326 42.5732C53.6112 44.3584 52.3436 46.1369 50.3467 46.1737C48.3846 46.2099 47.7537 45.0102 45.5104 45.0102C43.2678 45.0102 42.5668 46.1369 40.7095 46.2099C38.782 46.2829 37.3142 44.2796 36.0827 42.501C33.5662 38.8629 31.6432 32.2205 34.2254 27.7368C35.5082 25.5102 37.8006 24.1002 40.2889 24.064C42.1816 24.0279 43.9681 25.3374 45.1252 25.3374C46.2816 25.3374 48.4525 23.7626 50.7348 23.9939C51.6903 24.0337 54.3723 24.3799 56.0944 26.9006C55.9556 26.9867 52.8943 28.7688 52.9275 32.4763V32.4763ZM49.2399 21.587C50.2633 20.3483 50.952 18.6239 50.7641 16.9082C49.2891 16.9675 47.5054 17.8911 46.4474 19.1291C45.4993 20.2254 44.6689 21.9801 44.8929 23.6619C46.537 23.7891 48.2166 22.8264 49.2399 21.587Z" fill="black"/>
<path d="M73.2344 28.1698C73.2344 29.0262 73.8981 29.6899 74.7758 29.6899C75.6536 29.6899 76.3173 29.0262 76.3173 28.1698C76.3173 27.3134 75.6536 26.6069 74.7758 26.6069C73.8981 26.6069 73.2344 27.3134 73.2344 28.1698ZM73.6626 31.2099V42.0001H75.8891V31.2099H73.6626Z" fill="black"/>
<path d="M85.5794 26.8424C81.9185 26.8424 78.7071 29.3901 78.7071 34.5069C78.7071 39.6237 81.9185 42.1714 85.5794 42.1714C89.2404 42.1714 92.4518 39.6237 92.4518 34.5069C92.4518 29.3901 89.2404 26.8424 85.5794 26.8424ZM85.5794 29.069C87.9987 29.069 90.0539 30.8031 90.0539 34.5069C90.0539 38.2107 87.9987 39.9448 85.5794 39.9448C83.1602 39.9448 81.1049 38.2107 81.1049 34.5069C81.1049 30.8031 83.1602 29.069 85.5794 29.069Z" fill="black"/>
<path d="M103.162 29.3687C102.37 27.9557 101.085 26.8424 99.0299 26.8424C96.8462 26.8424 95.112 28.5123 95.112 30.7817C95.112 35.4061 101.492 34.7638 101.492 37.6969C101.492 39.0242 100.55 39.9448 99.2012 39.9448C97.4884 39.9448 96.6107 38.4462 96.1825 36.7763L94.2557 37.9966C94.7909 40.3944 96.5679 42.1714 99.2012 42.1714C101.899 42.1714 103.89 40.3516 103.89 37.6112C103.89 32.9869 97.467 33.5649 97.467 30.6104C97.467 29.7327 98.0665 28.9834 99.0299 28.9834C99.9077 28.9834 100.657 29.4972 101.256 30.6319L103.162 29.3687Z" fill="black"/>
</svg>
