<svg width="152" height="15" viewBox="0 0 152 15" fill="none" xmlns="http://www.w3.org/2000/svg">
<path d="M0.441406 0.799874V11.9999H7.27341V10.0799H2.52141V0.799874H0.441406Z" fill="#E77329" fill-opacity="0.63"/>
<path d="M10.2645 0.799874V11.9999H17.3525V10.0799H12.3445V6.99187H16.2325V5.07187H12.3445V2.71987H17.1925V0.799874H10.2645Z" fill="#E77329" fill-opacity="0.63"/>
<path d="M26.886 11.9999H29.126L25.334 0.799874H23.254L19.462 11.9999H21.702L22.518 9.35987H26.07L26.886 11.9999ZM24.294 3.55188L25.478 7.43987H23.11L24.294 3.55188Z" fill="#E77329" fill-opacity="0.63"/>
<path d="M39.2582 3.98387C39.2582 2.12787 38.0902 0.799874 35.8502 0.799874H31.7702V11.9999H33.8502V7.16787H34.9382L37.9462 11.9999H40.2662L37.1622 6.99187C38.5222 6.57587 39.2582 5.45587 39.2582 3.98387ZM35.8662 5.24787H33.8502V2.71987H35.8662C36.6182 2.71987 37.1782 3.07187 37.1782 3.98387C37.1782 4.89587 36.6182 5.24787 35.8662 5.24787Z" fill="#E77329" fill-opacity="0.63"/>
<path d="M49.1629 0.799874V8.19187L45.0509 0.799874H42.8589V11.9999H44.9389V4.60787L49.0509 11.9999H51.2429V0.799874H49.1629Z" fill="#E77329" fill-opacity="0.63"/>
<path d="M60.3333 11.9999H62.4133V5.08787L64.5573 10.9759H66.0613L68.2053 5.08787V11.9999H70.2853V0.799874H67.9493L65.3093 7.79187L62.6693 0.799874H60.3333V11.9999Z" fill="#E77329" fill-opacity="0.63"/>
<path d="M78.6707 0.671875C75.8387 0.671875 73.3906 2.51187 73.3906 6.39987C73.3906 10.2879 75.8387 12.1279 78.6707 12.1279C81.5027 12.1279 83.9507 10.2879 83.9507 6.39987C83.9507 2.51187 81.5027 0.671875 78.6707 0.671875ZM78.6707 2.59188C80.3507 2.59188 81.8387 3.74387 81.8387 6.39987C81.8387 9.05587 80.3507 10.2079 78.6707 10.2079C76.9907 10.2079 75.5026 9.05587 75.5026 6.39987C75.5026 3.74387 76.9907 2.59188 78.6707 2.59188Z" fill="#E77329" fill-opacity="0.63"/>
<path d="M94.4207 3.98387C94.4207 2.12787 93.2526 0.799874 91.0126 0.799874H86.9327V11.9999H89.0126V7.16787H90.1007L93.1087 11.9999H95.4286L92.3247 6.99187C93.6847 6.57587 94.4207 5.45587 94.4207 3.98387ZM91.0287 5.24787H89.0126V2.71987H91.0287C91.7807 2.71987 92.3407 3.07187 92.3407 3.98387C92.3407 4.89587 91.7807 5.24787 91.0287 5.24787Z" fill="#E77329" fill-opacity="0.63"/>
<path d="M98.0214 0.799874V11.9999H105.109V10.0799H100.101V6.99187H103.989V5.07187H100.101V2.71987H104.949V0.799874H98.0214Z" fill="#E77329" fill-opacity="0.63"/>
<path d="M120 6.57699C126.195 6.57699 120 6.65152 126.195 6.69933C129.617 6.72574 145.468 6.86271 148.891 6.72606C149.112 6.71726 148.451 6.61732 148.259 6.47761C147.797 6.14013 147.373 5.70961 146.917 5.35548C145.167 3.99645 143.266 2.92216 141.409 1.82345C141.153 1.67187 141.01 1.58125 140.761 1.41766C140.574 1.29524 140.109 0.824377 140.194 1.06984C140.297 1.37318 140.866 1.76462 141.053 1.91455C141.582 2.33911 142.155 2.66722 142.719 3.00769C145.398 4.62594 148.139 6.07449 150.908 7.42169C151.101 7.51556 150.942 7.4667 150.869 7.47138C150.584 7.48956 150.215 7.80911 149.961 7.93514C148.984 8.4204 148.037 8.97419 147.076 9.50861C145.568 10.3474 144.021 11.1073 142.612 12.2042C142.068 12.6277 141.681 13.2545 141.182 13.7321" stroke="#EEA577" stroke-width="1.40909" stroke-linecap="round" stroke-linejoin="round"/>
</svg>
