<svg width="463" height="138" viewBox="0 0 463 138" fill="none" xmlns="http://www.w3.org/2000/svg">
<path d="M1.59002 99.5413L2.50138 96.9139H6.37948L7.28599 99.5413H8.87601L5.30331 89.6133H3.5727L0 99.5413H1.59002ZM2.93766 95.6535L4.40165 91.4166H4.47921L5.94319 95.6535H2.93766Z" fill="#505050"/>
<path d="M16.4758 99.6867C17.8332 99.6867 18.3664 98.8578 18.6282 98.3827H18.7494V99.5413H20.1649V89.6133H18.7155V93.3024H18.6282C18.3664 92.8418 17.872 91.9984 16.4855 91.9984C14.6871 91.9984 13.3637 93.4187 13.3637 95.8328C13.3637 98.2421 14.6677 99.6867 16.4758 99.6867ZM16.7958 98.4506C15.5015 98.4506 14.8277 97.3114 14.8277 95.8183C14.8277 94.3398 15.4869 93.2297 16.7958 93.2297C18.061 93.2297 18.7397 94.2622 18.7397 95.8183C18.7397 97.3841 18.0465 98.4506 16.7958 98.4506Z" fill="#505050"/>
<path d="M25.384 99.6915C27.0079 99.6915 28.1568 98.8917 28.4864 97.6798L27.1146 97.4326C26.8528 98.1355 26.2226 98.4942 25.3985 98.4942C24.1575 98.4942 23.3237 97.6895 23.2849 96.2546H28.5785V95.7407C28.5785 93.0503 26.9691 91.9984 25.2822 91.9984C23.2074 91.9984 21.8403 93.5787 21.8403 95.8668C21.8403 98.1791 23.188 99.6915 25.384 99.6915ZM23.2898 95.1687C23.348 94.1119 24.1139 93.1957 25.2919 93.1957C26.4165 93.1957 27.1533 94.0295 27.1582 95.1687H23.2898Z" fill="#505050"/>
<path d="M33.3371 99.6915C34.961 99.6915 36.1099 98.8917 36.4396 97.6798L35.0677 97.4326C34.8059 98.1355 34.1757 98.4942 33.3516 98.4942C32.1106 98.4942 31.2768 97.6895 31.2381 96.2546H36.5317V95.7407C36.5317 93.0503 34.9223 91.9984 33.2353 91.9984C31.1605 91.9984 29.7935 93.5787 29.7935 95.8668C29.7935 98.1791 31.1411 99.6915 33.3371 99.6915ZM31.2429 95.1687C31.3011 94.1119 32.067 93.1957 33.245 93.1957C34.3696 93.1957 35.1065 94.0295 35.1113 95.1687H31.2429Z" fill="#505050"/>
<path d="M38.0811 102.334H39.5305V98.3827H39.6178C39.8796 98.8578 40.4128 99.6867 41.7701 99.6867C43.5734 99.6867 44.8823 98.2421 44.8823 95.8328C44.8823 93.4187 43.5541 91.9984 41.7556 91.9984C40.374 91.9984 39.8747 92.8418 39.6178 93.3024H39.4966V92.0953H38.0811V102.334ZM39.5014 95.8183C39.5014 94.2622 40.1801 93.2297 41.4453 93.2297C42.759 93.2297 43.4183 94.3398 43.4183 95.8183C43.4183 97.3114 42.7396 98.4506 41.4453 98.4506C40.1995 98.4506 39.5014 97.3841 39.5014 95.8183Z" fill="#505050"/>
<path d="M52.7888 99.6867C54.1461 99.6867 54.6793 98.8578 54.9411 98.3827H55.0623V99.5413H56.4778V89.6133H55.0284V93.3024H54.9411C54.6793 92.8418 54.1849 91.9984 52.7984 91.9984C51 91.9984 49.6766 93.4187 49.6766 95.8328C49.6766 98.2421 50.9806 99.6867 52.7888 99.6867ZM53.1087 98.4506C51.8144 98.4506 51.1406 97.3114 51.1406 95.8183C51.1406 94.3398 51.7998 93.2297 53.1087 93.2297C54.3739 93.2297 55.0526 94.2622 55.0526 95.8183C55.0526 97.3841 54.3594 98.4506 53.1087 98.4506Z" fill="#505050"/>
<path d="M58.4877 99.5413H59.9372V92.0953H58.4877V99.5413ZM59.2197 90.9464C59.719 90.9464 60.1359 90.5586 60.1359 90.0835C60.1359 89.6085 59.719 89.2158 59.2197 89.2158C58.7156 89.2158 58.3035 89.6085 58.3035 90.0835C58.3035 90.5586 58.7156 90.9464 59.2197 90.9464Z" fill="#505050"/>
<path d="M68.1981 92.0953H66.642L64.7612 97.8252H64.6836L62.7979 92.0953H61.2418L63.9468 99.5413H65.498L68.1981 92.0953Z" fill="#505050"/>
<path d="M72.444 99.6915C74.068 99.6915 75.2169 98.8917 75.5465 97.6798L74.1746 97.4326C73.9129 98.1355 73.2827 98.4942 72.4586 98.4942C71.2176 98.4942 70.3838 97.6895 70.345 96.2546H75.6386V95.7407C75.6386 93.0503 74.0292 91.9984 72.3422 91.9984C70.2674 91.9984 68.9004 93.5787 68.9004 95.8668C68.9004 98.1791 70.248 99.6915 72.444 99.6915ZM70.3498 95.1687C70.408 94.1119 71.1739 93.1957 72.3519 93.1957C73.4766 93.1957 74.2134 94.0295 74.2183 95.1687H70.3498Z" fill="#505050"/>
<path d="M82.9088 99.7061C84.1401 99.7061 84.8333 99.0807 85.1096 98.5233H85.1678V99.5413H86.5833V94.5967C86.5833 92.4298 84.877 91.9984 83.6941 91.9984C82.3465 91.9984 81.1055 92.5413 80.6207 93.8986L81.9829 94.2089C82.1962 93.6805 82.7391 93.1715 83.7135 93.1715C84.6491 93.1715 85.129 93.6611 85.129 94.5046V94.5385C85.129 95.0669 84.5861 95.0572 83.2481 95.2123C81.8375 95.3772 80.3929 95.7456 80.3929 97.4374C80.3929 98.9014 81.4933 99.7061 82.9088 99.7061ZM83.2239 98.5427C82.4047 98.5427 81.8132 98.1742 81.8132 97.4568C81.8132 96.6812 82.5016 96.4049 83.3402 96.2934C83.8105 96.2303 84.9254 96.1043 85.1339 95.8959V96.8557C85.1339 97.738 84.431 98.5427 83.2239 98.5427Z" fill="#505050"/>
<path d="M89.9045 95.1202C89.9045 93.9326 90.6317 93.2539 91.64 93.2539C92.624 93.2539 93.2203 93.8986 93.2203 94.9797V99.5413H94.6697V94.8051C94.6697 92.963 93.6566 91.9984 92.1344 91.9984C91.0146 91.9984 90.2826 92.5171 89.9385 93.3072H89.8464V92.0953H88.4551V99.5413H89.9045V95.1202Z" fill="#505050"/>
<path d="M99.3422 99.6867C100.7 99.6867 101.233 98.8578 101.495 98.3827H101.616V99.5413H103.031V89.6133H101.582V93.3024H101.495C101.233 92.8418 100.738 91.9984 99.3519 91.9984C97.5535 91.9984 96.2301 93.4187 96.2301 95.8328C96.2301 98.2421 97.5341 99.6867 99.3422 99.6867ZM99.6622 98.4506C98.3679 98.4506 97.694 97.3114 97.694 95.8183C97.694 94.3398 98.3533 93.2297 99.6622 93.2297C100.927 93.2297 101.606 94.2622 101.606 95.8183C101.606 97.3841 100.913 98.4506 99.6622 98.4506Z" fill="#505050"/>
<path d="M113.312 96.4533C113.317 97.7186 112.376 98.3197 111.562 98.3197C110.665 98.3197 110.045 97.6701 110.045 96.6569V92.0953H108.595V96.8314C108.595 98.6784 109.608 99.6382 111.038 99.6382C112.158 99.6382 112.919 99.0468 113.263 98.2518H113.341V99.5413H114.766V92.0953H113.312V96.4533Z" fill="#505050"/>
<path d="M118.104 95.1202C118.104 93.9326 118.831 93.2539 119.84 93.2539C120.824 93.2539 121.42 93.8986 121.42 94.9797V99.5413H122.87V94.8051C122.87 92.963 121.856 91.9984 120.334 91.9984C119.214 91.9984 118.482 92.5171 118.138 93.3072H118.046V92.0953H116.655V99.5413H118.104V95.1202Z" fill="#505050"/>
<path d="M124.871 99.5413H126.287V98.3827H126.408C126.669 98.8578 127.203 99.6867 128.56 99.6867C130.363 99.6867 131.672 98.2421 131.672 95.8328C131.672 93.4187 130.344 91.9984 128.546 91.9984C127.164 91.9984 126.665 92.8418 126.408 93.3024H126.32V89.6133H124.871V99.5413ZM126.291 95.8183C126.291 94.2622 126.97 93.2297 128.235 93.2297C129.549 93.2297 130.208 94.3398 130.208 95.8183C130.208 97.3114 129.53 98.4506 128.235 98.4506C126.989 98.4506 126.291 97.3841 126.291 95.8183Z" fill="#505050"/>
<path d="M133.241 99.5413H134.69V92.0953H133.241V99.5413ZM133.973 90.9464C134.472 90.9464 134.889 90.5586 134.889 90.0835C134.889 89.6085 134.472 89.2158 133.973 89.2158C133.469 89.2158 133.057 89.6085 133.057 90.0835C133.057 90.5586 133.469 90.9464 133.973 90.9464Z" fill="#505050"/>
<path d="M138.749 99.7061C139.98 99.7061 140.673 99.0807 140.949 98.5233H141.008V99.5413H142.423V94.5967C142.423 92.4298 140.717 91.9984 139.534 91.9984C138.186 91.9984 136.945 92.5413 136.46 93.8986L137.823 94.2089C138.036 93.6805 138.579 93.1715 139.553 93.1715C140.489 93.1715 140.969 93.6611 140.969 94.5046V94.5385C140.969 95.0669 140.426 95.0572 139.088 95.2123C137.677 95.3772 136.233 95.7456 136.233 97.4374C136.233 98.9014 137.333 99.7061 138.749 99.7061ZM139.064 98.5427C138.244 98.5427 137.653 98.1742 137.653 97.4568C137.653 96.6812 138.341 96.4049 139.18 96.2934C139.65 96.2303 140.765 96.1043 140.974 95.8959V96.8557C140.974 97.738 140.271 98.5427 139.064 98.5427Z" fill="#505050"/>
<path d="M149.874 93.9132C149.574 92.7546 148.667 91.9984 147.058 91.9984C145.376 91.9984 144.183 92.8855 144.183 94.204C144.183 95.2608 144.823 95.9637 146.219 96.274L147.48 96.5503C148.197 96.7103 148.532 97.0302 148.532 97.4956C148.532 98.0724 147.916 98.5233 146.966 98.5233C146.098 98.5233 145.541 98.15 145.366 97.418L143.965 97.6313C144.208 98.9499 145.303 99.6915 146.976 99.6915C148.774 99.6915 150.02 98.7366 150.02 97.3889C150.02 96.337 149.351 95.6874 147.984 95.3723L146.801 95.1008C145.982 94.9069 145.628 94.6306 145.633 94.1265C145.628 93.5544 146.248 93.1472 147.072 93.1472C147.974 93.1472 148.391 93.6466 148.561 94.1459L149.874 93.9132Z" fill="#505050"/>
<path d="M154.764 99.6915C156.388 99.6915 157.537 98.8917 157.866 97.6798L156.494 97.4326C156.233 98.1355 155.602 98.4942 154.778 98.4942C153.537 98.4942 152.704 97.6895 152.665 96.2546H157.958V95.7407C157.958 93.0503 156.349 91.9984 154.662 91.9984C152.587 91.9984 151.22 93.5787 151.22 95.8668C151.22 98.1791 152.568 99.6915 154.764 99.6915ZM152.67 95.1687C152.728 94.1119 153.494 93.1957 154.672 93.1957C155.796 93.1957 156.533 94.0295 156.538 95.1687H152.67Z" fill="#505050"/>
<path d="M162.295 99.6867C163.653 99.6867 164.186 98.8578 164.448 98.3827H164.569V99.5413H165.984V89.6133H164.535V93.3024H164.448C164.186 92.8418 163.691 91.9984 162.305 91.9984C160.506 91.9984 159.183 93.4187 159.183 95.8328C159.183 98.2421 160.487 99.6867 162.295 99.6867ZM162.615 98.4506C161.321 98.4506 160.647 97.3114 160.647 95.8183C160.647 94.3398 161.306 93.2297 162.615 93.2297C163.88 93.2297 164.559 94.2622 164.559 95.8183C164.559 97.3841 163.866 98.4506 162.615 98.4506Z" fill="#505050"/>
<path d="M175.024 92.0953H173.497V90.3114H172.047V92.0953H170.957V93.2587H172.047V97.6555C172.043 99.008 173.075 99.6625 174.219 99.6382C174.68 99.6334 174.99 99.5461 175.16 99.4831L174.898 98.2857C174.801 98.3051 174.621 98.3488 174.389 98.3488C173.919 98.3488 173.497 98.1936 173.497 97.355V93.2587H175.024V92.0953Z" fill="#505050"/>
<path d="M178.735 99.7061C179.967 99.7061 180.66 99.0807 180.936 98.5233H180.994V99.5413H182.41V94.5967C182.41 92.4298 180.703 91.9984 179.521 91.9984C178.173 91.9984 176.932 92.5413 176.447 93.8986L177.809 94.2089C178.023 93.6805 178.566 93.1715 179.54 93.1715C180.476 93.1715 180.956 93.6611 180.956 94.5046V94.5385C180.956 95.0669 180.413 95.0572 179.075 95.2123C177.664 95.3772 176.219 95.7456 176.219 97.4374C176.219 98.9014 177.32 99.7061 178.735 99.7061ZM179.05 98.5427C178.231 98.5427 177.64 98.1742 177.64 97.4568C177.64 96.6812 178.328 96.4049 179.167 96.2934C179.637 96.2303 180.752 96.1043 180.96 95.8959V96.8557C180.96 97.738 180.257 98.5427 179.05 98.5427Z" fill="#505050"/>
<path d="M184.282 99.5413H185.731V96.8993L186.453 96.177L188.984 99.5413H190.763L187.544 95.2899L190.559 92.0953H188.824L185.857 95.2463H185.731V89.6133H184.282V99.5413Z" fill="#505050"/>
<path d="M194.724 99.6915C196.348 99.6915 197.497 98.8917 197.826 97.6798L196.455 97.4326C196.193 98.1355 195.563 98.4942 194.739 98.4942C193.498 98.4942 192.664 97.6895 192.625 96.2546H197.919V95.7407C197.919 93.0503 196.309 91.9984 194.622 91.9984C192.547 91.9984 191.18 93.5787 191.18 95.8668C191.18 98.1791 192.528 99.6915 194.724 99.6915ZM192.63 95.1687C192.688 94.1119 193.454 93.1957 194.632 93.1957C195.757 93.1957 196.493 94.0295 196.498 95.1687H192.63Z" fill="#505050"/>
<path d="M206.158 99.6915C208.257 99.6915 209.629 98.1548 209.629 95.8522C209.629 93.5351 208.257 91.9984 206.158 91.9984C204.059 91.9984 202.687 93.5351 202.687 95.8522C202.687 98.1548 204.059 99.6915 206.158 99.6915ZM206.163 98.4748C204.791 98.4748 204.151 97.2774 204.151 95.8474C204.151 94.4222 204.791 93.2103 206.163 93.2103C207.525 93.2103 208.165 94.4222 208.165 95.8474C208.165 97.2774 207.525 98.4748 206.163 98.4748Z" fill="#505050"/>
<path d="M212.638 95.1202C212.638 93.9326 213.365 93.2539 214.373 93.2539C215.357 93.2539 215.954 93.8986 215.954 94.9797V99.5413H217.403V94.8051C217.403 92.963 216.39 91.9984 214.868 91.9984C213.748 91.9984 213.016 92.5171 212.672 93.3072H212.58V92.0953H211.188V99.5413H212.638V95.1202Z" fill="#505050"/>
<path d="M229.212 92.0953H227.656L225.775 97.8252H225.697L223.811 92.0953H222.255L224.96 99.5413H226.512L229.212 92.0953Z" fill="#505050"/>
<path d="M232.455 99.7061C233.687 99.7061 234.38 99.0807 234.656 98.5233H234.714V99.5413H236.13V94.5967C236.13 92.4298 234.424 91.9984 233.241 91.9984C231.893 91.9984 230.652 92.5413 230.167 93.8986L231.529 94.2089C231.743 93.6805 232.286 93.1715 233.26 93.1715C234.196 93.1715 234.676 93.6611 234.676 94.5046V94.5385C234.676 95.0669 234.133 95.0572 232.795 95.2123C231.384 95.3772 229.939 95.7456 229.939 97.4374C229.939 98.9014 231.04 99.7061 232.455 99.7061ZM232.77 98.5427C231.951 98.5427 231.36 98.1742 231.36 97.4568C231.36 96.6812 232.048 96.4049 232.887 96.2934C233.357 96.2303 234.472 96.1043 234.68 95.8959V96.8557C234.68 97.738 233.978 98.5427 232.77 98.5427Z" fill="#505050"/>
<path d="M238.002 99.5413H239.451V94.9942C239.451 94.0198 240.202 93.3169 241.23 93.3169C241.531 93.3169 241.87 93.3702 241.986 93.4042V92.0178C241.841 91.9984 241.555 91.9838 241.371 91.9838C240.498 91.9838 239.752 92.4783 239.48 93.2781H239.403V92.0953H238.002V99.5413Z" fill="#505050"/>
<path d="M243.182 99.5413H244.631V92.0953H243.182V99.5413ZM243.914 90.9464C244.413 90.9464 244.83 90.5586 244.83 90.0835C244.83 89.6085 244.413 89.2158 243.914 89.2158C243.41 89.2158 242.998 89.6085 242.998 90.0835C242.998 90.5586 243.41 90.9464 243.914 90.9464Z" fill="#505050"/>
<path d="M249.659 99.6915C251.758 99.6915 253.13 98.1548 253.13 95.8522C253.13 93.5351 251.758 91.9984 249.659 91.9984C247.56 91.9984 246.188 93.5351 246.188 95.8522C246.188 98.1548 247.56 99.6915 249.659 99.6915ZM249.664 98.4748C248.292 98.4748 247.652 97.2774 247.652 95.8474C247.652 94.4222 248.292 93.2103 249.664 93.2103C251.026 93.2103 251.666 94.4222 251.666 95.8474C251.666 97.2774 251.026 98.4748 249.664 98.4748Z" fill="#505050"/>
<path d="M259.406 96.4533C259.411 97.7186 258.47 98.3197 257.656 98.3197C256.759 98.3197 256.138 97.6701 256.138 96.6569V92.0953H254.689V96.8314C254.689 98.6784 255.702 99.6382 257.132 99.6382C258.252 99.6382 259.013 99.0468 259.357 98.2518H259.435V99.5413H260.86V92.0953H259.406V96.4533Z" fill="#505050"/>
<path d="M268.328 93.9132C268.028 92.7546 267.121 91.9984 265.512 91.9984C263.83 91.9984 262.637 92.8855 262.637 94.204C262.637 95.2608 263.277 95.9637 264.673 96.274L265.934 96.5503C266.651 96.7103 266.986 97.0302 266.986 97.4956C266.986 98.0724 266.37 98.5233 265.42 98.5233C264.552 98.5233 263.995 98.15 263.82 97.418L262.419 97.6313C262.662 98.9499 263.757 99.6915 265.43 99.6915C267.228 99.6915 268.474 98.7366 268.474 97.3889C268.474 96.337 267.805 95.6874 266.438 95.3723L265.255 95.1008C264.436 94.9069 264.082 94.6306 264.087 94.1265C264.082 93.5544 264.702 93.1472 265.526 93.1472C266.428 93.1472 266.845 93.6466 267.015 94.1459L268.328 93.9132Z" fill="#505050"/>
<path d="M0.63504 118.541H2.08448V111.095H0.63504V118.541ZM1.36703 109.946C1.86634 109.946 2.28323 109.559 2.28323 109.084C2.28323 108.608 1.86634 108.216 1.36703 108.216C0.862878 108.216 0.45083 108.608 0.45083 109.084C0.45083 109.559 0.862878 109.946 1.36703 109.946Z" fill="#505050"/>
<path d="M9.55527 112.913C9.25471 111.755 8.34821 110.998 6.73879 110.998C5.05667 110.998 3.86415 111.885 3.86415 113.204C3.86415 114.261 4.50404 114.964 5.90016 115.274L7.16054 115.55C7.87799 115.71 8.21247 116.03 8.21247 116.496C8.21247 117.072 7.59683 117.523 6.64669 117.523C5.77896 117.523 5.22149 117.15 5.04697 116.418L3.64601 116.631C3.88839 117.95 4.98395 118.692 6.65638 118.692C8.45486 118.692 9.7007 117.737 9.7007 116.389C9.7007 115.337 9.03172 114.687 7.66469 114.372L6.48187 114.101C5.66262 113.907 5.30874 113.631 5.31359 113.126C5.30874 112.554 5.92924 112.147 6.75334 112.147C7.655 112.147 8.07189 112.647 8.24156 113.146L9.55527 112.913Z" fill="#505050"/>
<path d="M16.8152 112.913C16.5146 111.755 15.6081 110.998 13.9987 110.998C12.3166 110.998 11.1241 111.885 11.1241 113.204C11.1241 114.261 11.764 114.964 13.1601 115.274L14.4205 115.55C15.1379 115.71 15.4724 116.03 15.4724 116.496C15.4724 117.072 14.8567 117.523 13.9066 117.523C13.0389 117.523 12.4814 117.15 12.3069 116.418L10.9059 116.631C11.1483 117.95 12.2439 118.692 13.9163 118.692C15.7148 118.692 16.9606 117.737 16.9606 116.389C16.9606 115.337 16.2916 114.687 14.9246 114.372L13.7418 114.101C12.9225 113.907 12.5687 113.631 12.5735 113.126C12.5687 112.554 13.1892 112.147 14.0133 112.147C14.9149 112.147 15.3318 112.647 15.5015 113.146L16.8152 112.913Z" fill="#505050"/>
<path d="M23.2122 115.453C23.2171 116.719 22.2766 117.32 21.4622 117.32C20.5654 117.32 19.9449 116.67 19.9449 115.657V111.095H18.4955V115.831C18.4955 117.678 19.5086 118.638 20.9387 118.638C22.0585 118.638 22.8196 118.047 23.1637 117.252H23.2413V118.541H24.6665V111.095H23.2122V115.453Z" fill="#505050"/>
<path d="M29.7644 118.692C31.3883 118.692 32.5372 117.892 32.8669 116.68L31.495 116.433C31.2332 117.135 30.603 117.494 29.7789 117.494C28.5379 117.494 27.7041 116.689 27.6654 115.255H32.959V114.741C32.959 112.05 31.3496 110.998 29.6626 110.998C27.5878 110.998 26.2208 112.579 26.2208 114.867C26.2208 117.179 27.5684 118.692 29.7644 118.692ZM27.6702 114.169C27.7284 113.112 28.4943 112.196 29.6723 112.196C30.7969 112.196 31.5338 113.03 31.5386 114.169H27.6702Z" fill="#505050"/>
<path d="M40.088 112.913C39.7874 111.755 38.8809 110.998 37.2715 110.998C35.5894 110.998 34.3969 111.885 34.3969 113.204C34.3969 114.261 35.0368 114.964 36.4329 115.274L37.6933 115.55C38.4107 115.71 38.7452 116.03 38.7452 116.496C38.7452 117.072 38.1296 117.523 37.1794 117.523C36.3117 117.523 35.7542 117.15 35.5797 116.418L34.1787 116.631C34.4211 117.95 35.5167 118.692 37.1891 118.692C38.9876 118.692 40.2334 117.737 40.2334 116.389C40.2334 115.337 39.5645 114.687 38.1974 114.372L37.0146 114.101C36.1953 113.907 35.8415 113.631 35.8463 113.126C35.8415 112.554 36.462 112.147 37.2861 112.147C38.1877 112.147 38.6046 112.647 38.7743 113.146L40.088 112.913Z" fill="#505050"/>
<path d="M47.4891 118.706C48.7204 118.706 49.4136 118.081 49.6899 117.523H49.7481V118.541H51.1636V113.597C51.1636 111.43 49.4572 110.998 48.2744 110.998C46.9268 110.998 45.6858 111.541 45.201 112.899L46.5632 113.209C46.7765 112.68 47.3194 112.171 48.2938 112.171C49.2294 112.171 49.7093 112.661 49.7093 113.505V113.539C49.7093 114.067 49.1664 114.057 47.8284 114.212C46.4178 114.377 44.9732 114.746 44.9732 116.437C44.9732 117.901 46.0736 118.706 47.4891 118.706ZM47.8042 117.543C46.9849 117.543 46.3935 117.174 46.3935 116.457C46.3935 115.681 47.0819 115.405 47.9205 115.293C48.3907 115.23 49.5057 115.104 49.7141 114.896V115.856C49.7141 116.738 49.0112 117.543 47.8042 117.543Z" fill="#505050"/>
<path d="M54.4848 114.12C54.4848 112.933 55.2119 112.254 56.2203 112.254C57.2043 112.254 57.8006 112.899 57.8006 113.98V118.541H59.25V113.805C59.25 111.963 58.2369 110.998 56.7147 110.998C55.5949 110.998 54.8629 111.517 54.5187 112.307H54.4266V111.095H53.0354V118.541H54.4848V114.12Z" fill="#505050"/>
<path d="M63.9225 118.687C65.2798 118.687 65.8131 117.858 66.0749 117.383H66.1961V118.541H67.6116V108.613H66.1621V112.302H66.0749C65.8131 111.842 65.3186 110.998 63.9322 110.998C62.1337 110.998 60.8103 112.419 60.8103 114.833C60.8103 117.242 62.1143 118.687 63.9225 118.687ZM64.2425 117.451C62.9481 117.451 62.2743 116.311 62.2743 114.818C62.2743 113.34 62.9336 112.23 64.2425 112.23C65.5077 112.23 66.1864 113.262 66.1864 114.818C66.1864 116.384 65.4931 117.451 64.2425 117.451Z" fill="#505050"/>
<path d="M74.7896 118.541H76.2633L77.7758 113.165H77.8873L79.3997 118.541H80.8783L83.0646 111.095H81.5666L80.1172 116.539H80.0445L78.5902 111.095H77.0923L75.6283 116.563H75.5556L74.0964 111.095H72.5985L74.7896 118.541Z" fill="#505050"/>
<path d="M85.8307 114.12C85.8307 112.933 86.5821 112.254 87.6146 112.254C88.6133 112.254 89.2095 112.889 89.2095 113.98V118.541H90.659V113.805C90.659 111.948 89.641 110.998 88.1091 110.998C86.9505 110.998 86.2525 111.503 85.9034 112.307H85.8113V108.613H84.3813V118.541H85.8307V114.12Z" fill="#505050"/>
<path d="M95.7435 118.692C97.3675 118.692 98.5163 117.892 98.846 116.68L97.4741 116.433C97.2123 117.135 96.5821 117.494 95.758 117.494C94.517 117.494 93.6833 116.689 93.6445 115.255H98.9381V114.741C98.9381 112.05 97.3287 110.998 95.6417 110.998C93.5669 110.998 92.1999 112.579 92.1999 114.867C92.1999 117.179 93.5475 118.692 95.7435 118.692ZM93.6493 114.169C93.7075 113.112 94.4734 112.196 95.6514 112.196C96.776 112.196 97.5129 113.03 97.5177 114.169H93.6493Z" fill="#505050"/>
<path d="M100.487 118.541H101.937V113.994C101.937 113.02 102.688 112.317 103.716 112.317C104.017 112.317 104.356 112.37 104.472 112.404V111.018C104.327 110.998 104.041 110.984 103.857 110.984C102.984 110.984 102.237 111.478 101.966 112.278H101.888V111.095H100.487V118.541Z" fill="#505050"/>
<path d="M108.61 118.692C110.234 118.692 111.383 117.892 111.713 116.68L110.341 116.433C110.079 117.135 109.449 117.494 108.625 117.494C107.384 117.494 106.55 116.689 106.511 115.255H111.805V114.741C111.805 112.05 110.195 110.998 108.508 110.998C106.434 110.998 105.067 112.579 105.067 114.867C105.067 117.179 106.414 118.692 108.61 118.692ZM106.516 114.169C106.574 113.112 107.34 112.196 108.518 112.196C109.643 112.196 110.38 113.03 110.385 114.169H106.516Z" fill="#505050"/>
<path d="M120.384 111.095H118.857V109.311H117.407V111.095H116.317V112.259H117.407V116.656C117.403 118.008 118.435 118.662 119.579 118.638C120.04 118.633 120.35 118.546 120.52 118.483L120.258 117.286C120.161 117.305 119.982 117.349 119.749 117.349C119.279 117.349 118.857 117.194 118.857 116.355V112.259H120.384V111.095Z" fill="#505050"/>
<path d="M123.538 114.12C123.538 112.933 124.289 112.254 125.322 112.254C126.32 112.254 126.917 112.889 126.917 113.98V118.541H128.366V113.805C128.366 111.948 127.348 110.998 125.816 110.998C124.658 110.998 123.96 111.503 123.611 112.307H123.519V108.613H122.088V118.541H123.538V114.12Z" fill="#505050"/>
<path d="M133.451 118.692C135.075 118.692 136.224 117.892 136.553 116.68L135.181 116.433C134.92 117.135 134.289 117.494 133.465 117.494C132.224 117.494 131.39 116.689 131.352 115.255H136.645V114.741C136.645 112.05 135.036 110.998 133.349 110.998C131.274 110.998 129.907 112.579 129.907 114.867C129.907 117.179 131.255 118.692 133.451 118.692ZM131.357 114.169C131.415 113.112 132.181 112.196 133.359 112.196C134.483 112.196 135.22 113.03 135.225 114.169H131.357Z" fill="#505050"/>
<path d="M143.774 112.913C143.474 111.755 142.567 110.998 140.958 110.998C139.276 110.998 138.083 111.885 138.083 113.204C138.083 114.261 138.723 114.964 140.119 115.274L141.38 115.55C142.097 115.71 142.432 116.03 142.432 116.496C142.432 117.072 141.816 117.523 140.866 117.523C139.998 117.523 139.441 117.15 139.266 116.418L137.865 116.631C138.107 117.95 139.203 118.692 140.875 118.692C142.674 118.692 143.92 117.737 143.92 116.389C143.92 115.337 143.251 114.687 141.884 114.372L140.701 114.101C139.882 113.907 139.528 113.631 139.533 113.126C139.528 112.554 140.148 112.147 140.972 112.147C141.874 112.147 142.291 112.647 142.461 113.146L143.774 112.913Z" fill="#505050"/>
<path d="M148.664 118.692C150.288 118.692 151.437 117.892 151.766 116.68L150.394 116.433C150.133 117.135 149.502 117.494 148.678 117.494C147.437 117.494 146.603 116.689 146.565 115.255H151.858V114.741C151.858 112.05 150.249 110.998 148.562 110.998C146.487 110.998 145.12 112.579 145.12 114.867C145.12 117.179 146.468 118.692 148.664 118.692ZM146.57 114.169C146.628 113.112 147.394 112.196 148.572 112.196C149.696 112.196 150.433 113.03 150.438 114.169H146.57Z" fill="#505050"/>
<path d="M156.962 121.334H158.411V117.383H158.498C158.76 117.858 159.293 118.687 160.651 118.687C162.454 118.687 163.763 117.242 163.763 114.833C163.763 112.419 162.435 110.998 160.636 110.998C159.255 110.998 158.755 111.842 158.498 112.302H158.377V111.095H156.962V121.334ZM158.382 114.818C158.382 113.262 159.061 112.23 160.326 112.23C161.64 112.23 162.299 113.34 162.299 114.818C162.299 116.311 161.62 117.451 160.326 117.451C159.08 117.451 158.382 116.384 158.382 114.818Z" fill="#505050"/>
<path d="M165.328 118.541H166.777V113.994C166.777 113.02 167.529 112.317 168.557 112.317C168.857 112.317 169.196 112.37 169.313 112.404V111.018C169.167 110.998 168.881 110.984 168.697 110.984C167.825 110.984 167.078 111.478 166.807 112.278H166.729V111.095H165.328V118.541Z" fill="#505050"/>
<path d="M173.451 118.692C175.075 118.692 176.224 117.892 176.553 116.68L175.181 116.433C174.92 117.135 174.289 117.494 173.465 117.494C172.224 117.494 171.391 116.689 171.352 115.255H176.645V114.741C176.645 112.05 175.036 110.998 173.349 110.998C171.274 110.998 169.907 112.579 169.907 114.867C169.907 117.179 171.255 118.692 173.451 118.692ZM171.357 114.169C171.415 113.112 172.181 112.196 173.359 112.196C174.483 112.196 175.22 113.03 175.225 114.169H171.357Z" fill="#505050"/>
<path d="M183.774 112.913C183.474 111.755 182.567 110.998 180.958 110.998C179.276 110.998 178.083 111.885 178.083 113.204C178.083 114.261 178.723 114.964 180.119 115.274L181.38 115.55C182.097 115.71 182.432 116.03 182.432 116.496C182.432 117.072 181.816 117.523 180.866 117.523C179.998 117.523 179.441 117.15 179.266 116.418L177.865 116.631C178.108 117.95 179.203 118.692 180.876 118.692C182.674 118.692 183.92 117.737 183.92 116.389C183.92 115.337 183.251 114.687 181.884 114.372L180.701 114.101C179.882 113.907 179.528 113.631 179.533 113.126C179.528 112.554 180.148 112.147 180.972 112.147C181.874 112.147 182.291 112.647 182.461 113.146L183.774 112.913Z" fill="#505050"/>
<path d="M185.455 118.541H186.904V111.095H185.455V118.541ZM186.187 109.946C186.686 109.946 187.103 109.559 187.103 109.084C187.103 108.608 186.686 108.216 186.187 108.216C185.683 108.216 185.27 108.608 185.27 109.084C185.27 109.559 185.683 109.946 186.187 109.946Z" fill="#505050"/>
<path d="M191.583 118.687C192.94 118.687 193.473 117.858 193.735 117.383H193.856V118.541H195.272V108.613H193.822V112.302H193.735C193.473 111.842 192.979 110.998 191.592 110.998C189.794 110.998 188.471 112.419 188.471 114.833C188.471 117.242 189.775 118.687 191.583 118.687ZM191.903 117.451C190.608 117.451 189.935 116.311 189.935 114.818C189.935 113.34 190.594 112.23 191.903 112.23C193.168 112.23 193.847 113.262 193.847 114.818C193.847 116.384 193.153 117.451 191.903 117.451Z" fill="#505050"/>
<path d="M200.491 118.692C202.115 118.692 203.264 117.892 203.593 116.68L202.221 116.433C201.96 117.135 201.329 117.494 200.505 117.494C199.264 117.494 198.431 116.689 198.392 115.255H203.685V114.741C203.685 112.05 202.076 110.998 200.389 110.998C198.314 110.998 196.947 112.579 196.947 114.867C196.947 117.179 198.295 118.692 200.491 118.692ZM198.397 114.169C198.455 113.112 199.221 112.196 200.399 112.196C201.523 112.196 202.26 113.03 202.265 114.169H198.397Z" fill="#505050"/>
<path d="M206.684 114.12C206.684 112.933 207.411 112.254 208.42 112.254C209.404 112.254 210 112.899 210 113.98V118.541H211.449V113.805C211.449 111.963 210.436 110.998 208.914 110.998C207.794 110.998 207.062 111.517 206.718 112.307H206.626V111.095H205.235V118.541H206.684V114.12Z" fill="#505050"/>
<path d="M216.81 111.095H215.283V109.311H213.834V111.095H212.743V112.259H213.834V116.656C213.829 118.008 214.862 118.662 216.006 118.638C216.466 118.633 216.776 118.546 216.946 118.483L216.684 117.286C216.587 117.305 216.408 117.349 216.175 117.349C215.705 117.349 215.283 117.194 215.283 116.355V112.259H216.81V111.095Z" fill="#505050"/>
<path d="M218.355 118.541H219.804V111.095H218.355V118.541ZM219.087 109.946C219.586 109.946 220.003 109.559 220.003 109.084C220.003 108.608 219.586 108.216 219.087 108.216C218.583 108.216 218.171 108.608 218.171 109.084C218.171 109.559 218.583 109.946 219.087 109.946Z" fill="#505050"/>
<path d="M223.862 118.706C225.094 118.706 225.787 118.081 226.063 117.523H226.121V118.541H227.537V113.597C227.537 111.43 225.831 110.998 224.648 110.998C223.3 110.998 222.059 111.541 221.574 112.899L222.936 113.209C223.15 112.68 223.693 112.171 224.667 112.171C225.603 112.171 226.083 112.661 226.083 113.505V113.539C226.083 114.067 225.54 114.057 224.202 114.212C222.791 114.377 221.346 114.746 221.346 116.437C221.346 117.901 222.447 118.706 223.862 118.706ZM224.177 117.543C223.358 117.543 222.767 117.174 222.767 116.457C222.767 115.681 223.455 115.405 224.294 115.293C224.764 115.23 225.879 115.104 226.087 114.896V115.856C226.087 116.738 225.385 117.543 224.177 117.543Z" fill="#505050"/>
<path d="M230.858 108.613H229.409V118.541H230.858V108.613Z" fill="#505050"/>
<path d="M3.77146 137.692C5.53115 137.692 6.67034 136.635 6.83031 135.185H5.41965C5.23544 135.99 4.6101 136.465 3.78115 136.465C2.5547 136.465 1.76454 135.442 1.76454 133.818C1.76454 132.223 2.56924 131.22 3.78115 131.22C4.7022 131.22 5.26453 131.802 5.41965 132.5H6.83031C6.67519 130.997 5.44874 129.998 3.75691 129.998C1.65789 129.998 0.300553 131.579 0.300553 133.852C0.300553 136.097 1.60941 137.692 3.77146 137.692Z" fill="#505050"/>
<path d="M10.4884 137.706C11.7197 137.706 12.4129 137.081 12.6893 136.523H12.7474V137.541H14.1629V132.597C14.1629 130.43 12.4566 129.998 11.2738 129.998C9.92611 129.998 8.68512 130.541 8.20035 131.899L9.56254 132.209C9.77583 131.68 10.3188 131.171 11.2931 131.171C12.2287 131.171 12.7086 131.661 12.7086 132.505V132.539C12.7086 133.067 12.1657 133.057 10.8278 133.212C9.41711 133.377 7.97252 133.746 7.97252 135.437C7.97252 136.901 9.07293 137.706 10.4884 137.706ZM10.8035 136.543C9.98428 136.543 9.39287 136.174 9.39287 135.457C9.39287 134.681 10.0812 134.405 10.9199 134.293C11.3901 134.23 12.505 134.104 12.7135 133.896V134.856C12.7135 135.738 12.0106 136.543 10.8035 136.543Z" fill="#505050"/>
<path d="M17.4842 133.12C17.4842 131.933 18.2113 131.254 19.2196 131.254C20.2037 131.254 20.7999 131.899 20.7999 132.98V137.541H22.2494V132.805C22.2494 130.963 21.2362 129.998 19.7141 129.998C18.5943 129.998 17.8623 130.517 17.5181 131.307H17.426V130.095H16.0347V137.541H17.4842V133.12Z" fill="#505050"/>
<path d="M26.9219 137.687C28.2792 137.687 28.8124 136.858 29.0742 136.383H29.1954V137.541H30.6109V127.613H29.1615V131.302H29.0742C28.8124 130.842 28.318 129.998 26.9316 129.998C25.1331 129.998 23.8097 131.419 23.8097 133.833C23.8097 136.242 25.1137 137.687 26.9219 137.687ZM27.2418 136.451C25.9475 136.451 25.2737 135.311 25.2737 133.818C25.2737 132.34 25.9329 131.23 27.2418 131.23C28.507 131.23 29.1857 132.262 29.1857 133.818C29.1857 135.384 28.4925 136.451 27.2418 136.451Z" fill="#505050"/>
<path d="M32.6208 137.541H34.0703V130.095H32.6208V137.541ZM33.3528 128.946C33.8521 128.946 34.269 128.559 34.269 128.084C34.269 127.608 33.8521 127.216 33.3528 127.216C32.8487 127.216 32.4366 127.608 32.4366 128.084C32.4366 128.559 32.8487 128.946 33.3528 128.946Z" fill="#505050"/>
<path d="M38.7488 137.687C40.1062 137.687 40.6394 136.858 40.9012 136.383H41.0224V137.541H42.4379V127.613H40.9884V131.302H40.9012C40.6394 130.842 40.145 129.998 38.7585 129.998C36.9601 129.998 35.6367 131.419 35.6367 133.833C35.6367 136.242 36.9407 137.687 38.7488 137.687ZM39.0688 136.451C37.7745 136.451 37.1006 135.311 37.1006 133.818C37.1006 132.34 37.7599 131.23 39.0688 131.23C40.334 131.23 41.0127 132.262 41.0127 133.818C41.0127 135.384 40.3195 136.451 39.0688 136.451Z" fill="#505050"/>
<path d="M46.6147 137.706C47.846 137.706 48.5392 137.081 48.8155 136.523H48.8737V137.541H50.2892V132.597C50.2892 130.43 48.5828 129.998 47.4 129.998C46.0524 129.998 44.8114 130.541 44.3266 131.899L45.6888 132.209C45.9021 131.68 46.445 131.171 47.4194 131.171C48.355 131.171 48.8349 131.661 48.8349 132.505V132.539C48.8349 133.067 48.292 133.057 46.954 133.212C45.5434 133.377 44.0988 133.746 44.0988 135.437C44.0988 136.901 45.1992 137.706 46.6147 137.706ZM46.9298 136.543C46.1106 136.543 45.5191 136.174 45.5191 135.457C45.5191 134.681 46.2075 134.405 47.0462 134.293C47.5164 134.23 48.6313 134.104 48.8398 133.896V134.856C48.8398 135.738 48.1369 136.543 46.9298 136.543Z" fill="#505050"/>
<path d="M55.6367 130.095H54.1097V128.311H52.6603V130.095H51.5696V131.259H52.6603V135.656C52.6554 137.008 53.688 137.662 54.832 137.638C55.2926 137.633 55.6028 137.546 55.7725 137.483L55.5107 136.286C55.4137 136.305 55.2344 136.349 55.0017 136.349C54.5315 136.349 54.1097 136.194 54.1097 135.355V131.259H55.6367V130.095Z" fill="#505050"/>
<path d="M60.3104 137.692C61.9344 137.692 63.0833 136.892 63.4129 135.68L62.041 135.433C61.7793 136.135 61.1491 136.494 60.325 136.494C59.084 136.494 58.2502 135.689 58.2114 134.255H63.505V133.741C63.505 131.05 61.8956 129.998 60.2086 129.998C58.1339 129.998 56.7668 131.579 56.7668 133.867C56.7668 136.179 58.1145 137.692 60.3104 137.692ZM58.2163 133.169C58.2744 132.112 59.0404 131.196 60.2183 131.196C61.343 131.196 62.0798 132.03 62.0847 133.169H58.2163Z" fill="#505050"/>
<path d="M70.6341 131.913C70.3335 130.755 69.427 129.998 67.8176 129.998C66.1355 129.998 64.9429 130.885 64.9429 132.204C64.9429 133.261 65.5828 133.964 66.9789 134.274L68.2393 134.55C68.9568 134.71 69.2913 135.03 69.2913 135.496C69.2913 136.072 68.6756 136.523 67.7255 136.523C66.8578 136.523 66.3003 136.15 66.1258 135.418L64.7248 135.631C64.9672 136.95 66.0627 137.692 67.7352 137.692C69.5336 137.692 70.7795 136.737 70.7795 135.389C70.7795 134.337 70.1105 133.687 68.7435 133.372L67.5607 133.101C66.7414 132.907 66.3875 132.631 66.3924 132.126C66.3875 131.554 67.008 131.147 67.8321 131.147C68.7338 131.147 69.1507 131.647 69.3204 132.146L70.6341 131.913Z" fill="#505050"/>
<path d="M81.4479 131.913C81.1473 130.755 80.2408 129.998 78.6314 129.998C76.9493 129.998 75.7568 130.885 75.7568 132.204C75.7568 133.261 76.3966 133.964 77.7928 134.274L79.0531 134.55C79.7706 134.71 80.1051 135.03 80.1051 135.496C80.1051 136.072 79.4894 136.523 78.5393 136.523C77.6716 136.523 77.1141 136.15 76.9396 135.418L75.5386 135.631C75.781 136.95 76.8766 137.692 78.549 137.692C80.3475 137.692 81.5933 136.737 81.5933 135.389C81.5933 134.337 80.9243 133.687 79.5573 133.372L78.3745 133.101C77.5552 132.907 77.2013 132.631 77.2062 132.126C77.2013 131.554 77.8218 131.147 78.6459 131.147C79.5476 131.147 79.9645 131.647 80.1342 132.146L81.4479 131.913Z" fill="#505050"/>
<path d="M86.6039 130.095H85.0769V128.311H83.6275V130.095H82.5368V131.259H83.6275V135.656C83.6226 137.008 84.6552 137.662 85.7992 137.638C86.2597 137.633 86.57 137.546 86.7397 137.483L86.4779 136.286C86.3809 136.305 86.2016 136.349 85.9689 136.349C85.4987 136.349 85.0769 136.194 85.0769 135.355V131.259H86.6039V130.095Z" fill="#505050"/>
<path d="M90.3154 137.706C91.5467 137.706 92.2399 137.081 92.5162 136.523H92.5744V137.541H93.9899V132.597C93.9899 130.43 92.2835 129.998 91.1007 129.998C89.753 129.998 88.512 130.541 88.0273 131.899L89.3895 132.209C89.6028 131.68 90.1457 131.171 91.1201 131.171C92.0557 131.171 92.5356 131.661 92.5356 132.505V132.539C92.5356 133.067 91.9926 133.057 90.6547 133.212C89.244 133.377 87.7994 133.746 87.7994 135.437C87.7994 136.901 88.8999 137.706 90.3154 137.706ZM90.6305 136.543C89.8112 136.543 89.2198 136.174 89.2198 135.457C89.2198 134.681 89.9082 134.405 90.7468 134.293C91.217 134.23 92.332 134.104 92.5404 133.896V134.856C92.5404 135.738 91.8375 136.543 90.6305 136.543Z" fill="#505050"/>
<path d="M97.3111 133.12C97.3111 131.933 98.0382 131.254 99.0465 131.254C100.031 131.254 100.627 131.899 100.627 132.98V137.541H102.076V132.805C102.076 130.963 101.063 129.998 99.541 129.998C98.4212 129.998 97.6892 130.517 97.345 131.307H97.2529V130.095H95.8616V137.541H97.3111V133.12Z" fill="#505050"/>
<path d="M106.749 137.687C108.106 137.687 108.639 136.858 108.901 136.383H109.022V137.541H110.438V127.613H108.988V131.302H108.901C108.639 130.842 108.145 129.998 106.758 129.998C104.96 129.998 103.637 131.419 103.637 133.833C103.637 136.242 104.941 137.687 106.749 137.687ZM107.069 136.451C105.774 136.451 105.101 135.311 105.101 133.818C105.101 132.34 105.76 131.23 107.069 131.23C108.334 131.23 109.013 132.262 109.013 133.818C109.013 135.384 108.319 136.451 107.069 136.451Z" fill="#505050"/>
<path d="M12.8865 47.6126C9.31556 47.6126 6.58224 46.5987 4.68655 44.5707C2.79086 42.5428 1.84302 39.6772 1.84302 35.974V11.6386C1.84302 7.93544 2.79086 5.06987 4.68655 3.04192C6.58224 1.01397 9.31556 0 12.8865 0C16.4575 0 19.1908 1.01397 21.0865 3.04192C22.9821 5.06987 23.93 7.93544 23.93 11.6386V35.974C23.93 39.6772 22.9821 42.5428 21.0865 44.5707C19.1908 46.5987 16.4575 47.6126 12.8865 47.6126ZM12.8865 40.9998C15.3994 40.9998 16.6558 39.4788 16.6558 36.4369V11.1757C16.6558 8.13383 15.3994 6.61287 12.8865 6.61287C10.3736 6.61287 9.11717 8.13383 9.11717 11.1757V36.4369C9.11717 39.4788 10.3736 40.9998 12.8865 40.9998Z" fill="black"/>
<path d="M34.2781 7.27415H26.6733V0.661287H49.157V7.27415H41.5522V46.9514H34.2781V7.27415Z" fill="black"/>
<path d="M52.6789 0.661287H59.9531V19.508H67.7563V0.661287H75.0304V46.9514H67.7563V26.1208H59.9531V46.9514H52.6789V0.661287Z" fill="black"/>
<path d="M80.4478 0.661287H100.286V7.27415H87.7219V19.508H97.7074V26.1208H87.7219V40.3385H100.286V46.9514H80.4478V0.661287Z" fill="black"/>
<path d="M104.471 0.661287H115.25C118.997 0.661287 121.731 1.543 123.45 3.30643C125.169 5.02578 126.029 7.69297 126.029 11.308V14.1515C126.029 18.9569 124.442 21.9988 121.268 23.2773V23.4096C123.031 23.9386 124.266 25.0187 124.971 26.6499C125.72 28.281 126.095 30.4633 126.095 33.1966V41.3304C126.095 42.653 126.139 43.7331 126.227 44.5707C126.316 45.3643 126.536 46.1578 126.889 46.9514H119.482C119.218 46.2019 119.041 45.4965 118.953 44.8352C118.865 44.174 118.821 42.9836 118.821 41.2643V32.7998C118.821 30.6837 118.468 29.2068 117.763 28.3692C117.102 27.5316 115.933 27.1128 114.258 27.1128H111.745V46.9514H104.471V0.661287ZM114.39 20.4999C115.845 20.4999 116.925 20.1252 117.631 19.3757C118.38 18.6262 118.755 17.3698 118.755 15.6064V12.0354C118.755 10.3602 118.446 9.1478 117.829 8.39834C117.256 7.64888 116.33 7.27415 115.052 7.27415H111.745V20.4999H114.39Z" fill="black"/>
<path d="M141.733 0.661287H149.007V46.9514H141.733V0.661287Z" fill="black"/>
<path d="M163.911 47.6126C160.385 47.6126 157.717 46.6207 155.91 44.6369C154.102 42.6089 153.199 39.7213 153.199 35.974V33.3289H160.076V36.503C160.076 39.5009 161.332 40.9998 163.845 40.9998C165.08 40.9998 166.006 40.6471 166.623 39.9417C167.284 39.1923 167.615 38.0019 167.615 36.3708C167.615 34.431 167.174 32.7337 166.292 31.2789C165.41 29.7799 163.779 27.9945 161.399 25.9224C158.401 23.2773 156.307 20.8967 155.116 18.7805C153.926 16.6203 153.331 14.1956 153.331 11.5064C153.331 7.84727 154.257 5.02578 156.108 3.04192C157.96 1.01397 160.649 0 164.176 0C167.659 0 170.282 1.01397 172.045 3.04192C173.853 5.02578 174.757 7.89136 174.757 11.6386V13.5564H167.879V11.1757C167.879 9.58866 167.571 8.44243 166.953 7.73705C166.336 6.9876 165.432 6.61287 164.242 6.61287C161.817 6.61287 160.605 8.08974 160.605 11.0435C160.605 12.7187 161.046 14.2838 161.928 15.7386C162.853 17.1935 164.507 18.9569 166.887 21.0289C169.929 23.6741 172.023 26.0767 173.169 28.2369C174.316 30.3971 174.889 32.9321 174.889 35.8417C174.889 39.6331 173.941 42.5428 172.045 44.5707C170.194 46.5987 167.482 47.6126 163.911 47.6126Z" fill="black"/>
<path d="M188.516 47.6126C184.989 47.6126 182.322 46.6207 180.514 44.6369C178.707 42.6089 177.803 39.7213 177.803 35.974V33.3289H184.681V36.503C184.681 39.5009 185.937 40.9998 188.45 40.9998C189.684 40.9998 190.61 40.6471 191.227 39.9417C191.889 39.1923 192.219 38.0019 192.219 36.3708C192.219 34.431 191.778 32.7337 190.897 31.2789C190.015 29.7799 188.384 27.9945 186.003 25.9224C183.005 23.2773 180.911 20.8967 179.721 18.7805C178.531 16.6203 177.935 14.1956 177.935 11.5064C177.935 7.84727 178.861 5.02578 180.713 3.04192C182.564 1.01397 185.254 0 188.781 0C192.263 0 194.886 1.01397 196.65 3.04192C198.457 5.02578 199.361 7.89136 199.361 11.6386V13.5564H192.484V11.1757C192.484 9.58866 192.175 8.44243 191.558 7.73705C190.941 6.9876 190.037 6.61287 188.847 6.61287C186.422 6.61287 185.21 8.08974 185.21 11.0435C185.21 12.7187 185.65 14.2838 186.532 15.7386C187.458 17.1935 189.111 18.9569 191.492 21.0289C194.534 23.6741 196.628 26.0767 197.774 28.2369C198.92 30.3971 199.493 32.9321 199.493 35.8417C199.493 39.6331 198.545 42.5428 196.65 44.5707C194.798 46.5987 192.087 47.6126 188.516 47.6126Z" fill="black"/>
<path d="M214.245 47.6126C210.718 47.6126 208.029 46.6207 206.177 44.6369C204.325 42.6089 203.4 39.7213 203.4 35.974V0.661287H210.674V36.503C210.674 38.0901 210.982 39.2363 211.6 39.9417C212.261 40.6471 213.187 40.9998 214.377 40.9998C215.567 40.9998 216.471 40.6471 217.088 39.9417C217.749 39.2363 218.08 38.0901 218.08 36.503V0.661287H225.09V35.974C225.09 39.7213 224.164 42.6089 222.312 44.6369C220.461 46.6207 217.772 47.6126 214.245 47.6126Z" fill="black"/>
<path d="M230.271 0.661287H250.109V7.27415H237.545V19.508H247.53V26.1208H237.545V40.3385H250.109V46.9514H230.271V0.661287Z" fill="black"/>
<path d="M263.879 47.6126C260.353 47.6126 257.685 46.6207 255.878 44.6369C254.07 42.6089 253.167 39.7213 253.167 35.974V33.3289H260.044V36.503C260.044 39.5009 261.3 40.9998 263.813 40.9998C265.048 40.9998 265.973 40.6471 266.591 39.9417C267.252 39.1923 267.583 38.0019 267.583 36.3708C267.583 34.431 267.142 32.7337 266.26 31.2789C265.378 29.7799 263.747 27.9945 261.367 25.9224C258.369 23.2773 256.275 20.8967 255.084 18.7805C253.894 16.6203 253.299 14.1956 253.299 11.5064C253.299 7.84727 254.225 5.02578 256.076 3.04192C257.928 1.01397 260.617 0 264.144 0C267.627 0 270.25 1.01397 272.013 3.04192C273.821 5.02578 274.725 7.89136 274.725 11.6386V13.5564H267.847V11.1757C267.847 9.58866 267.539 8.44243 266.921 7.73705C266.304 6.9876 265.4 6.61287 264.21 6.61287C261.785 6.61287 260.573 8.08974 260.573 11.0435C260.573 12.7187 261.014 14.2838 261.896 15.7386C262.821 17.1935 264.475 18.9569 266.855 21.0289C269.897 23.6741 271.991 26.0767 273.137 28.2369C274.284 30.3971 274.857 32.9321 274.857 35.8417C274.857 39.6331 273.909 42.5428 272.013 44.5707C270.162 46.5987 267.45 47.6126 263.879 47.6126Z" fill="black"/>
<line x1="315.661" y1="26.4512" x2="462.661" y2="26.4512" stroke="black"/>
</svg>
