<svg width="68" height="51" viewBox="0 0 68 51" fill="none" xmlns="http://www.w3.org/2000/svg">
<path d="M0.715547 48.4165L1.28452 30.768C1.63188 19.9936 4.03546 12.3486 8.49529 7.833C12.9551 3.3174 19.7325 1.18464 28.8275 1.43471L28.5232 10.8731C24.9016 10.7995 22.1629 12.1133 20.3069 14.8146C18.4524 17.4728 17.4529 21.0429 17.3084 25.5251L28.1043 25.8732L27.3499 49.2752L0.715547 48.4165ZM38.9863 49.6503L39.5552 32.0018C39.9026 21.2274 42.3062 13.5824 46.766 9.06682C51.2258 4.55121 58.0032 2.41845 67.0982 2.66852L66.7939 12.1069C63.1723 12.0333 60.412 13.3464 58.513 16.0463C56.6585 18.7045 55.6589 22.2747 55.5144 26.7568L66.3104 27.1049L65.5559 50.5069L38.9863 49.6503Z" fill="white"/>
</svg>
