<svg width="678" height="151" viewBox="0 0 678 151" fill="none" xmlns="http://www.w3.org/2000/svg">
<path d="M32.2356 107C23.2586 107 15.6418 103.881 9.38506 97.6426C3.12835 91.4043 0 81.3688 0 67.5361C0 50.1774 4.89655 35.2598 14.6897 22.7833C24.4828 10.0355 37.9483 2.44107 55.0862 0L56.7184 13.019C50.1897 13.8327 43.6609 16.4094 37.1322 20.749C30.8755 24.8175 27.7471 29.8352 27.7471 35.8023C27.7471 38.7858 28.4272 40.82 29.7874 41.905C31.4195 42.9899 33.8678 44.0748 37.1322 45.1597C54.5421 50.0418 63.2471 60.0773 63.2471 75.2661C63.2471 84.2167 60.3908 91.8111 54.6782 98.0494C49.2375 104.016 41.7567 107 32.2356 107ZM110.989 107C102.011 107 94.3946 103.881 88.1379 97.6426C81.8812 91.1331 78.7529 80.962 78.7529 67.1293C78.7529 50.0418 83.6494 35.2598 93.4425 22.7833C103.236 10.0355 116.701 2.44107 133.839 0L135.471 12.6122C128.671 13.6971 122.142 16.2738 115.885 20.3422C109.628 24.4106 106.5 29.4284 106.5 35.3954C106.5 38.379 107.18 40.4132 108.54 41.4981C110.172 42.583 112.621 43.6679 115.885 44.7529C133.295 49.635 142 59.8061 142 75.2661C142 84.2167 139.144 91.8111 133.431 98.0494C127.99 104.016 120.51 107 110.989 107Z" fill="#FFEFCA"/>
<path d="M96.4456 69.0001H98.8913V62.452L101.416 59.6119L108.437 69.0001H111.396L102.915 57.9157L111.396 48.8036H108.201L99.1279 58.823H98.8913V48.8036H96.4456V69.0001Z" fill="black"/>
<path d="M114.633 74.6803C116.733 74.6803 118.212 73.566 119.09 71.2091L125.54 53.8922L122.995 53.8528L118.814 65.9233H118.656L114.475 53.8528H111.95L117.552 69.079L117.118 70.2624C116.27 72.57 115.224 72.7869 113.528 72.353L112.937 74.4042C113.173 74.5226 113.844 74.6803 114.633 74.6803Z" fill="black"/>
<path d="M130.946 48.8036H128.619V69.0001H130.946V48.8036Z" fill="black"/>
<path d="M135.209 69.0001H137.536V53.8528H135.209V69.0001ZM136.392 51.3282C137.3 51.3282 138.049 50.6182 138.049 49.7504C138.049 48.8825 137.3 48.1725 136.392 48.1725C135.485 48.1725 134.736 48.8825 134.736 49.7504C134.736 50.6182 135.485 51.3282 136.392 51.3282Z" fill="black"/>
<path d="M148.15 69.3157C151.226 69.3157 153.475 67.7773 154.185 65.4894L151.937 64.8582C151.345 66.4361 149.974 67.225 148.15 67.225C145.418 67.225 143.534 65.4598 143.426 62.2153H154.422V61.2292C154.422 55.5884 151.069 53.6555 147.913 53.6555C143.811 53.6555 141.089 56.8901 141.089 61.5448C141.089 66.1994 143.771 69.3157 148.15 69.3157ZM143.426 60.2036C143.584 57.8467 145.25 55.7462 147.913 55.7462C150.438 55.7462 152.055 57.6396 152.055 60.2036H143.426Z" fill="black"/>
<path d="M165.772 74.6803H168.1V66.6728H168.297C168.81 67.5011 169.796 69.3157 172.715 69.3157C176.502 69.3157 179.145 66.2783 179.145 61.4659C179.145 56.6929 176.502 53.6555 172.675 53.6555C169.717 53.6555 168.81 55.47 168.297 56.259H168.021V53.8528H165.772V74.6803ZM168.06 61.4264C168.06 58.0341 169.559 55.7462 172.399 55.7462C175.358 55.7462 176.817 58.2313 176.817 61.4264C176.817 64.661 175.318 67.225 172.399 67.225C169.599 67.225 168.06 64.8582 168.06 61.4264Z" fill="black"/>
<path d="M188.848 69.3157C192.951 69.3157 195.712 66.1994 195.712 61.5053C195.712 56.7718 192.951 53.6555 188.848 53.6555C184.746 53.6555 181.985 56.7718 181.985 61.5053C181.985 66.1994 184.746 69.3157 188.848 69.3157ZM188.848 67.225C185.732 67.225 184.312 64.5427 184.312 61.5053C184.312 58.468 185.732 55.7462 188.848 55.7462C191.965 55.7462 193.385 58.468 193.385 61.5053C193.385 64.5427 191.965 67.225 188.848 67.225Z" fill="black"/>
<path d="M209.994 57.2451C209.264 55.0953 207.627 53.6555 204.629 53.6555C201.434 53.6555 199.067 55.47 199.067 58.0341C199.067 60.1247 200.31 61.525 203.091 62.1759L205.615 62.7676C207.144 63.1226 207.864 63.8524 207.864 64.8977C207.864 66.1994 206.483 67.2645 204.314 67.2645C202.41 67.2645 201.217 66.4459 200.803 64.8188L198.594 65.371C199.136 67.9449 201.257 69.3157 204.353 69.3157C207.874 69.3157 210.27 67.3927 210.27 64.7794C210.27 62.669 208.949 61.3377 206.247 60.6769L203.998 60.1247C202.203 59.6809 201.395 59.0794 201.395 57.9157C201.395 56.614 202.775 55.6673 204.629 55.6673C206.661 55.6673 207.499 56.7915 207.903 57.8368L209.994 57.2451Z" fill="black"/>
<path d="M220.361 53.8528H217.126V50.2237H214.799V53.8528H212.511V55.8251H214.799V65.2921C214.799 67.935 216.929 69.1973 218.901 69.1973C219.769 69.1973 220.321 69.0395 220.637 68.9212L220.164 66.8306C219.966 66.87 219.651 66.9489 219.138 66.9489C218.112 66.9489 217.126 66.6333 217.126 64.661V55.8251H220.361V53.8528Z" fill="black"/>
<path d="M230.05 69.3157C233.127 69.3157 235.375 67.7773 236.085 65.4894L233.837 64.8582C233.245 66.4361 231.874 67.225 230.05 67.225C227.318 67.225 225.435 65.4598 225.326 62.2153H236.322V61.2292C236.322 55.5884 232.969 53.6555 229.813 53.6555C225.711 53.6555 222.989 56.8901 222.989 61.5448C222.989 66.1994 225.671 69.3157 230.05 69.3157ZM225.326 60.2036C225.484 57.8467 227.151 55.7462 229.813 55.7462C232.338 55.7462 233.955 57.6396 233.955 60.2036H225.326Z" fill="black"/>
<path d="M245.582 69.3157C248.501 69.3157 249.487 67.5011 250 66.6728H250.276V69.0001H252.524V48.8036H250.197V56.259H250C249.487 55.47 248.58 53.6555 245.621 53.6555C241.795 53.6555 239.152 56.6929 239.152 61.4659C239.152 66.2783 241.795 69.3157 245.582 69.3157ZM245.897 67.225C242.978 67.225 241.479 64.661 241.479 61.4264C241.479 58.2313 242.939 55.7462 245.897 55.7462C248.737 55.7462 250.236 58.0341 250.236 61.4264C250.236 64.8582 248.698 67.225 245.897 67.225Z" fill="black"/>
<path d="M269.378 69.3551C272.021 69.3551 273.401 67.935 273.875 66.9489H273.993V69.0001H276.32V59.0202C276.32 54.2078 272.652 53.6555 270.719 53.6555C268.431 53.6555 265.828 54.4444 264.644 57.2057L266.853 57.9946C267.366 56.8901 268.579 55.7067 270.798 55.7067C272.938 55.7067 273.993 56.8408 273.993 58.7835V58.8624C273.993 59.9866 272.849 59.888 270.088 60.243C267.277 60.6079 264.21 61.2292 264.21 64.7005C264.21 67.6589 266.498 69.3551 269.378 69.3551ZM269.733 67.2645C267.879 67.2645 266.538 66.4361 266.538 64.8188C266.538 63.0437 268.155 62.4915 269.969 62.2548C270.955 62.1365 273.598 61.8603 273.993 61.387V63.5171C273.993 65.4105 272.494 67.2645 269.733 67.2645Z" fill="black"/>
<path d="M299.108 57.2451C298.378 55.0953 296.741 53.6555 293.743 53.6555C290.548 53.6555 288.181 55.47 288.181 58.0341C288.181 60.1247 289.424 61.525 292.205 62.1759L294.729 62.7676C296.258 63.1226 296.978 63.8524 296.978 64.8977C296.978 66.1994 295.597 67.2645 293.428 67.2645C291.524 67.2645 290.331 66.4459 289.917 64.8188L287.708 65.371C288.25 67.9449 290.37 69.3157 293.467 69.3157C296.988 69.3157 299.384 67.3927 299.384 64.7794C299.384 62.669 298.062 61.3377 295.36 60.6769L293.112 60.1247C291.317 59.6809 290.508 59.0794 290.508 57.9157C290.508 56.614 291.889 55.6673 293.743 55.6673C295.775 55.6673 296.613 56.7915 297.017 57.8368L299.108 57.2451Z" fill="black"/>
<path d="M309.475 53.8528H306.24V50.2237H303.913V53.8528H301.625V55.8251H303.913V65.2921C303.913 67.935 306.043 69.1973 308.015 69.1973C308.883 69.1973 309.435 69.0395 309.751 68.9212L309.277 66.8306C309.08 66.87 308.765 66.9489 308.252 66.9489C307.226 66.9489 306.24 66.6333 306.24 64.661V55.8251H309.475V53.8528Z" fill="black"/>
<path d="M318.966 69.3157C323.069 69.3157 325.83 66.1994 325.83 61.5053C325.83 56.7718 323.069 53.6555 318.966 53.6555C314.864 53.6555 312.103 56.7718 312.103 61.5053C312.103 66.1994 314.864 69.3157 318.966 69.3157ZM318.966 67.225C315.85 67.225 314.43 64.5427 314.43 61.5053C314.43 58.468 315.85 55.7462 318.966 55.7462C322.083 55.7462 323.503 58.468 323.503 61.5053C323.503 64.5427 322.083 67.225 318.966 67.225Z" fill="black"/>
<path d="M329.383 69.0001H331.71V59.4147C331.71 57.3635 333.327 55.8645 335.536 55.8645C336.158 55.8645 336.799 55.9828 336.956 56.0223V53.6555C336.69 53.6358 336.079 53.6161 335.734 53.6161C333.919 53.6161 332.341 54.6417 331.789 56.1406H331.631V53.8528H329.383V69.0001Z" fill="black"/>
<path d="M341.675 74.6803C343.776 74.6803 345.255 73.566 346.133 71.2091L352.582 53.8922L350.038 53.8528L345.856 65.9233H345.699L341.517 53.8528H338.993L344.594 69.079L344.16 70.2624C343.312 72.57 342.267 72.7869 340.571 72.353L339.979 74.4042C340.216 74.5226 340.886 74.6803 341.675 74.6803Z" fill="black"/>
<path d="M373.018 62.807C373.018 65.6472 370.848 66.9489 369.112 66.9489C367.18 66.9489 365.799 65.5288 365.799 63.3198V53.8528H363.472V63.4776C363.472 67.3434 365.523 69.1973 368.363 69.1973C370.651 69.1973 372.15 67.9745 372.86 66.4361H373.018V69.0001H375.345V53.8528H373.018V62.807Z" fill="black"/>
<path d="M390.337 57.2451C389.607 55.0953 387.97 53.6555 384.972 53.6555C381.777 53.6555 379.41 55.47 379.41 58.0341C379.41 60.1247 380.653 61.525 383.434 62.1759L385.958 62.7676C387.487 63.1226 388.207 63.8524 388.207 64.8977C388.207 66.1994 386.826 67.2645 384.657 67.2645C382.753 67.2645 381.56 66.4459 381.146 64.8188L378.937 65.371C379.479 67.9449 381.6 69.3157 384.696 69.3157C388.217 69.3157 390.613 67.3927 390.613 64.7794C390.613 62.669 389.292 61.3377 386.59 60.6769L384.341 60.1247C382.546 59.6809 381.738 59.0794 381.738 57.9157C381.738 56.614 383.118 55.6673 384.972 55.6673C387.004 55.6673 387.842 56.7915 388.246 57.8368L390.337 57.2451Z" fill="black"/>
<path d="M394.116 69.0001H396.444V53.8528H394.116V69.0001ZM395.3 51.3282C396.207 51.3282 396.957 50.6182 396.957 49.7504C396.957 48.8825 396.207 48.1725 395.3 48.1725C394.393 48.1725 393.643 48.8825 393.643 49.7504C393.643 50.6182 394.393 51.3282 395.3 51.3282Z" fill="black"/>
<path d="M403.034 59.888C403.034 57.2451 404.671 55.7462 406.899 55.7462C409.059 55.7462 410.371 57.1564 410.371 59.533V69.0001H412.698V59.3752C412.698 55.5095 410.637 53.6555 407.57 53.6555C405.282 53.6555 403.862 54.6811 403.152 56.2195H402.955V53.8528H400.706V69.0001H403.034V59.888Z" fill="black"/>
<path d="M423.065 74.9959C426.694 74.9959 429.613 73.3392 429.613 69.434V53.8528H427.365V56.259H427.128C426.615 55.47 425.668 53.6555 422.71 53.6555C418.884 53.6555 416.241 56.6929 416.241 61.3475C416.241 66.0811 419.002 68.7634 422.671 68.7634C425.629 68.7634 426.576 67.0278 427.088 66.1994H427.286V69.2762C427.286 71.8008 425.511 72.9447 423.065 72.9447C420.314 72.9447 419.347 71.4951 418.726 70.6568L416.872 71.9586C417.819 73.5463 419.682 74.9959 423.065 74.9959ZM422.986 66.6728C420.067 66.6728 418.568 64.4638 418.568 61.3081C418.568 58.2313 420.028 55.7462 422.986 55.7462C425.826 55.7462 427.325 58.0341 427.325 61.3081C427.325 64.661 425.787 66.6728 422.986 66.6728Z" fill="black"/>
<path d="M448.271 53.8528H445.036V50.2237H442.709V53.8528H440.421V55.8251H442.709V65.2921C442.709 67.935 444.839 69.1973 446.812 69.1973C447.679 69.1973 448.232 69.0395 448.547 68.9212L448.074 66.8306C447.877 66.87 447.561 66.9489 447.048 66.9489C446.023 66.9489 445.036 66.6333 445.036 64.661V55.8251H448.271V53.8528Z" fill="black"/>
<path d="M454.425 59.888C454.425 57.2451 456.111 55.7462 458.409 55.7462C460.598 55.7462 461.919 57.1268 461.919 59.533V69.0001H464.247V59.3752C464.247 55.4799 462.176 53.6555 459.079 53.6555C456.693 53.6555 455.332 54.6515 454.622 56.2195H454.425V48.8036H452.097V69.0001H454.425V59.888Z" fill="black"/>
<path d="M474.855 69.3157C477.932 69.3157 480.181 67.7773 480.891 65.4894L478.642 64.8582C478.05 66.4361 476.68 67.225 474.855 67.225C472.124 67.225 470.24 65.4598 470.132 62.2153H481.127V61.2292C481.127 55.5884 477.774 53.6555 474.619 53.6555C470.516 53.6555 467.794 56.8901 467.794 61.5448C467.794 66.1994 470.477 69.3157 474.855 69.3157ZM470.132 60.2036C470.289 57.8467 471.956 55.7462 474.619 55.7462C477.143 55.7462 478.76 57.6396 478.76 60.2036H470.132Z" fill="black"/>
<path d="M499.223 53.8528H495.831V52.3144C495.831 50.8154 496.462 50.0265 498 50.0265C498.671 50.0265 499.065 50.1843 499.302 50.2632L499.973 48.2514C499.618 48.0936 498.908 47.8569 497.764 47.8569C495.594 47.8569 493.504 49.1587 493.504 51.7621V53.8528H491.058V55.8251H493.504V69.0001H495.831V55.8251H499.223V53.8528Z" fill="black"/>
<path d="M502.485 69.0001H504.812V53.8528H502.485V69.0001ZM503.668 51.3282C504.576 51.3282 505.325 50.6182 505.325 49.7504C505.325 48.8825 504.576 48.1725 503.668 48.1725C502.761 48.1725 502.012 48.8825 502.012 49.7504C502.012 50.6182 502.761 51.3282 503.668 51.3282Z" fill="black"/>
<path d="M511.402 48.8036H509.075V69.0001H511.402V48.8036Z" fill="black"/>
<path d="M522.252 53.8528H519.018V50.2237H516.69V53.8528H514.403V55.8251H516.69V65.2921C516.69 67.935 518.821 69.1973 520.793 69.1973C521.661 69.1973 522.213 69.0395 522.529 68.9212L522.055 66.8306C521.858 66.87 521.542 66.9489 521.03 66.9489C520.004 66.9489 519.018 66.6333 519.018 64.661V55.8251H522.252V53.8528Z" fill="black"/>
<path d="M531.941 69.3157C535.018 69.3157 537.267 67.7773 537.977 65.4894L535.728 64.8582C535.136 66.4361 533.766 67.225 531.941 67.225C529.21 67.225 527.326 65.4598 527.218 62.2153H538.213V61.2292C538.213 55.5884 534.86 53.6555 531.705 53.6555C527.602 53.6555 524.88 56.8901 524.88 61.5448C524.88 66.1994 527.563 69.3157 531.941 69.3157ZM527.218 60.2036C527.375 57.8467 529.042 55.7462 531.705 55.7462C534.229 55.7462 535.847 57.6396 535.847 60.2036H527.218Z" fill="black"/>
<path d="M541.754 69.0001H544.081V59.4147C544.081 57.3635 545.698 55.8645 547.907 55.8645C548.528 55.8645 549.169 55.9828 549.327 56.0223V53.6555C549.061 53.6358 548.45 53.6161 548.104 53.6161C546.29 53.6161 544.712 54.6417 544.16 56.1406H544.002V53.8528H541.754V69.0001Z" fill="black"/>
<path d="M564.354 69.3551C566.997 69.3551 568.377 67.935 568.851 66.9489H568.969V69.0001H571.296V59.0202C571.296 54.2078 567.628 53.6555 565.695 53.6555C563.407 53.6555 560.804 54.4444 559.62 57.2057L561.829 57.9946C562.342 56.8901 563.555 55.7067 565.774 55.7067C567.914 55.7067 568.969 56.8408 568.969 58.7835V58.8624C568.969 59.9866 567.825 59.888 565.064 60.243C562.253 60.6079 559.186 61.2292 559.186 64.7005C559.186 67.6589 561.474 69.3551 564.354 69.3551ZM564.709 67.2645C562.855 67.2645 561.514 66.4361 561.514 64.8188C561.514 63.0437 563.131 62.4915 564.945 62.2548C565.932 62.1365 568.575 61.8603 568.969 61.387V63.5171C568.969 65.4105 567.47 67.2645 564.709 67.2645Z" fill="black"/>
<path d="M577.872 59.888C577.872 57.2451 579.509 55.7462 581.737 55.7462C583.897 55.7462 585.208 57.1564 585.208 59.533V69.0001H587.536V59.3752C587.536 55.5095 585.475 53.6555 582.408 53.6555C580.12 53.6555 578.7 54.6811 577.99 56.2195H577.793V53.8528H575.544V69.0001H577.872V59.888Z" fill="black"/>
<path d="M597.508 69.3157C600.427 69.3157 601.413 67.5011 601.926 66.6728H602.202V69.0001H604.451V48.8036H602.124V56.259H601.926C601.413 55.47 600.506 53.6555 597.548 53.6555C593.721 53.6555 591.079 56.6929 591.079 61.4659C591.079 66.2783 593.721 69.3157 597.508 69.3157ZM597.824 67.225C594.905 67.225 593.406 64.661 593.406 61.4264C593.406 58.2313 594.865 55.7462 597.824 55.7462C600.664 55.7462 602.163 58.0341 602.163 61.4264C602.163 64.8582 600.625 67.225 597.824 67.225Z" fill="black"/>
<path d="M621.304 69.3551C623.947 69.3551 625.328 67.935 625.801 66.9489H625.919V69.0001H628.247V59.0202C628.247 54.2078 624.578 53.6555 622.645 53.6555C620.358 53.6555 617.754 54.4444 616.571 57.2057L618.78 57.9946C619.292 56.8901 620.505 55.7067 622.724 55.7067C624.864 55.7067 625.919 56.8408 625.919 58.7835V58.8624C625.919 59.9866 624.776 59.888 622.014 60.243C619.204 60.6079 616.137 61.2292 616.137 64.7005C616.137 67.6589 618.425 69.3551 621.304 69.3551ZM621.659 67.2645C619.805 67.2645 618.464 66.4361 618.464 64.8188C618.464 63.0437 620.081 62.4915 621.896 62.2548C622.882 62.1365 625.525 61.8603 625.919 61.387V63.5171C625.919 65.4105 624.42 67.2645 621.659 67.2645Z" fill="black"/>
<path d="M102.875 91.8528H99.4829V90.3144C99.4829 88.8154 100.114 88.0265 101.652 88.0265C102.323 88.0265 102.718 88.1843 102.954 88.2632L103.625 86.2514C103.27 86.0936 102.56 85.8569 101.416 85.8569C99.2463 85.8569 97.1556 87.1587 97.1556 89.7621V91.8528H94.71V93.8251H97.1556V107H99.4829V93.8251H102.875V91.8528Z" fill="black"/>
<path d="M111.864 107.316C114.941 107.316 117.189 105.777 117.899 103.489L115.651 102.858C115.059 104.436 113.689 105.225 111.864 105.225C109.132 105.225 107.249 103.46 107.14 100.215H118.136V99.2292C118.136 93.5884 114.783 91.6555 111.627 91.6555C107.525 91.6555 104.803 94.8901 104.803 99.5448C104.803 104.199 107.486 107.316 111.864 107.316ZM107.14 98.2036C107.298 95.8467 108.965 93.7462 111.627 93.7462C114.152 93.7462 115.769 95.6396 115.769 98.2036H107.14Z" fill="black"/>
<path d="M125.108 107H127.396L130.71 95.3635H130.946L134.26 107H136.548L141.163 91.8528H138.717L135.443 103.41H135.285L132.09 91.8528H129.605L126.37 103.45H126.213L122.939 91.8528H120.493L125.108 107Z" fill="black"/>
<path d="M157.77 107.316C160.689 107.316 161.675 105.501 162.188 104.673H162.464V107H164.712V86.8036H162.385V94.259H162.188C161.675 93.47 160.768 91.6555 157.809 91.6555C153.983 91.6555 151.34 94.6929 151.34 99.4659C151.34 104.278 153.983 107.316 157.77 107.316ZM158.085 105.225C155.166 105.225 153.667 102.661 153.667 99.4264C153.667 96.2313 155.127 93.7462 158.085 93.7462C160.925 93.7462 162.424 96.034 162.424 99.4264C162.424 102.858 160.886 105.225 158.085 105.225Z" fill="black"/>
<path d="M173.755 107.355C176.398 107.355 177.779 105.935 178.252 104.949H178.37V107H180.698V97.0202C180.698 92.2078 177.029 91.6555 175.096 91.6555C172.808 91.6555 170.205 92.4444 169.022 95.2057L171.231 95.9946C171.743 94.8901 172.956 93.7067 175.175 93.7067C177.315 93.7067 178.37 94.8408 178.37 96.7835V96.8624C178.37 97.9866 177.226 97.888 174.465 98.243C171.655 98.6079 168.588 99.2292 168.588 102.7C168.588 105.659 170.876 107.355 173.755 107.355ZM174.11 105.264C172.256 105.264 170.915 104.436 170.915 102.819C170.915 101.044 172.532 100.491 174.347 100.255C175.333 100.136 177.976 99.8603 178.37 99.387V101.517C178.37 103.41 176.871 105.264 174.11 105.264Z" fill="black"/>
<path d="M185.902 112.68C188.003 112.68 189.482 111.566 190.36 109.209L196.809 91.8922L194.265 91.8528L190.083 103.923H189.926L185.744 91.8528H183.22L188.821 107.079L188.387 108.262C187.539 110.57 186.494 110.787 184.798 110.353L184.206 112.404C184.443 112.523 185.113 112.68 185.902 112.68Z" fill="black"/>
<path d="M210.618 95.2451C209.888 93.0953 208.251 91.6555 205.253 91.6555C202.058 91.6555 199.691 93.47 199.691 96.034C199.691 98.1247 200.934 99.525 203.715 100.176L206.239 100.768C207.768 101.123 208.488 101.852 208.488 102.898C208.488 104.199 207.107 105.264 204.937 105.264C203.034 105.264 201.841 104.446 201.427 102.819L199.218 103.371C199.76 105.945 201.88 107.316 204.977 107.316C208.497 107.316 210.894 105.393 210.894 102.779C210.894 100.669 209.572 99.3377 206.87 98.6769L204.622 98.1247C202.827 97.6809 202.018 97.0794 202.018 95.9157C202.018 94.614 203.399 93.6673 205.253 93.6673C207.284 93.6673 208.123 94.7915 208.527 95.8368L210.618 95.2451Z" fill="black"/>
<path d="M224.535 86.8036H222.207V107H224.535V86.8036Z" fill="black"/>
<path d="M233.255 107.355C235.898 107.355 237.278 105.935 237.752 104.949H237.87V107H240.197V97.0202C240.197 92.2078 236.529 91.6555 234.596 91.6555C232.308 91.6555 229.705 92.4444 228.521 95.2057L230.73 95.9946C231.243 94.8901 232.456 93.7067 234.675 93.7067C236.815 93.7067 237.87 94.8408 237.87 96.7835V96.8624C237.87 97.9866 236.726 97.888 233.965 98.243C231.154 98.6079 228.087 99.2292 228.087 102.7C228.087 105.659 230.375 107.355 233.255 107.355ZM233.61 105.264C231.756 105.264 230.415 104.436 230.415 102.819C230.415 101.044 232.032 100.491 233.847 100.255C234.833 100.136 237.476 99.8603 237.87 99.387V101.517C237.87 103.41 236.371 105.264 233.61 105.264Z" fill="black"/>
<path d="M251.033 91.8528H247.798V88.2237H245.471V91.8528H243.183V93.8251H245.471V103.292C245.471 105.935 247.601 107.197 249.573 107.197C250.441 107.197 250.993 107.04 251.309 106.921L250.835 104.831C250.638 104.87 250.323 104.949 249.81 104.949C248.784 104.949 247.798 104.633 247.798 102.661V93.8251H251.033V91.8528Z" fill="black"/>
<path d="M260.722 107.316C263.798 107.316 266.047 105.777 266.757 103.489L264.509 102.858C263.917 104.436 262.546 105.225 260.722 105.225C257.99 105.225 256.106 103.46 255.998 100.215H266.994V99.2292C266.994 93.5884 263.641 91.6555 260.485 91.6555C256.383 91.6555 253.661 94.8901 253.661 99.5448C253.661 104.199 256.343 107.316 260.722 107.316ZM255.998 98.2036C256.156 95.8467 257.822 93.7462 260.485 93.7462C263.01 93.7462 264.627 95.6396 264.627 98.2036H255.998Z" fill="black"/>
<path d="M270.534 107H272.861V97.4147C272.861 95.3635 274.479 93.8645 276.688 93.8645C277.309 93.8645 277.95 93.9829 278.108 94.0223V91.6555C277.841 91.6358 277.23 91.6161 276.885 91.6161C275.07 91.6161 273.492 92.6417 272.94 94.1406H272.782V91.8528H270.534V107Z" fill="black"/>
<path d="M282.602 104.239H280.077L279.959 105.343C279.673 108.016 279.111 110.678 278.855 111.931H280.63C281.103 110.59 282.109 107.552 282.444 105.304L282.602 104.239Z" fill="black"/>
<path d="M297.486 86.8036H295.04V107H297.486V86.8036Z" fill="black"/>
<path d="M315.998 112.996C319.627 112.996 322.546 111.339 322.546 107.434V91.8528H320.298V94.259H320.061C319.548 93.47 318.602 91.6555 315.643 91.6555C311.817 91.6555 309.174 94.6929 309.174 99.3475C309.174 104.081 311.935 106.763 315.604 106.763C318.562 106.763 319.509 105.028 320.022 104.199H320.219V107.276C320.219 109.801 318.444 110.945 315.998 110.945C313.247 110.945 312.28 109.495 311.659 108.657L309.805 109.959C310.752 111.546 312.616 112.996 315.998 112.996ZM315.919 104.673C313 104.673 311.501 102.464 311.501 99.3081C311.501 96.2313 312.961 93.7462 315.919 93.7462C318.759 93.7462 320.258 96.0341 320.258 99.3081C320.258 102.661 318.72 104.673 315.919 104.673Z" fill="black"/>
<path d="M332.96 107.316C337.062 107.316 339.824 104.199 339.824 99.5053C339.824 94.7718 337.062 91.6555 332.96 91.6555C328.858 91.6555 326.096 94.7718 326.096 99.5053C326.096 104.199 328.858 107.316 332.96 107.316ZM332.96 105.225C329.844 105.225 328.424 102.543 328.424 99.5053C328.424 96.468 329.844 93.7462 332.96 93.7462C336.076 93.7462 337.496 96.468 337.496 99.5053C337.496 102.543 336.076 105.225 332.96 105.225Z" fill="black"/>
<path d="M349.964 91.8528H346.729V88.2237H344.402V91.8528H342.114V93.8251H344.402V103.292C344.402 105.935 346.532 107.197 348.504 107.197C349.372 107.197 349.924 107.04 350.24 106.921L349.767 104.831C349.569 104.87 349.254 104.949 348.741 104.949C347.715 104.949 346.729 104.633 346.729 102.661V93.8251H349.964V91.8528Z" fill="black"/>
<path d="M365.732 107.355C368.375 107.355 369.756 105.935 370.229 104.949H370.348V107H372.675V97.0202C372.675 92.2078 369.006 91.6555 367.074 91.6555C364.786 91.6555 362.182 92.4444 360.999 95.2057L363.208 95.9946C363.721 94.8901 364.934 93.7067 367.152 93.7067C369.292 93.7067 370.348 94.8408 370.348 96.7835V96.8624C370.348 97.9866 369.204 97.888 366.442 98.243C363.632 98.6079 360.565 99.2292 360.565 102.7C360.565 105.659 362.853 107.355 365.732 107.355ZM366.087 105.264C364.233 105.264 362.892 104.436 362.892 102.819C362.892 101.044 364.51 100.491 366.324 100.255C367.31 100.136 369.953 99.8603 370.348 99.387V101.517C370.348 103.41 368.849 105.264 366.087 105.264Z" fill="black"/>
<path d="M379.25 97.888C379.25 95.2451 380.887 93.7462 383.116 93.7462C385.276 93.7462 386.587 95.1564 386.587 97.533V107H388.914V97.3752C388.914 93.5095 386.853 91.6555 383.786 91.6555C381.499 91.6555 380.078 92.6811 379.368 94.2195H379.171V91.8528H376.923V107H379.25V97.888Z" fill="black"/>
<path d="M407.328 107.316C410.405 107.316 412.654 105.777 413.364 103.489L411.115 102.858C410.524 104.436 409.153 105.225 407.328 105.225C404.597 105.225 402.713 103.46 402.605 100.215H413.6V99.2292C413.6 93.5884 410.247 91.6555 407.092 91.6555C402.989 91.6555 400.268 94.8901 400.268 99.5448C400.268 104.199 402.95 107.316 407.328 107.316ZM402.605 98.2036C402.763 95.8467 404.429 93.7462 407.092 93.7462C409.616 93.7462 411.234 95.6396 411.234 98.2036H402.605Z" fill="black"/>
<path d="M417.141 107H419.468V97.533C419.468 95.3142 421.085 93.7462 422.9 93.7462C424.665 93.7462 425.898 94.9 425.898 96.6257V107H428.264V97.1385C428.264 95.186 429.487 93.7462 431.617 93.7462C433.274 93.7462 434.694 94.6239 434.694 96.8624V107H437.022V96.8624C437.022 93.3024 435.108 91.6555 432.406 91.6555C430.237 91.6555 428.649 92.6515 427.87 94.2195H427.712C426.963 92.6022 425.641 91.6555 423.649 91.6555C421.677 91.6555 420.217 92.6022 419.586 94.2195H419.389V91.8528H417.141V107Z" fill="black"/>
<path d="M445.734 107.355C448.377 107.355 449.758 105.935 450.231 104.949H450.349V107H452.677V97.0202C452.677 92.2078 449.008 91.6555 447.075 91.6555C444.787 91.6555 442.184 92.4444 441.001 95.2057L443.21 95.9946C443.722 94.8901 444.935 93.7067 447.154 93.7067C449.294 93.7067 450.349 94.8408 450.349 96.7835V96.8624C450.349 97.9866 449.205 97.888 446.444 98.243C443.634 98.6079 440.567 99.2292 440.567 102.7C440.567 105.659 442.855 107.355 445.734 107.355ZM446.089 105.264C444.235 105.264 442.894 104.436 442.894 102.819C442.894 101.044 444.511 100.491 446.326 100.255C447.312 100.136 449.955 99.8603 450.349 99.387V101.517C450.349 103.41 448.85 105.264 446.089 105.264Z" fill="black"/>
<path d="M456.925 107H459.252V91.8528H456.925V107ZM458.108 89.3282C459.015 89.3282 459.765 88.6182 459.765 87.7504C459.765 86.8825 459.015 86.1725 458.108 86.1725C457.201 86.1725 456.451 86.8825 456.451 87.7504C456.451 88.6182 457.201 89.3282 458.108 89.3282Z" fill="black"/>
<path d="M465.842 86.8036H463.515V107H465.842V86.8036Z" fill="black"/>
<path d="M484.66 91.8528H481.268V90.3144C481.268 88.8154 481.899 88.0265 483.437 88.0265C484.108 88.0265 484.502 88.1843 484.739 88.2632L485.41 86.2514C485.055 86.0936 484.345 85.8569 483.201 85.8569C481.031 85.8569 478.94 87.1587 478.94 89.7621V91.8528H476.495V93.8251H478.94V107H481.268V93.8251H484.66V91.8528Z" fill="black"/>
<path d="M487.922 107H490.249V97.4147C490.249 95.3635 491.866 93.8645 494.075 93.8645C494.697 93.8645 495.338 93.9829 495.496 94.0223V91.6555C495.229 91.6358 494.618 91.6161 494.273 91.6161C492.458 91.6161 490.88 92.6417 490.328 94.1406H490.17V91.8528H487.922V107Z" fill="black"/>
<path d="M503.947 107.316C508.049 107.316 510.811 104.199 510.811 99.5053C510.811 94.7718 508.049 91.6555 503.947 91.6555C499.844 91.6555 497.083 94.7718 497.083 99.5053C497.083 104.199 499.844 107.316 503.947 107.316ZM503.947 105.225C500.831 105.225 499.411 102.543 499.411 99.5053C499.411 96.468 500.831 93.7462 503.947 93.7462C507.063 93.7462 508.483 96.468 508.483 99.5053C508.483 102.543 507.063 105.225 503.947 105.225Z" fill="black"/>
<path d="M514.363 107H516.69V97.533C516.69 95.3142 518.308 93.7462 520.122 93.7462C521.888 93.7462 523.12 94.9 523.12 96.6257V107H525.487V97.1385C525.487 95.186 526.71 93.7462 528.84 93.7462C530.497 93.7462 531.917 94.6239 531.917 96.8624V107H534.244V96.8624C534.244 93.3024 532.331 91.6555 529.629 91.6555C527.459 91.6555 525.872 92.6515 525.093 94.2195H524.935C524.185 92.6022 522.864 91.6555 520.872 91.6555C518.899 91.6555 517.44 92.6022 516.809 94.2195H516.612V91.8528H514.363V107Z" fill="black"/>
<path d="M546.625 107H549.071V100.452L551.595 97.6119L558.617 107H561.575L553.094 95.9157L561.575 86.8036H558.38L549.308 96.823H549.071V86.8036H546.625V107Z" fill="black"/>
<path d="M564.812 112.68C566.913 112.68 568.392 111.566 569.27 109.209L575.719 91.8922L573.175 91.8528L568.994 103.923H568.836L564.655 91.8528H562.13L567.731 107.079L567.297 108.262C566.449 110.57 565.404 110.787 563.708 110.353L563.116 112.404C563.353 112.523 564.023 112.68 564.812 112.68Z" fill="black"/>
<path d="M581.126 86.8036H578.798V107H581.126V86.8036Z" fill="black"/>
<path d="M585.388 107H587.716V91.8528H585.388V107ZM586.572 89.3282C587.479 89.3282 588.229 88.6182 588.229 87.7504C588.229 86.8825 587.479 86.1725 586.572 86.1725C585.665 86.1725 584.915 86.8825 584.915 87.7504C584.915 88.6182 585.665 89.3282 586.572 89.3282Z" fill="black"/>
<path d="M598.329 107.316C601.406 107.316 603.655 105.777 604.365 103.489L602.116 102.858C601.524 104.436 600.154 105.225 598.329 105.225C595.598 105.225 593.714 103.46 593.606 100.215H604.601V99.2292C604.601 93.5884 601.248 91.6555 598.093 91.6555C593.99 91.6555 591.268 94.8901 591.268 99.5448C591.268 104.199 593.951 107.316 598.329 107.316ZM593.606 98.2036C593.763 95.8467 595.43 93.7462 598.093 93.7462C600.617 93.7462 602.234 95.6396 602.234 98.2036H593.606Z" fill="black"/>
<path d="M610.193 86.8036H607.984V88.6182C607.984 90.0777 607.274 91.34 606.445 92.5233L607.708 93.5489C609.285 92.2867 610.193 90.196 610.193 88.5787V86.8036Z" fill="black"/>
<path d="M621.854 95.2451C621.124 93.0953 619.487 91.6555 616.489 91.6555C613.294 91.6555 610.927 93.47 610.927 96.034C610.927 98.1247 612.17 99.525 614.951 100.176L617.476 100.768C619.004 101.123 619.724 101.852 619.724 102.898C619.724 104.199 618.343 105.264 616.174 105.264C614.27 105.264 613.077 104.446 612.663 102.819L610.454 103.371C610.996 105.945 613.117 107.316 616.213 107.316C619.734 107.316 622.13 105.393 622.13 102.779C622.13 100.669 620.809 99.3377 618.107 98.6769L615.858 98.1247C614.063 97.6809 613.255 97.0794 613.255 95.9157C613.255 94.614 614.635 93.6673 616.489 93.6673C618.521 93.6673 619.359 94.7915 619.763 95.8368L621.854 95.2451Z" fill="black"/>
<path d="M102.718 129.853H99.4829V126.224H97.1556V129.853H94.8677V131.825H97.1556V141.292C97.1556 143.935 99.2857 145.197 101.258 145.197C102.126 145.197 102.678 145.04 102.994 144.921L102.52 142.831C102.323 142.87 102.008 142.949 101.495 142.949C100.469 142.949 99.4829 142.633 99.4829 140.661V131.825H102.718V129.853Z" fill="black"/>
<path d="M112.407 145.316C115.483 145.316 117.732 143.777 118.442 141.489L116.193 140.858C115.602 142.436 114.231 143.225 112.407 143.225C109.675 143.225 107.791 141.46 107.683 138.215H118.678V137.229C118.678 131.588 115.326 129.656 112.17 129.656C108.067 129.656 105.346 132.89 105.346 137.545C105.346 142.199 108.028 145.316 112.407 145.316ZM107.683 136.204C107.841 133.847 109.507 131.746 112.17 131.746C114.694 131.746 116.312 133.64 116.312 136.204H107.683Z" fill="black"/>
<path d="M126.676 145.355C129.319 145.355 130.7 143.935 131.173 142.949H131.291V145H133.619V135.02C133.619 130.208 129.95 129.656 128.017 129.656C125.729 129.656 123.126 130.444 121.943 133.206L124.152 133.995C124.664 132.89 125.877 131.707 128.096 131.707C130.236 131.707 131.291 132.841 131.291 134.784V134.862C131.291 135.987 130.147 135.888 127.386 136.243C124.576 136.608 121.509 137.229 121.509 140.7C121.509 143.659 123.797 145.355 126.676 145.355ZM127.031 143.264C125.177 143.264 123.836 142.436 123.836 140.819C123.836 139.044 125.453 138.491 127.268 138.255C128.254 138.136 130.897 137.86 131.291 137.387V139.517C131.291 141.41 129.792 143.264 127.031 143.264Z" fill="black"/>
<path d="M137.867 145H140.194V135.533C140.194 133.314 141.811 131.746 143.626 131.746C145.391 131.746 146.624 132.9 146.624 134.626V145H148.99V135.139C148.99 133.186 150.213 131.746 152.343 131.746C154 131.746 155.42 132.624 155.42 134.862V145H157.747V134.862C157.747 131.302 155.834 129.656 153.132 129.656C150.963 129.656 149.375 130.652 148.596 132.22H148.438C147.689 130.602 146.367 129.656 144.375 129.656C142.403 129.656 140.943 130.602 140.312 132.22H140.115V129.853H137.867V145Z" fill="black"/>
<path d="M178.491 135.257H169.655V137.426H178.491V135.257Z" fill="black"/>
<path d="M193.158 124.804H190.712V145H193.158V124.804Z" fill="black"/>
<path d="M204.333 129.853H201.099V126.224H198.771V129.853H196.484V131.825H198.771V141.292C198.771 143.935 200.902 145.197 202.874 145.197C203.742 145.197 204.294 145.04 204.609 144.921L204.136 142.831C203.939 142.87 203.623 142.949 203.111 142.949C202.085 142.949 201.099 142.633 201.099 140.661V131.825H204.333V129.853Z" fill="black"/>
<path d="M219.076 145H221.364L224.678 133.363H224.914L228.228 145H230.516L235.131 129.853H232.685L229.411 141.41H229.253L226.058 129.853H223.573L220.339 141.45H220.181L216.907 129.853H214.461L219.076 145Z" fill="black"/>
<path d="M242.665 145.355C245.308 145.355 246.689 143.935 247.162 142.949H247.28V145H249.608V135.02C249.608 130.208 245.939 129.656 244.006 129.656C241.718 129.656 239.115 130.444 237.932 133.206L240.141 133.995C240.653 132.89 241.866 131.707 244.085 131.707C246.225 131.707 247.28 132.841 247.28 134.784V134.862C247.28 135.987 246.136 135.888 243.375 136.243C240.565 136.608 237.498 137.229 237.498 140.7C237.498 143.659 239.786 145.355 242.665 145.355ZM243.02 143.264C241.166 143.264 239.825 142.436 239.825 140.819C239.825 139.044 241.442 138.491 243.257 138.255C244.243 138.136 246.886 137.86 247.28 137.387V139.517C247.28 141.41 245.781 143.264 243.02 143.264Z" fill="black"/>
<path d="M264.585 133.245C263.855 131.095 262.218 129.656 259.22 129.656C256.025 129.656 253.658 131.47 253.658 134.034C253.658 136.125 254.901 137.525 257.682 138.176L260.206 138.768C261.735 139.123 262.455 139.852 262.455 140.898C262.455 142.199 261.074 143.264 258.905 143.264C257.001 143.264 255.808 142.446 255.394 140.819L253.185 141.371C253.727 143.945 255.848 145.316 258.944 145.316C262.465 145.316 264.861 143.393 264.861 140.779C264.861 138.669 263.54 137.338 260.838 136.677L258.589 136.125C256.794 135.681 255.986 135.079 255.986 133.916C255.986 132.614 257.366 131.667 259.22 131.667C261.252 131.667 262.09 132.791 262.494 133.837L264.585 133.245Z" fill="black"/>
<path d="M282.328 145.316C286.431 145.316 289.192 142.199 289.192 137.505C289.192 132.772 286.431 129.656 282.328 129.656C278.226 129.656 275.465 132.772 275.465 137.505C275.465 142.199 278.226 145.316 282.328 145.316ZM282.328 143.225C279.212 143.225 277.792 140.543 277.792 137.505C277.792 134.468 279.212 131.746 282.328 131.746C285.445 131.746 286.865 134.468 286.865 137.505C286.865 140.543 285.445 143.225 282.328 143.225Z" fill="black"/>
<path d="M295.072 135.888C295.072 133.245 296.709 131.746 298.938 131.746C301.097 131.746 302.409 133.156 302.409 135.533V145H304.736V135.375C304.736 131.509 302.675 129.656 299.608 129.656C297.32 129.656 295.9 130.681 295.19 132.22H294.993V129.853H292.745V145H295.072V135.888Z" fill="black"/>
<path d="M315.34 145.316C318.417 145.316 320.665 143.777 321.375 141.489L319.127 140.858C318.535 142.436 317.164 143.225 315.34 143.225C312.608 143.225 310.725 141.46 310.616 138.215H321.612V137.229C321.612 131.588 318.259 129.656 315.103 129.656C311.001 129.656 308.279 132.89 308.279 137.545C308.279 142.199 310.961 145.316 315.34 145.316ZM310.616 136.204C310.774 133.847 312.441 131.746 315.103 131.746C317.628 131.746 319.245 133.64 319.245 136.204H310.616Z" fill="black"/>
<path d="M339.116 145.316C343.218 145.316 345.98 142.199 345.98 137.505C345.98 132.772 343.218 129.656 339.116 129.656C335.014 129.656 332.252 132.772 332.252 137.505C332.252 142.199 335.014 145.316 339.116 145.316ZM339.116 143.225C336 143.225 334.58 140.543 334.58 137.505C334.58 134.468 336 131.746 339.116 131.746C342.232 131.746 343.652 134.468 343.652 137.505C343.652 140.543 342.232 143.225 339.116 143.225Z" fill="black"/>
<path d="M356.278 129.853H352.885V128.314C352.885 126.815 353.516 126.026 355.055 126.026C355.725 126.026 356.12 126.184 356.357 126.263L357.027 124.251C356.672 124.094 355.962 123.857 354.818 123.857C352.649 123.857 350.558 125.159 350.558 127.762V129.853H348.112V131.825H350.558V145H352.885V131.825H356.278V129.853Z" fill="black"/>
<path d="M373.937 129.853H370.703V126.224H368.375V129.853H366.087V131.825H368.375V141.292C368.375 143.935 370.505 145.197 372.478 145.197C373.345 145.197 373.898 145.04 374.213 144.921L373.74 142.831C373.543 142.87 373.227 142.949 372.714 142.949C371.689 142.949 370.703 142.633 370.703 140.661V131.825H373.937V129.853Z" fill="black"/>
<path d="M380.091 135.888C380.091 133.245 381.777 131.746 384.075 131.746C386.264 131.746 387.586 133.127 387.586 135.533V145H389.913V135.375C389.913 131.48 387.842 129.656 384.745 129.656C382.359 129.656 380.998 130.652 380.288 132.22H380.091V124.804H377.763V145H380.091V135.888Z" fill="black"/>
<path d="M400.521 145.316C403.598 145.316 405.847 143.777 406.557 141.489L404.308 140.858C403.717 142.436 402.346 143.225 400.521 143.225C397.79 143.225 395.906 141.46 395.798 138.215H406.793V137.229C406.793 131.588 403.44 129.656 400.285 129.656C396.182 129.656 393.461 132.89 393.461 137.545C393.461 142.199 396.143 145.316 400.521 145.316ZM395.798 136.204C395.956 133.847 397.622 131.746 400.285 131.746C402.809 131.746 404.427 133.64 404.427 136.204H395.798Z" fill="black"/>
<path d="M418.46 145H420.708V142.673H420.984C421.497 143.501 422.483 145.316 425.402 145.316C429.189 145.316 431.832 142.278 431.832 137.466C431.832 132.693 429.189 129.656 425.363 129.656C422.404 129.656 421.497 131.47 420.984 132.259H420.787V124.804H418.46V145ZM420.747 137.426C420.747 134.034 422.246 131.746 425.087 131.746C428.045 131.746 429.505 134.231 429.505 137.426C429.505 140.661 428.006 143.225 425.087 143.225C422.286 143.225 420.747 140.858 420.747 137.426Z" fill="black"/>
<path d="M441.743 145.316C444.82 145.316 447.068 143.777 447.778 141.489L445.53 140.858C444.938 142.436 443.567 143.225 441.743 143.225C439.011 143.225 437.128 141.46 437.019 138.215H448.015V137.229C448.015 131.588 444.662 129.656 441.506 129.656C437.404 129.656 434.682 132.89 434.682 137.545C434.682 142.199 437.364 145.316 441.743 145.316ZM437.019 136.204C437.177 133.847 438.843 131.746 441.506 131.746C444.031 131.746 445.648 133.64 445.648 136.204H437.019Z" fill="black"/>
<path d="M462.284 133.245C461.555 131.095 459.918 129.656 456.92 129.656C453.725 129.656 451.358 131.47 451.358 134.034C451.358 136.125 452.6 137.525 455.381 138.176L457.906 138.768C459.434 139.123 460.154 139.852 460.154 140.898C460.154 142.199 458.774 143.264 456.604 143.264C454.701 143.264 453.508 142.446 453.093 140.819L450.884 141.371C451.427 143.945 453.547 145.316 456.644 145.316C460.164 145.316 462.56 143.393 462.56 140.779C462.56 138.669 461.239 137.338 458.537 136.677L456.289 136.125C454.494 135.681 453.685 135.079 453.685 133.916C453.685 132.614 455.066 131.667 456.92 131.667C458.951 131.667 459.789 132.791 460.194 133.837L462.284 133.245Z" fill="black"/>
<path d="M472.651 129.853H469.417V126.224H467.089V129.853H464.801V131.825H467.089V141.292C467.089 143.935 469.219 145.197 471.192 145.197C472.06 145.197 472.612 145.04 472.927 144.921L472.454 142.831C472.257 142.87 471.941 142.949 471.428 142.949C470.403 142.949 469.417 142.633 469.417 140.661V131.825H472.651V129.853Z" fill="black"/>
<path d="M489.682 145.316C492.601 145.316 493.587 143.501 494.1 142.673H494.376V145H496.625V124.804H494.297V132.259H494.1C493.587 131.47 492.68 129.656 489.722 129.656C485.895 129.656 483.252 132.693 483.252 137.466C483.252 142.278 485.895 145.316 489.682 145.316ZM489.998 143.225C487.079 143.225 485.58 140.661 485.58 137.426C485.58 134.231 487.039 131.746 489.998 131.746C492.838 131.746 494.337 134.034 494.337 137.426C494.337 140.858 492.798 143.225 489.998 143.225Z" fill="black"/>
<path d="M505.668 145.355C508.311 145.355 509.691 143.935 510.165 142.949H510.283V145H512.61V135.02C512.61 130.208 508.942 129.656 507.009 129.656C504.721 129.656 502.118 130.444 500.934 133.206L503.143 133.995C503.656 132.89 504.869 131.707 507.088 131.707C509.228 131.707 510.283 132.841 510.283 134.784V134.862C510.283 135.987 509.139 135.888 506.378 136.243C503.567 136.608 500.5 137.229 500.5 140.7C500.5 143.659 502.788 145.355 505.668 145.355ZM506.023 143.264C504.169 143.264 502.828 142.436 502.828 140.819C502.828 139.044 504.445 138.491 506.259 138.255C507.246 138.136 509.888 137.86 510.283 137.387V139.517C510.283 141.41 508.784 143.264 506.023 143.264Z" fill="black"/>
<path d="M517.815 150.68C519.915 150.68 521.394 149.566 522.272 147.209L528.722 129.892L526.177 129.853L521.996 141.923H521.838L517.657 129.853H515.132L520.734 145.079L520.3 146.262C519.452 148.57 518.406 148.787 516.71 148.353L516.118 150.404C516.355 150.523 517.026 150.68 517.815 150.68Z" fill="black"/>
<path d="M542.53 133.245C541.8 131.095 540.163 129.656 537.166 129.656C533.97 129.656 531.604 131.47 531.604 134.034C531.604 136.125 532.846 137.525 535.627 138.176L538.152 138.768C539.68 139.123 540.4 139.852 540.4 140.898C540.4 142.199 539.019 143.264 536.85 143.264C534.947 143.264 533.753 142.446 533.339 140.819L531.13 141.371C531.673 143.945 533.793 145.316 536.889 145.316C540.41 145.316 542.806 143.393 542.806 140.779C542.806 138.669 541.485 137.338 538.783 136.677L536.534 136.125C534.74 135.681 533.931 135.079 533.931 133.916C533.931 132.614 535.312 131.667 537.166 131.667C539.197 131.667 540.035 132.791 540.44 133.837L542.53 133.245Z" fill="black"/>
<path d="M560.274 145.316C564.376 145.316 567.137 142.199 567.137 137.505C567.137 132.772 564.376 129.656 560.274 129.656C556.171 129.656 553.41 132.772 553.41 137.505C553.41 142.199 556.171 145.316 560.274 145.316ZM560.274 143.225C557.157 143.225 555.737 140.543 555.737 137.505C555.737 134.468 557.157 131.746 560.274 131.746C563.39 131.746 564.81 134.468 564.81 137.505C564.81 140.543 563.39 143.225 560.274 143.225Z" fill="black"/>
<path d="M577.435 129.853H574.043V128.314C574.043 126.815 574.674 126.026 576.212 126.026C576.883 126.026 577.277 126.184 577.514 126.263L578.185 124.251C577.83 124.094 577.12 123.857 575.976 123.857C573.806 123.857 571.715 125.159 571.715 127.762V129.853H569.27V131.825H571.715V145H574.043V131.825H577.435V129.853Z" fill="black"/>
<path d="M588.507 145H590.835V135.533C590.835 133.314 592.452 131.746 594.266 131.746C596.032 131.746 597.264 132.9 597.264 134.626V145H599.631V135.139C599.631 133.186 600.854 131.746 602.984 131.746C604.641 131.746 606.061 132.624 606.061 134.862V145H608.388V134.862C608.388 131.302 606.475 129.656 603.773 129.656C601.603 129.656 600.016 130.652 599.237 132.22H599.079C598.329 130.602 597.008 129.656 595.016 129.656C593.043 129.656 591.584 130.602 590.953 132.22H590.756V129.853H588.507V145Z" fill="black"/>
<path d="M613.6 150.68C615.7 150.68 617.18 149.566 618.057 147.209L624.507 129.892L621.962 129.853L617.781 141.923H617.623L613.442 129.853H610.918L616.519 145.079L616.085 146.262C615.237 148.57 614.192 148.787 612.495 148.353L611.904 150.404C612.14 150.523 612.811 150.68 613.6 150.68Z" fill="black"/>
<path d="M637.724 124.804H635.396V145H637.724V124.804Z" fill="black"/>
<path d="M641.986 145H644.314V129.853H641.986V145ZM643.17 127.328C644.077 127.328 644.826 126.618 644.826 125.75C644.826 124.883 644.077 124.173 643.17 124.173C642.262 124.173 641.513 124.883 641.513 125.75C641.513 126.618 642.262 127.328 643.17 127.328Z" fill="black"/>
<path d="M655.322 129.853H651.929V128.314C651.929 126.815 652.56 126.026 654.099 126.026C654.769 126.026 655.164 126.184 655.401 126.263L656.071 124.251C655.716 124.094 655.006 123.857 653.862 123.857C651.693 123.857 649.602 125.159 649.602 127.762V129.853H647.156V131.825H649.602V145H651.929V131.825H655.322V129.853Z" fill="black"/>
<path d="M664.31 145.316C667.387 145.316 669.636 143.777 670.346 141.489L668.097 140.858C667.506 142.436 666.135 143.225 664.31 143.225C661.579 143.225 659.695 141.46 659.587 138.215H670.582V137.229C670.582 131.588 667.229 129.656 664.074 129.656C659.971 129.656 657.25 132.89 657.25 137.545C657.25 142.199 659.932 145.316 664.31 145.316ZM659.587 136.204C659.745 133.847 661.411 131.746 664.074 131.746C666.598 131.746 668.216 133.64 668.216 136.204H659.587Z" fill="black"/>
<path d="M675.819 145.158C676.795 145.158 677.594 144.359 677.594 143.383C677.594 142.407 676.795 141.608 675.819 141.608C674.843 141.608 674.044 142.407 674.044 143.383C674.044 144.359 674.843 145.158 675.819 145.158Z" fill="black"/>
</svg>
