<svg width="651" height="77" viewBox="0 0 651 77" fill="none" xmlns="http://www.w3.org/2000/svg">
<path d="M12.2662 12.3245H0.253418V1.87857H35.7695V12.3245H23.7567V74.9999H12.2662V12.3245Z" fill="black"/>
<path d="M41.3327 1.87857H52.8232V31.6494H65.1494V1.87857H76.6399V74.9999H65.1494V42.0953H52.8232V74.9999H41.3327V1.87857Z" fill="black"/>
<path d="M85.1974 1.87857H116.535V12.3245H96.6879V31.6494H112.461V42.0953H96.6879V64.554H116.535V74.9999H85.1974V1.87857Z" fill="black"/>
<path d="M139.875 1.87857H151.366V74.9999H139.875V1.87857Z" fill="black"/>
<path d="M174.909 76.0445C169.338 76.0445 165.125 74.4776 162.269 71.3438C159.414 68.1404 157.987 63.579 157.987 57.6597V53.4813H168.85V58.4954C168.85 63.2309 170.835 65.5986 174.804 65.5986C176.754 65.5986 178.217 65.0415 179.192 63.9272C180.236 62.7434 180.759 60.8631 180.759 58.2865C180.759 55.2223 180.062 52.5412 178.669 50.2431C177.277 47.8754 174.7 45.055 170.939 41.7819C166.204 37.6036 162.896 33.843 161.016 30.5003C159.136 27.088 158.195 23.2579 158.195 19.0099C158.195 13.2298 159.658 8.77287 162.583 5.6391C165.508 2.43569 169.756 0.833984 175.327 0.833984C180.828 0.833984 184.972 2.43569 187.757 5.6391C190.613 8.77287 192.04 13.2994 192.04 19.2188V22.2481H181.176V18.4876C181.176 15.9805 180.689 14.1699 179.714 13.0557C178.739 11.8718 177.311 11.2799 175.431 11.2799C171.601 11.2799 169.686 13.6128 169.686 18.2786C169.686 20.9249 170.382 23.3971 171.775 25.6952C173.238 27.9933 175.849 30.7789 179.61 34.052C184.415 38.2303 187.723 42.0257 189.533 45.438C191.344 48.8503 192.249 52.8546 192.249 57.4508C192.249 63.4398 190.752 68.036 187.757 71.2394C184.833 74.4428 180.55 76.0445 174.909 76.0445Z" fill="black"/>
<path d="M213.775 76.0445C208.204 76.0445 203.991 74.4776 201.135 71.3438C198.28 68.1404 196.853 63.579 196.853 57.6597V53.4813H207.716V58.4954C207.716 63.2309 209.701 65.5986 213.671 65.5986C215.62 65.5986 217.083 65.0415 218.058 63.9272C219.102 62.7434 219.625 60.8631 219.625 58.2865C219.625 55.2223 218.928 52.5412 217.536 50.2431C216.143 47.8754 213.566 45.055 209.806 41.7819C205.07 37.6036 201.762 33.843 199.882 30.5003C198.002 27.088 197.062 23.2579 197.062 19.0099C197.062 13.2298 198.524 8.77287 201.449 5.6391C204.374 2.43569 208.622 0.833984 214.193 0.833984C219.694 0.833984 223.838 2.43569 226.623 5.6391C229.479 8.77287 230.906 13.2994 230.906 19.2188V22.2481H220.043V18.4876C220.043 15.9805 219.555 14.1699 218.58 13.0557C217.605 11.8718 216.178 11.2799 214.297 11.2799C210.467 11.2799 208.552 13.6128 208.552 18.2786C208.552 20.9249 209.248 23.3971 210.641 25.6952C212.104 27.9933 214.715 30.7789 218.476 34.052C223.281 38.2303 226.589 42.0257 228.399 45.438C230.21 48.8503 231.115 52.8546 231.115 57.4508C231.115 63.4398 229.618 68.036 226.623 71.2394C223.699 74.4428 219.416 76.0445 213.775 76.0445Z" fill="black"/>
<path d="M254.417 76.0445C248.846 76.0445 244.598 74.4776 241.673 71.3438C238.748 68.1404 237.286 63.579 237.286 57.6597V1.87857H248.776V58.4954C248.776 61.0024 249.264 62.813 250.239 63.9272C251.283 65.0415 252.746 65.5986 254.626 65.5986C256.506 65.5986 257.934 65.0415 258.909 63.9272C259.953 62.813 260.476 61.0024 260.476 58.4954V1.87857H271.548V57.6597C271.548 63.579 270.086 68.1404 267.161 71.3438C264.236 74.4776 259.988 76.0445 254.417 76.0445Z" fill="black"/>
<path d="M279.732 1.87857H311.07V12.3245H291.222V31.6494H306.996V42.0953H291.222V64.554H311.07V74.9999H279.732V1.87857Z" fill="black"/>
<path d="M332.822 76.0445C327.25 76.0445 323.037 74.4776 320.182 71.3438C317.327 68.1404 315.899 63.579 315.899 57.6597V53.4813H326.763V58.4954C326.763 63.2309 328.748 65.5986 332.717 65.5986C334.667 65.5986 336.129 65.0415 337.104 63.9272C338.149 62.7434 338.671 60.8631 338.671 58.2865C338.671 55.2223 337.975 52.5412 336.582 50.2431C335.189 47.8754 332.613 45.055 328.852 41.7819C324.117 37.6036 320.809 33.843 318.929 30.5003C317.048 27.088 316.108 23.2579 316.108 19.0099C316.108 13.2298 317.571 8.77287 320.495 5.6391C323.42 2.43569 327.668 0.833984 333.239 0.833984C338.741 0.833984 342.884 2.43569 345.67 5.6391C348.525 8.77287 349.953 13.2994 349.953 19.2188V22.2481H339.089V18.4876C339.089 15.9805 338.602 14.1699 337.627 13.0557C336.652 11.8718 335.224 11.2799 333.344 11.2799C329.514 11.2799 327.599 13.6128 327.599 18.2786C327.599 20.9249 328.295 23.3971 329.688 25.6952C331.15 27.9933 333.762 30.7789 337.522 34.052C342.327 38.2303 345.635 42.0257 347.446 45.438C349.256 48.8503 350.162 52.8546 350.162 57.4508C350.162 63.4398 348.665 68.036 345.67 71.2394C342.745 74.4428 338.462 76.0445 332.822 76.0445Z" fill="black"/>
<line x1="452" y1="44.0898" x2="651" y2="44.0898" stroke="black" stroke-width="2"/>
</svg>
