<svg width="282" height="32" viewBox="0 0 282 32" fill="none" xmlns="http://www.w3.org/2000/svg">
<path d="M160.591 7.94824L152.527 0.332031L148.055 0.332031L147.315 4.61361L142.781 0.332031L136.879 0.332031L135.546 4.06752L131.605 0.332031L127.133 0.332031L126.848 1.98482L125.096 0.332031L121.082 0.332031L120.541 3.45752L117.224 0.332031L111.737 0.332031L111.551 1.40388L110.417 0.332031L98.7599 0.332031L97.6652 6.65564L90.9708 0.332031L86.5024 0.332031L85.4077 6.65564L78.7133 0.332031L74.2416 0.332031L73.9563 1.98482L72.2047 0.332031L67.7363 0.332031L67.451 1.98482L65.6995 0.332031L59.4696 0.332031L58.2521 4.00071L54.3675 0.332031L48.1376 0.332031L47.2087 5.70288L41.5229 0.332031L29.8559 0.332031L29.5673 1.98773L27.8157 0.332031L23.3572 0.332031L22.7734 3.70733L19.2006 0.332031L14.7322 0.332031L14.5962 1.09598L13.7901 0.332031L0.620338 0.332031L0 3.91357L3.73862 7.44282L0.912262 23.7907L8.97666 31.4098H13.4484L14.1915 27.1108L18.7428 31.4098H23.2212L23.7918 28.0316L27.3679 31.4098H31.8462L32.1315 29.7512L33.8864 31.4098H45.5435L46.1605 27.8253L39.9704 21.9897L40.1462 20.9731H44.5682L44.0838 23.7907L52.1482 31.4098H56.0859L56.484 29.1237L58.9023 31.4098H62.6509L63.3442 29.4026L65.4673 31.4098H69.7101L69.9954 29.7541L71.7469 31.4098H76.2154L76.5007 29.7541L78.2522 31.4098L89.5676 31.4098L89.7003 30.6429L90.5097 31.4098H101.842L101.974 30.6429L102.784 31.4098H114.441L114.627 30.335L115.761 31.4098H119.755L120.419 27.5145L124.542 31.4098H129.09L129.375 29.7541L131.127 31.4098H135.599L135.725 30.6662L136.511 31.4098H140.684L142.137 27.1369L146.659 31.4098H151.137V30.5384L152.063 31.4098H163.381L164.002 27.8253L158.117 22.2657L160.591 7.94824ZM41.5693 12.7527L41.7783 11.5298L46.2036 11.5298L45.371 16.3429L41.5693 12.7527Z" fill="black"/>
<path d="M281.001 12.5194C281.001 12.4845 281.001 12.4497 281.001 12.4148C281.001 12.2318 281.001 12.0546 280.985 11.8833V11.8106C280.985 11.6393 280.948 11.4708 280.918 11.311C280.918 11.311 280.918 11.2907 280.918 11.282C280.895 11.1745 280.872 11.067 280.845 10.9625C280.845 10.916 280.816 10.8695 280.802 10.823C280.789 10.7766 280.782 10.7562 280.769 10.7243C280.727 10.5924 280.677 10.4625 280.62 10.335V10.3089C280.593 10.2508 280.56 10.1985 280.53 10.1433C280.5 10.0881 280.457 9.99228 280.411 9.91967L280.381 9.879C280.358 9.84124 280.331 9.80348 280.305 9.76862C280.278 9.73376 280.228 9.65243 280.185 9.60014C280.142 9.54786 280.102 9.49848 280.059 9.4491L279.946 9.33C279.917 9.30096 279.887 9.269 279.854 9.23996L279.266 8.7142L273.478 3.23878L272.847 2.64331L271.766 1.62375C271.738 1.59806 271.708 1.57381 271.676 1.55113C271.623 1.50171 271.567 1.45514 271.507 1.4117C271.434 1.35361 271.361 1.29842 271.282 1.24613L271.089 1.12413C271.006 1.07475 270.92 1.03118 270.83 0.984705C270.741 0.938229 270.691 0.914991 270.615 0.883039C270.539 0.851087 270.422 0.804611 270.323 0.76685L270.091 0.685517C269.985 0.65066 269.872 0.621613 269.759 0.592566C269.646 0.563518 269.596 0.548995 269.51 0.531566C269.424 0.514138 269.261 0.482186 269.132 0.461853C269.003 0.441519 268.966 0.429901 268.88 0.418282C268.734 0.400853 268.578 0.38633 268.425 0.374711L268.196 0.351473C267.961 0.336949 267.715 0.33114 267.463 0.33114L261.18 0.33114L260.517 4.08696L257.906 1.62375C257.878 1.59806 257.848 1.57381 257.817 1.55113C257.763 1.50171 257.707 1.45514 257.647 1.4117C257.574 1.35361 257.501 1.29842 257.422 1.24613L257.229 1.12413C257.146 1.07475 257.06 1.03118 256.971 0.984705C256.881 0.938229 256.831 0.914991 256.755 0.883039C256.679 0.851087 256.563 0.804611 256.463 0.76685L256.231 0.685517C256.121 0.65066 256.012 0.621613 255.899 0.592566C255.786 0.563518 255.737 0.548995 255.65 0.531566C255.564 0.514138 255.402 0.482186 255.272 0.461853C255.143 0.441519 255.106 0.429901 255.02 0.418282C254.874 0.400853 254.718 0.38633 254.562 0.374711L254.337 0.351473C254.101 0.336949 253.856 0.33114 253.604 0.33114L247.334 0.33114L246.591 4.61272L242.056 0.33114L236.158 0.33114L232.841 9.62629C232.839 9.61761 232.839 9.60882 232.841 9.60014L232.811 9.55948C232.748 9.46072 232.678 9.36196 232.605 9.269L232.539 9.18767C232.482 9.12086 232.426 9.05696 232.363 8.99596L232.27 8.90301L224.172 1.26356L224.126 1.2258C224.079 1.18223 224.026 1.14156 223.977 1.10089C223.927 1.06023 223.824 0.97599 223.741 0.920801C223.658 0.865611 223.622 0.845277 223.562 0.807516C223.502 0.769754 223.393 0.70585 223.303 0.659374L223.101 0.560614C223.008 0.517043 222.912 0.476376 222.816 0.438615C222.719 0.400853 222.67 0.383425 222.593 0.360187C222.517 0.336949 222.381 0.293378 222.262 0.264331C222.142 0.235283 222.106 0.22076 222.026 0.203331C221.946 0.185903 221.784 0.153951 221.661 0.130713L221.432 0.0900467C221.29 0.0697136 221.144 0.0580947 220.994 0.043571L220.779 0.0232379C220.553 0.0232379 220.321 0 220.079 0C219.837 0 219.551 0 219.299 0.0261426C219.213 0.0261426 219.133 0.043571 219.05 0.0522852C218.885 0.0668089 218.719 0.0842373 218.556 0.107475L218.281 0.156856C218.138 0.182998 217.996 0.206236 217.856 0.238188L217.574 0.313711C217.445 0.348568 217.315 0.383425 217.193 0.424091L217.103 0.447329C217.043 0.467662 216.99 0.493805 216.934 0.517043C216.801 0.563518 216.669 0.615803 216.543 0.670993L216.426 0.717469C216.363 0.746517 216.304 0.781373 216.244 0.810421L216.032 0.917896L215.935 0.967276C215.839 1.02247 215.746 1.08347 215.654 1.14446L215.557 1.20256L215.534 1.21708C215.411 1.29842 215.292 1.38556 215.176 1.4756L215.083 1.55113C215 1.62084 214.917 1.69055 214.837 1.76317L214.814 1.78641L213.272 0.334044L209.361 0.334044L208.611 3.03835L205.745 0.334044L200.925 0.334044L200.162 3.02673L197.309 0.334044L192.996 0.334044V0.624518L192.694 0.334044L181.011 0.334044L180.722 1.98684L178.971 0.33114L174.957 0.33114L174.419 3.45663L171.102 0.33114L165.612 0.33114L161.555 23.7898L169.619 31.4089H173.633L174.296 27.5136L178.42 31.4089H182.968L183.253 29.7532L185.005 31.4089H196.665L197.093 28.9428L199.704 31.4089H205.503L206.292 28.7569L209.098 31.406H214.559L215.866 26.8775L217.445 28.3676L218.271 29.149L219.12 29.9478L219.654 30.4532C219.671 30.4707 219.694 30.4852 219.711 30.5026L219.87 30.6333C219.946 30.6943 220.022 30.7524 220.102 30.8076L220.288 30.9267C220.371 30.9761 220.457 31.0255 220.547 31.0719L220.752 31.1736C220.845 31.2172 220.945 31.2549 221.044 31.2927C221.144 31.3305 221.19 31.3508 221.266 31.374C221.343 31.3973 221.482 31.4408 221.598 31.4699L221.837 31.5338C221.956 31.5599 222.082 31.5832 222.205 31.6035L222.451 31.6442C222.593 31.6645 222.743 31.679 222.892 31.6935L223.114 31.7139C223.343 31.7139 223.579 31.7371 223.824 31.7371C224.07 31.7371 224.358 31.7371 224.614 31.7081L224.866 31.6848C225.035 31.6674 225.197 31.6529 225.367 31.6296C225.463 31.6151 225.556 31.5948 225.649 31.5774C225.795 31.5512 225.937 31.528 226.077 31.496C226.216 31.4641 226.269 31.4437 226.362 31.4205C226.455 31.3973 226.624 31.3508 226.75 31.3072L226.839 31.284C226.896 31.2636 226.952 31.2375 227.009 31.2143C227.146 31.1659 227.278 31.1136 227.407 31.0574L227.526 31.0109C227.586 30.9819 227.646 30.947 227.709 30.918L227.924 30.8047L228.02 30.7553C228.117 30.7001 228.21 30.642 228.302 30.5839L228.402 30.52L228.432 30.5026C228.555 30.4184 228.677 30.3312 228.797 30.2383L228.883 30.1686C228.966 30.0988 229.049 30.0291 229.128 29.9565L229.268 29.8229L229.381 29.7096C229.404 29.6864 229.43 29.666 229.454 29.6399C229.54 29.5499 229.619 29.454 229.699 29.3494L229.759 29.2797C229.872 29.1374 229.981 28.9892 230.09 28.8382V28.8237C230.213 28.6433 230.324 28.4571 230.422 28.266C230.512 28.1004 230.595 27.9232 230.674 27.746C230.698 27.6937 230.717 27.6356 230.741 27.5833C230.764 27.5311 230.804 27.4381 230.834 27.3626C230.863 27.2871 230.857 27.2784 230.87 27.2406C230.912 27.1225 230.952 27.0034 230.989 26.8833L235.783 31.4089L239.976 31.4089L241.429 27.136L245.954 31.4089H250.429V30.5375L251.351 31.4089H255.823L257.15 23.7956L265.208 31.4089H269.679L271.311 21.9656H273.126C273.401 21.9656 273.673 21.9656 273.935 21.9395C274.022 21.9395 274.105 21.922 274.188 21.9133C274.363 21.9133 274.519 21.8814 274.702 21.8581L274.987 21.8087C275.136 21.7855 275.282 21.7565 275.425 21.7245C275.568 21.6925 275.614 21.678 275.71 21.6548C275.806 21.6315 275.976 21.5822 276.105 21.5415C276.145 21.5415 276.188 21.5183 276.224 21.5066C276.261 21.495 276.324 21.466 276.374 21.4486C276.503 21.3992 276.629 21.3498 276.752 21.2975C276.798 21.2772 276.848 21.2626 276.894 21.2394L277.034 21.1697L277.236 21.0651L277.366 20.9983C277.442 20.9577 277.508 20.9112 277.581 20.8676L277.701 20.7921L277.75 20.7601C277.865 20.6807 277.976 20.5994 278.082 20.5161L278.145 20.4668C278.228 20.397 278.311 20.3273 278.391 20.2547C278.47 20.1821 278.477 20.1705 278.52 20.1298L278.626 20.0252L278.696 19.9584C278.782 19.8655 278.865 19.7696 278.945 19.6679L278.988 19.6186C279.097 19.482 279.2 19.3281 279.3 19.1974C279.301 19.1897 279.301 19.1818 279.3 19.1741C279.389 19.0405 279.472 18.9011 279.555 18.7559C279.575 18.7181 279.601 18.6832 279.625 18.6426L279.651 18.5903C279.731 18.4392 279.804 18.2824 279.877 18.1226C279.9 18.0674 279.923 18.0123 279.943 17.9542C279.963 17.8961 280 17.8263 280.026 17.7595C280.053 17.6927 280.053 17.6724 280.066 17.6317C280.126 17.4691 280.179 17.2977 280.228 17.1234C280.252 17.0479 280.275 16.9724 280.295 16.891C280.361 16.6383 280.421 16.3769 280.467 16.1067L280.862 13.8207C280.899 13.6029 280.928 13.3937 280.948 13.1875V13.0945C280.978 12.8941 280.998 12.7053 281.001 12.5194ZM218.792 17.3732V17.4545C218.792 17.5678 218.792 17.684 218.792 17.8002C218.792 17.8409 218.792 17.8786 218.792 17.9193C218.792 18.0616 218.762 18.2098 218.735 18.355C218.709 18.5002 218.686 18.6048 218.656 18.721C218.656 18.7501 218.656 18.7791 218.632 18.8081C218.606 18.9063 218.574 19.0032 218.536 19.0986C218.538 19.1063 218.538 19.1142 218.536 19.1219C218.493 19.2322 218.447 19.3339 218.397 19.4298L218.357 19.5053C218.337 19.543 218.317 19.575 218.294 19.6099C218.275 19.6418 218.254 19.6729 218.231 19.7028L218.019 19.4995L218.772 16.8852V16.952C218.775 17.106 218.785 17.2367 218.792 17.3732ZM191.119 21.9888L191.294 20.9722H191.812L191.722 22.5582L191.119 21.9888ZM229.128 19.2874L229.046 19.2003L229.026 19.18L228.999 19.1538C228.863 19.0144 228.717 18.8633 228.568 18.7297L226.713 16.9869L226.561 16.8271C226.551 16.8124 226.538 16.7987 226.524 16.7865L226.501 16.7603C226.398 16.6441 226.305 16.5308 226.216 16.4205L226.186 16.3856L226.08 16.2491L226.007 16.1532L225.967 16.098L225.871 15.9557L225.785 15.8308C225.732 15.7437 225.678 15.6594 225.635 15.5752C225.592 15.4909 225.556 15.4183 225.519 15.337C225.483 15.2557 225.486 15.2528 225.466 15.2092C225.446 15.1656 225.43 15.1162 225.413 15.0669C225.396 15.0175 225.387 14.9797 225.37 14.9361L225.33 14.7996C225.304 14.6892 225.277 14.5789 225.26 14.4656C225.26 14.4481 225.26 14.4336 225.26 14.4162C225.26 14.3174 225.237 14.2216 225.231 14.1257C225.231 14.088 225.231 14.0531 225.231 14.0153C225.231 13.9311 225.231 13.8469 225.231 13.7626C225.231 13.7249 225.231 13.69 225.231 13.6552C225.231 13.5361 225.254 13.417 225.274 13.2979C225.294 13.1788 225.317 13.0771 225.343 12.9725C225.343 12.9464 225.343 12.9203 225.367 12.8912C225.39 12.8012 225.416 12.714 225.446 12.6327C225.448 12.6211 225.448 12.6094 225.446 12.5978C225.484 12.4988 225.528 12.4018 225.579 12.3074C225.589 12.2843 225.601 12.2619 225.615 12.2405C225.635 12.2028 225.659 12.165 225.682 12.1273C225.705 12.0895 225.715 12.075 225.735 12.0488C225.748 12.0279 225.762 12.0075 225.778 11.9878C225.801 11.9559 225.828 11.9268 225.854 11.8949C225.863 11.8857 225.871 11.876 225.877 11.8658L228.863 14.695H230.986L229.294 19.4617C229.228 19.4036 229.185 19.3455 229.128 19.2874Z" fill="black"/>
<path d="M13.4356 0.601563L12.9115 3.64282L8.55919 3.64282L5.12245 23.5228H1.26773L4.70447 3.64282H0.355469L0.879604 0.601562L13.4356 0.601563Z" fill="#FFC451"/>
<path d="M27.468 0.601563L23.5071 23.5228H19.6524L21.457 13.0861H16.6834L14.8821 23.5228H11.0273L14.9882 0.601563H18.8429L17.2108 10.0419H21.9844L23.6132 0.601563L27.468 0.601563Z" fill="#FFC451"/>
<path d="M41.1683 0.601563L40.6408 3.64282L33.4522 3.64282L32.3475 10.0419H38.0599L37.5358 13.0861H31.8201L30.5429 20.4787H37.7315L37.2074 23.5228H26.1641L30.1249 0.601563L41.1683 0.601563Z" fill="#FFC451"/>
<path d="M65.3432 0.601563L61.3824 23.5228H57.7565L60.7919 5.9637H60.4303L54.3662 23.5228H51.1518L51.1617 6.07698V5.9637H50.7968L47.7615 23.5228H44.4375L48.4017 0.601563L54.0544 0.601563L53.8355 17.0801L53.8322 17.1963H54.1771L59.6905 0.601563L65.3432 0.601563Z" fill="#FFC451"/>
<path d="M71.8507 0.601563L67.8899 23.5228H64.0352L67.9993 0.601563H71.8507Z" fill="#FFC451"/>
<path d="M78.358 0.601563L74.9212 20.4787H81.7715L81.244 23.5228H70.5391L74.5033 0.601563H78.358Z" fill="#FFC451"/>
<path d="M90.6164 0.601563L87.1796 20.4787H94.0299L93.5024 23.5228H82.8008L86.7617 0.601563H90.6164Z" fill="#FFC451"/>
<path d="M100.711 13.0852H106.426L106.951 10.041H101.238L102.346 3.65063L109.535 3.65063L110.059 0.609375L99.0156 0.609375L95.0547 23.5277H106.098L106.622 20.4836H99.4336L100.711 13.0852Z" fill="#FFC451"/>
<path d="M124.741 0.601563L120.78 23.5228H116.776L114.71 6.59403H114.361L111.435 23.5228H108.035L111.996 0.601563L116.945 0.601563L118.594 14.4804H118.943L121.344 0.601563L124.741 0.601563Z" fill="#FFC451"/>
<path d="M131.249 0.601563L127.288 23.5228H123.43L127.394 0.601563H131.249Z" fill="#FFC451"/>
<path d="M142.468 0.601563L142.77 23.5286H138.922L138.958 19.0379H138.806V18.9769H133.953L132.41 23.5286H128.867L137.091 0.601563L142.468 0.601563ZM134.901 16.1041H138.992L139.121 4.37191H138.789L134.901 16.1041Z" fill="#FFC451"/>
<path d="M152.174 0.601563L148.738 20.4787H155.585L155.057 23.5228H144.355L148.32 0.601563H152.174Z" fill="#FFC451"/>
<path d="M178.616 0.601563L174.651 23.5228H170.651L168.581 6.59403H168.232L165.306 23.5228H161.906L165.87 0.601563L170.817 0.601563L172.469 14.4804H172.817L175.215 0.601563L178.616 0.601563Z" fill="#FFC451"/>
<path d="M192.316 0.601563L191.789 3.64282L184.6 3.64282L183.495 10.0419H189.208L188.68 13.0861H182.968L181.691 20.4787H188.879L188.352 23.5228H177.309L181.269 0.601563L192.316 0.601563Z" fill="#FFC451"/>
<path d="M212.882 0.601563L206.264 23.5228H201.358L202.161 8.00573L202.171 7.88373H201.819L197.221 23.5228H191.977L193.284 0.601562L196.982 0.601563L195.765 18.3001L195.755 18.425H196.113L201.159 0.601563H205.422L204.307 18.425H204.662L209.598 0.601563L212.882 0.601563Z" fill="#FFC451"/>
<path d="M220.032 0.271484C221.966 0.271484 223.365 0.762385 224.182 1.72385C224.998 2.68532 225.263 4.12316 224.945 5.95896L224.802 6.7839H221.176L221.359 5.72658C221.501 4.90163 221.418 4.28873 221.106 3.8995C220.795 3.51026 220.267 3.31855 219.541 3.31855C218.061 3.31855 217.172 4.10864 216.887 5.67139C216.739 6.49464 216.878 7.33765 217.285 8.09103C217.683 8.82593 218.482 9.7293 219.67 10.7721C221.163 12.0792 222.151 13.2818 222.612 14.3449C223.091 15.5478 223.206 16.8389 222.944 18.092C222.612 19.9482 221.849 21.386 220.622 22.3736C219.395 23.3612 217.792 23.855 215.805 23.855C213.818 23.855 212.425 23.3641 211.592 22.4027C210.76 21.4412 210.498 20.0063 210.813 18.1705L211.018 16.9795H214.631L214.379 18.4319C214.107 20.0179 214.744 20.8196 216.276 20.8196C216.61 20.8335 216.943 20.7893 217.257 20.6896C217.571 20.5899 217.859 20.4366 218.104 20.2386C218.559 19.8523 218.867 19.2278 219.013 18.3796C219.192 17.4917 219.077 16.5775 218.681 15.745C218.297 14.9956 217.504 14.0864 216.313 13.0465C214.847 11.7336 213.855 10.5368 213.367 9.4853C212.874 8.3504 212.741 7.11982 212.982 5.9241C213.294 4.13188 214.057 2.72889 215.251 1.75871C216.446 0.788527 218.064 0.271484 220.032 0.271484Z" fill="#FFC451"/>
<path d="M241.749 0.601563L242.051 23.5286H238.203L238.24 19.0379H238.087V18.9769H233.237L231.695 23.5286H228.148L236.375 0.607372L241.749 0.601563ZM234.179 16.1041H238.283L238.412 4.37191H238.08L234.179 16.1041Z" fill="#FFC451"/>
<path d="M257.864 2.01326C258.7 2.9573 258.968 4.36319 258.65 6.19899L258.255 8.48501C257.923 10.3179 257.187 11.7209 256.022 12.6649C254.858 13.609 253.252 14.0795 251.236 14.0795H249.129L247.47 23.5286H243.629L247.59 0.601563L253.561 0.601563C255.578 0.601563 257.024 1.07794 257.864 2.01326ZM254.36 8.71449L254.835 5.96661C254.981 5.12714 254.901 4.54619 254.593 4.186C254.284 3.82582 253.763 3.64282 253.04 3.64282H250.92L249.643 11.0383H251.763C252.402 11.0655 253.028 10.8714 253.505 10.498C253.933 10.1378 254.215 9.55686 254.36 8.71739" fill="#FFC451"/>
<path d="M271.715 2.01326C272.554 2.9573 272.82 4.36319 272.501 6.19899L272.106 8.48501C271.775 10.3179 271.042 11.7209 269.874 12.6649C268.706 13.609 267.104 14.0795 265.087 14.0795H262.967L261.335 23.5286H257.48L261.441 0.601563L267.412 0.601563C269.433 0.601563 270.879 1.07794 271.715 2.01326ZM268.212 8.71449L268.706 5.96661C268.849 5.12714 268.769 4.54619 268.461 4.186C268.152 3.82582 267.631 3.64282 266.908 3.64282H264.789L263.495 11.0383H265.615C266.254 11.0655 266.879 10.8714 267.356 10.498C267.787 10.1378 268.069 9.55686 268.212 8.71739" fill="#FFC451"/>
</svg>
