<svg width="131" height="55" viewBox="0 0 131 55" fill="none" xmlns="http://www.w3.org/2000/svg">
<mask id="mask0" mask-type="alpha" maskUnits="userSpaceOnUse" x="0" y="0" width="131" height="55">
<path opacity="0.95" d="M51.087 53.6849C49.0106 52.8574 47.1066 51.6464 45.473 50.1145C43.8888 48.6236 42.6201 46.8263 41.7431 44.8304C40.847 42.8013 40.3907 40.6035 40.4044 38.3833C40.3992 36.1852 40.8602 34.0112 41.7566 32.0065C42.6342 30.0116 43.9028 28.2151 45.4865 26.7247C47.1227 25.1921 49.0218 23.9709 51.0915 23.1203C55.5779 21.3235 60.5781 21.3235 65.0645 23.1203C67.1371 23.9725 69.0391 25.1952 70.6784 26.7292C72.2613 28.2213 73.5297 30.0183 74.4083 32.0133C75.3038 34.0176 75.7647 36.1906 75.7605 38.3878C75.7694 40.6097 75.3084 42.8081 74.4083 44.8372C73.5299 46.8316 72.2614 48.6279 70.6784 50.119C69.0445 51.6505 67.1405 52.8614 65.0645 53.6894C60.5688 55.4369 55.5871 55.4369 51.0915 53.6894L51.087 53.6849ZM53.663 24.1382C52.571 25.0771 51.7564 26.2995 51.3078 27.6722C50.7699 29.2839 50.4523 30.9617 50.3635 32.6594C50.2433 34.5319 50.1825 36.4391 50.181 38.3811C50.1795 40.323 50.2403 42.2416 50.3635 44.1367C50.4487 45.8478 50.7648 47.5393 51.3033 49.1647C51.7529 50.5369 52.5674 51.7591 53.6585 52.6988C54.9227 53.6688 56.4905 54.1513 58.078 54.0589C59.6636 54.1544 61.231 53.6768 62.4975 52.7124C63.5869 51.7717 64.4005 50.5497 64.8504 49.1783C65.3916 47.5534 65.7094 45.8618 65.7947 44.1503C65.9134 42.2567 65.9742 40.3381 65.9772 38.3946C65.9802 36.4512 65.9194 34.5455 65.7947 32.6775C65.7082 30.9799 65.392 29.3021 64.8549 27.6904C64.4043 26.3187 63.59 25.0967 62.4997 24.1563C61.2354 23.1864 59.6676 22.7039 58.0802 22.7962C56.4953 22.7014 54.9289 23.1789 53.663 24.1427V24.1382ZM115.84 54.0544H108.602L94.1778 21.8486H103.959L112.212 40.5437L120.465 21.8486H130.244L115.84 54.043V54.0544ZM80.2319 54.0385V1.98153H75.3707V0.963699H89.0619V54.0385H80.2319ZM20.4862 54.0385L5.75371 15.1341C5.67331 14.9078 5.52535 14.7121 5.33008 14.5737C5.13481 14.4353 4.90178 14.361 4.66292 14.361H1.15841C0.945337 14.3607 0.736536 14.3009 0.555142 14.1885C0.373748 14.0761 0.226846 13.9153 0.130716 13.724C0.0459939 13.5618 0.00117053 13.3814 1.01636e-06 13.1981C-0.000248995 13.0086 0.0456293 12.822 0.133629 12.6544C0.221628 12.4869 0.349073 12.3436 0.504831 12.237H0.518353L13.8693 3.05378C13.9525 2.99896 14.0438 2.95766 14.1397 2.93136C14.2259 2.90385 14.3154 2.88859 14.4057 2.88602C14.5788 2.88613 14.7486 2.93352 14.897 3.02314C15.0454 3.11277 15.1668 3.24125 15.2483 3.39488C15.3297 3.5485 15.3682 3.7215 15.3595 3.89539C15.3508 4.06928 15.2953 4.23753 15.199 4.38218C15.2643 4.28923 14.5905 5.51562 14.0721 6.48359C13.9849 6.65071 13.9393 6.83662 13.9392 7.02537C13.9395 7.17055 13.967 7.31437 14.0203 7.44928L27.3915 42.6677L30.7721 32.3965L32.8004 26.1965L32.8342 26.099C34.0455 22.3687 34.1396 18.3624 33.1047 14.5787C32.915 13.8871 32.6893 13.2061 32.4286 12.5385C32.3948 12.4501 32.3609 12.3639 32.3249 12.2778C32.125 11.83 31.8208 11.4374 31.4379 11.1331C31.055 10.8289 30.6047 10.6221 30.1254 10.5302C29.6461 10.4383 29.1518 10.4641 28.6845 10.6053C28.2172 10.7466 27.7907 10.9991 27.4411 11.3415C27.3368 11.4496 27.2129 11.5366 27.076 11.5977C27.0144 11.6246 26.9502 11.6451 26.8844 11.6589H26.8529C26.6051 11.7121 26.3468 11.681 26.1184 11.5707C25.89 11.4603 25.7044 11.2769 25.5908 11.0491V11.0219C25.5093 10.8635 25.466 10.688 25.4646 10.5096C25.4644 10.3196 25.5106 10.1324 25.599 9.96441C25.6874 9.79645 25.8153 9.65285 25.9717 9.54616L28.0992 8.08401L29.1494 7.36314L29.3432 7.23166L30.2267 6.62413L38.2521 1.11785C38.4672 0.972285 38.7294 0.914697 38.9853 0.956816C39.2411 0.998936 39.4714 1.13759 39.6291 1.34454C42.3985 4.90772 43.8819 9.3117 43.836 13.8342C43.7901 18.3568 42.2178 22.7294 39.3767 26.235V26.2758L33.5802 34.1873L33.4833 34.321C31.4669 37.4428 29.6483 40.6894 28.0383 44.0415L24.0989 54.034L20.4862 54.0385Z" fill="url(#paint0_linear)"/>
</mask>
<g mask="url(#mask0)">
<circle cx="37.711" cy="39.3103" r="58.2775" transform="rotate(156.078 37.711 39.3103)" fill="#E77329"/>
<circle cx="54.9948" cy="58.9232" r="42.0271" transform="rotate(156.078 54.9948 58.9232)" fill="url(#paint1_linear)"/>
<circle cx="83.4443" cy="-5.80373" r="59.2582" transform="rotate(156.078 83.4443 -5.80373)" fill="#466DB5"/>
<g filter="url(#filter0_b)">
<rect x="201.098" y="100.046" width="195.91" height="228.114" transform="rotate(156.078 201.098 100.046)" fill="white" fill-opacity="0.01"/>
</g>
</g>
<defs>
<filter id="filter0_b" x="-126.517" y="-164.51" width="383.651" height="400.03" filterUnits="userSpaceOnUse" color-interpolation-filters="sRGB">
<feFlood flood-opacity="0" result="BackgroundImageFix"/>
<feGaussianBlur in="BackgroundImage" stdDeviation="28.018"/>
<feComposite in2="SourceAlpha" operator="in" result="effect1_backgroundBlur"/>
<feBlend mode="normal" in="SourceGraphic" in2="effect1_backgroundBlur" result="shape"/>
</filter>
<linearGradient id="paint0_linear" x1="3.99076" y1="28.1531" x2="133.69" y2="28.1531" gradientUnits="userSpaceOnUse">
<stop stop-color="#E77329"/>
<stop offset="1" stop-color="#466DB5"/>
</linearGradient>
<linearGradient id="paint1_linear" x1="54.9948" y1="16.8961" x2="55.0207" y2="104.835" gradientUnits="userSpaceOnUse">
<stop stop-color="#FF984E"/>
<stop offset="1" stop-color="#E15B2B"/>
</linearGradient>
</defs>
</svg>
