<svg xmlns="http://www.w3.org/2000/svg" width="29.4" height="23.887" viewBox="0 0 29.4 23.887">
  <g id="twitter-logo" opacity="0.5">
    <g id="Group_987" data-name="Group 987" transform="translate(0 0)">
      <path id="Path_345" data-name="Path 345" d="M29.4,50.828a12.567,12.567,0,0,1-3.473.952,5.993,5.993,0,0,0,2.651-3.331,12.045,12.045,0,0,1-3.822,1.459,6.027,6.027,0,0,0-10.426,4.121,6.206,6.206,0,0,0,.14,1.374A17.06,17.06,0,0,1,2.047,49.1,6.029,6.029,0,0,0,3.9,57.154a5.952,5.952,0,0,1-2.723-.742v.066A6.055,6.055,0,0,0,6,62.4a6.016,6.016,0,0,1-1.58.2,5.329,5.329,0,0,1-1.141-.1,6.085,6.085,0,0,0,5.632,4.2,12.111,12.111,0,0,1-7.473,2.571A11.289,11.289,0,0,1,0,69.182a16.968,16.968,0,0,0,9.246,2.7C20.337,71.887,26.4,62.7,26.4,54.736c0-.266-.009-.524-.022-.779A12.024,12.024,0,0,0,29.4,50.828Z" transform="translate(0 -48)"/>
    </g>
  </g>
</svg>
