<svg xmlns="http://www.w3.org/2000/svg" width="113.938" height="68.803" viewBox="0 0 113.938 68.803">
  <g id="Group_723" data-name="Group 723" transform="translate(-86.835 -81.332)">
    <text id="BETA" transform="translate(134.993 147.134)" fill="#f47e47" font-size="16" font-family="Lato-Regular, Lato" letter-spacing="0.3em"><tspan x="0" y="0">BETA</tspan></text>
    <g id="Group_713" data-name="Group 713" transform="translate(87.335 81.896)">
      <g id="Group_550" data-name="Group 550" transform="translate(0 0)">
        <g id="Group_31" data-name="Group 31" transform="translate(0 0)">
          <g id="Group_30" data-name="Group 30" transform="translate(0 0)">
            <path id="Union_1" data-name="Union 1" d="M44.19,45.358a15.486,15.486,0,0,1-4.856-3.071,13.941,13.941,0,0,1-3.227-4.544A13.45,13.45,0,0,1,34.949,32.2a13.291,13.291,0,0,1,1.16-5.483,13.951,13.951,0,0,1,3.226-4.542,16,16,0,0,1,4.858-3.1,16.336,16.336,0,0,1,12.093,0,16.04,16.04,0,0,1,4.856,3.1,14,14,0,0,1,3.226,4.543,13.31,13.31,0,0,1,1.16,5.482,13.479,13.479,0,0,1-1.162,5.546,13.981,13.981,0,0,1-3.226,4.542,15.507,15.507,0,0,1-4.856,3.071,16.765,16.765,0,0,1-12.094,0Zm2.228-25.409a6.785,6.785,0,0,0-2.037,3.04,16.137,16.137,0,0,0-.817,4.291q-.157,2.415-.157,4.919t.157,4.95a16.245,16.245,0,0,0,.813,4.323,6.8,6.8,0,0,0,2.037,3.04,5.756,5.756,0,0,0,3.822,1.16,5.762,5.762,0,0,0,3.823-1.159,6.813,6.813,0,0,0,2.035-3.04,16.155,16.155,0,0,0,.817-4.323q.155-2.443.157-4.95t-.157-4.919a16.084,16.084,0,0,0-.814-4.292,6.828,6.828,0,0,0-2.036-3.038,5.758,5.758,0,0,0-3.823-1.16A5.764,5.764,0,0,0,46.418,19.949Zm53.777,25.727H93.939l-12.47-27.7h8.46l7.138,16.077,7.139-16.077h8.458L100.2,45.666v.009Zm-30.8-.014V.9h-4.2V.019H77.036V45.662Zm-51.68,0L4.977,12.206v0a1,1,0,0,0-.943-.664H1A1,1,0,0,1,.114,11,.986.986,0,0,1,0,10.54a1,1,0,0,1,.436-.826L.448,9.7,12,1.817l0,0a.82.82,0,0,1,.234-.1.838.838,0,0,1,.225-.035.826.826,0,0,1,.686,1.286c.056-.08-.526.974-.984,1.807a1,1,0,0,0-.114.465.992.992,0,0,0,.07.365L23.683,35.884l2.925-8.833,1.762-5.331c.009-.028.02-.057.029-.085a17.207,17.207,0,0,0,.235-9.907,17.6,17.6,0,0,0-.587-1.755c-.029-.075-.058-.151-.09-.225a2.623,2.623,0,0,0-4.224-.806l0,0a1.012,1.012,0,0,1-.316.22l-.007,0a.859.859,0,0,1-.166.052.181.181,0,0,1-.026.008A.991.991,0,0,1,22.129,8.7l-.011.009.007-.023a.965.965,0,0,1-.11-.441,1,1,0,0,1,.44-.829l0,0L24.3,6.157l.909-.621.168-.114.764-.522L33.088.153a.881.881,0,0,1,1.191.188,17.157,17.157,0,0,1-.219,21.4l-.007.015-.008.02-5,6.81-.085.116.007,0a76.111,76.111,0,0,0-4.71,8.358l-3.408,8.593Z" transform="translate(0 0)" stroke="rgba(0,0,0,0)" stroke-width="1"/>
          </g>
        </g>
      </g>
    </g>
  </g>
</svg>
