<svg xmlns="http://www.w3.org/2000/svg" width="254.176" height="109.325" viewBox="0 0 254.176 109.325">
  <g id="Group_947" data-name="Group 947" transform="translate(-833.144 -919.988)">
    <g id="Group_806" data-name="Group 806" transform="translate(1018.67 -757.053) rotate(90)">
      <line id="Line_2" data-name="Line 2" x2="34.606" transform="translate(1748.016 58.557)" fill="none" stroke="#fcccb1" stroke-linecap="round" stroke-width="4"/>
      <path id="Path_251" data-name="Path 251" d="M-21436.484-12149.235l12.568,12.567-1.049,1.044-11.52,11.52" transform="translate(23208.281 12195.235)" fill="none" stroke="#fcccb1" stroke-linecap="round" stroke-linejoin="round" stroke-width="4"/>
    </g>
    <path id="Path_266" data-name="Path 266" d="M1.144,0V-.52L2.236-.936A2.368,2.368,0,0,0,3.614-1.95,3.858,3.858,0,0,0,3.9-3.588V-30.732A3.747,3.747,0,0,0,3.588-32.4a2.238,2.238,0,0,0-1.352-.988L1.144-33.8v-.52H14.4v.52l-.936.416a2.422,2.422,0,0,0-1.352,1.014,3.441,3.441,0,0,0-.364,1.69V-1.04H19.76a3.8,3.8,0,0,0,2.834-.936,9.983,9.983,0,0,0,1.742-2.7l2.028-4.368h.52L26.416,0ZM41.132-25.792A11.381,11.381,0,0,1,46.9-24.414,9.4,9.4,0,0,1,50.57-20.67a11.171,11.171,0,0,1,1.274,5.382q0,.572-.052,1.17a4.65,4.65,0,0,1-.208,1.066h-15.5q.052,5.616,2,8.086a6.939,6.939,0,0,0,5.8,2.47A9.193,9.193,0,0,0,48.1-3.328a10.3,10.3,0,0,0,3.016-2.444l.52.468a11.959,11.959,0,0,1-4.29,4.472A12.225,12.225,0,0,1,40.924.78,13.283,13.283,0,0,1,34.372-.806,11.2,11.2,0,0,1,29.9-5.356a14.6,14.6,0,0,1-1.612-7.072,13.4,13.4,0,0,1,1.872-7.254,12.592,12.592,0,0,1,4.81-4.55A12.963,12.963,0,0,1,41.132-25.792Zm-.156,1.04a3.831,3.831,0,0,0-2.574.91,6.222,6.222,0,0,0-1.664,3.224,28.922,28.922,0,0,0-.65,6.526H44.98q.52-5.668-.416-8.164A3.532,3.532,0,0,0,40.976-24.752ZM63.284.78A7.456,7.456,0,0,1,58.11-.884q-1.846-1.664-1.846-5.3V-23.972H52.676v-.52l1.248-.208a9.9,9.9,0,0,0,2.782-1.04,11.312,11.312,0,0,0,2.314-1.82l4.264-4.732h.52l-.156,7.28h5.824v1.04H63.6v18.72A4.118,4.118,0,0,0,64.4-2.5a2.591,2.591,0,0,0,2.054.936,3.427,3.427,0,0,0,1.924-.546,8.532,8.532,0,0,0,1.664-1.482l.52.52A7.668,7.668,0,0,1,67.7-.26,8.777,8.777,0,0,1,63.284.78ZM75.036-20.956,74-24.44q-.416-1.768-.936-3.718t-.884-3.562a12.093,12.093,0,0,1-.364-2.392,3.811,3.811,0,0,1,1.066-2.86,3.615,3.615,0,0,1,2.626-1.04,3.7,3.7,0,0,1,2.652,1.04,3.761,3.761,0,0,1,1.092,2.86,12.093,12.093,0,0,1-.364,2.392Q78.52-30.108,78-28.158t-.936,3.718l-1.04,3.484ZM88.192.78a16.173,16.173,0,0,1-4.576-.6A21.328,21.328,0,0,1,79.872-1.3l.052-6.188h.52l1.768,3.12a9.36,9.36,0,0,0,2.522,3.094A5.768,5.768,0,0,0,88.244-.26a6.685,6.685,0,0,0,4.03-1.118,3.518,3.518,0,0,0,1.534-2.99,3.8,3.8,0,0,0-1.092-2.808A9.928,9.928,0,0,0,88.66-9.152l-2.184-.676a10.738,10.738,0,0,1-4.992-2.912,6.876,6.876,0,0,1-1.82-4.836,7.492,7.492,0,0,1,2.7-5.824q2.7-2.392,7.748-2.392a15.934,15.934,0,0,1,3.822.442A14.99,14.99,0,0,1,97.4-24.024l-.312,5.616h-.52l-1.82-3.224a7.776,7.776,0,0,0-1.95-2.418,4.886,4.886,0,0,0-2.886-.7,6.113,6.113,0,0,0-3.328.988,3.139,3.139,0,0,0-1.56,2.808,3.381,3.381,0,0,0,1.326,2.808,13.524,13.524,0,0,0,3.926,1.924l2.34.676A10.7,10.7,0,0,1,97.968-12.4a7.429,7.429,0,0,1,1.612,4.81,7.28,7.28,0,0,1-2.99,6.084Q93.6.78,88.192.78Zm33.956,0A11.026,11.026,0,0,1,116.636-.6a9.612,9.612,0,0,1-3.874-4.264,16.7,16.7,0,0,1-1.43-7.41,15.834,15.834,0,0,1,1.612-7.566,10.86,10.86,0,0,1,4.264-4.472,11.636,11.636,0,0,1,5.772-1.482,16.264,16.264,0,0,1,3.484.364,10.72,10.72,0,0,1,2.964,1.092V-31.1a3.018,3.018,0,0,0-.338-1.612,2.1,2.1,0,0,0-1.43-.728l-.988-.208v-.52l9.464-2.288.572.468L136.5-28.7V-3.276a3.441,3.441,0,0,0,.364,1.69,2.045,2.045,0,0,0,1.352.91l.468.156V0l-8.892.572L129.324-1.3a12.665,12.665,0,0,1-3.2,1.508A13.049,13.049,0,0,1,122.148.78Zm3.016-1.924a6.738,6.738,0,0,0,4-1.3V-23.088a7.176,7.176,0,0,0-3.952-1.248q-2.5,0-4.264,2.886t-1.768,9.074q0,6.188,1.664,8.71A5,5,0,0,0,125.164-1.144ZM146.172-28.5a4.268,4.268,0,0,1-2.99-1.118,3.674,3.674,0,0,1-1.222-2.834,3.653,3.653,0,0,1,1.222-2.86,4.326,4.326,0,0,1,2.99-1.092,4.232,4.232,0,0,1,2.964,1.092,3.691,3.691,0,0,1,1.2,2.86,3.712,3.712,0,0,1-1.2,2.834A4.175,4.175,0,0,1,146.172-28.5ZM140.036,0V-.52l.728-.208a2.418,2.418,0,0,0,1.43-.936,3.111,3.111,0,0,0,.39-1.664V-19.6a2.82,2.82,0,0,0-.39-1.638,2.212,2.212,0,0,0-1.43-.754l-.728-.156v-.52l9.516-3.068.52.52-.156,7.384v14.56a3.111,3.111,0,0,0,.39,1.664,2.39,2.39,0,0,0,1.378.936l.52.156V0Zm24.6.156-9.2-22.1a3.893,3.893,0,0,0-2.5-2.34l-.728-.208v-.52h13.468v.52l-.936.208q-2.028.52-1.248,2.7l5.46,14.508,5.1-14.4a2.628,2.628,0,0,0,.208-1.716A1.655,1.655,0,0,0,173-24.18l-1.3-.312v-.52h7.54v.52l-1.508.364a3.46,3.46,0,0,0-1.534.78,3.905,3.905,0,0,0-.91,1.56L167.648.156ZM191.2-25.792a11.381,11.381,0,0,1,5.772,1.378,9.4,9.4,0,0,1,3.666,3.744,11.171,11.171,0,0,1,1.274,5.382q0,.572-.052,1.17a4.65,4.65,0,0,1-.208,1.066h-15.5q.052,5.616,2,8.086a6.939,6.939,0,0,0,5.8,2.47,9.193,9.193,0,0,0,4.212-.832,10.3,10.3,0,0,0,3.016-2.444l.52.468a11.959,11.959,0,0,1-4.29,4.472A12.225,12.225,0,0,1,191,.78a13.283,13.283,0,0,1-6.552-1.586,11.2,11.2,0,0,1-4.472-4.55,14.6,14.6,0,0,1-1.612-7.072,13.4,13.4,0,0,1,1.872-7.254,12.593,12.593,0,0,1,4.81-4.55A12.963,12.963,0,0,1,191.2-25.792Zm-.156,1.04a3.831,3.831,0,0,0-2.574.91,6.222,6.222,0,0,0-1.664,3.224,28.922,28.922,0,0,0-.65,6.526h8.892q.52-5.668-.416-8.164A3.532,3.532,0,0,0,191.048-24.752ZM220.012-28.5a4.268,4.268,0,0,1-2.99-1.118,3.674,3.674,0,0,1-1.222-2.834,3.653,3.653,0,0,1,1.222-2.86,4.326,4.326,0,0,1,2.99-1.092,4.232,4.232,0,0,1,2.964,1.092,3.691,3.691,0,0,1,1.2,2.86,3.712,3.712,0,0,1-1.2,2.834A4.175,4.175,0,0,1,220.012-28.5ZM213.876,0V-.52l.728-.208a2.418,2.418,0,0,0,1.43-.936,3.111,3.111,0,0,0,.39-1.664V-19.6a2.82,2.82,0,0,0-.39-1.638A2.212,2.212,0,0,0,214.6-22l-.728-.156v-.52l9.516-3.068.52.52-.156,7.384v14.56a3.111,3.111,0,0,0,.39,1.664,2.39,2.39,0,0,0,1.378.936l.52.156V0Zm13.416,0V-.52l.728-.208a2.373,2.373,0,0,0,1.82-2.548V-19.552a3.1,3.1,0,0,0-.364-1.69,2.1,2.1,0,0,0-1.4-.754l-.78-.208v-.52l8.892-3.016.52.52.416,3.12a16.369,16.369,0,0,1,4.108-2.652,10.869,10.869,0,0,1,4.524-1.04,7.083,7.083,0,0,1,5.278,1.872q1.846,1.872,1.846,5.72V-3.224a2.4,2.4,0,0,0,1.976,2.548l.468.156V0H243.048V-.52l.676-.208a2.421,2.421,0,0,0,1.82-2.548V-19.864q0-3.328-3.328-3.328a8.037,8.037,0,0,0-4.992,2.288v17.68a2.373,2.373,0,0,0,1.82,2.548l.468.156V0Z" transform="translate(832 958)" fill="#fff"/>
  </g>
</svg>
