<svg xmlns="http://www.w3.org/2000/svg" xmlns:xlink="http://www.w3.org/1999/xlink" width="796.264" height="551.448" viewBox="0 0 796.264 551.448">
  <defs>
    <filter id="Path_335" x="0" y="0" width="796.264" height="551.448" filterUnits="userSpaceOnUse">
      <feOffset dy="25" input="SourceAlpha"/>
      <feGaussianBlur stdDeviation="15" result="blur"/>
      <feFlood flood-opacity="0.2"/>
      <feComposite operator="in" in2="blur"/>
      <feComposite in="SourceGraphic"/>
    </filter>
    <linearGradient id="linear-gradient" x1="0.5" x2="0.5" y2="1" gradientUnits="objectBoundingBox">
      <stop offset="0" stop-color="#ecebec"/>
      <stop offset="1" stop-color="#d4d3d4"/>
    </linearGradient>
  </defs>
  <g id="Group_985" data-name="Group 985" transform="translate(-20361 6291)">
    <g transform="matrix(1, 0, 0, 1, 20361, -6291)" filter="url(#Path_335)">
      <g id="Path_335-2" data-name="Path 335" transform="translate(46 21)" fill="#fff">
        <path d="M5.956,0H698.309a5.78,5.78,0,0,1,5.956,5.586V453.862a5.78,5.78,0,0,1-5.956,5.586H5.956A5.78,5.78,0,0,1,0,453.862V5.586A5.78,5.78,0,0,1,5.956,0Z" stroke="none"/>
        <path d="M 5.95574951171875 3.0517578125e-05 C 2.66644287109375 3.0517578125e-05 -6.103515625e-05 2.500946044921875 -6.103515625e-05 5.586029052734375 L -6.103515625e-05 453.8623046875 C -6.103515625e-05 456.9472961425781 2.66644287109375 459.4482116699219 5.95574951171875 459.4482116699219 L 698.3088989257813 459.4482116699219 C 701.5982055664063 459.4482116699219 704.2645874023438 456.9472961425781 704.2645874023438 453.8623046875 L 704.2645874023438 5.586029052734375 C 704.2645874023438 2.500946044921875 701.5982055664063 3.0517578125e-05 698.3088989257813 3.0517578125e-05 L 5.95574951171875 3.0517578125e-05 M 5.95574951171875 -0.999969482421875 L 698.3088989257813 -0.999969482421875 C 702.1442260742188 -0.999969482421875 705.2645874023438 1.954498291015625 705.2645874023438 5.586029052734375 L 705.2645874023438 453.8623046875 C 705.2645874023438 457.4937438964844 702.1442260742188 460.4482116699219 698.3088989257813 460.4482116699219 L 5.95574951171875 460.4482116699219 C 2.12030029296875 460.4482116699219 -1.00006103515625 457.4937438964844 -1.00006103515625 453.8623046875 L -1.00006103515625 5.586029052734375 C -1.00006103515625 1.954498291015625 2.12030029296875 -0.999969482421875 5.95574951171875 -0.999969482421875 Z" stroke="none" fill="rgba(0,0,0,0.1)"/>
      </g>
    </g>
    <g id="Title_bar" data-name="Title bar" transform="translate(20407 -6270)">
      <path id="Rectangle_210" data-name="Rectangle 210" d="M4,0H701a4,4,0,0,1,4,4V22a0,0,0,0,1,0,0H0a0,0,0,0,1,0,0V4A4,4,0,0,1,4,0Z" fill="url(#linear-gradient)"/>
      <g id="Path_46" data-name="Path 46" transform="translate(-17.5 200)" fill="#ff6157">
        <path d="M28.5-184a5,5,0,0,0,5-5,5,5,0,0,0-5-5,5,5,0,0,0-5,5A5,5,0,0,0,28.5-184Z" stroke="none"/>
        <path d="M 28.5 -184.5 C 30.98130989074707 -184.5 33 -186.5186920166016 33 -189 C 33 -191.4813079833984 30.98130989074707 -193.5 28.5 -193.5 C 26.01869010925293 -193.5 24 -191.4813079833984 24 -189 C 24 -186.5186920166016 26.01869010925293 -184.5 28.5 -184.5 M 28.5 -184 C 25.73858070373535 -184 23.5 -186.2386016845703 23.5 -189 C 23.5 -191.7613983154297 25.73858070373535 -194 28.5 -194 C 31.26141929626465 -194 33.5 -191.7613983154297 33.5 -189 C 33.5 -186.2386016845703 31.26141929626465 -184 28.5 -184 Z" stroke="none" fill="rgba(0,0,0,0.15)"/>
      </g>
      <g id="Path_47" data-name="Path 47" transform="translate(-1.5 200)" fill="#ffc12f">
        <path d="M28.5-184a5,5,0,0,0,5-5,5,5,0,0,0-5-5,5,5,0,0,0-5,5A5,5,0,0,0,28.5-184Z" stroke="none"/>
        <path d="M 28.5 -184.5 C 30.98130989074707 -184.5 33 -186.5186920166016 33 -189 C 33 -191.4813079833984 30.98130989074707 -193.5 28.5 -193.5 C 26.01869010925293 -193.5 24 -191.4813079833984 24 -189 C 24 -186.5186920166016 26.01869010925293 -184.5 28.5 -184.5 M 28.5 -184 C 25.73858070373535 -184 23.5 -186.2386016845703 23.5 -189 C 23.5 -191.7613983154297 25.73858070373535 -194 28.5 -194 C 31.26141929626465 -194 33.5 -191.7613983154297 33.5 -189 C 33.5 -186.2386016845703 31.26141929626465 -184 28.5 -184 Z" stroke="none" fill="rgba(0,0,0,0.15)"/>
      </g>
      <g id="Path_48" data-name="Path 48" transform="translate(14.5 200)" fill="#2acb42">
        <path d="M28.5-184a5,5,0,0,0,5-5,5,5,0,0,0-5-5,5,5,0,0,0-5,5A5,5,0,0,0,28.5-184Z" stroke="none"/>
        <path d="M 28.5 -184.5 C 30.98130989074707 -184.5 33 -186.5186920166016 33 -189 C 33 -191.4813079833984 30.98130989074707 -193.5 28.5 -193.5 C 26.01869010925293 -193.5 24 -191.4813079833984 24 -189 C 24 -186.5186920166016 26.01869010925293 -184.5 28.5 -184.5 M 28.5 -184 C 25.73858070373535 -184 23.5 -186.2386016845703 23.5 -189 C 23.5 -191.7613983154297 25.73858070373535 -194 28.5 -194 C 31.26141929626465 -194 33.5 -191.7613983154297 33.5 -189 C 33.5 -186.2386016845703 31.26141929626465 -184 28.5 -184 Z" stroke="none" fill="rgba(0,0,0,0.15)"/>
      </g>
      <path id="Path_338" data-name="Path 338" d="M-47.089-5.688h.075L-45.349,0h1.133l2.095-7.75h-1.251l-1.418,5.935h-.075L-46.493-7.75H-47.61l-1.617,5.935H-49.3L-50.726-7.75h-1.251L-49.888,0h1.139Zm7.965.709a1.411,1.411,0,0,1,1.439,1.515h-2.954A1.5,1.5,0,0,1-39.124-4.979Zm1.434,3.4a1.4,1.4,0,0,1-1.391.709,1.545,1.545,0,0,1-1.558-1.676V-2.61h4.13v-.4c0-1.837-.983-2.949-2.61-2.949-1.649,0-2.7,1.187-2.7,3.056s1.026,3.019,2.7,3.019a2.373,2.373,0,0,0,2.535-1.692ZM-35.214,0h1.155V-8.132h-1.155Zm7.691-3.937a2.307,2.307,0,0,0-2.5-2.025c-1.7,0-2.739,1.144-2.739,3.019,0,1.907,1.042,3.056,2.745,3.056a2.288,2.288,0,0,0,2.5-1.993h-1.123a1.27,1.27,0,0,1-1.38.961c-.961,0-1.558-.757-1.558-2.025,0-1.246.591-1.987,1.558-1.987a1.3,1.3,0,0,1,1.38.994Zm3.641,4.05c1.708,0,2.755-1.144,2.755-3.04s-1.053-3.035-2.755-3.035-2.761,1.149-2.761,3.035S-25.6.113-23.882.113Zm0-1.026c-1,0-1.568-.736-1.568-2.014s.564-2.009,1.568-2.009,1.568.741,1.568,2.009S-22.883-.913-23.882-.913Zm4,.913h1.155V-3.577A1.258,1.258,0,0,1-17.5-4.9,1.019,1.019,0,0,1-16.368-3.84V0h1.133V-3.679A1.185,1.185,0,0,1-14-4.9c.757,0,1.133.387,1.133,1.176V0h1.155V-4.028A1.739,1.739,0,0,0-13.58-5.962a1.9,1.9,0,0,0-1.778,1.053h-.091a1.639,1.639,0,0,0-1.611-1.053,1.651,1.651,0,0,0-1.627,1.053h-.086v-.94h-1.112ZM-7.833-4.979A1.411,1.411,0,0,1-6.394-3.464H-9.348A1.5,1.5,0,0,1-7.833-4.979Zm1.434,3.4A1.4,1.4,0,0,1-7.79-.87,1.545,1.545,0,0,1-9.348-2.546V-2.61h4.13v-.4c0-1.837-.983-2.949-2.61-2.949-1.649,0-2.7,1.187-2.7,3.056S-9.5.113-7.822.113A2.373,2.373,0,0,0-5.287-1.579ZM0,1.493V.575H-5.051v.918ZM.991-7.3v1.482H.062v.972H.991v3.3C.991-.419,1.5.032,2.785.032a3.73,3.73,0,0,0,.628-.059V-.988a3.8,3.8,0,0,1-.44.027c-.575,0-.827-.269-.827-.881V-4.85H3.414v-.972H2.146V-7.3ZM7.033.113c1.708,0,2.755-1.144,2.755-3.04S8.736-5.962,7.033-5.962,4.273-4.812,4.273-2.927,5.32.113,7.033.113Zm0-1.026c-1,0-1.568-.736-1.568-2.014s.564-2.009,1.568-2.009S8.6-4.195,8.6-2.927,8.032-.913,7.033-.913Zm7.976,2.406V.575H9.955v.918ZM18.371,0l2.755-7.75H19.849L17.77-1.5h-.091L15.589-7.75H14.279L17.05,0Zm5.72.113c1.708,0,2.755-1.144,2.755-3.04s-1.053-3.035-2.755-3.035-2.761,1.149-2.761,3.035S22.378.113,24.092.113Zm0-1.026c-1,0-1.568-.736-1.568-2.014s.564-2.009,1.568-2.009,1.568.741,1.568,2.009S25.091-.913,24.092-.913ZM28.141,0H29.3V-8.132H28.141Zm7.691-5.849H34.608l-1.45,4.614h-.091L31.611-5.849H30.375L32.486,0h1.241ZM36.971.091a.777.777,0,0,0,.79-.8.777.777,0,0,0-.79-.8.78.78,0,0,0-.79.8A.78.78,0,0,0,36.971.091Zm2.653-7.4v1.482h-.929v.972h.929v3.3c0,1.128.51,1.579,1.794,1.579a3.73,3.73,0,0,0,.628-.059V-.988a3.8,3.8,0,0,1-.44.027c-.575,0-.827-.269-.827-.881V-4.85h1.268v-.972H40.779V-7.3Zm5.817,5.242L46.719.011h1.327L46.1-2.949l1.928-2.89H46.735L45.489-3.776H45.4L44.141-5.838H42.793L44.748-2.9,42.809.011h1.268l1.278-2.073ZM49.512-7.3v1.482h-.929v.972h.929v3.3c0,1.128.51,1.579,1.794,1.579a3.73,3.73,0,0,0,.628-.059V-.988a3.8,3.8,0,0,1-.44.027c-.575,0-.827-.269-.827-.881V-4.85h1.268v-.972H50.667V-7.3Z" transform="translate(352.262 15.25)" fill="rgba(0,0,0,0.76)"/>
      <rect id="Rectangle_241" data-name="Rectangle 241" width="705" height="1" transform="translate(0 21)" opacity="0.06"/>
    </g>
    <path id="Path_337" data-name="Path 337" d="M3.96,19H5.44L9.04,6.22h.04L12.7,19h1.44L18.08,4.72H16.72l-3.26,12.5h-.04L9.92,4.72H8.22L4.74,17.22H4.7L1.46,4.72H0Zm15.76-5.88c.22-1.88,1.32-3.68,3.4-3.68,2.02,0,3.22,1.78,3.28,3.68Zm7.94,1.06c.1-2.9-1.24-5.8-4.54-5.8-3.28,0-4.66,2.74-4.66,5.46,0,2.94,1.38,5.46,4.66,5.46,2.62,0,3.96-1.36,4.5-3.7H26.36a3.127,3.127,0,0,1-3.24,2.64c-2.4,0-3.4-2.22-3.4-4.06ZM34.92,19h1.26V13.5a3.555,3.555,0,0,1,3.84-3.7V8.54a3.79,3.79,0,0,0-3.9,2.56h-.04V8.68H34.92Zm6.68-5.88c.22-1.88,1.32-3.68,3.4-3.68,2.02,0,3.22,1.78,3.28,3.68Zm7.94,1.06c.1-2.9-1.24-5.8-4.54-5.8-3.28,0-4.66,2.74-4.66,5.46,0,2.94,1.38,5.46,4.66,5.46,2.62,0,3.96-1.36,4.5-3.7H48.24A3.127,3.127,0,0,1,45,18.24c-2.4,0-3.4-2.22-3.4-4.06Zm1.72-7.44h1.26V4.72H51.26Zm0,12.26h1.26V8.68H51.26Zm3.68,0H56.2V13.24c0-2.16.92-3.8,3.08-3.8,1.62,0,2.16,1.16,2.16,2.56v7H62.7V13.16c0-1.92.62-3.72,2.8-3.72,1.82,0,2.44.92,2.44,2.62V19H69.2V12c0-2.42-1.14-3.62-3.42-3.62A3.488,3.488,0,0,0,62.5,10.4a2.869,2.869,0,0,0-2.96-2.02,3.551,3.551,0,0,0-3.38,2.04H56.1V8.68H54.94Zm17.8-7.16c.06-1.68,1.18-2.4,2.76-2.4,1.5,0,2.7.42,2.7,2.12,0,1.12-.58,1.3-1.62,1.4-2.72.32-5.54.44-5.54,3.32,0,2.08,1.54,3.02,3.46,3.02a3.935,3.935,0,0,0,3.76-2.1h.04c0,1.06.2,1.8,1.48,1.8a3.566,3.566,0,0,0,.82-.08V17.86a.953.953,0,0,1-.4.08.663.663,0,0,1-.74-.76V11.7c0-2.78-1.98-3.32-3.8-3.32-2.38,0-4.04,1.04-4.18,3.46ZM78.2,15a3.318,3.318,0,0,1-3.6,3.24,2.138,2.138,0,0,1-2.3-2.04c0-2,2.66-2,4.8-2.38.34-.06.9-.16,1.06-.46h.04ZM90.7,8.68H89.44v1.78H89.4a3.609,3.609,0,0,0-3.28-2.08c-2.98,0-4.66,2.36-4.66,5.2,0,2.96,1.36,5.3,4.66,5.3a3.524,3.524,0,0,0,3.28-2.12h.04v1.4c0,2.54-.98,3.9-3.32,3.9-1.38,0-2.76-.54-3.02-2.06H81.84c.16,2.18,2.22,3.12,4.28,3.12,3.34,0,4.58-1.86,4.58-4.96Zm-4.58,9.14c-2.34,0-3.4-2.02-3.4-4.1,0-2.14,1-4.28,3.4-4.28s3.32,2.26,3.32,4.28C89.44,15.8,88.3,17.82,86.12,17.82Zm7-11.08h1.26V4.72H93.12Zm0,12.26h1.26V8.68H93.12Zm3.66,0h1.26V12.98c.06-2.02,1.22-3.54,3.24-3.54,2.04,0,2.62,1.36,2.62,3.12V19h1.26V12.36c0-2.46-.88-3.98-3.78-3.98a3.519,3.519,0,0,0-3.3,2.08h-.04V8.68H96.78Zm11.5-5.88c.22-1.88,1.32-3.68,3.4-3.68,2.02,0,3.22,1.78,3.28,3.68Zm7.94,1.06c.1-2.9-1.24-5.8-4.54-5.8-3.28,0-4.66,2.74-4.66,5.46,0,2.94,1.38,5.46,4.66,5.46,2.62,0,3.96-1.36,4.5-3.7h-1.26a3.127,3.127,0,0,1-3.24,2.64c-2.4,0-3.4-2.22-3.4-4.06ZM127,4.72h-1.26v5.92h-.04a3.681,3.681,0,0,0-3.58-2.26c-3.14,0-4.64,2.52-4.64,5.46s1.5,5.46,4.64,5.46a4.052,4.052,0,0,0,3.68-2.26h.04V19H127Zm-8.26,9.12c0-2.14.98-4.4,3.38-4.4,2.66,0,3.62,2.26,3.62,4.4s-.96,4.4-3.62,4.4C119.72,18.24,118.74,15.98,118.74,13.84Zm18.22-8.26H135.7v3.1h-1.8V9.74h1.8V16.8c-.02,1.76.56,2.32,2.24,2.32.38,0,.74-.04,1.12-.04V18a9.773,9.773,0,0,1-1.08.06c-.9-.06-1.02-.54-1.02-1.36V9.74h2.1V8.68h-2.1ZM140.86,19h1.26V12.98c.06-2.02,1.22-3.54,3.24-3.54,2.04,0,2.62,1.36,2.62,3.12V19h1.26V12.36c0-2.46-.88-3.98-3.78-3.98a3.519,3.519,0,0,0-3.3,2.08h-.04V4.72h-1.26Zm11.5-5.88c.22-1.88,1.32-3.68,3.4-3.68,2.02,0,3.22,1.78,3.28,3.68Zm7.94,1.06c.1-2.9-1.24-5.8-4.54-5.8-3.28,0-4.66,2.74-4.66,5.46,0,2.94,1.38,5.46,4.66,5.46,2.62,0,3.96-1.36,4.5-3.7H159a3.127,3.127,0,0,1-3.24,2.64c-2.4,0-3.4-2.22-3.4-4.06ZM167.54,19h1.26V12.98c.06-2.02,1.22-3.54,3.24-3.54,2.04,0,2.62,1.36,2.62,3.12V19h1.26V12.36c0-2.46-.88-3.98-3.78-3.98a3.519,3.519,0,0,0-3.3,2.08h-.04V8.68h-1.26Zm11.5-5.88c.22-1.88,1.32-3.68,3.4-3.68,2.02,0,3.22,1.78,3.28,3.68Zm7.94,1.06c.1-2.9-1.24-5.8-4.54-5.8-3.28,0-4.66,2.74-4.66,5.46,0,2.94,1.38,5.46,4.66,5.46,2.62,0,3.96-1.36,4.5-3.7h-1.26a3.127,3.127,0,0,1-3.24,2.64c-2.4,0-3.4-2.22-3.4-4.06ZM190.96,19h1.38l2.52-8.68h.04L197.44,19h1.38l3.32-10.32H200.8l-2.64,8.84h-.04L195.6,8.68h-1.42l-2.52,8.84h-.04l-2.64-8.84h-1.34Zm19.98-7.3c-.1-2.24-1.7-3.32-3.78-3.32-1.82,0-3.88.8-3.88,2.9,0,1.74,1.24,2.34,2.88,2.76l1.62.36c1.14.28,2.26.68,2.26,1.88,0,1.44-1.62,1.96-2.82,1.96a2.72,2.72,0,0,1-3.04-2.58h-1.26c.22,2.54,1.82,3.64,4.24,3.64,1.92,0,4.14-.86,4.14-3.1,0-1.8-1.5-2.64-2.94-2.86l-1.68-.38c-.88-.22-2.14-.64-2.14-1.74,0-1.34,1.32-1.78,2.44-1.78,1.44,0,2.64.7,2.7,2.26Zm4.6,7.3V16.88h-1.68V19ZM6.32,66.08,9.08,73.4H3.46ZM-.14,79H1.32l1.72-4.44h6.5L11.28,79h1.46L7.14,64.72H5.62Zm19.5,3.82h1.26V77.04h.04a3.671,3.671,0,0,0,3.58,2.26c3.14,0,4.64-2.52,4.64-5.46s-1.5-5.46-4.64-5.46a3.813,3.813,0,0,0-3.68,2.26h-.04V68.68H19.36Zm8.26-8.98c0,2.14-.98,4.4-3.38,4.4-2.66,0-3.62-2.26-3.62-4.4,0-2.34.82-4.4,3.62-4.4C26.64,69.44,27.62,71.7,27.62,73.84ZM30.86,79h1.26V64.72H30.86Zm4.82-7.16c.06-1.68,1.18-2.4,2.76-2.4,1.5,0,2.7.42,2.7,2.12,0,1.12-.58,1.3-1.62,1.4-2.72.32-5.54.44-5.54,3.32,0,2.08,1.54,3.02,3.46,3.02a3.935,3.935,0,0,0,3.76-2.1h.04c0,1.06.2,1.8,1.48,1.8a3.566,3.566,0,0,0,.82-.08V77.86a.953.953,0,0,1-.4.08.663.663,0,0,1-.74-.76V71.7c0-2.78-1.98-3.32-3.8-3.32-2.38,0-4.04,1.04-4.18,3.46ZM41.14,75a3.318,3.318,0,0,1-3.6,3.24,2.138,2.138,0,0,1-2.3-2.04c0-2,2.66-2,4.8-2.38.34-.06.9-.16,1.06-.46h.04Zm12.32-3.08a3.845,3.845,0,0,0-4.18-3.54c-3.14,0-4.88,2.5-4.88,5.46s1.74,5.46,4.88,5.46c2.32,0,3.92-1.5,4.26-4H52.28a3.1,3.1,0,0,1-3,2.94c-2.4,0-3.62-2.22-3.62-4.4s1.22-4.4,3.62-4.4a2.792,2.792,0,0,1,2.92,2.48Zm2.58,1.2c.22-1.88,1.32-3.68,3.4-3.68,2.02,0,3.22,1.78,3.28,3.68Zm7.94,1.06c.1-2.9-1.24-5.8-4.54-5.8-3.28,0-4.66,2.74-4.66,5.46,0,2.94,1.38,5.46,4.66,5.46,2.62,0,3.96-1.36,4.5-3.7H62.68a3.127,3.127,0,0,1-3.24,2.64c-2.4,0-3.4-2.22-3.4-4.06Zm9.26-8.6H71.98v3.1h-1.8v1.06h1.8V76.8c-.02,1.76.56,2.32,2.24,2.32.38,0,.74-.04,1.12-.04V78a9.772,9.772,0,0,1-1.08.06c-.9-.06-1.02-.54-1.02-1.36V69.74h2.1V68.68h-2.1ZM77.14,79H78.4V72.98c.06-2.02,1.22-3.54,3.24-3.54,2.04,0,2.62,1.36,2.62,3.12V79h1.26V72.36c0-2.46-.88-3.98-3.78-3.98a3.519,3.519,0,0,0-3.3,2.08H78.4V64.72H77.14Zm11.9-7.16c.06-1.68,1.18-2.4,2.76-2.4,1.5,0,2.7.42,2.7,2.12,0,1.12-.58,1.3-1.62,1.4-2.72.32-5.54.44-5.54,3.32,0,2.08,1.54,3.02,3.46,3.02a3.935,3.935,0,0,0,3.76-2.1h.04c0,1.06.2,1.8,1.48,1.8a3.566,3.566,0,0,0,.82-.08V77.86a.953.953,0,0,1-.4.08.663.663,0,0,1-.74-.76V71.7c0-2.78-1.98-3.32-3.8-3.32-2.38,0-4.04,1.04-4.18,3.46ZM94.5,75a3.318,3.318,0,0,1-3.6,3.24,2.138,2.138,0,0,1-2.3-2.04c0-2,2.66-2,4.8-2.38.34-.06.9-.16,1.06-.46h.04Zm5.78-9.42H99.02v3.1h-1.8v1.06h1.8V76.8c-.02,1.76.56,2.32,2.24,2.32.38,0,.74-.04,1.12-.04V78a9.772,9.772,0,0,1-1.08.06c-.9-.06-1.02-.54-1.02-1.36V69.74h2.1V68.68h-2.1Zm11.48,0H110.5v3.1h-1.8v1.06h1.8V76.8c-.02,1.76.56,2.32,2.24,2.32.38,0,.74-.04,1.12-.04V78a9.772,9.772,0,0,1-1.08.06c-.9-.06-1.02-.54-1.02-1.36V69.74h2.1V68.68h-2.1Zm4.66,7.54c.22-1.88,1.32-3.68,3.4-3.68,2.02,0,3.22,1.78,3.28,3.68Zm7.94,1.06c.1-2.9-1.24-5.8-4.54-5.8-3.28,0-4.66,2.74-4.66,5.46,0,2.94,1.38,5.46,4.66,5.46,2.62,0,3.96-1.36,4.5-3.7h-1.26a3.127,3.127,0,0,1-3.24,2.64c-2.4,0-3.4-2.22-3.4-4.06ZM126.08,79h1.26V64.72h-1.26Zm3.7,0h1.26V64.72h-1.26Zm11.12-7.3c-.1-2.24-1.7-3.32-3.78-3.32-1.82,0-3.88.8-3.88,2.9,0,1.74,1.24,2.34,2.88,2.76l1.62.36c1.14.28,2.26.68,2.26,1.88,0,1.44-1.62,1.96-2.82,1.96a2.72,2.72,0,0,1-3.04-2.58h-1.26c.22,2.54,1.82,3.64,4.24,3.64,1.92,0,4.14-.86,4.14-3.1,0-1.8-1.5-2.64-2.94-2.86l-1.68-.38c-.88-.22-2.14-.64-2.14-1.74,0-1.34,1.32-1.78,2.44-1.78,1.44,0,2.64.7,2.7,2.26Zm10.7,7.26-.44,1.18c-.42.96-.68,1.62-1.8,1.62a4.2,4.2,0,0,1-.86-.1v1.06a3.363,3.363,0,0,0,.96.1c1.58,0,1.98-.5,2.72-2.24l4.48-11.9H155.4l-3.18,8.8-3.4-8.8h-1.34Zm10.66-9.52c2.4,0,3.62,2.22,3.62,4.4s-1.22,4.4-3.62,4.4-3.62-2.22-3.62-4.4S159.86,69.44,162.26,69.44Zm0-1.06c-3.14,0-4.88,2.5-4.88,5.46s1.74,5.46,4.88,5.46,4.88-2.5,4.88-5.46S165.4,68.38,162.26,68.38Zm15.12.3h-1.26V74.1c0,2.1-.94,4.14-3.1,4.14-2,0-2.7-.98-2.76-2.84V68.68H169v6.7c0,2.42,1,3.92,3.62,3.92a3.839,3.839,0,0,0,3.56-2.16h.04V79h1.16Zm8.68,4.44c.22-1.88,1.32-3.68,3.4-3.68,2.02,0,3.22,1.78,3.28,3.68ZM194,74.18c.1-2.9-1.24-5.8-4.54-5.8-3.28,0-4.66,2.74-4.66,5.46,0,2.94,1.38,5.46,4.66,5.46,2.62,0,3.96-1.36,4.5-3.7H192.7a3.127,3.127,0,0,1-3.24,2.64c-2.4,0-3.4-2.22-3.4-4.06Zm.52,4.82h1.56l3.18-4.34L202.5,79h1.6l-4.02-5.38,3.72-4.94h-1.58l-2.88,3.92-2.94-3.92h-1.58l3.7,4.96Zm11.94-7.16c.06-1.68,1.18-2.4,2.76-2.4,1.5,0,2.7.42,2.7,2.12,0,1.12-.58,1.3-1.62,1.4-2.72.32-5.54.44-5.54,3.32,0,2.08,1.54,3.02,3.46,3.02a3.935,3.935,0,0,0,3.76-2.1h.04c0,1.06.2,1.8,1.48,1.8a3.566,3.566,0,0,0,.82-.08V77.86a.953.953,0,0,1-.4.08.663.663,0,0,1-.74-.76V71.7c0-2.78-1.98-3.32-3.8-3.32-2.38,0-4.04,1.04-4.18,3.46ZM211.92,75a3.318,3.318,0,0,1-3.6,3.24,2.138,2.138,0,0,1-2.3-2.04c0-2,2.66-2,4.8-2.38.34-.06.9-.16,1.06-.46h.04Zm12.32-3.08a3.845,3.845,0,0,0-4.18-3.54c-3.14,0-4.88,2.5-4.88,5.46s1.74,5.46,4.88,5.46c2.32,0,3.92-1.5,4.26-4h-1.26a3.1,3.1,0,0,1-3,2.94c-2.4,0-3.62-2.22-3.62-4.4s1.22-4.4,3.62-4.4a2.792,2.792,0,0,1,2.92,2.48Zm3.84-6.34h-1.26v3.1h-1.8v1.06h1.8V76.8c-.02,1.76.56,2.32,2.24,2.32.38,0,.74-.04,1.12-.04V78a9.772,9.772,0,0,1-1.08.06c-.9-.06-1.02-.54-1.02-1.36V69.74h2.1V68.68h-2.1ZM232.02,79h1.26V64.72h-1.26Zm6.64-.04-.44,1.18c-.42.96-.68,1.62-1.8,1.62a4.2,4.2,0,0,1-.86-.1v1.06a3.363,3.363,0,0,0,.96.1c1.58,0,1.98-.5,2.72-2.24l4.48-11.9h-1.26l-3.18,8.8-3.4-8.8h-1.34ZM252.8,79h1.38l2.52-8.68h.04L259.28,79h1.38l3.32-10.32h-1.34L260,77.52h-.04l-2.52-8.84h-1.42l-2.52,8.84h-.04l-2.64-8.84h-1.34Zm12.52,0h1.26V72.98c.06-2.02,1.22-3.54,3.24-3.54,2.04,0,2.62,1.36,2.62,3.12V79h1.26V72.36c0-2.46-.88-3.98-3.78-3.98a3.519,3.519,0,0,0-3.3,2.08h-.04V64.72h-1.26Zm11.9-7.16c.06-1.68,1.18-2.4,2.76-2.4,1.5,0,2.7.42,2.7,2.12,0,1.12-.58,1.3-1.62,1.4-2.72.32-5.54.44-5.54,3.32,0,2.08,1.54,3.02,3.46,3.02a3.935,3.935,0,0,0,3.76-2.1h.04c0,1.06.2,1.8,1.48,1.8a3.566,3.566,0,0,0,.82-.08V77.86a.954.954,0,0,1-.4.08.663.663,0,0,1-.74-.76V71.7c0-2.78-1.98-3.32-3.8-3.32-2.38,0-4.04,1.04-4.18,3.46ZM282.68,75a3.318,3.318,0,0,1-3.6,3.24,2.138,2.138,0,0,1-2.3-2.04c0-2,2.66-2,4.8-2.38.34-.06.9-.16,1.06-.46h.04Zm5.78-9.42H287.2v3.1h-1.8v1.06h1.8V76.8c-.02,1.76.56,2.32,2.24,2.32.38,0,.74-.04,1.12-.04V78a9.772,9.772,0,0,1-1.08.06c-.9-.06-1.02-.54-1.02-1.36V69.74h2.1V68.68h-2.1ZM300.9,78.96l-.44,1.18c-.42.96-.68,1.62-1.8,1.62a4.2,4.2,0,0,1-.86-.1v1.06a3.363,3.363,0,0,0,.96.1c1.58,0,1.98-.5,2.72-2.24l4.48-11.9H304.7l-3.18,8.8-3.4-8.8h-1.34Zm10.66-9.52c2.4,0,3.62,2.22,3.62,4.4s-1.22,4.4-3.62,4.4-3.62-2.22-3.62-4.4S309.16,69.44,311.56,69.44Zm0-1.06c-3.14,0-4.88,2.5-4.88,5.46s1.74,5.46,4.88,5.46,4.88-2.5,4.88-5.46S314.7,68.38,311.56,68.38Zm15.12.3h-1.26V74.1c0,2.1-.94,4.14-3.1,4.14-2,0-2.7-.98-2.76-2.84V68.68H318.3v6.7c0,2.42,1,3.92,3.62,3.92a3.839,3.839,0,0,0,3.56-2.16h.04V79h1.16ZM334.6,79h1.26V72.98c.06-2.02,1.22-3.54,3.24-3.54,2.04,0,2.62,1.36,2.62,3.12V79h1.26V72.36c0-2.46-.88-3.98-3.78-3.98a3.519,3.519,0,0,0-3.3,2.08h-.04V68.68H334.6Zm11.5-5.88c.22-1.88,1.32-3.68,3.4-3.68,2.02,0,3.22,1.78,3.28,3.68Zm7.94,1.06c.1-2.9-1.24-5.8-4.54-5.8-3.28,0-4.66,2.74-4.66,5.46,0,2.94,1.38,5.46,4.66,5.46,2.62,0,3.96-1.36,4.5-3.7h-1.26a3.127,3.127,0,0,1-3.24,2.64c-2.4,0-3.4-2.22-3.4-4.06Zm2.44-1.06c.22-1.88,1.32-3.68,3.4-3.68,2.02,0,3.22,1.78,3.28,3.68Zm7.94,1.06c.1-2.9-1.24-5.8-4.54-5.8-3.28,0-4.66,2.74-4.66,5.46,0,2.94,1.38,5.46,4.66,5.46,2.62,0,3.96-1.36,4.5-3.7h-1.26a3.127,3.127,0,0,1-3.24,2.64c-2.4,0-3.4-2.22-3.4-4.06Zm10.78-9.46h-1.26v5.92h-.04a3.681,3.681,0,0,0-3.58-2.26c-3.14,0-4.64,2.52-4.64,5.46s1.5,5.46,4.64,5.46A4.052,4.052,0,0,0,374,77.04h.04V79h1.16Zm-8.26,9.12c0-2.14.98-4.4,3.38-4.4,2.66,0,3.62,2.26,3.62,4.4s-.96,4.4-3.62,4.4C367.92,78.24,366.94,75.98,366.94,73.84Zm18.22-8.26H383.9v3.1h-1.8v1.06h1.8V76.8c-.02,1.76.56,2.32,2.24,2.32.38,0,.74-.04,1.12-.04V78a9.772,9.772,0,0,1-1.08.06c-.9-.06-1.02-.54-1.02-1.36V69.74h2.1V68.68h-2.1Zm8.28,3.86c2.4,0,3.62,2.22,3.62,4.4s-1.22,4.4-3.62,4.4-3.62-2.22-3.62-4.4S391.04,69.44,393.44,69.44Zm0-1.06c-3.14,0-4.88,2.5-4.88,5.46s1.74,5.46,4.88,5.46,4.88-2.5,4.88-5.46S396.58,68.38,393.44,68.38ZM405.76,79h1.26V75.08l2.04-1.7L413.14,79h1.58l-4.7-6.5,4.4-3.82h-1.68l-5.72,5V64.72h-1.26Zm9.98,0H417V72.98c.06-2.02,1.22-3.54,3.24-3.54,2.04,0,2.62,1.36,2.62,3.12V79h1.26V72.36c0-2.46-.88-3.98-3.78-3.98a3.519,3.519,0,0,0-3.3,2.08H417V68.68h-1.26Zm15.12-9.56c2.4,0,3.62,2.22,3.62,4.4s-1.22,4.4-3.62,4.4-3.62-2.22-3.62-4.4S428.46,69.44,430.86,69.44Zm0-1.06c-3.14,0-4.88,2.5-4.88,5.46s1.74,5.46,4.88,5.46,4.88-2.5,4.88-5.46S434,68.38,430.86,68.38ZM439.9,79h1.38l2.52-8.68h.04L446.38,79h1.38l3.32-10.32h-1.34l-2.64,8.84h-.04l-2.52-8.84h-1.42l-2.52,8.84h-.04l-2.64-8.84h-1.34Zm19.24-7.16c.06-1.68,1.18-2.4,2.76-2.4,1.5,0,2.7.42,2.7,2.12,0,1.12-.58,1.3-1.62,1.4-2.72.32-5.54.44-5.54,3.32,0,2.08,1.54,3.02,3.46,3.02a3.935,3.935,0,0,0,3.76-2.1h.04c0,1.06.2,1.8,1.48,1.8a3.566,3.566,0,0,0,.82-.08V77.86a.954.954,0,0,1-.4.08.663.663,0,0,1-.74-.76V71.7c0-2.78-1.98-3.32-3.8-3.32-2.38,0-4.04,1.04-4.18,3.46ZM464.6,75a3.318,3.318,0,0,1-3.6,3.24,2.138,2.138,0,0,1-2.3-2.04c0-2,2.66-2,4.8-2.38.34-.06.9-.16,1.06-.46h.04Zm3.76,4h1.26V72.98c.06-2.02,1.22-3.54,3.24-3.54,2.04,0,2.62,1.36,2.62,3.12V79h1.26V72.36c0-2.46-.88-3.98-3.78-3.98a3.519,3.519,0,0,0-3.3,2.08h-.04V68.68h-1.26ZM488.2,64.72h-1.26v5.92h-.04a3.681,3.681,0,0,0-3.58-2.26c-3.14,0-4.64,2.52-4.64,5.46s1.5,5.46,4.64,5.46A4.052,4.052,0,0,0,487,77.04h.04V79h1.16Zm-8.26,9.12c0-2.14.98-4.4,3.38-4.4,2.66,0,3.62,2.26,3.62,4.4s-.96,4.4-3.62,4.4C480.92,78.24,479.94,75.98,479.94,73.84ZM498.44,79h1.38l2.52-8.68h.04L504.92,79h1.38l3.32-10.32h-1.34l-2.64,8.84h-.04l-2.52-8.84h-1.42l-2.52,8.84h-.04l-2.64-8.84h-1.34Zm12.52,0h1.26V72.98c.06-2.02,1.22-3.54,3.24-3.54,2.04,0,2.62,1.36,2.62,3.12V79h1.26V72.36c0-2.46-.88-3.98-3.78-3.98a3.519,3.519,0,0,0-3.3,2.08h-.04V64.72h-1.26Zm13.72-.04-.44,1.18c-.42.96-.68,1.62-1.8,1.62a4.2,4.2,0,0,1-.86-.1v1.06a3.363,3.363,0,0,0,.96.1c1.58,0,1.98-.5,2.72-2.24l4.48-11.9h-1.26l-3.18,8.8-3.4-8.8h-1.34Zm11.88-12.22h1.26V64.72h-1.26Zm0,12.26h1.26V68.68h-1.26Zm5.68-13.42h-1.26v3.1h-1.8v1.06h1.8V76.8c-.02,1.76.56,2.32,2.24,2.32.38,0,.74-.04,1.12-.04V78a9.772,9.772,0,0,1-1.08.06c-.9-.06-1.02-.54-1.02-1.36V69.74h2.1V68.68h-2.1Zm4.7-.86v2.12h.84c.06.62-.26,1.68-.94,1.88v.86a2.68,2.68,0,0,0,1.78-2.72V64.72Zm10,6.98c-.1-2.24-1.7-3.32-3.78-3.32-1.82,0-3.88.8-3.88,2.9,0,1.74,1.24,2.34,2.88,2.76l1.62.36c1.14.28,2.26.68,2.26,1.88,0,1.44-1.62,1.96-2.82,1.96a2.72,2.72,0,0,1-3.04-2.58h-1.26c.22,2.54,1.82,3.64,4.24,3.64,1.92,0,4.14-.86,4.14-3.1,0-1.8-1.5-2.64-2.94-2.86l-1.68-.38c-.88-.22-2.14-.64-2.14-1.74,0-1.34,1.32-1.78,2.44-1.78,1.44,0,2.64.7,2.7,2.26ZM1.22,96.74H2.48V94.72H1.22Zm0,12.26H2.48V98.68H1.22Zm3.68,0H6.16v-5.76c0-2.16.92-3.8,3.08-3.8,1.62,0,2.16,1.16,2.16,2.56v7h1.26v-5.84c0-1.92.62-3.72,2.8-3.72,1.82,0,2.44.92,2.44,2.62V109h1.26v-7c0-2.42-1.14-3.62-3.42-3.62a3.488,3.488,0,0,0-3.28,2.02A2.869,2.869,0,0,0,9.5,98.38a3.551,3.551,0,0,0-3.38,2.04H6.06V98.68H4.9Zm16.66,3.82h1.26v-5.78h.04a3.671,3.671,0,0,0,3.58,2.26c3.14,0,4.64-2.52,4.64-5.46s-1.5-5.46-4.64-5.46a3.813,3.813,0,0,0-3.68,2.26h-.04V98.68H21.56Zm8.26-8.98c0,2.14-.98,4.4-3.38,4.4-2.66,0-3.62-2.26-3.62-4.4,0-2.34.82-4.4,3.62-4.4C28.84,99.44,29.82,101.7,29.82,103.84Zm7.58-4.4c2.4,0,3.62,2.22,3.62,4.4s-1.22,4.4-3.62,4.4-3.62-2.22-3.62-4.4S35,99.44,37.4,99.44Zm0-1.06c-3.14,0-4.88,2.5-4.88,5.46s1.74,5.46,4.88,5.46,4.88-2.5,4.88-5.46S40.54,98.38,37.4,98.38ZM44.16,109h1.26v-5.5a3.555,3.555,0,0,1,3.84-3.7V98.54a3.79,3.79,0,0,0-3.9,2.56h-.04V98.68H44.16Zm8.3-13.42H51.2v3.1H49.4v1.06h1.8v7.06c-.02,1.76.56,2.32,2.24,2.32.38,0,.74-.04,1.12-.04V108a9.772,9.772,0,0,1-1.08.06c-.9-.06-1.02-.54-1.02-1.36V99.74h2.1V98.68h-2.1Zm5.06,6.26c.06-1.68,1.18-2.4,2.76-2.4,1.5,0,2.7.42,2.7,2.12,0,1.12-.58,1.3-1.62,1.4-2.72.32-5.54.44-5.54,3.32,0,2.08,1.54,3.02,3.46,3.02a3.935,3.935,0,0,0,3.76-2.1h.04c0,1.06.2,1.8,1.48,1.8a3.566,3.566,0,0,0,.82-.08v-1.06a.953.953,0,0,1-.4.08.663.663,0,0,1-.74-.76V101.7c0-2.78-1.98-3.32-3.8-3.32-2.38,0-4.04,1.04-4.18,3.46ZM62.98,105a3.318,3.318,0,0,1-3.6,3.24,2.138,2.138,0,0,1-2.3-2.04c0-2,2.66-2,4.8-2.38.34-.06.9-.16,1.06-.46h.04Zm3.76,4H68v-6.02c.06-2.02,1.22-3.54,3.24-3.54,2.04,0,2.62,1.36,2.62,3.12V109h1.26v-6.64c0-2.46-.88-3.98-3.78-3.98a3.519,3.519,0,0,0-3.3,2.08H68V98.68H66.74ZM79.5,95.58H78.24v3.1h-1.8v1.06h1.8v7.06c-.02,1.76.56,2.32,2.24,2.32.38,0,.74-.04,1.12-.04V108a9.772,9.772,0,0,1-1.08.06c-.9-.06-1.02-.54-1.02-1.36V99.74h2.1V98.68H79.5ZM85.84,109v-2.12H84.16V109ZM99.66,96.08l2.76,7.32H96.8ZM93.2,109h1.46l1.72-4.44h6.5l1.74,4.44h1.46l-5.6-14.28H98.96Zm19.5,3.82h1.26v-5.78H114a3.671,3.671,0,0,0,3.58,2.26c3.14,0,4.64-2.52,4.64-5.46s-1.5-5.46-4.64-5.46a3.813,3.813,0,0,0-3.68,2.26h-.04V98.68H112.7Zm8.26-8.98c0,2.14-.98,4.4-3.38,4.4-2.66,0-3.62-2.26-3.62-4.4,0-2.34.82-4.4,3.62-4.4C119.98,99.44,120.96,101.7,120.96,103.84ZM124.2,109h1.26V94.72H124.2Zm4.82-7.16c.06-1.68,1.18-2.4,2.76-2.4,1.5,0,2.7.42,2.7,2.12,0,1.12-.58,1.3-1.62,1.4-2.72.32-5.54.44-5.54,3.32,0,2.08,1.54,3.02,3.46,3.02a3.935,3.935,0,0,0,3.76-2.1h.04c0,1.06.2,1.8,1.48,1.8a3.566,3.566,0,0,0,.82-.08v-1.06a.953.953,0,0,1-.4.08.663.663,0,0,1-.74-.76V101.7c0-2.78-1.98-3.32-3.8-3.32-2.38,0-4.04,1.04-4.18,3.46Zm5.46,3.16a3.318,3.318,0,0,1-3.6,3.24,2.138,2.138,0,0,1-2.3-2.04c0-2,2.66-2,4.8-2.38.34-.06.9-.16,1.06-.46h.04Zm12.32-3.08a3.845,3.845,0,0,0-4.18-3.54c-3.14,0-4.88,2.5-4.88,5.46s1.74,5.46,4.88,5.46c2.32,0,3.92-1.5,4.26-4h-1.26a3.1,3.1,0,0,1-3,2.94c-2.4,0-3.62-2.22-3.62-4.4s1.22-4.4,3.62-4.4a2.792,2.792,0,0,1,2.92,2.48Zm2.58,1.2c.22-1.88,1.32-3.68,3.4-3.68,2.02,0,3.22,1.78,3.28,3.68Zm7.94,1.06c.1-2.9-1.24-5.8-4.54-5.8-3.28,0-4.66,2.74-4.66,5.46,0,2.94,1.38,5.46,4.66,5.46,2.62,0,3.96-1.36,4.5-3.7h-1.26a3.127,3.127,0,0,1-3.24,2.64c-2.4,0-3.4-2.22-3.4-4.06Zm9.54,4.82h1.38l2.52-8.68h.04l2.54,8.68h1.38l3.32-10.32H176.7l-2.64,8.84h-.04l-2.52-8.84h-1.42l-2.52,8.84h-.04l-2.64-8.84h-1.34Zm12.52,0h1.26v-6.02c.06-2.02,1.22-3.54,3.24-3.54,2.04,0,2.62,1.36,2.62,3.12V109h1.26v-6.64c0-2.46-.88-3.98-3.78-3.98a3.519,3.519,0,0,0-3.3,2.08h-.04V94.72h-1.26Zm11.5-5.88c.22-1.88,1.32-3.68,3.4-3.68,2.02,0,3.22,1.78,3.28,3.68Zm7.94,1.06c.1-2.9-1.24-5.8-4.54-5.8-3.28,0-4.66,2.74-4.66,5.46,0,2.94,1.38,5.46,4.66,5.46,2.62,0,3.96-1.36,4.5-3.7h-1.26a3.127,3.127,0,0,1-3.24,2.64c-2.4,0-3.4-2.22-3.4-4.06Zm1.7,4.82h1.26v-5.5a3.555,3.555,0,0,1,3.84-3.7V98.54a3.79,3.79,0,0,0-3.9,2.56h-.04V98.68h-1.16Zm6.68-5.88c.22-1.88,1.32-3.68,3.4-3.68,2.02,0,3.22,1.78,3.28,3.68Zm7.94,1.06c.1-2.9-1.24-5.8-4.54-5.8-3.28,0-4.66,2.74-4.66,5.46,0,2.94,1.38,5.46,4.66,5.46,2.62,0,3.96-1.36,4.5-3.7h-1.26a3.127,3.127,0,0,1-3.24,2.64c-2.4,0-3.4-2.22-3.4-4.06Zm7.24,4.82h1.26v-6.02c.06-2.02,1.22-3.54,3.24-3.54,2.04,0,2.62,1.36,2.62,3.12V109h1.26v-6.64c0-2.46-.88-3.98-3.78-3.98a3.519,3.519,0,0,0-3.3,2.08h-.04V98.68h-1.26Zm15.12-9.56c2.4,0,3.62,2.22,3.62,4.4s-1.22,4.4-3.62,4.4-3.62-2.22-3.62-4.4S235.1,99.44,237.5,99.44Zm0-1.06c-3.14,0-4.88,2.5-4.88,5.46s1.74,5.46,4.88,5.46,4.88-2.5,4.88-5.46S240.64,98.38,237.5,98.38Zm16.68,1.06c2.4,0,3.62,2.22,3.62,4.4s-1.22,4.4-3.62,4.4-3.62-2.22-3.62-4.4S251.78,99.44,254.18,99.44Zm0-1.06c-3.14,0-4.88,2.5-4.88,5.46s1.74,5.46,4.88,5.46,4.88-2.5,4.88-5.46S257.32,98.38,254.18,98.38ZM260.92,109h1.26v-6.02c.06-2.02,1.22-3.54,3.24-3.54,2.04,0,2.62,1.36,2.62,3.12V109h1.26v-6.64c0-2.46-.88-3.98-3.78-3.98a3.519,3.519,0,0,0-3.3,2.08h-.04V98.68h-1.26Zm11.5-5.88c.22-1.88,1.32-3.68,3.4-3.68,2.02,0,3.22,1.78,3.28,3.68Zm7.94,1.06c.1-2.9-1.24-5.8-4.54-5.8-3.28,0-4.66,2.74-4.66,5.46,0,2.94,1.38,5.46,4.66,5.46,2.62,0,3.96-1.36,4.5-3.7h-1.26a3.127,3.127,0,0,1-3.24,2.64c-2.4,0-3.4-2.22-3.4-4.06Zm7.28-7.44h1.26V94.72h-1.26Zm0,12.26h1.26V98.68h-1.26Zm11.12-7.3c-.1-2.24-1.7-3.32-3.78-3.32-1.82,0-3.88.8-3.88,2.9,0,1.74,1.24,2.34,2.88,2.76l1.62.36c1.14.28,2.26.68,2.26,1.88,0,1.44-1.62,1.96-2.82,1.96a2.72,2.72,0,0,1-3.04-2.58h-1.26c.22,2.54,1.82,3.64,4.24,3.64,1.92,0,4.14-.86,4.14-3.1,0-1.8-1.5-2.64-2.94-2.86l-1.68-.38c-.88-.22-2.14-.64-2.14-1.74,0-1.34,1.32-1.78,2.44-1.78,1.44,0,2.64.7,2.7,2.26Zm7.74,11.12h1.26v-5.78h.04a3.671,3.671,0,0,0,3.58,2.26c3.14,0,4.64-2.52,4.64-5.46s-1.5-5.46-4.64-5.46a3.813,3.813,0,0,0-3.68,2.26h-.04V98.68H306.5Zm8.26-8.98c0,2.14-.98,4.4-3.38,4.4-2.66,0-3.62-2.26-3.62-4.4,0-2.34.82-4.4,3.62-4.4C313.78,99.44,314.76,101.7,314.76,103.84Zm11.58-5.16h-1.26v5.42c0,2.1-.94,4.14-3.1,4.14-2,0-2.7-.98-2.76-2.84V98.68h-1.26v6.7c0,2.42,1,3.92,3.62,3.92a3.839,3.839,0,0,0,3.56-2.16h.04V109h1.16Zm9.82,3.02c-.1-2.24-1.7-3.32-3.78-3.32-1.82,0-3.88.8-3.88,2.9,0,1.74,1.24,2.34,2.88,2.76l1.62.36c1.14.28,2.26.68,2.26,1.88,0,1.44-1.62,1.96-2.82,1.96a2.72,2.72,0,0,1-3.04-2.58h-1.26c.22,2.54,1.82,3.64,4.24,3.64,1.92,0,4.14-.86,4.14-3.1,0-1.8-1.5-2.64-2.94-2.86l-1.68-.38c-.88-.22-2.14-.64-2.14-1.74,0-1.34,1.32-1.78,2.44-1.78,1.44,0,2.64.7,2.7,2.26Zm2.16,7.3h1.26v-6.02c.06-2.02,1.22-3.54,3.24-3.54,2.04,0,2.62,1.36,2.62,3.12V109h1.26v-6.64c0-2.46-.88-3.98-3.78-3.98a3.519,3.519,0,0,0-3.3,2.08h-.04V94.72h-1.26ZM349.1,96.74h1.26V94.72H349.1Zm0,12.26h1.26V98.68H349.1Zm3.66,0h1.26v-6.02c.06-2.02,1.22-3.54,3.24-3.54,2.04,0,2.62,1.36,2.62,3.12V109h1.26v-6.64c0-2.46-.88-3.98-3.78-3.98a3.519,3.519,0,0,0-3.3,2.08h-.04V98.68h-1.26Zm19.48-10.32h-1.26v1.78h-.04a3.609,3.609,0,0,0-3.28-2.08c-2.98,0-4.66,2.36-4.66,5.2,0,2.96,1.36,5.3,4.66,5.3a3.524,3.524,0,0,0,3.28-2.12h.04v1.4c0,2.54-.98,3.9-3.32,3.9-1.38,0-2.76-.54-3.02-2.06h-1.26c.16,2.18,2.22,3.12,4.28,3.12,3.34,0,4.58-1.86,4.58-4.96Zm-4.58,9.14c-2.34,0-3.4-2.02-3.4-4.1,0-2.14,1-4.28,3.4-4.28s3.32,2.26,3.32,4.28C370.98,105.8,369.84,107.82,367.66,107.82ZM382.2,95.58h-1.26v3.1h-1.8v1.06h1.8v7.06c-.02,1.76.56,2.32,2.24,2.32.38,0,.74-.04,1.12-.04V108a9.772,9.772,0,0,1-1.08.06c-.9-.06-1.02-.54-1.02-1.36V99.74h2.1V98.68h-2.1ZM386.1,109h1.26v-6.02c.06-2.02,1.22-3.54,3.24-3.54,2.04,0,2.62,1.36,2.62,3.12V109h1.26v-6.64c0-2.46-.88-3.98-3.78-3.98a3.519,3.519,0,0,0-3.3,2.08h-.04V94.72H386.1Zm11.5-5.88c.22-1.88,1.32-3.68,3.4-3.68,2.02,0,3.22,1.78,3.28,3.68Zm7.94,1.06c.1-2.9-1.24-5.8-4.54-5.8-3.28,0-4.66,2.74-4.66,5.46,0,2.94,1.38,5.46,4.66,5.46,2.62,0,3.96-1.36,4.5-3.7h-1.26a3.127,3.127,0,0,1-3.24,2.64c-2.4,0-3.4-2.22-3.4-4.06Zm1.72-7.44h1.26V94.72h-1.26Zm0,12.26h1.26V98.68h-1.26Zm3.68,0h1.26v-5.5a3.555,3.555,0,0,1,3.84-3.7V98.54a3.79,3.79,0,0,0-3.9,2.56h-.04V98.68h-1.16Zm13-7.16c.06-1.68,1.18-2.4,2.76-2.4,1.5,0,2.7.42,2.7,2.12,0,1.12-.58,1.3-1.62,1.4-2.72.32-5.54.44-5.54,3.32,0,2.08,1.54,3.02,3.46,3.02a3.935,3.935,0,0,0,3.76-2.1h.04c0,1.06.2,1.8,1.48,1.8a3.566,3.566,0,0,0,.82-.08v-1.06a.954.954,0,0,1-.4.08.663.663,0,0,1-.74-.76V101.7c0-2.78-1.98-3.32-3.8-3.32-2.38,0-4.04,1.04-4.18,3.46ZM429.4,105a3.318,3.318,0,0,1-3.6,3.24,2.138,2.138,0,0,1-2.3-2.04c0-2,2.66-2,4.8-2.38.34-.06.9-.16,1.06-.46h.04Zm12.5-6.32h-1.26v1.78h-.04a3.609,3.609,0,0,0-3.28-2.08c-2.98,0-4.66,2.36-4.66,5.2,0,2.96,1.36,5.3,4.66,5.3a3.524,3.524,0,0,0,3.28-2.12h.04v1.4c0,2.54-.98,3.9-3.32,3.9-1.38,0-2.76-.54-3.02-2.06h-1.26c.16,2.18,2.22,3.12,4.28,3.12,3.34,0,4.58-1.86,4.58-4.96Zm-4.58,9.14c-2.34,0-3.4-2.02-3.4-4.1,0-2.14,1-4.28,3.4-4.28s3.32,2.26,3.32,4.28C440.64,105.8,439.5,107.82,437.32,107.82Zm7.72-4.7c.22-1.88,1.32-3.68,3.4-3.68,2.02,0,3.22,1.78,3.28,3.68Zm7.94,1.06c.1-2.9-1.24-5.8-4.54-5.8-3.28,0-4.66,2.74-4.66,5.46,0,2.94,1.38,5.46,4.66,5.46,2.62,0,3.96-1.36,4.5-3.7h-1.26a3.127,3.127,0,0,1-3.24,2.64c-2.4,0-3.4-2.22-3.4-4.06Zm1.68,4.82h1.26v-6.02c.06-2.02,1.22-3.54,3.24-3.54,2.04,0,2.62,1.36,2.62,3.12V109h1.26v-6.64c0-2.46-.88-3.98-3.78-3.98a3.519,3.519,0,0,0-3.3,2.08h-.04V98.68h-1.26ZM474.5,94.72h-1.26v5.92h-.04a3.681,3.681,0,0,0-3.58-2.26c-3.14,0-4.64,2.52-4.64,5.46s1.5,5.46,4.64,5.46a4.052,4.052,0,0,0,3.68-2.26h.04V109h1.16Zm-8.26,9.12c0-2.14.98-4.4,3.38-4.4,2.66,0,3.62,2.26,3.62,4.4s-.96,4.4-3.62,4.4C467.22,108.24,466.24,105.98,466.24,103.84Zm11.8-2c.06-1.68,1.18-2.4,2.76-2.4,1.5,0,2.7.42,2.7,2.12,0,1.12-.58,1.3-1.62,1.4-2.72.32-5.54.44-5.54,3.32,0,2.08,1.54,3.02,3.46,3.02a3.935,3.935,0,0,0,3.76-2.1h.04c0,1.06.2,1.8,1.48,1.8a3.566,3.566,0,0,0,.82-.08v-1.06a.954.954,0,0,1-.4.08.663.663,0,0,1-.74-.76V101.7c0-2.78-1.98-3.32-3.8-3.32-2.38,0-4.04,1.04-4.18,3.46ZM483.5,105a3.318,3.318,0,0,1-3.6,3.24,2.138,2.138,0,0,1-2.3-2.04c0-2,2.66-2,4.8-2.38.34-.06.9-.16,1.06-.46h.04Zm6.2,4v-2.12h-1.68V109Zm13.82-12.92,2.76,7.32h-5.62ZM497.06,109h1.46l1.72-4.44h6.5l1.74,4.44h1.46l-5.6-14.28h-1.52Zm19.5,3.82h1.26v-5.78h.04a3.671,3.671,0,0,0,3.58,2.26c3.14,0,4.64-2.52,4.64-5.46s-1.5-5.46-4.64-5.46a3.813,3.813,0,0,0-3.68,2.26h-.04V98.68h-1.16Zm8.26-8.98c0,2.14-.98,4.4-3.38,4.4-2.66,0-3.62-2.26-3.62-4.4,0-2.34.82-4.4,3.62-4.4C523.84,99.44,524.82,101.7,524.82,103.84Zm3.24,5.16h1.26V94.72h-1.26Zm4.82-7.16c.06-1.68,1.18-2.4,2.76-2.4,1.5,0,2.7.42,2.7,2.12,0,1.12-.58,1.3-1.62,1.4-2.72.32-5.54.44-5.54,3.32,0,2.08,1.54,3.02,3.46,3.02a3.935,3.935,0,0,0,3.76-2.1h.04c0,1.06.2,1.8,1.48,1.8a3.566,3.566,0,0,0,.82-.08v-1.06a.954.954,0,0,1-.4.08.663.663,0,0,1-.74-.76V101.7c0-2.78-1.98-3.32-3.8-3.32-2.38,0-4.04,1.04-4.18,3.46Zm5.46,3.16a3.318,3.318,0,0,1-3.6,3.24,2.138,2.138,0,0,1-2.3-2.04c0-2,2.66-2,4.8-2.38.34-.06.9-.16,1.06-.46h.04Zm12.32-3.08a3.845,3.845,0,0,0-4.18-3.54c-3.14,0-4.88,2.5-4.88,5.46s1.74,5.46,4.88,5.46c2.32,0,3.92-1.5,4.26-4h-1.26a3.1,3.1,0,0,1-3,2.94c-2.4,0-3.62-2.22-3.62-4.4s1.22-4.4,3.62-4.4a2.792,2.792,0,0,1,2.92,2.48Zm2.58,1.2c.22-1.88,1.32-3.68,3.4-3.68,2.02,0,3.22,1.78,3.28,3.68Zm7.94,1.06c.1-2.9-1.24-5.8-4.54-5.8-3.28,0-4.66,2.74-4.66,5.46,0,2.94,1.38,5.46,4.66,5.46,2.62,0,3.96-1.36,4.5-3.7h-1.26a3.127,3.127,0,0,1-3.24,2.64c-2.4,0-3.4-2.22-3.4-4.06ZM3.2,125.58H1.94v3.1H.14v1.06h1.8v7.06c-.02,1.76.56,2.32,2.24,2.32.38,0,.74-.04,1.12-.04V138a9.774,9.774,0,0,1-1.08.06c-.9-.06-1.02-.54-1.02-1.36v-6.96H5.3v-1.06H3.2ZM7.1,139H8.36v-6.02c.06-2.02,1.22-3.54,3.24-3.54,2.04,0,2.62,1.36,2.62,3.12V139h1.26v-6.64c0-2.46-.88-3.98-3.78-3.98a3.519,3.519,0,0,0-3.3,2.08H8.36v-5.74H7.1ZM19,131.84c.06-1.68,1.18-2.4,2.76-2.4,1.5,0,2.7.42,2.7,2.12,0,1.12-.58,1.3-1.62,1.4-2.72.32-5.54.44-5.54,3.32,0,2.08,1.54,3.02,3.46,3.02a3.935,3.935,0,0,0,3.76-2.1h.04c0,1.06.2,1.8,1.48,1.8a3.566,3.566,0,0,0,.82-.08v-1.06a.953.953,0,0,1-.4.08.663.663,0,0,1-.74-.76V131.7c0-2.78-1.98-3.32-3.8-3.32-2.38,0-4.04,1.04-4.18,3.46ZM24.46,135a3.318,3.318,0,0,1-3.6,3.24,2.138,2.138,0,0,1-2.3-2.04c0-2,2.66-2,4.8-2.38.34-.06.9-.16,1.06-.46h.04Zm5.78-9.42H28.98v3.1h-1.8v1.06h1.8v7.06c-.02,1.76.56,2.32,2.24,2.32.38,0,.74-.04,1.12-.04V138a9.774,9.774,0,0,1-1.08.06c-.9-.06-1.02-.54-1.02-1.36v-6.96h2.1v-1.06h-2.1Zm10.22,7.54c.22-1.88,1.32-3.68,3.4-3.68,2.02,0,3.22,1.78,3.28,3.68Zm7.94,1.06c.1-2.9-1.24-5.8-4.54-5.8-3.28,0-4.66,2.74-4.66,5.46,0,2.94,1.38,5.46,4.66,5.46,2.62,0,3.96-1.36,4.5-3.7H47.1a3.127,3.127,0,0,1-3.24,2.64c-2.4,0-3.4-2.22-3.4-4.06ZM50.1,139h1.26v-5.76c0-2.16.92-3.8,3.08-3.8,1.62,0,2.16,1.16,2.16,2.56v7h1.26v-5.84c0-1.92.62-3.72,2.8-3.72,1.82,0,2.44.92,2.44,2.62V139h1.26v-7c0-2.42-1.14-3.62-3.42-3.62a3.488,3.488,0,0,0-3.28,2.02,2.869,2.869,0,0,0-2.96-2.02,3.551,3.551,0,0,0-3.38,2.04h-.06v-1.74H50.1Zm16.66,3.82h1.26v-5.78h.04a3.671,3.671,0,0,0,3.58,2.26c3.14,0,4.64-2.52,4.64-5.46s-1.5-5.46-4.64-5.46a3.813,3.813,0,0,0-3.68,2.26h-.04v-1.96H66.76Zm8.26-8.98c0,2.14-.98,4.4-3.38,4.4-2.66,0-3.62-2.26-3.62-4.4,0-2.34.82-4.4,3.62-4.4C74.04,129.44,75.02,131.7,75.02,133.84Zm7.58-4.4c2.4,0,3.62,2.22,3.62,4.4s-1.22,4.4-3.62,4.4-3.62-2.22-3.62-4.4S80.2,129.44,82.6,129.44Zm0-1.06c-3.14,0-4.88,2.5-4.88,5.46s1.74,5.46,4.88,5.46,4.88-2.5,4.88-5.46S85.74,128.38,82.6,128.38ZM91.64,139h1.38l2.52-8.68h.04L98.12,139H99.5l3.32-10.32h-1.34l-2.64,8.84H98.8l-2.52-8.84H94.86l-2.52,8.84H92.3l-2.64-8.84H88.32Zm13.28-5.88c.22-1.88,1.32-3.68,3.4-3.68,2.02,0,3.22,1.78,3.28,3.68Zm7.94,1.06c.1-2.9-1.24-5.8-4.54-5.8-3.28,0-4.66,2.74-4.66,5.46,0,2.94,1.38,5.46,4.66,5.46,2.62,0,3.96-1.36,4.5-3.7h-1.26a3.127,3.127,0,0,1-3.24,2.64c-2.4,0-3.4-2.22-3.4-4.06Zm1.7,4.82h1.26v-5.5a3.555,3.555,0,0,1,3.84-3.7v-1.26a3.79,3.79,0,0,0-3.9,2.56h-.04v-2.42h-1.16Zm13.74-7.3c-.1-2.24-1.7-3.32-3.78-3.32-1.82,0-3.88.8-3.88,2.9,0,1.74,1.24,2.34,2.88,2.76l1.62.36c1.14.28,2.26.68,2.26,1.88,0,1.44-1.62,1.96-2.82,1.96a2.72,2.72,0,0,1-3.04-2.58h-1.26c.22,2.54,1.82,3.64,4.24,3.64,1.92,0,4.14-.86,4.14-3.1,0-1.8-1.5-2.64-2.94-2.86l-1.68-.38c-.88-.22-2.14-.64-2.14-1.74,0-1.34,1.32-1.78,2.44-1.78,1.44,0,2.64.7,2.7,2.26Zm10.7,7.26-.44,1.18c-.42.96-.68,1.62-1.8,1.62a4.2,4.2,0,0,1-.86-.1v1.06a3.363,3.363,0,0,0,.96.1c1.58,0,1.98-.5,2.72-2.24l4.48-11.9H142.8l-3.18,8.8-3.4-8.8h-1.34Zm10.66-9.52c2.4,0,3.62,2.22,3.62,4.4s-1.22,4.4-3.62,4.4-3.62-2.22-3.62-4.4S147.26,129.44,149.66,129.44Zm0-1.06c-3.14,0-4.88,2.5-4.88,5.46s1.74,5.46,4.88,5.46,4.88-2.5,4.88-5.46S152.8,128.38,149.66,128.38Zm15.12.3h-1.26v5.42c0,2.1-.94,4.14-3.1,4.14-2,0-2.7-.98-2.76-2.84v-6.72H156.4v6.7c0,2.42,1,3.92,3.62,3.92a3.839,3.839,0,0,0,3.56-2.16h.04V139h1.16Zm9.94-3.1h-1.26v3.1h-1.8v1.06h1.8v7.06c-.02,1.76.56,2.32,2.24,2.32.38,0,.74-.04,1.12-.04V138a9.774,9.774,0,0,1-1.08.06c-.9-.06-1.02-.54-1.02-1.36v-6.96h2.1v-1.06h-2.1Zm8.28,3.86c2.4,0,3.62,2.22,3.62,4.4s-1.22,4.4-3.62,4.4-3.62-2.22-3.62-4.4S180.6,129.44,183,129.44Zm0-1.06c-3.14,0-4.88,2.5-4.88,5.46s1.74,5.46,4.88,5.46,4.88-2.5,4.88-5.46S186.14,128.38,183,128.38ZM195.32,139h1.26v-5.76c0-2.16.92-3.8,3.08-3.8,1.62,0,2.16,1.16,2.16,2.56v7h1.26v-5.84c0-1.92.62-3.72,2.8-3.72,1.82,0,2.44.92,2.44,2.62V139h1.26v-7c0-2.42-1.14-3.62-3.42-3.62a3.488,3.488,0,0,0-3.28,2.02,2.868,2.868,0,0,0-2.96-2.02,3.551,3.551,0,0,0-3.38,2.04h-.06v-1.74h-1.16Zm17.8-7.16c.06-1.68,1.18-2.4,2.76-2.4,1.5,0,2.7.42,2.7,2.12,0,1.12-.58,1.3-1.62,1.4-2.72.32-5.54.44-5.54,3.32,0,2.08,1.54,3.02,3.46,3.02a3.935,3.935,0,0,0,3.76-2.1h.04c0,1.06.2,1.8,1.48,1.8a3.566,3.566,0,0,0,.82-.08v-1.06a.953.953,0,0,1-.4.08.663.663,0,0,1-.74-.76V131.7c0-2.78-1.98-3.32-3.8-3.32-2.38,0-4.04,1.04-4.18,3.46Zm5.46,3.16a3.318,3.318,0,0,1-3.6,3.24,2.138,2.138,0,0,1-2.3-2.04c0-2,2.66-2,4.8-2.38.34-.06.9-.16,1.06-.46h.04Zm3.78,4h1.26v-3.92l2.04-1.7,4.08,5.62h1.58l-4.7-6.5,4.4-3.82h-1.68l-5.72,5v-8.96h-1.26Zm10.74-5.88c.22-1.88,1.32-3.68,3.4-3.68,2.02,0,3.22,1.78,3.28,3.68Zm7.94,1.06c.1-2.9-1.24-5.8-4.54-5.8-3.28,0-4.66,2.74-4.66,5.46,0,2.94,1.38,5.46,4.66,5.46,2.62,0,3.96-1.36,4.5-3.7h-1.26a3.127,3.127,0,0,1-3.24,2.64c-2.4,0-3.4-2.22-3.4-4.06Zm10.22,4.78-.44,1.18c-.42.96-.68,1.62-1.8,1.62a4.2,4.2,0,0,1-.86-.1v1.06a3.363,3.363,0,0,0,.96.1c1.58,0,1.98-.5,2.72-2.24l4.48-11.9h-1.26l-3.18,8.8-3.4-8.8h-1.34Zm10.66-9.52c2.4,0,3.62,2.22,3.62,4.4s-1.22,4.4-3.62,4.4-3.62-2.22-3.62-4.4S259.52,129.44,261.92,129.44Zm0-1.06c-3.14,0-4.88,2.5-4.88,5.46s1.74,5.46,4.88,5.46,4.88-2.5,4.88-5.46S265.06,128.38,261.92,128.38Zm15.12.3h-1.26v5.42c0,2.1-.94,4.14-3.1,4.14-2,0-2.7-.98-2.76-2.84v-6.72h-1.26v6.7c0,2.42,1,3.92,3.62,3.92a3.839,3.839,0,0,0,3.56-2.16h.04V139h1.16ZM279.42,139h1.26v-5.5a3.555,3.555,0,0,1,3.84-3.7v-1.26a3.79,3.79,0,0,0-3.9,2.56h-.04v-2.42h-1.16Zm16.22-9.56c2.4,0,3.62,2.22,3.62,4.4s-1.22,4.4-3.62,4.4-3.62-2.22-3.62-4.4S293.24,129.44,295.64,129.44Zm0-1.06c-3.14,0-4.88,2.5-4.88,5.46s1.74,5.46,4.88,5.46,4.88-2.5,4.88-5.46S298.78,128.38,295.64,128.38ZM304.68,139h1.38l2.52-8.68h.04l2.54,8.68h1.38l3.32-10.32h-1.34l-2.64,8.84h-.04l-2.52-8.84H307.9l-2.52,8.84h-.04l-2.64-8.84h-1.34Zm12.52,0h1.26v-6.02c.06-2.02,1.22-3.54,3.24-3.54,2.04,0,2.62,1.36,2.62,3.12V139h1.26v-6.64c0-2.46-.88-3.98-3.78-3.98a3.519,3.519,0,0,0-3.3,2.08h-.04v-1.78H317.2Zm25.4-14.28h-1.26v5.92h-.04a3.681,3.681,0,0,0-3.58-2.26c-3.14,0-4.64,2.52-4.64,5.46s1.5,5.46,4.64,5.46a4.052,4.052,0,0,0,3.68-2.26h.04V139h1.16Zm-8.26,9.12c0-2.14.98-4.4,3.38-4.4,2.66,0,3.62,2.26,3.62,4.4s-.96,4.4-3.62,4.4C335.32,138.24,334.34,135.98,334.34,133.84Zm11.4-.72c.22-1.88,1.32-3.68,3.4-3.68,2.02,0,3.22,1.78,3.28,3.68Zm7.94,1.06c.1-2.9-1.24-5.8-4.54-5.8-3.28,0-4.66,2.74-4.66,5.46,0,2.94,1.38,5.46,4.66,5.46,2.62,0,3.96-1.36,4.5-3.7h-1.26a3.127,3.127,0,0,1-3.24,2.64c-2.4,0-3.4-2.22-3.4-4.06Zm10.24-2.26a3.845,3.845,0,0,0-4.18-3.54c-3.14,0-4.88,2.5-4.88,5.46s1.74,5.46,4.88,5.46c2.32,0,3.92-1.5,4.26-4h-1.26a3.1,3.1,0,0,1-3,2.94c-2.4,0-3.62-2.22-3.62-4.4s1.22-4.4,3.62-4.4a2.792,2.792,0,0,1,2.92,2.48Zm1.86-5.18h1.26v-2.02h-1.26Zm0,12.26h1.26V128.68h-1.26Zm11.12-7.3c-.1-2.24-1.7-3.32-3.78-3.32-1.82,0-3.88.8-3.88,2.9,0,1.74,1.24,2.34,2.88,2.76l1.62.36c1.14.28,2.26.68,2.26,1.88,0,1.44-1.62,1.96-2.82,1.96a2.72,2.72,0,0,1-3.04-2.58h-1.26c.22,2.54,1.82,3.64,4.24,3.64,1.92,0,4.14-.86,4.14-3.1,0-1.8-1.5-2.64-2.94-2.86l-1.68-.38c-.88-.22-2.14-.64-2.14-1.74,0-1.34,1.32-1.78,2.44-1.78,1.44,0,2.64.7,2.7,2.26Zm2.2-4.96h1.26v-2.02H379.1Zm0,12.26h1.26V128.68H379.1Zm8.04-9.56c2.4,0,3.62,2.22,3.62,4.4s-1.22,4.4-3.62,4.4-3.62-2.22-3.62-4.4S384.74,129.44,387.14,129.44Zm0-1.06c-3.14,0-4.88,2.5-4.88,5.46s1.74,5.46,4.88,5.46,4.88-2.5,4.88-5.46S390.28,128.38,387.14,128.38ZM393.88,139h1.26v-6.02c.06-2.02,1.22-3.54,3.24-3.54,2.04,0,2.62,1.36,2.62,3.12V139h1.26v-6.64c0-2.46-.88-3.98-3.78-3.98a3.519,3.519,0,0,0-3.3,2.08h-.04v-1.78h-1.26Zm18.2-7.3c-.1-2.24-1.7-3.32-3.78-3.32-1.82,0-3.88.8-3.88,2.9,0,1.74,1.24,2.34,2.88,2.76l1.62.36c1.14.28,2.26.68,2.26,1.88,0,1.44-1.62,1.96-2.82,1.96a2.72,2.72,0,0,1-3.04-2.58h-1.26c.22,2.54,1.82,3.64,4.24,3.64,1.92,0,4.14-.86,4.14-3.1,0-1.8-1.5-2.64-2.94-2.86l-1.68-.38c-.88-.22-2.14-.64-2.14-1.74,0-1.34,1.32-1.78,2.44-1.78,1.44,0,2.64.7,2.7,2.26Zm4.6,7.3v-2.12H415V139ZM3.96,199H5.44l3.6-12.78h.04L12.7,199h1.44l3.94-14.28H16.72l-3.26,12.5h-.04l-3.5-12.5H8.22l-3.48,12.5H4.7l-3.24-12.5H0Zm15.76-5.88c.22-1.88,1.32-3.68,3.4-3.68,2.02,0,3.22,1.78,3.28,3.68Zm7.94,1.06c.1-2.9-1.24-5.8-4.54-5.8-3.28,0-4.66,2.74-4.66,5.46,0,2.94,1.38,5.46,4.66,5.46,2.62,0,3.96-1.36,4.5-3.7H26.36a3.127,3.127,0,0,1-3.24,2.64c-2.4,0-3.4-2.22-3.4-4.06Zm2.48-9.46v2.12h.84c.06.62-.26,1.68-.94,1.88v.86a2.68,2.68,0,0,0,1.78-2.72v-2.14ZM34.92,199h1.26v-5.5a3.555,3.555,0,0,1,3.84-3.7v-1.26a3.79,3.79,0,0,0-3.9,2.56h-.04v-2.42H34.92Zm6.68-5.88c.22-1.88,1.32-3.68,3.4-3.68,2.02,0,3.22,1.78,3.28,3.68Zm7.94,1.06c.1-2.9-1.24-5.8-4.54-5.8-3.28,0-4.66,2.74-4.66,5.46,0,2.94,1.38,5.46,4.66,5.46,2.62,0,3.96-1.36,4.5-3.7H48.24A3.127,3.127,0,0,1,45,198.24c-2.4,0-3.4-2.22-3.4-4.06ZM56.78,199h1.26v-6.02c.06-2.02,1.22-3.54,3.24-3.54,2.04,0,2.62,1.36,2.62,3.12V199h1.26v-6.64c0-2.46-.88-3.98-3.78-3.98a3.519,3.519,0,0,0-3.3,2.08h-.04v-5.74H56.78Zm11.5-5.88c.22-1.88,1.32-3.68,3.4-3.68,2.02,0,3.22,1.78,3.28,3.68Zm7.94,1.06c.1-2.9-1.24-5.8-4.54-5.8-3.28,0-4.66,2.74-4.66,5.46,0,2.94,1.38,5.46,4.66,5.46,2.62,0,3.96-1.36,4.5-3.7H74.92a3.127,3.127,0,0,1-3.24,2.64c-2.4,0-3.4-2.22-3.4-4.06Zm1.7,4.82h1.26v-5.5a3.555,3.555,0,0,1,3.84-3.7v-1.26a3.79,3.79,0,0,0-3.9,2.56h-.04v-2.42H77.92Zm6.68-5.88c.22-1.88,1.32-3.68,3.4-3.68,2.02,0,3.22,1.78,3.28,3.68Zm7.94,1.06c.1-2.9-1.24-5.8-4.54-5.8-3.28,0-4.66,2.74-4.66,5.46,0,2.94,1.38,5.46,4.66,5.46,2.62,0,3.96-1.36,4.5-3.7H91.24A3.127,3.127,0,0,1,88,198.24c-2.4,0-3.4-2.22-3.4-4.06Zm9.26-8.6h-1.26v3.1h-1.8v1.06h1.8v7.06c-.02,1.76.56,2.32,2.24,2.32.38,0,.74-.04,1.12-.04V198a9.774,9.774,0,0,1-1.08.06c-.9-.06-1.02-.54-1.02-1.36v-6.96h2.1v-1.06h-2.1Zm8.28,3.86c2.4,0,3.62,2.22,3.62,4.4s-1.22,4.4-3.62,4.4-3.62-2.22-3.62-4.4S107.68,189.44,110.08,189.44Zm0-1.06c-3.14,0-4.88,2.5-4.88,5.46s1.74,5.46,4.88,5.46,4.88-2.5,4.88-5.46S113.22,188.38,110.08,188.38Zm13.46,3.46c.06-1.68,1.18-2.4,2.76-2.4,1.5,0,2.7.42,2.7,2.12,0,1.12-.58,1.3-1.62,1.4-2.72.32-5.54.44-5.54,3.32,0,2.08,1.54,3.02,3.46,3.02a3.935,3.935,0,0,0,3.76-2.1h.04c0,1.06.2,1.8,1.48,1.8a3.566,3.566,0,0,0,.82-.08v-1.06a.953.953,0,0,1-.4.08.663.663,0,0,1-.74-.76V191.7c0-2.78-1.98-3.32-3.8-3.32-2.38,0-4.04,1.04-4.18,3.46ZM129,195a3.318,3.318,0,0,1-3.6,3.24,2.138,2.138,0,0,1-2.3-2.04c0-2,2.66-2,4.8-2.38.34-.06.9-.16,1.06-.46H129Zm6.06,4h1.38l2.52-8.68H139l2.54,8.68h1.38l3.32-10.32H144.9l-2.64,8.84h-.04l-2.52-8.84h-1.42l-2.52,8.84h-.04l-2.64-8.84h-1.34Zm13.68-7.16c.06-1.68,1.18-2.4,2.76-2.4,1.5,0,2.7.42,2.7,2.12,0,1.12-.58,1.3-1.62,1.4-2.72.32-5.54.44-5.54,3.32,0,2.08,1.54,3.02,3.46,3.02a3.935,3.935,0,0,0,3.76-2.1h.04c0,1.06.2,1.8,1.48,1.8a3.566,3.566,0,0,0,.82-.08v-1.06a.953.953,0,0,1-.4.08.663.663,0,0,1-.74-.76V191.7c0-2.78-1.98-3.32-3.8-3.32-2.38,0-4.04,1.04-4.18,3.46ZM154.2,195a3.318,3.318,0,0,1-3.6,3.24,2.138,2.138,0,0,1-2.3-2.04c0-2,2.66-2,4.8-2.38.34-.06.9-.16,1.06-.46h.04Zm3.78,4h1.26v-3.92l2.04-1.7,4.08,5.62h1.58l-4.7-6.5,4.4-3.82h-1.68l-5.72,5v-8.96h-1.26Zm10.74-5.88c.22-1.88,1.32-3.68,3.4-3.68,2.02,0,3.22,1.78,3.28,3.68Zm7.94,1.06c.1-2.9-1.24-5.8-4.54-5.8-3.28,0-4.66,2.74-4.66,5.46,0,2.94,1.38,5.46,4.66,5.46,2.62,0,3.96-1.36,4.5-3.7h-1.26a3.127,3.127,0,0,1-3.24,2.64c-2.4,0-3.4-2.22-3.4-4.06Zm1.68,4.82h1.26v-6.02c.06-2.02,1.22-3.54,3.24-3.54,2.04,0,2.62,1.36,2.62,3.12V199h1.26v-6.64c0-2.46-.88-3.98-3.78-3.98a3.519,3.519,0,0,0-3.3,2.08h-.04v-1.78h-1.26Zm18.32-13.42H195.4v3.1h-1.8v1.06h1.8v7.06c-.02,1.76.56,2.32,2.24,2.32.38,0,.74-.04,1.12-.04V198a9.774,9.774,0,0,1-1.08.06c-.9-.06-1.02-.54-1.02-1.36v-6.96h2.1v-1.06h-2.1Zm3.9,13.42h1.26v-6.02c.06-2.02,1.22-3.54,3.24-3.54,2.04,0,2.62,1.36,2.62,3.12V199h1.26v-6.64c0-2.46-.88-3.98-3.78-3.98a3.519,3.519,0,0,0-3.3,2.08h-.04v-5.74h-1.26Zm11.5-5.88c.22-1.88,1.32-3.68,3.4-3.68,2.02,0,3.22,1.78,3.28,3.68Zm7.94,1.06c.1-2.9-1.24-5.8-4.54-5.8-3.28,0-4.66,2.74-4.66,5.46,0,2.94,1.38,5.46,4.66,5.46,2.62,0,3.96-1.36,4.5-3.7H218.7a3.127,3.127,0,0,1-3.24,2.64c-2.4,0-3.4-2.22-3.4-4.06Zm7.26,8.64h1.26v-5.78h.04a3.671,3.671,0,0,0,3.58,2.26c3.14,0,4.64-2.52,4.64-5.46s-1.5-5.46-4.64-5.46a3.813,3.813,0,0,0-3.68,2.26h-.04v-1.96h-1.16Zm8.26-8.98c0,2.14-.98,4.4-3.38,4.4-2.66,0-3.62-2.26-3.62-4.4,0-2.34.82-4.4,3.62-4.4C234.54,189.44,235.52,191.7,235.52,193.84Zm7.58-4.4c2.4,0,3.62,2.22,3.62,4.4s-1.22,4.4-3.62,4.4-3.62-2.22-3.62-4.4S240.7,189.44,243.1,189.44Zm0-1.06c-3.14,0-4.88,2.5-4.88,5.46s1.74,5.46,4.88,5.46,4.88-2.5,4.88-5.46S246.24,188.38,243.1,188.38Zm8.76-2.8H250.6v3.1h-1.8v1.06h1.8v7.06c-.02,1.76.56,2.32,2.24,2.32.38,0,.74-.04,1.12-.04V198a9.774,9.774,0,0,1-1.08.06c-.9-.06-1.02-.54-1.02-1.36v-6.96h2.1v-1.06h-2.1Zm4.66,7.54c.22-1.88,1.32-3.68,3.4-3.68,2.02,0,3.22,1.78,3.28,3.68Zm7.94,1.06c.1-2.9-1.24-5.8-4.54-5.8-3.28,0-4.66,2.74-4.66,5.46,0,2.94,1.38,5.46,4.66,5.46,2.62,0,3.96-1.36,4.5-3.7h-1.26a3.127,3.127,0,0,1-3.24,2.64c-2.4,0-3.4-2.22-3.4-4.06Zm1.68,4.82h1.26v-6.02c.06-2.02,1.22-3.54,3.24-3.54,2.04,0,2.62,1.36,2.62,3.12V199h1.26v-6.64c0-2.46-.88-3.98-3.78-3.98a3.519,3.519,0,0,0-3.3,2.08h-.04v-1.78h-1.26Zm12.76-13.42h-1.26v3.1h-1.8v1.06h1.8v7.06c-.02,1.76.56,2.32,2.24,2.32.38,0,.74-.04,1.12-.04V198a9.773,9.773,0,0,1-1.08.06c-.9-.06-1.02-.54-1.02-1.36v-6.96H281v-1.06h-2.1Zm3.94,1.16h1.26v-2.02h-1.26Zm0,12.26h1.26V188.68h-1.26Zm4.82-7.16c.06-1.68,1.18-2.4,2.76-2.4,1.5,0,2.7.42,2.7,2.12,0,1.12-.58,1.3-1.62,1.4-2.72.32-5.54.44-5.54,3.32,0,2.08,1.54,3.02,3.46,3.02a3.935,3.935,0,0,0,3.76-2.1h.04c0,1.06.2,1.8,1.48,1.8a3.566,3.566,0,0,0,.82-.08v-1.06a.954.954,0,0,1-.4.08.663.663,0,0,1-.74-.76V191.7c0-2.78-1.98-3.32-3.8-3.32-2.38,0-4.04,1.04-4.18,3.46Zm5.46,3.16a3.318,3.318,0,0,1-3.6,3.24,2.138,2.138,0,0,1-2.3-2.04c0-2,2.66-2,4.8-2.38.34-.06.9-.16,1.06-.46h.04Zm3.8,4h1.26V184.72h-1.26Zm13.6-9.56c2.4,0,3.62,2.22,3.62,4.4s-1.22,4.4-3.62,4.4-3.62-2.22-3.62-4.4S308.12,189.44,310.52,189.44Zm0-1.06c-3.14,0-4.88,2.5-4.88,5.46s1.74,5.46,4.88,5.46,4.88-2.5,4.88-5.46S313.66,188.38,310.52,188.38Zm10.74.3h-2.04v-.9c0-1.1,0-2,1.38-2a5.163,5.163,0,0,1,.92.1V184.8a6.467,6.467,0,0,0-1.06-.08c-2.04,0-2.5,1.24-2.5,3.02v.94H316.2v1.06h1.76V199h1.26v-9.26h2.04Zm7.9,3.16c.06-1.68,1.18-2.4,2.76-2.4,1.5,0,2.7.42,2.7,2.12,0,1.12-.58,1.3-1.62,1.4-2.72.32-5.54.44-5.54,3.32,0,2.08,1.54,3.02,3.46,3.02a3.935,3.935,0,0,0,3.76-2.1h.04c0,1.06.2,1.8,1.48,1.8a3.566,3.566,0,0,0,.82-.08v-1.06a.954.954,0,0,1-.4.08.663.663,0,0,1-.74-.76V191.7c0-2.78-1.98-3.32-3.8-3.32-2.38,0-4.04,1.04-4.18,3.46Zm5.46,3.16a3.318,3.318,0,0,1-3.6,3.24,2.138,2.138,0,0,1-2.3-2.04c0-2,2.66-2,4.8-2.38.34-.06.9-.16,1.06-.46h.04Zm11.62,4h1.38l2.52-8.68h.04l2.54,8.68h1.38l3.32-10.32h-1.34l-2.64,8.84h-.04l-2.52-8.84h-1.42l-2.52,8.84h-.04l-2.64-8.84h-1.34Zm13.28-5.88c.22-1.88,1.32-3.68,3.4-3.68,2.02,0,3.22,1.78,3.28,3.68Zm7.94,1.06c.1-2.9-1.24-5.8-4.54-5.8-3.28,0-4.66,2.74-4.66,5.46,0,2.94,1.38,5.46,4.66,5.46,2.62,0,3.96-1.36,4.5-3.7h-1.26a3.127,3.127,0,0,1-3.24,2.64c-2.4,0-3.4-2.22-3.4-4.06Zm1.72,4.82h1.26V184.72h-1.26Zm3.7,0h1.26V184.72h-1.26Zm8.68-4.92v-1.16h-5v1.16Zm2.42-7.34h1.26v-2.02h-1.26Zm0,12.26h1.26V188.68h-1.26Zm3.66,0h1.26v-6.02c.06-2.02,1.22-3.54,3.24-3.54,2.04,0,2.62,1.36,2.62,3.12V199h1.26v-6.64c0-2.46-.88-3.98-3.78-3.98a3.519,3.519,0,0,0-3.3,2.08h-.04v-1.78h-1.26Zm14.74-10.32h-2.04v-.9c0-1.1,0-2,1.38-2a5.163,5.163,0,0,1,.92.1V184.8a6.467,6.467,0,0,0-1.06-.08c-2.04,0-2.5,1.24-2.5,3.02v.94h-1.76v1.06h1.76V199h1.26v-9.26h2.04Zm5.56.76c2.4,0,3.62,2.22,3.62,4.4s-1.22,4.4-3.62,4.4-3.62-2.22-3.62-4.4S405.54,189.44,407.94,189.44Zm0-1.06c-3.14,0-4.88,2.5-4.88,5.46s1.74,5.46,4.88,5.46,4.88-2.5,4.88-5.46S411.08,188.38,407.94,188.38ZM414.7,199h1.26v-5.5a3.555,3.555,0,0,1,3.84-3.7v-1.26a3.79,3.79,0,0,0-3.9,2.56h-.04v-2.42H414.7Zm6.3,0h1.26v-5.76c0-2.16.92-3.8,3.08-3.8,1.62,0,2.16,1.16,2.16,2.56v7h1.26v-5.84c0-1.92.62-3.72,2.8-3.72,1.82,0,2.44.92,2.44,2.62V199h1.26v-7c0-2.42-1.14-3.62-3.42-3.62a3.488,3.488,0,0,0-3.28,2.02,2.869,2.869,0,0,0-2.96-2.02,3.551,3.551,0,0,0-3.38,2.04h-.06v-1.74H421Zm17.4-5.88c.22-1.88,1.32-3.68,3.4-3.68,2.02,0,3.22,1.78,3.28,3.68Zm7.94,1.06c.1-2.9-1.24-5.8-4.54-5.8-3.28,0-4.66,2.74-4.66,5.46,0,2.94,1.38,5.46,4.66,5.46,2.62,0,3.96-1.36,4.5-3.7h-1.26a3.127,3.127,0,0,1-3.24,2.64c-2.4,0-3.4-2.22-3.4-4.06Zm10.78-9.46h-1.26v5.92h-.04a3.681,3.681,0,0,0-3.58-2.26c-3.14,0-4.64,2.52-4.64,5.46s1.5,5.46,4.64,5.46a4.052,4.052,0,0,0,3.68-2.26h.04V199h1.16Zm-8.26,9.12c0-2.14.98-4.4,3.38-4.4,2.66,0,3.62,2.26,3.62,4.4s-.96,4.4-3.62,4.4C449.84,198.24,448.86,195.98,448.86,193.84Zm18.5,5.16h1.38l2.52-8.68h.04l2.54,8.68h1.38l3.32-10.32H477.2l-2.64,8.84h-.04L472,188.68h-1.42l-2.52,8.84h-.04l-2.64-8.84h-1.34Zm16.9-9.56c2.4,0,3.62,2.22,3.62,4.4s-1.22,4.4-3.62,4.4-3.62-2.22-3.62-4.4S481.86,189.44,484.26,189.44Zm0-1.06c-3.14,0-4.88,2.5-4.88,5.46s1.74,5.46,4.88,5.46,4.88-2.5,4.88-5.46S487.4,188.38,484.26,188.38ZM491.02,199h1.26v-5.5a3.555,3.555,0,0,1,3.84-3.7v-1.26a3.79,3.79,0,0,0-3.9,2.56h-.04v-2.42h-1.16Zm6.32,0h1.26V184.72h-1.26Zm12.76-14.28h-1.26v5.92h-.04a3.681,3.681,0,0,0-3.58-2.26c-3.14,0-4.64,2.52-4.64,5.46s1.5,5.46,4.64,5.46a4.052,4.052,0,0,0,3.68-2.26h.04V199h1.16Zm-8.26,9.12c0-2.14.98-4.4,3.38-4.4,2.66,0,3.62,2.26,3.62,4.4s-.96,4.4-3.62,4.4C502.82,198.24,501.84,195.98,501.84,193.84ZM514.92,199v-2.12h-1.68V199ZM1.44,259H11.4v-1.16H2.8V252.2h7.96v-1.16H2.8v-5.16h8.5v-1.16H1.44Zm14.44,0h1.34l3.86-10.32h-1.3l-3.2,9.06h-.04l-3.24-9.06H11.9Zm10.8-9.56c2.4,0,3.62,2.22,3.62,4.4s-1.22,4.4-3.62,4.4-3.62-2.22-3.62-4.4S24.28,249.44,26.68,249.44Zm0-1.06c-3.14,0-4.88,2.5-4.88,5.46s1.74,5.46,4.88,5.46,4.88-2.5,4.88-5.46S29.82,248.38,26.68,248.38ZM33.46,259h1.26V244.72H33.46Zm6.5,0H41.3l3.86-10.32h-1.3l-3.2,9.06h-.04l-3.24-9.06h-1.4Zm7.18-5.88c.22-1.88,1.32-3.68,3.4-3.68,2.02,0,3.22,1.78,3.28,3.68Zm7.94,1.06c.1-2.9-1.24-5.8-4.54-5.8-3.28,0-4.66,2.74-4.66,5.46,0,2.94,1.38,5.46,4.66,5.46,2.62,0,3.96-1.36,4.5-3.7H53.78a3.127,3.127,0,0,1-3.24,2.64c-2.4,0-3.4-2.22-3.4-4.06ZM64.62,259H66l2.52-8.68h.04L71.1,259h1.38l3.32-10.32H74.46l-2.64,8.84h-.04l-2.52-8.84H67.84l-2.52,8.84h-.04l-2.64-8.84H61.3Zm12.56-12.26h1.26v-2.02H77.18Zm0,12.26h1.26V248.68H77.18Zm5.68-13.42H81.6v3.1H79.8v1.06h1.8v7.06c-.02,1.76.56,2.32,2.24,2.32.38,0,.74-.04,1.12-.04V258a9.77,9.77,0,0,1-1.08.06c-.9-.06-1.02-.54-1.02-1.36v-6.96h2.1v-1.06h-2.1ZM86.76,259h1.26v-6.02c.06-2.02,1.22-3.54,3.24-3.54,2.04,0,2.62,1.36,2.62,3.12V259h1.26v-6.64c0-2.46-.88-3.98-3.78-3.98a3.519,3.519,0,0,0-3.3,2.08h-.04v-5.74H86.76Zm24.68-10.32h-1.26v5.42c0,2.1-.94,4.14-3.1,4.14-2,0-2.7-.98-2.76-2.84v-6.72h-1.26v6.7c0,2.42,1,3.92,3.62,3.92a3.839,3.839,0,0,0,3.56-2.16h.04V259h1.16Zm9.82,3.02c-.1-2.24-1.7-3.32-3.78-3.32-1.82,0-3.88.8-3.88,2.9,0,1.74,1.24,2.34,2.88,2.76l1.62.36c1.14.28,2.26.68,2.26,1.88,0,1.44-1.62,1.96-2.82,1.96a2.72,2.72,0,0,1-3.04-2.58h-1.26c.22,2.54,1.82,3.64,4.24,3.64,1.92,0,4.14-.86,4.14-3.1,0-1.8-1.5-2.64-2.94-2.86l-1.68-.38c-.88-.22-2.14-.64-2.14-1.74,0-1.34,1.32-1.78,2.44-1.78,1.44,0,2.64.7,2.7,2.26Zm4.6,7.3v-2.12h-1.68V259Z" transform="translate(20453 -6129)"/>
    <path id="Path_336" data-name="Path 336" d="M2.752-18.464a2.307,2.307,0,0,0-.7-1.264A2.71,2.71,0,0,0,.48-20.064V-21.12H8.512v1.056H7.072a1.157,1.157,0,0,0-.592.112.437.437,0,0,0-.176.4,2.626,2.626,0,0,0,.1.576L10.144-4.384h.128l4.064-16.288h2.528l4.384,16.32h.16L24.9-18.56a7.408,7.408,0,0,0,.192-.992.444.444,0,0,0-.176-.384,1.111,1.111,0,0,0-.624-.128H22.464V-21.12h6.72v1.056a2.645,2.645,0,0,0-1.888.56,4.511,4.511,0,0,0-.96,2.1L21.632,0H18.784L14.592-15.3h-.128L10.5,0H7.648ZM42.272-7.328h-9.6a8.094,8.094,0,0,0,1.056,4.192A3.594,3.594,0,0,0,36.96-1.7a4.4,4.4,0,0,0,2.592-.72,4.864,4.864,0,0,0,1.632-2.16L42.176-4a7.791,7.791,0,0,1-2.24,3.136A6.69,6.69,0,0,1,35.616.32q-6.88,0-6.88-7.776,0-3.936,1.744-5.92a6.434,6.434,0,0,1,5.1-1.984q3.52,0,5.1,2.048a8.88,8.88,0,0,1,1.584,5.568Zm-3.9-1.28a12.333,12.333,0,0,0-.512-4.16,2.063,2.063,0,0,0-2.144-1.312,2.424,2.424,0,0,0-2.288,1.312,9.507,9.507,0,0,0-.784,4.16Zm6.208,7.552A4.818,4.818,0,0,0,45.968-1.2a.839.839,0,0,0,.56-.464,2.851,2.851,0,0,0,.128-.992v-16.1a2.512,2.512,0,0,0-.192-1.2.8.8,0,0,0-.736-.3h-.96v-1.088l4.7-.736h.9V-2.656a2.688,2.688,0,0,0,.144,1.008.838.838,0,0,0,.576.464,5.052,5.052,0,0,0,1.328.128V0h-7.84ZM61.408.32a6.831,6.831,0,0,1-5.2-1.9Q54.4-3.488,54.4-7.36q0-4,1.888-6a7.123,7.123,0,0,1,5.44-2,8.223,8.223,0,0,1,3.3.576,4.3,4.3,0,0,1,1.92,1.488,3.48,3.48,0,0,1,.608,1.968,2.149,2.149,0,0,1-.5,1.5,1.748,1.748,0,0,1-1.36.544,1.7,1.7,0,0,1-1.328-.512A1.879,1.879,0,0,1,63.9-11.1a1.951,1.951,0,0,1,.144-.8q.144-.32.176-.384a1.353,1.353,0,0,0,.224-.64.946.946,0,0,0-.576-.832,3.487,3.487,0,0,0-1.664-.32,3.424,3.424,0,0,0-2.88,1.28q-.992,1.28-.992,4.64a9.02,9.02,0,0,0,1.056,4.9,3.636,3.636,0,0,0,3.264,1.6A3.942,3.942,0,0,0,65.392-2.5a7.14,7.14,0,0,0,1.552-2.112l.8.48A6.84,6.84,0,0,1,65.552-.816,6.607,6.607,0,0,1,61.408.32ZM77.6.32q-3.84,0-5.648-1.888t-1.808-5.92q0-4.032,1.824-5.968t5.7-1.936q3.808,0,5.6,1.9t1.792,5.936q0,4.064-1.808,5.968T77.6.32Zm0-1.28a2.822,2.822,0,0,0,2.688-1.568A10.732,10.732,0,0,0,81.12-7.36a11.46,11.46,0,0,0-.864-5.12,2.848,2.848,0,0,0-2.688-1.632A2.826,2.826,0,0,0,74.9-12.528a11.128,11.128,0,0,0-.848,5.008A11.019,11.019,0,0,0,74.9-2.528,2.856,2.856,0,0,0,77.6-.96Zm34.912-1.7a2.67,2.67,0,0,0,.144,1.024.841.841,0,0,0,.56.448,5.2,5.2,0,0,0,1.376.128V0h-7.584V-1.056a6.279,6.279,0,0,0,1.216-.08.644.644,0,0,0,.48-.368,2.692,2.692,0,0,0,.128-.992v-7.68a3.332,3.332,0,0,0-.72-2.3,2.593,2.593,0,0,0-2.032-.8,3.412,3.412,0,0,0-1.68.416,4.964,4.964,0,0,0-1.456,1.312v8.9a3,3,0,0,0,.128,1.008.772.772,0,0,0,.512.464,4.03,4.03,0,0,0,1.184.128V0h-7.36V-1.056a6.279,6.279,0,0,0,1.216-.08.691.691,0,0,0,.5-.368,2.417,2.417,0,0,0,.144-.992v-7.68a3.332,3.332,0,0,0-.72-2.3,2.675,2.675,0,0,0-2.1-.8,3.91,3.91,0,0,0-3.072,1.44V-2.5a2.417,2.417,0,0,0,.144.992.691.691,0,0,0,.5.368,5.81,5.81,0,0,0,1.152.08V0H87.584V-1.056a5.2,5.2,0,0,0,1.376-.128.788.788,0,0,0,.544-.448,2.977,2.977,0,0,0,.128-1.024V-11.9a2.417,2.417,0,0,0-.192-1.168.767.767,0,0,0-.7-.3h-.96v-1.088l4.608-.736h.9v1.984A10.01,10.01,0,0,1,95.936-14.8a7.271,7.271,0,0,1,2.688-.56,4.588,4.588,0,0,1,2.576.7,3.766,3.766,0,0,1,1.488,1.728,7.737,7.737,0,0,1,2.544-1.76,7.43,7.43,0,0,1,3.024-.672,4.023,4.023,0,0,1,3.136,1.232,4.978,4.978,0,0,1,1.12,3.472ZM129.92-7.328h-9.6a8.1,8.1,0,0,0,1.056,4.192,3.594,3.594,0,0,0,3.232,1.44,4.4,4.4,0,0,0,2.592-.72,4.864,4.864,0,0,0,1.632-2.16l.992.576a7.791,7.791,0,0,1-2.24,3.136A6.69,6.69,0,0,1,123.264.32q-6.88,0-6.88-7.776,0-3.936,1.744-5.92a6.434,6.434,0,0,1,5.1-1.984q3.52,0,5.1,2.048a8.88,8.88,0,0,1,1.584,5.568Zm-3.9-1.28a12.333,12.333,0,0,0-.512-4.16,2.063,2.063,0,0,0-2.144-1.312,2.424,2.424,0,0,0-2.288,1.312,9.507,9.507,0,0,0-.784,4.16ZM144.8.352a3.755,3.755,0,0,1-2.752-.976,3.709,3.709,0,0,1-.992-2.768V-13.76h-1.888v-1.056a5.234,5.234,0,0,0,2.656-1.776,9.473,9.473,0,0,0,1.568-3.472h1.344v5.024h3.424v1.28h-3.424v9.248a3.486,3.486,0,0,0,.544,2.144,2.008,2.008,0,0,0,1.7.7,3.969,3.969,0,0,0,1.6-.32l.352.8A16.056,16.056,0,0,1,146.9-.032,5.075,5.075,0,0,1,144.8.352ZM157.888.32q-3.84,0-5.648-1.888t-1.808-5.92q0-4.032,1.824-5.968t5.7-1.936q3.808,0,5.6,1.9t1.792,5.936q0,4.064-1.808,5.968T157.888.32Zm0-1.28a2.822,2.822,0,0,0,2.688-1.568,10.732,10.732,0,0,0,.832-4.832,11.46,11.46,0,0,0-.864-5.12,2.848,2.848,0,0,0-2.688-1.632,2.826,2.826,0,0,0-2.672,1.584,11.128,11.128,0,0,0-.848,5.008,11.019,11.019,0,0,0,.848,4.992A2.856,2.856,0,0,0,157.888-.96Zm19.232-17.5a4.019,4.019,0,0,0-.448-.992A1.256,1.256,0,0,0,176-19.92a4.394,4.394,0,0,0-1.28-.144V-21.12H183.1v1.056H181.7q-.768,0-.768.576a1.644,1.644,0,0,0,.1.512l4.928,14.912h.16l4.672-14.5a3.071,3.071,0,0,0,.192-.9.542.542,0,0,0-.192-.464,1.021,1.021,0,0,0-.608-.144H188.64V-21.12h6.624v1.056a3.07,3.07,0,0,0-1.7.384,2.643,2.643,0,0,0-.928,1.344L186.144,0H183.36ZM201.568.32q-3.84,0-5.648-1.888t-1.808-5.92q0-4.032,1.824-5.968t5.7-1.936q3.808,0,5.6,1.9t1.792,5.936q0,4.064-1.808,5.968T201.568.32Zm0-1.28a2.822,2.822,0,0,0,2.688-1.568,10.732,10.732,0,0,0,.832-4.832,11.46,11.46,0,0,0-.864-5.12,2.848,2.848,0,0,0-2.688-1.632,2.826,2.826,0,0,0-2.672,1.584,11.128,11.128,0,0,0-.848,5.008,11.019,11.019,0,0,0,.848,4.992A2.856,2.856,0,0,0,201.568-.96Zm9.056-.1a4.818,4.818,0,0,0,1.392-.144.839.839,0,0,0,.56-.464,2.85,2.85,0,0,0,.128-.992v-16.1a2.512,2.512,0,0,0-.192-1.2.8.8,0,0,0-.736-.3h-.96v-1.088l4.7-.736h.9V-2.656a2.688,2.688,0,0,0,.144,1.008.838.838,0,0,0,.576.464,5.052,5.052,0,0,0,1.328.128V0h-7.84ZM221.344-12.8a1.89,1.89,0,0,0-.688-.944,2.9,2.9,0,0,0-1.392-.24V-15.04h7.36v1.056H225.5q-.608,0-.608.48a1.751,1.751,0,0,0,.064.384l3.648,9.568h.1l3.36-9.5a2.81,2.81,0,0,0,.064-.416q0-.512-.64-.512H230.24V-15.04h5.824v1.056a2.57,2.57,0,0,0-1.408.288,2.165,2.165,0,0,0-.7,1.024L228.736,0h-2.368Z" transform="translate(20453 -6171)"/>
  </g>
</svg>
