<svg xmlns="http://www.w3.org/2000/svg" width="219.555" height="89.737" viewBox="0 0 219.555 89.737">
  <g id="Group_969" data-name="Group 969" transform="translate(-852.25 -928.86)">
    <g id="Group_806" data-name="Group 806" transform="translate(970.469 986.564) rotate(90)">
      <line id="Line_2" data-name="Line 2" x2="28.592" transform="translate(0 10.375)" fill="none" stroke="#fcccb1" stroke-linecap="round" stroke-width="4"/>
      <path id="Path_251" data-name="Path 251" d="M0,0,10.385,10.383l-.865.863L0,20.764" transform="translate(19.648 0)" fill="none" stroke="#fcccb1" stroke-linecap="round" stroke-linejoin="round" stroke-width="4"/>
    </g>
    <path id="Path_305" data-name="Path 305" d="M2.25-1.305a10.977,10.977,0,0,0,2.408-.18,1.138,1.138,0,0,0,.878-.7,6.286,6.286,0,0,0,.18-1.822V-25.7a5.425,5.425,0,0,0-.2-1.778,1.259,1.259,0,0,0-.9-.72,9.53,9.53,0,0,0-2.363-.2v-1.3H13.41v1.3a10.092,10.092,0,0,0-2.43.2,1.27,1.27,0,0,0-.922.72,5.425,5.425,0,0,0-.2,1.778V-5.13a5.063,5.063,0,0,0,.427,2.408,2.124,2.124,0,0,0,1.508.968,18.875,18.875,0,0,0,3.465.225,13.175,13.175,0,0,0,4.095-.5A4.2,4.2,0,0,0,21.6-3.8,12.784,12.784,0,0,0,23-7.7h1.17L23.67,0H2.25ZM45.72-10.35H31.41a13.731,13.731,0,0,0,1.507,6.615q1.417,2.43,5.017,2.43a6.034,6.034,0,0,0,4.14-1.35,7.92,7.92,0,0,0,2.25-3.465l1.26.54A9.767,9.767,0,0,1,42.66-1.17Q40.68.5,36.765.5,31.95.5,29.588-2.3t-2.362-8.01q0-5.355,2.43-8.3t7.155-2.948q8.91,0,8.91,10.8Zm-4.185-1.44A14.666,14.666,0,0,0,40.5-18.113a3.732,3.732,0,0,0-3.645-2.047,4.351,4.351,0,0,0-3.96,2.092A13.152,13.152,0,0,0,31.41-11.79ZM55.08.5a4.692,4.692,0,0,1-3.127-1.08A4.534,4.534,0,0,1,50.67-4.23V-19.62H47.385v-1.35q4.68-.495,5.805-6.93H54.5v6.84h5v1.44h-5V-4.905a4.665,4.665,0,0,0,.563,2.633,1.938,1.938,0,0,0,1.688.788,3.668,3.668,0,0,0,1.485-.337,6.635,6.635,0,0,0,1.305-.743l.5,1.08A16.131,16.131,0,0,1,57.668,0,5.893,5.893,0,0,1,55.08.5ZM64.4-20.925a.64.64,0,0,1-.562-.225,1.822,1.822,0,0,1-.248-.675l-.72-4.635a11.828,11.828,0,0,1-.225-2.115,2.017,2.017,0,0,1,.405-1.282,1.613,1.613,0,0,1,1.35-.517,1.571,1.571,0,0,1,1.755,1.8,19.033,19.033,0,0,1-.18,2.115l-.765,4.635a1.822,1.822,0,0,1-.247.675A.64.64,0,0,1,64.4-20.925ZM78.48.5A8.729,8.729,0,0,1,76.343.27a14.457,14.457,0,0,1-1.777-.585A4.8,4.8,0,0,0,72.99-.72a1.074,1.074,0,0,0-.7.2,1.98,1.98,0,0,0-.473.653h-.855l-.45-7.425h.9a9.675,9.675,0,0,0,2.61,4.747,6.005,6.005,0,0,0,4.185,1.6,4.884,4.884,0,0,0,3.173-.967,3.308,3.308,0,0,0,1.192-2.723A3.215,3.215,0,0,0,81.9-6.728a5.129,5.129,0,0,0-1.62-1.327A29.588,29.588,0,0,0,77.49-9.27l-1.125-.4a12.915,12.915,0,0,1-4.027-2.363,4.5,4.5,0,0,1-1.283-3.4,5.482,5.482,0,0,1,2-4.477,8.075,8.075,0,0,1,5.287-1.643,9.255,9.255,0,0,1,1.755.135,14.778,14.778,0,0,1,1.53.405,5.486,5.486,0,0,0,1.17.27.814.814,0,0,0,.63-.2,1.263,1.263,0,0,0,.247-.382.964.964,0,0,0,.068-.225h.81l.315,6.615h-.9q-1.215-5.22-5.4-5.22a4.9,4.9,0,0,0-3.037.9,2.8,2.8,0,0,0-1.193,2.34,3.025,3.025,0,0,0,1.148,2.407,8.974,8.974,0,0,0,2.767,1.552l1.215.405a14.7,14.7,0,0,1,4.972,2.61,5.006,5.006,0,0,1,1.6,3.915,5.9,5.9,0,0,1-2.115,4.725A8.108,8.108,0,0,1,78.48.5Zm42.39-1.8V0h-6.3l-.315-2.16A15,15,0,0,1,111.2-.225,8.879,8.879,0,0,1,107.37.54a7.149,7.149,0,0,1-6.052-2.745Q99.225-4.95,99.225-10.17q0-5.805,2.52-8.6a8.977,8.977,0,0,1,7.02-2.79,8.367,8.367,0,0,1,5.22,1.755v-.18h.135v-6.84a3.253,3.253,0,0,0-.27-1.62,1.215,1.215,0,0,0-1.08-.405h-1.62V-30.15l5.535-.99H117.9V-3.42a2.644,2.644,0,0,0,.382,1.688,1.86,1.86,0,0,0,1.418.428Zm-17.415-9.4q0,9.36,5.49,9.36a5.216,5.216,0,0,0,2.655-.675,15.269,15.269,0,0,0,2.52-1.89v-13.95a6.637,6.637,0,0,0-4.86-2.3,4.843,4.843,0,0,0-4.342,2.25Q103.455-15.66,103.455-10.71Zm23.85-14.58a2.408,2.408,0,0,1-1.777-.7,2.352,2.352,0,0,1-.7-1.733,2.484,2.484,0,0,1,.7-1.8,2.368,2.368,0,0,1,1.777-.72,2.35,2.35,0,0,1,1.8.72,2.53,2.53,0,0,1,.675,1.8,2.352,2.352,0,0,1-.7,1.733A2.408,2.408,0,0,1,127.305-25.29Zm-4.86,23.985a8.632,8.632,0,0,0,2.115-.18,1.06,1.06,0,0,0,.787-.63,5.609,5.609,0,0,0,.158-1.62v-13.41a3.221,3.221,0,0,0-.248-1.552q-.248-.382-1.057-.383h-1.53v-1.35l5.445-.9h1.26v17.6a5.167,5.167,0,0,0,.18,1.643,1.051,1.051,0,0,0,.788.63,9.489,9.489,0,0,0,2.092.158V0h-9.99Zm13.68-16.605a3.075,3.075,0,0,0-1.013-1.485,3.974,3.974,0,0,0-2-.36V-21.06h9.36v1.305h-1.8q-.855,0-.855.765a1.834,1.834,0,0,0,.135.63l5.13,14.085h.135l5.085-14.13a2.461,2.461,0,0,0,.09-.54q0-.81-.765-.81h-1.98V-21.06h7.56v1.305a3.906,3.906,0,0,0-2.025.382,3.136,3.136,0,0,0-1.035,1.462L145.035,0h-2.16Zm37.3,7.56H159.12a13.731,13.731,0,0,0,1.508,6.615q1.417,2.43,5.017,2.43a6.034,6.034,0,0,0,4.14-1.35,7.92,7.92,0,0,0,2.25-3.465l1.26.54a9.767,9.767,0,0,1-2.925,4.41Q168.39.5,164.475.5,159.66.5,157.3-2.3t-2.363-8.01q0-5.355,2.43-8.3t7.155-2.948q8.91,0,8.91,10.8Zm-4.185-1.44a14.666,14.666,0,0,0-1.035-6.323,3.732,3.732,0,0,0-3.645-2.047,4.351,4.351,0,0,0-3.96,2.092,13.152,13.152,0,0,0-1.485,6.278Zm21.645-13.5a2.408,2.408,0,0,1-1.777-.7,2.352,2.352,0,0,1-.7-1.733,2.484,2.484,0,0,1,.7-1.8,2.368,2.368,0,0,1,1.777-.72,2.35,2.35,0,0,1,1.8.72,2.53,2.53,0,0,1,.675,1.8,2.352,2.352,0,0,1-.7,1.733A2.408,2.408,0,0,1,190.89-25.29ZM186.03-1.305a8.631,8.631,0,0,0,2.115-.18,1.059,1.059,0,0,0,.787-.63,5.61,5.61,0,0,0,.158-1.62v-13.41a3.221,3.221,0,0,0-.247-1.552q-.247-.382-1.057-.383h-1.53v-1.35l5.445-.9h1.26v17.6a5.167,5.167,0,0,0,.18,1.643,1.051,1.051,0,0,0,.788.63,9.489,9.489,0,0,0,2.092.158V0h-9.99Zm32.67-2.43a4.967,4.967,0,0,0,.18,1.6,1.118,1.118,0,0,0,.81.653,8.631,8.631,0,0,0,2.115.18V0H211.95V-1.305a8.872,8.872,0,0,0,2.025-.158,1.048,1.048,0,0,0,.765-.608,4.746,4.746,0,0,0,.18-1.575V-14.58a5.6,5.6,0,0,0-1.012-3.488,3.735,3.735,0,0,0-3.173-1.327,5.129,5.129,0,0,0-2.97.832,9.993,9.993,0,0,0-2.34,2.363V-3.645a4.968,4.968,0,0,0,.18,1.6.987.987,0,0,0,.765.608,9.982,9.982,0,0,0,1.98.135V0h-9.855V-1.305a8.631,8.631,0,0,0,2.115-.18,1.06,1.06,0,0,0,.788-.63,5.61,5.61,0,0,0,.157-1.62v-13.41a2.987,2.987,0,0,0-.27-1.552,1.191,1.191,0,0,0-1.035-.383h-1.53v-1.35l5.31-.9h1.26V-18h.045a10.559,10.559,0,0,1,3.285-2.677,8.836,8.836,0,0,1,4.005-.878q6.075,0,6.075,6.48Z" transform="translate(850 960)" fill="#fff"/>
  </g>
</svg>
