<svg xmlns="http://www.w3.org/2000/svg" xmlns:xlink="http://www.w3.org/1999/xlink" width="796.265" height="551.448" viewBox="0 0 796.265 551.448">
  <defs>
    <filter id="Path_301" x="0" y="0" width="796.265" height="551.448" filterUnits="userSpaceOnUse">
      <feOffset dy="25" input="SourceAlpha"/>
      <feGaussianBlur stdDeviation="15" result="blur"/>
      <feFlood flood-opacity="0.2"/>
      <feComposite operator="in" in2="blur"/>
      <feComposite in="SourceGraphic"/>
    </filter>
    <linearGradient id="linear-gradient" x1="0.5" x2="0.5" y2="1" gradientUnits="objectBoundingBox">
      <stop offset="0" stop-color="#ecebec"/>
      <stop offset="1" stop-color="#d4d3d4"/>
    </linearGradient>
  </defs>
  <g id="Group_968" data-name="Group 968" transform="translate(3819 7789)">
    <g transform="matrix(1, 0, 0, 1, -3819, -7789)" filter="url(#Path_301)">
      <g id="Path_301-2" data-name="Path 301" transform="translate(46 21)" fill="#fff">
        <path d="M5.956,0H698.309a5.78,5.78,0,0,1,5.956,5.586V453.862a5.78,5.78,0,0,1-5.956,5.586H5.956A5.78,5.78,0,0,1,0,453.862V5.586A5.78,5.78,0,0,1,5.956,0Z" stroke="none"/>
        <path d="M 5.95574951171875 3.0517578125e-05 C 2.66644287109375 3.0517578125e-05 -6.103515625e-05 2.500946044921875 -6.103515625e-05 5.586029052734375 L -6.103515625e-05 453.8623046875 C -6.103515625e-05 456.9472961425781 2.66644287109375 459.4482116699219 5.95574951171875 459.4482116699219 L 698.3088989257813 459.4482116699219 C 701.5982055664063 459.4482116699219 704.2645874023438 456.9472961425781 704.2645874023438 453.8623046875 L 704.2645874023438 5.586029052734375 C 704.2645874023438 2.500946044921875 701.5982055664063 3.0517578125e-05 698.3088989257813 3.0517578125e-05 L 5.95574951171875 3.0517578125e-05 M 5.95574951171875 -0.999969482421875 L 698.3088989257813 -0.999969482421875 C 702.1442260742188 -0.999969482421875 705.2645874023438 1.954498291015625 705.2645874023438 5.586029052734375 L 705.2645874023438 453.8623046875 C 705.2645874023438 457.4937438964844 702.1442260742188 460.4482116699219 698.3088989257813 460.4482116699219 L 5.95574951171875 460.4482116699219 C 2.12030029296875 460.4482116699219 -1.00006103515625 457.4937438964844 -1.00006103515625 453.8623046875 L -1.00006103515625 5.586029052734375 C -1.00006103515625 1.954498291015625 2.12030029296875 -0.999969482421875 5.95574951171875 -0.999969482421875 Z" stroke="none" fill="rgba(0,0,0,0.1)"/>
      </g>
    </g>
    <g id="Title_bar" data-name="Title bar" transform="translate(-3773 -7768)">
      <path id="Rectangle_210" data-name="Rectangle 210" d="M4,0H701a4,4,0,0,1,4,4V22a0,0,0,0,1,0,0H0a0,0,0,0,1,0,0V4A4,4,0,0,1,4,0Z" fill="url(#linear-gradient)"/>
      <g id="Path_46" data-name="Path 46" transform="translate(-17.5 200)" fill="#ff6157">
        <path d="M28.5-184a5,5,0,0,0,5-5,5,5,0,0,0-5-5,5,5,0,0,0-5,5A5,5,0,0,0,28.5-184Z" stroke="none"/>
        <path d="M 28.5 -184.5 C 30.98130989074707 -184.5 33 -186.5186920166016 33 -189 C 33 -191.4813079833984 30.98130989074707 -193.5 28.5 -193.5 C 26.01869010925293 -193.5 24 -191.4813079833984 24 -189 C 24 -186.5186920166016 26.01869010925293 -184.5 28.5 -184.5 M 28.5 -184 C 25.73858070373535 -184 23.5 -186.2386016845703 23.5 -189 C 23.5 -191.7613983154297 25.73858070373535 -194 28.5 -194 C 31.26141929626465 -194 33.5 -191.7613983154297 33.5 -189 C 33.5 -186.2386016845703 31.26141929626465 -184 28.5 -184 Z" stroke="none" fill="rgba(0,0,0,0.15)"/>
      </g>
      <g id="Path_47" data-name="Path 47" transform="translate(-1.5 200)" fill="#ffc12f">
        <path d="M28.5-184a5,5,0,0,0,5-5,5,5,0,0,0-5-5,5,5,0,0,0-5,5A5,5,0,0,0,28.5-184Z" stroke="none"/>
        <path d="M 28.5 -184.5 C 30.98130989074707 -184.5 33 -186.5186920166016 33 -189 C 33 -191.4813079833984 30.98130989074707 -193.5 28.5 -193.5 C 26.01869010925293 -193.5 24 -191.4813079833984 24 -189 C 24 -186.5186920166016 26.01869010925293 -184.5 28.5 -184.5 M 28.5 -184 C 25.73858070373535 -184 23.5 -186.2386016845703 23.5 -189 C 23.5 -191.7613983154297 25.73858070373535 -194 28.5 -194 C 31.26141929626465 -194 33.5 -191.7613983154297 33.5 -189 C 33.5 -186.2386016845703 31.26141929626465 -184 28.5 -184 Z" stroke="none" fill="rgba(0,0,0,0.15)"/>
      </g>
      <g id="Path_48" data-name="Path 48" transform="translate(14.5 200)" fill="#2acb42">
        <path d="M28.5-184a5,5,0,0,0,5-5,5,5,0,0,0-5-5,5,5,0,0,0-5,5A5,5,0,0,0,28.5-184Z" stroke="none"/>
        <path d="M 28.5 -184.5 C 30.98130989074707 -184.5 33 -186.5186920166016 33 -189 C 33 -191.4813079833984 30.98130989074707 -193.5 28.5 -193.5 C 26.01869010925293 -193.5 24 -191.4813079833984 24 -189 C 24 -186.5186920166016 26.01869010925293 -184.5 28.5 -184.5 M 28.5 -184 C 25.73858070373535 -184 23.5 -186.2386016845703 23.5 -189 C 23.5 -191.7613983154297 25.73858070373535 -194 28.5 -194 C 31.26141929626465 -194 33.5 -191.7613983154297 33.5 -189 C 33.5 -186.2386016845703 31.26141929626465 -184 28.5 -184 Z" stroke="none" fill="rgba(0,0,0,0.15)"/>
      </g>
      <path id="Path_304" data-name="Path 304" d="M-47.089-5.688h.075L-45.349,0h1.133l2.095-7.75h-1.251l-1.418,5.935h-.075L-46.493-7.75H-47.61l-1.617,5.935H-49.3L-50.726-7.75h-1.251L-49.888,0h1.139Zm7.965.709a1.411,1.411,0,0,1,1.439,1.515h-2.954A1.5,1.5,0,0,1-39.124-4.979Zm1.434,3.4a1.4,1.4,0,0,1-1.391.709,1.545,1.545,0,0,1-1.558-1.676V-2.61h4.13v-.4c0-1.837-.983-2.949-2.61-2.949-1.649,0-2.7,1.187-2.7,3.056s1.026,3.019,2.7,3.019a2.373,2.373,0,0,0,2.535-1.692ZM-35.214,0h1.155V-8.132h-1.155Zm7.691-3.937a2.307,2.307,0,0,0-2.5-2.025c-1.7,0-2.739,1.144-2.739,3.019,0,1.907,1.042,3.056,2.745,3.056a2.288,2.288,0,0,0,2.5-1.993h-1.123a1.27,1.27,0,0,1-1.38.961c-.961,0-1.558-.757-1.558-2.025,0-1.246.591-1.987,1.558-1.987a1.3,1.3,0,0,1,1.38.994Zm3.641,4.05c1.708,0,2.755-1.144,2.755-3.04s-1.053-3.035-2.755-3.035-2.761,1.149-2.761,3.035S-25.6.113-23.882.113Zm0-1.026c-1,0-1.568-.736-1.568-2.014s.564-2.009,1.568-2.009,1.568.741,1.568,2.009S-22.883-.913-23.882-.913Zm4,.913h1.155V-3.577A1.258,1.258,0,0,1-17.5-4.9,1.019,1.019,0,0,1-16.368-3.84V0h1.133V-3.679A1.185,1.185,0,0,1-14-4.9c.757,0,1.133.387,1.133,1.176V0h1.155V-4.028A1.739,1.739,0,0,0-13.58-5.962a1.9,1.9,0,0,0-1.778,1.053h-.091a1.639,1.639,0,0,0-1.611-1.053,1.651,1.651,0,0,0-1.627,1.053h-.086v-.94h-1.112ZM-7.833-4.979A1.411,1.411,0,0,1-6.394-3.464H-9.348A1.5,1.5,0,0,1-7.833-4.979Zm1.434,3.4A1.4,1.4,0,0,1-7.79-.87,1.545,1.545,0,0,1-9.348-2.546V-2.61h4.13v-.4c0-1.837-.983-2.949-2.61-2.949-1.649,0-2.7,1.187-2.7,3.056S-9.5.113-7.822.113A2.373,2.373,0,0,0-5.287-1.579ZM0,1.493V.575H-5.051v.918ZM.991-7.3v1.482H.062v.972H.991v3.3C.991-.419,1.5.032,2.785.032a3.73,3.73,0,0,0,.628-.059V-.988a3.8,3.8,0,0,1-.44.027c-.575,0-.827-.269-.827-.881V-4.85H3.414v-.972H2.146V-7.3ZM7.033.113c1.708,0,2.755-1.144,2.755-3.04S8.736-5.962,7.033-5.962,4.273-4.812,4.273-2.927,5.32.113,7.033.113Zm0-1.026c-1,0-1.568-.736-1.568-2.014s.564-2.009,1.568-2.009S8.6-4.195,8.6-2.927,8.032-.913,7.033-.913Zm7.976,2.406V.575H9.955v.918ZM18.371,0l2.755-7.75H19.849L17.77-1.5h-.091L15.589-7.75H14.279L17.05,0Zm5.72.113c1.708,0,2.755-1.144,2.755-3.04s-1.053-3.035-2.755-3.035-2.761,1.149-2.761,3.035S22.378.113,24.092.113Zm0-1.026c-1,0-1.568-.736-1.568-2.014s.564-2.009,1.568-2.009,1.568.741,1.568,2.009S25.091-.913,24.092-.913ZM28.141,0H29.3V-8.132H28.141Zm7.691-5.849H34.608l-1.45,4.614h-.091L31.611-5.849H30.375L32.486,0h1.241ZM36.971.091a.777.777,0,0,0,.79-.8.777.777,0,0,0-.79-.8.78.78,0,0,0-.79.8A.78.78,0,0,0,36.971.091Zm2.653-7.4v1.482h-.929v.972h.929v3.3c0,1.128.51,1.579,1.794,1.579a3.73,3.73,0,0,0,.628-.059V-.988a3.8,3.8,0,0,1-.44.027c-.575,0-.827-.269-.827-.881V-4.85h1.268v-.972H40.779V-7.3Zm5.817,5.242L46.719.011h1.327L46.1-2.949l1.928-2.89H46.735L45.489-3.776H45.4L44.141-5.838H42.793L44.748-2.9,42.809.011h1.268l1.278-2.073ZM49.512-7.3v1.482h-.929v.972h.929v3.3c0,1.128.51,1.579,1.794,1.579a3.73,3.73,0,0,0,.628-.059V-.988a3.8,3.8,0,0,1-.44.027c-.575,0-.827-.269-.827-.881V-4.85h1.268v-.972H50.667V-7.3Z" transform="translate(352.262 15.25)" fill="rgba(0,0,0,0.76)"/>
      <rect id="Rectangle_241" data-name="Rectangle 241" width="705" height="1" transform="translate(0 21)" opacity="0.06"/>
    </g>
    <path id="Path_302" data-name="Path 302" d="M4.554,22h1.7L10.4,7.3h.046L14.605,22h1.656L20.792,5.578H19.228L15.479,19.953h-.046L11.408,5.578H9.453l-4,14.375H5.405L1.679,5.578H0Zm18.124-6.762c.253-2.162,1.518-4.232,3.91-4.232,2.323,0,3.7,2.047,3.772,4.232Zm9.131,1.219c.115-3.335-1.426-6.67-5.221-6.67-3.772,0-5.359,3.151-5.359,6.279,0,3.381,1.587,6.279,5.359,6.279,3.013,0,4.554-1.564,5.175-4.255H30.314a3.6,3.6,0,0,1-3.726,3.036c-2.76,0-3.91-2.553-3.91-4.669ZM40.158,22h1.449V15.675a4.088,4.088,0,0,1,4.416-4.255V9.971a4.358,4.358,0,0,0-4.485,2.944h-.046V10.132H40.158Zm7.682-6.762c.253-2.162,1.518-4.232,3.91-4.232,2.323,0,3.7,2.047,3.772,4.232Zm9.131,1.219c.115-3.335-1.426-6.67-5.221-6.67-3.772,0-5.359,3.151-5.359,6.279,0,3.381,1.587,6.279,5.359,6.279,3.013,0,4.554-1.564,5.175-4.255H55.476a3.6,3.6,0,0,1-3.726,3.036c-2.76,0-3.91-2.553-3.91-4.669ZM58.949,7.9H60.4V5.578H58.949Zm0,14.1H60.4V10.132H58.949Zm4.232,0H64.63V15.376c0-2.484,1.058-4.37,3.542-4.37,1.863,0,2.484,1.334,2.484,2.944V22h1.449V15.284c0-2.208.713-4.278,3.22-4.278,2.093,0,2.806,1.058,2.806,3.013V22H79.58V13.95c0-2.783-1.311-4.163-3.933-4.163a4.012,4.012,0,0,0-3.772,2.323,3.3,3.3,0,0,0-3.4-2.323,4.084,4.084,0,0,0-3.887,2.346h-.069v-2H63.181Zm20.47-8.234c.069-1.932,1.357-2.76,3.174-2.76,1.725,0,3.105.483,3.105,2.438,0,1.288-.667,1.495-1.863,1.61-3.128.368-6.371.506-6.371,3.818,0,2.392,1.771,3.473,3.979,3.473A4.525,4.525,0,0,0,90,19.93h.046c0,1.219.23,2.07,1.7,2.07a4.1,4.1,0,0,0,.943-.092V20.689a1.1,1.1,0,0,1-.46.092.762.762,0,0,1-.851-.874V13.6c0-3.2-2.277-3.818-4.37-3.818-2.737,0-4.646,1.2-4.807,3.979ZM89.93,17.4c0,2.323-1.909,3.726-4.14,3.726a2.458,2.458,0,0,1-2.645-2.346c0-2.3,3.059-2.3,5.52-2.737.391-.069,1.035-.184,1.219-.529h.046Zm14.375-7.268h-1.449v2.047h-.046a4.15,4.15,0,0,0-3.772-2.392c-3.427,0-5.359,2.714-5.359,5.98,0,3.4,1.564,6.1,5.359,6.1a4.053,4.053,0,0,0,3.772-2.438h.046v1.61c0,2.921-1.127,4.485-3.818,4.485-1.587,0-3.174-.621-3.473-2.369H94.116c.184,2.507,2.553,3.588,4.922,3.588,3.841,0,5.267-2.139,5.267-5.7ZM99.038,20.643c-2.691,0-3.91-2.323-3.91-4.715,0-2.461,1.15-4.922,3.91-4.922s3.818,2.6,3.818,4.922C102.856,18.32,101.545,20.643,99.038,20.643ZM107.088,7.9h1.449V5.578h-1.449Zm0,14.1h1.449V10.132h-1.449Zm4.209,0h1.449V15.077c.069-2.323,1.4-4.071,3.726-4.071,2.346,0,3.013,1.564,3.013,3.588V22h1.449V14.364c0-2.829-1.012-4.577-4.347-4.577a4.047,4.047,0,0,0-3.8,2.392h-.046V10.132H111.3Zm13.225-6.762c.253-2.162,1.518-4.232,3.91-4.232,2.323,0,3.7,2.047,3.772,4.232Zm9.131,1.219c.115-3.335-1.426-6.67-5.221-6.67-3.772,0-5.359,3.151-5.359,6.279,0,3.381,1.587,6.279,5.359,6.279,3.013,0,4.554-1.564,5.175-4.255h-1.449a3.6,3.6,0,0,1-3.726,3.036c-2.76,0-3.91-2.553-3.91-4.669Zm12.4-10.879H144.6v6.808h-.046a4.233,4.233,0,0,0-4.117-2.6c-3.611,0-5.336,2.9-5.336,6.279s1.725,6.279,5.336,6.279a4.66,4.66,0,0,0,4.232-2.6h.046V22h1.334Zm-9.5,10.488c0-2.461,1.127-5.06,3.887-5.06,3.059,0,4.163,2.6,4.163,5.06s-1.1,5.06-4.163,5.06C137.678,21.126,136.551,18.527,136.551,16.066Zm20.953-9.5h-1.449v3.565h-2.07v1.219h2.07V19.47c-.023,2.024.644,2.668,2.576,2.668.437,0,.851-.046,1.288-.046V20.85a11.239,11.239,0,0,1-1.242.069c-1.035-.069-1.173-.621-1.173-1.564v-8h2.415V10.132H157.5ZM161.989,22h1.449V15.077c.069-2.323,1.4-4.071,3.726-4.071,2.346,0,3.013,1.564,3.013,3.588V22h1.449V14.364c0-2.829-1.012-4.577-4.347-4.577a4.047,4.047,0,0,0-3.795,2.392h-.046v-6.6h-1.449Zm13.225-6.762c.253-2.162,1.518-4.232,3.91-4.232,2.323,0,3.7,2.047,3.772,4.232Zm9.131,1.219c.115-3.335-1.426-6.67-5.221-6.67-3.772,0-5.359,3.151-5.359,6.279,0,3.381,1.587,6.279,5.359,6.279,3.013,0,4.554-1.564,5.175-4.255H182.85a3.6,3.6,0,0,1-3.726,3.036c-2.76,0-3.91-2.553-3.91-4.669ZM192.671,22h1.449V15.077c.069-2.323,1.4-4.071,3.726-4.071,2.346,0,3.013,1.564,3.013,3.588V22h1.449V14.364c0-2.829-1.012-4.577-4.347-4.577a4.047,4.047,0,0,0-3.795,2.392h-.046V10.132h-1.449ZM205.9,15.238c.253-2.162,1.518-4.232,3.91-4.232,2.323,0,3.7,2.047,3.772,4.232Zm9.131,1.219c.115-3.335-1.426-6.67-5.221-6.67-3.772,0-5.359,3.151-5.359,6.279,0,3.381,1.587,6.279,5.359,6.279,3.013,0,4.554-1.564,5.175-4.255h-1.449a3.6,3.6,0,0,1-3.726,3.036c-2.76,0-3.91-2.553-3.91-4.669ZM219.6,22h1.587l2.9-9.982h.046L227.056,22h1.587l3.818-11.868H230.92L227.884,20.3h-.046l-2.9-10.166h-1.633l-2.9,10.166h-.046l-3.036-10.166h-1.541Zm22.977-8.4c-.115-2.576-1.955-3.818-4.347-3.818-2.093,0-4.462.92-4.462,3.335,0,2,1.426,2.691,3.312,3.174l1.863.414c1.311.322,2.6.782,2.6,2.162,0,1.656-1.863,2.254-3.243,2.254-1.932,0-3.381-1.012-3.5-2.967h-1.449c.253,2.921,2.093,4.186,4.876,4.186,2.208,0,4.761-.989,4.761-3.565,0-2.07-1.725-3.036-3.381-3.289l-1.932-.437c-1.012-.253-2.461-.736-2.461-2,0-1.541,1.518-2.047,2.806-2.047,1.656,0,3.036.805,3.1,2.6Zm5.29,8.4V19.562h-1.932V22ZM7.268,61.142l3.174,8.418H3.979ZM-.161,76H1.518L3.5,70.894h7.475l2,5.106h1.679L8.211,59.578H6.463Zm22.425,4.393h1.449V73.746h.046a4.221,4.221,0,0,0,4.117,2.6c3.611,0,5.336-2.9,5.336-6.279s-1.725-6.279-5.336-6.279a4.385,4.385,0,0,0-4.232,2.6H23.6V64.132H22.264Zm9.5-10.327c0,2.461-1.127,5.06-3.887,5.06-3.059,0-4.163-2.6-4.163-5.06,0-2.691.943-5.06,4.163-5.06C30.636,65.006,31.763,67.6,31.763,70.066ZM35.489,76h1.449V59.578H35.489Zm5.543-8.234c.069-1.932,1.357-2.76,3.174-2.76,1.725,0,3.1.483,3.1,2.438,0,1.288-.667,1.5-1.863,1.61-3.128.368-6.371.506-6.371,3.818,0,2.392,1.771,3.473,3.979,3.473A4.525,4.525,0,0,0,47.38,73.93h.046c0,1.219.23,2.07,1.7,2.07a4.1,4.1,0,0,0,.943-.092V74.689a1.1,1.1,0,0,1-.46.092.762.762,0,0,1-.851-.874V67.6c0-3.2-2.277-3.818-4.37-3.818-2.737,0-4.646,1.2-4.807,3.979ZM47.311,71.4c0,2.323-1.909,3.726-4.14,3.726a2.458,2.458,0,0,1-2.645-2.346c0-2.3,3.059-2.3,5.52-2.737.391-.069,1.035-.184,1.219-.529h.046Zm14.168-3.542c-.345-2.737-2.254-4.071-4.807-4.071-3.611,0-5.612,2.875-5.612,6.279s2,6.279,5.612,6.279c2.668,0,4.508-1.725,4.9-4.6H60.122a3.569,3.569,0,0,1-3.45,3.381c-2.76,0-4.163-2.553-4.163-5.06s1.4-5.06,4.163-5.06a3.211,3.211,0,0,1,3.358,2.852Zm2.967,1.38c.253-2.162,1.518-4.232,3.91-4.232,2.323,0,3.7,2.047,3.772,4.232Zm9.131,1.219c.115-3.335-1.426-6.67-5.221-6.67-3.772,0-5.359,3.151-5.359,6.279,0,3.381,1.587,6.279,5.359,6.279,3.013,0,4.554-1.564,5.175-4.255H72.082a3.6,3.6,0,0,1-3.726,3.036c-2.76,0-3.91-2.553-3.91-4.669Zm10.649-9.89H82.777v3.565h-2.07v1.219h2.07V73.47c-.023,2.024.644,2.668,2.576,2.668.437,0,.851-.046,1.288-.046V74.85a11.239,11.239,0,0,1-1.242.069c-1.035-.069-1.173-.621-1.173-1.564v-8h2.415V64.132H84.226ZM88.711,76H90.16V69.077c.069-2.323,1.4-4.071,3.726-4.071,2.346,0,3.013,1.564,3.013,3.588V76h1.449V68.364c0-2.829-1.012-4.577-4.347-4.577a4.047,4.047,0,0,0-3.8,2.392H90.16v-6.6H88.711ZM102.4,67.766c.069-1.932,1.357-2.76,3.174-2.76,1.725,0,3.105.483,3.105,2.438,0,1.288-.667,1.5-1.863,1.61-3.128.368-6.371.506-6.371,3.818,0,2.392,1.771,3.473,3.979,3.473a4.525,4.525,0,0,0,4.324-2.415h.046c0,1.219.23,2.07,1.7,2.07a4.1,4.1,0,0,0,.943-.092V74.689a1.1,1.1,0,0,1-.46.092.762.762,0,0,1-.851-.874V67.6c0-3.2-2.277-3.818-4.37-3.818-2.737,0-4.646,1.2-4.807,3.979Zm6.279,3.634c0,2.323-1.909,3.726-4.14,3.726a2.458,2.458,0,0,1-2.645-2.346c0-2.3,3.059-2.3,5.52-2.737.391-.069,1.035-.184,1.219-.529h.046Zm6.647-10.833h-1.449v3.565H111.8v1.219h2.07V73.47c-.023,2.024.644,2.668,2.576,2.668.437,0,.851-.046,1.288-.046V74.85a11.239,11.239,0,0,1-1.242.069c-1.035-.069-1.173-.621-1.173-1.564v-8h2.415V64.132h-2.415Zm13.2,0h-1.449v3.565H125v1.219h2.07V73.47c-.023,2.024.644,2.668,2.576,2.668.437,0,.851-.046,1.288-.046V74.85a11.239,11.239,0,0,1-1.242.069c-1.035-.069-1.173-.621-1.173-1.564v-8h2.415V64.132h-2.415Zm5.359,8.671c.253-2.162,1.518-4.232,3.91-4.232,2.323,0,3.7,2.047,3.772,4.232Zm9.131,1.219c.115-3.335-1.426-6.67-5.221-6.67-3.772,0-5.359,3.151-5.359,6.279,0,3.381,1.587,6.279,5.359,6.279,3.013,0,4.554-1.564,5.175-4.255h-1.449a3.6,3.6,0,0,1-3.726,3.036c-2.76,0-3.91-2.553-3.91-4.669ZM144.992,76h1.449V59.578h-1.449Zm4.255,0H150.7V59.578h-1.449Zm12.788-8.4c-.115-2.576-1.955-3.818-4.347-3.818-2.093,0-4.462.92-4.462,3.335,0,2,1.426,2.691,3.312,3.174l1.863.414c1.311.322,2.6.782,2.6,2.162,0,1.656-1.863,2.254-3.243,2.254-1.932,0-3.381-1.012-3.5-2.967h-1.449c.253,2.921,2.093,4.186,4.876,4.186,2.208,0,4.761-.989,4.761-3.565,0-2.07-1.725-3.036-3.381-3.289l-1.932-.437c-1.012-.253-2.461-.736-2.461-2,0-1.541,1.518-2.047,2.806-2.047,1.656,0,3.036.805,3.1,2.6Zm12.3,8.349-.506,1.357c-.483,1.1-.782,1.863-2.07,1.863a4.834,4.834,0,0,1-.989-.115v1.219a3.867,3.867,0,0,0,1.1.115c1.817,0,2.277-.575,3.128-2.576l5.152-13.685H178.71l-3.657,10.12-3.91-10.12H169.6ZM186.6,65.006c2.76,0,4.163,2.553,4.163,5.06s-1.4,5.06-4.163,5.06-4.163-2.553-4.163-5.06S183.839,65.006,186.6,65.006Zm0-1.219c-3.611,0-5.612,2.875-5.612,6.279s2,6.279,5.612,6.279,5.612-2.875,5.612-6.279S190.21,63.787,186.6,63.787Zm17.388.345h-1.449v6.233c0,2.415-1.081,4.761-3.565,4.761-2.3,0-3.1-1.127-3.174-3.266V64.132H194.35v7.705c0,2.783,1.15,4.508,4.163,4.508a4.415,4.415,0,0,0,4.094-2.484h.046V76h1.334Zm9.982,5.106c.253-2.162,1.518-4.232,3.91-4.232,2.323,0,3.7,2.047,3.772,4.232Zm9.131,1.219c.115-3.335-1.426-6.67-5.221-6.67-3.772,0-5.359,3.151-5.359,6.279,0,3.381,1.587,6.279,5.359,6.279,3.013,0,4.554-1.564,5.175-4.255H221.6a3.6,3.6,0,0,1-3.726,3.036c-2.76,0-3.91-2.553-3.91-4.669ZM223.7,76h1.794l3.657-4.991L232.875,76h1.84l-4.623-6.187,4.278-5.681h-1.817l-3.312,4.508-3.381-4.508h-1.817l4.255,5.7Zm13.731-8.234c.069-1.932,1.357-2.76,3.174-2.76,1.725,0,3.1.483,3.1,2.438,0,1.288-.667,1.5-1.863,1.61-3.128.368-6.371.506-6.371,3.818,0,2.392,1.771,3.473,3.979,3.473a4.525,4.525,0,0,0,4.324-2.415h.046c0,1.219.23,2.07,1.7,2.07a4.1,4.1,0,0,0,.943-.092V74.689a1.1,1.1,0,0,1-.46.092.762.762,0,0,1-.851-.874V67.6c0-3.2-2.277-3.818-4.37-3.818-2.737,0-4.646,1.2-4.807,3.979Zm6.279,3.634c0,2.323-1.909,3.726-4.14,3.726a2.458,2.458,0,0,1-2.645-2.346c0-2.3,3.059-2.3,5.52-2.737.391-.069,1.035-.184,1.219-.529h.046Zm14.168-3.542c-.345-2.737-2.254-4.071-4.807-4.071-3.611,0-5.612,2.875-5.612,6.279s2,6.279,5.612,6.279c2.668,0,4.508-1.725,4.9-4.6h-1.449a3.569,3.569,0,0,1-3.45,3.381c-2.76,0-4.163-2.553-4.163-5.06s1.4-5.06,4.163-5.06a3.211,3.211,0,0,1,3.358,2.852Zm4.416-7.291h-1.449v3.565h-2.07v1.219h2.07V73.47c-.023,2.024.644,2.668,2.576,2.668.437,0,.851-.046,1.288-.046V74.85a11.239,11.239,0,0,1-1.242.069c-1.035-.069-1.173-.621-1.173-1.564v-8h2.415V64.132h-2.415ZM266.823,76h1.449V59.578h-1.449Zm7.636-.046-.506,1.357c-.483,1.1-.782,1.863-2.07,1.863a4.834,4.834,0,0,1-.989-.115v1.219a3.867,3.867,0,0,0,1.1.115c1.817,0,2.277-.575,3.128-2.576l5.152-13.685h-1.449l-3.657,10.12-3.91-10.12h-1.541ZM290.72,76h1.587l2.9-9.982h.046L298.172,76h1.587l3.818-11.868h-1.541L299,74.3h-.046l-2.9-10.166h-1.633l-2.9,10.166h-.046l-3.036-10.166H286.9Zm14.4,0h1.449V69.077c.069-2.323,1.4-4.071,3.726-4.071,2.346,0,3.013,1.564,3.013,3.588V76h1.449V68.364c0-2.829-1.012-4.577-4.347-4.577a4.047,4.047,0,0,0-3.8,2.392h-.046v-6.6h-1.449ZM318.8,67.766c.069-1.932,1.357-2.76,3.174-2.76,1.725,0,3.105.483,3.105,2.438,0,1.288-.667,1.5-1.863,1.61-3.128.368-6.371.506-6.371,3.818,0,2.392,1.771,3.473,3.979,3.473a4.525,4.525,0,0,0,4.324-2.415h.046c0,1.219.23,2.07,1.7,2.07a4.1,4.1,0,0,0,.943-.092V74.689a1.1,1.1,0,0,1-.46.092.762.762,0,0,1-.851-.874V67.6c0-3.2-2.277-3.818-4.37-3.818-2.737,0-4.646,1.2-4.807,3.979Zm6.279,3.634c0,2.323-1.909,3.726-4.14,3.726A2.458,2.458,0,0,1,318.3,72.78c0-2.3,3.059-2.3,5.52-2.737.391-.069,1.035-.184,1.219-.529h.046Zm6.647-10.833H330.28v3.565h-2.07v1.219h2.07V73.47c-.023,2.024.644,2.668,2.576,2.668.437,0,.851-.046,1.288-.046V74.85a11.239,11.239,0,0,1-1.242.069c-1.035-.069-1.173-.621-1.173-1.564v-8h2.415V64.132h-2.415Zm14.306,15.387-.506,1.357c-.483,1.1-.782,1.863-2.07,1.863a4.834,4.834,0,0,1-.989-.115v1.219a3.867,3.867,0,0,0,1.1.115c1.817,0,2.277-.575,3.128-2.576l5.152-13.685h-1.449l-3.657,10.12-3.91-10.12H341.3Zm12.259-10.948c2.76,0,4.163,2.553,4.163,5.06s-1.4,5.06-4.163,5.06-4.163-2.553-4.163-5.06S355.534,65.006,358.294,65.006Zm0-1.219c-3.611,0-5.612,2.875-5.612,6.279s2,6.279,5.612,6.279,5.612-2.875,5.612-6.279S361.905,63.787,358.294,63.787Zm17.388.345h-1.449v6.233c0,2.415-1.081,4.761-3.565,4.761-2.3,0-3.105-1.127-3.174-3.266V64.132h-1.449v7.705c0,2.783,1.15,4.508,4.163,4.508a4.415,4.415,0,0,0,4.094-2.484h.046V76h1.334ZM384.79,76h1.449V69.077c.069-2.323,1.4-4.071,3.726-4.071,2.346,0,3.013,1.564,3.013,3.588V76h1.449V68.364c0-2.829-1.012-4.577-4.347-4.577a4.047,4.047,0,0,0-3.8,2.392h-.046V64.132H384.79Zm13.225-6.762c.253-2.162,1.518-4.232,3.91-4.232,2.323,0,3.7,2.047,3.772,4.232Zm9.131,1.219c.115-3.335-1.426-6.67-5.221-6.67-3.772,0-5.359,3.151-5.359,6.279,0,3.381,1.587,6.279,5.359,6.279,3.013,0,4.554-1.564,5.175-4.255h-1.449a3.6,3.6,0,0,1-3.726,3.036c-2.76,0-3.91-2.553-3.91-4.669Zm2.806-1.219c.253-2.162,1.518-4.232,3.91-4.232,2.323,0,3.7,2.047,3.772,4.232Zm9.131,1.219c.115-3.335-1.426-6.67-5.221-6.67-3.772,0-5.359,3.151-5.359,6.279,0,3.381,1.587,6.279,5.359,6.279,3.013,0,4.554-1.564,5.175-4.255h-1.449a3.6,3.6,0,0,1-3.726,3.036c-2.76,0-3.91-2.553-3.91-4.669Zm12.4-10.879h-1.449v6.808h-.046a4.233,4.233,0,0,0-4.117-2.6c-3.611,0-5.336,2.9-5.336,6.279s1.725,6.279,5.336,6.279a4.66,4.66,0,0,0,4.232-2.6h.046V76h1.334Zm-9.5,10.488c0-2.461,1.127-5.06,3.887-5.06,3.059,0,4.163,2.6,4.163,5.06s-1.1,5.06-4.163,5.06C423.108,75.126,421.981,72.527,421.981,70.066Zm20.953-9.5h-1.449v3.565h-2.07v1.219h2.07V73.47c-.023,2.024.644,2.668,2.576,2.668.437,0,.851-.046,1.288-.046V74.85a11.239,11.239,0,0,1-1.242.069c-1.035-.069-1.173-.621-1.173-1.564v-8h2.415V64.132h-2.415Zm9.522,4.439c2.76,0,4.163,2.553,4.163,5.06s-1.4,5.06-4.163,5.06-4.163-2.553-4.163-5.06S449.7,65.006,452.456,65.006Zm0-1.219c-3.611,0-5.612,2.875-5.612,6.279s2,6.279,5.612,6.279,5.612-2.875,5.612-6.279S456.067,63.787,452.456,63.787ZM466.624,76h1.449V71.492l2.346-1.955L475.111,76h1.817l-5.4-7.475,5.06-4.393h-1.932l-6.578,5.75v-10.3h-1.449ZM478.1,76h1.449V69.077c.069-2.323,1.4-4.071,3.726-4.071,2.346,0,3.013,1.564,3.013,3.588V76h1.449V68.364c0-2.829-1.012-4.577-4.347-4.577a4.047,4.047,0,0,0-3.8,2.392h-.046V64.132H478.1Zm17.388-10.994c2.76,0,4.163,2.553,4.163,5.06s-1.4,5.06-4.163,5.06-4.163-2.553-4.163-5.06S492.729,65.006,495.489,65.006Zm0-1.219c-3.611,0-5.612,2.875-5.612,6.279s2,6.279,5.612,6.279,5.612-2.875,5.612-6.279S499.1,63.787,495.489,63.787ZM505.885,76h1.587l2.9-9.982h.046L513.337,76h1.587l3.818-11.868H517.2L514.165,74.3h-.046l-2.9-10.166h-1.633L506.69,74.3h-.046l-3.036-10.166h-1.541Zm22.126-8.234c.069-1.932,1.357-2.76,3.174-2.76,1.725,0,3.1.483,3.1,2.438,0,1.288-.667,1.5-1.863,1.61-3.128.368-6.371.506-6.371,3.818,0,2.392,1.771,3.473,3.979,3.473a4.525,4.525,0,0,0,4.324-2.415h.046c0,1.219.23,2.07,1.7,2.07a4.1,4.1,0,0,0,.943-.092V74.689a1.1,1.1,0,0,1-.46.092.762.762,0,0,1-.851-.874V67.6c0-3.2-2.277-3.818-4.37-3.818-2.737,0-4.646,1.2-4.807,3.979ZM534.29,71.4c0,2.323-1.909,3.726-4.14,3.726a2.458,2.458,0,0,1-2.645-2.346c0-2.3,3.059-2.3,5.52-2.737.391-.069,1.035-.184,1.219-.529h.046Zm4.324,4.6h1.449V69.077c.069-2.323,1.4-4.071,3.726-4.071,2.346,0,3.013,1.564,3.013,3.588V76h1.449V68.364c0-2.829-1.012-4.577-4.347-4.577a4.047,4.047,0,0,0-3.795,2.392h-.046V64.132h-1.449ZM561.43,59.578h-1.449v6.808h-.046a4.233,4.233,0,0,0-4.117-2.6c-3.611,0-5.336,2.9-5.336,6.279s1.725,6.279,5.336,6.279a4.66,4.66,0,0,0,4.232-2.6h.046V76h1.334Zm-9.5,10.488c0-2.461,1.127-5.06,3.887-5.06,3.059,0,4.163,2.6,4.163,5.06s-1.1,5.06-4.163,5.06C553.058,75.126,551.931,72.527,551.931,70.066ZM4,103H5.589l2.9-9.982h.046L11.454,103h1.587l3.818-11.868H15.318L12.282,101.3h-.046l-2.9-10.166H7.705L4.807,101.3H4.761L1.725,91.132H.184Zm14.4,0h1.449V96.077c.069-2.323,1.4-4.071,3.726-4.071,2.346,0,3.013,1.564,3.013,3.588V103h1.449V95.364c0-2.829-1.012-4.577-4.347-4.577A4.047,4.047,0,0,0,19.9,93.179h-.046v-6.6H18.4Zm15.778-.046-.506,1.357c-.483,1.1-.782,1.863-2.07,1.863a4.834,4.834,0,0,1-.989-.115v1.219a3.867,3.867,0,0,0,1.1.115c1.817,0,2.277-.575,3.128-2.576L40,91.132H38.548l-3.657,10.12-3.91-10.12H29.44ZM47.84,88.9h1.449V86.578H47.84Zm0,14.1h1.449V91.132H47.84Zm6.532-15.433H52.923v3.565h-2.07v1.219h2.07v8.119c-.023,2.024.644,2.668,2.576,2.668.437,0,.851-.046,1.288-.046V101.85a11.239,11.239,0,0,1-1.242.069c-1.035-.069-1.173-.621-1.173-1.564v-8h2.415V91.132H54.372Zm5.4-.989v2.438h.966c.069.713-.3,1.932-1.081,2.162v.989a3.082,3.082,0,0,0,2.047-3.128V86.578Zm11.5,8.027c-.115-2.576-1.955-3.818-4.347-3.818-2.093,0-4.462.92-4.462,3.335,0,2,1.426,2.691,3.312,3.174l1.863.414c1.311.322,2.6.782,2.6,2.162,0,1.656-1.863,2.254-3.243,2.254-1.932,0-3.381-1.012-3.5-2.967H62.054c.253,2.921,2.093,4.186,4.876,4.186,2.208,0,4.761-.989,4.761-3.565,0-2.07-1.725-3.036-3.381-3.289l-1.932-.437c-1.012-.253-2.461-.736-2.461-2,0-1.541,1.518-2.047,2.806-2.047,1.656,0,3.036.805,3.105,2.6ZM80.2,88.9H81.65V86.578H80.2Zm0,14.1H81.65V91.132H80.2Zm4.232,0h1.449V96.376c0-2.484,1.058-4.37,3.542-4.37,1.863,0,2.484,1.334,2.484,2.944V103h1.449V96.284c0-2.208.713-4.278,3.22-4.278,2.093,0,2.806,1.058,2.806,3.013V103h1.449V94.95c0-2.783-1.311-4.163-3.933-4.163a4.012,4.012,0,0,0-3.772,2.323,3.3,3.3,0,0,0-3.4-2.323,4.084,4.084,0,0,0-3.887,2.346h-.069v-2H84.433Zm19.159,4.393h1.449v-6.647h.046a4.221,4.221,0,0,0,4.117,2.6c3.611,0,5.336-2.9,5.336-6.279s-1.725-6.279-5.336-6.279a4.385,4.385,0,0,0-4.232,2.6h-.046V91.132h-1.334Zm9.5-10.327c0,2.461-1.127,5.06-3.887,5.06-3.059,0-4.163-2.6-4.163-5.06,0-2.691.943-5.06,4.163-5.06C111.964,92.006,113.091,94.6,113.091,97.066Zm8.717-5.06c2.76,0,4.163,2.553,4.163,5.06s-1.4,5.06-4.163,5.06-4.163-2.553-4.163-5.06S119.048,92.006,121.808,92.006Zm0-1.219c-3.611,0-5.612,2.875-5.612,6.279s2,6.279,5.612,6.279,5.612-2.875,5.612-6.279S125.419,90.787,121.808,90.787ZM129.582,103h1.449V96.675a4.088,4.088,0,0,1,4.416-4.255V90.971a4.358,4.358,0,0,0-4.485,2.944h-.046V91.132h-1.334Zm9.545-15.433h-1.449v3.565h-2.07v1.219h2.07v8.119c-.023,2.024.644,2.668,2.576,2.668.437,0,.851-.046,1.288-.046V101.85a11.239,11.239,0,0,1-1.242.069c-1.035-.069-1.173-.621-1.173-1.564v-8h2.415V91.132h-2.415Zm5.819,7.2c.069-1.932,1.357-2.76,3.174-2.76,1.725,0,3.1.483,3.1,2.438,0,1.288-.667,1.5-1.863,1.61-3.128.368-6.371.506-6.371,3.818,0,2.392,1.771,3.473,3.979,3.473a4.525,4.525,0,0,0,4.324-2.415h.046c0,1.219.23,2.07,1.7,2.07a4.1,4.1,0,0,0,.943-.092v-1.219a1.1,1.1,0,0,1-.46.092.762.762,0,0,1-.851-.874V94.6c0-3.2-2.277-3.818-4.37-3.818-2.737,0-4.646,1.2-4.807,3.979Zm6.279,3.634c0,2.323-1.909,3.726-4.14,3.726a2.458,2.458,0,0,1-2.645-2.346c0-2.3,3.059-2.3,5.52-2.737.391-.069,1.035-.184,1.219-.529h.046Zm4.324,4.6H157V96.077c.069-2.323,1.4-4.071,3.726-4.071,2.346,0,3.013,1.564,3.013,3.588V103h1.449V95.364c0-2.829-1.012-4.577-4.347-4.577a4.047,4.047,0,0,0-3.795,2.392H157V91.132h-1.449Zm14.674-15.433h-1.449v3.565H166.7v1.219h2.07v8.119c-.023,2.024.644,2.668,2.576,2.668.437,0,.851-.046,1.288-.046V101.85a11.239,11.239,0,0,1-1.242.069c-1.035-.069-1.173-.621-1.173-1.564v-8h2.415V91.132h-2.415ZM177.514,103v-2.438h-1.932V103Zm10.258,0h1.564V89.108h.046L198.95,103H200.7V86.578h-1.564V100.47h-.046L189.52,86.578h-1.748Zm20.953-10.994c2.76,0,4.163,2.553,4.163,5.06s-1.4,5.06-4.163,5.06-4.163-2.553-4.163-5.06S205.965,92.006,208.725,92.006Zm0-1.219c-3.611,0-5.612,2.875-5.612,6.279s2,6.279,5.612,6.279,5.612-2.875,5.612-6.279S212.336,90.787,208.725,90.787ZM224.2,94.766c.069-1.932,1.357-2.76,3.174-2.76,1.725,0,3.1.483,3.1,2.438,0,1.288-.667,1.5-1.863,1.61-3.128.368-6.371.506-6.371,3.818,0,2.392,1.771,3.473,3.979,3.473a4.525,4.525,0,0,0,4.324-2.415h.046c0,1.219.23,2.07,1.7,2.07a4.1,4.1,0,0,0,.943-.092v-1.219a1.1,1.1,0,0,1-.46.092.762.762,0,0,1-.851-.874V94.6c0-3.2-2.277-3.818-4.37-3.818-2.737,0-4.646,1.2-4.807,3.979Zm6.279,3.634c0,2.323-1.909,3.726-4.14,3.726A2.458,2.458,0,0,1,223.7,99.78c0-2.3,3.059-2.3,5.52-2.737.391-.069,1.035-.184,1.219-.529h.046Zm14.375-7.268h-1.449v2.047h-.046a4.15,4.15,0,0,0-3.772-2.392c-3.427,0-5.359,2.714-5.359,5.98,0,3.4,1.564,6.1,5.359,6.1a4.053,4.053,0,0,0,3.772-2.438h.046v1.61c0,2.921-1.127,4.485-3.818,4.485-1.587,0-3.174-.621-3.473-2.369h-1.449c.184,2.507,2.553,3.588,4.922,3.588,3.841,0,5.267-2.139,5.267-5.7Zm-5.267,10.511c-2.691,0-3.91-2.323-3.91-4.715,0-2.461,1.15-4.922,3.91-4.922s3.818,2.6,3.818,4.922C243.409,99.32,242.1,101.643,239.591,101.643Zm8.878-5.4c.253-2.162,1.518-4.232,3.91-4.232,2.323,0,3.7,2.047,3.772,4.232Zm9.131,1.219c.115-3.335-1.426-6.67-5.221-6.67-3.772,0-5.359,3.151-5.359,6.279,0,3.381,1.587,6.279,5.359,6.279,3.013,0,4.554-1.564,5.175-4.255H256.1a3.6,3.6,0,0,1-3.726,3.036c-2.76,0-3.91-2.553-3.91-4.669ZM259.532,103h1.449V96.077c.069-2.323,1.4-4.071,3.726-4.071,2.346,0,3.013,1.564,3.013,3.588V103h1.449V95.364c0-2.829-1.012-4.577-4.347-4.577a4.047,4.047,0,0,0-3.8,2.392h-.046V91.132h-1.449Zm22.816-16.422H280.9v6.808h-.046a4.233,4.233,0,0,0-4.117-2.6c-3.611,0-5.336,2.9-5.336,6.279s1.725,6.279,5.336,6.279a4.66,4.66,0,0,0,4.232-2.6h.046V103h1.334Zm-9.5,10.488c0-2.461,1.127-5.06,3.887-5.06,3.059,0,4.163,2.6,4.163,5.06s-1.1,5.06-4.163,5.06C273.976,102.126,272.849,99.527,272.849,97.066Zm13.57-2.3c.069-1.932,1.357-2.76,3.174-2.76,1.725,0,3.105.483,3.105,2.438,0,1.288-.667,1.5-1.863,1.61-3.128.368-6.371.506-6.371,3.818,0,2.392,1.771,3.473,3.979,3.473a4.525,4.525,0,0,0,4.324-2.415h.046c0,1.219.23,2.07,1.7,2.07a4.1,4.1,0,0,0,.943-.092v-1.219a1.1,1.1,0,0,1-.46.092.762.762,0,0,1-.851-.874V94.6c0-3.2-2.277-3.818-4.37-3.818-2.737,0-4.646,1.2-4.807,3.979ZM292.7,98.4c0,2.323-1.909,3.726-4.14,3.726a2.458,2.458,0,0,1-2.645-2.346c0-2.3,3.059-2.3,5.52-2.737.391-.069,1.035-.184,1.219-.529h.046Zm7.13,4.6v-2.438H297.9V103Zm10.258,0h1.564V89.108h.046L321.264,103h1.748V86.578h-1.564V100.47H321.4l-9.568-13.892h-1.748Zm20.953-10.994c2.76,0,4.163,2.553,4.163,5.06s-1.4,5.06-4.163,5.06-4.163-2.553-4.163-5.06S328.279,92.006,331.039,92.006Zm0-1.219c-3.611,0-5.612,2.875-5.612,6.279s2,6.279,5.612,6.279,5.612-2.875,5.612-6.279S334.65,90.787,331.039,90.787ZM345.207,103h1.334v-2.254h.046a4.385,4.385,0,0,0,4.232,2.6c3.611,0,5.336-2.9,5.336-6.279s-1.725-6.279-5.336-6.279a4.233,4.233,0,0,0-4.117,2.6h-.046V86.578h-1.449Zm9.5-5.934c0,2.461-1.127,5.06-3.887,5.06-3.059,0-4.163-2.6-4.163-5.06s1.1-5.06,4.163-5.06C353.579,92.006,354.706,94.6,354.706,97.066Zm3.726-8.165h1.449V86.578h-1.449Zm0,14.1h1.449V91.132h-1.449Zm5.543-8.234c.069-1.932,1.357-2.76,3.174-2.76,1.725,0,3.105.483,3.105,2.438,0,1.288-.667,1.5-1.863,1.61-3.128.368-6.371.506-6.371,3.818,0,2.392,1.771,3.473,3.979,3.473a4.525,4.525,0,0,0,4.324-2.415h.046c0,1.219.23,2.07,1.7,2.07a4.1,4.1,0,0,0,.943-.092v-1.219a1.1,1.1,0,0,1-.46.092.762.762,0,0,1-.851-.874V94.6c0-3.2-2.277-3.818-4.37-3.818-2.737,0-4.646,1.2-4.807,3.979Zm6.279,3.634c0,2.323-1.909,3.726-4.14,3.726a2.458,2.458,0,0,1-2.645-2.346c0-2.3,3.059-2.3,5.52-2.737.391-.069,1.035-.184,1.219-.529h.046Zm12.9-3.8c-.115-2.576-1.955-3.818-4.347-3.818-2.093,0-4.462.92-4.462,3.335,0,2,1.426,2.691,3.312,3.174l1.863.414c1.311.322,2.6.782,2.6,2.162,0,1.656-1.863,2.254-3.243,2.254-1.932,0-3.381-1.012-3.5-2.967h-1.449c.253,2.921,2.093,4.186,4.876,4.186,2.208,0,4.761-.989,4.761-3.565,0-2.07-1.725-3.036-3.381-3.289l-1.932-.437c-1.012-.253-2.461-.736-2.461-2,0-1.541,1.518-2.047,2.806-2.047,1.656,0,3.036.805,3.105,2.6Zm3.358,1.633c.253-2.162,1.518-4.232,3.91-4.232,2.323,0,3.7,2.047,3.772,4.232Zm9.131,1.219c.115-3.335-1.426-6.67-5.221-6.67-3.772,0-5.359,3.151-5.359,6.279,0,3.381,1.587,6.279,5.359,6.279,3.013,0,4.554-1.564,5.175-4.255h-1.449a3.6,3.6,0,0,1-3.726,3.036c-2.76,0-3.91-2.553-3.91-4.669ZM406.157,94.6c-.115-2.576-1.955-3.818-4.347-3.818-2.093,0-4.462.92-4.462,3.335,0,2,1.426,2.691,3.312,3.174l1.863.414c1.311.322,2.6.782,2.6,2.162,0,1.656-1.863,2.254-3.243,2.254-1.932,0-3.381-1.012-3.5-2.967h-1.449c.253,2.921,2.093,4.186,4.876,4.186,2.208,0,4.761-.989,4.761-3.565,0-2.07-1.725-3.036-3.381-3.289l-1.932-.437c-1.012-.253-2.461-.736-2.461-2,0-1.541,1.518-2.047,2.806-2.047,1.656,0,3.036.805,3.105,2.6Zm5.29,8.4v-2.438h-1.932V103ZM4.554,157h1.7l4.14-14.7h.046L14.605,157h1.656l4.531-16.422H19.228l-3.749,14.375h-.046l-4.025-14.375H9.453l-4,14.375H5.405L1.679,140.578H0Zm18.124-6.762c.253-2.162,1.518-4.232,3.91-4.232,2.323,0,3.7,2.047,3.772,4.232Zm9.131,1.219c.115-3.335-1.426-6.67-5.221-6.67-3.772,0-5.359,3.151-5.359,6.279,0,3.381,1.587,6.279,5.359,6.279,3.013,0,4.554-1.564,5.175-4.255H30.314a3.6,3.6,0,0,1-3.726,3.036c-2.76,0-3.91-2.553-3.91-4.669Zm2.852-10.879v2.438h.966c.069.713-.3,1.932-1.081,2.162v.989a3.082,3.082,0,0,0,2.047-3.128v-2.461ZM40.158,157h1.449v-6.325a4.088,4.088,0,0,1,4.416-4.255v-1.449a4.358,4.358,0,0,0-4.485,2.944h-.046v-2.783H40.158Zm7.682-6.762c.253-2.162,1.518-4.232,3.91-4.232,2.323,0,3.7,2.047,3.772,4.232Zm9.131,1.219c.115-3.335-1.426-6.67-5.221-6.67-3.772,0-5.359,3.151-5.359,6.279,0,3.381,1.587,6.279,5.359,6.279,3.013,0,4.554-1.564,5.175-4.255H55.476a3.6,3.6,0,0,1-3.726,3.036c-2.76,0-3.91-2.553-3.91-4.669ZM65.3,157h1.449v-6.923c.069-2.323,1.4-4.071,3.726-4.071,2.346,0,3.013,1.564,3.013,3.588V157h1.449v-7.636c0-2.829-1.012-4.577-4.347-4.577a4.047,4.047,0,0,0-3.795,2.392h-.046v-6.6H65.3Zm13.225-6.762c.253-2.162,1.518-4.232,3.91-4.232,2.323,0,3.7,2.047,3.772,4.232Zm9.131,1.219c.115-3.335-1.426-6.67-5.221-6.67-3.772,0-5.359,3.151-5.359,6.279,0,3.381,1.587,6.279,5.359,6.279,3.013,0,4.554-1.564,5.175-4.255H86.158a3.6,3.6,0,0,1-3.726,3.036c-2.76,0-3.91-2.553-3.91-4.669ZM89.608,157h1.449v-6.325a4.088,4.088,0,0,1,4.416-4.255v-1.449a4.358,4.358,0,0,0-4.485,2.944h-.046v-2.783H89.608Zm7.682-6.762c.253-2.162,1.518-4.232,3.91-4.232,2.323,0,3.7,2.047,3.772,4.232Zm9.131,1.219c.115-3.335-1.426-6.67-5.221-6.67-3.772,0-5.359,3.151-5.359,6.279,0,3.381,1.587,6.279,5.359,6.279,3.013,0,4.554-1.564,5.175-4.255h-1.449a3.6,3.6,0,0,1-3.726,3.036c-2.76,0-3.91-2.553-3.91-4.669Zm10.649-9.89h-1.449v3.565h-2.07v1.219h2.07v8.119c-.023,2.024.644,2.668,2.576,2.668.437,0,.851-.046,1.288-.046V155.85a11.237,11.237,0,0,1-1.242.069c-1.035-.069-1.173-.621-1.173-1.564v-8h2.415v-1.219H117.07Zm9.522,4.439c2.76,0,4.163,2.553,4.163,5.06s-1.4,5.06-4.163,5.06-4.163-2.553-4.163-5.06S123.832,146.006,126.592,146.006Zm0-1.219c-3.611,0-5.612,2.875-5.612,6.279s2,6.279,5.612,6.279,5.612-2.875,5.612-6.279S130.2,144.787,126.592,144.787Zm15.479,3.979c.069-1.932,1.357-2.76,3.174-2.76,1.725,0,3.1.483,3.1,2.438,0,1.288-.667,1.495-1.863,1.61-3.128.368-6.371.506-6.371,3.818,0,2.392,1.771,3.473,3.979,3.473a4.525,4.525,0,0,0,4.324-2.415h.046c0,1.219.23,2.07,1.7,2.07a4.1,4.1,0,0,0,.943-.092v-1.219a1.1,1.1,0,0,1-.46.092.762.762,0,0,1-.851-.874v-6.3c0-3.2-2.277-3.818-4.37-3.818-2.737,0-4.646,1.2-4.807,3.979Zm6.279,3.634c0,2.323-1.909,3.726-4.14,3.726a2.458,2.458,0,0,1-2.645-2.346c0-2.3,3.059-2.3,5.52-2.737.391-.069,1.035-.184,1.219-.529h.046Zm6.969,4.6h1.587l2.9-9.982h.046L162.771,157h1.587l3.818-11.868h-1.541L163.6,155.3h-.046l-2.9-10.166h-1.633l-2.9,10.166h-.046l-3.036-10.166H151.5Zm15.732-8.234c.069-1.932,1.357-2.76,3.174-2.76,1.725,0,3.1.483,3.1,2.438,0,1.288-.667,1.495-1.863,1.61-3.128.368-6.371.506-6.371,3.818,0,2.392,1.771,3.473,3.979,3.473a4.525,4.525,0,0,0,4.324-2.415h.046c0,1.219.23,2.07,1.7,2.07a4.1,4.1,0,0,0,.943-.092v-1.219a1.1,1.1,0,0,1-.46.092.762.762,0,0,1-.851-.874v-6.3c0-3.2-2.277-3.818-4.37-3.818-2.737,0-4.646,1.2-4.807,3.979Zm6.279,3.634c0,2.323-1.909,3.726-4.14,3.726a2.458,2.458,0,0,1-2.645-2.346c0-2.3,3.059-2.3,5.52-2.737.391-.069,1.035-.184,1.219-.529h.046Zm4.347,4.6h1.449v-4.508l2.346-1.955L190.164,157h1.817l-5.4-7.475,5.06-4.393H189.7l-6.578,5.75v-10.3h-1.449Zm12.351-6.762c.253-2.162,1.518-4.232,3.91-4.232,2.323,0,3.7,2.047,3.772,4.232Zm9.131,1.219c.115-3.335-1.426-6.67-5.221-6.67-3.772,0-5.359,3.151-5.359,6.279,0,3.381,1.587,6.279,5.359,6.279,3.013,0,4.554-1.564,5.175-4.255h-1.449a3.6,3.6,0,0,1-3.726,3.036c-2.76,0-3.91-2.553-3.91-4.669ZM205.091,157h1.449v-6.923c.069-2.323,1.4-4.071,3.726-4.071,2.346,0,3.013,1.564,3.013,3.588V157h1.449v-7.636c0-2.829-1.012-4.577-4.347-4.577a4.047,4.047,0,0,0-3.795,2.392h-.046v-2.047h-1.449Zm21.068-15.433H224.71v3.565h-2.07v1.219h2.07v8.119c-.023,2.024.644,2.668,2.576,2.668.437,0,.851-.046,1.288-.046V155.85a11.237,11.237,0,0,1-1.242.069c-1.035-.069-1.173-.621-1.173-1.564v-8h2.415v-1.219h-2.415ZM230.644,157h1.449v-6.923c.069-2.323,1.4-4.071,3.726-4.071,2.346,0,3.013,1.564,3.013,3.588V157h1.449v-7.636c0-2.829-1.012-4.577-4.347-4.577a4.047,4.047,0,0,0-3.795,2.392h-.046v-6.6h-1.449Zm13.225-6.762c.253-2.162,1.518-4.232,3.91-4.232,2.323,0,3.7,2.047,3.772,4.232ZM253,151.457c.115-3.335-1.426-6.67-5.221-6.67-3.772,0-5.359,3.151-5.359,6.279,0,3.381,1.587,6.279,5.359,6.279,3.013,0,4.554-1.564,5.175-4.255H251.5a3.6,3.6,0,0,1-3.726,3.036c-2.76,0-3.91-2.553-3.91-4.669Zm8.349,9.936H262.8v-6.647h.046a4.221,4.221,0,0,0,4.117,2.6c3.611,0,5.336-2.9,5.336-6.279s-1.725-6.279-5.336-6.279a4.385,4.385,0,0,0-4.232,2.6h-.046v-2.254h-1.334Zm9.5-10.327c0,2.461-1.127,5.06-3.887,5.06-3.059,0-4.163-2.6-4.163-5.06,0-2.691.943-5.06,4.163-5.06C269.721,146.006,270.848,148.6,270.848,151.066Zm8.717-5.06c2.76,0,4.163,2.553,4.163,5.06s-1.4,5.06-4.163,5.06-4.163-2.553-4.163-5.06S276.8,146.006,279.565,146.006Zm0-1.219c-3.611,0-5.612,2.875-5.612,6.279s2,6.279,5.612,6.279,5.612-2.875,5.612-6.279S283.176,144.787,279.565,144.787Zm10.074-3.22H288.19v3.565h-2.07v1.219h2.07v8.119c-.023,2.024.644,2.668,2.576,2.668.437,0,.851-.046,1.288-.046V155.85a11.237,11.237,0,0,1-1.242.069c-1.035-.069-1.173-.621-1.173-1.564v-8h2.415v-1.219h-2.415ZM295,150.238c.253-2.162,1.518-4.232,3.91-4.232,2.323,0,3.7,2.047,3.772,4.232Zm9.131,1.219c.115-3.335-1.426-6.67-5.221-6.67-3.772,0-5.359,3.151-5.359,6.279,0,3.381,1.587,6.279,5.359,6.279,3.013,0,4.554-1.564,5.175-4.255h-1.449a3.6,3.6,0,0,1-3.726,3.036c-2.76,0-3.91-2.553-3.91-4.669ZM306.061,157h1.449v-6.923c.069-2.323,1.4-4.071,3.726-4.071,2.346,0,3.013,1.564,3.013,3.588V157H315.7v-7.636c0-2.829-1.012-4.577-4.347-4.577a4.047,4.047,0,0,0-3.8,2.392h-.046v-2.047h-1.449Zm14.674-15.433h-1.449v3.565h-2.07v1.219h2.07v8.119c-.023,2.024.644,2.668,2.576,2.668.437,0,.851-.046,1.288-.046V155.85a11.237,11.237,0,0,1-1.242.069c-1.035-.069-1.173-.621-1.173-1.564v-8h2.415v-1.219h-2.415Zm4.531,1.334h1.449v-2.323h-1.449Zm0,14.1h1.449V145.132h-1.449Zm5.543-8.234c.069-1.932,1.357-2.76,3.174-2.76,1.725,0,3.105.483,3.105,2.438,0,1.288-.667,1.495-1.863,1.61-3.128.368-6.371.506-6.371,3.818,0,2.392,1.771,3.473,3.979,3.473a4.525,4.525,0,0,0,4.324-2.415h.046c0,1.219.23,2.07,1.7,2.07a4.1,4.1,0,0,0,.943-.092v-1.219a1.1,1.1,0,0,1-.46.092.762.762,0,0,1-.851-.874v-6.3c0-3.2-2.277-3.818-4.37-3.818-2.737,0-4.646,1.2-4.807,3.979Zm6.279,3.634c0,2.323-1.909,3.726-4.14,3.726a2.458,2.458,0,0,1-2.645-2.346c0-2.3,3.059-2.3,5.52-2.737.391-.069,1.035-.184,1.219-.529h.046Zm4.37,4.6h1.449V140.578h-1.449Zm15.64-10.994c2.76,0,4.163,2.553,4.163,5.06s-1.4,5.06-4.163,5.06-4.163-2.553-4.163-5.06S354.338,146.006,357.1,146.006Zm0-1.219c-3.611,0-5.612,2.875-5.612,6.279s2,6.279,5.612,6.279,5.612-2.875,5.612-6.279S360.709,144.787,357.1,144.787Zm12.351.345H367.1V144.1c0-1.265,0-2.3,1.587-2.3a5.938,5.938,0,0,1,1.058.115V140.67a7.438,7.438,0,0,0-1.219-.092c-2.346,0-2.875,1.426-2.875,3.473v1.081H363.63v1.219h2.024V157H367.1V146.351h2.346Zm9.085,3.634c.069-1.932,1.357-2.76,3.174-2.76,1.725,0,3.105.483,3.105,2.438,0,1.288-.667,1.495-1.863,1.61-3.128.368-6.371.506-6.371,3.818,0,2.392,1.771,3.473,3.979,3.473a4.525,4.525,0,0,0,4.324-2.415h.046c0,1.219.23,2.07,1.7,2.07a4.1,4.1,0,0,0,.943-.092v-1.219a1.1,1.1,0,0,1-.46.092.762.762,0,0,1-.851-.874v-6.3c0-3.2-2.277-3.818-4.37-3.818-2.737,0-4.646,1.2-4.807,3.979Zm6.279,3.634c0,2.323-1.909,3.726-4.14,3.726a2.458,2.458,0,0,1-2.645-2.346c0-2.3,3.059-2.3,5.52-2.737.391-.069,1.035-.184,1.219-.529h.046Zm13.363,4.6h1.587l2.9-9.982h.046L405.628,157h1.587l3.818-11.868h-1.541L406.456,155.3h-.046l-2.9-10.166h-1.633l-2.9,10.166h-.046L395.9,145.132h-1.541Zm15.272-6.762c.253-2.162,1.518-4.232,3.91-4.232,2.323,0,3.7,2.047,3.772,4.232Zm9.131,1.219c.115-3.335-1.426-6.67-5.221-6.67-3.772,0-5.359,3.151-5.359,6.279,0,3.381,1.587,6.279,5.359,6.279,3.013,0,4.554-1.564,5.175-4.255h-1.449a3.6,3.6,0,0,1-3.726,3.036c-2.76,0-3.91-2.553-3.91-4.669ZM424.557,157h1.449V140.578h-1.449Zm4.255,0h1.449V140.578h-1.449Zm9.982-5.658v-1.334h-5.75v1.334Zm2.783-8.441h1.449v-2.323h-1.449Zm0,14.1h1.449V145.132h-1.449Zm4.209,0h1.449v-6.923c.069-2.323,1.4-4.071,3.726-4.071,2.346,0,3.013,1.564,3.013,3.588V157h1.449v-7.636c0-2.829-1.012-4.577-4.347-4.577a4.047,4.047,0,0,0-3.8,2.392h-.046v-2.047h-1.449Zm16.951-11.868h-2.346V144.1c0-1.265,0-2.3,1.587-2.3a5.938,5.938,0,0,1,1.058.115V140.67a7.438,7.438,0,0,0-1.219-.092c-2.346,0-2.875,1.426-2.875,3.473v1.081h-2.024v1.219h2.024V157h1.449V146.351h2.346Zm6.394.874c2.76,0,4.163,2.553,4.163,5.06s-1.4,5.06-4.163,5.06-4.163-2.553-4.163-5.06S466.371,146.006,469.131,146.006Zm0-1.219c-3.611,0-5.612,2.875-5.612,6.279s2,6.279,5.612,6.279,5.612-2.875,5.612-6.279S472.742,144.787,469.131,144.787ZM476.905,157h1.449v-6.325a4.088,4.088,0,0,1,4.416-4.255v-1.449a4.358,4.358,0,0,0-4.485,2.944h-.046v-2.783h-1.334Zm7.245,0H485.6v-6.624c0-2.484,1.058-4.37,3.542-4.37,1.863,0,2.484,1.334,2.484,2.944V157h1.449v-6.716c0-2.208.713-4.278,3.22-4.278,2.093,0,2.806,1.058,2.806,3.013V157h1.449v-8.05c0-2.783-1.311-4.163-3.933-4.163a4.012,4.012,0,0,0-3.772,2.323,3.3,3.3,0,0,0-3.4-2.323,4.084,4.084,0,0,0-3.887,2.346h-.069v-2H484.15Zm20.01-6.762c.253-2.162,1.518-4.232,3.91-4.232,2.323,0,3.7,2.047,3.772,4.232Zm9.131,1.219c.115-3.335-1.426-6.67-5.221-6.67-3.772,0-5.359,3.151-5.359,6.279,0,3.381,1.587,6.279,5.359,6.279,3.013,0,4.554-1.564,5.175-4.255H511.8a3.6,3.6,0,0,1-3.726,3.036c-2.76,0-3.91-2.553-3.91-4.669Zm12.4-10.879h-1.449v6.808h-.046a4.233,4.233,0,0,0-4.117-2.6c-3.611,0-5.336,2.9-5.336,6.279s1.725,6.279,5.336,6.279a4.66,4.66,0,0,0,4.232-2.6h.046V157h1.334Zm-9.5,10.488c0-2.461,1.127-5.06,3.887-5.06,3.059,0,4.163,2.6,4.163,5.06s-1.1,5.06-4.163,5.06C517.316,156.126,516.189,153.527,516.189,151.066ZM537.464,157h1.587l2.9-9.982H542L544.916,157H546.5l3.818-11.868H548.78L545.744,155.3H545.7l-2.9-10.166h-1.633l-2.9,10.166h-.046l-3.036-10.166h-1.541ZM556.9,146.006c2.76,0,4.163,2.553,4.163,5.06s-1.4,5.06-4.163,5.06-4.163-2.553-4.163-5.06S554.139,146.006,556.9,146.006Zm0-1.219c-3.611,0-5.612,2.875-5.612,6.279s2,6.279,5.612,6.279,5.612-2.875,5.612-6.279S560.51,144.787,556.9,144.787ZM564.673,157h1.449v-6.325a4.088,4.088,0,0,1,4.416-4.255v-1.449a4.358,4.358,0,0,0-4.485,2.944h-.046v-2.783h-1.334Zm7.268,0h1.449V140.578h-1.449Zm14.674-16.422h-1.449v6.808h-.046a4.233,4.233,0,0,0-4.117-2.6c-3.611,0-5.336,2.9-5.336,6.279s1.725,6.279,5.336,6.279a4.66,4.66,0,0,0,4.232-2.6h.046V157h1.334Zm-9.5,10.488c0-2.461,1.127-5.06,3.887-5.06,3.059,0,4.163,2.6,4.163,5.06s-1.1,5.06-4.163,5.06C578.243,156.126,577.116,153.527,577.116,151.066ZM7.13,178.342v-1.334H1.38v1.334ZM18.906,184h1.587l2.9-9.982h.046L26.358,184h1.587l3.818-11.868H30.222L27.186,182.3H27.14l-2.9-10.166H22.609l-2.9,10.166h-.046l-3.036-10.166H15.088Zm15.272-6.762c.253-2.162,1.518-4.232,3.91-4.232,2.323,0,3.7,2.047,3.772,4.232Zm9.131,1.219c.115-3.335-1.426-6.67-5.221-6.67-3.772,0-5.359,3.151-5.359,6.279,0,3.381,1.587,6.279,5.359,6.279,3.013,0,4.554-1.564,5.175-4.255H41.814a3.6,3.6,0,0,1-3.726,3.036c-2.76,0-3.91-2.553-3.91-4.669Zm8.372-8.556H53.13v-2.323H51.681Zm0,15.548c0,.989-.184,1.725-1.311,1.725a4.445,4.445,0,0,1-.782-.023v1.2c.345,0,.667.046,1.012.046,2.047,0,2.53-1.518,2.53-3.289V172.132H51.681Zm13.846-13.317H64.078v6.233c0,2.415-1.081,4.761-3.565,4.761-2.3,0-3.1-1.127-3.174-3.266v-7.728H55.89v7.705c0,2.783,1.15,4.508,4.163,4.508a4.415,4.415,0,0,0,4.094-2.484h.046V184h1.334ZM76.82,175.6c-.115-2.576-1.955-3.818-4.347-3.818-2.093,0-4.462.92-4.462,3.335,0,2,1.426,2.691,3.312,3.174l1.863.414c1.311.322,2.6.782,2.6,2.162,0,1.656-1.863,2.254-3.243,2.254-1.932,0-3.381-1.012-3.5-2.967H67.6c.253,2.921,2.093,4.186,4.876,4.186,2.208,0,4.761-.989,4.761-3.565,0-2.07-1.725-3.036-3.381-3.289l-1.932-.437c-1.012-.253-2.461-.736-2.461-2,0-1.541,1.518-2.047,2.806-2.047,1.656,0,3.036.805,3.1,2.6Zm4.807-7.038H80.178v3.565h-2.07v1.219h2.07v8.119c-.023,2.024.644,2.668,2.576,2.668.437,0,.851-.046,1.288-.046V182.85a11.237,11.237,0,0,1-1.242.069c-1.035-.069-1.173-.621-1.173-1.564v-8h2.415v-1.219H81.627ZM92.529,184h1.449v-6.325a4.088,4.088,0,0,1,4.416-4.255v-1.449a4.358,4.358,0,0,0-4.485,2.944h-.046v-2.783H92.529Zm7.682-6.762c.253-2.162,1.518-4.232,3.91-4.232,2.323,0,3.7,2.047,3.772,4.232Zm9.131,1.219c.115-3.335-1.426-6.67-5.221-6.67-3.772,0-5.359,3.151-5.359,6.279,0,3.381,1.587,6.279,5.359,6.279,3.013,0,4.554-1.564,5.175-4.255h-1.449a3.6,3.6,0,0,1-3.726,3.036c-2.76,0-3.91-2.553-3.91-4.669Zm1.955,9.936h1.449v-6.647h.046a4.221,4.221,0,0,0,4.117,2.6c3.611,0,5.336-2.9,5.336-6.279s-1.725-6.279-5.336-6.279a4.385,4.385,0,0,0-4.232,2.6h-.046v-2.254H111.3Zm9.5-10.327c0,2.461-1.127,5.06-3.887,5.06-3.059,0-4.163-2.6-4.163-5.06,0-2.691.943-5.06,4.163-5.06C119.669,173.006,120.8,175.6,120.8,178.066Zm8.717-5.06c2.76,0,4.163,2.553,4.163,5.06s-1.4,5.06-4.163,5.06-4.163-2.553-4.163-5.06S126.753,173.006,129.513,173.006Zm0-1.219c-3.611,0-5.612,2.875-5.612,6.279s2,6.279,5.612,6.279,5.612-2.875,5.612-6.279S133.124,171.787,129.513,171.787ZM137.287,184h1.449v-6.325a4.088,4.088,0,0,1,4.416-4.255v-1.449a4.358,4.358,0,0,0-4.485,2.944h-.046v-2.783h-1.334Zm9.545-15.433h-1.449v3.565h-2.07v1.219h2.07v8.119c-.023,2.024.644,2.668,2.576,2.668.437,0,.851-.046,1.288-.046V182.85a11.237,11.237,0,0,1-1.242.069c-1.035-.069-1.173-.621-1.173-1.564v-8h2.415v-1.219h-2.415Zm13.2,0h-1.449v3.565h-2.07v1.219h2.07v8.119c-.023,2.024.644,2.668,2.576,2.668.437,0,.851-.046,1.288-.046V182.85a11.237,11.237,0,0,1-1.242.069c-1.035-.069-1.173-.621-1.173-1.564v-8h2.415v-1.219h-2.415ZM164.519,184h1.449v-6.923c.069-2.323,1.4-4.071,3.726-4.071,2.346,0,3.013,1.564,3.013,3.588V184h1.449v-7.636c0-2.829-1.012-4.577-4.347-4.577a4.047,4.047,0,0,0-3.795,2.392h-.046v-6.6h-1.449Zm13.225-6.762c.253-2.162,1.518-4.232,3.91-4.232,2.323,0,3.7,2.047,3.772,4.232Zm9.131,1.219c.115-3.335-1.426-6.67-5.221-6.67-3.772,0-5.359,3.151-5.359,6.279,0,3.381,1.587,6.279,5.359,6.279,3.013,0,4.554-1.564,5.175-4.255H185.38a3.6,3.6,0,0,1-3.726,3.036c-2.76,0-3.91-2.553-3.91-4.669Zm12.926-6.325h-2.346V171.1c0-1.265,0-2.3,1.587-2.3a5.937,5.937,0,0,1,1.058.115V167.67a7.437,7.437,0,0,0-1.219-.092c-2.346,0-2.875,1.426-2.875,3.473v1.081h-2.024v1.219h2.024V184h1.449V173.351H199.8Zm2.691,3.634c.069-1.932,1.357-2.76,3.174-2.76,1.725,0,3.1.483,3.1,2.438,0,1.288-.667,1.495-1.863,1.61-3.128.368-6.371.506-6.371,3.818,0,2.392,1.771,3.473,3.979,3.473a4.525,4.525,0,0,0,4.324-2.415h.046c0,1.219.23,2.07,1.7,2.07a4.1,4.1,0,0,0,.943-.092v-1.219a1.1,1.1,0,0,1-.46.092.762.762,0,0,1-.851-.874v-6.3c0-3.2-2.277-3.818-4.37-3.818-2.737,0-4.646,1.2-4.807,3.979Zm6.279,3.634c0,2.323-1.909,3.726-4.14,3.726a2.458,2.458,0,0,1-2.645-2.346c0-2.3,3.059-2.3,5.52-2.737.391-.069,1.035-.184,1.219-.529h.046Zm14.168-3.542c-.345-2.737-2.254-4.071-4.807-4.071-3.611,0-5.612,2.875-5.612,6.279s2,6.279,5.612,6.279c2.668,0,4.508-1.725,4.9-4.6h-1.449a3.569,3.569,0,0,1-3.45,3.381c-2.76,0-4.163-2.553-4.163-5.06s1.4-5.06,4.163-5.06a3.211,3.211,0,0,1,3.358,2.852Zm4.416-7.291h-1.449v3.565h-2.07v1.219h2.07v8.119c-.023,2.024.644,2.668,2.576,2.668.437,0,.851-.046,1.288-.046V182.85a11.237,11.237,0,0,1-1.242.069c-1.035-.069-1.173-.621-1.173-1.564v-8h2.415v-1.219h-2.415Zm13.064,7.038c-.115-2.576-1.955-3.818-4.347-3.818-2.093,0-4.462.92-4.462,3.335,0,2,1.426,2.691,3.312,3.174l1.863.414c1.311.322,2.6.782,2.6,2.162,0,1.656-1.863,2.254-3.243,2.254-1.932,0-3.381-1.012-3.5-2.967H231.2c.253,2.921,2.093,4.186,4.876,4.186,2.208,0,4.761-.989,4.761-3.565,0-2.07-1.725-3.036-3.381-3.289l-1.932-.437c-1.012-.253-2.461-.736-2.461-2,0-1.541,1.518-2.047,2.806-2.047,1.656,0,3.036.805,3.1,2.6Zm17.457,0c-.115-2.576-1.955-3.818-4.347-3.818-2.093,0-4.462.92-4.462,3.335,0,2,1.426,2.691,3.312,3.174l1.863.414c1.311.322,2.6.782,2.6,2.162,0,1.656-1.863,2.254-3.243,2.254-1.932,0-3.381-1.012-3.5-2.967h-1.449c.253,2.921,2.093,4.186,4.876,4.186,2.208,0,4.761-.989,4.761-3.565,0-2.07-1.725-3.036-3.381-3.289l-1.932-.437c-1.012-.253-2.461-.736-2.461-2,0-1.541,1.518-2.047,2.806-2.047,1.656,0,3.036.805,3.1,2.6Zm7.521-2.6c2.76,0,4.163,2.553,4.163,5.06s-1.4,5.06-4.163,5.06-4.163-2.553-4.163-5.06S262.637,173.006,265.4,173.006Zm0-1.219c-3.611,0-5.612,2.875-5.612,6.279s2,6.279,5.612,6.279,5.612-2.875,5.612-6.279S269.008,171.787,265.4,171.787Zm17.572,12.167-.506,1.357c-.483,1.1-.782,1.863-2.07,1.863a4.834,4.834,0,0,1-.989-.115v1.219a3.868,3.868,0,0,0,1.1.115c1.817,0,2.277-.575,3.128-2.576l5.152-13.685h-1.449l-3.657,10.12-3.91-10.12h-1.541Zm12.259-10.948c2.76,0,4.163,2.553,4.163,5.06s-1.4,5.06-4.163,5.06-4.163-2.553-4.163-5.06S292.468,173.006,295.228,173.006Zm0-1.219c-3.611,0-5.612,2.875-5.612,6.279s2,6.279,5.612,6.279,5.612-2.875,5.612-6.279S298.839,171.787,295.228,171.787Zm17.388.345h-1.449v6.233c0,2.415-1.081,4.761-3.565,4.761-2.3,0-3.105-1.127-3.174-3.266v-7.728h-1.449v7.705c0,2.783,1.15,4.508,4.163,4.508a4.415,4.415,0,0,0,4.094-2.484h.046V184h1.334Zm18.952,3.726c-.345-2.737-2.254-4.071-4.807-4.071-3.611,0-5.612,2.875-5.612,6.279s2,6.279,5.612,6.279c2.668,0,4.508-1.725,4.9-4.6h-1.449a3.569,3.569,0,0,1-3.45,3.381c-2.76,0-4.163-2.553-4.163-5.06s1.4-5.06,4.163-5.06a3.211,3.211,0,0,1,3.358,2.852Zm3.427-.092c.069-1.932,1.357-2.76,3.174-2.76,1.725,0,3.105.483,3.105,2.438,0,1.288-.667,1.495-1.863,1.61-3.128.368-6.371.506-6.371,3.818,0,2.392,1.771,3.473,3.979,3.473a4.525,4.525,0,0,0,4.324-2.415h.046c0,1.219.23,2.07,1.7,2.07a4.1,4.1,0,0,0,.943-.092v-1.219a1.1,1.1,0,0,1-.46.092.762.762,0,0,1-.851-.874v-6.3c0-3.2-2.277-3.818-4.37-3.818-2.737,0-4.646,1.2-4.807,3.979Zm6.279,3.634c0,2.323-1.909,3.726-4.14,3.726a2.458,2.458,0,0,1-2.645-2.346c0-2.3,3.059-2.3,5.52-2.737.391-.069,1.035-.184,1.219-.529h.046ZM345.6,184h1.449v-6.923c.069-2.323,1.4-4.071,3.726-4.071,2.346,0,3.013,1.564,3.013,3.588V184h1.449v-7.636c0-2.829-1.012-4.577-4.347-4.577a4.047,4.047,0,0,0-3.8,2.392h-.046v-2.047H345.6Zm18.768,0h1.449v-6.624c0-2.484,1.058-4.37,3.542-4.37,1.863,0,2.484,1.334,2.484,2.944V184h1.449v-6.716c0-2.208.713-4.278,3.22-4.278,2.093,0,2.806,1.058,2.806,3.013V184h1.449v-8.05c0-2.783-1.311-4.163-3.933-4.163a4.012,4.012,0,0,0-3.772,2.323,3.3,3.3,0,0,0-3.4-2.323,4.084,4.084,0,0,0-3.887,2.346H365.7v-2h-1.334Zm20.47-8.234c.069-1.932,1.357-2.76,3.174-2.76,1.725,0,3.105.483,3.105,2.438,0,1.288-.667,1.495-1.863,1.61-3.128.368-6.371.506-6.371,3.818,0,2.392,1.771,3.473,3.979,3.473a4.525,4.525,0,0,0,4.324-2.415h.046c0,1.219.23,2.07,1.7,2.07a4.1,4.1,0,0,0,.943-.092v-1.219a1.1,1.1,0,0,1-.46.092.762.762,0,0,1-.851-.874v-6.3c0-3.2-2.277-3.818-4.37-3.818-2.737,0-4.646,1.2-4.807,3.979Zm6.279,3.634c0,2.323-1.909,3.726-4.14,3.726a2.458,2.458,0,0,1-2.645-2.346c0-2.3,3.059-2.3,5.52-2.737.391-.069,1.035-.184,1.219-.529h.046Zm4.347,4.6h1.449v-4.508l2.346-1.955L403.949,184h1.817l-5.4-7.475,5.06-4.393h-1.932l-6.578,5.75v-10.3h-1.449Zm12.351-6.762c.253-2.162,1.518-4.232,3.91-4.232,2.323,0,3.7,2.047,3.772,4.232Zm9.131,1.219c.115-3.335-1.426-6.67-5.221-6.67-3.772,0-5.359,3.151-5.359,6.279,0,3.381,1.587,6.279,5.359,6.279,3.013,0,4.554-1.564,5.175-4.255h-1.449a3.6,3.6,0,0,1-3.726,3.036c-2.76,0-3.91-2.553-3.91-4.669Zm11.753,5.5-.506,1.357c-.483,1.1-.782,1.863-2.07,1.863a4.834,4.834,0,0,1-.989-.115v1.219a3.868,3.868,0,0,0,1.1.115c1.817,0,2.277-.575,3.128-2.576l5.152-13.685h-1.449l-3.657,10.12-3.91-10.12h-1.541Zm12.259-10.948c2.76,0,4.163,2.553,4.163,5.06s-1.4,5.06-4.163,5.06-4.163-2.553-4.163-5.06S438.2,173.006,440.956,173.006Zm0-1.219c-3.611,0-5.612,2.875-5.612,6.279s2,6.279,5.612,6.279,5.612-2.875,5.612-6.279S444.567,171.787,440.956,171.787Zm17.388.345H456.9v6.233c0,2.415-1.081,4.761-3.565,4.761-2.3,0-3.105-1.127-3.174-3.266v-7.728h-1.449v7.705c0,2.783,1.15,4.508,4.163,4.508a4.415,4.415,0,0,0,4.094-2.484h.046V184h1.334ZM461.081,184h1.449v-6.325a4.088,4.088,0,0,1,4.416-4.255v-1.449a4.358,4.358,0,0,0-4.485,2.944h-.046v-2.783h-1.334Zm18.653-10.994c2.76,0,4.163,2.553,4.163,5.06s-1.4,5.06-4.163,5.06-4.163-2.553-4.163-5.06S476.974,173.006,479.734,173.006Zm0-1.219c-3.611,0-5.612,2.875-5.612,6.279s2,6.279,5.612,6.279,5.612-2.875,5.612-6.279S483.345,171.787,479.734,171.787ZM490.13,184h1.587l2.9-9.982h.046L497.582,184h1.587l3.818-11.868h-1.541L498.41,182.3h-.046l-2.9-10.166h-1.633l-2.9,10.166h-.046l-3.036-10.166h-1.541Zm14.4,0h1.449v-6.923c.069-2.323,1.4-4.071,3.726-4.071,2.346,0,3.013,1.564,3.013,3.588V184h1.449v-7.636c0-2.829-1.012-4.577-4.347-4.577a4.047,4.047,0,0,0-3.8,2.392h-.046v-2.047h-1.449ZM11.822,194.578H10.373v6.808h-.046a4.233,4.233,0,0,0-4.117-2.6c-3.611,0-5.336,2.9-5.336,6.279s1.725,6.279,5.336,6.279a4.66,4.66,0,0,0,4.232-2.6h.046V211h1.334Zm-9.5,10.488c0-2.461,1.127-5.06,3.887-5.06,3.059,0,4.163,2.6,4.163,5.06s-1.1,5.06-4.163,5.06C3.45,210.126,2.323,207.527,2.323,205.066Zm13.11-.828c.253-2.162,1.518-4.232,3.91-4.232,2.323,0,3.7,2.047,3.772,4.232Zm9.131,1.219c.115-3.335-1.426-6.67-5.221-6.67-3.772,0-5.359,3.151-5.359,6.279,0,3.381,1.587,6.279,5.359,6.279,3.013,0,4.554-1.564,5.175-4.255H23.069a3.6,3.6,0,0,1-3.726,3.036c-2.76,0-3.91-2.553-3.91-4.669Zm11.776-2.6c-.345-2.737-2.254-4.071-4.807-4.071-3.611,0-5.612,2.875-5.612,6.279s2,6.279,5.612,6.279c2.668,0,4.508-1.725,4.9-4.6H34.983a3.569,3.569,0,0,1-3.45,3.381c-2.76,0-4.163-2.553-4.163-5.06s1.4-5.06,4.163-5.06a3.211,3.211,0,0,1,3.358,2.852Zm2.139-5.957h1.449v-2.323H38.479Zm0,14.1h1.449V199.132H38.479Zm12.788-8.4c-.115-2.576-1.955-3.818-4.347-3.818-2.093,0-4.462.92-4.462,3.335,0,2,1.426,2.691,3.312,3.174l1.863.414c1.311.322,2.6.782,2.6,2.162,0,1.656-1.863,2.254-3.243,2.254-1.932,0-3.381-1.012-3.5-2.967H42.044c.253,2.921,2.093,4.186,4.876,4.186,2.208,0,4.761-.989,4.761-3.565,0-2.07-1.725-3.036-3.381-3.289l-1.932-.437c-1.012-.253-2.461-.736-2.461-2,0-1.541,1.518-2.047,2.806-2.047,1.656,0,3.036.805,3.1,2.6Zm2.53-5.7h1.449v-2.323H53.8Zm0,14.1h1.449V199.132H53.8Zm9.246-10.994c2.76,0,4.163,2.553,4.163,5.06s-1.4,5.06-4.163,5.06-4.163-2.553-4.163-5.06S60.283,200.006,63.043,200.006Zm0-1.219c-3.611,0-5.612,2.875-5.612,6.279s2,6.279,5.612,6.279,5.612-2.875,5.612-6.279S66.654,198.787,63.043,198.787ZM70.794,211h1.449v-6.923c.069-2.323,1.4-4.071,3.726-4.071,2.346,0,3.013,1.564,3.013,3.588V211h1.449v-7.636c0-2.829-1.012-4.577-4.347-4.577a4.047,4.047,0,0,0-3.8,2.392h-.046v-2.047H70.794Zm20.93-8.4c-.115-2.576-1.955-3.818-4.347-3.818-2.093,0-4.462.92-4.462,3.335,0,2,1.426,2.691,3.312,3.174l1.863.414c1.311.322,2.6.782,2.6,2.162,0,1.656-1.863,2.254-3.243,2.254-1.932,0-3.381-1.012-3.5-2.967H82.5c.253,2.921,2.093,4.186,4.876,4.186,2.208,0,4.761-.989,4.761-3.565,0-2.07-1.725-3.036-3.381-3.289l-1.932-.437c-1.012-.253-2.461-.736-2.461-2,0-1.541,1.518-2.047,2.806-2.047,1.656,0,3.036.805,3.1,2.6Zm5.29,8.4v-2.438H95.082V211ZM1.656,265H13.11v-1.334H3.22V257.18h9.154v-1.334H3.22v-5.934h9.775v-1.334H1.656Zm16.606,0H19.8l4.439-11.868H22.747l-3.68,10.419h-.046L15.3,253.132h-1.61Zm12.42-10.994c2.76,0,4.163,2.553,4.163,5.06s-1.4,5.06-4.163,5.06-4.163-2.553-4.163-5.06S27.922,254.006,30.682,254.006Zm0-1.219c-3.611,0-5.612,2.875-5.612,6.279s2,6.279,5.612,6.279,5.612-2.875,5.612-6.279S34.293,252.787,30.682,252.787ZM38.479,265h1.449V248.578H38.479Zm7.475,0H47.5l4.439-11.868H50.439l-3.68,10.419h-.046l-3.726-10.419h-1.61Zm8.257-6.762c.253-2.162,1.518-4.232,3.91-4.232,2.323,0,3.7,2.047,3.772,4.232Zm9.131,1.219c.115-3.335-1.426-6.67-5.221-6.67-3.772,0-5.359,3.151-5.359,6.279,0,3.381,1.587,6.279,5.359,6.279,3.013,0,4.554-1.564,5.175-4.255H61.847a3.6,3.6,0,0,1-3.726,3.036c-2.76,0-3.91-2.553-3.91-4.669ZM74.313,265H75.9l2.9-9.982h.046L81.765,265h1.587l3.818-11.868H85.629L82.593,263.3h-.046l-2.9-10.166H78.016l-2.9,10.166h-.046l-3.036-10.166H70.5Zm14.444-14.1h1.449v-2.323H88.757Zm0,14.1h1.449V253.132H88.757Zm6.532-15.433H93.84v3.565H91.77v1.219h2.07v8.119c-.023,2.024.644,2.668,2.576,2.668.437,0,.851-.046,1.288-.046V263.85a11.241,11.241,0,0,1-1.242.069c-1.035-.069-1.173-.621-1.173-1.564v-8H97.7v-1.219H95.289ZM99.774,265h1.449v-6.923c.069-2.323,1.4-4.071,3.726-4.071,2.346,0,3.013,1.564,3.013,3.588V265h1.449v-7.636c0-2.829-1.012-4.577-4.347-4.577a4.047,4.047,0,0,0-3.8,2.392h-.046v-6.6H99.774Zm28.382-11.868h-1.449v6.233c0,2.415-1.081,4.761-3.565,4.761-2.3,0-3.105-1.127-3.174-3.266v-7.728h-1.449v7.705c0,2.783,1.15,4.508,4.163,4.508a4.415,4.415,0,0,0,4.094-2.484h.046V265h1.334Zm11.293,3.473c-.115-2.576-1.955-3.818-4.347-3.818-2.093,0-4.462.92-4.462,3.335,0,2,1.426,2.691,3.312,3.174l1.863.414c1.311.322,2.6.782,2.6,2.162,0,1.656-1.863,2.254-3.243,2.254-1.932,0-3.381-1.012-3.5-2.967h-1.449c.253,2.921,2.093,4.186,4.876,4.186,2.208,0,4.761-.989,4.761-3.565,0-2.07-1.725-3.036-3.381-3.289l-1.932-.437c-1.012-.253-2.461-.736-2.461-2,0-1.541,1.518-2.047,2.806-2.047,1.656,0,3.036.805,3.1,2.6Zm5.29,8.395v-2.438h-1.932V265Z" transform="translate(-3727 -7633)"/>
    <path id="Path_303" data-name="Path 303" d="M2.752-18.464a2.307,2.307,0,0,0-.7-1.264A2.71,2.71,0,0,0,.48-20.064V-21.12H8.512v1.056H7.072a1.157,1.157,0,0,0-.592.112.437.437,0,0,0-.176.4,2.626,2.626,0,0,0,.1.576L10.144-4.384h.128l4.064-16.288h2.528l4.384,16.32h.16L24.9-18.56a7.408,7.408,0,0,0,.192-.992.444.444,0,0,0-.176-.384,1.111,1.111,0,0,0-.624-.128H22.464V-21.12h6.72v1.056a2.645,2.645,0,0,0-1.888.56,4.511,4.511,0,0,0-.96,2.1L21.632,0H18.784L14.592-15.3h-.128L10.5,0H7.648ZM42.272-7.328h-9.6a8.094,8.094,0,0,0,1.056,4.192A3.594,3.594,0,0,0,36.96-1.7a4.4,4.4,0,0,0,2.592-.72,4.864,4.864,0,0,0,1.632-2.16L42.176-4a7.791,7.791,0,0,1-2.24,3.136A6.69,6.69,0,0,1,35.616.32q-6.88,0-6.88-7.776,0-3.936,1.744-5.92a6.434,6.434,0,0,1,5.1-1.984q3.52,0,5.1,2.048a8.88,8.88,0,0,1,1.584,5.568Zm-3.9-1.28a12.333,12.333,0,0,0-.512-4.16,2.063,2.063,0,0,0-2.144-1.312,2.424,2.424,0,0,0-2.288,1.312,9.507,9.507,0,0,0-.784,4.16Zm6.208,7.552A4.818,4.818,0,0,0,45.968-1.2a.839.839,0,0,0,.56-.464,2.851,2.851,0,0,0,.128-.992v-16.1a2.512,2.512,0,0,0-.192-1.2.8.8,0,0,0-.736-.3h-.96v-1.088l4.7-.736h.9V-2.656a2.688,2.688,0,0,0,.144,1.008.838.838,0,0,0,.576.464,5.052,5.052,0,0,0,1.328.128V0h-7.84ZM61.408.32a6.831,6.831,0,0,1-5.2-1.9Q54.4-3.488,54.4-7.36q0-4,1.888-6a7.123,7.123,0,0,1,5.44-2,8.223,8.223,0,0,1,3.3.576,4.3,4.3,0,0,1,1.92,1.488,3.48,3.48,0,0,1,.608,1.968,2.149,2.149,0,0,1-.5,1.5,1.748,1.748,0,0,1-1.36.544,1.7,1.7,0,0,1-1.328-.512A1.879,1.879,0,0,1,63.9-11.1a1.951,1.951,0,0,1,.144-.8q.144-.32.176-.384a1.353,1.353,0,0,0,.224-.64.946.946,0,0,0-.576-.832,3.487,3.487,0,0,0-1.664-.32,3.424,3.424,0,0,0-2.88,1.28q-.992,1.28-.992,4.64a9.02,9.02,0,0,0,1.056,4.9,3.636,3.636,0,0,0,3.264,1.6A3.942,3.942,0,0,0,65.392-2.5a7.14,7.14,0,0,0,1.552-2.112l.8.48A6.84,6.84,0,0,1,65.552-.816,6.607,6.607,0,0,1,61.408.32ZM77.6.32q-3.84,0-5.648-1.888t-1.808-5.92q0-4.032,1.824-5.968t5.7-1.936q3.808,0,5.6,1.9t1.792,5.936q0,4.064-1.808,5.968T77.6.32Zm0-1.28a2.822,2.822,0,0,0,2.688-1.568A10.732,10.732,0,0,0,81.12-7.36a11.46,11.46,0,0,0-.864-5.12,2.848,2.848,0,0,0-2.688-1.632A2.826,2.826,0,0,0,74.9-12.528a11.128,11.128,0,0,0-.848,5.008A11.019,11.019,0,0,0,74.9-2.528,2.856,2.856,0,0,0,77.6-.96Zm34.912-1.7a2.67,2.67,0,0,0,.144,1.024.841.841,0,0,0,.56.448,5.2,5.2,0,0,0,1.376.128V0h-7.584V-1.056a6.279,6.279,0,0,0,1.216-.08.644.644,0,0,0,.48-.368,2.692,2.692,0,0,0,.128-.992v-7.68a3.332,3.332,0,0,0-.72-2.3,2.593,2.593,0,0,0-2.032-.8,3.412,3.412,0,0,0-1.68.416,4.964,4.964,0,0,0-1.456,1.312v8.9a3,3,0,0,0,.128,1.008.772.772,0,0,0,.512.464,4.03,4.03,0,0,0,1.184.128V0h-7.36V-1.056a6.279,6.279,0,0,0,1.216-.08.691.691,0,0,0,.5-.368,2.417,2.417,0,0,0,.144-.992v-7.68a3.332,3.332,0,0,0-.72-2.3,2.675,2.675,0,0,0-2.1-.8,3.91,3.91,0,0,0-3.072,1.44V-2.5a2.417,2.417,0,0,0,.144.992.691.691,0,0,0,.5.368,5.81,5.81,0,0,0,1.152.08V0H87.584V-1.056a5.2,5.2,0,0,0,1.376-.128.788.788,0,0,0,.544-.448,2.977,2.977,0,0,0,.128-1.024V-11.9a2.417,2.417,0,0,0-.192-1.168.767.767,0,0,0-.7-.3h-.96v-1.088l4.608-.736h.9v1.984A10.01,10.01,0,0,1,95.936-14.8a7.271,7.271,0,0,1,2.688-.56,4.588,4.588,0,0,1,2.576.7,3.766,3.766,0,0,1,1.488,1.728,7.737,7.737,0,0,1,2.544-1.76,7.43,7.43,0,0,1,3.024-.672,4.023,4.023,0,0,1,3.136,1.232,4.978,4.978,0,0,1,1.12,3.472ZM129.92-7.328h-9.6a8.1,8.1,0,0,0,1.056,4.192,3.594,3.594,0,0,0,3.232,1.44,4.4,4.4,0,0,0,2.592-.72,4.864,4.864,0,0,0,1.632-2.16l.992.576a7.791,7.791,0,0,1-2.24,3.136A6.69,6.69,0,0,1,123.264.32q-6.88,0-6.88-7.776,0-3.936,1.744-5.92a6.434,6.434,0,0,1,5.1-1.984q3.52,0,5.1,2.048a8.88,8.88,0,0,1,1.584,5.568Zm-3.9-1.28a12.333,12.333,0,0,0-.512-4.16,2.063,2.063,0,0,0-2.144-1.312,2.424,2.424,0,0,0-2.288,1.312,9.507,9.507,0,0,0-.784,4.16ZM144.8.352a3.755,3.755,0,0,1-2.752-.976,3.709,3.709,0,0,1-.992-2.768V-13.76h-1.888v-1.056a5.234,5.234,0,0,0,2.656-1.776,9.473,9.473,0,0,0,1.568-3.472h1.344v5.024h3.424v1.28h-3.424v9.248a3.486,3.486,0,0,0,.544,2.144,2.008,2.008,0,0,0,1.7.7,3.969,3.969,0,0,0,1.6-.32l.352.8A16.056,16.056,0,0,1,146.9-.032,5.075,5.075,0,0,1,144.8.352ZM157.888.32q-3.84,0-5.648-1.888t-1.808-5.92q0-4.032,1.824-5.968t5.7-1.936q3.808,0,5.6,1.9t1.792,5.936q0,4.064-1.808,5.968T157.888.32Zm0-1.28a2.822,2.822,0,0,0,2.688-1.568,10.732,10.732,0,0,0,.832-4.832,11.46,11.46,0,0,0-.864-5.12,2.848,2.848,0,0,0-2.688-1.632,2.826,2.826,0,0,0-2.672,1.584,11.128,11.128,0,0,0-.848,5.008,11.019,11.019,0,0,0,.848,4.992A2.856,2.856,0,0,0,157.888-.96Zm19.232-17.5a4.019,4.019,0,0,0-.448-.992A1.256,1.256,0,0,0,176-19.92a4.394,4.394,0,0,0-1.28-.144V-21.12H183.1v1.056H181.7q-.768,0-.768.576a1.644,1.644,0,0,0,.1.512l4.928,14.912h.16l4.672-14.5a3.071,3.071,0,0,0,.192-.9.542.542,0,0,0-.192-.464,1.021,1.021,0,0,0-.608-.144H188.64V-21.12h6.624v1.056a3.07,3.07,0,0,0-1.7.384,2.643,2.643,0,0,0-.928,1.344L186.144,0H183.36ZM201.568.32q-3.84,0-5.648-1.888t-1.808-5.92q0-4.032,1.824-5.968t5.7-1.936q3.808,0,5.6,1.9t1.792,5.936q0,4.064-1.808,5.968T201.568.32Zm0-1.28a2.822,2.822,0,0,0,2.688-1.568,10.732,10.732,0,0,0,.832-4.832,11.46,11.46,0,0,0-.864-5.12,2.848,2.848,0,0,0-2.688-1.632,2.826,2.826,0,0,0-2.672,1.584,11.128,11.128,0,0,0-.848,5.008,11.019,11.019,0,0,0,.848,4.992A2.856,2.856,0,0,0,201.568-.96Zm9.056-.1a4.818,4.818,0,0,0,1.392-.144.839.839,0,0,0,.56-.464,2.85,2.85,0,0,0,.128-.992v-16.1a2.512,2.512,0,0,0-.192-1.2.8.8,0,0,0-.736-.3h-.96v-1.088l4.7-.736h.9V-2.656a2.688,2.688,0,0,0,.144,1.008.838.838,0,0,0,.576.464,5.052,5.052,0,0,0,1.328.128V0h-7.84ZM221.344-12.8a1.89,1.89,0,0,0-.688-.944,2.9,2.9,0,0,0-1.392-.24V-15.04h7.36v1.056H225.5q-.608,0-.608.48a1.751,1.751,0,0,0,.064.384l3.648,9.568h.1l3.36-9.5a2.81,2.81,0,0,0,.064-.416q0-.512-.64-.512H230.24V-15.04h5.824v1.056a2.57,2.57,0,0,0-1.408.288,2.165,2.165,0,0,0-.7,1.024L228.736,0h-2.368Z" transform="translate(-3727 -7669)"/>
  </g>
</svg>
