<svg xmlns="http://www.w3.org/2000/svg" xmlns:xlink="http://www.w3.org/1999/xlink" width="429.298" height="353.65" viewBox="0 0 429.298 353.65">
  <defs>
    <filter id="Path_250" x="0" y="0" width="429.298" height="353.65" filterUnits="userSpaceOnUse">
      <feOffset dy="25" input="SourceAlpha"/>
      <feGaussianBlur stdDeviation="15" result="blur"/>
      <feFlood flood-opacity="0.078"/>
      <feComposite operator="in" in2="blur"/>
      <feComposite in="SourceGraphic"/>
    </filter>
    <linearGradient id="linear-gradient" x1="0.5" x2="0.5" y2="1" gradientUnits="objectBoundingBox">
      <stop offset="0" stop-color="#ecebec"/>
      <stop offset="1" stop-color="#d4d3d4"/>
    </linearGradient>
  </defs>
  <g id="Group_935" data-name="Group 935" transform="translate(-7864 11757)">
    <g transform="matrix(1, 0, 0, 1, 7864, -11757)" filter="url(#Path_250)">
      <g id="Path_250-2" data-name="Path 250" transform="translate(46 21)" fill="#fff">
        <path d="M2.852,0H334.446A3.03,3.03,0,0,1,337.3,3.181V258.469a3.03,3.03,0,0,1-2.852,3.181H2.852A3.03,3.03,0,0,1,0,258.469V3.181A3.03,3.03,0,0,1,2.852,0Z" stroke="none"/>
        <path d="M 2.8524169921875 0 C 1.27703857421875 0 0 1.424224853515625 0 3.18115234375 L 0 258.4691467285156 C 0 260.2261657714844 1.27703857421875 261.650390625 2.8524169921875 261.650390625 L 334.4457092285156 261.650390625 C 336.0211486816406 261.650390625 337.2981872558594 260.2261657714844 337.2981872558594 258.4691467285156 L 337.2981872558594 3.18115234375 C 337.2981872558594 1.424224853515625 336.0211486816406 0 334.4457092285156 0 L 2.8524169921875 0 M 2.8524169921875 -1 L 334.4457092285156 -1 C 336.5699768066406 -1 338.2981872558594 0.875640869140625 338.2981872558594 3.18115234375 L 338.2981872558594 258.4691467285156 C 338.2981872558594 260.7746887207031 336.5699768066406 262.650390625 334.4457092285156 262.650390625 L 2.8524169921875 262.650390625 C 0.728179931640625 262.650390625 -1 260.7746887207031 -1 258.4691467285156 L -1 3.18115234375 C -1 0.875640869140625 0.728179931640625 -1 2.8524169921875 -1 Z" stroke="none" fill="rgba(0,0,0,0.1)"/>
      </g>
    </g>
    <g id="Title_bar" data-name="Title bar" transform="translate(7910.264 -11736.072)">
      <path id="Rectangle_210" data-name="Rectangle 210" d="M4,0H334a4,4,0,0,1,4,4V14a0,0,0,0,1,0,0H0a0,0,0,0,1,0,0V4A4,4,0,0,1,4,0Z" fill="url(#linear-gradient)"/>
      <g id="Path_46" data-name="Path 46" transform="translate(-19.634 197.866)" fill="#ff6157">
        <path d="M26.722-187.556a3.222,3.222,0,0,0,3.222-3.222A3.222,3.222,0,0,0,26.722-194a3.222,3.222,0,0,0-3.222,3.222A3.222,3.222,0,0,0,26.722-187.556Z" stroke="none"/>
        <path d="M 26.72187995910645 -188.0562438964844 C 28.22273063659668 -188.0562438964844 29.44375991821289 -189.2772674560547 29.44375991821289 -190.7781219482422 C 29.44375991821289 -192.2789764404297 28.22273063659668 -193.5 26.72187995910645 -193.5 C 25.22102928161621 -193.5 24 -192.2789764404297 24 -190.7781219482422 C 24 -189.2772674560547 25.22102928161621 -188.0562438964844 26.72187995910645 -188.0562438964844 M 26.72187995910645 -187.5562438964844 C 24.94248962402344 -187.5562438964844 23.5 -188.9987487792969 23.5 -190.7781219482422 C 23.5 -192.5574951171875 24.94248962402344 -194 26.72187995910645 -194 C 28.50127029418945 -194 29.94375991821289 -192.5574951171875 29.94375991821289 -190.7781219482422 C 29.94375991821289 -188.9987487792969 28.50127029418945 -187.5562438964844 26.72187995910645 -187.5562438964844 Z" stroke="none" fill="rgba(0,0,0,0.15)"/>
      </g>
      <g id="Path_47" data-name="Path 47" transform="translate(-9.324 197.866)" fill="#ffc12f">
        <path d="M26.722-187.556a3.222,3.222,0,0,0,3.222-3.222A3.222,3.222,0,0,0,26.722-194a3.222,3.222,0,0,0-3.222,3.222A3.222,3.222,0,0,0,26.722-187.556Z" stroke="none"/>
        <path d="M 26.72187995910645 -188.0562438964844 C 28.22273063659668 -188.0562438964844 29.44375991821289 -189.2772674560547 29.44375991821289 -190.7781219482422 C 29.44375991821289 -192.2789764404297 28.22273063659668 -193.5 26.72187995910645 -193.5 C 25.22102928161621 -193.5 24 -192.2789764404297 24 -190.7781219482422 C 24 -189.2772674560547 25.22102928161621 -188.0562438964844 26.72187995910645 -188.0562438964844 M 26.72187995910645 -187.5562438964844 C 24.94248962402344 -187.5562438964844 23.5 -188.9987487792969 23.5 -190.7781219482422 C 23.5 -192.5574951171875 24.94248962402344 -194 26.72187995910645 -194 C 28.50127029418945 -194 29.94375991821289 -192.5574951171875 29.94375991821289 -190.7781219482422 C 29.94375991821289 -188.9987487792969 28.50127029418945 -187.5562438964844 26.72187995910645 -187.5562438964844 Z" stroke="none" fill="rgba(0,0,0,0.15)"/>
      </g>
      <g id="Path_48" data-name="Path 48" transform="translate(0.986 197.866)" fill="#2acb42">
        <path d="M26.722-187.556a3.222,3.222,0,0,0,3.222-3.222A3.222,3.222,0,0,0,26.722-194a3.222,3.222,0,0,0-3.222,3.222A3.222,3.222,0,0,0,26.722-187.556Z" stroke="none"/>
        <path d="M 26.72187995910645 -188.0562438964844 C 28.22273063659668 -188.0562438964844 29.44375991821289 -189.2772674560547 29.44375991821289 -190.7781219482422 C 29.44375991821289 -192.2789764404297 28.22273063659668 -193.5 26.72187995910645 -193.5 C 25.22102928161621 -193.5 24 -192.2789764404297 24 -190.7781219482422 C 24 -189.2772674560547 25.22102928161621 -188.0562438964844 26.72187995910645 -188.0562438964844 M 26.72187995910645 -187.5562438964844 C 24.94248962402344 -187.5562438964844 23.5 -188.9987487792969 23.5 -190.7781219482422 C 23.5 -192.5574951171875 24.94248962402344 -194 26.72187995910645 -194 C 28.50127029418945 -194 29.94375991821289 -192.5574951171875 29.94375991821289 -190.7781219482422 C 29.94375991821289 -188.9987487792969 28.50127029418945 -187.5562438964844 26.72187995910645 -187.5562438964844 Z" stroke="none" fill="rgba(0,0,0,0.15)"/>
      </g>
      <text id="Welcome_to_Volv.txt" transform="translate(161.419 9.383)" fill="rgba(0,0,0,0.76)" font-size="6" font-family="SFProText-Medium, SF Pro Text" font-weight="500" letter-spacing="-0.013em"><tspan x="-28.612" y="0">Welcome_to_Volv.txt</tspan></text>
      <rect id="Rectangle_241" data-name="Rectangle 241" width="338" transform="translate(0 14)" opacity="0.06"/>
    </g>
    <text id="Where_news_is_reimagined._A_place_that_tells_you_exactly_what_you_need_to_know_and_why_it_s_important._No_agenda._No_biases._We_re_here_to_awaken_the_potential_of_a_well-informed_world_-_we_just_report_the_facts_so_you_can_make_your_own_decisions." data-name="Where news is reimagined.

A place that tells you exactly what you need to know and why it’s important. No agenda. No biases.

We’re here to awaken the potential of a well-informed world - we just report the facts so you can make your own decisions." transform="translate(7928.264 -11662.072)" font-size="14" font-family="SourceSansPro-Regular, Source Sans Pro"><tspan x="0" y="14">Where news is reimagined.</tspan><tspan x="0" y="32"></tspan><tspan x="0" y="50">A place that tells you exactly what you need to </tspan><tspan x="0" y="68">know and why it’s important. No agenda. No </tspan><tspan x="0" y="86">biases.</tspan><tspan x="0" y="104"></tspan><tspan x="0" y="122">We’re here to awaken the potential of a well-</tspan><tspan x="0" y="140">informed world - we just report the facts so you </tspan><tspan x="0" y="158">can make your own decisions.</tspan></text>
    <text id="Welcome_to_Volv" data-name="Welcome to Volv" transform="translate(7928.264 -11685.072)" font-size="18" font-family="DMSerifDisplay-Regular, DM Serif Display"><tspan x="0" y="0">Welcome to Volv</tspan></text>
  </g>
</svg>
