<svg xmlns="http://www.w3.org/2000/svg" xmlns:xlink="http://www.w3.org/1999/xlink" width="388.038" height="333.242" viewBox="0 0 388.038 333.242">
  <defs>
    <filter id="Path_250" x="0" y="0" width="388.038" height="333.242" filterUnits="userSpaceOnUse">
      <feOffset dy="25" input="SourceAlpha"/>
      <feGaussianBlur stdDeviation="15" result="blur"/>
      <feFlood flood-opacity="0.2"/>
      <feComposite operator="in" in2="blur"/>
      <feComposite in="SourceGraphic"/>
    </filter>
    <linearGradient id="linear-gradient" x1="0.5" x2="0.5" y2="1" gradientUnits="objectBoundingBox">
      <stop offset="0" stop-color="#ecebec"/>
      <stop offset="1" stop-color="#d4d3d4"/>
    </linearGradient>
  </defs>
  <g id="Group_976" data-name="Group 976" transform="translate(-7864 11757)">
    <g transform="matrix(1, 0, 0, 1, 7864, -11757)" filter="url(#Path_250)">
      <g id="Path_250-2" data-name="Path 250" transform="translate(46 21)" fill="#fff">
        <path d="M2.5,0H293.535a2.744,2.744,0,0,1,2.5,2.933V238.309a2.744,2.744,0,0,1-2.5,2.933H2.5A2.744,2.744,0,0,1,0,238.309V2.933A2.744,2.744,0,0,1,2.5,0Z" stroke="none"/>
        <path d="M 2.50347900390625 -1.52587890625e-05 C 1.120849609375 -1.52587890625e-05 0 1.31317138671875 0 2.933013916015625 L 0 238.3090972900391 C 0 239.9290618896484 1.120849609375 241.2421722412109 2.50347900390625 241.2421722412109 L 293.53466796875 241.2421722412109 C 294.9173583984375 241.2421722412109 296.0381774902344 239.9290618896484 296.0381774902344 238.3090972900391 L 296.0381774902344 2.933013916015625 C 296.0381774902344 1.31317138671875 294.9173583984375 -1.52587890625e-05 293.53466796875 -1.52587890625e-05 L 2.50347900390625 -1.52587890625e-05 M 2.50347900390625 -1.000015258789063 L 293.53466796875 -1.000015258789063 C 295.4665222167969 -1.000015258789063 297.0381774902344 0.7643280029296875 297.0381774902344 2.933013916015625 L 297.0381774902344 238.3090972900391 C 297.0381774902344 240.477783203125 295.4665222167969 242.2421722412109 293.53466796875 242.2421722412109 L 2.50347900390625 242.2421722412109 C 0.5716552734375 242.2421722412109 -1 240.477783203125 -1 238.3090972900391 L -1 2.933013916015625 C -1 0.7643280029296875 0.5716552734375 -1.000015258789063 2.50347900390625 -1.000015258789063 Z" stroke="none" fill="rgba(0,0,0,0.1)"/>
      </g>
    </g>
    <g id="Title_bar" data-name="Title bar" transform="translate(7910.264 -11736.072)">
      <path id="Rectangle_210" data-name="Rectangle 210" d="M4,0H293a4,4,0,0,1,4,4V14a0,0,0,0,1,0,0H0a0,0,0,0,1,0,0V4A4,4,0,0,1,4,0Z" fill="url(#linear-gradient)"/>
      <g id="Path_46" data-name="Path 46" transform="translate(-19.634 197.866)" fill="#ff6157">
        <path d="M26.722-187.556a3.222,3.222,0,0,0,3.222-3.222A3.222,3.222,0,0,0,26.722-194a3.222,3.222,0,0,0-3.222,3.222A3.222,3.222,0,0,0,26.722-187.556Z" stroke="none"/>
        <path d="M 26.72187995910645 -188.0562438964844 C 28.22273063659668 -188.0562438964844 29.44375991821289 -189.2772674560547 29.44375991821289 -190.7781219482422 C 29.44375991821289 -192.2789764404297 28.22273063659668 -193.5 26.72187995910645 -193.5 C 25.22102928161621 -193.5 24 -192.2789764404297 24 -190.7781219482422 C 24 -189.2772674560547 25.22102928161621 -188.0562438964844 26.72187995910645 -188.0562438964844 M 26.72187995910645 -187.5562438964844 C 24.94248962402344 -187.5562438964844 23.5 -188.9987487792969 23.5 -190.7781219482422 C 23.5 -192.5574951171875 24.94248962402344 -194 26.72187995910645 -194 C 28.50127029418945 -194 29.94375991821289 -192.5574951171875 29.94375991821289 -190.7781219482422 C 29.94375991821289 -188.9987487792969 28.50127029418945 -187.5562438964844 26.72187995910645 -187.5562438964844 Z" stroke="none" fill="rgba(0,0,0,0.15)"/>
      </g>
      <g id="Path_47" data-name="Path 47" transform="translate(-9.324 197.866)" fill="#ffc12f">
        <path d="M26.722-187.556a3.222,3.222,0,0,0,3.222-3.222A3.222,3.222,0,0,0,26.722-194a3.222,3.222,0,0,0-3.222,3.222A3.222,3.222,0,0,0,26.722-187.556Z" stroke="none"/>
        <path d="M 26.72187995910645 -188.0562438964844 C 28.22273063659668 -188.0562438964844 29.44375991821289 -189.2772674560547 29.44375991821289 -190.7781219482422 C 29.44375991821289 -192.2789764404297 28.22273063659668 -193.5 26.72187995910645 -193.5 C 25.22102928161621 -193.5 24 -192.2789764404297 24 -190.7781219482422 C 24 -189.2772674560547 25.22102928161621 -188.0562438964844 26.72187995910645 -188.0562438964844 M 26.72187995910645 -187.5562438964844 C 24.94248962402344 -187.5562438964844 23.5 -188.9987487792969 23.5 -190.7781219482422 C 23.5 -192.5574951171875 24.94248962402344 -194 26.72187995910645 -194 C 28.50127029418945 -194 29.94375991821289 -192.5574951171875 29.94375991821289 -190.7781219482422 C 29.94375991821289 -188.9987487792969 28.50127029418945 -187.5562438964844 26.72187995910645 -187.5562438964844 Z" stroke="none" fill="rgba(0,0,0,0.15)"/>
      </g>
      <g id="Path_48" data-name="Path 48" transform="translate(0.986 197.866)" fill="#2acb42">
        <path d="M26.722-187.556a3.222,3.222,0,0,0,3.222-3.222A3.222,3.222,0,0,0,26.722-194a3.222,3.222,0,0,0-3.222,3.222A3.222,3.222,0,0,0,26.722-187.556Z" stroke="none"/>
        <path d="M 26.72187995910645 -188.0562438964844 C 28.22273063659668 -188.0562438964844 29.44375991821289 -189.2772674560547 29.44375991821289 -190.7781219482422 C 29.44375991821289 -192.2789764404297 28.22273063659668 -193.5 26.72187995910645 -193.5 C 25.22102928161621 -193.5 24 -192.2789764404297 24 -190.7781219482422 C 24 -189.2772674560547 25.22102928161621 -188.0562438964844 26.72187995910645 -188.0562438964844 M 26.72187995910645 -187.5562438964844 C 24.94248962402344 -187.5562438964844 23.5 -188.9987487792969 23.5 -190.7781219482422 C 23.5 -192.5574951171875 24.94248962402344 -194 26.72187995910645 -194 C 28.50127029418945 -194 29.94375991821289 -192.5574951171875 29.94375991821289 -190.7781219482422 C 29.94375991821289 -188.9987487792969 28.50127029418945 -187.5562438964844 26.72187995910645 -187.5562438964844 Z" stroke="none" fill="rgba(0,0,0,0.15)"/>
      </g>
      <text id="Welcome_to_Volv.txt" transform="translate(141.906 9.383)" fill="rgba(0,0,0,0.76)" font-size="6" font-family="SFProText-Medium, SF Pro Text" font-weight="500" letter-spacing="-0.013em"><tspan x="-28.612" y="0">Welcome_to_Volv.txt</tspan></text>
      <rect id="Rectangle_241" data-name="Rectangle 241" width="297" transform="translate(0 14)" opacity="0.06"/>
    </g>
    <path id="Path_318" data-name="Path 318" d="M2.772,14H3.808l2.52-8.946h.028L8.89,14H9.9L12.656,4H11.7l-2.282,8.75H9.394L6.944,4H5.754l-2.436,8.75H3.29L1.022,4H0ZM13.8,9.884c.154-1.316.924-2.576,2.38-2.576a2.437,2.437,0,0,1,2.3,2.576Zm5.558.742c.07-2.03-.868-4.06-3.178-4.06s-3.262,1.918-3.262,3.822c0,2.058.966,3.822,3.262,3.822a2.942,2.942,0,0,0,3.15-2.59h-.882a2.189,2.189,0,0,1-2.268,1.848c-1.68,0-2.38-1.554-2.38-2.842ZM24.444,14h.882V10.15a2.488,2.488,0,0,1,2.688-2.59V6.678a2.653,2.653,0,0,0-2.73,1.792h-.028V6.776h-.812ZM29.12,9.884c.154-1.316.924-2.576,2.38-2.576a2.437,2.437,0,0,1,2.3,2.576Zm5.558.742c.07-2.03-.868-4.06-3.178-4.06s-3.262,1.918-3.262,3.822c0,2.058.966,3.822,3.262,3.822a2.942,2.942,0,0,0,3.15-2.59h-.882A2.189,2.189,0,0,1,31.5,13.468c-1.68,0-2.38-1.554-2.38-2.842Zm1.2-5.208h.882V4h-.882Zm0,8.582h.882V6.776h-.882Zm2.576,0h.882V9.968c0-1.512.644-2.66,2.156-2.66,1.134,0,1.512.812,1.512,1.792V14h.882V9.912c0-1.344.434-2.6,1.96-2.6,1.274,0,1.708.644,1.708,1.834V14h.882V9.1c0-1.694-.8-2.534-2.394-2.534a2.442,2.442,0,0,0-2.3,1.414,2.008,2.008,0,0,0-2.072-1.414,2.486,2.486,0,0,0-2.366,1.428H39.27V6.776h-.812Zm12.46-5.012c.042-1.176.826-1.68,1.932-1.68,1.05,0,1.89.294,1.89,1.484,0,.784-.406.91-1.134.98-1.9.224-3.878.308-3.878,2.324,0,1.456,1.078,2.114,2.422,2.114a2.754,2.754,0,0,0,2.632-1.47h.028c0,.742.14,1.26,1.036,1.26a2.5,2.5,0,0,0,.574-.056V13.2a.667.667,0,0,1-.28.056.464.464,0,0,1-.518-.532V8.89c0-1.946-1.386-2.324-2.66-2.324-1.666,0-2.828.728-2.926,2.422ZM54.74,11.2a2.322,2.322,0,0,1-2.52,2.268,1.5,1.5,0,0,1-1.61-1.428c0-1.4,1.862-1.4,3.36-1.666.238-.042.63-.112.742-.322h.028Zm8.75-4.424h-.882V8.022H62.58a2.526,2.526,0,0,0-2.3-1.456c-2.086,0-3.262,1.652-3.262,3.64,0,2.072.952,3.71,3.262,3.71a2.467,2.467,0,0,0,2.3-1.484h.028v.98c0,1.778-.686,2.73-2.324,2.73A1.9,1.9,0,0,1,58.17,14.7h-.882c.112,1.526,1.554,2.184,3,2.184,2.338,0,3.206-1.3,3.206-3.472Zm-3.206,6.4c-1.638,0-2.38-1.414-2.38-2.87,0-1.5.7-3,2.38-3s2.324,1.582,2.324,3C62.608,11.76,61.81,13.174,60.284,13.174Zm4.9-7.756h.882V4h-.882Zm0,8.582h.882V6.776h-.882Zm2.562,0h.882V9.786A2.28,2.28,0,0,1,70.9,7.308c1.428,0,1.834.952,1.834,2.184V14h.882V9.352c0-1.722-.616-2.786-2.646-2.786a2.464,2.464,0,0,0-2.31,1.456h-.028V6.776h-.882ZM75.8,9.884c.154-1.316.924-2.576,2.38-2.576a2.437,2.437,0,0,1,2.3,2.576Zm5.558.742c.07-2.03-.868-4.06-3.178-4.06s-3.262,1.918-3.262,3.822c0,2.058.966,3.822,3.262,3.822a2.942,2.942,0,0,0,3.15-2.59h-.882a2.189,2.189,0,0,1-2.268,1.848c-1.68,0-2.38-1.554-2.38-2.842ZM88.9,4h-.882V8.148H87.99a2.577,2.577,0,0,0-2.506-1.582c-2.2,0-3.248,1.764-3.248,3.822s1.05,3.822,3.248,3.822a2.837,2.837,0,0,0,2.576-1.582h.028V14H88.9Zm-5.782,6.384c0-1.5.686-3.08,2.366-3.08,1.862,0,2.534,1.582,2.534,3.08s-.672,3.08-2.534,3.08C83.8,13.468,83.118,11.886,83.118,10.388ZM95.872,4.606H94.99v2.17H93.73v.742h1.26V12.46c-.014,1.232.392,1.624,1.568,1.624.266,0,.518-.028.784-.028V13.3a6.841,6.841,0,0,1-.756.042c-.63-.042-.714-.378-.714-.952V7.518h1.47V6.776h-1.47ZM98.6,14h.882V9.786a2.28,2.28,0,0,1,2.268-2.478c1.428,0,1.834.952,1.834,2.184V14h.882V9.352c0-1.722-.616-2.786-2.646-2.786a2.464,2.464,0,0,0-2.31,1.456h-.028V4H98.6Zm8.05-4.116c.154-1.316.924-2.576,2.38-2.576a2.437,2.437,0,0,1,2.3,2.576Zm5.558.742c.07-2.03-.868-4.06-3.178-4.06s-3.262,1.918-3.262,3.822c0,2.058.966,3.822,3.262,3.822a2.942,2.942,0,0,0,3.15-2.59H111.3a2.189,2.189,0,0,1-2.268,1.848c-1.68,0-2.38-1.554-2.38-2.842ZM117.278,14h.882V9.786a2.28,2.28,0,0,1,2.268-2.478c1.428,0,1.834.952,1.834,2.184V14h.882V9.352c0-1.722-.616-2.786-2.646-2.786a2.464,2.464,0,0,0-2.31,1.456h-.028V6.776h-.882Zm8.05-4.116c.154-1.316.924-2.576,2.38-2.576A2.437,2.437,0,0,1,130,9.884Zm5.558.742c.07-2.03-.868-4.06-3.178-4.06s-3.262,1.918-3.262,3.822c0,2.058.966,3.822,3.262,3.822a2.942,2.942,0,0,0,3.15-2.59h-.882a2.189,2.189,0,0,1-2.268,1.848c-1.68,0-2.38-1.554-2.38-2.842ZM133.672,14h.966L136.4,7.924h.028L138.208,14h.966L141.5,6.776h-.938l-1.848,6.188h-.028L136.92,6.776h-.994l-1.764,6.188h-.028l-1.848-6.188h-.938Zm13.986-5.11a2.368,2.368,0,0,0-2.646-2.324c-1.274,0-2.716.56-2.716,2.03,0,1.218.868,1.638,2.016,1.932l1.134.252c.8.2,1.582.476,1.582,1.316,0,1.008-1.134,1.372-1.974,1.372a1.9,1.9,0,0,1-2.128-1.806h-.882c.154,1.778,1.274,2.548,2.968,2.548,1.344,0,2.9-.6,2.9-2.17a2.117,2.117,0,0,0-2.058-2l-1.176-.266c-.616-.154-1.5-.448-1.5-1.218,0-.938.924-1.246,1.708-1.246a1.663,1.663,0,0,1,1.89,1.582Zm3.22,5.11V12.516H149.7V14ZM4.424,40.956,6.356,46.08H2.422ZM-.1,50H.924l1.2-3.108h4.55L7.9,50H8.918L5,40H3.934Zm13.65,2.674h.882V48.628h.028a2.57,2.57,0,0,0,2.506,1.582c2.2,0,3.248-1.764,3.248-3.822s-1.05-3.822-3.248-3.822a2.669,2.669,0,0,0-2.576,1.582h-.028V42.776h-.812Zm5.782-6.286c0,1.5-.686,3.08-2.366,3.08-1.862,0-2.534-1.582-2.534-3.08,0-1.638.574-3.08,2.534-3.08C18.648,43.308,19.334,44.89,19.334,46.388ZM21.6,50h.882V40H21.6Zm3.374-5.012c.042-1.176.826-1.68,1.932-1.68,1.05,0,1.89.294,1.89,1.484,0,.784-.406.91-1.134.98-1.9.224-3.878.308-3.878,2.324,0,1.456,1.078,2.114,2.422,2.114a2.754,2.754,0,0,0,2.632-1.47h.028c0,.742.14,1.26,1.036,1.26a2.5,2.5,0,0,0,.574-.056V49.2a.667.667,0,0,1-.28.056.464.464,0,0,1-.518-.532V44.89c0-1.946-1.386-2.324-2.66-2.324-1.666,0-2.828.728-2.926,2.422ZM28.8,47.2a2.322,2.322,0,0,1-2.52,2.268,1.5,1.5,0,0,1-1.61-1.428c0-1.4,1.862-1.4,3.36-1.666.238-.042.63-.112.742-.322H28.8Zm8.624-2.156A2.691,2.691,0,0,0,34.5,42.566c-2.2,0-3.416,1.75-3.416,3.822S32.3,50.21,34.5,50.21a2.922,2.922,0,0,0,2.982-2.8H36.6a2.173,2.173,0,0,1-2.1,2.058c-1.68,0-2.534-1.554-2.534-3.08s.854-3.08,2.534-3.08a1.955,1.955,0,0,1,2.044,1.736Zm1.806.84c.154-1.316.924-2.576,2.38-2.576a2.437,2.437,0,0,1,2.3,2.576Zm5.558.742c.07-2.03-.868-4.06-3.178-4.06s-3.262,1.918-3.262,3.822c0,2.058.966,3.822,3.262,3.822a2.942,2.942,0,0,0,3.15-2.59h-.882a2.189,2.189,0,0,1-2.268,1.848c-1.68,0-2.38-1.554-2.38-2.842Zm6.482-6.02h-.882v2.17h-1.26v.742h1.26V48.46c-.014,1.232.392,1.624,1.568,1.624.266,0,.518-.028.784-.028V49.3a6.841,6.841,0,0,1-.756.042c-.63-.042-.714-.378-.714-.952V43.518h1.47v-.742h-1.47ZM54,50h.882V45.786a2.28,2.28,0,0,1,2.268-2.478c1.428,0,1.834.952,1.834,2.184V50h.882V45.352c0-1.722-.616-2.786-2.646-2.786a2.464,2.464,0,0,0-2.31,1.456H54.88V40H54Zm8.33-5.012c.042-1.176.826-1.68,1.932-1.68,1.05,0,1.89.294,1.89,1.484,0,.784-.406.91-1.134.98-1.9.224-3.878.308-3.878,2.324,0,1.456,1.078,2.114,2.422,2.114a2.754,2.754,0,0,0,2.632-1.47h.028c0,.742.14,1.26,1.036,1.26a2.5,2.5,0,0,0,.574-.056V49.2a.667.667,0,0,1-.28.056.464.464,0,0,1-.518-.532V44.89c0-1.946-1.386-2.324-2.66-2.324-1.666,0-2.828.728-2.926,2.422ZM66.15,47.2a2.322,2.322,0,0,1-2.52,2.268,1.5,1.5,0,0,1-1.61-1.428c0-1.4,1.862-1.4,3.36-1.666.238-.042.63-.112.742-.322h.028ZM70.2,40.606h-.882v2.17h-1.26v.742h1.26V48.46c-.014,1.232.392,1.624,1.568,1.624.266,0,.518-.028.784-.028V49.3a6.841,6.841,0,0,1-.756.042c-.63-.042-.714-.378-.714-.952V43.518h1.47v-.742H70.2Zm8.036,0H77.35v2.17H76.09v.742h1.26V48.46c-.014,1.232.392,1.624,1.568,1.624.266,0,.518-.028.784-.028V49.3a6.841,6.841,0,0,1-.756.042c-.63-.042-.714-.378-.714-.952V43.518H79.7v-.742h-1.47Zm3.262,5.278c.154-1.316.924-2.576,2.38-2.576a2.437,2.437,0,0,1,2.3,2.576Zm5.558.742c.07-2.03-.868-4.06-3.178-4.06s-3.262,1.918-3.262,3.822c0,2.058.966,3.822,3.262,3.822a2.942,2.942,0,0,0,3.15-2.59h-.882a2.189,2.189,0,0,1-2.268,1.848c-1.68,0-2.38-1.554-2.38-2.842ZM88.256,50h.882V40h-.882Zm2.59,0h.882V40h-.882Zm7.784-5.11a2.368,2.368,0,0,0-2.646-2.324c-1.274,0-2.716.56-2.716,2.03,0,1.218.868,1.638,2.016,1.932l1.134.252c.8.2,1.582.476,1.582,1.316,0,1.008-1.134,1.372-1.974,1.372A1.9,1.9,0,0,1,93.9,47.662h-.882c.154,1.778,1.274,2.548,2.968,2.548,1.344,0,2.9-.6,2.9-2.17a2.117,2.117,0,0,0-2.058-2l-1.176-.266c-.616-.154-1.5-.448-1.5-1.218,0-.938.924-1.246,1.708-1.246a1.663,1.663,0,0,1,1.89,1.582Zm7.49,5.082-.308.826c-.294.672-.476,1.134-1.26,1.134a2.943,2.943,0,0,1-.6-.07V52.6a2.354,2.354,0,0,0,.672.07c1.106,0,1.386-.35,1.9-1.568l3.136-8.33h-.882l-2.226,6.16-2.38-6.16h-.938Zm7.462-6.664c1.68,0,2.534,1.554,2.534,3.08s-.854,3.08-2.534,3.08-2.534-1.554-2.534-3.08S111.9,43.308,113.582,43.308Zm0-.742c-2.2,0-3.416,1.75-3.416,3.822s1.218,3.822,3.416,3.822S117,48.46,117,46.388,115.78,42.566,113.582,42.566Zm10.584.21h-.882V46.57c0,1.47-.658,2.9-2.17,2.9-1.4,0-1.89-.686-1.932-1.988v-4.7H118.3v4.69c0,1.694.7,2.744,2.534,2.744a2.687,2.687,0,0,0,2.492-1.512h.028V50h.812Zm6.076,3.108c.154-1.316.924-2.576,2.38-2.576a2.437,2.437,0,0,1,2.3,2.576Zm5.558.742c.07-2.03-.868-4.06-3.178-4.06s-3.262,1.918-3.262,3.822c0,2.058.966,3.822,3.262,3.822a2.942,2.942,0,0,0,3.15-2.59h-.882a2.189,2.189,0,0,1-2.268,1.848c-1.68,0-2.38-1.554-2.38-2.842ZM136.164,50h1.092l2.226-3.038L141.75,50h1.12l-2.814-3.766,2.6-3.458h-1.106l-2.016,2.744-2.058-2.744h-1.106l2.59,3.472Zm8.358-5.012c.042-1.176.826-1.68,1.932-1.68,1.05,0,1.89.294,1.89,1.484,0,.784-.406.91-1.134.98-1.9.224-3.878.308-3.878,2.324,0,1.456,1.078,2.114,2.422,2.114a2.754,2.754,0,0,0,2.632-1.47h.028c0,.742.14,1.26,1.036,1.26a2.5,2.5,0,0,0,.574-.056V49.2a.667.667,0,0,1-.28.056.464.464,0,0,1-.518-.532V44.89c0-1.946-1.386-2.324-2.66-2.324-1.666,0-2.828.728-2.926,2.422Zm3.822,2.212a2.322,2.322,0,0,1-2.52,2.268,1.5,1.5,0,0,1-1.61-1.428c0-1.4,1.862-1.4,3.36-1.666.238-.042.63-.112.742-.322h.028Zm8.624-2.156a2.691,2.691,0,0,0-2.926-2.478c-2.2,0-3.416,1.75-3.416,3.822s1.218,3.822,3.416,3.822a2.922,2.922,0,0,0,2.982-2.8h-.882a2.173,2.173,0,0,1-2.1,2.058c-1.68,0-2.534-1.554-2.534-3.08s.854-3.08,2.534-3.08a1.955,1.955,0,0,1,2.044,1.736Zm2.688-4.438h-.882v2.17h-1.26v.742h1.26V48.46c-.014,1.232.392,1.624,1.568,1.624.266,0,.518-.028.784-.028V49.3a6.841,6.841,0,0,1-.756.042c-.63-.042-.714-.378-.714-.952V43.518h1.47v-.742h-1.47ZM162.414,50h.882V40h-.882Zm4.648-.028-.308.826c-.294.672-.476,1.134-1.26,1.134a2.942,2.942,0,0,1-.6-.07V52.6a2.354,2.354,0,0,0,.672.07c1.106,0,1.386-.35,1.9-1.568l3.136-8.33h-.882l-2.226,6.16-2.38-6.16h-.938Zm9.9.028h.966l1.764-6.076h.028L181.5,50h.966l2.324-7.224h-.938L182,48.964h-.028l-1.764-6.188h-.994l-1.764,6.188h-.028l-1.848-6.188h-.938Zm8.764,0h.882V45.786a2.28,2.28,0,0,1,2.268-2.478c1.428,0,1.834.952,1.834,2.184V50h.882V45.352c0-1.722-.616-2.786-2.646-2.786a2.464,2.464,0,0,0-2.31,1.456h-.028V40h-.882Zm8.33-5.012c.042-1.176.826-1.68,1.932-1.68,1.05,0,1.89.294,1.89,1.484,0,.784-.406.91-1.134.98-1.9.224-3.878.308-3.878,2.324,0,1.456,1.078,2.114,2.422,2.114a2.754,2.754,0,0,0,2.632-1.47h.028c0,.742.14,1.26,1.036,1.26a2.5,2.5,0,0,0,.574-.056V49.2a.667.667,0,0,1-.28.056.464.464,0,0,1-.518-.532V44.89c0-1.946-1.386-2.324-2.66-2.324-1.666,0-2.828.728-2.926,2.422Zm3.822,2.212a2.322,2.322,0,0,1-2.52,2.268,1.5,1.5,0,0,1-1.61-1.428c0-1.4,1.862-1.4,3.36-1.666.238-.042.63-.112.742-.322h.028Zm4.046-6.594h-.882v2.17h-1.26v.742h1.26V48.46c-.014,1.232.392,1.624,1.568,1.624.266,0,.518-.028.784-.028V49.3a6.841,6.841,0,0,1-.756.042c-.63-.042-.714-.378-.714-.952V43.518h1.47v-.742h-1.47Zm8.708,9.366-.308.826c-.294.672-.476,1.134-1.26,1.134a2.942,2.942,0,0,1-.6-.07V52.6a2.354,2.354,0,0,0,.672.07c1.106,0,1.386-.35,1.9-1.568l3.136-8.33h-.882l-2.226,6.16-2.38-6.16h-.938Zm7.462-6.664c1.68,0,2.534,1.554,2.534,3.08s-.854,3.08-2.534,3.08-2.534-1.554-2.534-3.08S216.412,43.308,218.092,43.308Zm0-.742c-2.2,0-3.416,1.75-3.416,3.822s1.218,3.822,3.416,3.822,3.416-1.75,3.416-3.822S220.29,42.566,218.092,42.566Zm10.584.21h-.882V46.57c0,1.47-.658,2.9-2.17,2.9-1.4,0-1.89-.686-1.932-1.988v-4.7h-.882v4.69c0,1.694.7,2.744,2.534,2.744a2.687,2.687,0,0,0,2.492-1.512h.028V50h.812ZM.826,68h.882V63.786a2.28,2.28,0,0,1,2.268-2.478c1.428,0,1.834.952,1.834,2.184V68h.882V63.352c0-1.722-.616-2.786-2.646-2.786a2.464,2.464,0,0,0-2.31,1.456H1.708V60.776H.826Zm8.05-4.116c.154-1.316.924-2.576,2.38-2.576a2.437,2.437,0,0,1,2.3,2.576Zm5.558.742c.07-2.03-.868-4.06-3.178-4.06s-3.262,1.918-3.262,3.822c0,2.058.966,3.822,3.262,3.822a2.942,2.942,0,0,0,3.15-2.59h-.882a2.189,2.189,0,0,1-2.268,1.848c-1.68,0-2.38-1.554-2.38-2.842Zm1.708-.742c.154-1.316.924-2.576,2.38-2.576a2.437,2.437,0,0,1,2.3,2.576Zm5.558.742c.07-2.03-.868-4.06-3.178-4.06s-3.262,1.918-3.262,3.822c0,2.058.966,3.822,3.262,3.822a2.942,2.942,0,0,0,3.15-2.59H20.79a2.189,2.189,0,0,1-2.268,1.848c-1.68,0-2.38-1.554-2.38-2.842ZM29.246,58h-.882v4.144h-.028a2.577,2.577,0,0,0-2.506-1.582c-2.2,0-3.248,1.764-3.248,3.822s1.05,3.822,3.248,3.822a2.837,2.837,0,0,0,2.576-1.582h.028V68h.812Zm-5.782,6.384c0-1.5.686-3.08,2.366-3.08,1.862,0,2.534,1.582,2.534,3.08s-.672,3.08-2.534,3.08C24.15,67.468,23.464,65.886,23.464,64.388Zm12.754-5.782h-.882v2.17h-1.26v.742h1.26V66.46c-.014,1.232.392,1.624,1.568,1.624.266,0,.518-.028.784-.028V67.3a6.841,6.841,0,0,1-.756.042c-.63-.042-.714-.378-.714-.952V61.518h1.47v-.742h-1.47Zm5.8,2.7c1.68,0,2.534,1.554,2.534,3.08s-.854,3.08-2.534,3.08-2.534-1.554-2.534-3.08S40.334,61.308,42.014,61.308Zm0-.742c-2.2,0-3.416,1.75-3.416,3.822s1.218,3.822,3.416,3.822,3.416-1.75,3.416-3.822S44.212,60.566,42.014,60.566ZM50.638,68h.882V65.256l1.428-1.19L55.8,68H56.91l-3.29-4.55,3.08-2.674H55.524l-4,3.5V58h-.882Zm6.986,0h.882V63.786a2.28,2.28,0,0,1,2.268-2.478c1.428,0,1.834.952,1.834,2.184V68h.882V63.352c0-1.722-.616-2.786-2.646-2.786a2.464,2.464,0,0,0-2.31,1.456h-.028V60.776h-.882Zm10.584-6.692c1.68,0,2.534,1.554,2.534,3.08s-.854,3.08-2.534,3.08-2.534-1.554-2.534-3.08S66.528,61.308,68.208,61.308Zm0-.742c-2.2,0-3.416,1.75-3.416,3.822s1.218,3.822,3.416,3.822,3.416-1.75,3.416-3.822S70.406,60.566,68.208,60.566ZM74.536,68H75.5l1.764-6.076h.028L79.072,68h.966l2.324-7.224h-.938l-1.848,6.188h-.028l-1.764-6.188H76.79l-1.764,6.188H75L73.15,60.776h-.938ZM88,62.988c.042-1.176.826-1.68,1.932-1.68,1.05,0,1.89.294,1.89,1.484,0,.784-.406.91-1.134.98-1.9.224-3.878.308-3.878,2.324,0,1.456,1.078,2.114,2.422,2.114a2.754,2.754,0,0,0,2.632-1.47H91.9c0,.742.14,1.26,1.036,1.26a2.5,2.5,0,0,0,.574-.056V67.2a.667.667,0,0,1-.28.056.464.464,0,0,1-.518-.532V62.89c0-1.946-1.386-2.324-2.66-2.324-1.666,0-2.828.728-2.926,2.422ZM91.826,65.2a2.322,2.322,0,0,1-2.52,2.268A1.5,1.5,0,0,1,87.7,66.04c0-1.4,1.862-1.4,3.36-1.666.238-.042.63-.112.742-.322h.028ZM94.458,68h.882V63.786a2.28,2.28,0,0,1,2.268-2.478c1.428,0,1.834.952,1.834,2.184V68h.882V63.352c0-1.722-.616-2.786-2.646-2.786a2.464,2.464,0,0,0-2.31,1.456H95.34V60.776h-.882Zm13.888-10h-.882v4.144h-.028a2.577,2.577,0,0,0-2.506-1.582c-2.2,0-3.248,1.764-3.248,3.822s1.05,3.822,3.248,3.822a2.837,2.837,0,0,0,2.576-1.582h.028V68h.812Zm-5.782,6.384c0-1.5.686-3.08,2.366-3.08,1.862,0,2.534,1.582,2.534,3.08s-.672,3.08-2.534,3.08C103.25,67.468,102.564,65.886,102.564,64.388ZM115.514,68h.966l1.764-6.076h.028L120.05,68h.966l2.324-7.224H122.4l-1.848,6.188h-.028l-1.764-6.188h-.994L116,66.964h-.028l-1.848-6.188h-.938Zm8.764,0h.882V63.786a2.28,2.28,0,0,1,2.268-2.478c1.428,0,1.834.952,1.834,2.184V68h.882V63.352c0-1.722-.616-2.786-2.646-2.786a2.464,2.464,0,0,0-2.31,1.456h-.028V58h-.882Zm9.6-.028-.308.826c-.294.672-.476,1.134-1.26,1.134a2.942,2.942,0,0,1-.6-.07V70.6a2.354,2.354,0,0,0,.672.07c1.106,0,1.386-.35,1.9-1.568l3.136-8.33h-.882l-2.226,6.16-2.38-6.16H131Zm8.316-8.554h.882V58H142.2Zm0,8.582h.882V60.776H142.2Zm3.976-9.394h-.882v2.17h-1.26v.742h1.26V66.46c-.014,1.232.392,1.624,1.568,1.624.266,0,.518-.028.784-.028V67.3a6.841,6.841,0,0,1-.756.042c-.63-.042-.714-.378-.714-.952V61.518h1.47v-.742h-1.47Zm3.29-.6v1.484h.588c.042.434-.182,1.176-.658,1.316v.6a1.876,1.876,0,0,0,1.246-1.9V58Zm7,4.886a2.368,2.368,0,0,0-2.646-2.324c-1.274,0-2.716.56-2.716,2.03,0,1.218.868,1.638,2.016,1.932l1.134.252c.8.2,1.582.476,1.582,1.316,0,1.008-1.134,1.372-1.974,1.372a1.9,1.9,0,0,1-2.128-1.806h-.882c.154,1.778,1.274,2.548,2.968,2.548,1.344,0,2.9-.6,2.9-2.17a2.117,2.117,0,0,0-2.058-2l-1.176-.266c-.616-.154-1.5-.448-1.5-1.218,0-.938.924-1.246,1.708-1.246a1.663,1.663,0,0,1,1.89,1.582Zm5.432-3.472h.882V58H161.9Zm0,8.582h.882V60.776H161.9Zm2.576,0h.882V63.968c0-1.512.644-2.66,2.156-2.66,1.134,0,1.512.812,1.512,1.792V68h.882V63.912c0-1.344.434-2.6,1.96-2.6,1.274,0,1.708.644,1.708,1.834V68h.882V63.1c0-1.694-.8-2.534-2.394-2.534a2.442,2.442,0,0,0-2.3,1.414,2.008,2.008,0,0,0-2.072-1.414,2.486,2.486,0,0,0-2.366,1.428h-.042V60.776h-.812Zm11.662,2.674h.882V66.628h.028a2.57,2.57,0,0,0,2.506,1.582c2.2,0,3.248-1.764,3.248-3.822s-1.05-3.822-3.248-3.822a2.669,2.669,0,0,0-2.576,1.582h-.028V60.776h-.812Zm5.782-6.286c0,1.5-.686,3.08-2.366,3.08-1.862,0-2.534-1.582-2.534-3.08,0-1.638.574-3.08,2.534-3.08C181.23,61.308,181.916,62.89,181.916,64.388Zm5.306-3.08c1.68,0,2.534,1.554,2.534,3.08s-.854,3.08-2.534,3.08-2.534-1.554-2.534-3.08S185.542,61.308,187.222,61.308Zm0-.742c-2.2,0-3.416,1.75-3.416,3.822s1.218,3.822,3.416,3.822,3.416-1.75,3.416-3.822S189.42,60.566,187.222,60.566ZM191.954,68h.882V64.15a2.488,2.488,0,0,1,2.688-2.59v-.882a2.653,2.653,0,0,0-2.73,1.792h-.028V60.776h-.812Zm5.81-9.394h-.882v2.17h-1.26v.742h1.26V66.46c-.014,1.232.392,1.624,1.568,1.624.266,0,.518-.028.784-.028V67.3a6.841,6.841,0,0,1-.756.042c-.63-.042-.714-.378-.714-.952V61.518h1.47v-.742h-1.47Zm3.542,4.382c.042-1.176.826-1.68,1.932-1.68,1.05,0,1.89.294,1.89,1.484,0,.784-.406.91-1.134.98-1.9.224-3.878.308-3.878,2.324,0,1.456,1.078,2.114,2.422,2.114a2.754,2.754,0,0,0,2.632-1.47h.028c0,.742.14,1.26,1.036,1.26a2.5,2.5,0,0,0,.574-.056V67.2a.667.667,0,0,1-.28.056.464.464,0,0,1-.518-.532V62.89c0-1.946-1.386-2.324-2.66-2.324-1.666,0-2.828.728-2.926,2.422Zm3.822,2.212a2.322,2.322,0,0,1-2.52,2.268A1.5,1.5,0,0,1,201,66.04c0-1.4,1.862-1.4,3.36-1.666.238-.042.63-.112.742-.322h.028ZM207.76,68h.882V63.786a2.28,2.28,0,0,1,2.268-2.478c1.428,0,1.834.952,1.834,2.184V68h.882V63.352c0-1.722-.616-2.786-2.646-2.786a2.464,2.464,0,0,0-2.31,1.456h-.028V60.776h-.882Zm8.932-9.394h-.882v2.17h-1.26v.742h1.26V66.46c-.014,1.232.392,1.624,1.568,1.624.266,0,.518-.028.784-.028V67.3a6.841,6.841,0,0,1-.756.042c-.63-.042-.714-.378-.714-.952V61.518h1.47v-.742h-1.47ZM221.13,68V66.516h-1.176V68ZM4.424,94.956l1.932,5.124H2.422ZM-.1,104H.924l1.2-3.108h4.55L7.9,104H8.918L5,94H3.934Zm9.744,0h.882V99.786A2.28,2.28,0,0,1,12.8,97.308c1.428,0,1.834.952,1.834,2.184V104h.882V99.352c0-1.722-.616-2.786-2.646-2.786a2.464,2.464,0,0,0-2.31,1.456h-.028V96.776H9.646ZM23.534,94h-.882v4.144h-.028a2.577,2.577,0,0,0-2.506-1.582c-2.2,0-3.248,1.764-3.248,3.822s1.05,3.822,3.248,3.822a2.837,2.837,0,0,0,2.576-1.582h.028V104h.812Zm-5.782,6.384c0-1.5.686-3.08,2.366-3.08,1.862,0,2.534,1.582,2.534,3.08s-.672,3.08-2.534,3.08C18.438,103.468,17.752,101.886,17.752,100.388Zm12.152-1.4c.042-1.176.826-1.68,1.932-1.68,1.05,0,1.89.294,1.89,1.484,0,.784-.406.91-1.134.98-1.9.224-3.878.308-3.878,2.324,0,1.456,1.078,2.114,2.422,2.114a2.754,2.754,0,0,0,2.632-1.47H33.8c0,.742.14,1.26,1.036,1.26a2.5,2.5,0,0,0,.574-.056V103.2a.667.667,0,0,1-.28.056.464.464,0,0,1-.518-.532V98.89c0-1.946-1.386-2.324-2.66-2.324-1.666,0-2.828.728-2.926,2.422Zm3.822,2.212a2.322,2.322,0,0,1-2.52,2.268,1.5,1.5,0,0,1-1.61-1.428c0-1.4,1.862-1.4,3.36-1.666.238-.042.63-.112.742-.322h.028Zm6.538,5.474h.882v-4.046h.028a2.57,2.57,0,0,0,2.506,1.582c2.2,0,3.248-1.764,3.248-3.822s-1.05-3.822-3.248-3.822A2.669,2.669,0,0,0,41.1,98.148h-.028V96.776h-.812Zm5.782-6.286c0,1.5-.686,3.08-2.366,3.08-1.862,0-2.534-1.582-2.534-3.08,0-1.638.574-3.08,2.534-3.08C45.36,97.308,46.046,98.89,46.046,100.388ZM48.314,104H49.2V94h-.882Zm3.374-5.012c.042-1.176.826-1.68,1.932-1.68,1.05,0,1.89.294,1.89,1.484,0,.784-.406.91-1.134.98-1.9.224-3.878.308-3.878,2.324,0,1.456,1.078,2.114,2.422,2.114a2.754,2.754,0,0,0,2.632-1.47h.028c0,.742.14,1.26,1.036,1.26a2.5,2.5,0,0,0,.574-.056V103.2a.667.667,0,0,1-.28.056.464.464,0,0,1-.518-.532V98.89c0-1.946-1.386-2.324-2.66-2.324-1.666,0-2.828.728-2.926,2.422ZM55.51,101.2a2.322,2.322,0,0,1-2.52,2.268,1.5,1.5,0,0,1-1.61-1.428c0-1.4,1.862-1.4,3.36-1.666.238-.042.63-.112.742-.322h.028Zm8.624-2.156a2.691,2.691,0,0,0-2.926-2.478c-2.2,0-3.416,1.75-3.416,3.822s1.218,3.822,3.416,3.822a2.922,2.922,0,0,0,2.982-2.8h-.882a2.173,2.173,0,0,1-2.1,2.058c-1.68,0-2.534-1.554-2.534-3.08s.854-3.08,2.534-3.08a1.955,1.955,0,0,1,2.044,1.736Zm1.806.84c.154-1.316.924-2.576,2.38-2.576a2.437,2.437,0,0,1,2.3,2.576Zm5.558.742c.07-2.03-.868-4.06-3.178-4.06s-3.262,1.918-3.262,3.822c0,2.058.966,3.822,3.262,3.822a2.942,2.942,0,0,0,3.15-2.59h-.882a2.189,2.189,0,0,1-2.268,1.848c-1.68,0-2.38-1.554-2.38-2.842ZM78.176,104h.966l1.764-6.076h.028L82.712,104h.966L86,96.776h-.938l-1.848,6.188h-.028l-1.764-6.188H80.43l-1.764,6.188h-.028L76.79,96.776h-.938Zm8.764,0h.882V99.786a2.28,2.28,0,0,1,2.268-2.478c1.428,0,1.834.952,1.834,2.184V104h.882V99.352c0-1.722-.616-2.786-2.646-2.786a2.464,2.464,0,0,0-2.31,1.456h-.028V94H86.94Zm8.05-4.116c.154-1.316.924-2.576,2.38-2.576a2.437,2.437,0,0,1,2.3,2.576Zm5.558.742c.07-2.03-.868-4.06-3.178-4.06s-3.262,1.918-3.262,3.822c0,2.058.966,3.822,3.262,3.822a2.942,2.942,0,0,0,3.15-2.59h-.882a2.189,2.189,0,0,1-2.268,1.848c-1.68,0-2.38-1.554-2.38-2.842Zm1.19,3.374h.882v-3.85a2.488,2.488,0,0,1,2.688-2.59v-.882a2.653,2.653,0,0,0-2.73,1.792h-.028V96.776h-.812Zm4.676-4.116c.154-1.316.924-2.576,2.38-2.576a2.437,2.437,0,0,1,2.3,2.576Zm5.558.742c.07-2.03-.868-4.06-3.178-4.06s-3.262,1.918-3.262,3.822c0,2.058.966,3.822,3.262,3.822a2.942,2.942,0,0,0,3.15-2.59h-.882a2.189,2.189,0,0,1-2.268,1.848c-1.68,0-2.38-1.554-2.38-2.842ZM117.04,104h.882V99.786a2.28,2.28,0,0,1,2.268-2.478c1.428,0,1.834.952,1.834,2.184V104h.882V99.352c0-1.722-.616-2.786-2.646-2.786a2.464,2.464,0,0,0-2.31,1.456h-.028V96.776h-.882Zm10.584-6.692c1.68,0,2.534,1.554,2.534,3.08s-.854,3.08-2.534,3.08-2.534-1.554-2.534-3.08S125.944,97.308,127.624,97.308Zm0-.742c-2.2,0-3.416,1.75-3.416,3.822s1.218,3.822,3.416,3.822,3.416-1.75,3.416-3.822S129.822,96.566,127.624,96.566Zm11.676.742c1.68,0,2.534,1.554,2.534,3.08s-.854,3.08-2.534,3.08-2.534-1.554-2.534-3.08S137.62,97.308,139.3,97.308Zm0-.742c-2.2,0-3.416,1.75-3.416,3.822s1.218,3.822,3.416,3.822,3.416-1.75,3.416-3.822S141.5,96.566,139.3,96.566ZM144.018,104h.882V99.786a2.28,2.28,0,0,1,2.268-2.478c1.428,0,1.834.952,1.834,2.184V104h.882V99.352c0-1.722-.616-2.786-2.646-2.786a2.464,2.464,0,0,0-2.31,1.456H144.9V96.776h-.882Zm8.05-4.116c.154-1.316.924-2.576,2.38-2.576a2.437,2.437,0,0,1,2.3,2.576Zm5.558.742c.07-2.03-.868-4.06-3.178-4.06s-3.262,1.918-3.262,3.822c0,2.058.966,3.822,3.262,3.822a2.942,2.942,0,0,0,3.15-2.59h-.882a2.189,2.189,0,0,1-2.268,1.848c-1.68,0-2.38-1.554-2.38-2.842Zm5.1-5.208h.882V94h-.882Zm0,8.582h.882V96.776h-.882Zm7.784-5.11a2.368,2.368,0,0,0-2.646-2.324c-1.274,0-2.716.56-2.716,2.03,0,1.218.868,1.638,2.016,1.932l1.134.252c.8.2,1.582.476,1.582,1.316,0,1.008-1.134,1.372-1.974,1.372a1.9,1.9,0,0,1-2.128-1.806h-.882c.154,1.778,1.274,2.548,2.968,2.548,1.344,0,2.9-.6,2.9-2.17a2.117,2.117,0,0,0-2.058-2l-1.176-.266c-.616-.154-1.5-.448-1.5-1.218,0-.938.924-1.246,1.708-1.246a1.663,1.663,0,0,1,1.89,1.582Zm5.418,7.784h.882v-4.046h.028a2.57,2.57,0,0,0,2.506,1.582c2.2,0,3.248-1.764,3.248-3.822s-1.05-3.822-3.248-3.822a2.669,2.669,0,0,0-2.576,1.582h-.028V96.776h-.812Zm5.782-6.286c0,1.5-.686,3.08-2.366,3.08-1.862,0-2.534-1.582-2.534-3.08,0-1.638.574-3.08,2.534-3.08C181.02,97.308,181.706,98.89,181.706,100.388Zm8.106-3.612h-.882v3.794c0,1.47-.658,2.9-2.17,2.9-1.4,0-1.89-.686-1.932-1.988v-4.7h-.882v4.69c0,1.694.7,2.744,2.534,2.744a2.687,2.687,0,0,0,2.492-1.512H189V104h.812Zm6.874,2.114a2.368,2.368,0,0,0-2.646-2.324c-1.274,0-2.716.56-2.716,2.03,0,1.218.868,1.638,2.016,1.932l1.134.252c.8.2,1.582.476,1.582,1.316,0,1.008-1.134,1.372-1.974,1.372a1.9,1.9,0,0,1-2.128-1.806h-.882c.154,1.778,1.274,2.548,2.968,2.548,1.344,0,2.9-.6,2.9-2.17a2.117,2.117,0,0,0-2.058-2l-1.176-.266c-.616-.154-1.5-.448-1.5-1.218,0-.938.924-1.246,1.708-1.246a1.663,1.663,0,0,1,1.89,1.582ZM198.2,104h.882V99.786a2.28,2.28,0,0,1,2.268-2.478c1.428,0,1.834.952,1.834,2.184V104h.882V99.352c0-1.722-.616-2.786-2.646-2.786a2.464,2.464,0,0,0-2.31,1.456h-.028V94H198.2Zm7.546-8.582h.882V94h-.882Zm0,8.582h.882V96.776h-.882Zm2.562,0h.882V99.786a2.28,2.28,0,0,1,2.268-2.478c1.428,0,1.834.952,1.834,2.184V104h.882V99.352c0-1.722-.616-2.786-2.646-2.786a2.464,2.464,0,0,0-2.31,1.456h-.028V96.776h-.882Zm13.636-7.224h-.882v1.246h-.028a2.526,2.526,0,0,0-2.3-1.456c-2.086,0-3.262,1.652-3.262,3.64,0,2.072.952,3.71,3.262,3.71a2.467,2.467,0,0,0,2.3-1.484h.028v.98c0,1.778-.686,2.73-2.324,2.73a1.9,1.9,0,0,1-2.114-1.442h-.882c.112,1.526,1.554,2.184,3,2.184,2.338,0,3.206-1.3,3.206-3.472Zm-3.206,6.4c-1.638,0-2.38-1.414-2.38-2.87,0-1.5.7-3,2.38-3s2.324,1.582,2.324,3C221.06,101.76,220.262,103.174,218.736,103.174Zm10.178-8.568h-.882v2.17h-1.26v.742h1.26v4.942c-.014,1.232.392,1.624,1.568,1.624.266,0,.518-.028.784-.028V103.3a6.841,6.841,0,0,1-.756.042c-.63-.042-.714-.378-.714-.952V97.518h1.47v-.742h-1.47Zm2.73,9.394h.882V99.786a2.28,2.28,0,0,1,2.268-2.478c1.428,0,1.834.952,1.834,2.184V104h.882V99.352c0-1.722-.616-2.786-2.646-2.786a2.464,2.464,0,0,0-2.31,1.456h-.028V94h-.882Zm8.05-4.116c.154-1.316.924-2.576,2.38-2.576a2.437,2.437,0,0,1,2.3,2.576Zm5.558.742c.07-2.03-.868-4.06-3.178-4.06s-3.262,1.918-3.262,3.822c0,2.058.966,3.822,3.262,3.822a2.942,2.942,0,0,0,3.15-2.59h-.882a2.189,2.189,0,0,1-2.268,1.848c-1.68,0-2.38-1.554-2.38-2.842Zm1.2-5.208h.882V94h-.882Zm0,8.582h.882V96.776h-.882Zm2.576,0h.882v-3.85a2.488,2.488,0,0,1,2.688-2.59v-.882a2.653,2.653,0,0,0-2.73,1.792h-.028V96.776h-.812ZM1.638,116.988c.042-1.176.826-1.68,1.932-1.68,1.05,0,1.89.294,1.89,1.484,0,.784-.406.91-1.134.98-1.9.224-3.878.308-3.878,2.324,0,1.456,1.078,2.114,2.422,2.114A2.754,2.754,0,0,0,5.5,120.74H5.53c0,.742.14,1.26,1.036,1.26a2.5,2.5,0,0,0,.574-.056V121.2a.667.667,0,0,1-.28.056.464.464,0,0,1-.518-.532V116.89c0-1.946-1.386-2.324-2.66-2.324-1.666,0-2.828.728-2.926,2.422ZM5.46,119.2a2.322,2.322,0,0,1-2.52,2.268,1.5,1.5,0,0,1-1.61-1.428c0-1.4,1.862-1.4,3.36-1.666.238-.042.63-.112.742-.322H5.46Zm8.75-4.424h-.882v1.246H13.3a2.526,2.526,0,0,0-2.3-1.456c-2.086,0-3.262,1.652-3.262,3.64,0,2.072.952,3.71,3.262,3.71a2.467,2.467,0,0,0,2.3-1.484h.028v.98c0,1.778-.686,2.73-2.324,2.73A1.9,1.9,0,0,1,8.89,122.7H8.008c.112,1.526,1.554,2.184,3,2.184,2.338,0,3.206-1.3,3.206-3.472ZM11,121.174c-1.638,0-2.38-1.414-2.38-2.87,0-1.5.7-3,2.38-3s2.324,1.582,2.324,3C13.328,119.76,12.53,121.174,11,121.174Zm5.4-3.29c.154-1.316.924-2.576,2.38-2.576a2.437,2.437,0,0,1,2.3,2.576Zm5.558.742c.07-2.03-.868-4.06-3.178-4.06s-3.262,1.918-3.262,3.822c0,2.058.966,3.822,3.262,3.822a2.942,2.942,0,0,0,3.15-2.59h-.882a2.189,2.189,0,0,1-2.268,1.848c-1.68,0-2.38-1.554-2.38-2.842ZM23.142,122h.882v-4.214a2.28,2.28,0,0,1,2.268-2.478c1.428,0,1.834.952,1.834,2.184V122h.882v-4.648c0-1.722-.616-2.786-2.646-2.786a2.464,2.464,0,0,0-2.31,1.456h-.028v-1.246h-.882ZM37.03,112h-.882v4.144H36.12a2.577,2.577,0,0,0-2.506-1.582c-2.2,0-3.248,1.764-3.248,3.822s1.05,3.822,3.248,3.822a2.837,2.837,0,0,0,2.576-1.582h.028V122h.812Zm-5.782,6.384c0-1.5.686-3.08,2.366-3.08,1.862,0,2.534,1.582,2.534,3.08s-.672,3.08-2.534,3.08C31.934,121.468,31.248,119.886,31.248,118.388Zm8.26-1.4c.042-1.176.826-1.68,1.932-1.68,1.05,0,1.89.294,1.89,1.484,0,.784-.406.91-1.134.98-1.9.224-3.878.308-3.878,2.324,0,1.456,1.078,2.114,2.422,2.114a2.754,2.754,0,0,0,2.632-1.47H43.4c0,.742.14,1.26,1.036,1.26a2.5,2.5,0,0,0,.574-.056V121.2a.667.667,0,0,1-.28.056.464.464,0,0,1-.518-.532V116.89c0-1.946-1.386-2.324-2.66-2.324-1.666,0-2.828.728-2.926,2.422ZM43.33,119.2a2.322,2.322,0,0,1-2.52,2.268,1.5,1.5,0,0,1-1.61-1.428c0-1.4,1.862-1.4,3.36-1.666.238-.042.63-.112.742-.322h.028Zm4.34,2.8v-1.484H46.494V122Z" transform="translate(7931.264 -11653.072)"/>
    <path id="Path_319" data-name="Path 319" d="M1.72-11.54a1.442,1.442,0,0,0-.44-.79,1.694,1.694,0,0,0-.98-.21v-.66H5.32v.66h-.9a.723.723,0,0,0-.37.07.273.273,0,0,0-.11.25,1.641,1.641,0,0,0,.06.36L6.34-2.74h.08L8.96-12.92h1.58l2.74,10.2h.1l2.18-8.88a4.63,4.63,0,0,0,.12-.62.277.277,0,0,0-.11-.24.694.694,0,0,0-.39-.08H14.04v-.66h4.2v.66a1.653,1.653,0,0,0-1.18.35,2.819,2.819,0,0,0-.6,1.31L13.52,0H11.74L9.12-9.56H9.04L6.56,0H4.78Zm24.7,6.96h-6a5.059,5.059,0,0,0,.66,2.62,2.246,2.246,0,0,0,2.02.9,2.75,2.75,0,0,0,1.62-.45,3.04,3.04,0,0,0,1.02-1.35l.62.36a4.869,4.869,0,0,1-1.4,1.96,4.181,4.181,0,0,1-2.7.74q-4.3,0-4.3-4.86a5.462,5.462,0,0,1,1.09-3.7A4.021,4.021,0,0,1,22.24-9.6a3.782,3.782,0,0,1,3.19,1.28,5.55,5.55,0,0,1,.99,3.48Zm-2.44-.8a7.708,7.708,0,0,0-.32-2.6,1.289,1.289,0,0,0-1.34-.82,1.515,1.515,0,0,0-1.43.82,5.942,5.942,0,0,0-.49,2.6ZM27.86-.66a3.011,3.011,0,0,0,.87-.09.524.524,0,0,0,.35-.29,1.782,1.782,0,0,0,.08-.62V-11.72a1.57,1.57,0,0,0-.12-.75.5.5,0,0,0-.46-.19h-.6v-.68l2.94-.46h.56V-1.66a1.68,1.68,0,0,0,.09.63.524.524,0,0,0,.36.29,3.158,3.158,0,0,0,.83.08V0h-4.9ZM38.38.2A4.269,4.269,0,0,1,35.13-.99,5.073,5.073,0,0,1,34-4.6a5.282,5.282,0,0,1,1.18-3.75,4.452,4.452,0,0,1,3.4-1.25,5.14,5.14,0,0,1,2.06.36,2.687,2.687,0,0,1,1.2.93,2.175,2.175,0,0,1,.38,1.23,1.343,1.343,0,0,1-.31.94,1.093,1.093,0,0,1-.85.34,1.063,1.063,0,0,1-.83-.32,1.174,1.174,0,0,1-.29-.82,1.22,1.22,0,0,1,.09-.5q.09-.2.11-.24a.846.846,0,0,0,.14-.4.591.591,0,0,0-.36-.52,2.18,2.18,0,0,0-1.04-.2,2.14,2.14,0,0,0-1.8.8,4.94,4.94,0,0,0-.62,2.9,5.638,5.638,0,0,0,.66,3.06,2.272,2.272,0,0,0,2.04,1,2.464,2.464,0,0,0,1.71-.52,4.462,4.462,0,0,0,.97-1.32l.5.3A4.275,4.275,0,0,1,40.97-.51,4.13,4.13,0,0,1,38.38.2ZM48.5.2A4.69,4.69,0,0,1,44.97-.98a5.2,5.2,0,0,1-1.13-3.7,5.281,5.281,0,0,1,1.14-3.73,4.683,4.683,0,0,1,3.56-1.21,4.6,4.6,0,0,1,3.5,1.19,5.265,5.265,0,0,1,1.12,3.71A5.267,5.267,0,0,1,52.03-.99,4.666,4.666,0,0,1,48.5.2Zm0-.8a1.764,1.764,0,0,0,1.68-.98A6.708,6.708,0,0,0,50.7-4.6a7.162,7.162,0,0,0-.54-3.2,1.78,1.78,0,0,0-1.68-1.02,1.766,1.766,0,0,0-1.67.99,6.955,6.955,0,0,0-.53,3.13,6.887,6.887,0,0,0,.53,3.12A1.785,1.785,0,0,0,48.5-.6ZM70.32-1.66a1.669,1.669,0,0,0,.09.64.526.526,0,0,0,.35.28,3.248,3.248,0,0,0,.86.08V0H66.88V-.66a3.925,3.925,0,0,0,.76-.05.4.4,0,0,0,.3-.23,1.682,1.682,0,0,0,.08-.62v-4.8a2.083,2.083,0,0,0-.45-1.44,1.621,1.621,0,0,0-1.27-.5,2.132,2.132,0,0,0-1.05.26,3.1,3.1,0,0,0-.91.82v5.56a1.873,1.873,0,0,0,.08.63.483.483,0,0,0,.32.29,2.519,2.519,0,0,0,.74.08V0h-4.6V-.66a3.925,3.925,0,0,0,.76-.05.432.432,0,0,0,.31-.23,1.51,1.51,0,0,0,.09-.62v-4.8a2.083,2.083,0,0,0-.45-1.44,1.672,1.672,0,0,0-1.31-.5,2.444,2.444,0,0,0-1.92.9v5.84a1.51,1.51,0,0,0,.09.62.432.432,0,0,0,.31.23,3.631,3.631,0,0,0,.72.05V0H54.74V-.66a3.248,3.248,0,0,0,.86-.08.492.492,0,0,0,.34-.28,1.861,1.861,0,0,0,.08-.64V-7.44a1.51,1.51,0,0,0-.12-.73.479.479,0,0,0-.44-.19h-.6v-.68l2.88-.46h.56v1.24a6.256,6.256,0,0,1,1.66-.99,4.545,4.545,0,0,1,1.68-.35,2.867,2.867,0,0,1,1.61.44,2.354,2.354,0,0,1,.93,1.08,4.835,4.835,0,0,1,1.59-1.1,4.644,4.644,0,0,1,1.89-.42,2.514,2.514,0,0,1,1.96.77,3.111,3.111,0,0,1,.7,2.17ZM81.2-4.58h-6a5.059,5.059,0,0,0,.66,2.62,2.246,2.246,0,0,0,2.02.9,2.75,2.75,0,0,0,1.62-.45,3.04,3.04,0,0,0,1.02-1.35l.62.36a4.869,4.869,0,0,1-1.4,1.96,4.181,4.181,0,0,1-2.7.74q-4.3,0-4.3-4.86a5.462,5.462,0,0,1,1.09-3.7A4.021,4.021,0,0,1,77.02-9.6a3.782,3.782,0,0,1,3.19,1.28,5.55,5.55,0,0,1,.99,3.48Zm-2.44-.8a7.708,7.708,0,0,0-.32-2.6A1.289,1.289,0,0,0,77.1-8.8a1.515,1.515,0,0,0-1.43.82,5.942,5.942,0,0,0-.49,2.6ZM90.5.22a2.347,2.347,0,0,1-1.72-.61,2.318,2.318,0,0,1-.62-1.73V-8.6H86.98v-.66a3.271,3.271,0,0,0,1.66-1.11,5.921,5.921,0,0,0,.98-2.17h.84V-9.4H92.6v.8H90.46v5.78a2.179,2.179,0,0,0,.34,1.34,1.255,1.255,0,0,0,1.06.44,2.481,2.481,0,0,0,1-.2l.22.5a10.034,10.034,0,0,1-1.27.72A3.172,3.172,0,0,1,90.5.22ZM98.68.2A4.69,4.69,0,0,1,95.15-.98a5.2,5.2,0,0,1-1.13-3.7,5.281,5.281,0,0,1,1.14-3.73,4.683,4.683,0,0,1,3.56-1.21,4.6,4.6,0,0,1,3.5,1.19,5.265,5.265,0,0,1,1.12,3.71,5.267,5.267,0,0,1-1.13,3.73A4.666,4.666,0,0,1,98.68.2Zm0-.8a1.764,1.764,0,0,0,1.68-.98,6.708,6.708,0,0,0,.52-3.02,7.162,7.162,0,0,0-.54-3.2,1.78,1.78,0,0,0-1.68-1.02,1.766,1.766,0,0,0-1.67.99,6.955,6.955,0,0,0-.53,3.13,6.887,6.887,0,0,0,.53,3.12A1.785,1.785,0,0,0,98.68-.6ZM110.7-11.54a2.512,2.512,0,0,0-.28-.62.785.785,0,0,0-.42-.29,2.746,2.746,0,0,0-.8-.09v-.66h5.24v.66h-.88q-.48,0-.48.36a1.027,1.027,0,0,0,.06.32l3.08,9.32h.1l2.92-9.06a1.919,1.919,0,0,0,.12-.56.339.339,0,0,0-.12-.29.638.638,0,0,0-.38-.09h-.96v-.66h4.14v.66a1.919,1.919,0,0,0-1.06.24,1.652,1.652,0,0,0-.58.84L116.34,0H114.6ZM125.98.2a4.69,4.69,0,0,1-3.53-1.18,5.2,5.2,0,0,1-1.13-3.7,5.281,5.281,0,0,1,1.14-3.73,4.683,4.683,0,0,1,3.56-1.21,4.6,4.6,0,0,1,3.5,1.19,5.265,5.265,0,0,1,1.12,3.71,5.267,5.267,0,0,1-1.13,3.73A4.666,4.666,0,0,1,125.98.2Zm0-.8a1.764,1.764,0,0,0,1.68-.98,6.708,6.708,0,0,0,.52-3.02,7.162,7.162,0,0,0-.54-3.2,1.78,1.78,0,0,0-1.68-1.02,1.766,1.766,0,0,0-1.67.99,6.955,6.955,0,0,0-.53,3.13,6.887,6.887,0,0,0,.53,3.12A1.785,1.785,0,0,0,125.98-.6Zm5.66-.06a3.011,3.011,0,0,0,.87-.09.524.524,0,0,0,.35-.29,1.782,1.782,0,0,0,.08-.62V-11.72a1.57,1.57,0,0,0-.12-.75.5.5,0,0,0-.46-.19h-.6v-.68l2.94-.46h.56V-1.66a1.68,1.68,0,0,0,.09.63.524.524,0,0,0,.36.29,3.158,3.158,0,0,0,.83.08V0h-4.9ZM138.34-8a1.181,1.181,0,0,0-.43-.59,1.81,1.81,0,0,0-.87-.15V-9.4h4.6v.66h-.7q-.38,0-.38.3a1.1,1.1,0,0,0,.04.24l2.28,5.98h.06l2.1-5.94a1.757,1.757,0,0,0,.04-.26q0-.32-.4-.32h-.78V-9.4h3.64v.66a1.606,1.606,0,0,0-.88.18,1.353,1.353,0,0,0-.44.64L142.96,0h-1.48Z" transform="translate(7931.264 -11675.072)"/>
  </g>
</svg>
