<svg xmlns="http://www.w3.org/2000/svg" xmlns:xlink="http://www.w3.org/1999/xlink" width="750.06" height="551.448" viewBox="0 0 750.06 551.448">
  <defs>
    <filter id="Path_250" x="0" y="0" width="750.06" height="551.448" filterUnits="userSpaceOnUse">
      <feOffset dy="25" input="SourceAlpha"/>
      <feGaussianBlur stdDeviation="15" result="blur"/>
      <feFlood flood-opacity="0.2"/>
      <feComposite operator="in" in2="blur"/>
      <feComposite in="SourceGraphic"/>
    </filter>
    <linearGradient id="linear-gradient" x1="0.5" x2="0.5" y2="1" gradientUnits="objectBoundingBox">
      <stop offset="0" stop-color="#ecebec"/>
      <stop offset="1" stop-color="#d4d3d4"/>
    </linearGradient>
  </defs>
  <g id="Group_975" data-name="Group 975" transform="translate(-562 -289)">
    <g transform="matrix(1, 0, 0, 1, 562, 289)" filter="url(#Path_250)">
      <g id="Path_250-2" data-name="Path 250" transform="translate(46 21)" fill="#fff">
        <path d="M5.565,0h646.93a5.576,5.576,0,0,1,5.565,5.586V453.862a5.576,5.576,0,0,1-5.565,5.586H5.565A5.576,5.576,0,0,1,0,453.862V5.586A5.576,5.576,0,0,1,5.565,0Z" stroke="none"/>
        <path d="M 5.56494140625 -3.0517578125e-05 C 2.49151611328125 -3.0517578125e-05 -6.103515625e-05 2.500946044921875 -6.103515625e-05 5.585968017578125 L -6.103515625e-05 453.8622741699219 C -6.103515625e-05 456.9472961425781 2.49151611328125 459.4482116699219 5.56494140625 459.4482116699219 L 652.4945068359375 459.4482116699219 C 655.5680541992188 459.4482116699219 658.0595092773438 456.9472961425781 658.0595092773438 453.8622741699219 L 658.0595092773438 5.585968017578125 C 658.0595092773438 2.500946044921875 655.5680541992188 -3.0517578125e-05 652.4945068359375 -3.0517578125e-05 L 5.56494140625 -3.0517578125e-05 M 5.56494140625 -1.000030517578125 L 652.4945068359375 -1.000030517578125 C 656.1144409179688 -1.000030517578125 659.0595092773438 1.9544677734375 659.0595092773438 5.585968017578125 L 659.0595092773438 453.8622741699219 C 659.0595092773438 457.4937744140625 656.1144409179688 460.4482116699219 652.4945068359375 460.4482116699219 L 5.56494140625 460.4482116699219 C 1.94500732421875 460.4482116699219 -1.00006103515625 457.4937744140625 -1.00006103515625 453.8622741699219 L -1.00006103515625 5.585968017578125 C -1.00006103515625 1.9544677734375 1.94500732421875 -1.000030517578125 5.56494140625 -1.000030517578125 Z" stroke="none" fill="rgba(0,0,0,0.1)"/>
      </g>
    </g>
    <g id="Title_bar" data-name="Title bar" transform="translate(608 310)">
      <path id="Rectangle_210" data-name="Rectangle 210" d="M4,0H655a4,4,0,0,1,4,4V22a0,0,0,0,1,0,0H0a0,0,0,0,1,0,0V4A4,4,0,0,1,4,0Z" fill="url(#linear-gradient)"/>
      <g id="Path_46" data-name="Path 46" transform="translate(-17.5 200)" fill="#ff6157">
        <path d="M28.5-184a5,5,0,0,0,5-5,5,5,0,0,0-5-5,5,5,0,0,0-5,5A5,5,0,0,0,28.5-184Z" stroke="none"/>
        <path d="M 28.5 -184.5 C 30.98130989074707 -184.5 33 -186.5186920166016 33 -189 C 33 -191.4813079833984 30.98130989074707 -193.5 28.5 -193.5 C 26.01869010925293 -193.5 24 -191.4813079833984 24 -189 C 24 -186.5186920166016 26.01869010925293 -184.5 28.5 -184.5 M 28.5 -184 C 25.73858070373535 -184 23.5 -186.2386016845703 23.5 -189 C 23.5 -191.7613983154297 25.73858070373535 -194 28.5 -194 C 31.26141929626465 -194 33.5 -191.7613983154297 33.5 -189 C 33.5 -186.2386016845703 31.26141929626465 -184 28.5 -184 Z" stroke="none" fill="rgba(0,0,0,0.15)"/>
      </g>
      <g id="Path_47" data-name="Path 47" transform="translate(-1.5 200)" fill="#ffc12f">
        <path d="M28.5-184a5,5,0,0,0,5-5,5,5,0,0,0-5-5,5,5,0,0,0-5,5A5,5,0,0,0,28.5-184Z" stroke="none"/>
        <path d="M 28.5 -184.5 C 30.98130989074707 -184.5 33 -186.5186920166016 33 -189 C 33 -191.4813079833984 30.98130989074707 -193.5 28.5 -193.5 C 26.01869010925293 -193.5 24 -191.4813079833984 24 -189 C 24 -186.5186920166016 26.01869010925293 -184.5 28.5 -184.5 M 28.5 -184 C 25.73858070373535 -184 23.5 -186.2386016845703 23.5 -189 C 23.5 -191.7613983154297 25.73858070373535 -194 28.5 -194 C 31.26141929626465 -194 33.5 -191.7613983154297 33.5 -189 C 33.5 -186.2386016845703 31.26141929626465 -184 28.5 -184 Z" stroke="none" fill="rgba(0,0,0,0.15)"/>
      </g>
      <g id="Path_48" data-name="Path 48" transform="translate(14.5 200)" fill="#2acb42">
        <path d="M28.5-184a5,5,0,0,0,5-5,5,5,0,0,0-5-5,5,5,0,0,0-5,5A5,5,0,0,0,28.5-184Z" stroke="none"/>
        <path d="M 28.5 -184.5 C 30.98130989074707 -184.5 33 -186.5186920166016 33 -189 C 33 -191.4813079833984 30.98130989074707 -193.5 28.5 -193.5 C 26.01869010925293 -193.5 24 -191.4813079833984 24 -189 C 24 -186.5186920166016 26.01869010925293 -184.5 28.5 -184.5 M 28.5 -184 C 25.73858070373535 -184 23.5 -186.2386016845703 23.5 -189 C 23.5 -191.7613983154297 25.73858070373535 -194 28.5 -194 C 31.26141929626465 -194 33.5 -191.7613983154297 33.5 -189 C 33.5 -186.2386016845703 31.26141929626465 -184 28.5 -184 Z" stroke="none" fill="rgba(0,0,0,0.15)"/>
      </g>
      <path id="Path_317" data-name="Path 317" d="M-47.089-5.688h.075L-45.349,0h1.133l2.095-7.75h-1.251l-1.418,5.935h-.075L-46.493-7.75H-47.61l-1.617,5.935H-49.3L-50.726-7.75h-1.251L-49.888,0h1.139Zm7.965.709a1.411,1.411,0,0,1,1.439,1.515h-2.954A1.5,1.5,0,0,1-39.124-4.979Zm1.434,3.4a1.4,1.4,0,0,1-1.391.709,1.545,1.545,0,0,1-1.558-1.676V-2.61h4.13v-.4c0-1.837-.983-2.949-2.61-2.949-1.649,0-2.7,1.187-2.7,3.056s1.026,3.019,2.7,3.019a2.373,2.373,0,0,0,2.535-1.692ZM-35.214,0h1.155V-8.132h-1.155Zm7.691-3.937a2.307,2.307,0,0,0-2.5-2.025c-1.7,0-2.739,1.144-2.739,3.019,0,1.907,1.042,3.056,2.745,3.056a2.288,2.288,0,0,0,2.5-1.993h-1.123a1.27,1.27,0,0,1-1.38.961c-.961,0-1.558-.757-1.558-2.025,0-1.246.591-1.987,1.558-1.987a1.3,1.3,0,0,1,1.38.994Zm3.641,4.05c1.708,0,2.755-1.144,2.755-3.04s-1.053-3.035-2.755-3.035-2.761,1.149-2.761,3.035S-25.6.113-23.882.113Zm0-1.026c-1,0-1.568-.736-1.568-2.014s.564-2.009,1.568-2.009,1.568.741,1.568,2.009S-22.883-.913-23.882-.913Zm4,.913h1.155V-3.577A1.258,1.258,0,0,1-17.5-4.9,1.019,1.019,0,0,1-16.368-3.84V0h1.133V-3.679A1.185,1.185,0,0,1-14-4.9c.757,0,1.133.387,1.133,1.176V0h1.155V-4.028A1.739,1.739,0,0,0-13.58-5.962a1.9,1.9,0,0,0-1.778,1.053h-.091a1.639,1.639,0,0,0-1.611-1.053,1.651,1.651,0,0,0-1.627,1.053h-.086v-.94h-1.112ZM-7.833-4.979A1.411,1.411,0,0,1-6.394-3.464H-9.348A1.5,1.5,0,0,1-7.833-4.979Zm1.434,3.4A1.4,1.4,0,0,1-7.79-.87,1.545,1.545,0,0,1-9.348-2.546V-2.61h4.13v-.4c0-1.837-.983-2.949-2.61-2.949-1.649,0-2.7,1.187-2.7,3.056S-9.5.113-7.822.113A2.373,2.373,0,0,0-5.287-1.579ZM0,1.493V.575H-5.051v.918ZM.991-7.3v1.482H.062v.972H.991v3.3C.991-.419,1.5.032,2.785.032a3.73,3.73,0,0,0,.628-.059V-.988a3.8,3.8,0,0,1-.44.027c-.575,0-.827-.269-.827-.881V-4.85H3.414v-.972H2.146V-7.3ZM7.033.113c1.708,0,2.755-1.144,2.755-3.04S8.736-5.962,7.033-5.962,4.273-4.812,4.273-2.927,5.32.113,7.033.113Zm0-1.026c-1,0-1.568-.736-1.568-2.014s.564-2.009,1.568-2.009S8.6-4.195,8.6-2.927,8.032-.913,7.033-.913Zm7.976,2.406V.575H9.955v.918ZM18.371,0l2.755-7.75H19.849L17.77-1.5h-.091L15.589-7.75H14.279L17.05,0Zm5.72.113c1.708,0,2.755-1.144,2.755-3.04s-1.053-3.035-2.755-3.035-2.761,1.149-2.761,3.035S22.378.113,24.092.113Zm0-1.026c-1,0-1.568-.736-1.568-2.014s.564-2.009,1.568-2.009,1.568.741,1.568,2.009S25.091-.913,24.092-.913ZM28.141,0H29.3V-8.132H28.141Zm7.691-5.849H34.608l-1.45,4.614h-.091L31.611-5.849H30.375L32.486,0h1.241ZM36.971.091a.777.777,0,0,0,.79-.8.777.777,0,0,0-.79-.8.78.78,0,0,0-.79.8A.78.78,0,0,0,36.971.091Zm2.653-7.4v1.482h-.929v.972h.929v3.3c0,1.128.51,1.579,1.794,1.579a3.73,3.73,0,0,0,.628-.059V-.988a3.8,3.8,0,0,1-.44.027c-.575,0-.827-.269-.827-.881V-4.85h1.268v-.972H40.779V-7.3Zm5.817,5.242L46.719.011h1.327L46.1-2.949l1.928-2.89H46.735L45.489-3.776H45.4L44.141-5.838H42.793L44.748-2.9,42.809.011h1.268l1.278-2.073ZM49.512-7.3v1.482h-.929v.972h.929v3.3c0,1.128.51,1.579,1.794,1.579a3.73,3.73,0,0,0,.628-.059V-.988a3.8,3.8,0,0,1-.44.027c-.575,0-.827-.269-.827-.881V-4.85h1.268v-.972H50.667V-7.3Z" transform="translate(329.178 15.25)" fill="rgba(0,0,0,0.76)"/>
      <rect id="Rectangle_241" data-name="Rectangle 241" width="659" height="1" transform="translate(0 21)" opacity="0.06"/>
    </g>
    <path id="Path_315" data-name="Path 315" d="M5.544,27H7.616l5.04-17.892h.056L17.78,27H19.8L25.312,7.008h-1.9l-4.564,17.5h-.056l-4.9-17.5h-2.38l-4.872,17.5H6.58L2.044,7.008H0Zm22.064-8.232c.308-2.632,1.848-5.152,4.76-5.152,2.828,0,4.508,2.492,4.592,5.152Zm11.116,1.484c.14-4.06-1.736-8.12-6.356-8.12-4.592,0-6.524,3.836-6.524,7.644,0,4.116,1.932,7.644,6.524,7.644,3.668,0,5.544-1.9,6.3-5.18H36.9a4.378,4.378,0,0,1-4.536,3.7c-3.36,0-4.76-3.108-4.76-5.684ZM48.888,27h1.764V19.3a4.977,4.977,0,0,1,5.376-5.18V12.356a5.306,5.306,0,0,0-5.46,3.584h-.056V12.552H48.888Zm9.352-8.232c.308-2.632,1.848-5.152,4.76-5.152,2.828,0,4.508,2.492,4.592,5.152Zm11.116,1.484c.14-4.06-1.736-8.12-6.356-8.12-4.592,0-6.524,3.836-6.524,7.644,0,4.116,1.932,7.644,6.524,7.644,3.668,0,5.544-1.9,6.3-5.18H67.536A4.378,4.378,0,0,1,63,25.936c-3.36,0-4.76-3.108-4.76-5.684ZM71.764,9.836h1.764V7.008H71.764Zm0,17.164h1.764V12.552H71.764Zm5.152,0H78.68V18.936c0-3.024,1.288-5.32,4.312-5.32,2.268,0,3.024,1.624,3.024,3.584V27H87.78V18.824c0-2.688.868-5.208,3.92-5.208,2.548,0,3.416,1.288,3.416,3.668V27H96.88V17.2c0-3.388-1.6-5.068-4.788-5.068A4.884,4.884,0,0,0,87.5,14.96a4.016,4.016,0,0,0-4.144-2.828,4.972,4.972,0,0,0-4.732,2.856H78.54V12.552H76.916Zm24.92-10.024c.084-2.352,1.652-3.36,3.864-3.36,2.1,0,3.78.588,3.78,2.968,0,1.568-.812,1.82-2.268,1.96-3.808.448-7.756.616-7.756,4.648,0,2.912,2.156,4.228,4.844,4.228,2.8,0,4-1.064,5.264-2.94h.056c0,1.484.28,2.52,2.072,2.52a4.993,4.993,0,0,0,1.148-.112V25.4a1.335,1.335,0,0,1-.56.112.928.928,0,0,1-1.036-1.064V16.78c0-3.892-2.772-4.648-5.32-4.648-3.332,0-5.656,1.456-5.852,4.844ZM109.48,21.4c0,2.828-2.324,4.536-5.04,4.536a2.993,2.993,0,0,1-3.22-2.856c0-2.8,3.724-2.8,6.72-3.332.476-.084,1.26-.224,1.484-.644h.056Zm17.5-8.848h-1.764v2.492h-.056a5.052,5.052,0,0,0-4.592-2.912c-4.172,0-6.524,3.3-6.524,7.28,0,4.144,1.9,7.42,6.524,7.42a4.934,4.934,0,0,0,4.592-2.968h.056v1.96c0,3.556-1.372,5.46-4.648,5.46-1.932,0-3.864-.756-4.228-2.884h-1.764c.224,3.052,3.108,4.368,5.992,4.368,4.676,0,6.412-2.6,6.412-6.944Zm-6.412,12.8c-3.276,0-4.76-2.828-4.76-5.74,0-3,1.4-5.992,4.76-5.992s4.648,3.164,4.648,5.992C125.216,22.52,123.62,25.348,120.568,25.348Zm9.8-15.512h1.764V7.008h-1.764Zm0,17.164h1.764V12.552h-1.764Zm5.124,0h1.764V18.572c.084-2.828,1.708-4.956,4.536-4.956,2.856,0,3.668,1.9,3.668,4.368V27h1.764V17.7c0-3.444-1.232-5.572-5.292-5.572a4.927,4.927,0,0,0-4.62,2.912h-.056V12.552h-1.764Zm16.1-8.232c.308-2.632,1.848-5.152,4.76-5.152,2.828,0,4.508,2.492,4.592,5.152Zm11.116,1.484c.14-4.06-1.736-8.12-6.356-8.12-4.592,0-6.524,3.836-6.524,7.644,0,4.116,1.932,7.644,6.524,7.644,3.668,0,5.544-1.9,6.3-5.18h-1.764a4.378,4.378,0,0,1-4.536,3.7c-3.36,0-4.76-3.108-4.76-5.684ZM177.8,7.008h-1.764V15.3h-.056a5.154,5.154,0,0,0-5.012-3.164c-4.4,0-6.5,3.528-6.5,7.644s2.1,7.644,6.5,7.644a5.673,5.673,0,0,0,5.152-3.164h.056V27H177.8ZM166.236,19.776c0-3,1.372-6.16,4.732-6.16,3.724,0,5.068,3.164,5.068,6.16s-1.344,6.16-5.068,6.16C167.608,25.936,166.236,22.772,166.236,19.776ZM191.744,8.212H189.98v4.34h-2.52v1.484h2.52V23.92c-.028,2.464.784,3.248,3.136,3.248.532,0,1.036-.056,1.568-.056V25.6a13.681,13.681,0,0,1-1.512.084c-1.26-.084-1.428-.756-1.428-1.9V14.036h2.94V12.552h-2.94ZM197.2,27h1.764V18.572c.084-2.828,1.708-4.956,4.536-4.956,2.856,0,3.668,1.9,3.668,4.368V27h1.764V17.7c0-3.444-1.232-5.572-5.292-5.572a4.927,4.927,0,0,0-4.62,2.912h-.056V7.008H197.2Zm16.1-8.232c.308-2.632,1.848-5.152,4.76-5.152,2.828,0,4.508,2.492,4.592,5.152Zm11.116,1.484c.14-4.06-1.736-8.12-6.356-8.12-4.592,0-6.524,3.836-6.524,7.644,0,4.116,1.932,7.644,6.524,7.644,3.668,0,5.544-1.9,6.3-5.18H222.6a4.378,4.378,0,0,1-4.536,3.7c-3.36,0-4.76-3.108-4.76-5.684ZM234.556,27h1.764V18.572c.084-2.828,1.708-4.956,4.536-4.956,2.856,0,3.668,1.9,3.668,4.368V27h1.764V17.7c0-3.444-1.232-5.572-5.292-5.572a4.927,4.927,0,0,0-4.62,2.912h-.056V12.552h-1.764Zm16.1-8.232c.308-2.632,1.848-5.152,4.76-5.152,2.828,0,4.508,2.492,4.592,5.152Zm11.116,1.484c.14-4.06-1.736-8.12-6.356-8.12-4.592,0-6.524,3.836-6.524,7.644,0,4.116,1.932,7.644,6.524,7.644,3.668,0,5.544-1.9,6.3-5.18h-1.764a4.378,4.378,0,0,1-4.536,3.7c-3.36,0-4.76-3.108-4.76-5.684ZM267.344,27h1.932L272.8,14.848h.056L276.416,27h1.932L283,12.552H281.12l-3.7,12.376h-.056L273.84,12.552h-1.988l-3.528,12.376h-.056l-3.7-12.376H262.7Zm27.972-10.22c-.14-3.136-2.38-4.648-5.292-4.648-2.548,0-5.432,1.12-5.432,4.06,0,2.436,1.736,3.276,4.032,3.864l2.268.5c1.6.392,3.164.952,3.164,2.632,0,2.016-2.268,2.744-3.948,2.744-2.352,0-4.116-1.232-4.256-3.612h-1.764c.308,3.556,2.548,5.1,5.936,5.1,2.688,0,5.8-1.2,5.8-4.34,0-2.52-2.1-3.7-4.116-4l-2.352-.532c-1.232-.308-3-.9-3-2.436,0-1.876,1.848-2.492,3.416-2.492,2.016,0,3.7.98,3.78,3.164ZM301.756,27V24.032H299.4V27ZM8.848,84.912,12.712,95.16H4.844ZM-.2,103H1.848l2.408-6.216h9.1L15.792,103h2.044L10,83.008H7.868Zm27.3,5.348h1.764v-8.092h.056a5.139,5.139,0,0,0,5.012,3.164c4.4,0,6.5-3.528,6.5-7.644s-2.1-7.644-6.5-7.644A5.338,5.338,0,0,0,28.784,91.3h-.056V88.552H27.1ZM38.668,95.776c0,3-1.372,6.16-4.732,6.16-3.724,0-5.068-3.164-5.068-6.16,0-3.276,1.148-6.16,5.068-6.16C37.3,89.616,38.668,92.78,38.668,95.776ZM43.2,103h1.764V83.008H43.2Zm6.748-10.024c.084-2.352,1.652-3.36,3.864-3.36,2.1,0,3.78.588,3.78,2.968,0,1.568-.812,1.82-2.268,1.96-3.808.448-7.756.616-7.756,4.648,0,2.912,2.156,4.228,4.844,4.228,2.8,0,4-1.064,5.264-2.94h.056c0,1.484.28,2.52,2.072,2.52a4.993,4.993,0,0,0,1.148-.112V101.4a1.335,1.335,0,0,1-.56.112.928.928,0,0,1-1.036-1.064V92.78c0-3.892-2.772-4.648-5.32-4.648-3.332,0-5.656,1.456-5.852,4.844ZM57.6,97.4c0,2.828-2.324,4.536-5.04,4.536a2.993,2.993,0,0,1-3.22-2.856c0-2.8,3.724-2.8,6.72-3.332.476-.084,1.26-.224,1.484-.644H57.6Zm17.248-4.312c-.42-3.332-2.744-4.956-5.852-4.956-4.4,0-6.832,3.5-6.832,7.644s2.436,7.644,6.832,7.644c3.248,0,5.488-2.1,5.964-5.6H73.192a4.345,4.345,0,0,1-4.2,4.116c-3.36,0-5.068-3.108-5.068-6.16s1.708-6.16,5.068-6.16c2.324,0,3.612,1.316,4.088,3.472Zm3.612,1.68c.308-2.632,1.848-5.152,4.76-5.152,2.828,0,4.508,2.492,4.592,5.152Zm11.116,1.484c.14-4.06-1.736-8.12-6.356-8.12-4.592,0-6.524,3.836-6.524,7.644,0,4.116,1.932,7.644,6.524,7.644,3.668,0,5.544-1.9,6.3-5.18H87.752a4.378,4.378,0,0,1-4.536,3.7c-3.36,0-4.76-3.108-4.76-5.684Zm12.964-12.04h-1.764v4.34h-2.52v1.484h2.52V99.92c-.028,2.464.784,3.248,3.136,3.248.532,0,1.036-.056,1.568-.056V101.6a13.681,13.681,0,0,1-1.512.084c-1.26-.084-1.428-.756-1.428-1.9V90.036h2.94V88.552h-2.94ZM108,103h1.764V94.572c.084-2.828,1.708-4.956,4.536-4.956,2.856,0,3.668,1.9,3.668,4.368V103h1.764V93.7c0-3.444-1.232-5.572-5.292-5.572a4.927,4.927,0,0,0-4.62,2.912h-.056V83.008H108Zm16.66-10.024c.084-2.352,1.652-3.36,3.864-3.36,2.1,0,3.78.588,3.78,2.968,0,1.568-.812,1.82-2.268,1.96-3.808.448-7.756.616-7.756,4.648,0,2.912,2.156,4.228,4.844,4.228,2.8,0,4-1.064,5.264-2.94h.056c0,1.484.28,2.52,2.072,2.52a4.993,4.993,0,0,0,1.148-.112V101.4a1.335,1.335,0,0,1-.56.112.928.928,0,0,1-1.036-1.064V92.78c0-3.892-2.772-4.648-5.32-4.648-3.332,0-5.656,1.456-5.852,4.844ZM132.3,97.4c0,2.828-2.324,4.536-5.04,4.536a2.993,2.993,0,0,1-3.22-2.856c0-2.8,3.724-2.8,6.72-3.332.476-.084,1.26-.224,1.484-.644h.056Zm8.092-13.188h-1.764v4.34h-2.52v1.484h2.52V99.92c-.028,2.464.784,3.248,3.136,3.248.532,0,1.036-.056,1.568-.056V101.6a13.681,13.681,0,0,1-1.512.084c-1.26-.084-1.428-.756-1.428-1.9V90.036h2.94V88.552h-2.94Zm16.072,0H154.7v4.34h-2.52v1.484h2.52V99.92c-.028,2.464.784,3.248,3.136,3.248.532,0,1.036-.056,1.568-.056V101.6a13.681,13.681,0,0,1-1.512.084c-1.26-.084-1.428-.756-1.428-1.9V90.036h2.94V88.552h-2.94Zm6.524,10.556c.308-2.632,1.848-5.152,4.76-5.152,2.828,0,4.508,2.492,4.592,5.152ZM174.1,96.252c.14-4.06-1.736-8.12-6.356-8.12-4.592,0-6.524,3.836-6.524,7.644,0,4.116,1.932,7.644,6.524,7.644,3.668,0,5.544-1.9,6.3-5.18h-1.764a4.378,4.378,0,0,1-4.536,3.7c-3.36,0-4.76-3.108-4.76-5.684ZM176.512,103h1.764V83.008h-1.764Zm5.18,0h1.764V83.008h-1.764ZM197.26,92.78c-.14-3.136-2.38-4.648-5.292-4.648-2.548,0-5.432,1.12-5.432,4.06,0,2.436,1.736,3.276,4.032,3.864l2.268.5c1.6.392,3.164.952,3.164,2.632,0,2.016-2.268,2.744-3.948,2.744-2.352,0-4.116-1.232-4.256-3.612h-1.764c.308,3.556,2.548,5.1,5.936,5.1,2.688,0,5.8-1.2,5.8-4.34,0-2.52-2.1-3.7-4.116-4l-2.352-.532c-1.232-.308-3-.9-3-2.436,0-1.876,1.848-2.492,3.416-2.492,2.016,0,3.7.98,3.78,3.164Zm14.98,10.164-.616,1.652c-.588,1.344-.952,2.268-2.52,2.268a5.885,5.885,0,0,1-1.2-.14v1.484a4.708,4.708,0,0,0,1.344.14c2.212,0,2.772-.7,3.808-3.136l6.272-16.66H217.56l-4.452,12.32-4.76-12.32h-1.876Zm14.924-13.328c3.36,0,5.068,3.108,5.068,6.16s-1.708,6.16-5.068,6.16-5.068-3.108-5.068-6.16S223.8,89.616,227.164,89.616Zm0-1.484c-4.4,0-6.832,3.5-6.832,7.644s2.436,7.644,6.832,7.644S234,99.92,234,95.776,231.56,88.132,227.164,88.132Zm21.168.42h-1.764V96.14c0,2.94-1.316,5.8-4.34,5.8-2.8,0-3.78-1.372-3.864-3.976V88.552H236.6v9.38c0,3.388,1.4,5.488,5.068,5.488a5.374,5.374,0,0,0,4.984-3.024h.056V103h1.624Zm12.152,6.216c.308-2.632,1.848-5.152,4.76-5.152,2.828,0,4.508,2.492,4.592,5.152ZM271.6,96.252c.14-4.06-1.736-8.12-6.356-8.12-4.592,0-6.524,3.836-6.524,7.644,0,4.116,1.932,7.644,6.524,7.644,3.668,0,5.544-1.9,6.3-5.18H269.78a4.378,4.378,0,0,1-4.536,3.7c-3.36,0-4.76-3.108-4.76-5.684Zm.728,6.748h2.184l4.452-6.076L283.5,103h2.24l-5.628-7.532,5.208-6.916h-2.212l-4.032,5.488-4.116-5.488h-2.212l5.18,6.944Zm16.716-10.024c.084-2.352,1.652-3.36,3.864-3.36,2.1,0,3.78.588,3.78,2.968,0,1.568-.812,1.82-2.268,1.96-3.808.448-7.756.616-7.756,4.648,0,2.912,2.156,4.228,4.844,4.228,2.8,0,4-1.064,5.264-2.94h.056c0,1.484.28,2.52,2.072,2.52a4.993,4.993,0,0,0,1.148-.112V101.4a1.335,1.335,0,0,1-.56.112.928.928,0,0,1-1.036-1.064V92.78c0-3.892-2.772-4.648-5.32-4.648-3.332,0-5.656,1.456-5.852,4.844Zm7.644,4.424c0,2.828-2.324,4.536-5.04,4.536a2.993,2.993,0,0,1-3.22-2.856c0-2.8,3.724-2.8,6.72-3.332.476-.084,1.26-.224,1.484-.644h.056Zm17.248-4.312c-.42-3.332-2.744-4.956-5.852-4.956-4.4,0-6.832,3.5-6.832,7.644s2.436,7.644,6.832,7.644c3.248,0,5.488-2.1,5.964-5.6h-1.764a4.345,4.345,0,0,1-4.2,4.116c-3.36,0-5.068-3.108-5.068-6.16s1.708-6.16,5.068-6.16c2.324,0,3.612,1.316,4.088,3.472Zm5.376-8.876h-1.764v4.34h-2.52v1.484h2.52V99.92c-.028,2.464.784,3.248,3.136,3.248.532,0,1.036-.056,1.568-.056V101.6a13.682,13.682,0,0,1-1.512.084c-1.26-.084-1.428-.756-1.428-1.9V90.036h2.94V88.552h-2.94ZM324.828,103h1.764V83.008h-1.764Zm9.3-.056-.616,1.652c-.588,1.344-.952,2.268-2.52,2.268a5.885,5.885,0,0,1-1.2-.14v1.484a4.708,4.708,0,0,0,1.344.14c2.212,0,2.772-.7,3.808-3.136l6.272-16.66h-1.764l-4.452,12.32-4.76-12.32h-1.876Zm19.8.056h1.932l3.528-12.152h.056L362.992,103h1.932l4.648-14.448H367.7L364,100.928h-.056l-3.528-12.376h-1.988L354.9,100.928h-.056l-3.7-12.376h-1.876Zm17.528,0h1.764V94.572c.084-2.828,1.708-4.956,4.536-4.956,2.856,0,3.668,1.9,3.668,4.368V103h1.764V93.7c0-3.444-1.232-5.572-5.292-5.572a4.927,4.927,0,0,0-4.62,2.912h-.056V83.008h-1.764Zm16.66-10.024c.084-2.352,1.652-3.36,3.864-3.36,2.1,0,3.78.588,3.78,2.968,0,1.568-.812,1.82-2.268,1.96-3.808.448-7.756.616-7.756,4.648,0,2.912,2.156,4.228,4.844,4.228,2.8,0,4-1.064,5.264-2.94h.056c0,1.484.28,2.52,2.072,2.52a4.993,4.993,0,0,0,1.148-.112V101.4a1.335,1.335,0,0,1-.56.112.928.928,0,0,1-1.036-1.064V92.78c0-3.892-2.772-4.648-5.32-4.648-3.332,0-5.656,1.456-5.852,4.844Zm7.644,4.424c0,2.828-2.324,4.536-5.04,4.536a2.993,2.993,0,0,1-3.22-2.856c0-2.8,3.724-2.8,6.72-3.332.476-.084,1.26-.224,1.484-.644h.056Zm8.092-13.188H402.08v4.34h-2.52v1.484h2.52V99.92c-.028,2.464.784,3.248,3.136,3.248.532,0,1.036-.056,1.568-.056V101.6a13.682,13.682,0,0,1-1.512.084c-1.26-.084-1.428-.756-1.428-1.9V90.036h2.94V88.552h-2.94Zm17.416,18.732-.616,1.652c-.588,1.344-.952,2.268-2.52,2.268a5.885,5.885,0,0,1-1.2-.14v1.484a4.708,4.708,0,0,0,1.344.14c2.212,0,2.772-.7,3.808-3.136l6.272-16.66H426.58l-4.452,12.32-4.76-12.32h-1.876Zm14.924-13.328c3.36,0,5.068,3.108,5.068,6.16s-1.708,6.16-5.068,6.16-5.068-3.108-5.068-6.16S432.824,89.616,436.184,89.616Zm0-1.484c-4.4,0-6.832,3.5-6.832,7.644s2.436,7.644,6.832,7.644,6.832-3.5,6.832-7.644S440.58,88.132,436.184,88.132Zm21.168.42h-1.764V96.14c0,2.94-1.316,5.8-4.34,5.8-2.8,0-3.78-1.372-3.864-3.976V88.552H445.62v9.38c0,3.388,1.4,5.488,5.068,5.488a5.374,5.374,0,0,0,4.984-3.024h.056V103h1.624ZM468.44,103H470.2V94.572c.084-2.828,1.708-4.956,4.536-4.956,2.856,0,3.668,1.9,3.668,4.368V103h1.764V93.7c0-3.444-1.232-5.572-5.292-5.572a4.927,4.927,0,0,0-4.62,2.912H470.2V88.552H468.44Zm16.1-8.232c.308-2.632,1.848-5.152,4.76-5.152,2.828,0,4.508,2.492,4.592,5.152Zm11.116,1.484c.14-4.06-1.736-8.12-6.356-8.12-4.592,0-6.524,3.836-6.524,7.644,0,4.116,1.932,7.644,6.524,7.644,3.668,0,5.544-1.9,6.3-5.18h-1.764a4.378,4.378,0,0,1-4.536,3.7c-3.36,0-4.76-3.108-4.76-5.684Zm3.416-1.484c.308-2.632,1.848-5.152,4.76-5.152,2.828,0,4.508,2.492,4.592,5.152Zm11.116,1.484c.14-4.06-1.736-8.12-6.356-8.12-4.592,0-6.524,3.836-6.524,7.644,0,4.116,1.932,7.644,6.524,7.644,3.668,0,5.544-1.9,6.3-5.18h-1.764a4.378,4.378,0,0,1-4.536,3.7c-3.36,0-4.76-3.108-4.76-5.684ZM525.28,83.008h-1.764V91.3h-.056a5.154,5.154,0,0,0-5.012-3.164c-4.4,0-6.5,3.528-6.5,7.644s2.1,7.644,6.5,7.644a5.673,5.673,0,0,0,5.152-3.164h.056V103h1.624ZM513.716,95.776c0-3,1.372-6.16,4.732-6.16,3.724,0,5.068,3.164,5.068,6.16s-1.344,6.16-5.068,6.16C515.088,101.936,513.716,98.772,513.716,95.776ZM4.48,122.212H2.716v4.34H.2v1.484h2.52v9.884c-.028,2.464.784,3.248,3.136,3.248.532,0,1.036-.056,1.568-.056V139.6a13.682,13.682,0,0,1-1.512.084c-1.26-.084-1.428-.756-1.428-1.9v-9.744H7.42v-1.484H4.48Zm11.592,5.4c3.36,0,5.068,3.108,5.068,6.16s-1.708,6.16-5.068,6.16S11,136.828,11,133.776,12.712,127.616,16.072,127.616Zm0-1.484c-4.4,0-6.832,3.5-6.832,7.644s2.436,7.644,6.832,7.644,6.832-3.5,6.832-7.644S20.468,126.132,16.072,126.132ZM33.32,141h1.764v-5.488l2.856-2.38L43.652,141h2.212l-6.58-9.1,6.16-5.348H43.092l-8.008,7V121.008H33.32Zm13.972,0h1.764v-8.428c.084-2.828,1.708-4.956,4.536-4.956,2.856,0,3.668,1.9,3.668,4.368V141h1.764v-9.3c0-3.444-1.232-5.572-5.292-5.572a4.927,4.927,0,0,0-4.62,2.912h-.056v-2.492H47.292ZM68.46,127.616c3.36,0,5.068,3.108,5.068,6.16s-1.708,6.16-5.068,6.16-5.068-3.108-5.068-6.16S65.1,127.616,68.46,127.616Zm0-1.484c-4.4,0-6.832,3.5-6.832,7.644s2.436,7.644,6.832,7.644,6.832-3.5,6.832-7.644S72.856,126.132,68.46,126.132ZM81.116,141h1.932l3.528-12.152h.056L90.188,141H92.12l4.648-14.448H94.892l-3.7,12.376H91.14l-3.528-12.376H85.624L82.1,138.928H82.04l-3.7-12.376H76.468Zm26.936-10.024c.084-2.352,1.652-3.36,3.864-3.36,2.1,0,3.78.588,3.78,2.968,0,1.568-.812,1.82-2.268,1.96-3.808.448-7.756.616-7.756,4.648,0,2.912,2.156,4.228,4.844,4.228,2.8,0,4-1.064,5.264-2.94h.056c0,1.484.28,2.52,2.072,2.52a4.993,4.993,0,0,0,1.148-.112V139.4a1.335,1.335,0,0,1-.56.112.928.928,0,0,1-1.036-1.064V130.78c0-3.892-2.772-4.648-5.32-4.648-3.332,0-5.656,1.456-5.852,4.844ZM115.7,135.4c0,2.828-2.324,4.536-5.04,4.536a2.993,2.993,0,0,1-3.22-2.856c0-2.8,3.724-2.8,6.72-3.332.476-.084,1.26-.224,1.484-.644h.056Zm5.264,5.6h1.764v-8.428c.084-2.828,1.708-4.956,4.536-4.956,2.856,0,3.668,1.9,3.668,4.368V141h1.764v-9.3c0-3.444-1.232-5.572-5.292-5.572a4.927,4.927,0,0,0-4.62,2.912h-.056v-2.492H120.96Zm27.776-19.992h-1.764V129.3h-.056a5.153,5.153,0,0,0-5.012-3.164c-4.4,0-6.5,3.528-6.5,7.644s2.1,7.644,6.5,7.644a5.673,5.673,0,0,0,5.152-3.164h.056V141h1.624Zm-11.564,12.768c0-3,1.372-6.16,4.732-6.16,3.724,0,5.068,3.164,5.068,6.16s-1.344,6.16-5.068,6.16C138.544,139.936,137.172,136.772,137.172,133.776Zm25.9,7.224H165l3.528-12.152h.056L172.144,141h1.932l4.648-14.448h-1.876l-3.7,12.376H173.1l-3.528-12.376H167.58l-3.528,12.376H164l-3.7-12.376h-1.876Zm17.528,0h1.764v-8.428c.084-2.828,1.708-4.956,4.536-4.956,2.856,0,3.668,1.9,3.668,4.368V141h1.764v-9.3c0-3.444-1.232-5.572-5.292-5.572a4.927,4.927,0,0,0-4.62,2.912h-.056v-8.036H180.6Zm19.208-.056-.616,1.652c-.588,1.344-.952,2.268-2.52,2.268a5.885,5.885,0,0,1-1.2-.14v1.484a4.708,4.708,0,0,0,1.344.14c2.212,0,2.772-.7,3.808-3.136l6.272-16.66h-1.764l-4.452,12.32-4.76-12.32H194.04Zm16.632-17.108H218.2v-2.828H216.44Zm0,17.164H218.2V126.552H216.44Zm7.952-18.788h-1.764v4.34h-2.52v1.484h2.52v9.884c-.028,2.464.784,3.248,3.136,3.248.532,0,1.036-.056,1.568-.056V139.6a13.681,13.681,0,0,1-1.512.084c-1.26-.084-1.428-.756-1.428-1.9v-9.744h2.94v-1.484h-2.94Zm6.58-1.2v2.968h1.176c.084.868-.364,2.352-1.316,2.632v1.2A3.752,3.752,0,0,0,233.324,124v-3Zm14,9.772c-.14-3.136-2.38-4.648-5.292-4.648-2.548,0-5.432,1.12-5.432,4.06,0,2.436,1.736,3.276,4.032,3.864l2.268.5c1.6.392,3.164.952,3.164,2.632,0,2.016-2.268,2.744-3.948,2.744-2.352,0-4.116-1.232-4.256-3.612h-1.764c.308,3.556,2.548,5.1,5.936,5.1,2.688,0,5.8-1.2,5.8-4.34,0-2.52-2.1-3.7-4.116-4l-2.352-.532c-1.232-.308-3-.9-3-2.436,0-1.876,1.848-2.492,3.416-2.492,2.016,0,3.7.98,3.78,3.164Zm10.864-6.944H257.6v-2.828h-1.764Zm0,17.164H257.6V126.552h-1.764Zm5.152,0h1.764v-8.064c0-3.024,1.288-5.32,4.312-5.32,2.268,0,3.024,1.624,3.024,3.584V141h1.764v-8.176c0-2.688.868-5.208,3.92-5.208,2.548,0,3.416,1.288,3.416,3.668V141h1.764v-9.8c0-3.388-1.6-5.068-4.788-5.068a4.884,4.884,0,0,0-4.592,2.828,4.016,4.016,0,0,0-4.144-2.828,4.972,4.972,0,0,0-4.732,2.856h-.084v-2.436h-1.624Zm23.324,5.348h1.764v-8.092h.056a5.139,5.139,0,0,0,5.012,3.164c4.4,0,6.5-3.528,6.5-7.644s-2.1-7.644-6.5-7.644a5.338,5.338,0,0,0-5.152,3.164h-.056v-2.744h-1.624Zm11.564-12.572c0,3-1.372,6.16-4.732,6.16-3.724,0-5.068-3.164-5.068-6.16,0-3.276,1.148-6.16,5.068-6.16C294.5,127.616,295.876,130.78,295.876,133.776Zm10.612-6.16c3.36,0,5.068,3.108,5.068,6.16s-1.708,6.16-5.068,6.16-5.068-3.108-5.068-6.16S303.128,127.616,306.488,127.616Zm0-1.484c-4.4,0-6.832,3.5-6.832,7.644s2.436,7.644,6.832,7.644,6.832-3.5,6.832-7.644S310.884,126.132,306.488,126.132ZM315.952,141h1.764v-7.7a4.977,4.977,0,0,1,5.376-5.18v-1.764a5.306,5.306,0,0,0-5.46,3.584h-.056v-3.388h-1.624Zm11.62-18.788h-1.764v4.34h-2.52v1.484h2.52v9.884c-.028,2.464.784,3.248,3.136,3.248.532,0,1.036-.056,1.568-.056V139.6a13.682,13.682,0,0,1-1.512.084c-1.26-.084-1.428-.756-1.428-1.9v-9.744h2.94v-1.484h-2.94Zm7.084,8.764c.084-2.352,1.652-3.36,3.864-3.36,2.1,0,3.78.588,3.78,2.968,0,1.568-.812,1.82-2.268,1.96-3.808.448-7.756.616-7.756,4.648,0,2.912,2.156,4.228,4.844,4.228,2.8,0,4-1.064,5.264-2.94h.056c0,1.484.28,2.52,2.072,2.52a4.993,4.993,0,0,0,1.148-.112V139.4a1.335,1.335,0,0,1-.56.112.928.928,0,0,1-1.036-1.064V130.78c0-3.892-2.772-4.648-5.32-4.648-3.332,0-5.656,1.456-5.852,4.844ZM342.3,135.4c0,2.828-2.324,4.536-5.04,4.536a2.993,2.993,0,0,1-3.22-2.856c0-2.8,3.724-2.8,6.72-3.332.476-.084,1.26-.224,1.484-.644h.056Zm5.264,5.6h1.764v-8.428c.084-2.828,1.708-4.956,4.536-4.956,2.856,0,3.668,1.9,3.668,4.368V141H359.3v-9.3c0-3.444-1.232-5.572-5.292-5.572a4.927,4.927,0,0,0-4.62,2.912h-.056v-2.492h-1.764Zm17.864-18.788h-1.764v4.34h-2.52v1.484h2.52v9.884c-.028,2.464.784,3.248,3.136,3.248.532,0,1.036-.056,1.568-.056V139.6a13.682,13.682,0,0,1-1.512.084c-1.26-.084-1.428-.756-1.428-1.9v-9.744h2.94v-1.484h-2.94ZM374.3,141v-2.968h-2.352V141ZM8.848,198.912l3.864,10.248H4.844ZM-.2,217H1.848l2.408-6.216h9.1L15.792,217h2.044L10,197.008H7.868Zm19.488,0h1.764v-8.428c.084-2.828,1.708-4.956,4.536-4.956,2.856,0,3.668,1.9,3.668,4.368V217h1.764v-9.3c0-3.444-1.232-5.572-5.292-5.572a4.927,4.927,0,0,0-4.62,2.912h-.056v-2.492H19.292Zm27.776-19.992H45.3V205.3h-.056a5.153,5.153,0,0,0-5.012-3.164c-4.4,0-6.5,3.528-6.5,7.644s2.1,7.644,6.5,7.644a5.673,5.673,0,0,0,5.152-3.164h.056V217h1.624ZM35.5,209.776c0-3,1.372-6.16,4.732-6.16,3.724,0,5.068,3.164,5.068,6.16s-1.344,6.16-5.068,6.16C36.876,215.936,35.5,212.772,35.5,209.776Zm24.3-2.8c.084-2.352,1.652-3.36,3.864-3.36,2.1,0,3.78.588,3.78,2.968,0,1.568-.812,1.82-2.268,1.96-3.808.448-7.756.616-7.756,4.648,0,2.912,2.156,4.228,4.844,4.228,2.8,0,4-1.064,5.264-2.94h.056c0,1.484.28,2.52,2.072,2.52a4.993,4.993,0,0,0,1.148-.112V215.4a1.335,1.335,0,0,1-.56.112.928.928,0,0,1-1.036-1.064V206.78c0-3.892-2.772-4.648-5.32-4.648-3.332,0-5.656,1.456-5.852,4.844Zm7.644,4.424c0,2.828-2.324,4.536-5.04,4.536a2.993,2.993,0,0,1-3.22-2.856c0-2.8,3.724-2.8,6.72-3.332.476-.084,1.26-.224,1.484-.644h.056Zm13.076,10.948h1.764v-8.092h.056a5.139,5.139,0,0,0,5.012,3.164c4.4,0,6.5-3.528,6.5-7.644s-2.1-7.644-6.5-7.644a5.338,5.338,0,0,0-5.152,3.164h-.056v-2.744H80.528Zm11.564-12.572c0,3-1.372,6.16-4.732,6.16-3.724,0-5.068-3.164-5.068-6.16,0-3.276,1.148-6.16,5.068-6.16C90.72,203.616,92.092,206.78,92.092,209.776ZM96.628,217h1.764V197.008H96.628Zm6.748-10.024c.084-2.352,1.652-3.36,3.864-3.36,2.1,0,3.78.588,3.78,2.968,0,1.568-.812,1.82-2.268,1.96-3.808.448-7.756.616-7.756,4.648,0,2.912,2.156,4.228,4.844,4.228,2.8,0,4-1.064,5.264-2.94h.056c0,1.484.28,2.52,2.072,2.52a4.993,4.993,0,0,0,1.148-.112V215.4a1.335,1.335,0,0,1-.56.112.928.928,0,0,1-1.036-1.064V206.78c0-3.892-2.772-4.648-5.32-4.648-3.332,0-5.656,1.456-5.852,4.844Zm7.644,4.424c0,2.828-2.324,4.536-5.04,4.536a2.993,2.993,0,0,1-3.22-2.856c0-2.8,3.724-2.8,6.72-3.332.476-.084,1.26-.224,1.484-.644h.056Zm17.248-4.312c-.42-3.332-2.744-4.956-5.852-4.956-4.4,0-6.832,3.5-6.832,7.644s2.436,7.644,6.832,7.644c3.248,0,5.488-2.1,5.964-5.6h-1.764a4.345,4.345,0,0,1-4.2,4.116c-3.36,0-5.068-3.108-5.068-6.16s1.708-6.16,5.068-6.16c2.324,0,3.612,1.316,4.088,3.472Zm3.612,1.68c.308-2.632,1.848-5.152,4.76-5.152,2.828,0,4.508,2.492,4.592,5.152ZM143,210.252c.14-4.06-1.736-8.12-6.356-8.12-4.592,0-6.524,3.836-6.524,7.644,0,4.116,1.932,7.644,6.524,7.644,3.668,0,5.544-1.9,6.3-5.18h-1.764a4.378,4.378,0,0,1-4.536,3.7c-3.36,0-4.76-3.108-4.76-5.684ZM156.352,217h1.932l3.528-12.152h.056L165.424,217h1.932L172,202.552h-1.876l-3.7,12.376h-.056l-3.528-12.376H160.86l-3.528,12.376h-.056l-3.7-12.376H151.7Zm17.528,0h1.764v-8.428c.084-2.828,1.708-4.956,4.536-4.956,2.856,0,3.668,1.9,3.668,4.368V217h1.764v-9.3c0-3.444-1.232-5.572-5.292-5.572a4.927,4.927,0,0,0-4.62,2.912h-.056v-8.036H173.88Zm16.1-8.232c.308-2.632,1.848-5.152,4.76-5.152,2.828,0,4.508,2.492,4.592,5.152Zm11.116,1.484c.14-4.06-1.736-8.12-6.356-8.12-4.592,0-6.524,3.836-6.524,7.644,0,4.116,1.932,7.644,6.524,7.644,3.668,0,5.544-1.9,6.3-5.18h-1.764a4.378,4.378,0,0,1-4.536,3.7c-3.36,0-4.76-3.108-4.76-5.684Zm2.38,6.748h1.764v-7.7a4.977,4.977,0,0,1,5.376-5.18v-1.764a5.306,5.306,0,0,0-5.46,3.584H205.1v-3.388h-1.624Zm9.352-8.232c.308-2.632,1.848-5.152,4.76-5.152,2.828,0,4.508,2.492,4.592,5.152Zm11.116,1.484c.14-4.06-1.736-8.12-6.356-8.12-4.592,0-6.524,3.836-6.524,7.644,0,4.116,1.932,7.644,6.524,7.644,3.668,0,5.544-1.9,6.3-5.18h-1.764a4.378,4.378,0,0,1-4.536,3.7c-3.36,0-4.76-3.108-4.76-5.684ZM234.08,217h1.764v-8.428c.084-2.828,1.708-4.956,4.536-4.956,2.856,0,3.668,1.9,3.668,4.368V217h1.764v-9.3c0-3.444-1.232-5.572-5.292-5.572a4.927,4.927,0,0,0-4.62,2.912h-.056v-2.492H234.08Zm21.168-13.384c3.36,0,5.068,3.108,5.068,6.16s-1.708,6.16-5.068,6.16-5.068-3.108-5.068-6.16S251.888,203.616,255.248,203.616Zm0-1.484c-4.4,0-6.832,3.5-6.832,7.644s2.436,7.644,6.832,7.644,6.832-3.5,6.832-7.644S259.644,202.132,255.248,202.132Zm23.352,1.484c3.36,0,5.068,3.108,5.068,6.16s-1.708,6.16-5.068,6.16-5.068-3.108-5.068-6.16S275.24,203.616,278.6,203.616Zm0-1.484c-4.4,0-6.832,3.5-6.832,7.644s2.436,7.644,6.832,7.644,6.832-3.5,6.832-7.644S283,202.132,278.6,202.132ZM288.036,217H289.8v-8.428c.084-2.828,1.708-4.956,4.536-4.956,2.856,0,3.668,1.9,3.668,4.368V217h1.764v-9.3c0-3.444-1.232-5.572-5.292-5.572a4.927,4.927,0,0,0-4.62,2.912H289.8v-2.492h-1.764Zm16.1-8.232c.308-2.632,1.848-5.152,4.76-5.152,2.828,0,4.508,2.492,4.592,5.152Zm11.116,1.484c.14-4.06-1.736-8.12-6.356-8.12-4.592,0-6.524,3.836-6.524,7.644,0,4.116,1.932,7.644,6.524,7.644,3.668,0,5.544-1.9,6.3-5.18h-1.764a4.378,4.378,0,0,1-4.536,3.7c-3.36,0-4.76-3.108-4.76-5.684Zm10.192-10.416h1.764v-2.828h-1.764Zm0,17.164h1.764V202.552h-1.764Zm15.568-10.22c-.14-3.136-2.38-4.648-5.292-4.648-2.548,0-5.432,1.12-5.432,4.06,0,2.436,1.736,3.276,4.032,3.864l2.268.5c1.6.392,3.164.952,3.164,2.632,0,2.016-2.268,2.744-3.948,2.744-2.352,0-4.116-1.232-4.256-3.612h-1.764c.308,3.556,2.548,5.1,5.936,5.1,2.688,0,5.8-1.2,5.8-4.34,0-2.52-2.1-3.7-4.116-4l-2.352-.532c-1.232-.308-3-.9-3-2.436,0-1.876,1.848-2.492,3.416-2.492,2.016,0,3.7.98,3.78,3.164Zm10.836,15.568h1.764v-8.092h.056a5.139,5.139,0,0,0,5.012,3.164c4.4,0,6.5-3.528,6.5-7.644s-2.1-7.644-6.5-7.644a5.338,5.338,0,0,0-5.152,3.164h-.056v-2.744h-1.624Zm11.564-12.572c0,3-1.372,6.16-4.732,6.16-3.724,0-5.068-3.164-5.068-6.16,0-3.276,1.148-6.16,5.068-6.16C362.04,203.616,363.412,206.78,363.412,209.776Zm16.212-7.224H377.86v7.588c0,2.94-1.316,5.8-4.34,5.8-2.8,0-3.78-1.372-3.864-3.976v-9.408h-1.764v9.38c0,3.388,1.4,5.488,5.068,5.488a5.374,5.374,0,0,0,4.984-3.024H378V217h1.624Zm13.748,4.228c-.14-3.136-2.38-4.648-5.292-4.648-2.548,0-5.432,1.12-5.432,4.06,0,2.436,1.736,3.276,4.032,3.864l2.268.5c1.6.392,3.164.952,3.164,2.632,0,2.016-2.268,2.744-3.948,2.744-2.352,0-4.116-1.232-4.256-3.612h-1.764c.308,3.556,2.548,5.1,5.936,5.1,2.688,0,5.8-1.2,5.8-4.34,0-2.52-2.1-3.7-4.116-4l-2.352-.532c-1.232-.308-3-.9-3-2.436,0-1.876,1.848-2.492,3.416-2.492,2.016,0,3.7.98,3.78,3.164ZM396.4,217h1.764v-8.428c.084-2.828,1.708-4.956,4.536-4.956,2.856,0,3.668,1.9,3.668,4.368V217h1.764v-9.3c0-3.444-1.232-5.572-5.292-5.572a4.927,4.927,0,0,0-4.62,2.912h-.056v-8.036H396.4Zm15.092-17.164h1.764v-2.828h-1.764Zm0,17.164h1.764V202.552h-1.764Zm5.124,0h1.764v-8.428c.084-2.828,1.708-4.956,4.536-4.956,2.856,0,3.668,1.9,3.668,4.368V217h1.764v-9.3c0-3.444-1.232-5.572-5.292-5.572a4.927,4.927,0,0,0-4.62,2.912h-.056v-2.492h-1.764Zm27.272-14.448H442.12v2.492h-.056a5.052,5.052,0,0,0-4.592-2.912c-4.172,0-6.524,3.3-6.524,7.28,0,4.144,1.9,7.42,6.524,7.42a4.933,4.933,0,0,0,4.592-2.968h.056v1.96c0,3.556-1.372,5.46-4.648,5.46-1.932,0-3.864-.756-4.228-2.884H431.48c.224,3.052,3.108,4.368,5.992,4.368,4.676,0,6.412-2.6,6.412-6.944Zm-6.412,12.8c-3.276,0-4.76-2.828-4.76-5.74,0-3,1.4-5.992,4.76-5.992s4.648,3.164,4.648,5.992C442.12,212.52,440.524,215.348,437.472,215.348Zm20.356-17.136h-1.764v4.34h-2.52v1.484h2.52v9.884c-.028,2.464.784,3.248,3.136,3.248.532,0,1.036-.056,1.568-.056V215.6a13.682,13.682,0,0,1-1.512.084c-1.26-.084-1.428-.756-1.428-1.9v-9.744h2.94v-1.484h-2.94ZM463.288,217h1.764v-8.428c.084-2.828,1.708-4.956,4.536-4.956,2.856,0,3.668,1.9,3.668,4.368V217h1.764v-9.3c0-3.444-1.232-5.572-5.292-5.572a4.927,4.927,0,0,0-4.62,2.912h-.056v-8.036h-1.764Zm16.1-8.232c.308-2.632,1.848-5.152,4.76-5.152,2.828,0,4.508,2.492,4.592,5.152Zm11.116,1.484c.14-4.06-1.736-8.12-6.356-8.12-4.592,0-6.524,3.836-6.524,7.644,0,4.116,1.932,7.644,6.524,7.644,3.668,0,5.544-1.9,6.3-5.18h-1.764a4.378,4.378,0,0,1-4.536,3.7c-3.36,0-4.76-3.108-4.76-5.684Zm2.408-10.416h1.764v-2.828h-1.764Zm0,17.164h1.764V202.552h-1.764Zm5.152,0h1.764v-7.7a4.977,4.977,0,0,1,5.376-5.18v-1.764a5.306,5.306,0,0,0-5.46,3.584h-.056v-3.388h-1.624ZM3.276,244.976c.084-2.352,1.652-3.36,3.864-3.36,2.1,0,3.78.588,3.78,2.968,0,1.568-.812,1.82-2.268,1.96C4.844,246.992.9,247.16.9,251.192c0,2.912,2.156,4.228,4.844,4.228,2.8,0,4-1.064,5.264-2.94h.056c0,1.484.28,2.52,2.072,2.52a4.993,4.993,0,0,0,1.148-.112V253.4a1.335,1.335,0,0,1-.56.112.928.928,0,0,1-1.036-1.064V244.78c0-3.892-2.772-4.648-5.32-4.648-3.332,0-5.656,1.456-5.852,4.844ZM10.92,249.4c0,2.828-2.324,4.536-5.04,4.536a2.993,2.993,0,0,1-3.22-2.856c0-2.8,3.724-2.8,6.72-3.332.476-.084,1.26-.224,1.484-.644h.056Zm17.5-8.848H26.656v2.492H26.6a5.052,5.052,0,0,0-4.592-2.912c-4.172,0-6.524,3.3-6.524,7.28,0,4.144,1.9,7.42,6.524,7.42a4.933,4.933,0,0,0,4.592-2.968h.056v1.96c0,3.556-1.372,5.46-4.648,5.46-1.932,0-3.864-.756-4.228-2.884H16.016c.224,3.052,3.108,4.368,5.992,4.368,4.676,0,6.412-2.6,6.412-6.944Zm-6.412,12.8c-3.276,0-4.76-2.828-4.76-5.74,0-3,1.4-5.992,4.76-5.992s4.648,3.164,4.648,5.992C26.656,250.52,25.06,253.348,22.008,253.348Zm10.808-6.58c.308-2.632,1.848-5.152,4.76-5.152,2.828,0,4.508,2.492,4.592,5.152Zm11.116,1.484c.14-4.06-1.736-8.12-6.356-8.12-4.592,0-6.524,3.836-6.524,7.644,0,4.116,1.932,7.644,6.524,7.644,3.668,0,5.544-1.9,6.3-5.18H42.112a4.378,4.378,0,0,1-4.536,3.7c-3.36,0-4.76-3.108-4.76-5.684ZM46.284,255h1.764v-8.428c.084-2.828,1.708-4.956,4.536-4.956,2.856,0,3.668,1.9,3.668,4.368V255h1.764v-9.3c0-3.444-1.232-5.572-5.292-5.572a4.927,4.927,0,0,0-4.62,2.912h-.056v-2.492H46.284ZM74.06,235.008H72.3V243.3H72.24a5.153,5.153,0,0,0-5.012-3.164c-4.4,0-6.5,3.528-6.5,7.644s2.1,7.644,6.5,7.644a5.673,5.673,0,0,0,5.152-3.164h.056V255H74.06ZM62.5,247.776c0-3,1.372-6.16,4.732-6.16,3.724,0,5.068,3.164,5.068,6.16s-1.344,6.16-5.068,6.16C63.868,253.936,62.5,250.772,62.5,247.776Zm16.52-2.8c.084-2.352,1.652-3.36,3.864-3.36,2.1,0,3.78.588,3.78,2.968,0,1.568-.812,1.82-2.268,1.96-3.808.448-7.756.616-7.756,4.648,0,2.912,2.156,4.228,4.844,4.228,2.8,0,4-1.064,5.264-2.94H86.8c0,1.484.28,2.52,2.072,2.52a4.993,4.993,0,0,0,1.148-.112V253.4a1.335,1.335,0,0,1-.56.112.928.928,0,0,1-1.036-1.064V244.78c0-3.892-2.772-4.648-5.32-4.648-3.332,0-5.656,1.456-5.852,4.844ZM86.66,249.4c0,2.828-2.324,4.536-5.04,4.536a2.993,2.993,0,0,1-3.22-2.856c0-2.8,3.724-2.8,6.72-3.332.476-.084,1.26-.224,1.484-.644h.056Zm8.68,5.6v-2.968H92.988V255Z" transform="translate(654 451)"/>
    <path id="Path_316" data-name="Path 316" d="M2.924-19.618a2.451,2.451,0,0,0-.748-1.343A2.88,2.88,0,0,0,.51-21.318V-22.44H9.044v1.122H7.514a1.229,1.229,0,0,0-.629.119.464.464,0,0,0-.187.425,2.79,2.79,0,0,0,.1.612l3.978,15.5h.136l4.318-17.306h2.686l4.658,17.34h.17l3.706-15.1a7.871,7.871,0,0,0,.2-1.054.472.472,0,0,0-.187-.408,1.18,1.18,0,0,0-.663-.136H23.868V-22.44h7.14v1.122A2.811,2.811,0,0,0,29-20.723a4.793,4.793,0,0,0-1.02,2.227l-5,18.5H19.958L15.5-16.252h-.136L11.152,0H8.126ZM44.914-7.786h-10.2a8.6,8.6,0,0,0,1.122,4.454A3.819,3.819,0,0,0,39.27-1.8a4.675,4.675,0,0,0,2.754-.765,5.168,5.168,0,0,0,1.734-2.3l1.054.612a8.278,8.278,0,0,1-2.38,3.332A7.108,7.108,0,0,1,37.842.34q-7.31,0-7.31-8.262,0-4.182,1.853-6.29a6.836,6.836,0,0,1,5.423-2.108q3.74,0,5.423,2.176a9.435,9.435,0,0,1,1.683,5.916Zm-4.148-1.36a13.1,13.1,0,0,0-.544-4.42,2.192,2.192,0,0,0-2.278-1.394,2.576,2.576,0,0,0-2.431,1.394,10.1,10.1,0,0,0-.833,4.42Zm6.6,8.024a5.119,5.119,0,0,0,1.479-.153.891.891,0,0,0,.6-.493,3.029,3.029,0,0,0,.136-1.054v-17.1a2.669,2.669,0,0,0-.2-1.275.854.854,0,0,0-.782-.323h-1.02v-1.156l5-.782h.952V-2.822a2.856,2.856,0,0,0,.153,1.071.891.891,0,0,0,.612.493,5.368,5.368,0,0,0,1.411.136V0h-8.33ZM65.246.34a7.258,7.258,0,0,1-5.525-2.023Q57.8-3.706,57.8-7.82q0-4.25,2.006-6.375a7.568,7.568,0,0,1,5.78-2.125,8.737,8.737,0,0,1,3.5.612,4.569,4.569,0,0,1,2.04,1.581,3.7,3.7,0,0,1,.646,2.091,2.284,2.284,0,0,1-.527,1.6A1.858,1.858,0,0,1,69.8-9.86a1.807,1.807,0,0,1-1.411-.544A2,2,0,0,1,67.9-11.8a2.073,2.073,0,0,1,.153-.85q.153-.34.187-.408a1.438,1.438,0,0,0,.238-.68,1,1,0,0,0-.612-.884,3.705,3.705,0,0,0-1.768-.34,3.638,3.638,0,0,0-3.06,1.36q-1.054,1.36-1.054,4.93a9.584,9.584,0,0,0,1.122,5.2,3.863,3.863,0,0,0,3.468,1.7,4.188,4.188,0,0,0,2.907-.884A7.586,7.586,0,0,0,71.128-4.9l.85.51A7.268,7.268,0,0,1,69.649-.867,7.02,7.02,0,0,1,65.246.34Zm17.2,0q-4.08,0-6-2.006t-1.921-6.29q0-4.284,1.938-6.341t6.052-2.057q4.046,0,5.95,2.023t1.9,6.307q0,4.318-1.921,6.341T82.45.34Zm0-1.36a3,3,0,0,0,2.856-1.666A11.4,11.4,0,0,0,86.19-7.82a12.176,12.176,0,0,0-.918-5.44,3.026,3.026,0,0,0-2.856-1.734,3,3,0,0,0-2.839,1.683,11.823,11.823,0,0,0-.9,5.321,11.708,11.708,0,0,0,.9,5.3A3.034,3.034,0,0,0,82.45-1.02Zm37.094-1.8a2.837,2.837,0,0,0,.153,1.088.893.893,0,0,0,.595.476,5.521,5.521,0,0,0,1.462.136V0H113.7V-1.122a6.672,6.672,0,0,0,1.292-.085.684.684,0,0,0,.51-.391,2.86,2.86,0,0,0,.136-1.054v-8.16a3.54,3.54,0,0,0-.765-2.448,2.755,2.755,0,0,0-2.159-.85,3.625,3.625,0,0,0-1.785.442,5.274,5.274,0,0,0-1.547,1.394v9.452a3.184,3.184,0,0,0,.136,1.071.82.82,0,0,0,.544.493,4.282,4.282,0,0,0,1.258.136V0H103.5V-1.122a6.672,6.672,0,0,0,1.292-.085.734.734,0,0,0,.527-.391,2.568,2.568,0,0,0,.153-1.054v-8.16a3.54,3.54,0,0,0-.765-2.448,2.842,2.842,0,0,0-2.227-.85,4.154,4.154,0,0,0-3.264,1.53v9.928A2.568,2.568,0,0,0,99.365-1.6a.734.734,0,0,0,.527.391,6.174,6.174,0,0,0,1.224.085V0H93.058V-1.122a5.521,5.521,0,0,0,1.462-.136.837.837,0,0,0,.578-.476,3.163,3.163,0,0,0,.136-1.088v-9.826a2.568,2.568,0,0,0-.2-1.241.815.815,0,0,0-.748-.323h-1.02v-1.156l4.9-.782h.952v2.108a10.635,10.635,0,0,1,2.822-1.683,7.726,7.726,0,0,1,2.856-.595,4.874,4.874,0,0,1,2.737.748,4,4,0,0,1,1.581,1.836,8.22,8.22,0,0,1,2.7-1.87,7.894,7.894,0,0,1,3.213-.714,4.274,4.274,0,0,1,3.332,1.309,5.289,5.289,0,0,1,1.19,3.689Zm18.5-4.964h-10.2a8.6,8.6,0,0,0,1.122,4.454A3.819,3.819,0,0,0,132.4-1.8a4.675,4.675,0,0,0,2.754-.765,5.168,5.168,0,0,0,1.734-2.3l1.054.612a8.278,8.278,0,0,1-2.38,3.332A7.108,7.108,0,0,1,130.968.34q-7.31,0-7.31-8.262,0-4.182,1.853-6.29a6.836,6.836,0,0,1,5.423-2.108q3.74,0,5.423,2.176a9.435,9.435,0,0,1,1.683,5.916Zm-4.148-1.36a13.1,13.1,0,0,0-.544-4.42,2.192,2.192,0,0,0-2.278-1.394,2.576,2.576,0,0,0-2.431,1.394,10.1,10.1,0,0,0-.833,4.42ZM153.85.374a3.99,3.99,0,0,1-2.924-1.037A3.94,3.94,0,0,1,149.872-3.6V-14.62h-2.006v-1.122a5.561,5.561,0,0,0,2.822-1.887,10.065,10.065,0,0,0,1.666-3.689h1.428v5.338h3.638v1.36h-3.638v9.826a3.7,3.7,0,0,0,.578,2.278,2.134,2.134,0,0,0,1.8.748,4.217,4.217,0,0,0,1.7-.34l.374.85a17.059,17.059,0,0,1-2.159,1.224A5.392,5.392,0,0,1,153.85.374ZM167.756.34q-4.08,0-6-2.006t-1.921-6.29q0-4.284,1.938-6.341t6.052-2.057q4.046,0,5.95,2.023t1.9,6.307q0,4.318-1.921,6.341T167.756.34Zm0-1.36a3,3,0,0,0,2.856-1.666A11.4,11.4,0,0,0,171.5-7.82a12.176,12.176,0,0,0-.918-5.44,3.026,3.026,0,0,0-2.856-1.734,3,3,0,0,0-2.839,1.683,11.823,11.823,0,0,0-.9,5.321,11.708,11.708,0,0,0,.9,5.3A3.034,3.034,0,0,0,167.756-1.02Zm20.434-18.6a4.27,4.27,0,0,0-.476-1.054,1.335,1.335,0,0,0-.714-.493,4.669,4.669,0,0,0-1.36-.153V-22.44h8.908v1.122h-1.5q-.816,0-.816.612a1.747,1.747,0,0,0,.1.544l5.236,15.844h.17l4.964-15.4a3.262,3.262,0,0,0,.2-.952.576.576,0,0,0-.2-.493,1.085,1.085,0,0,0-.646-.153H200.43V-22.44h7.038v1.122a3.262,3.262,0,0,0-1.8.408,2.808,2.808,0,0,0-.986,1.428L197.778,0H194.82ZM214.166.34q-4.08,0-6-2.006t-1.921-6.29q0-4.284,1.938-6.341t6.052-2.057q4.046,0,5.95,2.023t1.9,6.307q0,4.318-1.921,6.341T214.166.34Zm0-1.36a3,3,0,0,0,2.856-1.666,11.4,11.4,0,0,0,.884-5.134,12.176,12.176,0,0,0-.918-5.44,3.026,3.026,0,0,0-2.856-1.734,3,3,0,0,0-2.839,1.683,11.823,11.823,0,0,0-.9,5.321,11.708,11.708,0,0,0,.9,5.3A3.034,3.034,0,0,0,214.166-1.02Zm9.622-.1a5.119,5.119,0,0,0,1.479-.153.891.891,0,0,0,.6-.493A3.029,3.029,0,0,0,226-2.822v-17.1a2.669,2.669,0,0,0-.2-1.275.854.854,0,0,0-.782-.323h-1.02v-1.156l5-.782h.952V-2.822a2.856,2.856,0,0,0,.153,1.071.891.891,0,0,0,.612.493,5.368,5.368,0,0,0,1.411.136V0h-8.33ZM235.178-13.6a2.008,2.008,0,0,0-.731-1,3.077,3.077,0,0,0-1.479-.255V-15.98h7.82v1.122H239.6q-.646,0-.646.51a1.86,1.86,0,0,0,.068.408L242.9-3.774h.1l3.57-10.1a2.985,2.985,0,0,0,.068-.442q0-.544-.68-.544H244.63V-15.98h6.188v1.122a2.73,2.73,0,0,0-1.5.306,2.3,2.3,0,0,0-.748,1.088L243.032,0h-2.516Z" transform="translate(654 409)"/>
  </g>
</svg>
