<svg xmlns="http://www.w3.org/2000/svg" xmlns:xlink="http://www.w3.org/1999/xlink" width="388.038" height="415.667" viewBox="0 0 388.038 415.667">
  <defs>
    <filter id="Path_250" x="0" y="0" width="388.038" height="415.667" filterUnits="userSpaceOnUse">
      <feOffset dy="25" input="SourceAlpha"/>
      <feGaussianBlur stdDeviation="15" result="blur"/>
      <feFlood flood-opacity="0.2"/>
      <feComposite operator="in" in2="blur"/>
      <feComposite in="SourceGraphic"/>
    </filter>
    <linearGradient id="linear-gradient" x1="0.5" x2="0.5" y2="1" gradientUnits="objectBoundingBox">
      <stop offset="0" stop-color="#ecebec"/>
      <stop offset="1" stop-color="#d4d3d4"/>
    </linearGradient>
  </defs>
  <g id="Group_979" data-name="Group 979" transform="translate(-7864 11757)">
    <g transform="matrix(1, 0, 0, 1, 7864, -11757)" filter="url(#Path_250)">
      <g id="Path_250-2" data-name="Path 250" transform="translate(46 21)" fill="#fff">
        <path d="M2.5,0H293.535c1.383,0,2.5,1.762,2.5,3.935v315.8c0,2.173-1.121,3.935-2.5,3.935H2.5c-1.383,0-2.5-1.762-2.5-3.935V3.935C0,1.762,1.121,0,2.5,0Z" stroke="none"/>
        <path d="M 2.503448486328125 0 C 1.120849609375 0 0 1.7618408203125 0 3.935150146484375 L 0 319.731689453125 C 0 321.9051513671875 1.120849609375 323.6669921875 2.503448486328125 323.6669921875 L 293.53466796875 323.6669921875 C 294.9173278808594 323.6669921875 296.0381774902344 321.9051513671875 296.0381774902344 319.731689453125 L 296.0381774902344 3.935150146484375 C 296.0381774902344 1.7618408203125 294.9173278808594 0 293.53466796875 0 L 2.503448486328125 0 M 2.503448486328125 -1 L 293.53466796875 -1 C 295.499267578125 -1 297.0381774902344 1.16778564453125 297.0381774902344 3.935150146484375 L 297.0381774902344 319.731689453125 C 297.0381774902344 322.4991760253906 295.499267578125 324.6669921875 293.53466796875 324.6669921875 L 2.503448486328125 324.6669921875 C 0.538909912109375 324.6669921875 -1 322.4991760253906 -1 319.731689453125 L -1 3.935150146484375 C -1 1.16778564453125 0.538909912109375 -1 2.503448486328125 -1 Z" stroke="none" fill="rgba(0,0,0,0.1)"/>
      </g>
    </g>
    <g id="Title_bar" data-name="Title bar" transform="translate(7910.264 -11736.072)">
      <path id="Rectangle_210" data-name="Rectangle 210" d="M4,0H293a4,4,0,0,1,4,4V14a0,0,0,0,1,0,0H0a0,0,0,0,1,0,0V4A4,4,0,0,1,4,0Z" fill="url(#linear-gradient)"/>
      <g id="Path_46" data-name="Path 46" transform="translate(-19.634 197.866)" fill="#ff6157">
        <path d="M26.722-187.556a3.222,3.222,0,0,0,3.222-3.222A3.222,3.222,0,0,0,26.722-194a3.222,3.222,0,0,0-3.222,3.222A3.222,3.222,0,0,0,26.722-187.556Z" stroke="none"/>
        <path d="M 26.72187995910645 -188.0562438964844 C 28.22273063659668 -188.0562438964844 29.44375991821289 -189.2772674560547 29.44375991821289 -190.7781219482422 C 29.44375991821289 -192.2789764404297 28.22273063659668 -193.5 26.72187995910645 -193.5 C 25.22102928161621 -193.5 24 -192.2789764404297 24 -190.7781219482422 C 24 -189.2772674560547 25.22102928161621 -188.0562438964844 26.72187995910645 -188.0562438964844 M 26.72187995910645 -187.5562438964844 C 24.94248962402344 -187.5562438964844 23.5 -188.9987487792969 23.5 -190.7781219482422 C 23.5 -192.5574951171875 24.94248962402344 -194 26.72187995910645 -194 C 28.50127029418945 -194 29.94375991821289 -192.5574951171875 29.94375991821289 -190.7781219482422 C 29.94375991821289 -188.9987487792969 28.50127029418945 -187.5562438964844 26.72187995910645 -187.5562438964844 Z" stroke="none" fill="rgba(0,0,0,0.15)"/>
      </g>
      <g id="Path_47" data-name="Path 47" transform="translate(-9.324 197.866)" fill="#ffc12f">
        <path d="M26.722-187.556a3.222,3.222,0,0,0,3.222-3.222A3.222,3.222,0,0,0,26.722-194a3.222,3.222,0,0,0-3.222,3.222A3.222,3.222,0,0,0,26.722-187.556Z" stroke="none"/>
        <path d="M 26.72187995910645 -188.0562438964844 C 28.22273063659668 -188.0562438964844 29.44375991821289 -189.2772674560547 29.44375991821289 -190.7781219482422 C 29.44375991821289 -192.2789764404297 28.22273063659668 -193.5 26.72187995910645 -193.5 C 25.22102928161621 -193.5 24 -192.2789764404297 24 -190.7781219482422 C 24 -189.2772674560547 25.22102928161621 -188.0562438964844 26.72187995910645 -188.0562438964844 M 26.72187995910645 -187.5562438964844 C 24.94248962402344 -187.5562438964844 23.5 -188.9987487792969 23.5 -190.7781219482422 C 23.5 -192.5574951171875 24.94248962402344 -194 26.72187995910645 -194 C 28.50127029418945 -194 29.94375991821289 -192.5574951171875 29.94375991821289 -190.7781219482422 C 29.94375991821289 -188.9987487792969 28.50127029418945 -187.5562438964844 26.72187995910645 -187.5562438964844 Z" stroke="none" fill="rgba(0,0,0,0.15)"/>
      </g>
      <g id="Path_48" data-name="Path 48" transform="translate(0.986 197.866)" fill="#2acb42">
        <path d="M26.722-187.556a3.222,3.222,0,0,0,3.222-3.222A3.222,3.222,0,0,0,26.722-194a3.222,3.222,0,0,0-3.222,3.222A3.222,3.222,0,0,0,26.722-187.556Z" stroke="none"/>
        <path d="M 26.72187995910645 -188.0562438964844 C 28.22273063659668 -188.0562438964844 29.44375991821289 -189.2772674560547 29.44375991821289 -190.7781219482422 C 29.44375991821289 -192.2789764404297 28.22273063659668 -193.5 26.72187995910645 -193.5 C 25.22102928161621 -193.5 24 -192.2789764404297 24 -190.7781219482422 C 24 -189.2772674560547 25.22102928161621 -188.0562438964844 26.72187995910645 -188.0562438964844 M 26.72187995910645 -187.5562438964844 C 24.94248962402344 -187.5562438964844 23.5 -188.9987487792969 23.5 -190.7781219482422 C 23.5 -192.5574951171875 24.94248962402344 -194 26.72187995910645 -194 C 28.50127029418945 -194 29.94375991821289 -192.5574951171875 29.94375991821289 -190.7781219482422 C 29.94375991821289 -188.9987487792969 28.50127029418945 -187.5562438964844 26.72187995910645 -187.5562438964844 Z" stroke="none" fill="rgba(0,0,0,0.15)"/>
      </g>
      <text id="Welcome_to_Volv.txt" transform="translate(141.906 9.383)" fill="rgba(0,0,0,0.76)" font-size="6" font-family="SFProText-Medium, SF Pro Text" font-weight="500" letter-spacing="-0.013em"><tspan x="-28.612" y="0">Welcome_to_Volv.txt</tspan></text>
      <rect id="Rectangle_241" data-name="Rectangle 241" width="297" transform="translate(0 14)" opacity="0.06"/>
    </g>
    <path id="Path_327" data-name="Path 327" d="M2.772,14H3.808l2.52-8.946h.028L8.89,14H9.9L12.656,4H11.7l-2.282,8.75H9.394L6.944,4H5.754l-2.436,8.75H3.29L1.022,4H0ZM13.8,9.884c.154-1.316.924-2.576,2.38-2.576a2.437,2.437,0,0,1,2.3,2.576Zm5.558.742c.07-2.03-.868-4.06-3.178-4.06s-3.262,1.918-3.262,3.822c0,2.058.966,3.822,3.262,3.822a2.942,2.942,0,0,0,3.15-2.59h-.882a2.189,2.189,0,0,1-2.268,1.848c-1.68,0-2.38-1.554-2.38-2.842ZM24.444,14h.882V10.15a2.488,2.488,0,0,1,2.688-2.59V6.678a2.653,2.653,0,0,0-2.73,1.792h-.028V6.776h-.812ZM29.12,9.884c.154-1.316.924-2.576,2.38-2.576a2.437,2.437,0,0,1,2.3,2.576Zm5.558.742c.07-2.03-.868-4.06-3.178-4.06s-3.262,1.918-3.262,3.822c0,2.058.966,3.822,3.262,3.822a2.942,2.942,0,0,0,3.15-2.59h-.882A2.189,2.189,0,0,1,31.5,13.468c-1.68,0-2.38-1.554-2.38-2.842Zm1.2-5.208h.882V4h-.882Zm0,8.582h.882V6.776h-.882Zm2.576,0h.882V9.968c0-1.512.644-2.66,2.156-2.66,1.134,0,1.512.812,1.512,1.792V14h.882V9.912c0-1.344.434-2.6,1.96-2.6,1.274,0,1.708.644,1.708,1.834V14h.882V9.1c0-1.694-.8-2.534-2.394-2.534a2.442,2.442,0,0,0-2.3,1.414,2.008,2.008,0,0,0-2.072-1.414,2.486,2.486,0,0,0-2.366,1.428H39.27V6.776h-.812Zm12.46-5.012c.042-1.176.826-1.68,1.932-1.68,1.05,0,1.89.294,1.89,1.484,0,.784-.406.91-1.134.98-1.9.224-3.878.308-3.878,2.324,0,1.456,1.078,2.114,2.422,2.114a2.754,2.754,0,0,0,2.632-1.47h.028c0,.742.14,1.26,1.036,1.26a2.5,2.5,0,0,0,.574-.056V13.2a.667.667,0,0,1-.28.056.464.464,0,0,1-.518-.532V8.89c0-1.946-1.386-2.324-2.66-2.324-1.666,0-2.828.728-2.926,2.422ZM54.74,11.2a2.322,2.322,0,0,1-2.52,2.268,1.5,1.5,0,0,1-1.61-1.428c0-1.4,1.862-1.4,3.36-1.666.238-.042.63-.112.742-.322h.028Zm8.75-4.424h-.882V8.022H62.58a2.526,2.526,0,0,0-2.3-1.456c-2.086,0-3.262,1.652-3.262,3.64,0,2.072.952,3.71,3.262,3.71a2.467,2.467,0,0,0,2.3-1.484h.028v.98c0,1.778-.686,2.73-2.324,2.73A1.9,1.9,0,0,1,58.17,14.7h-.882c.112,1.526,1.554,2.184,3,2.184,2.338,0,3.206-1.3,3.206-3.472Zm-3.206,6.4c-1.638,0-2.38-1.414-2.38-2.87,0-1.5.7-3,2.38-3s2.324,1.582,2.324,3C62.608,11.76,61.81,13.174,60.284,13.174Zm4.9-7.756h.882V4h-.882Zm0,8.582h.882V6.776h-.882Zm2.562,0h.882V9.786A2.28,2.28,0,0,1,70.9,7.308c1.428,0,1.834.952,1.834,2.184V14h.882V9.352c0-1.722-.616-2.786-2.646-2.786a2.464,2.464,0,0,0-2.31,1.456h-.028V6.776h-.882ZM75.8,9.884c.154-1.316.924-2.576,2.38-2.576a2.437,2.437,0,0,1,2.3,2.576Zm5.558.742c.07-2.03-.868-4.06-3.178-4.06s-3.262,1.918-3.262,3.822c0,2.058.966,3.822,3.262,3.822a2.942,2.942,0,0,0,3.15-2.59h-.882a2.189,2.189,0,0,1-2.268,1.848c-1.68,0-2.38-1.554-2.38-2.842ZM88.9,4h-.882V8.148H87.99a2.577,2.577,0,0,0-2.506-1.582c-2.2,0-3.248,1.764-3.248,3.822s1.05,3.822,3.248,3.822a2.837,2.837,0,0,0,2.576-1.582h.028V14H88.9Zm-5.782,6.384c0-1.5.686-3.08,2.366-3.08,1.862,0,2.534,1.582,2.534,3.08s-.672,3.08-2.534,3.08C83.8,13.468,83.118,11.886,83.118,10.388ZM95.872,4.606H94.99v2.17H93.73v.742h1.26V12.46c-.014,1.232.392,1.624,1.568,1.624.266,0,.518-.028.784-.028V13.3a6.841,6.841,0,0,1-.756.042c-.63-.042-.714-.378-.714-.952V7.518h1.47V6.776h-1.47ZM98.6,14h.882V9.786a2.28,2.28,0,0,1,2.268-2.478c1.428,0,1.834.952,1.834,2.184V14h.882V9.352c0-1.722-.616-2.786-2.646-2.786a2.464,2.464,0,0,0-2.31,1.456h-.028V4H98.6Zm8.05-4.116c.154-1.316.924-2.576,2.38-2.576a2.437,2.437,0,0,1,2.3,2.576Zm5.558.742c.07-2.03-.868-4.06-3.178-4.06s-3.262,1.918-3.262,3.822c0,2.058.966,3.822,3.262,3.822a2.942,2.942,0,0,0,3.15-2.59H111.3a2.189,2.189,0,0,1-2.268,1.848c-1.68,0-2.38-1.554-2.38-2.842ZM117.278,14h.882V9.786a2.28,2.28,0,0,1,2.268-2.478c1.428,0,1.834.952,1.834,2.184V14h.882V9.352c0-1.722-.616-2.786-2.646-2.786a2.464,2.464,0,0,0-2.31,1.456h-.028V6.776h-.882Zm8.05-4.116c.154-1.316.924-2.576,2.38-2.576A2.437,2.437,0,0,1,130,9.884Zm5.558.742c.07-2.03-.868-4.06-3.178-4.06s-3.262,1.918-3.262,3.822c0,2.058.966,3.822,3.262,3.822a2.942,2.942,0,0,0,3.15-2.59h-.882a2.189,2.189,0,0,1-2.268,1.848c-1.68,0-2.38-1.554-2.38-2.842ZM133.672,14h.966L136.4,7.924h.028L138.208,14h.966L141.5,6.776h-.938l-1.848,6.188h-.028L136.92,6.776h-.994l-1.764,6.188h-.028l-1.848-6.188h-.938Zm13.986-5.11a2.368,2.368,0,0,0-2.646-2.324c-1.274,0-2.716.56-2.716,2.03,0,1.218.868,1.638,2.016,1.932l1.134.252c.8.2,1.582.476,1.582,1.316,0,1.008-1.134,1.372-1.974,1.372a1.9,1.9,0,0,1-2.128-1.806h-.882c.154,1.778,1.274,2.548,2.968,2.548,1.344,0,2.9-.6,2.9-2.17a2.117,2.117,0,0,0-2.058-2l-1.176-.266c-.616-.154-1.5-.448-1.5-1.218,0-.938.924-1.246,1.708-1.246a1.663,1.663,0,0,1,1.89,1.582Zm3.22,5.11V12.516H149.7V14ZM4.424,40.956,6.356,46.08H2.422ZM-.1,50H.924l1.2-3.108h4.55L7.9,50H8.918L5,40H3.934Zm13.65,2.674h.882V48.628h.028a2.57,2.57,0,0,0,2.506,1.582c2.2,0,3.248-1.764,3.248-3.822s-1.05-3.822-3.248-3.822a2.669,2.669,0,0,0-2.576,1.582h-.028V42.776h-.812Zm5.782-6.286c0,1.5-.686,3.08-2.366,3.08-1.862,0-2.534-1.582-2.534-3.08,0-1.638.574-3.08,2.534-3.08C18.648,43.308,19.334,44.89,19.334,46.388ZM21.6,50h.882V40H21.6Zm3.374-5.012c.042-1.176.826-1.68,1.932-1.68,1.05,0,1.89.294,1.89,1.484,0,.784-.406.91-1.134.98-1.9.224-3.878.308-3.878,2.324,0,1.456,1.078,2.114,2.422,2.114a2.754,2.754,0,0,0,2.632-1.47h.028c0,.742.14,1.26,1.036,1.26a2.5,2.5,0,0,0,.574-.056V49.2a.667.667,0,0,1-.28.056.464.464,0,0,1-.518-.532V44.89c0-1.946-1.386-2.324-2.66-2.324-1.666,0-2.828.728-2.926,2.422ZM28.8,47.2a2.322,2.322,0,0,1-2.52,2.268,1.5,1.5,0,0,1-1.61-1.428c0-1.4,1.862-1.4,3.36-1.666.238-.042.63-.112.742-.322H28.8Zm8.624-2.156A2.691,2.691,0,0,0,34.5,42.566c-2.2,0-3.416,1.75-3.416,3.822S32.3,50.21,34.5,50.21a2.922,2.922,0,0,0,2.982-2.8H36.6a2.173,2.173,0,0,1-2.1,2.058c-1.68,0-2.534-1.554-2.534-3.08s.854-3.08,2.534-3.08a1.955,1.955,0,0,1,2.044,1.736Zm1.806.84c.154-1.316.924-2.576,2.38-2.576a2.437,2.437,0,0,1,2.3,2.576Zm5.558.742c.07-2.03-.868-4.06-3.178-4.06s-3.262,1.918-3.262,3.822c0,2.058.966,3.822,3.262,3.822a2.942,2.942,0,0,0,3.15-2.59h-.882a2.189,2.189,0,0,1-2.268,1.848c-1.68,0-2.38-1.554-2.38-2.842Zm6.482-6.02h-.882v2.17h-1.26v.742h1.26V48.46c-.014,1.232.392,1.624,1.568,1.624.266,0,.518-.028.784-.028V49.3a6.841,6.841,0,0,1-.756.042c-.63-.042-.714-.378-.714-.952V43.518h1.47v-.742h-1.47ZM54,50h.882V45.786a2.28,2.28,0,0,1,2.268-2.478c1.428,0,1.834.952,1.834,2.184V50h.882V45.352c0-1.722-.616-2.786-2.646-2.786a2.464,2.464,0,0,0-2.31,1.456H54.88V40H54Zm8.33-5.012c.042-1.176.826-1.68,1.932-1.68,1.05,0,1.89.294,1.89,1.484,0,.784-.406.91-1.134.98-1.9.224-3.878.308-3.878,2.324,0,1.456,1.078,2.114,2.422,2.114a2.754,2.754,0,0,0,2.632-1.47h.028c0,.742.14,1.26,1.036,1.26a2.5,2.5,0,0,0,.574-.056V49.2a.667.667,0,0,1-.28.056.464.464,0,0,1-.518-.532V44.89c0-1.946-1.386-2.324-2.66-2.324-1.666,0-2.828.728-2.926,2.422ZM66.15,47.2a2.322,2.322,0,0,1-2.52,2.268,1.5,1.5,0,0,1-1.61-1.428c0-1.4,1.862-1.4,3.36-1.666.238-.042.63-.112.742-.322h.028ZM70.2,40.606h-.882v2.17h-1.26v.742h1.26V48.46c-.014,1.232.392,1.624,1.568,1.624.266,0,.518-.028.784-.028V49.3a6.841,6.841,0,0,1-.756.042c-.63-.042-.714-.378-.714-.952V43.518h1.47v-.742H70.2Zm8.036,0H77.35v2.17H76.09v.742h1.26V48.46c-.014,1.232.392,1.624,1.568,1.624.266,0,.518-.028.784-.028V49.3a6.841,6.841,0,0,1-.756.042c-.63-.042-.714-.378-.714-.952V43.518H79.7v-.742h-1.47Zm3.262,5.278c.154-1.316.924-2.576,2.38-2.576a2.437,2.437,0,0,1,2.3,2.576Zm5.558.742c.07-2.03-.868-4.06-3.178-4.06s-3.262,1.918-3.262,3.822c0,2.058.966,3.822,3.262,3.822a2.942,2.942,0,0,0,3.15-2.59h-.882a2.189,2.189,0,0,1-2.268,1.848c-1.68,0-2.38-1.554-2.38-2.842ZM88.256,50h.882V40h-.882Zm2.59,0h.882V40h-.882Zm7.784-5.11a2.368,2.368,0,0,0-2.646-2.324c-1.274,0-2.716.56-2.716,2.03,0,1.218.868,1.638,2.016,1.932l1.134.252c.8.2,1.582.476,1.582,1.316,0,1.008-1.134,1.372-1.974,1.372A1.9,1.9,0,0,1,93.9,47.662h-.882c.154,1.778,1.274,2.548,2.968,2.548,1.344,0,2.9-.6,2.9-2.17a2.117,2.117,0,0,0-2.058-2l-1.176-.266c-.616-.154-1.5-.448-1.5-1.218,0-.938.924-1.246,1.708-1.246a1.663,1.663,0,0,1,1.89,1.582Zm7.49,5.082-.308.826c-.294.672-.476,1.134-1.26,1.134a2.943,2.943,0,0,1-.6-.07V52.6a2.354,2.354,0,0,0,.672.07c1.106,0,1.386-.35,1.9-1.568l3.136-8.33h-.882l-2.226,6.16-2.38-6.16h-.938Zm7.462-6.664c1.68,0,2.534,1.554,2.534,3.08s-.854,3.08-2.534,3.08-2.534-1.554-2.534-3.08S111.9,43.308,113.582,43.308Zm0-.742c-2.2,0-3.416,1.75-3.416,3.822s1.218,3.822,3.416,3.822S117,48.46,117,46.388,115.78,42.566,113.582,42.566Zm10.584.21h-.882V46.57c0,1.47-.658,2.9-2.17,2.9-1.4,0-1.89-.686-1.932-1.988v-4.7H118.3v4.69c0,1.694.7,2.744,2.534,2.744a2.687,2.687,0,0,0,2.492-1.512h.028V50h.812Zm6.076,3.108c.154-1.316.924-2.576,2.38-2.576a2.437,2.437,0,0,1,2.3,2.576Zm5.558.742c.07-2.03-.868-4.06-3.178-4.06s-3.262,1.918-3.262,3.822c0,2.058.966,3.822,3.262,3.822a2.942,2.942,0,0,0,3.15-2.59h-.882a2.189,2.189,0,0,1-2.268,1.848c-1.68,0-2.38-1.554-2.38-2.842ZM136.164,50h1.092l2.226-3.038L141.75,50h1.12l-2.814-3.766,2.6-3.458h-1.106l-2.016,2.744-2.058-2.744h-1.106l2.59,3.472Zm8.358-5.012c.042-1.176.826-1.68,1.932-1.68,1.05,0,1.89.294,1.89,1.484,0,.784-.406.91-1.134.98-1.9.224-3.878.308-3.878,2.324,0,1.456,1.078,2.114,2.422,2.114a2.754,2.754,0,0,0,2.632-1.47h.028c0,.742.14,1.26,1.036,1.26a2.5,2.5,0,0,0,.574-.056V49.2a.667.667,0,0,1-.28.056.464.464,0,0,1-.518-.532V44.89c0-1.946-1.386-2.324-2.66-2.324-1.666,0-2.828.728-2.926,2.422Zm3.822,2.212a2.322,2.322,0,0,1-2.52,2.268,1.5,1.5,0,0,1-1.61-1.428c0-1.4,1.862-1.4,3.36-1.666.238-.042.63-.112.742-.322h.028Zm8.624-2.156a2.691,2.691,0,0,0-2.926-2.478c-2.2,0-3.416,1.75-3.416,3.822s1.218,3.822,3.416,3.822a2.922,2.922,0,0,0,2.982-2.8h-.882a2.173,2.173,0,0,1-2.1,2.058c-1.68,0-2.534-1.554-2.534-3.08s.854-3.08,2.534-3.08a1.955,1.955,0,0,1,2.044,1.736Zm2.688-4.438h-.882v2.17h-1.26v.742h1.26V48.46c-.014,1.232.392,1.624,1.568,1.624.266,0,.518-.028.784-.028V49.3a6.841,6.841,0,0,1-.756.042c-.63-.042-.714-.378-.714-.952V43.518h1.47v-.742h-1.47ZM162.414,50h.882V40h-.882Zm4.648-.028-.308.826c-.294.672-.476,1.134-1.26,1.134a2.942,2.942,0,0,1-.6-.07V52.6a2.354,2.354,0,0,0,.672.07c1.106,0,1.386-.35,1.9-1.568l3.136-8.33h-.882l-2.226,6.16-2.38-6.16h-.938Zm9.9.028h.966l1.764-6.076h.028L181.5,50h.966l2.324-7.224h-.938L182,48.964h-.028l-1.764-6.188h-.994l-1.764,6.188h-.028l-1.848-6.188h-.938Zm8.764,0h.882V45.786a2.28,2.28,0,0,1,2.268-2.478c1.428,0,1.834.952,1.834,2.184V50h.882V45.352c0-1.722-.616-2.786-2.646-2.786a2.464,2.464,0,0,0-2.31,1.456h-.028V40h-.882Zm8.33-5.012c.042-1.176.826-1.68,1.932-1.68,1.05,0,1.89.294,1.89,1.484,0,.784-.406.91-1.134.98-1.9.224-3.878.308-3.878,2.324,0,1.456,1.078,2.114,2.422,2.114a2.754,2.754,0,0,0,2.632-1.47h.028c0,.742.14,1.26,1.036,1.26a2.5,2.5,0,0,0,.574-.056V49.2a.667.667,0,0,1-.28.056.464.464,0,0,1-.518-.532V44.89c0-1.946-1.386-2.324-2.66-2.324-1.666,0-2.828.728-2.926,2.422Zm3.822,2.212a2.322,2.322,0,0,1-2.52,2.268,1.5,1.5,0,0,1-1.61-1.428c0-1.4,1.862-1.4,3.36-1.666.238-.042.63-.112.742-.322h.028Zm4.046-6.594h-.882v2.17h-1.26v.742h1.26V48.46c-.014,1.232.392,1.624,1.568,1.624.266,0,.518-.028.784-.028V49.3a6.841,6.841,0,0,1-.756.042c-.63-.042-.714-.378-.714-.952V43.518h1.47v-.742h-1.47Zm8.708,9.366-.308.826c-.294.672-.476,1.134-1.26,1.134a2.942,2.942,0,0,1-.6-.07V52.6a2.354,2.354,0,0,0,.672.07c1.106,0,1.386-.35,1.9-1.568l3.136-8.33h-.882l-2.226,6.16-2.38-6.16h-.938Zm7.462-6.664c1.68,0,2.534,1.554,2.534,3.08s-.854,3.08-2.534,3.08-2.534-1.554-2.534-3.08S216.412,43.308,218.092,43.308Zm0-.742c-2.2,0-3.416,1.75-3.416,3.822s1.218,3.822,3.416,3.822,3.416-1.75,3.416-3.822S220.29,42.566,218.092,42.566Zm10.584.21h-.882V46.57c0,1.47-.658,2.9-2.17,2.9-1.4,0-1.89-.686-1.932-1.988v-4.7h-.882v4.69c0,1.694.7,2.744,2.534,2.744a2.687,2.687,0,0,0,2.492-1.512h.028V50h.812ZM.826,68h.882V63.786a2.28,2.28,0,0,1,2.268-2.478c1.428,0,1.834.952,1.834,2.184V68h.882V63.352c0-1.722-.616-2.786-2.646-2.786a2.464,2.464,0,0,0-2.31,1.456H1.708V60.776H.826Zm8.05-4.116c.154-1.316.924-2.576,2.38-2.576a2.437,2.437,0,0,1,2.3,2.576Zm5.558.742c.07-2.03-.868-4.06-3.178-4.06s-3.262,1.918-3.262,3.822c0,2.058.966,3.822,3.262,3.822a2.942,2.942,0,0,0,3.15-2.59h-.882a2.189,2.189,0,0,1-2.268,1.848c-1.68,0-2.38-1.554-2.38-2.842Zm1.708-.742c.154-1.316.924-2.576,2.38-2.576a2.437,2.437,0,0,1,2.3,2.576Zm5.558.742c.07-2.03-.868-4.06-3.178-4.06s-3.262,1.918-3.262,3.822c0,2.058.966,3.822,3.262,3.822a2.942,2.942,0,0,0,3.15-2.59H20.79a2.189,2.189,0,0,1-2.268,1.848c-1.68,0-2.38-1.554-2.38-2.842ZM29.246,58h-.882v4.144h-.028a2.577,2.577,0,0,0-2.506-1.582c-2.2,0-3.248,1.764-3.248,3.822s1.05,3.822,3.248,3.822a2.837,2.837,0,0,0,2.576-1.582h.028V68h.812Zm-5.782,6.384c0-1.5.686-3.08,2.366-3.08,1.862,0,2.534,1.582,2.534,3.08s-.672,3.08-2.534,3.08C24.15,67.468,23.464,65.886,23.464,64.388Zm12.754-5.782h-.882v2.17h-1.26v.742h1.26V66.46c-.014,1.232.392,1.624,1.568,1.624.266,0,.518-.028.784-.028V67.3a6.841,6.841,0,0,1-.756.042c-.63-.042-.714-.378-.714-.952V61.518h1.47v-.742h-1.47Zm5.8,2.7c1.68,0,2.534,1.554,2.534,3.08s-.854,3.08-2.534,3.08-2.534-1.554-2.534-3.08S40.334,61.308,42.014,61.308Zm0-.742c-2.2,0-3.416,1.75-3.416,3.822s1.218,3.822,3.416,3.822,3.416-1.75,3.416-3.822S44.212,60.566,42.014,60.566ZM50.638,68h.882V65.256l1.428-1.19L55.8,68H56.91l-3.29-4.55,3.08-2.674H55.524l-4,3.5V58h-.882Zm6.986,0h.882V63.786a2.28,2.28,0,0,1,2.268-2.478c1.428,0,1.834.952,1.834,2.184V68h.882V63.352c0-1.722-.616-2.786-2.646-2.786a2.464,2.464,0,0,0-2.31,1.456h-.028V60.776h-.882Zm10.584-6.692c1.68,0,2.534,1.554,2.534,3.08s-.854,3.08-2.534,3.08-2.534-1.554-2.534-3.08S66.528,61.308,68.208,61.308Zm0-.742c-2.2,0-3.416,1.75-3.416,3.822s1.218,3.822,3.416,3.822,3.416-1.75,3.416-3.822S70.406,60.566,68.208,60.566ZM74.536,68H75.5l1.764-6.076h.028L79.072,68h.966l2.324-7.224h-.938l-1.848,6.188h-.028l-1.764-6.188H76.79l-1.764,6.188H75L73.15,60.776h-.938ZM88,62.988c.042-1.176.826-1.68,1.932-1.68,1.05,0,1.89.294,1.89,1.484,0,.784-.406.91-1.134.98-1.9.224-3.878.308-3.878,2.324,0,1.456,1.078,2.114,2.422,2.114a2.754,2.754,0,0,0,2.632-1.47H91.9c0,.742.14,1.26,1.036,1.26a2.5,2.5,0,0,0,.574-.056V67.2a.667.667,0,0,1-.28.056.464.464,0,0,1-.518-.532V62.89c0-1.946-1.386-2.324-2.66-2.324-1.666,0-2.828.728-2.926,2.422ZM91.826,65.2a2.322,2.322,0,0,1-2.52,2.268A1.5,1.5,0,0,1,87.7,66.04c0-1.4,1.862-1.4,3.36-1.666.238-.042.63-.112.742-.322h.028ZM94.458,68h.882V63.786a2.28,2.28,0,0,1,2.268-2.478c1.428,0,1.834.952,1.834,2.184V68h.882V63.352c0-1.722-.616-2.786-2.646-2.786a2.464,2.464,0,0,0-2.31,1.456H95.34V60.776h-.882Zm13.888-10h-.882v4.144h-.028a2.577,2.577,0,0,0-2.506-1.582c-2.2,0-3.248,1.764-3.248,3.822s1.05,3.822,3.248,3.822a2.837,2.837,0,0,0,2.576-1.582h.028V68h.812Zm-5.782,6.384c0-1.5.686-3.08,2.366-3.08,1.862,0,2.534,1.582,2.534,3.08s-.672,3.08-2.534,3.08C103.25,67.468,102.564,65.886,102.564,64.388ZM115.514,68h.966l1.764-6.076h.028L120.05,68h.966l2.324-7.224H122.4l-1.848,6.188h-.028l-1.764-6.188h-.994L116,66.964h-.028l-1.848-6.188h-.938Zm8.764,0h.882V63.786a2.28,2.28,0,0,1,2.268-2.478c1.428,0,1.834.952,1.834,2.184V68h.882V63.352c0-1.722-.616-2.786-2.646-2.786a2.464,2.464,0,0,0-2.31,1.456h-.028V58h-.882Zm9.6-.028-.308.826c-.294.672-.476,1.134-1.26,1.134a2.942,2.942,0,0,1-.6-.07V70.6a2.354,2.354,0,0,0,.672.07c1.106,0,1.386-.35,1.9-1.568l3.136-8.33h-.882l-2.226,6.16-2.38-6.16H131Zm8.316-8.554h.882V58H142.2Zm0,8.582h.882V60.776H142.2Zm3.976-9.394h-.882v2.17h-1.26v.742h1.26V66.46c-.014,1.232.392,1.624,1.568,1.624.266,0,.518-.028.784-.028V67.3a6.841,6.841,0,0,1-.756.042c-.63-.042-.714-.378-.714-.952V61.518h1.47v-.742h-1.47Zm3.29-.6v1.484h.588c.042.434-.182,1.176-.658,1.316v.6a1.876,1.876,0,0,0,1.246-1.9V58Zm7,4.886a2.368,2.368,0,0,0-2.646-2.324c-1.274,0-2.716.56-2.716,2.03,0,1.218.868,1.638,2.016,1.932l1.134.252c.8.2,1.582.476,1.582,1.316,0,1.008-1.134,1.372-1.974,1.372a1.9,1.9,0,0,1-2.128-1.806h-.882c.154,1.778,1.274,2.548,2.968,2.548,1.344,0,2.9-.6,2.9-2.17a2.117,2.117,0,0,0-2.058-2l-1.176-.266c-.616-.154-1.5-.448-1.5-1.218,0-.938.924-1.246,1.708-1.246a1.663,1.663,0,0,1,1.89,1.582Zm5.432-3.472h.882V58H161.9Zm0,8.582h.882V60.776H161.9Zm2.576,0h.882V63.968c0-1.512.644-2.66,2.156-2.66,1.134,0,1.512.812,1.512,1.792V68h.882V63.912c0-1.344.434-2.6,1.96-2.6,1.274,0,1.708.644,1.708,1.834V68h.882V63.1c0-1.694-.8-2.534-2.394-2.534a2.442,2.442,0,0,0-2.3,1.414,2.008,2.008,0,0,0-2.072-1.414,2.486,2.486,0,0,0-2.366,1.428h-.042V60.776h-.812Zm11.662,2.674h.882V66.628h.028a2.57,2.57,0,0,0,2.506,1.582c2.2,0,3.248-1.764,3.248-3.822s-1.05-3.822-3.248-3.822a2.669,2.669,0,0,0-2.576,1.582h-.028V60.776h-.812Zm5.782-6.286c0,1.5-.686,3.08-2.366,3.08-1.862,0-2.534-1.582-2.534-3.08,0-1.638.574-3.08,2.534-3.08C181.23,61.308,181.916,62.89,181.916,64.388Zm5.306-3.08c1.68,0,2.534,1.554,2.534,3.08s-.854,3.08-2.534,3.08-2.534-1.554-2.534-3.08S185.542,61.308,187.222,61.308Zm0-.742c-2.2,0-3.416,1.75-3.416,3.822s1.218,3.822,3.416,3.822,3.416-1.75,3.416-3.822S189.42,60.566,187.222,60.566ZM191.954,68h.882V64.15a2.488,2.488,0,0,1,2.688-2.59v-.882a2.653,2.653,0,0,0-2.73,1.792h-.028V60.776h-.812Zm5.81-9.394h-.882v2.17h-1.26v.742h1.26V66.46c-.014,1.232.392,1.624,1.568,1.624.266,0,.518-.028.784-.028V67.3a6.841,6.841,0,0,1-.756.042c-.63-.042-.714-.378-.714-.952V61.518h1.47v-.742h-1.47Zm3.542,4.382c.042-1.176.826-1.68,1.932-1.68,1.05,0,1.89.294,1.89,1.484,0,.784-.406.91-1.134.98-1.9.224-3.878.308-3.878,2.324,0,1.456,1.078,2.114,2.422,2.114a2.754,2.754,0,0,0,2.632-1.47h.028c0,.742.14,1.26,1.036,1.26a2.5,2.5,0,0,0,.574-.056V67.2a.667.667,0,0,1-.28.056.464.464,0,0,1-.518-.532V62.89c0-1.946-1.386-2.324-2.66-2.324-1.666,0-2.828.728-2.926,2.422Zm3.822,2.212a2.322,2.322,0,0,1-2.52,2.268A1.5,1.5,0,0,1,201,66.04c0-1.4,1.862-1.4,3.36-1.666.238-.042.63-.112.742-.322h.028ZM207.76,68h.882V63.786a2.28,2.28,0,0,1,2.268-2.478c1.428,0,1.834.952,1.834,2.184V68h.882V63.352c0-1.722-.616-2.786-2.646-2.786a2.464,2.464,0,0,0-2.31,1.456h-.028V60.776h-.882Zm8.932-9.394h-.882v2.17h-1.26v.742h1.26V66.46c-.014,1.232.392,1.624,1.568,1.624.266,0,.518-.028.784-.028V67.3a6.841,6.841,0,0,1-.756.042c-.63-.042-.714-.378-.714-.952V61.518h1.47v-.742h-1.47ZM221.13,68V66.516h-1.176V68Zm9.674-9.044,1.932,5.124H228.8ZM226.282,68H227.3l1.2-3.108h4.55L234.276,68H235.3l-3.92-10h-1.064Zm9.744,0h.882V63.786a2.28,2.28,0,0,1,2.268-2.478c1.428,0,1.834.952,1.834,2.184V68h.882V63.352c0-1.722-.616-2.786-2.646-2.786a2.464,2.464,0,0,0-2.31,1.456h-.028V60.776h-.882Zm13.888-10h-.882v4.144H249a2.577,2.577,0,0,0-2.506-1.582c-2.2,0-3.248,1.764-3.248,3.822s1.05,3.822,3.248,3.822a2.837,2.837,0,0,0,2.576-1.582h.028V68h.812Zm-5.782,6.384c0-1.5.686-3.08,2.366-3.08,1.862,0,2.534,1.582,2.534,3.08s-.672,3.08-2.534,3.08C244.818,67.468,244.132,65.886,244.132,64.388ZM1.638,80.988c.042-1.176.826-1.68,1.932-1.68,1.05,0,1.89.294,1.89,1.484,0,.784-.406.91-1.134.98C2.422,82,.448,82.08.448,84.1c0,1.456,1.078,2.114,2.422,2.114A2.754,2.754,0,0,0,5.5,84.74H5.53c0,.742.14,1.26,1.036,1.26a2.5,2.5,0,0,0,.574-.056V85.2a.667.667,0,0,1-.28.056.464.464,0,0,1-.518-.532V80.89c0-1.946-1.386-2.324-2.66-2.324-1.666,0-2.828.728-2.926,2.422ZM5.46,83.2a2.322,2.322,0,0,1-2.52,2.268A1.5,1.5,0,0,1,1.33,84.04c0-1.4,1.862-1.4,3.36-1.666.238-.042.63-.112.742-.322H5.46Zm10.43,5.474h.882V84.628H16.8a2.57,2.57,0,0,0,2.506,1.582c2.2,0,3.248-1.764,3.248-3.822s-1.05-3.822-3.248-3.822a2.669,2.669,0,0,0-2.576,1.582H16.7V78.776H15.89Zm5.782-6.286c0,1.5-.686,3.08-2.366,3.08-1.862,0-2.534-1.582-2.534-3.08,0-1.638.574-3.08,2.534-3.08C20.986,79.308,21.672,80.89,21.672,82.388ZM23.94,86h.882V76H23.94Zm3.374-5.012c.042-1.176.826-1.68,1.932-1.68,1.05,0,1.89.294,1.89,1.484,0,.784-.406.91-1.134.98-1.9.224-3.878.308-3.878,2.324,0,1.456,1.078,2.114,2.422,2.114a2.754,2.754,0,0,0,2.632-1.47h.028c0,.742.14,1.26,1.036,1.26a2.5,2.5,0,0,0,.574-.056V85.2a.667.667,0,0,1-.28.056.464.464,0,0,1-.518-.532V80.89c0-1.946-1.386-2.324-2.66-2.324-1.666,0-2.828.728-2.926,2.422ZM31.136,83.2a2.322,2.322,0,0,1-2.52,2.268,1.5,1.5,0,0,1-1.61-1.428c0-1.4,1.862-1.4,3.36-1.666.238-.042.63-.112.742-.322h.028Zm8.624-2.156a2.691,2.691,0,0,0-2.926-2.478c-2.2,0-3.416,1.75-3.416,3.822s1.218,3.822,3.416,3.822a2.922,2.922,0,0,0,2.982-2.8h-.882a2.173,2.173,0,0,1-2.1,2.058c-1.68,0-2.534-1.554-2.534-3.08s.854-3.08,2.534-3.08a1.955,1.955,0,0,1,2.044,1.736Zm1.806.84c.154-1.316.924-2.576,2.38-2.576a2.437,2.437,0,0,1,2.3,2.576Zm5.558.742c.07-2.03-.868-4.06-3.178-4.06s-3.262,1.918-3.262,3.822c0,2.058.966,3.822,3.262,3.822a2.942,2.942,0,0,0,3.15-2.59h-.882a2.189,2.189,0,0,1-2.268,1.848c-1.68,0-2.38-1.554-2.38-2.842ZM53.8,86h.966l1.764-6.076h.028L58.338,86H59.3l2.324-7.224H60.69l-1.848,6.188h-.028L57.05,78.776h-.994l-1.764,6.188h-.028l-1.848-6.188h-.938Zm8.764,0h.882V81.786a2.28,2.28,0,0,1,2.268-2.478c1.428,0,1.834.952,1.834,2.184V86h.882V81.352c0-1.722-.616-2.786-2.646-2.786a2.464,2.464,0,0,0-2.31,1.456h-.028V76h-.882Zm8.05-4.116c.154-1.316.924-2.576,2.38-2.576a2.437,2.437,0,0,1,2.3,2.576Zm5.558.742c.07-2.03-.868-4.06-3.178-4.06s-3.262,1.918-3.262,3.822c0,2.058.966,3.822,3.262,3.822a2.942,2.942,0,0,0,3.15-2.59h-.882A2.189,2.189,0,0,1,73,85.468c-1.68,0-2.38-1.554-2.38-2.842ZM77.364,86h.882V82.15a2.488,2.488,0,0,1,2.688-2.59v-.882A2.653,2.653,0,0,0,78.2,80.47h-.028V78.776h-.812Zm4.676-4.116c.154-1.316.924-2.576,2.38-2.576a2.437,2.437,0,0,1,2.3,2.576Zm5.558.742c.07-2.03-.868-4.06-3.178-4.06s-3.262,1.918-3.262,3.822c0,2.058.966,3.822,3.262,3.822a2.942,2.942,0,0,0,3.15-2.59h-.882a2.189,2.189,0,0,1-2.268,1.848c-1.68,0-2.38-1.554-2.38-2.842ZM92.666,86h.882V81.786a2.28,2.28,0,0,1,2.268-2.478c1.428,0,1.834.952,1.834,2.184V86h.882V81.352c0-1.722-.616-2.786-2.646-2.786a2.464,2.464,0,0,0-2.31,1.456h-.028V78.776h-.882Zm10.584-6.692c1.68,0,2.534,1.554,2.534,3.08s-.854,3.08-2.534,3.08-2.534-1.554-2.534-3.08S101.57,79.308,103.25,79.308Zm0-.742c-2.2,0-3.416,1.75-3.416,3.822s1.218,3.822,3.416,3.822,3.416-1.75,3.416-3.822S105.448,78.566,103.25,78.566Zm11.676.742c1.68,0,2.534,1.554,2.534,3.08s-.854,3.08-2.534,3.08-2.534-1.554-2.534-3.08S113.246,79.308,114.926,79.308Zm0-.742c-2.2,0-3.416,1.75-3.416,3.822s1.218,3.822,3.416,3.822,3.416-1.75,3.416-3.822S117.124,78.566,114.926,78.566ZM119.644,86h.882V81.786a2.28,2.28,0,0,1,2.268-2.478c1.428,0,1.834.952,1.834,2.184V86h.882V81.352c0-1.722-.616-2.786-2.646-2.786a2.464,2.464,0,0,0-2.31,1.456h-.028V78.776h-.882Zm8.05-4.116c.154-1.316.924-2.576,2.38-2.576a2.437,2.437,0,0,1,2.3,2.576Zm5.558.742c.07-2.03-.868-4.06-3.178-4.06s-3.262,1.918-3.262,3.822c0,2.058.966,3.822,3.262,3.822a2.942,2.942,0,0,0,3.15-2.59h-.882a2.189,2.189,0,0,1-2.268,1.848c-1.68,0-2.38-1.554-2.38-2.842Zm5.1-5.208h.882V76h-.882Zm0,8.582h.882V78.776h-.882Zm7.784-5.11a2.368,2.368,0,0,0-2.646-2.324c-1.274,0-2.716.56-2.716,2.03,0,1.218.868,1.638,2.016,1.932l1.134.252c.8.2,1.582.476,1.582,1.316,0,1.008-1.134,1.372-1.974,1.372a1.9,1.9,0,0,1-2.128-1.806h-.882c.154,1.778,1.274,2.548,2.968,2.548,1.344,0,2.9-.6,2.9-2.17a2.117,2.117,0,0,0-2.058-2l-1.176-.266c-.616-.154-1.5-.448-1.5-1.218,0-.938.924-1.246,1.708-1.246a1.663,1.663,0,0,1,1.89,1.582Zm5.418,7.784h.882V84.628h.028a2.57,2.57,0,0,0,2.506,1.582c2.2,0,3.248-1.764,3.248-3.822s-1.05-3.822-3.248-3.822a2.669,2.669,0,0,0-2.576,1.582h-.028V78.776h-.812Zm5.782-6.286c0,1.5-.686,3.08-2.366,3.08-1.862,0-2.534-1.582-2.534-3.08,0-1.638.574-3.08,2.534-3.08C156.646,79.308,157.332,80.89,157.332,82.388Zm8.106-3.612h-.882V82.57c0,1.47-.658,2.9-2.17,2.9-1.4,0-1.89-.686-1.932-1.988v-4.7h-.882v4.69c0,1.694.7,2.744,2.534,2.744A2.687,2.687,0,0,0,164.6,84.7h.028V86h.812Zm6.874,2.114a2.368,2.368,0,0,0-2.646-2.324c-1.274,0-2.716.56-2.716,2.03,0,1.218.868,1.638,2.016,1.932l1.134.252c.8.2,1.582.476,1.582,1.316,0,1.008-1.134,1.372-1.974,1.372a1.9,1.9,0,0,1-2.128-1.806H166.7c.154,1.778,1.274,2.548,2.968,2.548,1.344,0,2.9-.6,2.9-2.17a2.117,2.117,0,0,0-2.058-2l-1.176-.266c-.616-.154-1.5-.448-1.5-1.218,0-.938.924-1.246,1.708-1.246a1.663,1.663,0,0,1,1.89,1.582ZM173.824,86h.882V81.786a2.28,2.28,0,0,1,2.268-2.478c1.428,0,1.834.952,1.834,2.184V86h.882V81.352c0-1.722-.616-2.786-2.646-2.786a2.464,2.464,0,0,0-2.31,1.456h-.028V76h-.882Zm7.546-8.582h.882V76h-.882Zm0,8.582h.882V78.776h-.882Zm2.562,0h.882V81.786a2.28,2.28,0,0,1,2.268-2.478c1.428,0,1.834.952,1.834,2.184V86h.882V81.352c0-1.722-.616-2.786-2.646-2.786a2.464,2.464,0,0,0-2.31,1.456h-.028V78.776h-.882Zm13.636-7.224h-.882v1.246h-.028a2.526,2.526,0,0,0-2.3-1.456c-2.086,0-3.262,1.652-3.262,3.64,0,2.072.952,3.71,3.262,3.71a2.467,2.467,0,0,0,2.3-1.484h.028v.98c0,1.778-.686,2.73-2.324,2.73a1.9,1.9,0,0,1-2.114-1.442h-.882c.112,1.526,1.554,2.184,3,2.184,2.338,0,3.206-1.3,3.206-3.472Zm-3.206,6.4c-1.638,0-2.38-1.414-2.38-2.87,0-1.5.7-3,2.38-3s2.324,1.582,2.324,3C196.686,83.76,195.888,85.174,194.362,85.174Zm10.178-8.568h-.882v2.17H202.4v.742h1.26V84.46c-.014,1.232.392,1.624,1.568,1.624.266,0,.518-.028.784-.028V85.3a6.841,6.841,0,0,1-.756.042c-.63-.042-.714-.378-.714-.952V79.518h1.47v-.742h-1.47ZM207.27,86h.882V81.786a2.28,2.28,0,0,1,2.268-2.478c1.428,0,1.834.952,1.834,2.184V86h.882V81.352c0-1.722-.616-2.786-2.646-2.786a2.464,2.464,0,0,0-2.31,1.456h-.028V76h-.882Zm8.05-4.116c.154-1.316.924-2.576,2.38-2.576a2.437,2.437,0,0,1,2.3,2.576Zm5.558.742c.07-2.03-.868-4.06-3.178-4.06s-3.262,1.918-3.262,3.822c0,2.058.966,3.822,3.262,3.822a2.942,2.942,0,0,0,3.15-2.59h-.882a2.189,2.189,0,0,1-2.268,1.848c-1.68,0-2.38-1.554-2.38-2.842Zm1.2-5.208h.882V76h-.882Zm0,8.582h.882V78.776h-.882Zm2.576,0h.882V82.15a2.488,2.488,0,0,1,2.688-2.59v-.882a2.653,2.653,0,0,0-2.73,1.792h-.028V78.776h-.812ZM1.638,98.988c.042-1.176.826-1.68,1.932-1.68,1.05,0,1.89.294,1.89,1.484,0,.784-.406.91-1.134.98-1.9.224-3.878.308-3.878,2.324,0,1.456,1.078,2.114,2.422,2.114A2.754,2.754,0,0,0,5.5,102.74H5.53c0,.742.14,1.26,1.036,1.26a2.5,2.5,0,0,0,.574-.056V103.2a.667.667,0,0,1-.28.056.464.464,0,0,1-.518-.532V98.89c0-1.946-1.386-2.324-2.66-2.324-1.666,0-2.828.728-2.926,2.422ZM5.46,101.2a2.322,2.322,0,0,1-2.52,2.268,1.5,1.5,0,0,1-1.61-1.428c0-1.4,1.862-1.4,3.36-1.666.238-.042.63-.112.742-.322H5.46Zm8.75-4.424h-.882v1.246H13.3A2.526,2.526,0,0,0,11,96.566c-2.086,0-3.262,1.652-3.262,3.64,0,2.072.952,3.71,3.262,3.71a2.467,2.467,0,0,0,2.3-1.484h.028v.98c0,1.778-.686,2.73-2.324,2.73A1.9,1.9,0,0,1,8.89,104.7H8.008c.112,1.526,1.554,2.184,3,2.184,2.338,0,3.206-1.3,3.206-3.472ZM11,103.174c-1.638,0-2.38-1.414-2.38-2.87,0-1.5.7-3,2.38-3s2.324,1.582,2.324,3C13.328,101.76,12.53,103.174,11,103.174Zm5.4-3.29c.154-1.316.924-2.576,2.38-2.576a2.437,2.437,0,0,1,2.3,2.576Zm5.558.742c.07-2.03-.868-4.06-3.178-4.06s-3.262,1.918-3.262,3.822c0,2.058.966,3.822,3.262,3.822a2.942,2.942,0,0,0,3.15-2.59h-.882a2.189,2.189,0,0,1-2.268,1.848c-1.68,0-2.38-1.554-2.38-2.842ZM23.142,104h.882V99.786a2.28,2.28,0,0,1,2.268-2.478c1.428,0,1.834.952,1.834,2.184V104h.882V99.352c0-1.722-.616-2.786-2.646-2.786a2.464,2.464,0,0,0-2.31,1.456h-.028V96.776h-.882ZM37.03,94h-.882v4.144H36.12a2.577,2.577,0,0,0-2.506-1.582c-2.2,0-3.248,1.764-3.248,3.822s1.05,3.822,3.248,3.822a2.837,2.837,0,0,0,2.576-1.582h.028V104h.812Zm-5.782,6.384c0-1.5.686-3.08,2.366-3.08,1.862,0,2.534,1.582,2.534,3.08s-.672,3.08-2.534,3.08C31.934,103.468,31.248,101.886,31.248,100.388Zm8.26-1.4c.042-1.176.826-1.68,1.932-1.68,1.05,0,1.89.294,1.89,1.484,0,.784-.406.91-1.134.98-1.9.224-3.878.308-3.878,2.324,0,1.456,1.078,2.114,2.422,2.114a2.754,2.754,0,0,0,2.632-1.47H43.4c0,.742.14,1.26,1.036,1.26a2.5,2.5,0,0,0,.574-.056V103.2a.667.667,0,0,1-.28.056.464.464,0,0,1-.518-.532V98.89c0-1.946-1.386-2.324-2.66-2.324-1.666,0-2.828.728-2.926,2.422ZM43.33,101.2a2.322,2.322,0,0,1-2.52,2.268,1.5,1.5,0,0,1-1.61-1.428c0-1.4,1.862-1.4,3.36-1.666.238-.042.63-.112.742-.322h.028Zm4.34,2.8v-1.484H46.494V104Zm-44.9,36H3.808l2.52-8.946h.028L8.89,140H9.9l2.758-10H11.7l-2.282,8.75H9.394L6.944,130H5.754l-2.436,8.75H3.29L1.022,130H0ZM13.8,135.884c.154-1.316.924-2.576,2.38-2.576a2.437,2.437,0,0,1,2.3,2.576Zm5.558.742c.07-2.03-.868-4.06-3.178-4.06s-3.262,1.918-3.262,3.822c0,2.058.966,3.822,3.262,3.822a2.942,2.942,0,0,0,3.15-2.59h-.882a2.189,2.189,0,0,1-2.268,1.848c-1.68,0-2.38-1.554-2.38-2.842ZM21.1,130v1.484h.588c.042.434-.182,1.176-.658,1.316v.6a1.876,1.876,0,0,0,1.246-1.9V130Zm3.346,10h.882v-3.85a2.488,2.488,0,0,1,2.688-2.59v-.882a2.653,2.653,0,0,0-2.73,1.792h-.028v-1.694h-.812Zm4.676-4.116c.154-1.316.924-2.576,2.38-2.576a2.437,2.437,0,0,1,2.3,2.576Zm5.558.742c.07-2.03-.868-4.06-3.178-4.06s-3.262,1.918-3.262,3.822c0,2.058.966,3.822,3.262,3.822a2.942,2.942,0,0,0,3.15-2.59h-.882a2.189,2.189,0,0,1-2.268,1.848c-1.68,0-2.38-1.554-2.38-2.842ZM39.746,140h.882v-4.214a2.28,2.28,0,0,1,2.268-2.478c1.428,0,1.834.952,1.834,2.184V140h.882v-4.648c0-1.722-.616-2.786-2.646-2.786a2.464,2.464,0,0,0-2.31,1.456h-.028V130h-.882Zm8.05-4.116c.154-1.316.924-2.576,2.38-2.576a2.437,2.437,0,0,1,2.3,2.576Zm5.558.742c.07-2.03-.868-4.06-3.178-4.06s-3.262,1.918-3.262,3.822c0,2.058.966,3.822,3.262,3.822a2.942,2.942,0,0,0,3.15-2.59h-.882a2.189,2.189,0,0,1-2.268,1.848c-1.68,0-2.38-1.554-2.38-2.842ZM54.544,140h.882v-3.85a2.488,2.488,0,0,1,2.688-2.59v-.882a2.653,2.653,0,0,0-2.73,1.792h-.028v-1.694h-.812Zm4.676-4.116c.154-1.316.924-2.576,2.38-2.576a2.437,2.437,0,0,1,2.3,2.576Zm5.558.742c.07-2.03-.868-4.06-3.178-4.06s-3.262,1.918-3.262,3.822c0,2.058.966,3.822,3.262,3.822a2.942,2.942,0,0,0,3.15-2.59h-.882a2.189,2.189,0,0,1-2.268,1.848c-1.68,0-2.38-1.554-2.38-2.842Zm6.482-6.02h-.882v2.17h-1.26v.742h1.26v4.942c-.014,1.232.392,1.624,1.568,1.624.266,0,.518-.028.784-.028V139.3a6.841,6.841,0,0,1-.756.042c-.63-.042-.714-.378-.714-.952v-4.872h1.47v-.742H71.26Zm5.8,2.7c1.68,0,2.534,1.554,2.534,3.08s-.854,3.08-2.534,3.08-2.534-1.554-2.534-3.08S75.376,133.308,77.056,133.308Zm0-.742c-2.2,0-3.416,1.75-3.416,3.822s1.218,3.822,3.416,3.822,3.416-1.75,3.416-3.822S79.254,132.566,77.056,132.566Zm9.422,2.422c.042-1.176.826-1.68,1.932-1.68,1.05,0,1.89.294,1.89,1.484,0,.784-.406.91-1.134.98-1.9.224-3.878.308-3.878,2.324,0,1.456,1.078,2.114,2.422,2.114a2.754,2.754,0,0,0,2.632-1.47h.028c0,.742.14,1.26,1.036,1.26a2.5,2.5,0,0,0,.574-.056V139.2a.667.667,0,0,1-.28.056.464.464,0,0,1-.518-.532V134.89c0-1.946-1.386-2.324-2.66-2.324-1.666,0-2.828.728-2.926,2.422ZM90.3,137.2a2.322,2.322,0,0,1-2.52,2.268,1.5,1.5,0,0,1-1.61-1.428c0-1.4,1.862-1.4,3.36-1.666.238-.042.63-.112.742-.322H90.3Zm4.242,2.8h.966l1.764-6.076H97.3L99.078,140h.966l2.324-7.224h-.938l-1.848,6.188h-.028l-1.764-6.188H96.8l-1.764,6.188H95l-1.848-6.188h-.938Zm9.576-5.012c.042-1.176.826-1.68,1.932-1.68,1.05,0,1.89.294,1.89,1.484,0,.784-.406.91-1.134.98-1.9.224-3.878.308-3.878,2.324,0,1.456,1.078,2.114,2.422,2.114a2.754,2.754,0,0,0,2.632-1.47h.028c0,.742.14,1.26,1.036,1.26a2.5,2.5,0,0,0,.574-.056V139.2a.667.667,0,0,1-.28.056.464.464,0,0,1-.518-.532V134.89c0-1.946-1.386-2.324-2.66-2.324-1.666,0-2.828.728-2.926,2.422Zm3.822,2.212a2.322,2.322,0,0,1-2.52,2.268,1.5,1.5,0,0,1-1.61-1.428c0-1.4,1.862-1.4,3.36-1.666.238-.042.63-.112.742-.322h.028Zm2.646,2.8h.882v-2.744l1.428-1.19L115.752,140h1.106l-3.29-4.55,3.08-2.674h-1.176l-4,3.5V130h-.882Zm7.518-4.116c.154-1.316.924-2.576,2.38-2.576a2.437,2.437,0,0,1,2.3,2.576Zm5.558.742c.07-2.03-.868-4.06-3.178-4.06s-3.262,1.918-3.262,3.822c0,2.058.966,3.822,3.262,3.822a2.942,2.942,0,0,0,3.15-2.59h-.882a2.189,2.189,0,0,1-2.268,1.848c-1.68,0-2.38-1.554-2.38-2.842ZM124.838,140h.882v-4.214a2.28,2.28,0,0,1,2.268-2.478c1.428,0,1.834.952,1.834,2.184V140h.882v-4.648c0-1.722-.616-2.786-2.646-2.786a2.464,2.464,0,0,0-2.31,1.456h-.028v-1.246h-.882Zm12.824-9.394h-.882v2.17h-1.26v.742h1.26v4.942c-.014,1.232.392,1.624,1.568,1.624.266,0,.518-.028.784-.028V139.3a6.841,6.841,0,0,1-.756.042c-.63-.042-.714-.378-.714-.952v-4.872h1.47v-.742h-1.47Zm2.73,9.394h.882v-4.214a2.28,2.28,0,0,1,2.268-2.478c1.428,0,1.834.952,1.834,2.184V140h.882v-4.648c0-1.722-.616-2.786-2.646-2.786a2.464,2.464,0,0,0-2.31,1.456h-.028V130h-.882Zm8.05-4.116c.154-1.316.924-2.576,2.38-2.576a2.437,2.437,0,0,1,2.3,2.576Zm5.558.742c.07-2.03-.868-4.06-3.178-4.06s-3.262,1.918-3.262,3.822c0,2.058.966,3.822,3.262,3.822a2.942,2.942,0,0,0,3.15-2.59h-.882a2.189,2.189,0,0,1-2.268,1.848c-1.68,0-2.38-1.554-2.38-2.842Zm5.082,6.048h.882v-4.046h.028a2.57,2.57,0,0,0,2.506,1.582c2.2,0,3.248-1.764,3.248-3.822s-1.05-3.822-3.248-3.822a2.669,2.669,0,0,0-2.576,1.582h-.028v-1.372h-.812Zm5.782-6.286c0,1.5-.686,3.08-2.366,3.08-1.862,0-2.534-1.582-2.534-3.08,0-1.638.574-3.08,2.534-3.08C164.178,133.308,164.864,134.89,164.864,136.388Zm5.306-3.08c1.68,0,2.534,1.554,2.534,3.08s-.854,3.08-2.534,3.08-2.534-1.554-2.534-3.08S168.49,133.308,170.17,133.308Zm0-.742c-2.2,0-3.416,1.75-3.416,3.822s1.218,3.822,3.416,3.822,3.416-1.75,3.416-3.822S172.368,132.566,170.17,132.566Zm6.132-1.96h-.882v2.17h-1.26v.742h1.26v4.942c-.014,1.232.392,1.624,1.568,1.624.266,0,.518-.028.784-.028V139.3a6.841,6.841,0,0,1-.756.042c-.63-.042-.714-.378-.714-.952v-4.872h1.47v-.742H176.3Zm3.262,5.278c.154-1.316.924-2.576,2.38-2.576a2.437,2.437,0,0,1,2.3,2.576Zm5.558.742c.07-2.03-.868-4.06-3.178-4.06s-3.262,1.918-3.262,3.822c0,2.058.966,3.822,3.262,3.822a2.942,2.942,0,0,0,3.15-2.59h-.882a2.189,2.189,0,0,1-2.268,1.848c-1.68,0-2.38-1.554-2.38-2.842ZM186.3,140h.882v-4.214a2.28,2.28,0,0,1,2.268-2.478c1.428,0,1.834.952,1.834,2.184V140h.882v-4.648c0-1.722-.616-2.786-2.646-2.786a2.464,2.464,0,0,0-2.31,1.456h-.028v-1.246H186.3Zm8.932-9.394h-.882v2.17h-1.26v.742h1.26v4.942c-.014,1.232.392,1.624,1.568,1.624.266,0,.518-.028.784-.028V139.3a6.841,6.841,0,0,1-.756.042c-.63-.042-.714-.378-.714-.952v-4.872h1.47v-.742h-1.47Zm2.758.812h.882V130h-.882Zm0,8.582h.882v-7.224h-.882Zm3.374-5.012c.042-1.176.826-1.68,1.932-1.68,1.05,0,1.89.294,1.89,1.484,0,.784-.406.91-1.134.98-1.9.224-3.878.308-3.878,2.324,0,1.456,1.078,2.114,2.422,2.114a2.754,2.754,0,0,0,2.632-1.47h.028c0,.742.14,1.26,1.036,1.26a2.5,2.5,0,0,0,.574-.056V139.2a.667.667,0,0,1-.28.056.464.464,0,0,1-.518-.532V134.89c0-1.946-1.386-2.324-2.66-2.324-1.666,0-2.828.728-2.926,2.422Zm3.822,2.212a2.322,2.322,0,0,1-2.52,2.268,1.5,1.5,0,0,1-1.61-1.428c0-1.4,1.862-1.4,3.36-1.666.238-.042.63-.112.742-.322h.028Zm2.66,2.8h.882V130h-.882Zm9.52-6.692c1.68,0,2.534,1.554,2.534,3.08s-.854,3.08-2.534,3.08-2.534-1.554-2.534-3.08S215.684,133.308,217.364,133.308Zm0-.742c-2.2,0-3.416,1.75-3.416,3.822s1.218,3.822,3.416,3.822,3.416-1.75,3.416-3.822S219.562,132.566,217.364,132.566Zm7.518.21h-1.428v-.63c0-.77,0-1.4.966-1.4a3.615,3.615,0,0,1,.644.07v-.756a4.528,4.528,0,0,0-.742-.056c-1.428,0-1.75.868-1.75,2.114v.658H221.34v.742h1.232V140h.882v-6.482h1.428Zm5.53,2.212c.042-1.176.826-1.68,1.932-1.68,1.05,0,1.89.294,1.89,1.484,0,.784-.406.91-1.134.98-1.9.224-3.878.308-3.878,2.324,0,1.456,1.078,2.114,2.422,2.114a2.754,2.754,0,0,0,2.632-1.47h.028c0,.742.14,1.26,1.036,1.26a2.5,2.5,0,0,0,.574-.056V139.2a.667.667,0,0,1-.28.056.464.464,0,0,1-.518-.532V134.89c0-1.946-1.386-2.324-2.66-2.324-1.666,0-2.828.728-2.926,2.422Zm3.822,2.212a2.322,2.322,0,0,1-2.52,2.268,1.5,1.5,0,0,1-1.61-1.428c0-1.4,1.862-1.4,3.36-1.666.238-.042.63-.112.742-.322h.028ZM2.436,158H3.4l1.764-6.076h.028L6.972,158h.966l2.324-7.224H9.324l-1.848,6.188H7.448l-1.764-6.188H4.69l-1.764,6.188H2.9L1.05,150.776H.112Zm9.3-4.116c.154-1.316.924-2.576,2.38-2.576a2.437,2.437,0,0,1,2.3,2.576Zm5.558.742c.07-2.03-.868-4.06-3.178-4.06s-3.262,1.918-3.262,3.822c0,2.058.966,3.822,3.262,3.822a2.942,2.942,0,0,0,3.15-2.59H16.38a2.189,2.189,0,0,1-2.268,1.848c-1.68,0-2.38-1.554-2.38-2.842Zm1.2,3.374h.882V148h-.882Zm2.59,0h.882V148h-.882Zm6.076-3.444v-.812h-3.5v.812Zm1.694-5.138h.882V148h-.882Zm0,8.582h.882v-7.224h-.882Zm2.562,0H32.3v-4.214a2.28,2.28,0,0,1,2.268-2.478c1.428,0,1.834.952,1.834,2.184V158h.882v-4.648c0-1.722-.616-2.786-2.646-2.786a2.464,2.464,0,0,0-2.31,1.456H32.3v-1.246h-.882Zm10.318-7.224H40.306v-.63c0-.77,0-1.4.966-1.4a3.615,3.615,0,0,1,.644.07v-.756a4.528,4.528,0,0,0-.742-.056c-1.428,0-1.75.868-1.75,2.114v.658H38.192v.742h1.232V158h.882v-6.482h1.428Zm3.892.532c1.68,0,2.534,1.554,2.534,3.08s-.854,3.08-2.534,3.08-2.534-1.554-2.534-3.08S43.946,151.308,45.626,151.308Zm0-.742c-2.2,0-3.416,1.75-3.416,3.822s1.218,3.822,3.416,3.822,3.416-1.75,3.416-3.822S47.824,150.566,45.626,150.566ZM50.358,158h.882v-3.85a2.488,2.488,0,0,1,2.688-2.59v-.882a2.653,2.653,0,0,0-2.73,1.792H51.17v-1.694h-.812Zm4.41,0h.882v-4.032c0-1.512.644-2.66,2.156-2.66,1.134,0,1.512.812,1.512,1.792V158H60.2v-4.088c0-1.344.434-2.6,1.96-2.6,1.274,0,1.708.644,1.708,1.834V158h.882v-4.9c0-1.694-.8-2.534-2.394-2.534a2.442,2.442,0,0,0-2.3,1.414,2.008,2.008,0,0,0-2.072-1.414,2.486,2.486,0,0,0-2.366,1.428H55.58v-1.218h-.812Zm12.18-4.116c.154-1.316.924-2.576,2.38-2.576a2.437,2.437,0,0,1,2.3,2.576Zm5.558.742c.07-2.03-.868-4.06-3.178-4.06s-3.262,1.918-3.262,3.822c0,2.058.966,3.822,3.262,3.822a2.942,2.942,0,0,0,3.15-2.59H71.6a2.189,2.189,0,0,1-2.268,1.848c-1.68,0-2.38-1.554-2.38-2.842ZM80.052,148H79.17v4.144h-.028a2.577,2.577,0,0,0-2.506-1.582c-2.2,0-3.248,1.764-3.248,3.822s1.05,3.822,3.248,3.822a2.837,2.837,0,0,0,2.576-1.582h.028V158h.812Zm-5.782,6.384c0-1.5.686-3.08,2.366-3.08,1.862,0,2.534,1.582,2.534,3.08s-.672,3.08-2.534,3.08C74.956,157.468,74.27,155.886,74.27,154.388ZM87.22,158h.966l1.764-6.076h.028L91.756,158h.966l2.324-7.224h-.938l-1.848,6.188h-.028l-1.764-6.188h-.994l-1.764,6.188h-.028l-1.848-6.188H84.9Zm11.83-6.692c1.68,0,2.534,1.554,2.534,3.08s-.854,3.08-2.534,3.08-2.534-1.554-2.534-3.08S97.37,151.308,99.05,151.308Zm0-.742c-2.2,0-3.416,1.75-3.416,3.822s1.218,3.822,3.416,3.822,3.416-1.75,3.416-3.822S101.248,150.566,99.05,150.566ZM103.782,158h.882v-3.85a2.488,2.488,0,0,1,2.688-2.59v-.882a2.653,2.653,0,0,0-2.73,1.792h-.028v-1.694h-.812Zm4.424,0h.882V148h-.882Zm8.932-10h-.882v4.144h-.028a2.577,2.577,0,0,0-2.506-1.582c-2.2,0-3.248,1.764-3.248,3.822s1.05,3.822,3.248,3.822a2.837,2.837,0,0,0,2.576-1.582h.028V158h.812Zm-5.782,6.384c0-1.5.686-3.08,2.366-3.08,1.862,0,2.534,1.582,2.534,3.08s-.672,3.08-2.534,3.08C112.042,157.468,111.356,155.886,111.356,154.388Zm14.854.168v-.812h-3.5v.812ZM133.378,158h.966l1.764-6.076h.028L137.914,158h.966l2.324-7.224h-.938l-1.848,6.188h-.028l-1.764-6.188h-.994l-1.764,6.188h-.028l-1.848-6.188h-.938Zm9.3-4.116c.154-1.316.924-2.576,2.38-2.576a2.437,2.437,0,0,1,2.3,2.576Zm5.558.742c.07-2.03-.868-4.06-3.178-4.06s-3.262,1.918-3.262,3.822c0,2.058.966,3.822,3.262,3.822a2.942,2.942,0,0,0,3.15-2.59h-.882a2.189,2.189,0,0,1-2.268,1.848c-1.68,0-2.38-1.554-2.38-2.842Zm5.1-5.208h.882V148h-.882Zm0,9.464c0,.6-.112,1.05-.8,1.05a2.706,2.706,0,0,1-.476-.014v.728c.21,0,.406.028.616.028,1.246,0,1.54-.924,1.54-2v-7.9h-.882Zm8.428-8.106h-.882v3.794c0,1.47-.658,2.9-2.17,2.9-1.4,0-1.89-.686-1.932-1.988v-4.7h-.882v4.69c0,1.694.7,2.744,2.534,2.744a2.687,2.687,0,0,0,2.492-1.512h.028V158h.812Zm6.874,2.114a2.368,2.368,0,0,0-2.646-2.324c-1.274,0-2.716.56-2.716,2.03,0,1.218.868,1.638,2.016,1.932l1.134.252c.8.2,1.582.476,1.582,1.316,0,1.008-1.134,1.372-1.974,1.372a1.9,1.9,0,0,1-2.128-1.806h-.882c.154,1.778,1.274,2.548,2.968,2.548,1.344,0,2.9-.6,2.9-2.17a2.117,2.117,0,0,0-2.058-2l-1.176-.266c-.616-.154-1.5-.448-1.5-1.218,0-.938.924-1.246,1.708-1.246a1.663,1.663,0,0,1,1.89,1.582Zm2.926-4.284h-.882v2.17h-1.26v.742h1.26v4.942c-.014,1.232.392,1.624,1.568,1.624.266,0,.518-.028.784-.028V157.3a6.841,6.841,0,0,1-.756.042c-.63-.042-.714-.378-.714-.952v-4.872h1.47v-.742h-1.47ZM178.192,158h.882v-3.85a2.488,2.488,0,0,1,2.688-2.59v-.882a2.653,2.653,0,0,0-2.73,1.792H179v-1.694h-.812Zm4.676-4.116c.154-1.316.924-2.576,2.38-2.576a2.437,2.437,0,0,1,2.3,2.576Zm5.558.742c.07-2.03-.868-4.06-3.178-4.06s-3.262,1.918-3.262,3.822c0,2.058.966,3.822,3.262,3.822a2.942,2.942,0,0,0,3.15-2.59h-.882a2.189,2.189,0,0,1-2.268,1.848c-1.68,0-2.38-1.554-2.38-2.842Zm1.19,6.048h.882v-4.046h.028a2.57,2.57,0,0,0,2.506,1.582c2.2,0,3.248-1.764,3.248-3.822s-1.05-3.822-3.248-3.822a2.669,2.669,0,0,0-2.576,1.582h-.028v-1.372h-.812Zm5.782-6.286c0,1.5-.686,3.08-2.366,3.08-1.862,0-2.534-1.582-2.534-3.08,0-1.638.574-3.08,2.534-3.08C194.712,151.308,195.4,152.89,195.4,154.388Zm5.306-3.08c1.68,0,2.534,1.554,2.534,3.08s-.854,3.08-2.534,3.08-2.534-1.554-2.534-3.08S199.024,151.308,200.7,151.308Zm0-.742c-2.2,0-3.416,1.75-3.416,3.822s1.218,3.822,3.416,3.822,3.416-1.75,3.416-3.822S202.9,150.566,200.7,150.566ZM205.436,158h.882v-3.85a2.488,2.488,0,0,1,2.688-2.59v-.882a2.653,2.653,0,0,0-2.73,1.792h-.028v-1.694h-.812Zm5.81-9.394h-.882v2.17H209.1v.742h1.26v4.942c-.014,1.232.392,1.624,1.568,1.624.266,0,.518-.028.784-.028V157.3a6.841,6.841,0,0,1-.756.042c-.63-.042-.714-.378-.714-.952v-4.872h1.47v-.742h-1.47Zm8.036,0H218.4v2.17h-1.26v.742h1.26v4.942c-.014,1.232.392,1.624,1.568,1.624.266,0,.518-.028.784-.028V157.3a6.841,6.841,0,0,1-.756.042c-.63-.042-.714-.378-.714-.952v-4.872h1.47v-.742h-1.47Zm2.73,9.394h.882v-4.214a2.28,2.28,0,0,1,2.268-2.478c1.428,0,1.834.952,1.834,2.184V158h.882v-4.648c0-1.722-.616-2.786-2.646-2.786a2.464,2.464,0,0,0-2.31,1.456h-.028V148h-.882Zm8.05-4.116c.154-1.316.924-2.576,2.38-2.576a2.437,2.437,0,0,1,2.3,2.576Zm5.558.742c.07-2.03-.868-4.06-3.178-4.06s-3.262,1.918-3.262,3.822c0,2.058.966,3.822,3.262,3.822a2.942,2.942,0,0,0,3.15-2.59h-.882a2.189,2.189,0,0,1-2.268,1.848c-1.68,0-2.38-1.554-2.38-2.842ZM3.626,168.776H2.2v-.63c0-.77,0-1.4.966-1.4a3.615,3.615,0,0,1,.644.07v-.756A4.528,4.528,0,0,0,3.066,166c-1.428,0-1.75.868-1.75,2.114v.658H.084v.742H1.316V176H2.2v-6.482H3.626Zm1.638,2.212c.042-1.176.826-1.68,1.932-1.68,1.05,0,1.89.294,1.89,1.484,0,.784-.406.91-1.134.98-1.9.224-3.878.308-3.878,2.324,0,1.456,1.078,2.114,2.422,2.114a2.754,2.754,0,0,0,2.632-1.47h.028c0,.742.14,1.26,1.036,1.26a2.5,2.5,0,0,0,.574-.056V175.2a.667.667,0,0,1-.28.056.464.464,0,0,1-.518-.532V170.89c0-1.946-1.386-2.324-2.66-2.324-1.666,0-2.828.728-2.926,2.422ZM9.086,173.2a2.322,2.322,0,0,1-2.52,2.268,1.5,1.5,0,0,1-1.61-1.428c0-1.4,1.862-1.4,3.36-1.666.238-.042.63-.112.742-.322h.028Zm8.624-2.156a2.691,2.691,0,0,0-2.926-2.478c-2.2,0-3.416,1.75-3.416,3.822s1.218,3.822,3.416,3.822a2.922,2.922,0,0,0,2.982-2.8h-.882a2.173,2.173,0,0,1-2.1,2.058c-1.68,0-2.534-1.554-2.534-3.08s.854-3.08,2.534-3.08a1.955,1.955,0,0,1,2.044,1.736Zm2.688-4.438h-.882v2.17h-1.26v.742h1.26v4.942c-.014,1.232.392,1.624,1.568,1.624.266,0,.518-.028.784-.028V175.3a6.841,6.841,0,0,1-.756.042c-.63-.042-.714-.378-.714-.952v-4.872h1.47v-.742H20.4Zm7.952,4.284a2.368,2.368,0,0,0-2.646-2.324c-1.274,0-2.716.56-2.716,2.03,0,1.218.868,1.638,2.016,1.932l1.134.252c.8.2,1.582.476,1.582,1.316,0,1.008-1.134,1.372-1.974,1.372a1.9,1.9,0,0,1-2.128-1.806h-.882c.154,1.778,1.274,2.548,2.968,2.548,1.344,0,2.9-.6,2.9-2.17a2.117,2.117,0,0,0-2.058-2l-1.176-.266c-.616-.154-1.5-.448-1.5-1.218,0-.938.924-1.246,1.708-1.246a1.663,1.663,0,0,1,1.89,1.582Zm6.216.1c.042-1.176.826-1.68,1.932-1.68,1.05,0,1.89.294,1.89,1.484,0,.784-.406.91-1.134.98-1.9.224-3.878.308-3.878,2.324,0,1.456,1.078,2.114,2.422,2.114a2.754,2.754,0,0,0,2.632-1.47h.028c0,.742.14,1.26,1.036,1.26a2.5,2.5,0,0,0,.574-.056V175.2a.667.667,0,0,1-.28.056.464.464,0,0,1-.518-.532V170.89c0-1.946-1.386-2.324-2.66-2.324-1.666,0-2.828.728-2.926,2.422Zm3.822,2.212a2.322,2.322,0,0,1-2.52,2.268,1.5,1.5,0,0,1-1.61-1.428c0-1.4,1.862-1.4,3.36-1.666.238-.042.63-.112.742-.322h.028ZM41.02,176H41.9v-4.214a2.28,2.28,0,0,1,2.268-2.478c1.428,0,1.834.952,1.834,2.184V176h.882v-4.648c0-1.722-.616-2.786-2.646-2.786a2.464,2.464,0,0,0-2.31,1.456H41.9v-1.246H41.02Zm13.888-10h-.882v4.144H54a2.577,2.577,0,0,0-2.506-1.582c-2.2,0-3.248,1.764-3.248,3.822s1.05,3.822,3.248,3.822a2.837,2.837,0,0,0,2.576-1.582H54.1V176h.812Zm-5.782,6.384c0-1.5.686-3.08,2.366-3.08,1.862,0,2.534,1.582,2.534,3.08s-.672,3.08-2.534,3.08C49.812,175.468,49.126,173.886,49.126,172.388Zm13.426,3.584-.308.826c-.294.672-.476,1.134-1.26,1.134a2.942,2.942,0,0,1-.6-.07v.742a2.354,2.354,0,0,0,.672.07c1.106,0,1.386-.35,1.9-1.568l3.136-8.33h-.882l-2.226,6.16-2.38-6.16h-.938Zm7.462-6.664c1.68,0,2.534,1.554,2.534,3.08s-.854,3.08-2.534,3.08-2.534-1.554-2.534-3.08S68.334,169.308,70.014,169.308Zm0-.742c-2.2,0-3.416,1.75-3.416,3.822s1.218,3.822,3.416,3.822,3.416-1.75,3.416-3.822S72.212,168.566,70.014,168.566Zm10.584.21h-.882v3.794c0,1.47-.658,2.9-2.17,2.9-1.4,0-1.89-.686-1.932-1.988v-4.7h-.882v4.69c0,1.694.7,2.744,2.534,2.744a2.687,2.687,0,0,0,2.492-1.512h.028V176H80.6ZM86.156,176h.882v-4.032c0-1.512.644-2.66,2.156-2.66,1.134,0,1.512.812,1.512,1.792V176h.882v-4.088c0-1.344.434-2.6,1.96-2.6,1.274,0,1.708.644,1.708,1.834V176h.882v-4.9c0-1.694-.8-2.534-2.394-2.534a2.442,2.442,0,0,0-2.3,1.414,2.008,2.008,0,0,0-2.072-1.414,2.486,2.486,0,0,0-2.366,1.428h-.042v-1.218h-.812Zm12.46-5.012c.042-1.176.826-1.68,1.932-1.68,1.05,0,1.89.294,1.89,1.484,0,.784-.406.91-1.134.98-1.9.224-3.878.308-3.878,2.324,0,1.456,1.078,2.114,2.422,2.114a2.754,2.754,0,0,0,2.632-1.47h.028c0,.742.14,1.26,1.036,1.26a2.5,2.5,0,0,0,.574-.056V175.2a.667.667,0,0,1-.28.056.464.464,0,0,1-.518-.532V170.89c0-1.946-1.386-2.324-2.66-2.324-1.666,0-2.828.728-2.926,2.422Zm3.822,2.212a2.322,2.322,0,0,1-2.52,2.268,1.5,1.5,0,0,1-1.61-1.428c0-1.4,1.862-1.4,3.36-1.666.238-.042.63-.112.742-.322h.028Zm2.646,2.8h.882v-2.744l1.428-1.19L110.25,176h1.106l-3.29-4.55,3.08-2.674H109.97l-4,3.5V166h-.882Zm7.518-4.116c.154-1.316.924-2.576,2.38-2.576a2.437,2.437,0,0,1,2.3,2.576Zm5.558.742c.07-2.03-.868-4.06-3.178-4.06s-3.262,1.918-3.262,3.822c0,2.058.966,3.822,3.262,3.822a2.942,2.942,0,0,0,3.15-2.59h-.882a2.189,2.189,0,0,1-2.268,1.848c-1.68,0-2.38-1.554-2.38-2.842Zm7.154,3.346-.308.826c-.294.672-.476,1.134-1.26,1.134a2.942,2.942,0,0,1-.6-.07v.742a2.354,2.354,0,0,0,.672.07c1.106,0,1.386-.35,1.9-1.568l3.136-8.33h-.882l-2.226,6.16-2.38-6.16h-.938Zm7.462-6.664c1.68,0,2.534,1.554,2.534,3.08s-.854,3.08-2.534,3.08-2.534-1.554-2.534-3.08S131.1,169.308,132.776,169.308Zm0-.742c-2.2,0-3.416,1.75-3.416,3.822s1.218,3.822,3.416,3.822,3.416-1.75,3.416-3.822S134.974,168.566,132.776,168.566Zm10.584.21h-.882v3.794c0,1.47-.658,2.9-2.17,2.9-1.4,0-1.89-.686-1.932-1.988v-4.7h-.882v4.69c0,1.694.7,2.744,2.534,2.744a2.687,2.687,0,0,0,2.492-1.512h.028V176h.812ZM145.026,176h.882v-3.85a2.488,2.488,0,0,1,2.688-2.59v-.882a2.653,2.653,0,0,0-2.73,1.792h-.028v-1.694h-.812Zm11.354-6.692c1.68,0,2.534,1.554,2.534,3.08s-.854,3.08-2.534,3.08-2.534-1.554-2.534-3.08S154.7,169.308,156.38,169.308Zm0-.742c-2.2,0-3.416,1.75-3.416,3.822s1.218,3.822,3.416,3.822,3.416-1.75,3.416-3.822S158.578,168.566,156.38,168.566ZM162.708,176h.966l1.764-6.076h.028L167.244,176h.966l2.324-7.224H169.6l-1.848,6.188h-.028l-1.764-6.188h-.994l-1.764,6.188h-.028l-1.848-6.188h-.938Zm8.764,0h.882v-4.214a2.28,2.28,0,0,1,2.268-2.478c1.428,0,1.834.952,1.834,2.184V176h.882v-4.648c0-1.722-.616-2.786-2.646-2.786a2.464,2.464,0,0,0-2.31,1.456h-.028v-1.246h-.882Zm17.78-10h-.882v4.144h-.028a2.577,2.577,0,0,0-2.506-1.582c-2.2,0-3.248,1.764-3.248,3.822s1.05,3.822,3.248,3.822a2.837,2.837,0,0,0,2.576-1.582h.028V176h.812Zm-5.782,6.384c0-1.5.686-3.08,2.366-3.08,1.862,0,2.534,1.582,2.534,3.08s-.672,3.08-2.534,3.08C184.156,175.468,183.47,173.886,183.47,172.388Zm7.98-.5c.154-1.316.924-2.576,2.38-2.576a2.437,2.437,0,0,1,2.3,2.576Zm5.558.742c.07-2.03-.868-4.06-3.178-4.06s-3.262,1.918-3.262,3.822c0,2.058.966,3.822,3.262,3.822a2.942,2.942,0,0,0,3.15-2.59H196.1a2.189,2.189,0,0,1-2.268,1.848c-1.68,0-2.38-1.554-2.38-2.842Zm7.168-1.582a2.691,2.691,0,0,0-2.926-2.478c-2.2,0-3.416,1.75-3.416,3.822s1.218,3.822,3.416,3.822a2.922,2.922,0,0,0,2.982-2.8h-.882a2.173,2.173,0,0,1-2.1,2.058c-1.68,0-2.534-1.554-2.534-3.08s.854-3.08,2.534-3.08a1.955,1.955,0,0,1,2.044,1.736Zm1.3-3.626h.882V166h-.882Zm0,8.582h.882v-7.224h-.882Zm7.784-5.11a2.368,2.368,0,0,0-2.646-2.324c-1.274,0-2.716.56-2.716,2.03,0,1.218.868,1.638,2.016,1.932l1.134.252c.8.2,1.582.476,1.582,1.316,0,1.008-1.134,1.372-1.974,1.372a1.9,1.9,0,0,1-2.128-1.806h-.882c.154,1.778,1.274,2.548,2.968,2.548,1.344,0,2.9-.6,2.9-2.17a2.117,2.117,0,0,0-2.058-2l-1.176-.266c-.616-.154-1.5-.448-1.5-1.218,0-.938.924-1.246,1.708-1.246a1.663,1.663,0,0,1,1.89,1.582Zm1.54-3.472h.882V166H214.8Zm0,8.582h.882v-7.224H214.8Zm5.628-6.692c1.68,0,2.534,1.554,2.534,3.08s-.854,3.08-2.534,3.08-2.534-1.554-2.534-3.08S218.75,169.308,220.43,169.308Zm0-.742c-2.2,0-3.416,1.75-3.416,3.822s1.218,3.822,3.416,3.822,3.416-1.75,3.416-3.822S222.628,168.566,220.43,168.566ZM225.148,176h.882v-4.214a2.28,2.28,0,0,1,2.268-2.478c1.428,0,1.834.952,1.834,2.184V176h.882v-4.648c0-1.722-.616-2.786-2.646-2.786a2.464,2.464,0,0,0-2.31,1.456h-.028v-1.246h-.882Zm12.74-5.11a2.368,2.368,0,0,0-2.646-2.324c-1.274,0-2.716.56-2.716,2.03,0,1.218.868,1.638,2.016,1.932l1.134.252c.8.2,1.582.476,1.582,1.316,0,1.008-1.134,1.372-1.974,1.372a1.9,1.9,0,0,1-2.128-1.806h-.882c.154,1.778,1.274,2.548,2.968,2.548,1.344,0,2.9-.6,2.9-2.17a2.117,2.117,0,0,0-2.058-2l-1.176-.266c-.616-.154-1.5-.448-1.5-1.218,0-.938.924-1.246,1.708-1.246a1.663,1.663,0,0,1,1.89,1.582Zm3.22,5.11v-1.484h-1.176V176ZM1.008,212H7.98v-.812H1.96V207.24H7.532v-.812H1.96v-3.612H7.91V202h-6.9Zm10.108,0h.938l2.7-7.224h-.91l-2.24,6.342h-.028L9.31,204.776H8.33Zm7.56-6.692c1.68,0,2.534,1.554,2.534,3.08s-.854,3.08-2.534,3.08-2.534-1.554-2.534-3.08S17,205.308,18.676,205.308Zm0-.742c-2.2,0-3.416,1.75-3.416,3.822s1.218,3.822,3.416,3.822,3.416-1.75,3.416-3.822S20.874,204.566,18.676,204.566ZM23.422,212H24.3V202h-.882Zm4.55,0h.938l2.7-7.224H30.7l-2.24,6.342h-.028l-2.268-6.342h-.98ZM33,207.884c.154-1.316.924-2.576,2.38-2.576a2.437,2.437,0,0,1,2.3,2.576Zm5.558.742c.07-2.03-.868-4.06-3.178-4.06s-3.262,1.918-3.262,3.822c0,2.058.966,3.822,3.262,3.822a2.942,2.942,0,0,0,3.15-2.59h-.882a2.189,2.189,0,0,1-2.268,1.848c-1.68,0-2.38-1.554-2.38-2.842ZM45.234,212H46.2l1.764-6.076h.028L49.77,212h.966l2.324-7.224h-.938l-1.848,6.188h-.028l-1.764-6.188h-.994l-1.764,6.188H45.7l-1.848-6.188H42.91Zm8.792-8.582h.882V202h-.882Zm0,8.582h.882v-7.224h-.882ZM58,202.606H57.12v2.17H55.86v.742h1.26v4.942c-.014,1.232.392,1.624,1.568,1.624.266,0,.518-.028.784-.028V211.3a6.841,6.841,0,0,1-.756.042c-.63-.042-.714-.378-.714-.952v-4.872h1.47v-.742H58ZM60.732,212h.882v-4.214a2.28,2.28,0,0,1,2.268-2.478c1.428,0,1.834.952,1.834,2.184V212H66.6v-4.648c0-1.722-.616-2.786-2.646-2.786a2.464,2.464,0,0,0-2.31,1.456h-.028V202h-.882Zm17.276-7.224h-.882v3.794c0,1.47-.658,2.9-2.17,2.9-1.4,0-1.89-.686-1.932-1.988v-4.7h-.882v4.69c0,1.694.7,2.744,2.534,2.744a2.687,2.687,0,0,0,2.492-1.512H77.2V212h.812Zm6.874,2.114a2.368,2.368,0,0,0-2.646-2.324c-1.274,0-2.716.56-2.716,2.03,0,1.218.868,1.638,2.016,1.932l1.134.252c.8.2,1.582.476,1.582,1.316,0,1.008-1.134,1.372-1.974,1.372a1.9,1.9,0,0,1-2.128-1.806h-.882c.154,1.778,1.274,2.548,2.968,2.548,1.344,0,2.9-.6,2.9-2.17a2.117,2.117,0,0,0-2.058-2l-1.176-.266c-.616-.154-1.5-.448-1.5-1.218,0-.938.924-1.246,1.708-1.246A1.663,1.663,0,0,1,84,206.89ZM88.1,212v-1.484H86.926V212Z" transform="translate(7931.264 -11656.072)"/>
    <path id="Path_328" data-name="Path 328" d="M1.72-11.54a1.442,1.442,0,0,0-.44-.79,1.694,1.694,0,0,0-.98-.21v-.66H5.32v.66h-.9a.723.723,0,0,0-.37.07.273.273,0,0,0-.11.25,1.641,1.641,0,0,0,.06.36L6.34-2.74h.08L8.96-12.92h1.58l2.74,10.2h.1l2.18-8.88a4.63,4.63,0,0,0,.12-.62.277.277,0,0,0-.11-.24.694.694,0,0,0-.39-.08H14.04v-.66h4.2v.66a1.653,1.653,0,0,0-1.18.35,2.819,2.819,0,0,0-.6,1.31L13.52,0H11.74L9.12-9.56H9.04L6.56,0H4.78Zm24.7,6.96h-6a5.059,5.059,0,0,0,.66,2.62,2.246,2.246,0,0,0,2.02.9,2.75,2.75,0,0,0,1.62-.45,3.04,3.04,0,0,0,1.02-1.35l.62.36a4.869,4.869,0,0,1-1.4,1.96,4.181,4.181,0,0,1-2.7.74q-4.3,0-4.3-4.86a5.462,5.462,0,0,1,1.09-3.7A4.021,4.021,0,0,1,22.24-9.6a3.782,3.782,0,0,1,3.19,1.28,5.55,5.55,0,0,1,.99,3.48Zm-2.44-.8a7.708,7.708,0,0,0-.32-2.6,1.289,1.289,0,0,0-1.34-.82,1.515,1.515,0,0,0-1.43.82,5.942,5.942,0,0,0-.49,2.6ZM27.86-.66a3.011,3.011,0,0,0,.87-.09.524.524,0,0,0,.35-.29,1.782,1.782,0,0,0,.08-.62V-11.72a1.57,1.57,0,0,0-.12-.75.5.5,0,0,0-.46-.19h-.6v-.68l2.94-.46h.56V-1.66a1.68,1.68,0,0,0,.09.63.524.524,0,0,0,.36.29,3.158,3.158,0,0,0,.83.08V0h-4.9ZM38.38.2A4.269,4.269,0,0,1,35.13-.99,5.073,5.073,0,0,1,34-4.6a5.282,5.282,0,0,1,1.18-3.75,4.452,4.452,0,0,1,3.4-1.25,5.14,5.14,0,0,1,2.06.36,2.687,2.687,0,0,1,1.2.93,2.175,2.175,0,0,1,.38,1.23,1.343,1.343,0,0,1-.31.94,1.093,1.093,0,0,1-.85.34,1.063,1.063,0,0,1-.83-.32,1.174,1.174,0,0,1-.29-.82,1.22,1.22,0,0,1,.09-.5q.09-.2.11-.24a.846.846,0,0,0,.14-.4.591.591,0,0,0-.36-.52,2.18,2.18,0,0,0-1.04-.2,2.14,2.14,0,0,0-1.8.8,4.94,4.94,0,0,0-.62,2.9,5.638,5.638,0,0,0,.66,3.06,2.272,2.272,0,0,0,2.04,1,2.464,2.464,0,0,0,1.71-.52,4.462,4.462,0,0,0,.97-1.32l.5.3A4.275,4.275,0,0,1,40.97-.51,4.13,4.13,0,0,1,38.38.2ZM48.5.2A4.69,4.69,0,0,1,44.97-.98a5.2,5.2,0,0,1-1.13-3.7,5.281,5.281,0,0,1,1.14-3.73,4.683,4.683,0,0,1,3.56-1.21,4.6,4.6,0,0,1,3.5,1.19,5.265,5.265,0,0,1,1.12,3.71A5.267,5.267,0,0,1,52.03-.99,4.666,4.666,0,0,1,48.5.2Zm0-.8a1.764,1.764,0,0,0,1.68-.98A6.708,6.708,0,0,0,50.7-4.6a7.162,7.162,0,0,0-.54-3.2,1.78,1.78,0,0,0-1.68-1.02,1.766,1.766,0,0,0-1.67.99,6.955,6.955,0,0,0-.53,3.13,6.887,6.887,0,0,0,.53,3.12A1.785,1.785,0,0,0,48.5-.6ZM70.32-1.66a1.669,1.669,0,0,0,.09.64.526.526,0,0,0,.35.28,3.248,3.248,0,0,0,.86.08V0H66.88V-.66a3.925,3.925,0,0,0,.76-.05.4.4,0,0,0,.3-.23,1.682,1.682,0,0,0,.08-.62v-4.8a2.083,2.083,0,0,0-.45-1.44,1.621,1.621,0,0,0-1.27-.5,2.132,2.132,0,0,0-1.05.26,3.1,3.1,0,0,0-.91.82v5.56a1.873,1.873,0,0,0,.08.63.483.483,0,0,0,.32.29,2.519,2.519,0,0,0,.74.08V0h-4.6V-.66a3.925,3.925,0,0,0,.76-.05.432.432,0,0,0,.31-.23,1.51,1.51,0,0,0,.09-.62v-4.8a2.083,2.083,0,0,0-.45-1.44,1.672,1.672,0,0,0-1.31-.5,2.444,2.444,0,0,0-1.92.9v5.84a1.51,1.51,0,0,0,.09.62.432.432,0,0,0,.31.23,3.631,3.631,0,0,0,.72.05V0H54.74V-.66a3.248,3.248,0,0,0,.86-.08.492.492,0,0,0,.34-.28,1.861,1.861,0,0,0,.08-.64V-7.44a1.51,1.51,0,0,0-.12-.73.479.479,0,0,0-.44-.19h-.6v-.68l2.88-.46h.56v1.24a6.256,6.256,0,0,1,1.66-.99,4.545,4.545,0,0,1,1.68-.35,2.867,2.867,0,0,1,1.61.44,2.354,2.354,0,0,1,.93,1.08,4.835,4.835,0,0,1,1.59-1.1,4.644,4.644,0,0,1,1.89-.42,2.514,2.514,0,0,1,1.96.77,3.111,3.111,0,0,1,.7,2.17ZM81.2-4.58h-6a5.059,5.059,0,0,0,.66,2.62,2.246,2.246,0,0,0,2.02.9,2.75,2.75,0,0,0,1.62-.45,3.04,3.04,0,0,0,1.02-1.35l.62.36a4.869,4.869,0,0,1-1.4,1.96,4.181,4.181,0,0,1-2.7.74q-4.3,0-4.3-4.86a5.462,5.462,0,0,1,1.09-3.7A4.021,4.021,0,0,1,77.02-9.6a3.782,3.782,0,0,1,3.19,1.28,5.55,5.55,0,0,1,.99,3.48Zm-2.44-.8a7.708,7.708,0,0,0-.32-2.6A1.289,1.289,0,0,0,77.1-8.8a1.515,1.515,0,0,0-1.43.82,5.942,5.942,0,0,0-.49,2.6ZM90.5.22a2.347,2.347,0,0,1-1.72-.61,2.318,2.318,0,0,1-.62-1.73V-8.6H86.98v-.66a3.271,3.271,0,0,0,1.66-1.11,5.921,5.921,0,0,0,.98-2.17h.84V-9.4H92.6v.8H90.46v5.78a2.179,2.179,0,0,0,.34,1.34,1.255,1.255,0,0,0,1.06.44,2.481,2.481,0,0,0,1-.2l.22.5a10.034,10.034,0,0,1-1.27.72A3.172,3.172,0,0,1,90.5.22ZM98.68.2A4.69,4.69,0,0,1,95.15-.98a5.2,5.2,0,0,1-1.13-3.7,5.281,5.281,0,0,1,1.14-3.73,4.683,4.683,0,0,1,3.56-1.21,4.6,4.6,0,0,1,3.5,1.19,5.265,5.265,0,0,1,1.12,3.71,5.267,5.267,0,0,1-1.13,3.73A4.666,4.666,0,0,1,98.68.2Zm0-.8a1.764,1.764,0,0,0,1.68-.98,6.708,6.708,0,0,0,.52-3.02,7.162,7.162,0,0,0-.54-3.2,1.78,1.78,0,0,0-1.68-1.02,1.766,1.766,0,0,0-1.67.99,6.955,6.955,0,0,0-.53,3.13,6.887,6.887,0,0,0,.53,3.12A1.785,1.785,0,0,0,98.68-.6ZM110.7-11.54a2.512,2.512,0,0,0-.28-.62.785.785,0,0,0-.42-.29,2.746,2.746,0,0,0-.8-.09v-.66h5.24v.66h-.88q-.48,0-.48.36a1.027,1.027,0,0,0,.06.32l3.08,9.32h.1l2.92-9.06a1.919,1.919,0,0,0,.12-.56.339.339,0,0,0-.12-.29.638.638,0,0,0-.38-.09h-.96v-.66h4.14v.66a1.919,1.919,0,0,0-1.06.24,1.652,1.652,0,0,0-.58.84L116.34,0H114.6ZM125.98.2a4.69,4.69,0,0,1-3.53-1.18,5.2,5.2,0,0,1-1.13-3.7,5.281,5.281,0,0,1,1.14-3.73,4.683,4.683,0,0,1,3.56-1.21,4.6,4.6,0,0,1,3.5,1.19,5.265,5.265,0,0,1,1.12,3.71,5.267,5.267,0,0,1-1.13,3.73A4.666,4.666,0,0,1,125.98.2Zm0-.8a1.764,1.764,0,0,0,1.68-.98,6.708,6.708,0,0,0,.52-3.02,7.162,7.162,0,0,0-.54-3.2,1.78,1.78,0,0,0-1.68-1.02,1.766,1.766,0,0,0-1.67.99,6.955,6.955,0,0,0-.53,3.13,6.887,6.887,0,0,0,.53,3.12A1.785,1.785,0,0,0,125.98-.6Zm5.66-.06a3.011,3.011,0,0,0,.87-.09.524.524,0,0,0,.35-.29,1.782,1.782,0,0,0,.08-.62V-11.72a1.57,1.57,0,0,0-.12-.75.5.5,0,0,0-.46-.19h-.6v-.68l2.94-.46h.56V-1.66a1.68,1.68,0,0,0,.09.63.524.524,0,0,0,.36.29,3.158,3.158,0,0,0,.83.08V0h-4.9ZM138.34-8a1.181,1.181,0,0,0-.43-.59,1.81,1.81,0,0,0-.87-.15V-9.4h4.6v.66h-.7q-.38,0-.38.3a1.1,1.1,0,0,0,.04.24l2.28,5.98h.06l2.1-5.94a1.757,1.757,0,0,0,.04-.26q0-.32-.4-.32h-.78V-9.4h3.64v.66a1.606,1.606,0,0,0-.88.18,1.353,1.353,0,0,0-.44.64L142.96,0h-1.48Z" transform="translate(7931.264 -11678.072)"/>
  </g>
</svg>
