<svg xmlns="http://www.w3.org/2000/svg" width="244.473" height="101.461" viewBox="0 0 244.473 101.461">
  <g id="Group_960" data-name="Group 960" transform="translate(0.5 0.612)">
    <g id="Group_31" data-name="Group 31" transform="translate(0 0)">
      <g id="Group_30" data-name="Group 30" transform="translate(0 0)">
        <path id="Union_1" data-name="Union 1" d="M95.389,97.911a33.427,33.427,0,0,1-10.482-6.628,30.094,30.094,0,0,1-6.965-9.808,29.033,29.033,0,0,1-2.5-11.969,28.69,28.69,0,0,1,2.5-11.836,30.114,30.114,0,0,1,6.964-9.8A34.528,34.528,0,0,1,95.4,41.17a35.263,35.263,0,0,1,26.1,0,34.624,34.624,0,0,1,10.483,6.7,30.215,30.215,0,0,1,6.964,9.808,28.732,28.732,0,0,1,2.5,11.833,29.1,29.1,0,0,1-2.508,11.973,30.18,30.18,0,0,1-6.964,9.8A33.473,33.473,0,0,1,121.5,97.914a36.19,36.19,0,0,1-26.107,0ZM100.2,43.062a14.647,14.647,0,0,0-4.4,6.562,34.832,34.832,0,0,0-1.763,9.262Q93.7,64.1,93.7,69.505t.339,10.686a35.065,35.065,0,0,0,1.755,9.332,14.688,14.688,0,0,0,4.4,6.562q2.972,2.5,8.251,2.5t8.252-2.5a14.706,14.706,0,0,0,4.393-6.562,34.872,34.872,0,0,0,1.763-9.332q.334-5.273.339-10.686T122.85,58.89a34.717,34.717,0,0,0-1.756-9.266,14.74,14.74,0,0,0-4.4-6.558q-2.974-2.5-8.252-2.5T100.2,43.062ZM216.281,98.6h-13.5L175.859,38.812h18.262l15.409,34.7,15.411-34.7H243.2L216.291,98.576v.02Zm-66.489-.03V1.932h-9.063V.04h25.562V98.566Zm-111.557,0L10.744,26.347v0a2.163,2.163,0,0,0-2.035-1.433H2.164A2.157,2.157,0,0,1,.246,23.736,2.128,2.128,0,0,1,0,22.752a2.154,2.154,0,0,1,.941-1.783l.026-.02L25.9,3.921l.011-.007a1.771,1.771,0,0,1,.5-.226,1.809,1.809,0,0,1,.486-.077,1.784,1.784,0,0,1,1.48,2.777c.12-.173-1.134,2.1-2.125,3.9a2.167,2.167,0,0,0-.247,1,2.141,2.141,0,0,0,.15.788L51.123,77.461l6.313-19.067,3.8-11.507c.02-.06.044-.123.063-.183a37.143,37.143,0,0,0,.506-21.385,37.985,37.985,0,0,0-1.267-3.788c-.063-.163-.126-.326-.194-.486a5.663,5.663,0,0,0-9.119-1.739l0-.007a2.183,2.183,0,0,1-.682.476.031.031,0,0,0-.014.007,1.855,1.855,0,0,1-.358.113.39.39,0,0,1-.057.017,2.14,2.14,0,0,1-2.355-1.131l-.023.02.014-.05a2.083,2.083,0,0,1-.237-.951,2.16,2.16,0,0,1,.949-1.789L48.479,16l3.972-2.714,1.962-1.34.362-.246,1.65-1.127,15-10.247a1.9,1.9,0,0,1,2.571.406,37.035,37.035,0,0,1-.473,46.2l-.016.033-.017.043-10.8,14.7-.183.249.014.01A164.3,164.3,0,0,0,52.354,80.018L45,98.566Z" stroke="rgba(0,0,0,0)" stroke-width="1"/>
      </g>
    </g>
  </g>
</svg>
