<svg xmlns="http://www.w3.org/2000/svg" xmlns:xlink="http://www.w3.org/1999/xlink" width="388.038" height="415.898" viewBox="0 0 388.038 415.898">
  <defs>
    <filter id="Path_250" x="0" y="0" width="388.038" height="415.898" filterUnits="userSpaceOnUse">
      <feOffset dy="25" input="SourceAlpha"/>
      <feGaussianBlur stdDeviation="15" result="blur"/>
      <feFlood flood-opacity="0.2"/>
      <feComposite operator="in" in2="blur"/>
      <feComposite in="SourceGraphic"/>
    </filter>
    <linearGradient id="linear-gradient" x1="0.5" x2="0.5" y2="1" gradientUnits="objectBoundingBox">
      <stop offset="0" stop-color="#ecebec"/>
      <stop offset="1" stop-color="#d4d3d4"/>
    </linearGradient>
  </defs>
  <g id="Group_970" data-name="Group 970" transform="translate(-7864 11757)">
    <g transform="matrix(1, 0, 0, 1, 7864, -11757)" filter="url(#Path_250)">
      <g id="Path_250-2" data-name="Path 250" transform="translate(46 21)" fill="#fff">
        <path d="M2.5,0H293.535c1.383,0,2.5,1.763,2.5,3.938V319.96c0,2.175-1.121,3.938-2.5,3.938H2.5c-1.383,0-2.5-1.763-2.5-3.938V3.938C0,1.763,1.121,0,2.5,0Z" stroke="none"/>
        <path d="M 2.503448486328125 0 C 1.120849609375 0 0 1.763092041015625 0 3.937957763671875 L 0 319.9603576660156 C 0 322.1353759765625 1.120849609375 323.8984375 2.503448486328125 323.8984375 L 293.53466796875 323.8984375 C 294.9173278808594 323.8984375 296.0381774902344 322.1353759765625 296.0381774902344 319.9603576660156 L 296.0381774902344 3.937957763671875 C 296.0381774902344 1.763092041015625 294.9173278808594 0 293.53466796875 0 L 2.503448486328125 0 M 2.503448486328125 -1 L 293.53466796875 -1 C 295.499267578125 -1 297.0381774902344 1.16900634765625 297.0381774902344 3.937957763671875 L 297.0381774902344 319.9603576660156 C 297.0381774902344 322.7293395996094 295.499267578125 324.8984375 293.53466796875 324.8984375 L 2.503448486328125 324.8984375 C 0.538909912109375 324.8984375 -1 322.7293395996094 -1 319.9603576660156 L -1 3.937957763671875 C -1 1.16900634765625 0.538909912109375 -1 2.503448486328125 -1 Z" stroke="none" fill="rgba(0,0,0,0.1)"/>
      </g>
    </g>
    <g id="Title_bar" data-name="Title bar" transform="translate(7910.264 -11736.072)">
      <path id="Rectangle_210" data-name="Rectangle 210" d="M4,0H293a4,4,0,0,1,4,4V14a0,0,0,0,1,0,0H0a0,0,0,0,1,0,0V4A4,4,0,0,1,4,0Z" fill="url(#linear-gradient)"/>
      <g id="Path_46" data-name="Path 46" transform="translate(-19.634 197.866)" fill="#ff6157">
        <path d="M26.722-187.556a3.222,3.222,0,0,0,3.222-3.222A3.222,3.222,0,0,0,26.722-194a3.222,3.222,0,0,0-3.222,3.222A3.222,3.222,0,0,0,26.722-187.556Z" stroke="none"/>
        <path d="M 26.72187995910645 -188.0562438964844 C 28.22273063659668 -188.0562438964844 29.44375991821289 -189.2772674560547 29.44375991821289 -190.7781219482422 C 29.44375991821289 -192.2789764404297 28.22273063659668 -193.5 26.72187995910645 -193.5 C 25.22102928161621 -193.5 24 -192.2789764404297 24 -190.7781219482422 C 24 -189.2772674560547 25.22102928161621 -188.0562438964844 26.72187995910645 -188.0562438964844 M 26.72187995910645 -187.5562438964844 C 24.94248962402344 -187.5562438964844 23.5 -188.9987487792969 23.5 -190.7781219482422 C 23.5 -192.5574951171875 24.94248962402344 -194 26.72187995910645 -194 C 28.50127029418945 -194 29.94375991821289 -192.5574951171875 29.94375991821289 -190.7781219482422 C 29.94375991821289 -188.9987487792969 28.50127029418945 -187.5562438964844 26.72187995910645 -187.5562438964844 Z" stroke="none" fill="rgba(0,0,0,0.15)"/>
      </g>
      <g id="Path_47" data-name="Path 47" transform="translate(-9.324 197.866)" fill="#ffc12f">
        <path d="M26.722-187.556a3.222,3.222,0,0,0,3.222-3.222A3.222,3.222,0,0,0,26.722-194a3.222,3.222,0,0,0-3.222,3.222A3.222,3.222,0,0,0,26.722-187.556Z" stroke="none"/>
        <path d="M 26.72187995910645 -188.0562438964844 C 28.22273063659668 -188.0562438964844 29.44375991821289 -189.2772674560547 29.44375991821289 -190.7781219482422 C 29.44375991821289 -192.2789764404297 28.22273063659668 -193.5 26.72187995910645 -193.5 C 25.22102928161621 -193.5 24 -192.2789764404297 24 -190.7781219482422 C 24 -189.2772674560547 25.22102928161621 -188.0562438964844 26.72187995910645 -188.0562438964844 M 26.72187995910645 -187.5562438964844 C 24.94248962402344 -187.5562438964844 23.5 -188.9987487792969 23.5 -190.7781219482422 C 23.5 -192.5574951171875 24.94248962402344 -194 26.72187995910645 -194 C 28.50127029418945 -194 29.94375991821289 -192.5574951171875 29.94375991821289 -190.7781219482422 C 29.94375991821289 -188.9987487792969 28.50127029418945 -187.5562438964844 26.72187995910645 -187.5562438964844 Z" stroke="none" fill="rgba(0,0,0,0.15)"/>
      </g>
      <g id="Path_48" data-name="Path 48" transform="translate(0.986 197.866)" fill="#2acb42">
        <path d="M26.722-187.556a3.222,3.222,0,0,0,3.222-3.222A3.222,3.222,0,0,0,26.722-194a3.222,3.222,0,0,0-3.222,3.222A3.222,3.222,0,0,0,26.722-187.556Z" stroke="none"/>
        <path d="M 26.72187995910645 -188.0562438964844 C 28.22273063659668 -188.0562438964844 29.44375991821289 -189.2772674560547 29.44375991821289 -190.7781219482422 C 29.44375991821289 -192.2789764404297 28.22273063659668 -193.5 26.72187995910645 -193.5 C 25.22102928161621 -193.5 24 -192.2789764404297 24 -190.7781219482422 C 24 -189.2772674560547 25.22102928161621 -188.0562438964844 26.72187995910645 -188.0562438964844 M 26.72187995910645 -187.5562438964844 C 24.94248962402344 -187.5562438964844 23.5 -188.9987487792969 23.5 -190.7781219482422 C 23.5 -192.5574951171875 24.94248962402344 -194 26.72187995910645 -194 C 28.50127029418945 -194 29.94375991821289 -192.5574951171875 29.94375991821289 -190.7781219482422 C 29.94375991821289 -188.9987487792969 28.50127029418945 -187.5562438964844 26.72187995910645 -187.5562438964844 Z" stroke="none" fill="rgba(0,0,0,0.15)"/>
      </g>
      <path id="Path_308" data-name="Path 308" d="M-25.685-3.1h.041l.908,3.1h.618l1.143-4.228h-.683L-24.431-.99h-.041l-.888-3.237h-.609L-26.851-.99h-.041l-.776-3.237h-.683L-27.212,0h.621Zm4.345.387a.77.77,0,0,1,.785.826h-1.611A.816.816,0,0,1-21.341-2.716Zm.782,1.854a.765.765,0,0,1-.759.387.843.843,0,0,1-.85-.914v-.035h2.253v-.22c0-1-.536-1.608-1.424-1.608a1.471,1.471,0,0,0-1.471,1.667A1.449,1.449,0,0,0-21.335.062a1.294,1.294,0,0,0,1.383-.923Zm1.35.861h.63V-4.436h-.63Zm4.2-2.147a1.259,1.259,0,0,0-1.365-1.1,1.455,1.455,0,0,0-1.494,1.646,1.465,1.465,0,0,0,1.5,1.667,1.248,1.248,0,0,0,1.362-1.087h-.612a.693.693,0,0,1-.753.524c-.524,0-.85-.413-.85-1.1s.322-1.084.85-1.084a.712.712,0,0,1,.753.542ZM-13.026.062a1.463,1.463,0,0,0,1.5-1.658,1.465,1.465,0,0,0-1.5-1.655A1.466,1.466,0,0,0-14.532-1.6,1.464,1.464,0,0,0-13.026.062Zm0-.56c-.548,0-.855-.4-.855-1.1s.308-1.1.855-1.1.855.4.855,1.1S-12.481-.5-13.026-.5Zm2.18.5h.63V-1.951a.686.686,0,0,1,.674-.724.556.556,0,0,1,.615.58V0h.618V-2.007a.646.646,0,0,1,.674-.668c.413,0,.618.211.618.642V0h.63V-2.2a.948.948,0,0,0-1.02-1.055,1.037,1.037,0,0,0-.97.574h-.05a.894.894,0,0,0-.879-.574.9.9,0,0,0-.888.574h-.047V-3.19h-.606Zm6.574-2.716a.77.77,0,0,1,.785.826H-5.1A.816.816,0,0,1-4.273-2.716ZM-3.49-.861a.765.765,0,0,1-.759.387.843.843,0,0,1-.85-.914v-.035h2.253v-.22c0-1-.536-1.608-1.424-1.608A1.471,1.471,0,0,0-5.74-1.585,1.449,1.449,0,0,0-4.267.062,1.294,1.294,0,0,0-2.884-.861ZM0,.814v-.5H-2.755v.5Zm.539-4.8v.809H.034v.53H.541v1.8c0,.615.278.861.979.861a2.035,2.035,0,0,0,.343-.032V-.539a2.075,2.075,0,0,1-.24.015c-.313,0-.451-.146-.451-.48V-2.646h.691v-.53H1.171v-.809ZM3.836.062A1.463,1.463,0,0,0,5.339-1.6a1.465,1.465,0,0,0-1.5-1.655A1.466,1.466,0,0,0,2.331-1.6,1.464,1.464,0,0,0,3.836.062Zm0-.56c-.548,0-.855-.4-.855-1.1s.308-1.1.855-1.1.855.4.855,1.1S4.381-.5,3.836-.5ZM8.187.814v-.5H5.43v.5ZM10.021,0l1.5-4.228h-.7L9.693-.82h-.05L8.5-4.228H7.788L9.3,0Zm3.12.062a1.463,1.463,0,0,0,1.5-1.658,1.465,1.465,0,0,0-1.5-1.655A1.466,1.466,0,0,0,11.635-1.6,1.464,1.464,0,0,0,13.141.062Zm0-.56c-.548,0-.855-.4-.855-1.1s.308-1.1.855-1.1.855.4.855,1.1S13.686-.5,13.141-.5ZM15.35,0h.63V-4.436h-.63Zm4.2-3.19h-.668L18.086-.674h-.05L17.242-3.19h-.674L17.72,0H18.4ZM20.166.05A.424.424,0,0,0,20.6-.387a.424.424,0,0,0-.431-.437.425.425,0,0,0-.431.437A.425.425,0,0,0,20.166.05Zm1.447-4.034v.809h-.507v.53h.507v1.8c0,.615.278.861.979.861a2.035,2.035,0,0,0,.343-.032V-.539a2.075,2.075,0,0,1-.24.015c-.313,0-.451-.146-.451-.48V-2.646h.691v-.53h-.691v-.809Zm3.173,2.859.7,1.131h.724L25.143-1.608,26.2-3.185h-.7l-.68,1.125h-.05l-.686-1.125h-.735l1.066,1.605L23.35.006h.691l.7-1.131Zm2.221-2.859v.809H26.5v.53h.507v1.8c0,.615.278.861.979.861a2.035,2.035,0,0,0,.343-.032V-.539a2.075,2.075,0,0,1-.24.015c-.313,0-.451-.146-.451-.48V-2.646h.691v-.53h-.691v-.809Z" transform="translate(141.906 9.383)" fill="rgba(0,0,0,0.76)"/>
      <rect id="Rectangle_241" data-name="Rectangle 241" width="297" transform="translate(0 14)" opacity="0.06"/>
    </g>
    <path id="Path_306" data-name="Path 306" d="M2.772,14H3.808l2.52-8.946h.028L8.89,14H9.9L12.656,4H11.7l-2.282,8.75H9.394L6.944,4H5.754l-2.436,8.75H3.29L1.022,4H0ZM13.8,9.884c.154-1.316.924-2.576,2.38-2.576a2.437,2.437,0,0,1,2.3,2.576Zm5.558.742c.07-2.03-.868-4.06-3.178-4.06s-3.262,1.918-3.262,3.822c0,2.058.966,3.822,3.262,3.822a2.942,2.942,0,0,0,3.15-2.59h-.882a2.189,2.189,0,0,1-2.268,1.848c-1.68,0-2.38-1.554-2.38-2.842ZM24.444,14h.882V10.15a2.488,2.488,0,0,1,2.688-2.59V6.678a2.653,2.653,0,0,0-2.73,1.792h-.028V6.776h-.812ZM29.12,9.884c.154-1.316.924-2.576,2.38-2.576a2.437,2.437,0,0,1,2.3,2.576Zm5.558.742c.07-2.03-.868-4.06-3.178-4.06s-3.262,1.918-3.262,3.822c0,2.058.966,3.822,3.262,3.822a2.942,2.942,0,0,0,3.15-2.59h-.882A2.189,2.189,0,0,1,31.5,13.468c-1.68,0-2.38-1.554-2.38-2.842Zm1.2-5.208h.882V4h-.882Zm0,8.582h.882V6.776h-.882Zm2.576,0h.882V9.968c0-1.512.644-2.66,2.156-2.66,1.134,0,1.512.812,1.512,1.792V14h.882V9.912c0-1.344.434-2.6,1.96-2.6,1.274,0,1.708.644,1.708,1.834V14h.882V9.1c0-1.694-.8-2.534-2.394-2.534a2.442,2.442,0,0,0-2.3,1.414,2.008,2.008,0,0,0-2.072-1.414,2.486,2.486,0,0,0-2.366,1.428H39.27V6.776h-.812Zm12.46-5.012c.042-1.176.826-1.68,1.932-1.68,1.05,0,1.89.294,1.89,1.484,0,.784-.406.91-1.134.98-1.9.224-3.878.308-3.878,2.324,0,1.456,1.078,2.114,2.422,2.114a2.754,2.754,0,0,0,2.632-1.47h.028c0,.742.14,1.26,1.036,1.26a2.5,2.5,0,0,0,.574-.056V13.2a.667.667,0,0,1-.28.056.464.464,0,0,1-.518-.532V8.89c0-1.946-1.386-2.324-2.66-2.324-1.666,0-2.828.728-2.926,2.422ZM54.74,11.2a2.322,2.322,0,0,1-2.52,2.268,1.5,1.5,0,0,1-1.61-1.428c0-1.4,1.862-1.4,3.36-1.666.238-.042.63-.112.742-.322h.028Zm8.75-4.424h-.882V8.022H62.58a2.526,2.526,0,0,0-2.3-1.456c-2.086,0-3.262,1.652-3.262,3.64,0,2.072.952,3.71,3.262,3.71a2.467,2.467,0,0,0,2.3-1.484h.028v.98c0,1.778-.686,2.73-2.324,2.73A1.9,1.9,0,0,1,58.17,14.7h-.882c.112,1.526,1.554,2.184,3,2.184,2.338,0,3.206-1.3,3.206-3.472Zm-3.206,6.4c-1.638,0-2.38-1.414-2.38-2.87,0-1.5.7-3,2.38-3s2.324,1.582,2.324,3C62.608,11.76,61.81,13.174,60.284,13.174Zm4.9-7.756h.882V4h-.882Zm0,8.582h.882V6.776h-.882Zm2.562,0h.882V9.786A2.28,2.28,0,0,1,70.9,7.308c1.428,0,1.834.952,1.834,2.184V14h.882V9.352c0-1.722-.616-2.786-2.646-2.786a2.464,2.464,0,0,0-2.31,1.456h-.028V6.776h-.882ZM75.8,9.884c.154-1.316.924-2.576,2.38-2.576a2.437,2.437,0,0,1,2.3,2.576Zm5.558.742c.07-2.03-.868-4.06-3.178-4.06s-3.262,1.918-3.262,3.822c0,2.058.966,3.822,3.262,3.822a2.942,2.942,0,0,0,3.15-2.59h-.882a2.189,2.189,0,0,1-2.268,1.848c-1.68,0-2.38-1.554-2.38-2.842ZM88.9,4h-.882V8.148H87.99a2.577,2.577,0,0,0-2.506-1.582c-2.2,0-3.248,1.764-3.248,3.822s1.05,3.822,3.248,3.822a2.837,2.837,0,0,0,2.576-1.582h.028V14H88.9Zm-5.782,6.384c0-1.5.686-3.08,2.366-3.08,1.862,0,2.534,1.582,2.534,3.08s-.672,3.08-2.534,3.08C83.8,13.468,83.118,11.886,83.118,10.388ZM95.872,4.606H94.99v2.17H93.73v.742h1.26V12.46c-.014,1.232.392,1.624,1.568,1.624.266,0,.518-.028.784-.028V13.3a6.841,6.841,0,0,1-.756.042c-.63-.042-.714-.378-.714-.952V7.518h1.47V6.776h-1.47ZM98.6,14h.882V9.786a2.28,2.28,0,0,1,2.268-2.478c1.428,0,1.834.952,1.834,2.184V14h.882V9.352c0-1.722-.616-2.786-2.646-2.786a2.464,2.464,0,0,0-2.31,1.456h-.028V4H98.6Zm8.05-4.116c.154-1.316.924-2.576,2.38-2.576a2.437,2.437,0,0,1,2.3,2.576Zm5.558.742c.07-2.03-.868-4.06-3.178-4.06s-3.262,1.918-3.262,3.822c0,2.058.966,3.822,3.262,3.822a2.942,2.942,0,0,0,3.15-2.59H111.3a2.189,2.189,0,0,1-2.268,1.848c-1.68,0-2.38-1.554-2.38-2.842ZM117.278,14h.882V9.786a2.28,2.28,0,0,1,2.268-2.478c1.428,0,1.834.952,1.834,2.184V14h.882V9.352c0-1.722-.616-2.786-2.646-2.786a2.464,2.464,0,0,0-2.31,1.456h-.028V6.776h-.882Zm8.05-4.116c.154-1.316.924-2.576,2.38-2.576A2.437,2.437,0,0,1,130,9.884Zm5.558.742c.07-2.03-.868-4.06-3.178-4.06s-3.262,1.918-3.262,3.822c0,2.058.966,3.822,3.262,3.822a2.942,2.942,0,0,0,3.15-2.59h-.882a2.189,2.189,0,0,1-2.268,1.848c-1.68,0-2.38-1.554-2.38-2.842ZM133.672,14h.966L136.4,7.924h.028L138.208,14h.966L141.5,6.776h-.938l-1.848,6.188h-.028L136.92,6.776h-.994l-1.764,6.188h-.028l-1.848-6.188h-.938Zm13.986-5.11a2.368,2.368,0,0,0-2.646-2.324c-1.274,0-2.716.56-2.716,2.03,0,1.218.868,1.638,2.016,1.932l1.134.252c.8.2,1.582.476,1.582,1.316,0,1.008-1.134,1.372-1.974,1.372a1.9,1.9,0,0,1-2.128-1.806h-.882c.154,1.778,1.274,2.548,2.968,2.548,1.344,0,2.9-.6,2.9-2.17a2.117,2.117,0,0,0-2.058-2l-1.176-.266c-.616-.154-1.5-.448-1.5-1.218,0-.938.924-1.246,1.708-1.246a1.663,1.663,0,0,1,1.89,1.582Zm3.22,5.11V12.516H149.7V14ZM4.424,38.956,6.356,44.08H2.422ZM-.1,48H.924l1.2-3.108h4.55L7.9,48H8.918L5,38H3.934Zm13.65,2.674h.882V46.628h.028a2.57,2.57,0,0,0,2.506,1.582c2.2,0,3.248-1.764,3.248-3.822s-1.05-3.822-3.248-3.822a2.669,2.669,0,0,0-2.576,1.582h-.028V40.776h-.812Zm5.782-6.286c0,1.5-.686,3.08-2.366,3.08-1.862,0-2.534-1.582-2.534-3.08,0-1.638.574-3.08,2.534-3.08C18.648,41.308,19.334,42.89,19.334,44.388ZM21.6,48h.882V38H21.6Zm3.374-5.012c.042-1.176.826-1.68,1.932-1.68,1.05,0,1.89.294,1.89,1.484,0,.784-.406.91-1.134.98-1.9.224-3.878.308-3.878,2.324,0,1.456,1.078,2.114,2.422,2.114a2.754,2.754,0,0,0,2.632-1.47h.028c0,.742.14,1.26,1.036,1.26a2.5,2.5,0,0,0,.574-.056V47.2a.667.667,0,0,1-.28.056.464.464,0,0,1-.518-.532V42.89c0-1.946-1.386-2.324-2.66-2.324-1.666,0-2.828.728-2.926,2.422ZM28.8,45.2a2.322,2.322,0,0,1-2.52,2.268,1.5,1.5,0,0,1-1.61-1.428c0-1.4,1.862-1.4,3.36-1.666.238-.042.63-.112.742-.322H28.8Zm8.624-2.156A2.691,2.691,0,0,0,34.5,40.566c-2.2,0-3.416,1.75-3.416,3.822S32.3,48.21,34.5,48.21a2.922,2.922,0,0,0,2.982-2.8H36.6a2.173,2.173,0,0,1-2.1,2.058c-1.68,0-2.534-1.554-2.534-3.08s.854-3.08,2.534-3.08a1.955,1.955,0,0,1,2.044,1.736Zm1.806.84c.154-1.316.924-2.576,2.38-2.576a2.437,2.437,0,0,1,2.3,2.576Zm5.558.742c.07-2.03-.868-4.06-3.178-4.06s-3.262,1.918-3.262,3.822c0,2.058.966,3.822,3.262,3.822a2.942,2.942,0,0,0,3.15-2.59h-.882a2.189,2.189,0,0,1-2.268,1.848c-1.68,0-2.38-1.554-2.38-2.842Zm6.482-6.02h-.882v2.17h-1.26v.742h1.26V46.46c-.014,1.232.392,1.624,1.568,1.624.266,0,.518-.028.784-.028V47.3a6.841,6.841,0,0,1-.756.042c-.63-.042-.714-.378-.714-.952V41.518h1.47v-.742h-1.47ZM54,48h.882V43.786a2.28,2.28,0,0,1,2.268-2.478c1.428,0,1.834.952,1.834,2.184V48h.882V43.352c0-1.722-.616-2.786-2.646-2.786a2.464,2.464,0,0,0-2.31,1.456H54.88V38H54Zm8.33-5.012c.042-1.176.826-1.68,1.932-1.68,1.05,0,1.89.294,1.89,1.484,0,.784-.406.91-1.134.98-1.9.224-3.878.308-3.878,2.324,0,1.456,1.078,2.114,2.422,2.114a2.754,2.754,0,0,0,2.632-1.47h.028c0,.742.14,1.26,1.036,1.26a2.5,2.5,0,0,0,.574-.056V47.2a.667.667,0,0,1-.28.056.464.464,0,0,1-.518-.532V42.89c0-1.946-1.386-2.324-2.66-2.324-1.666,0-2.828.728-2.926,2.422ZM66.15,45.2a2.322,2.322,0,0,1-2.52,2.268,1.5,1.5,0,0,1-1.61-1.428c0-1.4,1.862-1.4,3.36-1.666.238-.042.63-.112.742-.322h.028ZM70.2,38.606h-.882v2.17h-1.26v.742h1.26V46.46c-.014,1.232.392,1.624,1.568,1.624.266,0,.518-.028.784-.028V47.3a6.841,6.841,0,0,1-.756.042c-.63-.042-.714-.378-.714-.952V41.518h1.47v-.742H70.2Zm8.036,0H77.35v2.17H76.09v.742h1.26V46.46c-.014,1.232.392,1.624,1.568,1.624.266,0,.518-.028.784-.028V47.3a6.841,6.841,0,0,1-.756.042c-.63-.042-.714-.378-.714-.952V41.518H79.7v-.742h-1.47Zm3.262,5.278c.154-1.316.924-2.576,2.38-2.576a2.437,2.437,0,0,1,2.3,2.576Zm5.558.742c.07-2.03-.868-4.06-3.178-4.06s-3.262,1.918-3.262,3.822c0,2.058.966,3.822,3.262,3.822a2.942,2.942,0,0,0,3.15-2.59h-.882a2.189,2.189,0,0,1-2.268,1.848c-1.68,0-2.38-1.554-2.38-2.842ZM88.256,48h.882V38h-.882Zm2.59,0h.882V38h-.882Zm7.784-5.11a2.368,2.368,0,0,0-2.646-2.324c-1.274,0-2.716.56-2.716,2.03,0,1.218.868,1.638,2.016,1.932l1.134.252c.8.2,1.582.476,1.582,1.316,0,1.008-1.134,1.372-1.974,1.372A1.9,1.9,0,0,1,93.9,45.662h-.882c.154,1.778,1.274,2.548,2.968,2.548,1.344,0,2.9-.6,2.9-2.17a2.117,2.117,0,0,0-2.058-2l-1.176-.266c-.616-.154-1.5-.448-1.5-1.218,0-.938.924-1.246,1.708-1.246a1.663,1.663,0,0,1,1.89,1.582Zm7.49,5.082-.308.826c-.294.672-.476,1.134-1.26,1.134a2.943,2.943,0,0,1-.6-.07V50.6a2.354,2.354,0,0,0,.672.07c1.106,0,1.386-.35,1.9-1.568l3.136-8.33h-.882l-2.226,6.16-2.38-6.16h-.938Zm7.462-6.664c1.68,0,2.534,1.554,2.534,3.08s-.854,3.08-2.534,3.08-2.534-1.554-2.534-3.08S111.9,41.308,113.582,41.308Zm0-.742c-2.2,0-3.416,1.75-3.416,3.822s1.218,3.822,3.416,3.822S117,46.46,117,44.388,115.78,40.566,113.582,40.566Zm10.584.21h-.882V44.57c0,1.47-.658,2.9-2.17,2.9-1.4,0-1.89-.686-1.932-1.988v-4.7H118.3v4.69c0,1.694.7,2.744,2.534,2.744a2.687,2.687,0,0,0,2.492-1.512h.028V48h.812Zm6.076,3.108c.154-1.316.924-2.576,2.38-2.576a2.437,2.437,0,0,1,2.3,2.576Zm5.558.742c.07-2.03-.868-4.06-3.178-4.06s-3.262,1.918-3.262,3.822c0,2.058.966,3.822,3.262,3.822a2.942,2.942,0,0,0,3.15-2.59h-.882a2.189,2.189,0,0,1-2.268,1.848c-1.68,0-2.38-1.554-2.38-2.842ZM136.164,48h1.092l2.226-3.038L141.75,48h1.12l-2.814-3.766,2.6-3.458h-1.106l-2.016,2.744-2.058-2.744h-1.106l2.59,3.472Zm8.358-5.012c.042-1.176.826-1.68,1.932-1.68,1.05,0,1.89.294,1.89,1.484,0,.784-.406.91-1.134.98-1.9.224-3.878.308-3.878,2.324,0,1.456,1.078,2.114,2.422,2.114a2.754,2.754,0,0,0,2.632-1.47h.028c0,.742.14,1.26,1.036,1.26a2.5,2.5,0,0,0,.574-.056V47.2a.667.667,0,0,1-.28.056.464.464,0,0,1-.518-.532V42.89c0-1.946-1.386-2.324-2.66-2.324-1.666,0-2.828.728-2.926,2.422Zm3.822,2.212a2.322,2.322,0,0,1-2.52,2.268,1.5,1.5,0,0,1-1.61-1.428c0-1.4,1.862-1.4,3.36-1.666.238-.042.63-.112.742-.322h.028Zm8.624-2.156a2.691,2.691,0,0,0-2.926-2.478c-2.2,0-3.416,1.75-3.416,3.822s1.218,3.822,3.416,3.822a2.922,2.922,0,0,0,2.982-2.8h-.882a2.173,2.173,0,0,1-2.1,2.058c-1.68,0-2.534-1.554-2.534-3.08s.854-3.08,2.534-3.08a1.955,1.955,0,0,1,2.044,1.736Zm2.688-4.438h-.882v2.17h-1.26v.742h1.26V46.46c-.014,1.232.392,1.624,1.568,1.624.266,0,.518-.028.784-.028V47.3a6.841,6.841,0,0,1-.756.042c-.63-.042-.714-.378-.714-.952V41.518h1.47v-.742h-1.47ZM162.414,48h.882V38h-.882Zm4.648-.028-.308.826c-.294.672-.476,1.134-1.26,1.134a2.942,2.942,0,0,1-.6-.07V50.6a2.354,2.354,0,0,0,.672.07c1.106,0,1.386-.35,1.9-1.568l3.136-8.33h-.882l-2.226,6.16-2.38-6.16h-.938Zm9.9.028h.966l1.764-6.076h.028L181.5,48h.966l2.324-7.224h-.938L182,46.964h-.028l-1.764-6.188h-.994l-1.764,6.188h-.028l-1.848-6.188h-.938Zm8.764,0h.882V43.786a2.28,2.28,0,0,1,2.268-2.478c1.428,0,1.834.952,1.834,2.184V48h.882V43.352c0-1.722-.616-2.786-2.646-2.786a2.464,2.464,0,0,0-2.31,1.456h-.028V38h-.882Zm8.33-5.012c.042-1.176.826-1.68,1.932-1.68,1.05,0,1.89.294,1.89,1.484,0,.784-.406.91-1.134.98-1.9.224-3.878.308-3.878,2.324,0,1.456,1.078,2.114,2.422,2.114a2.754,2.754,0,0,0,2.632-1.47h.028c0,.742.14,1.26,1.036,1.26a2.5,2.5,0,0,0,.574-.056V47.2a.667.667,0,0,1-.28.056.464.464,0,0,1-.518-.532V42.89c0-1.946-1.386-2.324-2.66-2.324-1.666,0-2.828.728-2.926,2.422Zm3.822,2.212a2.322,2.322,0,0,1-2.52,2.268,1.5,1.5,0,0,1-1.61-1.428c0-1.4,1.862-1.4,3.36-1.666.238-.042.63-.112.742-.322h.028Zm4.046-6.594h-.882v2.17h-1.26v.742h1.26V46.46c-.014,1.232.392,1.624,1.568,1.624.266,0,.518-.028.784-.028V47.3a6.841,6.841,0,0,1-.756.042c-.63-.042-.714-.378-.714-.952V41.518h1.47v-.742h-1.47Zm8.708,9.366-.308.826c-.294.672-.476,1.134-1.26,1.134a2.942,2.942,0,0,1-.6-.07V50.6a2.354,2.354,0,0,0,.672.07c1.106,0,1.386-.35,1.9-1.568l3.136-8.33h-.882l-2.226,6.16-2.38-6.16h-.938Zm7.462-6.664c1.68,0,2.534,1.554,2.534,3.08s-.854,3.08-2.534,3.08-2.534-1.554-2.534-3.08S216.412,41.308,218.092,41.308Zm0-.742c-2.2,0-3.416,1.75-3.416,3.822s1.218,3.822,3.416,3.822,3.416-1.75,3.416-3.822S220.29,40.566,218.092,40.566Zm10.584.21h-.882V44.57c0,1.47-.658,2.9-2.17,2.9-1.4,0-1.89-.686-1.932-1.988v-4.7h-.882v4.69c0,1.694.7,2.744,2.534,2.744a2.687,2.687,0,0,0,2.492-1.512h.028V48h.812ZM.826,65h.882V60.786a2.28,2.28,0,0,1,2.268-2.478c1.428,0,1.834.952,1.834,2.184V65h.882V60.352c0-1.722-.616-2.786-2.646-2.786a2.464,2.464,0,0,0-2.31,1.456H1.708V57.776H.826Zm8.05-4.116c.154-1.316.924-2.576,2.38-2.576a2.437,2.437,0,0,1,2.3,2.576Zm5.558.742c.07-2.03-.868-4.06-3.178-4.06s-3.262,1.918-3.262,3.822c0,2.058.966,3.822,3.262,3.822a2.942,2.942,0,0,0,3.15-2.59h-.882a2.189,2.189,0,0,1-2.268,1.848c-1.68,0-2.38-1.554-2.38-2.842Zm1.708-.742c.154-1.316.924-2.576,2.38-2.576a2.437,2.437,0,0,1,2.3,2.576Zm5.558.742c.07-2.03-.868-4.06-3.178-4.06s-3.262,1.918-3.262,3.822c0,2.058.966,3.822,3.262,3.822a2.942,2.942,0,0,0,3.15-2.59H20.79a2.189,2.189,0,0,1-2.268,1.848c-1.68,0-2.38-1.554-2.38-2.842ZM29.246,55h-.882v4.144h-.028a2.577,2.577,0,0,0-2.506-1.582c-2.2,0-3.248,1.764-3.248,3.822s1.05,3.822,3.248,3.822a2.837,2.837,0,0,0,2.576-1.582h.028V65h.812Zm-5.782,6.384c0-1.5.686-3.08,2.366-3.08,1.862,0,2.534,1.582,2.534,3.08s-.672,3.08-2.534,3.08C24.15,64.468,23.464,62.886,23.464,61.388Zm12.754-5.782h-.882v2.17h-1.26v.742h1.26V63.46c-.014,1.232.392,1.624,1.568,1.624.266,0,.518-.028.784-.028V64.3a6.841,6.841,0,0,1-.756.042c-.63-.042-.714-.378-.714-.952V58.518h1.47v-.742h-1.47Zm5.8,2.7c1.68,0,2.534,1.554,2.534,3.08s-.854,3.08-2.534,3.08-2.534-1.554-2.534-3.08S40.334,58.308,42.014,58.308Zm0-.742c-2.2,0-3.416,1.75-3.416,3.822s1.218,3.822,3.416,3.822,3.416-1.75,3.416-3.822S44.212,57.566,42.014,57.566ZM50.638,65h.882V62.256l1.428-1.19L55.8,65H56.91l-3.29-4.55,3.08-2.674H55.524l-4,3.5V55h-.882Zm6.986,0h.882V60.786a2.28,2.28,0,0,1,2.268-2.478c1.428,0,1.834.952,1.834,2.184V65h.882V60.352c0-1.722-.616-2.786-2.646-2.786a2.464,2.464,0,0,0-2.31,1.456h-.028V57.776h-.882Zm10.584-6.692c1.68,0,2.534,1.554,2.534,3.08s-.854,3.08-2.534,3.08-2.534-1.554-2.534-3.08S66.528,58.308,68.208,58.308Zm0-.742c-2.2,0-3.416,1.75-3.416,3.822s1.218,3.822,3.416,3.822,3.416-1.75,3.416-3.822S70.406,57.566,68.208,57.566ZM74.536,65H75.5l1.764-6.076h.028L79.072,65h.966l2.324-7.224h-.938l-1.848,6.188h-.028l-1.764-6.188H76.79l-1.764,6.188H75L73.15,57.776h-.938ZM88,59.988c.042-1.176.826-1.68,1.932-1.68,1.05,0,1.89.294,1.89,1.484,0,.784-.406.91-1.134.98-1.9.224-3.878.308-3.878,2.324,0,1.456,1.078,2.114,2.422,2.114a2.754,2.754,0,0,0,2.632-1.47H91.9c0,.742.14,1.26,1.036,1.26a2.5,2.5,0,0,0,.574-.056V64.2a.667.667,0,0,1-.28.056.464.464,0,0,1-.518-.532V59.89c0-1.946-1.386-2.324-2.66-2.324-1.666,0-2.828.728-2.926,2.422ZM91.826,62.2a2.322,2.322,0,0,1-2.52,2.268A1.5,1.5,0,0,1,87.7,63.04c0-1.4,1.862-1.4,3.36-1.666.238-.042.63-.112.742-.322h.028ZM94.458,65h.882V60.786a2.28,2.28,0,0,1,2.268-2.478c1.428,0,1.834.952,1.834,2.184V65h.882V60.352c0-1.722-.616-2.786-2.646-2.786a2.464,2.464,0,0,0-2.31,1.456H95.34V57.776h-.882Zm13.888-10h-.882v4.144h-.028a2.577,2.577,0,0,0-2.506-1.582c-2.2,0-3.248,1.764-3.248,3.822s1.05,3.822,3.248,3.822a2.837,2.837,0,0,0,2.576-1.582h.028V65h.812Zm-5.782,6.384c0-1.5.686-3.08,2.366-3.08,1.862,0,2.534,1.582,2.534,3.08s-.672,3.08-2.534,3.08C103.25,64.468,102.564,62.886,102.564,61.388ZM115.514,65h.966l1.764-6.076h.028L120.05,65h.966l2.324-7.224H122.4l-1.848,6.188h-.028l-1.764-6.188h-.994L116,63.964h-.028l-1.848-6.188h-.938Zm8.764,0h.882V60.786a2.28,2.28,0,0,1,2.268-2.478c1.428,0,1.834.952,1.834,2.184V65h.882V60.352c0-1.722-.616-2.786-2.646-2.786a2.464,2.464,0,0,0-2.31,1.456h-.028V55h-.882Zm9.6-.028-.308.826c-.294.672-.476,1.134-1.26,1.134a2.942,2.942,0,0,1-.6-.07V67.6a2.354,2.354,0,0,0,.672.07c1.106,0,1.386-.35,1.9-1.568l3.136-8.33h-.882l-2.226,6.16-2.38-6.16H131Zm8.316-8.554h.882V55H142.2Zm0,8.582h.882V57.776H142.2Zm3.976-9.394h-.882v2.17h-1.26v.742h1.26V63.46c-.014,1.232.392,1.624,1.568,1.624.266,0,.518-.028.784-.028V64.3a6.841,6.841,0,0,1-.756.042c-.63-.042-.714-.378-.714-.952V58.518h1.47v-.742h-1.47Zm3.29-.6v1.484h.588c.042.434-.182,1.176-.658,1.316v.6a1.876,1.876,0,0,0,1.246-1.9V55Zm7,4.886a2.368,2.368,0,0,0-2.646-2.324c-1.274,0-2.716.56-2.716,2.03,0,1.218.868,1.638,2.016,1.932l1.134.252c.8.2,1.582.476,1.582,1.316,0,1.008-1.134,1.372-1.974,1.372a1.9,1.9,0,0,1-2.128-1.806h-.882c.154,1.778,1.274,2.548,2.968,2.548,1.344,0,2.9-.6,2.9-2.17a2.117,2.117,0,0,0-2.058-2l-1.176-.266c-.616-.154-1.5-.448-1.5-1.218,0-.938.924-1.246,1.708-1.246a1.663,1.663,0,0,1,1.89,1.582Zm5.432-3.472h.882V55H161.9Zm0,8.582h.882V57.776H161.9Zm2.576,0h.882V60.968c0-1.512.644-2.66,2.156-2.66,1.134,0,1.512.812,1.512,1.792V65h.882V60.912c0-1.344.434-2.6,1.96-2.6,1.274,0,1.708.644,1.708,1.834V65h.882V60.1c0-1.694-.8-2.534-2.394-2.534a2.442,2.442,0,0,0-2.3,1.414,2.008,2.008,0,0,0-2.072-1.414,2.486,2.486,0,0,0-2.366,1.428h-.042V57.776h-.812Zm11.662,2.674h.882V63.628h.028a2.57,2.57,0,0,0,2.506,1.582c2.2,0,3.248-1.764,3.248-3.822s-1.05-3.822-3.248-3.822a2.669,2.669,0,0,0-2.576,1.582h-.028V57.776h-.812Zm5.782-6.286c0,1.5-.686,3.08-2.366,3.08-1.862,0-2.534-1.582-2.534-3.08,0-1.638.574-3.08,2.534-3.08C181.23,58.308,181.916,59.89,181.916,61.388Zm5.306-3.08c1.68,0,2.534,1.554,2.534,3.08s-.854,3.08-2.534,3.08-2.534-1.554-2.534-3.08S185.542,58.308,187.222,58.308Zm0-.742c-2.2,0-3.416,1.75-3.416,3.822s1.218,3.822,3.416,3.822,3.416-1.75,3.416-3.822S189.42,57.566,187.222,57.566ZM191.954,65h.882V61.15a2.488,2.488,0,0,1,2.688-2.59v-.882a2.653,2.653,0,0,0-2.73,1.792h-.028V57.776h-.812Zm5.81-9.394h-.882v2.17h-1.26v.742h1.26V63.46c-.014,1.232.392,1.624,1.568,1.624.266,0,.518-.028.784-.028V64.3a6.841,6.841,0,0,1-.756.042c-.63-.042-.714-.378-.714-.952V58.518h1.47v-.742h-1.47Zm3.542,4.382c.042-1.176.826-1.68,1.932-1.68,1.05,0,1.89.294,1.89,1.484,0,.784-.406.91-1.134.98-1.9.224-3.878.308-3.878,2.324,0,1.456,1.078,2.114,2.422,2.114a2.754,2.754,0,0,0,2.632-1.47h.028c0,.742.14,1.26,1.036,1.26a2.5,2.5,0,0,0,.574-.056V64.2a.667.667,0,0,1-.28.056.464.464,0,0,1-.518-.532V59.89c0-1.946-1.386-2.324-2.66-2.324-1.666,0-2.828.728-2.926,2.422Zm3.822,2.212a2.322,2.322,0,0,1-2.52,2.268A1.5,1.5,0,0,1,201,63.04c0-1.4,1.862-1.4,3.36-1.666.238-.042.63-.112.742-.322h.028ZM207.76,65h.882V60.786a2.28,2.28,0,0,1,2.268-2.478c1.428,0,1.834.952,1.834,2.184V65h.882V60.352c0-1.722-.616-2.786-2.646-2.786a2.464,2.464,0,0,0-2.31,1.456h-.028V57.776h-.882Zm8.932-9.394h-.882v2.17h-1.26v.742h1.26V63.46c-.014,1.232.392,1.624,1.568,1.624.266,0,.518-.028.784-.028V64.3a6.841,6.841,0,0,1-.756.042c-.63-.042-.714-.378-.714-.952V58.518h1.47v-.742h-1.47ZM221.13,65V63.516h-1.176V65Zm6.244,0h.952V56.544h.028L234.178,65h1.064V55h-.952V63.46h-.028L228.438,55h-1.064Zm12.754-6.692c1.68,0,2.534,1.554,2.534,3.08s-.854,3.08-2.534,3.08-2.534-1.554-2.534-3.08S238.448,58.308,240.128,58.308Zm0-.742c-2.2,0-3.416,1.75-3.416,3.822s1.218,3.822,3.416,3.822,3.416-1.75,3.416-3.822S242.326,57.566,240.128,57.566ZM1.638,76.988c.042-1.176.826-1.68,1.932-1.68,1.05,0,1.89.294,1.89,1.484,0,.784-.406.91-1.134.98C2.422,78,.448,78.08.448,80.1c0,1.456,1.078,2.114,2.422,2.114A2.754,2.754,0,0,0,5.5,80.74H5.53c0,.742.14,1.26,1.036,1.26a2.5,2.5,0,0,0,.574-.056V81.2a.667.667,0,0,1-.28.056.464.464,0,0,1-.518-.532V76.89c0-1.946-1.386-2.324-2.66-2.324-1.666,0-2.828.728-2.926,2.422ZM5.46,79.2a2.322,2.322,0,0,1-2.52,2.268A1.5,1.5,0,0,1,1.33,80.04c0-1.4,1.862-1.4,3.36-1.666.238-.042.63-.112.742-.322H5.46Zm8.75-4.424h-.882v1.246H13.3A2.526,2.526,0,0,0,11,74.566c-2.086,0-3.262,1.652-3.262,3.64,0,2.072.952,3.71,3.262,3.71a2.467,2.467,0,0,0,2.3-1.484h.028v.98c0,1.778-.686,2.73-2.324,2.73A1.9,1.9,0,0,1,8.89,82.7H8.008c.112,1.526,1.554,2.184,3,2.184,2.338,0,3.206-1.3,3.206-3.472ZM11,81.174c-1.638,0-2.38-1.414-2.38-2.87,0-1.5.7-3,2.38-3s2.324,1.582,2.324,3C13.328,79.76,12.53,81.174,11,81.174Zm5.4-3.29c.154-1.316.924-2.576,2.38-2.576a2.437,2.437,0,0,1,2.3,2.576Zm5.558.742c.07-2.03-.868-4.06-3.178-4.06s-3.262,1.918-3.262,3.822c0,2.058.966,3.822,3.262,3.822a2.942,2.942,0,0,0,3.15-2.59h-.882a2.189,2.189,0,0,1-2.268,1.848c-1.68,0-2.38-1.554-2.38-2.842ZM23.142,82h.882V77.786a2.28,2.28,0,0,1,2.268-2.478c1.428,0,1.834.952,1.834,2.184V82h.882V77.352c0-1.722-.616-2.786-2.646-2.786a2.464,2.464,0,0,0-2.31,1.456h-.028V74.776h-.882ZM37.03,72h-.882v4.144H36.12a2.577,2.577,0,0,0-2.506-1.582c-2.2,0-3.248,1.764-3.248,3.822s1.05,3.822,3.248,3.822a2.837,2.837,0,0,0,2.576-1.582h.028V82h.812Zm-5.782,6.384c0-1.5.686-3.08,2.366-3.08,1.862,0,2.534,1.582,2.534,3.08s-.672,3.08-2.534,3.08C31.934,81.468,31.248,79.886,31.248,78.388Zm8.26-1.4c.042-1.176.826-1.68,1.932-1.68,1.05,0,1.89.294,1.89,1.484,0,.784-.406.91-1.134.98-1.9.224-3.878.308-3.878,2.324,0,1.456,1.078,2.114,2.422,2.114a2.754,2.754,0,0,0,2.632-1.47H43.4c0,.742.14,1.26,1.036,1.26a2.5,2.5,0,0,0,.574-.056V81.2a.667.667,0,0,1-.28.056.464.464,0,0,1-.518-.532V76.89c0-1.946-1.386-2.324-2.66-2.324-1.666,0-2.828.728-2.926,2.422ZM43.33,79.2a2.322,2.322,0,0,1-2.52,2.268A1.5,1.5,0,0,1,39.2,80.04c0-1.4,1.862-1.4,3.36-1.666.238-.042.63-.112.742-.322h.028ZM47.67,82V80.516H46.494V82Zm6.244,0h.952V73.544h.028L60.718,82h1.064V72H60.83V80.46H60.8L54.978,72H53.914Zm12.754-6.692c1.68,0,2.534,1.554,2.534,3.08s-.854,3.08-2.534,3.08-2.534-1.554-2.534-3.08S64.988,75.308,66.668,75.308Zm0-.742c-2.2,0-3.416,1.75-3.416,3.822s1.218,3.822,3.416,3.822,3.416-1.75,3.416-3.822S68.866,74.566,66.668,74.566ZM75.292,82H76.1V80.628h.028a2.669,2.669,0,0,0,2.576,1.582c2.2,0,3.248-1.764,3.248-3.822s-1.05-3.822-3.248-3.822A2.577,2.577,0,0,0,76.2,76.148h-.028V72h-.882Zm5.782-3.612c0,1.5-.686,3.08-2.366,3.08-1.862,0-2.534-1.582-2.534-3.08s.672-3.08,2.534-3.08C80.388,75.308,81.074,76.89,81.074,78.388Zm2.268-4.97h.882V72h-.882Zm0,8.582h.882V74.776h-.882Zm3.374-5.012c.042-1.176.826-1.68,1.932-1.68,1.05,0,1.89.294,1.89,1.484,0,.784-.406.91-1.134.98-1.9.224-3.878.308-3.878,2.324,0,1.456,1.078,2.114,2.422,2.114a2.754,2.754,0,0,0,2.632-1.47h.028c0,.742.14,1.26,1.036,1.26a2.5,2.5,0,0,0,.574-.056V81.2a.667.667,0,0,1-.28.056.464.464,0,0,1-.518-.532V76.89c0-1.946-1.386-2.324-2.66-2.324-1.666,0-2.828.728-2.926,2.422ZM90.538,79.2a2.322,2.322,0,0,1-2.52,2.268,1.5,1.5,0,0,1-1.61-1.428c0-1.4,1.862-1.4,3.36-1.666.238-.042.63-.112.742-.322h.028Zm7.854-2.31a2.368,2.368,0,0,0-2.646-2.324c-1.274,0-2.716.56-2.716,2.03,0,1.218.868,1.638,2.016,1.932l1.134.252c.8.2,1.582.476,1.582,1.316,0,1.008-1.134,1.372-1.974,1.372a1.9,1.9,0,0,1-2.128-1.806h-.882c.154,1.778,1.274,2.548,2.968,2.548,1.344,0,2.9-.6,2.9-2.17a2.117,2.117,0,0,0-2.058-2l-1.176-.266c-.616-.154-1.5-.448-1.5-1.218,0-.938.924-1.246,1.708-1.246a1.663,1.663,0,0,1,1.89,1.582Zm2.044.994c.154-1.316.924-2.576,2.38-2.576a2.437,2.437,0,0,1,2.3,2.576Zm5.558.742c.07-2.03-.868-4.06-3.178-4.06s-3.262,1.918-3.262,3.822c0,2.058.966,3.822,3.262,3.822a2.942,2.942,0,0,0,3.15-2.59h-.882a2.189,2.189,0,0,1-2.268,1.848c-1.68,0-2.38-1.554-2.38-2.842Zm6.4-1.736a2.368,2.368,0,0,0-2.646-2.324c-1.274,0-2.716.56-2.716,2.03,0,1.218.868,1.638,2.016,1.932l1.134.252c.8.2,1.582.476,1.582,1.316,0,1.008-1.134,1.372-1.974,1.372a1.9,1.9,0,0,1-2.128-1.806h-.882c.154,1.778,1.274,2.548,2.968,2.548,1.344,0,2.9-.6,2.9-2.17a2.117,2.117,0,0,0-2.058-2l-1.176-.266c-.616-.154-1.5-.448-1.5-1.218,0-.938.924-1.246,1.708-1.246a1.663,1.663,0,0,1,1.89,1.582Zm3.22,5.11V80.516h-1.176V82ZM2.772,116H3.808l2.52-8.946h.028L8.89,116H9.9l2.758-10H11.7l-2.282,8.75H9.394L6.944,106H5.754l-2.436,8.75H3.29L1.022,106H0ZM13.8,111.884c.154-1.316.924-2.576,2.38-2.576a2.437,2.437,0,0,1,2.3,2.576Zm5.558.742c.07-2.03-.868-4.06-3.178-4.06s-3.262,1.918-3.262,3.822c0,2.058.966,3.822,3.262,3.822a2.942,2.942,0,0,0,3.15-2.59h-.882a2.189,2.189,0,0,1-2.268,1.848c-1.68,0-2.38-1.554-2.38-2.842ZM21.1,106v1.484h.588c.042.434-.182,1.176-.658,1.316v.6a1.876,1.876,0,0,0,1.246-1.9V106Zm3.346,10h.882v-3.85a2.488,2.488,0,0,1,2.688-2.59v-.882a2.653,2.653,0,0,0-2.73,1.792h-.028v-1.694h-.812Zm4.676-4.116c.154-1.316.924-2.576,2.38-2.576a2.437,2.437,0,0,1,2.3,2.576Zm5.558.742c.07-2.03-.868-4.06-3.178-4.06s-3.262,1.918-3.262,3.822c0,2.058.966,3.822,3.262,3.822a2.942,2.942,0,0,0,3.15-2.59h-.882a2.189,2.189,0,0,1-2.268,1.848c-1.68,0-2.38-1.554-2.38-2.842ZM39.746,116h.882v-4.214a2.28,2.28,0,0,1,2.268-2.478c1.428,0,1.834.952,1.834,2.184V116h.882v-4.648c0-1.722-.616-2.786-2.646-2.786a2.464,2.464,0,0,0-2.31,1.456h-.028V106h-.882Zm8.05-4.116c.154-1.316.924-2.576,2.38-2.576a2.437,2.437,0,0,1,2.3,2.576Zm5.558.742c.07-2.03-.868-4.06-3.178-4.06s-3.262,1.918-3.262,3.822c0,2.058.966,3.822,3.262,3.822a2.942,2.942,0,0,0,3.15-2.59h-.882a2.189,2.189,0,0,1-2.268,1.848c-1.68,0-2.38-1.554-2.38-2.842ZM54.544,116h.882v-3.85a2.488,2.488,0,0,1,2.688-2.59v-.882a2.653,2.653,0,0,0-2.73,1.792h-.028v-1.694h-.812Zm4.676-4.116c.154-1.316.924-2.576,2.38-2.576a2.437,2.437,0,0,1,2.3,2.576Zm5.558.742c.07-2.03-.868-4.06-3.178-4.06s-3.262,1.918-3.262,3.822c0,2.058.966,3.822,3.262,3.822a2.942,2.942,0,0,0,3.15-2.59h-.882a2.189,2.189,0,0,1-2.268,1.848c-1.68,0-2.38-1.554-2.38-2.842Zm6.482-6.02h-.882v2.17h-1.26v.742h1.26v4.942c-.014,1.232.392,1.624,1.568,1.624.266,0,.518-.028.784-.028V115.3a6.841,6.841,0,0,1-.756.042c-.63-.042-.714-.378-.714-.952v-4.872h1.47v-.742H71.26Zm5.8,2.7c1.68,0,2.534,1.554,2.534,3.08s-.854,3.08-2.534,3.08-2.534-1.554-2.534-3.08S75.376,109.308,77.056,109.308Zm0-.742c-2.2,0-3.416,1.75-3.416,3.822s1.218,3.822,3.416,3.822,3.416-1.75,3.416-3.822S79.254,108.566,77.056,108.566Zm9.422,2.422c.042-1.176.826-1.68,1.932-1.68,1.05,0,1.89.294,1.89,1.484,0,.784-.406.91-1.134.98-1.9.224-3.878.308-3.878,2.324,0,1.456,1.078,2.114,2.422,2.114a2.754,2.754,0,0,0,2.632-1.47h.028c0,.742.14,1.26,1.036,1.26a2.5,2.5,0,0,0,.574-.056V115.2a.667.667,0,0,1-.28.056.464.464,0,0,1-.518-.532V110.89c0-1.946-1.386-2.324-2.66-2.324-1.666,0-2.828.728-2.926,2.422ZM90.3,113.2a2.322,2.322,0,0,1-2.52,2.268,1.5,1.5,0,0,1-1.61-1.428c0-1.4,1.862-1.4,3.36-1.666.238-.042.63-.112.742-.322H90.3Zm4.242,2.8h.966l1.764-6.076H97.3L99.078,116h.966l2.324-7.224h-.938l-1.848,6.188h-.028l-1.764-6.188H96.8l-1.764,6.188H95l-1.848-6.188h-.938Zm9.576-5.012c.042-1.176.826-1.68,1.932-1.68,1.05,0,1.89.294,1.89,1.484,0,.784-.406.91-1.134.98-1.9.224-3.878.308-3.878,2.324,0,1.456,1.078,2.114,2.422,2.114a2.754,2.754,0,0,0,2.632-1.47h.028c0,.742.14,1.26,1.036,1.26a2.5,2.5,0,0,0,.574-.056V115.2a.667.667,0,0,1-.28.056.464.464,0,0,1-.518-.532V110.89c0-1.946-1.386-2.324-2.66-2.324-1.666,0-2.828.728-2.926,2.422Zm3.822,2.212a2.322,2.322,0,0,1-2.52,2.268,1.5,1.5,0,0,1-1.61-1.428c0-1.4,1.862-1.4,3.36-1.666.238-.042.63-.112.742-.322h.028Zm2.646,2.8h.882v-2.744l1.428-1.19L115.752,116h1.106l-3.29-4.55,3.08-2.674h-1.176l-4,3.5V106h-.882Zm7.518-4.116c.154-1.316.924-2.576,2.38-2.576a2.437,2.437,0,0,1,2.3,2.576Zm5.558.742c.07-2.03-.868-4.06-3.178-4.06s-3.262,1.918-3.262,3.822c0,2.058.966,3.822,3.262,3.822a2.942,2.942,0,0,0,3.15-2.59h-.882a2.189,2.189,0,0,1-2.268,1.848c-1.68,0-2.38-1.554-2.38-2.842ZM124.838,116h.882v-4.214a2.28,2.28,0,0,1,2.268-2.478c1.428,0,1.834.952,1.834,2.184V116h.882v-4.648c0-1.722-.616-2.786-2.646-2.786a2.464,2.464,0,0,0-2.31,1.456h-.028v-1.246h-.882Zm12.824-9.394h-.882v2.17h-1.26v.742h1.26v4.942c-.014,1.232.392,1.624,1.568,1.624.266,0,.518-.028.784-.028V115.3a6.841,6.841,0,0,1-.756.042c-.63-.042-.714-.378-.714-.952v-4.872h1.47v-.742h-1.47Zm2.73,9.394h.882v-4.214a2.28,2.28,0,0,1,2.268-2.478c1.428,0,1.834.952,1.834,2.184V116h.882v-4.648c0-1.722-.616-2.786-2.646-2.786a2.464,2.464,0,0,0-2.31,1.456h-.028V106h-.882Zm8.05-4.116c.154-1.316.924-2.576,2.38-2.576a2.437,2.437,0,0,1,2.3,2.576Zm5.558.742c.07-2.03-.868-4.06-3.178-4.06s-3.262,1.918-3.262,3.822c0,2.058.966,3.822,3.262,3.822a2.942,2.942,0,0,0,3.15-2.59h-.882a2.189,2.189,0,0,1-2.268,1.848c-1.68,0-2.38-1.554-2.38-2.842Zm5.082,6.048h.882v-4.046h.028a2.57,2.57,0,0,0,2.506,1.582c2.2,0,3.248-1.764,3.248-3.822s-1.05-3.822-3.248-3.822a2.669,2.669,0,0,0-2.576,1.582h-.028v-1.372h-.812Zm5.782-6.286c0,1.5-.686,3.08-2.366,3.08-1.862,0-2.534-1.582-2.534-3.08,0-1.638.574-3.08,2.534-3.08C164.178,109.308,164.864,110.89,164.864,112.388Zm5.306-3.08c1.68,0,2.534,1.554,2.534,3.08s-.854,3.08-2.534,3.08-2.534-1.554-2.534-3.08S168.49,109.308,170.17,109.308Zm0-.742c-2.2,0-3.416,1.75-3.416,3.822s1.218,3.822,3.416,3.822,3.416-1.75,3.416-3.822S172.368,108.566,170.17,108.566Zm6.132-1.96h-.882v2.17h-1.26v.742h1.26v4.942c-.014,1.232.392,1.624,1.568,1.624.266,0,.518-.028.784-.028V115.3a6.841,6.841,0,0,1-.756.042c-.63-.042-.714-.378-.714-.952v-4.872h1.47v-.742H176.3Zm3.262,5.278c.154-1.316.924-2.576,2.38-2.576a2.437,2.437,0,0,1,2.3,2.576Zm5.558.742c.07-2.03-.868-4.06-3.178-4.06s-3.262,1.918-3.262,3.822c0,2.058.966,3.822,3.262,3.822a2.942,2.942,0,0,0,3.15-2.59h-.882a2.189,2.189,0,0,1-2.268,1.848c-1.68,0-2.38-1.554-2.38-2.842ZM186.3,116h.882v-4.214a2.28,2.28,0,0,1,2.268-2.478c1.428,0,1.834.952,1.834,2.184V116h.882v-4.648c0-1.722-.616-2.786-2.646-2.786a2.464,2.464,0,0,0-2.31,1.456h-.028v-1.246H186.3Zm8.932-9.394h-.882v2.17h-1.26v.742h1.26v4.942c-.014,1.232.392,1.624,1.568,1.624.266,0,.518-.028.784-.028V115.3a6.841,6.841,0,0,1-.756.042c-.63-.042-.714-.378-.714-.952v-4.872h1.47v-.742h-1.47Zm2.758.812h.882V106h-.882Zm0,8.582h.882v-7.224h-.882Zm3.374-5.012c.042-1.176.826-1.68,1.932-1.68,1.05,0,1.89.294,1.89,1.484,0,.784-.406.91-1.134.98-1.9.224-3.878.308-3.878,2.324,0,1.456,1.078,2.114,2.422,2.114a2.754,2.754,0,0,0,2.632-1.47h.028c0,.742.14,1.26,1.036,1.26a2.5,2.5,0,0,0,.574-.056V115.2a.667.667,0,0,1-.28.056.464.464,0,0,1-.518-.532V110.89c0-1.946-1.386-2.324-2.66-2.324-1.666,0-2.828.728-2.926,2.422Zm3.822,2.212a2.322,2.322,0,0,1-2.52,2.268,1.5,1.5,0,0,1-1.61-1.428c0-1.4,1.862-1.4,3.36-1.666.238-.042.63-.112.742-.322h.028Zm2.66,2.8h.882V106h-.882Zm9.52-6.692c1.68,0,2.534,1.554,2.534,3.08s-.854,3.08-2.534,3.08-2.534-1.554-2.534-3.08S215.684,109.308,217.364,109.308Zm0-.742c-2.2,0-3.416,1.75-3.416,3.822s1.218,3.822,3.416,3.822,3.416-1.75,3.416-3.822S219.562,108.566,217.364,108.566Zm7.518.21h-1.428v-.63c0-.77,0-1.4.966-1.4a3.614,3.614,0,0,1,.644.07v-.756a4.527,4.527,0,0,0-.742-.056c-1.428,0-1.75.868-1.75,2.114v.658H221.34v.742h1.232V116h.882v-6.482h1.428Zm5.53,2.212c.042-1.176.826-1.68,1.932-1.68,1.05,0,1.89.294,1.89,1.484,0,.784-.406.91-1.134.98-1.9.224-3.878.308-3.878,2.324,0,1.456,1.078,2.114,2.422,2.114a2.754,2.754,0,0,0,2.632-1.47h.028c0,.742.14,1.26,1.036,1.26a2.5,2.5,0,0,0,.574-.056V115.2a.667.667,0,0,1-.28.056.464.464,0,0,1-.518-.532V110.89c0-1.946-1.386-2.324-2.66-2.324-1.666,0-2.828.728-2.926,2.422Zm3.822,2.212a2.322,2.322,0,0,1-2.52,2.268,1.5,1.5,0,0,1-1.61-1.428c0-1.4,1.862-1.4,3.36-1.666.238-.042.63-.112.742-.322h.028ZM2.436,133H3.4l1.764-6.076h.028L6.972,133h.966l2.324-7.224H9.324l-1.848,6.188H7.448l-1.764-6.188H4.69l-1.764,6.188H2.9L1.05,125.776H.112Zm9.3-4.116c.154-1.316.924-2.576,2.38-2.576a2.437,2.437,0,0,1,2.3,2.576Zm5.558.742c.07-2.03-.868-4.06-3.178-4.06s-3.262,1.918-3.262,3.822c0,2.058.966,3.822,3.262,3.822a2.942,2.942,0,0,0,3.15-2.59H16.38a2.189,2.189,0,0,1-2.268,1.848c-1.68,0-2.38-1.554-2.38-2.842Zm1.2,3.374h.882V123h-.882Zm2.59,0h.882V123h-.882Zm6.076-3.444v-.812h-3.5v.812Zm1.694-5.138h.882V123h-.882Zm0,8.582h.882v-7.224h-.882Zm2.562,0H32.3v-4.214a2.28,2.28,0,0,1,2.268-2.478c1.428,0,1.834.952,1.834,2.184V133h.882v-4.648c0-1.722-.616-2.786-2.646-2.786a2.464,2.464,0,0,0-2.31,1.456H32.3v-1.246h-.882Zm10.318-7.224H40.306v-.63c0-.77,0-1.4.966-1.4a3.614,3.614,0,0,1,.644.07v-.756a4.527,4.527,0,0,0-.742-.056c-1.428,0-1.75.868-1.75,2.114v.658H38.192v.742h1.232V133h.882v-6.482h1.428Zm3.892.532c1.68,0,2.534,1.554,2.534,3.08s-.854,3.08-2.534,3.08-2.534-1.554-2.534-3.08S43.946,126.308,45.626,126.308Zm0-.742c-2.2,0-3.416,1.75-3.416,3.822s1.218,3.822,3.416,3.822,3.416-1.75,3.416-3.822S47.824,125.566,45.626,125.566ZM50.358,133h.882v-3.85a2.488,2.488,0,0,1,2.688-2.59v-.882a2.653,2.653,0,0,0-2.73,1.792H51.17v-1.694h-.812Zm4.41,0h.882v-4.032c0-1.512.644-2.66,2.156-2.66,1.134,0,1.512.812,1.512,1.792V133H60.2v-4.088c0-1.344.434-2.6,1.96-2.6,1.274,0,1.708.644,1.708,1.834V133h.882v-4.9c0-1.694-.8-2.534-2.394-2.534a2.442,2.442,0,0,0-2.3,1.414,2.008,2.008,0,0,0-2.072-1.414,2.486,2.486,0,0,0-2.366,1.428H55.58v-1.218h-.812Zm12.18-4.116c.154-1.316.924-2.576,2.38-2.576a2.437,2.437,0,0,1,2.3,2.576Zm5.558.742c.07-2.03-.868-4.06-3.178-4.06s-3.262,1.918-3.262,3.822c0,2.058.966,3.822,3.262,3.822a2.942,2.942,0,0,0,3.15-2.59H71.6a2.189,2.189,0,0,1-2.268,1.848c-1.68,0-2.38-1.554-2.38-2.842ZM80.052,123H79.17v4.144h-.028a2.577,2.577,0,0,0-2.506-1.582c-2.2,0-3.248,1.764-3.248,3.822s1.05,3.822,3.248,3.822a2.837,2.837,0,0,0,2.576-1.582h.028V133h.812Zm-5.782,6.384c0-1.5.686-3.08,2.366-3.08,1.862,0,2.534,1.582,2.534,3.08s-.672,3.08-2.534,3.08C74.956,132.468,74.27,130.886,74.27,129.388ZM87.22,133h.966l1.764-6.076h.028L91.756,133h.966l2.324-7.224h-.938l-1.848,6.188h-.028l-1.764-6.188h-.994l-1.764,6.188h-.028l-1.848-6.188H84.9Zm11.83-6.692c1.68,0,2.534,1.554,2.534,3.08s-.854,3.08-2.534,3.08-2.534-1.554-2.534-3.08S97.37,126.308,99.05,126.308Zm0-.742c-2.2,0-3.416,1.75-3.416,3.822s1.218,3.822,3.416,3.822,3.416-1.75,3.416-3.822S101.248,125.566,99.05,125.566ZM103.782,133h.882v-3.85a2.488,2.488,0,0,1,2.688-2.59v-.882a2.653,2.653,0,0,0-2.73,1.792h-.028v-1.694h-.812Zm4.424,0h.882V123h-.882Zm8.932-10h-.882v4.144h-.028a2.577,2.577,0,0,0-2.506-1.582c-2.2,0-3.248,1.764-3.248,3.822s1.05,3.822,3.248,3.822a2.837,2.837,0,0,0,2.576-1.582h.028V133h.812Zm-5.782,6.384c0-1.5.686-3.08,2.366-3.08,1.862,0,2.534,1.582,2.534,3.08s-.672,3.08-2.534,3.08C112.042,132.468,111.356,130.886,111.356,129.388Zm14.854.168v-.812h-3.5v.812ZM133.378,133h.966l1.764-6.076h.028L137.914,133h.966l2.324-7.224h-.938l-1.848,6.188h-.028l-1.764-6.188h-.994l-1.764,6.188h-.028l-1.848-6.188h-.938Zm9.3-4.116c.154-1.316.924-2.576,2.38-2.576a2.437,2.437,0,0,1,2.3,2.576Zm5.558.742c.07-2.03-.868-4.06-3.178-4.06s-3.262,1.918-3.262,3.822c0,2.058.966,3.822,3.262,3.822a2.942,2.942,0,0,0,3.15-2.59h-.882a2.189,2.189,0,0,1-2.268,1.848c-1.68,0-2.38-1.554-2.38-2.842Zm5.1-5.208h.882V123h-.882Zm0,9.464c0,.6-.112,1.05-.8,1.05a2.706,2.706,0,0,1-.476-.014v.728c.21,0,.406.028.616.028,1.246,0,1.54-.924,1.54-2v-7.9h-.882Zm8.428-8.106h-.882v3.794c0,1.47-.658,2.9-2.17,2.9-1.4,0-1.89-.686-1.932-1.988v-4.7h-.882v4.69c0,1.694.7,2.744,2.534,2.744a2.687,2.687,0,0,0,2.492-1.512h.028V133h.812Zm6.874,2.114a2.368,2.368,0,0,0-2.646-2.324c-1.274,0-2.716.56-2.716,2.03,0,1.218.868,1.638,2.016,1.932l1.134.252c.8.2,1.582.476,1.582,1.316,0,1.008-1.134,1.372-1.974,1.372a1.9,1.9,0,0,1-2.128-1.806h-.882c.154,1.778,1.274,2.548,2.968,2.548,1.344,0,2.9-.6,2.9-2.17a2.117,2.117,0,0,0-2.058-2l-1.176-.266c-.616-.154-1.5-.448-1.5-1.218,0-.938.924-1.246,1.708-1.246a1.663,1.663,0,0,1,1.89,1.582Zm2.926-4.284h-.882v2.17h-1.26v.742h1.26v4.942c-.014,1.232.392,1.624,1.568,1.624.266,0,.518-.028.784-.028V132.3a6.841,6.841,0,0,1-.756.042c-.63-.042-.714-.378-.714-.952v-4.872h1.47v-.742h-1.47ZM178.192,133h.882v-3.85a2.488,2.488,0,0,1,2.688-2.59v-.882a2.653,2.653,0,0,0-2.73,1.792H179v-1.694h-.812Zm4.676-4.116c.154-1.316.924-2.576,2.38-2.576a2.437,2.437,0,0,1,2.3,2.576Zm5.558.742c.07-2.03-.868-4.06-3.178-4.06s-3.262,1.918-3.262,3.822c0,2.058.966,3.822,3.262,3.822a2.942,2.942,0,0,0,3.15-2.59h-.882a2.189,2.189,0,0,1-2.268,1.848c-1.68,0-2.38-1.554-2.38-2.842Zm1.19,6.048h.882v-4.046h.028a2.57,2.57,0,0,0,2.506,1.582c2.2,0,3.248-1.764,3.248-3.822s-1.05-3.822-3.248-3.822a2.669,2.669,0,0,0-2.576,1.582h-.028v-1.372h-.812Zm5.782-6.286c0,1.5-.686,3.08-2.366,3.08-1.862,0-2.534-1.582-2.534-3.08,0-1.638.574-3.08,2.534-3.08C194.712,126.308,195.4,127.89,195.4,129.388Zm5.306-3.08c1.68,0,2.534,1.554,2.534,3.08s-.854,3.08-2.534,3.08-2.534-1.554-2.534-3.08S199.024,126.308,200.7,126.308Zm0-.742c-2.2,0-3.416,1.75-3.416,3.822s1.218,3.822,3.416,3.822,3.416-1.75,3.416-3.822S202.9,125.566,200.7,125.566ZM205.436,133h.882v-3.85a2.488,2.488,0,0,1,2.688-2.59v-.882a2.653,2.653,0,0,0-2.73,1.792h-.028v-1.694h-.812Zm5.81-9.394h-.882v2.17H209.1v.742h1.26v4.942c-.014,1.232.392,1.624,1.568,1.624.266,0,.518-.028.784-.028V132.3a6.841,6.841,0,0,1-.756.042c-.63-.042-.714-.378-.714-.952v-4.872h1.47v-.742h-1.47Zm8.036,0H218.4v2.17h-1.26v.742h1.26v4.942c-.014,1.232.392,1.624,1.568,1.624.266,0,.518-.028.784-.028V132.3a6.841,6.841,0,0,1-.756.042c-.63-.042-.714-.378-.714-.952v-4.872h1.47v-.742h-1.47Zm2.73,9.394h.882v-4.214a2.28,2.28,0,0,1,2.268-2.478c1.428,0,1.834.952,1.834,2.184V133h.882v-4.648c0-1.722-.616-2.786-2.646-2.786a2.464,2.464,0,0,0-2.31,1.456h-.028V123h-.882Zm8.05-4.116c.154-1.316.924-2.576,2.38-2.576a2.437,2.437,0,0,1,2.3,2.576Zm5.558.742c.07-2.03-.868-4.06-3.178-4.06s-3.262,1.918-3.262,3.822c0,2.058.966,3.822,3.262,3.822a2.942,2.942,0,0,0,3.15-2.59h-.882a2.189,2.189,0,0,1-2.268,1.848c-1.68,0-2.38-1.554-2.38-2.842ZM3.626,142.776H2.2v-.63c0-.77,0-1.4.966-1.4a3.615,3.615,0,0,1,.644.07v-.756A4.528,4.528,0,0,0,3.066,140c-1.428,0-1.75.868-1.75,2.114v.658H.084v.742H1.316V150H2.2v-6.482H3.626Zm1.638,2.212c.042-1.176.826-1.68,1.932-1.68,1.05,0,1.89.294,1.89,1.484,0,.784-.406.91-1.134.98-1.9.224-3.878.308-3.878,2.324,0,1.456,1.078,2.114,2.422,2.114a2.754,2.754,0,0,0,2.632-1.47h.028c0,.742.14,1.26,1.036,1.26a2.5,2.5,0,0,0,.574-.056V149.2a.667.667,0,0,1-.28.056.464.464,0,0,1-.518-.532V144.89c0-1.946-1.386-2.324-2.66-2.324-1.666,0-2.828.728-2.926,2.422ZM9.086,147.2a2.322,2.322,0,0,1-2.52,2.268,1.5,1.5,0,0,1-1.61-1.428c0-1.4,1.862-1.4,3.36-1.666.238-.042.63-.112.742-.322h.028Zm8.624-2.156a2.691,2.691,0,0,0-2.926-2.478c-2.2,0-3.416,1.75-3.416,3.822s1.218,3.822,3.416,3.822a2.922,2.922,0,0,0,2.982-2.8h-.882a2.173,2.173,0,0,1-2.1,2.058c-1.68,0-2.534-1.554-2.534-3.08s.854-3.08,2.534-3.08a1.955,1.955,0,0,1,2.044,1.736Zm2.688-4.438h-.882v2.17h-1.26v.742h1.26v4.942c-.014,1.232.392,1.624,1.568,1.624.266,0,.518-.028.784-.028V149.3a6.841,6.841,0,0,1-.756.042c-.63-.042-.714-.378-.714-.952v-4.872h1.47v-.742H20.4Zm7.952,4.284a2.368,2.368,0,0,0-2.646-2.324c-1.274,0-2.716.56-2.716,2.03,0,1.218.868,1.638,2.016,1.932l1.134.252c.8.2,1.582.476,1.582,1.316,0,1.008-1.134,1.372-1.974,1.372a1.9,1.9,0,0,1-2.128-1.806h-.882c.154,1.778,1.274,2.548,2.968,2.548,1.344,0,2.9-.6,2.9-2.17a2.117,2.117,0,0,0-2.058-2l-1.176-.266c-.616-.154-1.5-.448-1.5-1.218,0-.938.924-1.246,1.708-1.246a1.663,1.663,0,0,1,1.89,1.582Zm10.626,0a2.368,2.368,0,0,0-2.646-2.324c-1.274,0-2.716.56-2.716,2.03,0,1.218.868,1.638,2.016,1.932l1.134.252c.8.2,1.582.476,1.582,1.316,0,1.008-1.134,1.372-1.974,1.372a1.9,1.9,0,0,1-2.128-1.806h-.882c.154,1.778,1.274,2.548,2.968,2.548,1.344,0,2.9-.6,2.9-2.17a2.117,2.117,0,0,0-2.058-2l-1.176-.266c-.616-.154-1.5-.448-1.5-1.218,0-.938.924-1.246,1.708-1.246a1.663,1.663,0,0,1,1.89,1.582Zm4.578-1.582c1.68,0,2.534,1.554,2.534,3.08s-.854,3.08-2.534,3.08-2.534-1.554-2.534-3.08S41.874,143.308,43.554,143.308Zm0-.742c-2.2,0-3.416,1.75-3.416,3.822s1.218,3.822,3.416,3.822,3.416-1.75,3.416-3.822S45.752,142.566,43.554,142.566Zm10.7,7.406-.308.826c-.294.672-.476,1.134-1.26,1.134a2.942,2.942,0,0,1-.6-.07v.742a2.354,2.354,0,0,0,.672.07c1.106,0,1.386-.35,1.9-1.568l3.136-8.33H56.91l-2.226,6.16-2.38-6.16h-.938Zm7.462-6.664c1.68,0,2.534,1.554,2.534,3.08s-.854,3.08-2.534,3.08-2.534-1.554-2.534-3.08S60.032,143.308,61.712,143.308Zm0-.742c-2.2,0-3.416,1.75-3.416,3.822s1.218,3.822,3.416,3.822,3.416-1.75,3.416-3.822S63.91,142.566,61.712,142.566Zm10.584.21h-.882v3.794c0,1.47-.658,2.9-2.17,2.9-1.4,0-1.89-.686-1.932-1.988v-4.7H66.43v4.69c0,1.694.7,2.744,2.534,2.744a2.687,2.687,0,0,0,2.492-1.512h.028V150H72.3Zm11.536,2.268a2.691,2.691,0,0,0-2.926-2.478c-2.2,0-3.416,1.75-3.416,3.822s1.218,3.822,3.416,3.822a2.922,2.922,0,0,0,2.982-2.8h-.882a2.173,2.173,0,0,1-2.1,2.058c-1.68,0-2.534-1.554-2.534-3.08s.854-3.08,2.534-3.08a1.955,1.955,0,0,1,2.044,1.736Zm2.086-.056c.042-1.176.826-1.68,1.932-1.68,1.05,0,1.89.294,1.89,1.484,0,.784-.406.91-1.134.98-1.9.224-3.878.308-3.878,2.324,0,1.456,1.078,2.114,2.422,2.114a2.754,2.754,0,0,0,2.632-1.47h.028c0,.742.14,1.26,1.036,1.26a2.5,2.5,0,0,0,.574-.056V149.2a.667.667,0,0,1-.28.056.464.464,0,0,1-.518-.532V144.89c0-1.946-1.386-2.324-2.66-2.324-1.666,0-2.828.728-2.926,2.422ZM89.74,147.2a2.322,2.322,0,0,1-2.52,2.268,1.5,1.5,0,0,1-1.61-1.428c0-1.4,1.862-1.4,3.36-1.666.238-.042.63-.112.742-.322h.028Zm2.632,2.8h.882v-4.214a2.28,2.28,0,0,1,2.268-2.478c1.428,0,1.834.952,1.834,2.184V150h.882v-4.648c0-1.722-.616-2.786-2.646-2.786a2.464,2.464,0,0,0-2.31,1.456h-.028v-1.246h-.882Zm11.424,0h.882v-4.032c0-1.512.644-2.66,2.156-2.66,1.134,0,1.512.812,1.512,1.792V150h.882v-4.088c0-1.344.434-2.6,1.96-2.6,1.274,0,1.708.644,1.708,1.834V150h.882v-4.9c0-1.694-.8-2.534-2.394-2.534a2.442,2.442,0,0,0-2.3,1.414,2.008,2.008,0,0,0-2.072-1.414,2.486,2.486,0,0,0-2.366,1.428h-.042v-1.218H103.8Zm12.46-5.012c.042-1.176.826-1.68,1.932-1.68,1.05,0,1.89.294,1.89,1.484,0,.784-.406.91-1.134.98-1.9.224-3.878.308-3.878,2.324,0,1.456,1.078,2.114,2.422,2.114a2.754,2.754,0,0,0,2.632-1.47h.028c0,.742.14,1.26,1.036,1.26a2.5,2.5,0,0,0,.574-.056V149.2a.667.667,0,0,1-.28.056.464.464,0,0,1-.518-.532V144.89c0-1.946-1.386-2.324-2.66-2.324-1.666,0-2.828.728-2.926,2.422Zm3.822,2.212a2.322,2.322,0,0,1-2.52,2.268,1.5,1.5,0,0,1-1.61-1.428c0-1.4,1.862-1.4,3.36-1.666.238-.042.63-.112.742-.322h.028Zm2.646,2.8h.882v-2.744l1.428-1.19L127.89,150H129l-3.29-4.55,3.08-2.674H127.61l-4,3.5V140h-.882Zm7.518-4.116c.154-1.316.924-2.576,2.38-2.576a2.437,2.437,0,0,1,2.3,2.576Zm5.558.742c.07-2.03-.868-4.06-3.178-4.06s-3.262,1.918-3.262,3.822c0,2.058.966,3.822,3.262,3.822a2.942,2.942,0,0,0,3.15-2.59h-.882a2.189,2.189,0,0,1-2.268,1.848c-1.68,0-2.38-1.554-2.38-2.842Zm7.154,3.346-.308.826c-.294.672-.476,1.134-1.26,1.134a2.942,2.942,0,0,1-.6-.07v.742a2.354,2.354,0,0,0,.672.07c1.106,0,1.386-.35,1.9-1.568l3.136-8.33h-.882l-2.226,6.16-2.38-6.16h-.938Zm7.462-6.664c1.68,0,2.534,1.554,2.534,3.08s-.854,3.08-2.534,3.08-2.534-1.554-2.534-3.08S148.736,143.308,150.416,143.308Zm0-.742c-2.2,0-3.416,1.75-3.416,3.822s1.218,3.822,3.416,3.822,3.416-1.75,3.416-3.822S152.614,142.566,150.416,142.566Zm10.584.21h-.882v3.794c0,1.47-.658,2.9-2.17,2.9-1.4,0-1.89-.686-1.932-1.988v-4.7h-.882v4.69c0,1.694.7,2.744,2.534,2.744a2.687,2.687,0,0,0,2.492-1.512h.028V150H161ZM162.666,150h.882v-3.85a2.488,2.488,0,0,1,2.688-2.59v-.882a2.653,2.653,0,0,0-2.73,1.792h-.028v-1.694h-.812Zm11.354-6.692c1.68,0,2.534,1.554,2.534,3.08s-.854,3.08-2.534,3.08-2.534-1.554-2.534-3.08S172.34,143.308,174.02,143.308Zm0-.742c-2.2,0-3.416,1.75-3.416,3.822s1.218,3.822,3.416,3.822,3.416-1.75,3.416-3.822S176.218,142.566,174.02,142.566ZM180.348,150h.966l1.764-6.076h.028L184.884,150h.966l2.324-7.224h-.938l-1.848,6.188h-.028l-1.764-6.188H182.6l-1.764,6.188h-.028l-1.848-6.188h-.938Zm8.764,0h.882v-4.214a2.28,2.28,0,0,1,2.268-2.478c1.428,0,1.834.952,1.834,2.184V150h.882v-4.648c0-1.722-.616-2.786-2.646-2.786a2.464,2.464,0,0,0-2.31,1.456h-.028v-1.246h-.882ZM7.2,157H6.314v4.144H6.286a2.577,2.577,0,0,0-2.506-1.582c-2.2,0-3.248,1.764-3.248,3.822s1.05,3.822,3.248,3.822a2.837,2.837,0,0,0,2.576-1.582h.028V167H7.2Zm-5.782,6.384c0-1.5.686-3.08,2.366-3.08,1.862,0,2.534,1.582,2.534,3.08s-.672,3.08-2.534,3.08C2.1,166.468,1.414,164.886,1.414,163.388Zm7.98-.5c.154-1.316.924-2.576,2.38-2.576a2.437,2.437,0,0,1,2.3,2.576Zm5.558.742c.07-2.03-.868-4.06-3.178-4.06s-3.262,1.918-3.262,3.822c0,2.058.966,3.822,3.262,3.822a2.942,2.942,0,0,0,3.15-2.59h-.882a2.189,2.189,0,0,1-2.268,1.848c-1.68,0-2.38-1.554-2.38-2.842Zm7.168-1.582a2.691,2.691,0,0,0-2.926-2.478c-2.2,0-3.416,1.75-3.416,3.822S17,167.21,19.194,167.21a2.922,2.922,0,0,0,2.982-2.8h-.882a2.173,2.173,0,0,1-2.1,2.058c-1.68,0-2.534-1.554-2.534-3.08s.854-3.08,2.534-3.08a1.955,1.955,0,0,1,2.044,1.736Zm1.3-3.626H24.3V157h-.882Zm0,8.582H24.3v-7.224h-.882Zm7.784-5.11a2.368,2.368,0,0,0-2.646-2.324c-1.274,0-2.716.56-2.716,2.03,0,1.218.868,1.638,2.016,1.932l1.134.252c.8.2,1.582.476,1.582,1.316,0,1.008-1.134,1.372-1.974,1.372a1.9,1.9,0,0,1-2.128-1.806h-.882c.154,1.778,1.274,2.548,2.968,2.548,1.344,0,2.9-.6,2.9-2.17a2.117,2.117,0,0,0-2.058-2l-1.176-.266c-.616-.154-1.5-.448-1.5-1.218,0-.938.924-1.246,1.708-1.246a1.663,1.663,0,0,1,1.89,1.582Zm1.54-3.472h.882V157h-.882Zm0,8.582h.882v-7.224h-.882Zm5.628-6.692c1.68,0,2.534,1.554,2.534,3.08s-.854,3.08-2.534,3.08-2.534-1.554-2.534-3.08S36.694,160.308,38.374,160.308Zm0-.742c-2.2,0-3.416,1.75-3.416,3.822s1.218,3.822,3.416,3.822,3.416-1.75,3.416-3.822S40.572,159.566,38.374,159.566ZM43.092,167h.882v-4.214a2.28,2.28,0,0,1,2.268-2.478c1.428,0,1.834.952,1.834,2.184V167h.882v-4.648c0-1.722-.616-2.786-2.646-2.786A2.464,2.464,0,0,0,44,161.022h-.028v-1.246h-.882Zm12.74-5.11a2.368,2.368,0,0,0-2.646-2.324c-1.274,0-2.716.56-2.716,2.03,0,1.218.868,1.638,2.016,1.932l1.134.252c.8.2,1.582.476,1.582,1.316,0,1.008-1.134,1.372-1.974,1.372a1.9,1.9,0,0,1-2.128-1.806h-.882c.154,1.778,1.274,2.548,2.968,2.548,1.344,0,2.9-.6,2.9-2.17a2.117,2.117,0,0,0-2.058-2l-1.176-.266c-.616-.154-1.5-.448-1.5-1.218,0-.938.924-1.246,1.708-1.246a1.663,1.663,0,0,1,1.89,1.582Zm3.22,5.11v-1.484H57.876V167ZM1.008,201H7.98v-.812H1.96V196.24H7.532v-.812H1.96v-3.612H7.91V191h-6.9Zm10.108,0h.938l2.7-7.224h-.91l-2.24,6.342h-.028L9.31,193.776H8.33Zm7.56-6.692c1.68,0,2.534,1.554,2.534,3.08s-.854,3.08-2.534,3.08-2.534-1.554-2.534-3.08S17,194.308,18.676,194.308Zm0-.742c-2.2,0-3.416,1.75-3.416,3.822s1.218,3.822,3.416,3.822,3.416-1.75,3.416-3.822S20.874,193.566,18.676,193.566ZM23.422,201H24.3V191h-.882Zm4.55,0h.938l2.7-7.224H30.7l-2.24,6.342h-.028l-2.268-6.342h-.98ZM33,196.884c.154-1.316.924-2.576,2.38-2.576a2.437,2.437,0,0,1,2.3,2.576Zm5.558.742c.07-2.03-.868-4.06-3.178-4.06s-3.262,1.918-3.262,3.822c0,2.058.966,3.822,3.262,3.822a2.942,2.942,0,0,0,3.15-2.59h-.882a2.189,2.189,0,0,1-2.268,1.848c-1.68,0-2.38-1.554-2.38-2.842ZM45.234,201H46.2l1.764-6.076h.028L49.77,201h.966l2.324-7.224h-.938l-1.848,6.188h-.028l-1.764-6.188h-.994l-1.764,6.188H45.7l-1.848-6.188H42.91Zm8.792-8.582h.882V191h-.882Zm0,8.582h.882v-7.224h-.882ZM58,191.606H57.12v2.17H55.86v.742h1.26v4.942c-.014,1.232.392,1.624,1.568,1.624.266,0,.518-.028.784-.028V200.3a6.841,6.841,0,0,1-.756.042c-.63-.042-.714-.378-.714-.952v-4.872h1.47v-.742H58ZM60.732,201h.882v-4.214a2.28,2.28,0,0,1,2.268-2.478c1.428,0,1.834.952,1.834,2.184V201H66.6v-4.648c0-1.722-.616-2.786-2.646-2.786a2.464,2.464,0,0,0-2.31,1.456h-.028V191h-.882Zm17.276-7.224h-.882v3.794c0,1.47-.658,2.9-2.17,2.9-1.4,0-1.89-.686-1.932-1.988v-4.7h-.882v4.69c0,1.694.7,2.744,2.534,2.744a2.687,2.687,0,0,0,2.492-1.512H77.2V201h.812Zm6.874,2.114a2.368,2.368,0,0,0-2.646-2.324c-1.274,0-2.716.56-2.716,2.03,0,1.218.868,1.638,2.016,1.932l1.134.252c.8.2,1.582.476,1.582,1.316,0,1.008-1.134,1.372-1.974,1.372a1.9,1.9,0,0,1-2.128-1.806h-.882c.154,1.778,1.274,2.548,2.968,2.548,1.344,0,2.9-.6,2.9-2.17a2.117,2.117,0,0,0-2.058-2l-1.176-.266c-.616-.154-1.5-.448-1.5-1.218,0-.938.924-1.246,1.708-1.246A1.663,1.663,0,0,1,84,195.89ZM88.1,201v-1.484H86.926V201Z" transform="translate(7931.264 -11653.072)"/>
    <path id="Path_307" data-name="Path 307" d="M1.548-10.386a1.3,1.3,0,0,0-.4-.711,1.525,1.525,0,0,0-.882-.189v-.594H4.788v.594h-.81a.651.651,0,0,0-.333.063.246.246,0,0,0-.1.225,1.477,1.477,0,0,0,.054.324L5.706-2.466h.072l2.286-9.162H9.486l2.466,9.18h.09L14-10.44A4.167,4.167,0,0,0,14.112-11a.25.25,0,0,0-.1-.216.625.625,0,0,0-.351-.072H12.636v-.594h3.78v.594a1.488,1.488,0,0,0-1.062.315,2.537,2.537,0,0,0-.54,1.179L12.168,0h-1.6L8.208-8.6H8.136L5.9,0H4.3Zm22.23,6.264h-5.4a4.553,4.553,0,0,0,.594,2.358,2.022,2.022,0,0,0,1.818.81,2.475,2.475,0,0,0,1.458-.405,2.736,2.736,0,0,0,.918-1.215l.558.324a4.382,4.382,0,0,1-1.26,1.764,3.763,3.763,0,0,1-2.43.666q-3.87,0-3.87-4.374a4.916,4.916,0,0,1,.981-3.33A3.619,3.619,0,0,1,20.016-8.64a3.4,3.4,0,0,1,2.871,1.152,5,5,0,0,1,.891,3.132Zm-2.2-.72a6.937,6.937,0,0,0-.288-2.34,1.16,1.16,0,0,0-1.206-.738,1.364,1.364,0,0,0-1.287.738,5.348,5.348,0,0,0-.441,2.34ZM25.074-.594a2.71,2.71,0,0,0,.783-.081.472.472,0,0,0,.315-.261,1.6,1.6,0,0,0,.072-.558v-9.054a1.413,1.413,0,0,0-.108-.675.452.452,0,0,0-.414-.171h-.54v-.612l2.646-.414h.5V-1.494a1.512,1.512,0,0,0,.081.567.472.472,0,0,0,.324.261,2.842,2.842,0,0,0,.747.072V0h-4.41ZM34.542.18A3.842,3.842,0,0,1,31.617-.891,4.566,4.566,0,0,1,30.6-4.14a4.754,4.754,0,0,1,1.062-3.375,4.007,4.007,0,0,1,3.06-1.125,4.626,4.626,0,0,1,1.854.324,2.419,2.419,0,0,1,1.08.837A1.958,1.958,0,0,1,38-6.372a1.209,1.209,0,0,1-.279.846.983.983,0,0,1-.765.306.957.957,0,0,1-.747-.288,1.057,1.057,0,0,1-.261-.738,1.1,1.1,0,0,1,.081-.45q.081-.18.1-.216a.761.761,0,0,0,.126-.36.532.532,0,0,0-.324-.468,1.962,1.962,0,0,0-.936-.18,1.926,1.926,0,0,0-1.62.72,4.446,4.446,0,0,0-.558,2.61,5.074,5.074,0,0,0,.594,2.754,2.045,2.045,0,0,0,1.836.9A2.217,2.217,0,0,0,36.783-1.4a4.016,4.016,0,0,0,.873-1.188l.45.27A3.848,3.848,0,0,1,36.873-.459,3.717,3.717,0,0,1,34.542.18Zm9.108,0A4.221,4.221,0,0,1,40.473-.882a4.676,4.676,0,0,1-1.017-3.33,4.753,4.753,0,0,1,1.026-3.357,4.215,4.215,0,0,1,3.2-1.089,4.142,4.142,0,0,1,3.15,1.071,4.739,4.739,0,0,1,1.008,3.339A4.74,4.74,0,0,1,46.827-.891,4.2,4.2,0,0,1,43.65.18Zm0-.72a1.587,1.587,0,0,0,1.512-.882A6.037,6.037,0,0,0,45.63-4.14a6.446,6.446,0,0,0-.486-2.88,1.6,1.6,0,0,0-1.512-.918,1.59,1.59,0,0,0-1.5.891,6.259,6.259,0,0,0-.477,2.817,6.2,6.2,0,0,0,.477,2.808A1.606,1.606,0,0,0,43.65-.54Zm19.638-.954a1.5,1.5,0,0,0,.081.576.473.473,0,0,0,.315.252,2.923,2.923,0,0,0,.774.072V0H60.192V-.594a3.532,3.532,0,0,0,.684-.045.362.362,0,0,0,.27-.207,1.514,1.514,0,0,0,.072-.558v-4.32a1.874,1.874,0,0,0-.4-1.3,1.459,1.459,0,0,0-1.143-.45,1.919,1.919,0,0,0-.945.234,2.792,2.792,0,0,0-.819.738v5a1.686,1.686,0,0,0,.072.567.434.434,0,0,0,.288.261,2.267,2.267,0,0,0,.666.072V0h-4.14V-.594a3.532,3.532,0,0,0,.684-.045.389.389,0,0,0,.279-.207,1.359,1.359,0,0,0,.081-.558v-4.32a1.874,1.874,0,0,0-.4-1.3,1.5,1.5,0,0,0-1.179-.45,2.2,2.2,0,0,0-1.728.81V-1.4a1.359,1.359,0,0,0,.081.558.389.389,0,0,0,.279.207,3.268,3.268,0,0,0,.648.045V0H49.266V-.594a2.923,2.923,0,0,0,.774-.072.443.443,0,0,0,.306-.252,1.674,1.674,0,0,0,.072-.576V-6.7a1.359,1.359,0,0,0-.108-.657.431.431,0,0,0-.4-.171h-.54v-.612l2.592-.414h.5v1.116a5.63,5.63,0,0,1,1.494-.891,4.09,4.09,0,0,1,1.512-.315,2.581,2.581,0,0,1,1.449.4,2.118,2.118,0,0,1,.837.972,4.352,4.352,0,0,1,1.431-.99,4.179,4.179,0,0,1,1.7-.378,2.263,2.263,0,0,1,1.764.693,2.8,2.8,0,0,1,.63,1.953ZM73.08-4.122h-5.4a4.553,4.553,0,0,0,.594,2.358,2.022,2.022,0,0,0,1.818.81,2.475,2.475,0,0,0,1.458-.405,2.736,2.736,0,0,0,.918-1.215l.558.324a4.382,4.382,0,0,1-1.26,1.764,3.763,3.763,0,0,1-2.43.666q-3.87,0-3.87-4.374a4.916,4.916,0,0,1,.981-3.33A3.619,3.619,0,0,1,69.318-8.64a3.4,3.4,0,0,1,2.871,1.152,5,5,0,0,1,.891,3.132Zm-2.2-.72a6.937,6.937,0,0,0-.288-2.34A1.16,1.16,0,0,0,69.39-7.92a1.364,1.364,0,0,0-1.287.738,5.348,5.348,0,0,0-.441,2.34ZM81.45.2A2.112,2.112,0,0,1,79.9-.351a2.086,2.086,0,0,1-.558-1.557V-7.74H78.282v-.594a2.944,2.944,0,0,0,1.494-1,5.329,5.329,0,0,0,.882-1.953h.756V-8.46H83.34v.72H81.414v5.2a1.961,1.961,0,0,0,.306,1.206,1.13,1.13,0,0,0,.954.4,2.233,2.233,0,0,0,.9-.18l.2.45a9.031,9.031,0,0,1-1.143.648A2.855,2.855,0,0,1,81.45.2ZM88.812.18A4.221,4.221,0,0,1,85.635-.882a4.676,4.676,0,0,1-1.017-3.33,4.753,4.753,0,0,1,1.026-3.357,4.215,4.215,0,0,1,3.2-1.089A4.142,4.142,0,0,1,92-7.587a4.739,4.739,0,0,1,1.008,3.339A4.74,4.74,0,0,1,91.989-.891,4.2,4.2,0,0,1,88.812.18Zm0-.72a1.587,1.587,0,0,0,1.512-.882,6.037,6.037,0,0,0,.468-2.718,6.446,6.446,0,0,0-.486-2.88,1.6,1.6,0,0,0-1.512-.918,1.59,1.59,0,0,0-1.5.891,6.259,6.259,0,0,0-.477,2.817,6.2,6.2,0,0,0,.477,2.808A1.606,1.606,0,0,0,88.812-.54ZM99.63-10.386a2.26,2.26,0,0,0-.252-.558A.707.707,0,0,0,99-11.2a2.472,2.472,0,0,0-.72-.081v-.594H103v.594H102.2q-.432,0-.432.324a.925.925,0,0,0,.054.288L104.6-2.286h.09l2.628-8.154a1.727,1.727,0,0,0,.108-.5.3.3,0,0,0-.108-.261.574.574,0,0,0-.342-.081h-.864v-.594h3.726v.594a1.727,1.727,0,0,0-.954.216,1.487,1.487,0,0,0-.522.756L104.706,0H103.14ZM113.382.18A4.221,4.221,0,0,1,110.2-.882a4.676,4.676,0,0,1-1.017-3.33,4.753,4.753,0,0,1,1.026-3.357,4.215,4.215,0,0,1,3.2-1.089,4.142,4.142,0,0,1,3.15,1.071,4.739,4.739,0,0,1,1.008,3.339,4.74,4.74,0,0,1-1.017,3.357A4.2,4.2,0,0,1,113.382.18Zm0-.72a1.587,1.587,0,0,0,1.512-.882,6.037,6.037,0,0,0,.468-2.718,6.446,6.446,0,0,0-.486-2.88,1.6,1.6,0,0,0-1.512-.918,1.59,1.59,0,0,0-1.5.891,6.259,6.259,0,0,0-.477,2.817,6.2,6.2,0,0,0,.477,2.808A1.606,1.606,0,0,0,113.382-.54Zm5.094-.054a2.71,2.71,0,0,0,.783-.081.472.472,0,0,0,.315-.261,1.6,1.6,0,0,0,.072-.558v-9.054a1.413,1.413,0,0,0-.108-.675.452.452,0,0,0-.414-.171h-.54v-.612l2.646-.414h.5V-1.494a1.512,1.512,0,0,0,.081.567.472.472,0,0,0,.324.261,2.842,2.842,0,0,0,.747.072V0h-4.41Zm6.03-6.606a1.063,1.063,0,0,0-.387-.531,1.629,1.629,0,0,0-.783-.135V-8.46h4.14v.594h-.63q-.342,0-.342.27a.985.985,0,0,0,.036.216L128.592-2h.054l1.89-5.346a1.58,1.58,0,0,0,.036-.234q0-.288-.36-.288h-.7V-8.46h3.276v.594a1.445,1.445,0,0,0-.792.162,1.218,1.218,0,0,0-.4.576L128.664,0h-1.332Z" transform="translate(7931.264 -11676.072)"/>
  </g>
</svg>
