<svg xmlns="http://www.w3.org/2000/svg" xmlns:xlink="http://www.w3.org/1999/xlink" width="796.265" height="551.448" viewBox="0 0 796.265 551.448">
  <defs>
    <filter id="Path_323" x="0" y="0" width="796.265" height="551.448" filterUnits="userSpaceOnUse">
      <feOffset dy="25" input="SourceAlpha"/>
      <feGaussianBlur stdDeviation="15" result="blur"/>
      <feFlood flood-opacity="0.2"/>
      <feComposite operator="in" in2="blur"/>
      <feComposite in="SourceGraphic"/>
    </filter>
    <linearGradient id="linear-gradient" x1="0.5" x2="0.5" y2="1" gradientUnits="objectBoundingBox">
      <stop offset="0" stop-color="#ecebec"/>
      <stop offset="1" stop-color="#d4d3d4"/>
    </linearGradient>
  </defs>
  <g id="Group_978" data-name="Group 978" transform="translate(3916 8345)">
    <g transform="matrix(1, 0, 0, 1, -3916, -8345)" filter="url(#Path_323)">
      <g id="Path_323-2" data-name="Path 323" transform="translate(46 21)" fill="#fff">
        <path d="M5.956,0H698.309a5.78,5.78,0,0,1,5.956,5.586V453.862a5.78,5.78,0,0,1-5.956,5.586H5.956A5.78,5.78,0,0,1,0,453.862V5.586A5.78,5.78,0,0,1,5.956,0Z" stroke="none"/>
        <path d="M 5.95574951171875 3.0517578125e-05 C 2.66644287109375 3.0517578125e-05 -6.103515625e-05 2.500946044921875 -6.103515625e-05 5.586029052734375 L -6.103515625e-05 453.8623046875 C -6.103515625e-05 456.9472961425781 2.66644287109375 459.4482116699219 5.95574951171875 459.4482116699219 L 698.3088989257813 459.4482116699219 C 701.5982055664063 459.4482116699219 704.2645874023438 456.9472961425781 704.2645874023438 453.8623046875 L 704.2645874023438 5.586029052734375 C 704.2645874023438 2.500946044921875 701.5982055664063 3.0517578125e-05 698.3088989257813 3.0517578125e-05 L 5.95574951171875 3.0517578125e-05 M 5.95574951171875 -0.999969482421875 L 698.3088989257813 -0.999969482421875 C 702.1442260742188 -0.999969482421875 705.2645874023438 1.954498291015625 705.2645874023438 5.586029052734375 L 705.2645874023438 453.8623046875 C 705.2645874023438 457.4937438964844 702.1442260742188 460.4482116699219 698.3088989257813 460.4482116699219 L 5.95574951171875 460.4482116699219 C 2.12030029296875 460.4482116699219 -1.00006103515625 457.4937438964844 -1.00006103515625 453.8623046875 L -1.00006103515625 5.586029052734375 C -1.00006103515625 1.954498291015625 2.12030029296875 -0.999969482421875 5.95574951171875 -0.999969482421875 Z" stroke="none" fill="rgba(0,0,0,0.1)"/>
      </g>
    </g>
    <g id="Title_bar" data-name="Title bar" transform="translate(-3870 -8324)">
      <path id="Rectangle_210" data-name="Rectangle 210" d="M4,0H701a4,4,0,0,1,4,4V22a0,0,0,0,1,0,0H0a0,0,0,0,1,0,0V4A4,4,0,0,1,4,0Z" fill="url(#linear-gradient)"/>
      <g id="Path_46" data-name="Path 46" transform="translate(-17.5 200)" fill="#ff6157">
        <path d="M28.5-184a5,5,0,0,0,5-5,5,5,0,0,0-5-5,5,5,0,0,0-5,5A5,5,0,0,0,28.5-184Z" stroke="none"/>
        <path d="M 28.5 -184.5 C 30.98130989074707 -184.5 33 -186.5186920166016 33 -189 C 33 -191.4813079833984 30.98130989074707 -193.5 28.5 -193.5 C 26.01869010925293 -193.5 24 -191.4813079833984 24 -189 C 24 -186.5186920166016 26.01869010925293 -184.5 28.5 -184.5 M 28.5 -184 C 25.73858070373535 -184 23.5 -186.2386016845703 23.5 -189 C 23.5 -191.7613983154297 25.73858070373535 -194 28.5 -194 C 31.26141929626465 -194 33.5 -191.7613983154297 33.5 -189 C 33.5 -186.2386016845703 31.26141929626465 -184 28.5 -184 Z" stroke="none" fill="rgba(0,0,0,0.15)"/>
      </g>
      <g id="Path_47" data-name="Path 47" transform="translate(-1.5 200)" fill="#ffc12f">
        <path d="M28.5-184a5,5,0,0,0,5-5,5,5,0,0,0-5-5,5,5,0,0,0-5,5A5,5,0,0,0,28.5-184Z" stroke="none"/>
        <path d="M 28.5 -184.5 C 30.98130989074707 -184.5 33 -186.5186920166016 33 -189 C 33 -191.4813079833984 30.98130989074707 -193.5 28.5 -193.5 C 26.01869010925293 -193.5 24 -191.4813079833984 24 -189 C 24 -186.5186920166016 26.01869010925293 -184.5 28.5 -184.5 M 28.5 -184 C 25.73858070373535 -184 23.5 -186.2386016845703 23.5 -189 C 23.5 -191.7613983154297 25.73858070373535 -194 28.5 -194 C 31.26141929626465 -194 33.5 -191.7613983154297 33.5 -189 C 33.5 -186.2386016845703 31.26141929626465 -184 28.5 -184 Z" stroke="none" fill="rgba(0,0,0,0.15)"/>
      </g>
      <g id="Path_48" data-name="Path 48" transform="translate(14.5 200)" fill="#2acb42">
        <path d="M28.5-184a5,5,0,0,0,5-5,5,5,0,0,0-5-5,5,5,0,0,0-5,5A5,5,0,0,0,28.5-184Z" stroke="none"/>
        <path d="M 28.5 -184.5 C 30.98130989074707 -184.5 33 -186.5186920166016 33 -189 C 33 -191.4813079833984 30.98130989074707 -193.5 28.5 -193.5 C 26.01869010925293 -193.5 24 -191.4813079833984 24 -189 C 24 -186.5186920166016 26.01869010925293 -184.5 28.5 -184.5 M 28.5 -184 C 25.73858070373535 -184 23.5 -186.2386016845703 23.5 -189 C 23.5 -191.7613983154297 25.73858070373535 -194 28.5 -194 C 31.26141929626465 -194 33.5 -191.7613983154297 33.5 -189 C 33.5 -186.2386016845703 31.26141929626465 -184 28.5 -184 Z" stroke="none" fill="rgba(0,0,0,0.15)"/>
      </g>
      <path id="Path_326" data-name="Path 326" d="M-47.089-5.688h.075L-45.349,0h1.133l2.095-7.75h-1.251l-1.418,5.935h-.075L-46.493-7.75H-47.61l-1.617,5.935H-49.3L-50.726-7.75h-1.251L-49.888,0h1.139Zm7.965.709a1.411,1.411,0,0,1,1.439,1.515h-2.954A1.5,1.5,0,0,1-39.124-4.979Zm1.434,3.4a1.4,1.4,0,0,1-1.391.709,1.545,1.545,0,0,1-1.558-1.676V-2.61h4.13v-.4c0-1.837-.983-2.949-2.61-2.949-1.649,0-2.7,1.187-2.7,3.056s1.026,3.019,2.7,3.019a2.373,2.373,0,0,0,2.535-1.692ZM-35.214,0h1.155V-8.132h-1.155Zm7.691-3.937a2.307,2.307,0,0,0-2.5-2.025c-1.7,0-2.739,1.144-2.739,3.019,0,1.907,1.042,3.056,2.745,3.056a2.288,2.288,0,0,0,2.5-1.993h-1.123a1.27,1.27,0,0,1-1.38.961c-.961,0-1.558-.757-1.558-2.025,0-1.246.591-1.987,1.558-1.987a1.3,1.3,0,0,1,1.38.994Zm3.641,4.05c1.708,0,2.755-1.144,2.755-3.04s-1.053-3.035-2.755-3.035-2.761,1.149-2.761,3.035S-25.6.113-23.882.113Zm0-1.026c-1,0-1.568-.736-1.568-2.014s.564-2.009,1.568-2.009,1.568.741,1.568,2.009S-22.883-.913-23.882-.913Zm4,.913h1.155V-3.577A1.258,1.258,0,0,1-17.5-4.9,1.019,1.019,0,0,1-16.368-3.84V0h1.133V-3.679A1.185,1.185,0,0,1-14-4.9c.757,0,1.133.387,1.133,1.176V0h1.155V-4.028A1.739,1.739,0,0,0-13.58-5.962a1.9,1.9,0,0,0-1.778,1.053h-.091a1.639,1.639,0,0,0-1.611-1.053,1.651,1.651,0,0,0-1.627,1.053h-.086v-.94h-1.112ZM-7.833-4.979A1.411,1.411,0,0,1-6.394-3.464H-9.348A1.5,1.5,0,0,1-7.833-4.979Zm1.434,3.4A1.4,1.4,0,0,1-7.79-.87,1.545,1.545,0,0,1-9.348-2.546V-2.61h4.13v-.4c0-1.837-.983-2.949-2.61-2.949-1.649,0-2.7,1.187-2.7,3.056S-9.5.113-7.822.113A2.373,2.373,0,0,0-5.287-1.579ZM0,1.493V.575H-5.051v.918ZM.991-7.3v1.482H.062v.972H.991v3.3C.991-.419,1.5.032,2.785.032a3.73,3.73,0,0,0,.628-.059V-.988a3.8,3.8,0,0,1-.44.027c-.575,0-.827-.269-.827-.881V-4.85H3.414v-.972H2.146V-7.3ZM7.033.113c1.708,0,2.755-1.144,2.755-3.04S8.736-5.962,7.033-5.962,4.273-4.812,4.273-2.927,5.32.113,7.033.113Zm0-1.026c-1,0-1.568-.736-1.568-2.014s.564-2.009,1.568-2.009S8.6-4.195,8.6-2.927,8.032-.913,7.033-.913Zm7.976,2.406V.575H9.955v.918ZM18.371,0l2.755-7.75H19.849L17.77-1.5h-.091L15.589-7.75H14.279L17.05,0Zm5.72.113c1.708,0,2.755-1.144,2.755-3.04s-1.053-3.035-2.755-3.035-2.761,1.149-2.761,3.035S22.378.113,24.092.113Zm0-1.026c-1,0-1.568-.736-1.568-2.014s.564-2.009,1.568-2.009,1.568.741,1.568,2.009S25.091-.913,24.092-.913ZM28.141,0H29.3V-8.132H28.141Zm7.691-5.849H34.608l-1.45,4.614h-.091L31.611-5.849H30.375L32.486,0h1.241ZM36.971.091a.777.777,0,0,0,.79-.8.777.777,0,0,0-.79-.8.78.78,0,0,0-.79.8A.78.78,0,0,0,36.971.091Zm2.653-7.4v1.482h-.929v.972h.929v3.3c0,1.128.51,1.579,1.794,1.579a3.73,3.73,0,0,0,.628-.059V-.988a3.8,3.8,0,0,1-.44.027c-.575,0-.827-.269-.827-.881V-4.85h1.268v-.972H40.779V-7.3Zm5.817,5.242L46.719.011h1.327L46.1-2.949l1.928-2.89H46.735L45.489-3.776H45.4L44.141-5.838H42.793L44.748-2.9,42.809.011h1.268l1.278-2.073ZM49.512-7.3v1.482h-.929v.972h.929v3.3c0,1.128.51,1.579,1.794,1.579a3.73,3.73,0,0,0,.628-.059V-.988a3.8,3.8,0,0,1-.44.027c-.575,0-.827-.269-.827-.881V-4.85h1.268v-.972H50.667V-7.3Z" transform="translate(352.262 15.25)" fill="rgba(0,0,0,0.76)"/>
      <rect id="Rectangle_241" data-name="Rectangle 241" width="705" height="1" transform="translate(0 21)" opacity="0.06"/>
    </g>
    <path id="Path_324" data-name="Path 324" d="M4.45,20.913H6.1l4.01-14.236h.045l4.032,14.236h1.6L20.178,5.006H18.664L15.032,18.93h-.045l-3.9-13.924H9.195L5.318,18.93H5.274L1.665,5.006H.038Zm17.556-6.55c.245-2.094,1.47-4.1,3.787-4.1,2.25,0,3.587,1.983,3.654,4.1Zm8.845,1.181c.111-3.23-1.381-6.461-5.057-6.461-3.654,0-5.191,3.052-5.191,6.082,0,3.275,1.537,6.082,5.191,6.082,2.919,0,4.411-1.515,5.013-4.122H29.4a3.483,3.483,0,0,1-3.609,2.941c-2.673,0-3.787-2.473-3.787-4.523Zm8.087,5.369h1.4V14.786a3.96,3.96,0,0,1,4.278-4.122v-1.4a4.222,4.222,0,0,0-4.344,2.852h-.045v-2.7H38.937Zm7.441-6.55c.245-2.094,1.47-4.1,3.787-4.1,2.25,0,3.587,1.983,3.654,4.1Zm8.845,1.181c.111-3.23-1.381-6.461-5.057-6.461-3.654,0-5.191,3.052-5.191,6.082,0,3.275,1.537,6.082,5.191,6.082,2.919,0,4.411-1.515,5.013-4.122h-1.4a3.483,3.483,0,0,1-3.609,2.941c-2.673,0-3.787-2.473-3.787-4.523Zm1.916-8.288h1.4V5.006h-1.4Zm0,13.657h1.4V9.417h-1.4Zm4.1,0h1.4V14.5c0-2.406,1.025-4.233,3.431-4.233,1.8,0,2.406,1.292,2.406,2.852v7.8h1.4V14.408c0-2.139.691-4.144,3.119-4.144,2.027,0,2.718,1.025,2.718,2.919v7.731h1.4v-7.8c0-2.7-1.27-4.032-3.81-4.032a3.886,3.886,0,0,0-3.654,2.25,3.2,3.2,0,0,0-3.3-2.25A3.956,3.956,0,0,0,62.6,11.355h-.067V9.417H61.238Zm19.828-7.976c.067-1.871,1.314-2.673,3.074-2.673,1.671,0,3.008.468,3.008,2.362,0,1.248-.646,1.448-1.8,1.56-3.03.356-6.171.49-6.171,3.7,0,2.317,1.715,3.364,3.854,3.364a4.383,4.383,0,0,0,4.188-2.339h.045c0,1.181.223,2.005,1.649,2.005a3.972,3.972,0,0,0,.913-.089V19.643a1.062,1.062,0,0,1-.446.089.739.739,0,0,1-.824-.847v-6.1c0-3.1-2.206-3.7-4.233-3.7-2.651,0-4.5,1.159-4.656,3.854Zm6.082,3.52c0,2.25-1.849,3.609-4.01,3.609a2.381,2.381,0,0,1-2.562-2.272c0-2.228,2.963-2.228,5.347-2.651.379-.067,1-.178,1.181-.512h.045Zm13.924-7.04h-1.4V11.4h-.045a4.02,4.02,0,0,0-3.654-2.317c-3.32,0-5.191,2.629-5.191,5.793,0,3.3,1.515,5.9,5.191,5.9a3.925,3.925,0,0,0,3.654-2.362h.045v1.56c0,2.829-1.092,4.344-3.7,4.344-1.537,0-3.074-.6-3.364-2.295H91.2c.178,2.428,2.473,3.476,4.768,3.476,3.721,0,5.1-2.072,5.1-5.525ZM95.971,19.6c-2.607,0-3.787-2.25-3.787-4.567,0-2.384,1.114-4.768,3.787-4.768s3.7,2.518,3.7,4.768C99.67,17.348,98.4,19.6,95.971,19.6Zm7.8-12.342h1.4V5.006h-1.4Zm0,13.657h1.4V9.417h-1.4Zm4.077,0h1.4V14.207c.067-2.25,1.359-3.943,3.609-3.943,2.272,0,2.919,1.515,2.919,3.476v7.174h1.4v-7.4c0-2.74-.98-4.433-4.211-4.433a3.92,3.92,0,0,0-3.676,2.317h-.045V9.417h-1.4Zm12.81-6.55c.245-2.094,1.47-4.1,3.787-4.1,2.25,0,3.587,1.983,3.654,4.1Zm8.845,1.181c.111-3.23-1.381-6.461-5.057-6.461-3.654,0-5.191,3.052-5.191,6.082,0,3.275,1.537,6.082,5.191,6.082,2.919,0,4.411-1.515,5.013-4.122h-1.4a3.483,3.483,0,0,1-3.609,2.941c-2.673,0-3.787-2.473-3.787-4.523ZM141.509,5.006h-1.4V11.6h-.045a4.1,4.1,0,0,0-3.988-2.518c-3.5,0-5.169,2.807-5.169,6.082s1.671,6.082,5.169,6.082a4.514,4.514,0,0,0,4.1-2.518h.045v2.183h1.292Zm-9.2,10.159c0-2.384,1.092-4.9,3.765-4.9,2.963,0,4.032,2.518,4.032,4.9s-1.069,4.9-4.032,4.9C133.4,20.067,132.308,17.549,132.308,15.165Zm20.3-9.2h-1.4V9.417H149.2V10.6H151.2v7.864c-.022,1.961.624,2.584,2.5,2.584.423,0,.824-.045,1.248-.045V19.8a10.886,10.886,0,0,1-1.2.067c-1-.067-1.136-.6-1.136-1.515V10.6h2.339V9.417H152.6Zm4.344,14.949h1.4V14.207c.067-2.25,1.359-3.943,3.609-3.943,2.272,0,2.919,1.515,2.919,3.476v7.174h1.4v-7.4c0-2.74-.98-4.433-4.211-4.433A3.92,3.92,0,0,0,158.4,11.4h-.045V5.006h-1.4Zm12.81-6.55c.245-2.094,1.47-4.1,3.787-4.1,2.25,0,3.587,1.983,3.654,4.1Zm8.845,1.181c.111-3.23-1.381-6.461-5.057-6.461-3.654,0-5.191,3.052-5.191,6.082,0,3.275,1.537,6.082,5.191,6.082,2.919,0,4.411-1.515,5.013-4.122h-1.4a3.483,3.483,0,0,1-3.609,2.941c-2.673,0-3.787-2.473-3.787-4.523Zm8.065,5.369h1.4V14.207c.067-2.25,1.359-3.943,3.609-3.943,2.272,0,2.919,1.515,2.919,3.476v7.174H196v-7.4c0-2.74-.98-4.433-4.211-4.433a3.92,3.92,0,0,0-3.676,2.317h-.045V9.417h-1.4Zm12.81-6.55c.245-2.094,1.47-4.1,3.787-4.1,2.25,0,3.587,1.983,3.654,4.1Zm8.845,1.181c.111-3.23-1.381-6.461-5.057-6.461-3.654,0-5.191,3.052-5.191,6.082,0,3.275,1.537,6.082,5.191,6.082,2.919,0,4.411-1.515,5.013-4.122h-1.4a3.483,3.483,0,0,1-3.609,2.941c-2.673,0-3.787-2.473-3.787-4.523Zm4.434,5.369h1.537l2.807-9.669h.045l2.829,9.669h1.537l3.7-11.5h-1.493l-2.941,9.847h-.045l-2.807-9.847h-1.582l-2.807,9.847h-.045l-2.941-9.847h-1.493Zm22.257-8.132c-.111-2.5-1.894-3.7-4.211-3.7-2.027,0-4.322.891-4.322,3.23,0,1.938,1.381,2.607,3.208,3.074l1.8.4c1.27.312,2.518.757,2.518,2.094,0,1.6-1.8,2.183-3.141,2.183-1.871,0-3.275-.98-3.386-2.874h-1.4c.245,2.829,2.027,4.055,4.723,4.055,2.139,0,4.612-.958,4.612-3.453,0-2.005-1.671-2.941-3.275-3.186l-1.871-.423c-.98-.245-2.384-.713-2.384-1.938,0-1.493,1.47-1.983,2.718-1.983,1.6,0,2.941.78,3.008,2.518Zm5.124,8.132V18.552h-1.871v2.362ZM7.078,70.175l3.074,8.154H3.893Zm-7.2,14.392H1.509l1.916-4.946h7.241L12.6,84.567H14.23L7.992,68.66H6.3ZM21.6,88.822h1.4V82.384h.045A4.089,4.089,0,0,0,27.04,84.9c3.5,0,5.169-2.807,5.169-6.082s-1.671-6.082-5.169-6.082a4.247,4.247,0,0,0-4.1,2.518H22.9V73.071H21.6Zm9.2-10c0,2.384-1.092,4.9-3.765,4.9-2.963,0-4.032-2.518-4.032-4.9,0-2.607.913-4.9,4.032-4.9C29.714,73.918,30.805,76.435,30.805,78.819Zm3.609,5.748h1.4V68.66h-1.4Zm5.369-7.976c.067-1.871,1.314-2.673,3.074-2.673,1.671,0,3.008.468,3.008,2.362,0,1.248-.646,1.448-1.8,1.56-3.03.356-6.171.49-6.171,3.7,0,2.317,1.715,3.364,3.854,3.364a4.383,4.383,0,0,0,4.188-2.339h.045c0,1.181.223,2.005,1.649,2.005a3.973,3.973,0,0,0,.913-.089V83.3a1.062,1.062,0,0,1-.446.089.739.739,0,0,1-.824-.847v-6.1c0-3.1-2.206-3.7-4.233-3.7-2.651,0-4.5,1.159-4.656,3.854Zm6.082,3.52c0,2.25-1.849,3.609-4.01,3.609a2.381,2.381,0,0,1-2.562-2.272c0-2.228,2.963-2.228,5.347-2.651.379-.067,1-.178,1.181-.512h.045ZM59.59,76.68a4.283,4.283,0,0,0-4.656-3.943c-3.5,0-5.436,2.785-5.436,6.082S51.436,84.9,54.934,84.9c2.584,0,4.367-1.671,4.745-4.456h-1.4a3.458,3.458,0,0,1-3.342,3.275c-2.673,0-4.032-2.473-4.032-4.9s1.359-4.9,4.032-4.9a3.11,3.11,0,0,1,3.253,2.763Zm2.874,1.337c.245-2.094,1.47-4.1,3.787-4.1,2.25,0,3.587,1.983,3.654,4.1ZM71.308,79.2c.111-3.23-1.381-6.461-5.057-6.461-3.654,0-5.191,3.052-5.191,6.082,0,3.275,1.537,6.082,5.191,6.082,2.919,0,4.411-1.515,5.013-4.122h-1.4a3.483,3.483,0,0,1-3.609,2.941c-2.673,0-3.787-2.473-3.787-4.523Zm10.315-9.58h-1.4v3.453H78.215v1.181H80.22v7.864c-.022,1.961.624,2.584,2.5,2.584.423,0,.824-.045,1.248-.045v-1.2a10.887,10.887,0,0,1-1.2.067c-1-.067-1.136-.6-1.136-1.515V74.252h2.339V73.071H81.624Zm4.344,14.949h1.4V77.861c.067-2.25,1.359-3.943,3.609-3.943,2.272,0,2.919,1.515,2.919,3.476v7.174h1.4v-7.4c0-2.74-.98-4.434-4.211-4.434a3.92,3.92,0,0,0-3.676,2.317h-.045V68.66h-1.4Zm13.256-7.976c.067-1.871,1.314-2.673,3.074-2.673,1.671,0,3.008.468,3.008,2.362,0,1.248-.646,1.448-1.8,1.56-3.03.356-6.171.49-6.171,3.7,0,2.317,1.715,3.364,3.854,3.364a4.383,4.383,0,0,0,4.188-2.339h.045c0,1.181.223,2.005,1.649,2.005a3.973,3.973,0,0,0,.913-.089V83.3a1.062,1.062,0,0,1-.446.089.739.739,0,0,1-.824-.847v-6.1c0-3.1-2.206-3.7-4.233-3.7-2.651,0-4.5,1.159-4.656,3.854Zm6.082,3.52c0,2.25-1.849,3.609-4.01,3.609a2.381,2.381,0,0,1-2.562-2.272c0-2.228,2.963-2.228,5.347-2.651.379-.067,1-.178,1.181-.512h.045Zm6.439-10.493h-1.4v3.453h-2.005v1.181h2.005v7.864c-.022,1.961.624,2.584,2.5,2.584.423,0,.824-.045,1.248-.045v-1.2a10.887,10.887,0,0,1-1.2.067c-1-.067-1.136-.6-1.136-1.515V74.252h2.339V73.071h-2.339Zm12.788,0h-1.4v3.453h-2.005v1.181h2.005v7.864c-.022,1.961.624,2.584,2.5,2.584.423,0,.824-.045,1.248-.045v-1.2a10.887,10.887,0,0,1-1.2.067c-1-.067-1.136-.6-1.136-1.515V74.252h2.339V73.071h-2.339Zm5.191,8.4c.245-2.094,1.47-4.1,3.787-4.1,2.25,0,3.587,1.983,3.654,4.1Zm8.845,1.181c.111-3.23-1.381-6.461-5.057-6.461-3.654,0-5.191,3.052-5.191,6.082,0,3.275,1.537,6.082,5.191,6.082,2.919,0,4.411-1.515,5.013-4.122h-1.4a3.483,3.483,0,0,1-3.609,2.941c-2.673,0-3.787-2.473-3.787-4.523Zm1.916,5.369h1.4V68.66h-1.4Zm4.122,0h1.4V68.66h-1.4Zm12.387-8.132c-.111-2.5-1.894-3.7-4.211-3.7-2.027,0-4.322.891-4.322,3.23,0,1.938,1.381,2.607,3.208,3.074l1.8.4c1.27.312,2.518.757,2.518,2.094,0,1.6-1.8,2.183-3.141,2.183-1.871,0-3.275-.98-3.386-2.874h-1.4c.245,2.829,2.027,4.055,4.723,4.055,2.139,0,4.612-.958,4.612-3.453,0-2.005-1.671-2.941-3.275-3.186l-1.871-.423c-.98-.245-2.384-.713-2.384-1.938,0-1.493,1.47-1.983,2.718-1.983,1.6,0,2.941.78,3.008,2.518Zm11.919,8.087-.49,1.314c-.468,1.069-.757,1.8-2.005,1.8a4.682,4.682,0,0,1-.958-.111v1.181a3.746,3.746,0,0,0,1.069.111c1.76,0,2.206-.557,3.03-2.5l4.99-13.256h-1.4l-3.542,9.8-3.787-9.8h-1.493Zm11.875-10.6c2.673,0,4.032,2.473,4.032,4.9s-1.359,4.9-4.032,4.9-4.032-2.473-4.032-4.9S178.113,73.918,180.787,73.918Zm0-1.181c-3.5,0-5.436,2.785-5.436,6.082s1.938,6.082,5.436,6.082,5.436-2.785,5.436-6.082S184.285,72.737,180.787,72.737Zm16.843.334h-1.4v6.038c0,2.339-1.047,4.612-3.453,4.612-2.228,0-3.008-1.092-3.074-3.164V73.071h-1.4v7.463c0,2.7,1.114,4.367,4.032,4.367a4.276,4.276,0,0,0,3.966-2.406h.045v2.072h1.292Zm9.669,4.946c.245-2.094,1.47-4.1,3.787-4.1,2.25,0,3.587,1.983,3.654,4.1Zm8.845,1.181c.111-3.23-1.381-6.461-5.057-6.461-3.654,0-5.191,3.052-5.191,6.082,0,3.275,1.537,6.082,5.191,6.082,2.919,0,4.411-1.515,5.013-4.122h-1.4a3.483,3.483,0,0,1-3.609,2.941c-2.673,0-3.787-2.473-3.787-4.523Zm.579,5.369h1.738L222,79.733l3.609,4.835h1.782l-4.478-5.993,4.144-5.5H225.3l-3.208,4.367-3.275-4.367h-1.76l4.122,5.525Zm13.3-7.976c.067-1.871,1.314-2.673,3.074-2.673,1.671,0,3.008.468,3.008,2.362,0,1.248-.646,1.448-1.8,1.56-3.03.356-6.171.49-6.171,3.7,0,2.317,1.715,3.364,3.854,3.364a4.383,4.383,0,0,0,4.188-2.339h.045c0,1.181.223,2.005,1.649,2.005a3.973,3.973,0,0,0,.913-.089V83.3a1.062,1.062,0,0,1-.446.089.739.739,0,0,1-.824-.847v-6.1c0-3.1-2.206-3.7-4.233-3.7-2.651,0-4.5,1.159-4.656,3.854Zm6.082,3.52c0,2.25-1.849,3.609-4.01,3.609a2.381,2.381,0,0,1-2.562-2.272c0-2.228,2.963-2.228,5.347-2.651.379-.067,1-.178,1.181-.512h.045Zm13.724-3.431a4.283,4.283,0,0,0-4.656-3.943c-3.5,0-5.436,2.785-5.436,6.082s1.938,6.082,5.436,6.082c2.584,0,4.367-1.671,4.745-4.456h-1.4a3.458,3.458,0,0,1-3.342,3.275c-2.673,0-4.032-2.473-4.032-4.9s1.359-4.9,4.032-4.9a3.111,3.111,0,0,1,3.253,2.763Zm4.278-7.062h-1.4v3.453H250.7v1.181H252.7v7.864c-.022,1.961.624,2.584,2.5,2.584.423,0,.824-.045,1.248-.045v-1.2a10.887,10.887,0,0,1-1.2.067c-1-.067-1.136-.6-1.136-1.515V74.252h2.339V73.071h-2.339ZM258.5,84.567h1.4V68.66h-1.4Zm7.4-.045-.49,1.314c-.468,1.069-.758,1.8-2.005,1.8a4.682,4.682,0,0,1-.958-.111v1.181a3.746,3.746,0,0,0,1.069.111c1.76,0,2.206-.557,3.03-2.5l4.99-13.256h-1.4l-3.542,9.8-3.787-9.8H261.3Zm15.751.045h1.537l2.807-9.669h.045l2.829,9.669H290.4l3.7-11.5H292.6l-2.941,9.847h-.045l-2.807-9.847H285.23l-2.807,9.847h-.045l-2.941-9.847h-1.493Zm13.947,0h1.4V77.861c.067-2.25,1.359-3.943,3.609-3.943,2.272,0,2.919,1.515,2.919,3.476v7.174h1.4v-7.4c0-2.74-.98-4.434-4.211-4.434a3.92,3.92,0,0,0-3.676,2.317h-.045V68.66h-1.4Zm13.256-7.976c.067-1.871,1.314-2.673,3.074-2.673,1.671,0,3.008.468,3.008,2.362,0,1.248-.646,1.448-1.8,1.56-3.03.356-6.171.49-6.171,3.7,0,2.317,1.715,3.364,3.854,3.364a4.383,4.383,0,0,0,4.188-2.339h.045c0,1.181.223,2.005,1.649,2.005a3.973,3.973,0,0,0,.913-.089V83.3a1.062,1.062,0,0,1-.446.089.739.739,0,0,1-.824-.847v-6.1c0-3.1-2.206-3.7-4.233-3.7-2.651,0-4.5,1.159-4.656,3.854Zm6.082,3.52c0,2.25-1.849,3.609-4.01,3.609a2.381,2.381,0,0,1-2.562-2.272c0-2.228,2.963-2.228,5.347-2.651.379-.067,1-.178,1.181-.512h.045Zm6.439-10.493h-1.4v3.453h-2.005v1.181h2.005v7.864c-.022,1.961.624,2.584,2.5,2.584.423,0,.824-.045,1.248-.045v-1.2a10.887,10.887,0,0,1-1.2.067c-1-.067-1.136-.6-1.136-1.515V74.252h2.339V73.071h-2.339Zm13.857,14.9-.49,1.314c-.468,1.069-.757,1.8-2.005,1.8a4.682,4.682,0,0,1-.958-.111v1.181a3.746,3.746,0,0,0,1.069.111c1.76,0,2.206-.557,3.03-2.5l4.99-13.256h-1.4l-3.542,9.8-3.787-9.8h-1.493Zm11.875-10.6c2.673,0,4.032,2.473,4.032,4.9s-1.359,4.9-4.032,4.9-4.033-2.473-4.033-4.9S344.425,73.918,347.1,73.918Zm0-1.181c-3.5,0-5.436,2.785-5.436,6.082S343.6,84.9,347.1,84.9s5.436-2.785,5.436-6.082S350.6,72.737,347.1,72.737Zm16.843.334h-1.4v6.038c0,2.339-1.047,4.612-3.453,4.612-2.228,0-3.008-1.092-3.074-3.164V73.071h-1.4v7.463c0,2.7,1.114,4.367,4.032,4.367A4.276,4.276,0,0,0,362.6,82.5h.045v2.072h1.292Zm8.822,11.5h1.4V77.861c.067-2.25,1.359-3.943,3.609-3.943,2.272,0,2.919,1.515,2.919,3.476v7.174h1.4v-7.4c0-2.74-.98-4.434-4.211-4.434a3.92,3.92,0,0,0-3.676,2.317h-.045V73.071h-1.4Zm12.81-6.55c.245-2.094,1.47-4.1,3.787-4.1,2.25,0,3.587,1.983,3.654,4.1Zm8.845,1.181c.111-3.23-1.381-6.461-5.057-6.461-3.654,0-5.191,3.052-5.191,6.082,0,3.275,1.537,6.082,5.191,6.082,2.919,0,4.411-1.515,5.013-4.122h-1.4a3.483,3.483,0,0,1-3.609,2.941c-2.673,0-3.787-2.473-3.787-4.523Zm2.718-1.181c.245-2.094,1.47-4.1,3.787-4.1,2.25,0,3.587,1.983,3.654,4.1Zm8.845,1.181c.111-3.23-1.381-6.461-5.057-6.461-3.654,0-5.191,3.052-5.191,6.082,0,3.275,1.537,6.082,5.191,6.082,2.919,0,4.411-1.515,5.013-4.122h-1.4a3.483,3.483,0,0,1-3.609,2.941c-2.673,0-3.787-2.473-3.787-4.523ZM417.99,68.66h-1.4v6.595h-.045a4.1,4.1,0,0,0-3.988-2.518c-3.5,0-5.169,2.807-5.169,6.082s1.671,6.082,5.169,6.082a4.514,4.514,0,0,0,4.1-2.518h.045v2.183h1.292Zm-9.2,10.159c0-2.384,1.092-4.9,3.765-4.9,2.963,0,4.032,2.518,4.032,4.9s-1.069,4.9-4.032,4.9C409.881,83.72,408.789,81.2,408.789,78.819Zm20.3-9.2h-1.4v3.453h-2.005v1.181h2.005v7.864c-.022,1.961.624,2.584,2.5,2.584.423,0,.824-.045,1.248-.045v-1.2a10.887,10.887,0,0,1-1.2.067c-1-.067-1.136-.6-1.136-1.515V74.252h2.339V73.071h-2.339Zm9.224,4.3c2.673,0,4.032,2.473,4.032,4.9s-1.359,4.9-4.032,4.9-4.033-2.473-4.033-4.9S435.635,73.918,438.308,73.918Zm0-1.181c-3.5,0-5.436,2.785-5.436,6.082s1.938,6.082,5.436,6.082,5.436-2.785,5.436-6.082S441.806,72.737,438.308,72.737Zm13.724,11.83h1.4V80.2l2.272-1.894,4.545,6.26h1.76l-5.236-7.241,4.9-4.255h-1.871l-6.372,5.57V68.66h-1.4Zm11.117,0h1.4V77.861c.067-2.25,1.359-3.943,3.609-3.943,2.272,0,2.919,1.515,2.919,3.476v7.174h1.4v-7.4c0-2.74-.98-4.434-4.211-4.434a3.92,3.92,0,0,0-3.676,2.317h-.045V73.071h-1.4Zm16.843-10.649c2.673,0,4.032,2.473,4.032,4.9s-1.359,4.9-4.032,4.9-4.033-2.473-4.033-4.9S477.319,73.918,479.992,73.918Zm0-1.181c-3.5,0-5.436,2.785-5.436,6.082s1.938,6.082,5.436,6.082,5.436-2.785,5.436-6.082S483.49,72.737,479.992,72.737Zm10.07,11.83H491.6l2.807-9.669h.045l2.829,9.669h1.537l3.7-11.5h-1.493l-2.941,9.847h-.045l-2.807-9.847h-1.582l-2.807,9.847H490.8l-2.941-9.847h-1.493Zm21.432-7.976c.067-1.871,1.314-2.673,3.074-2.673,1.671,0,3.008.468,3.008,2.362,0,1.248-.646,1.448-1.8,1.56-3.03.356-6.171.49-6.171,3.7,0,2.317,1.715,3.364,3.854,3.364a4.383,4.383,0,0,0,4.188-2.339h.045c0,1.181.223,2.005,1.649,2.005a3.972,3.972,0,0,0,.913-.089V83.3a1.062,1.062,0,0,1-.446.089.739.739,0,0,1-.824-.847v-6.1c0-3.1-2.206-3.7-4.233-3.7-2.651,0-4.5,1.159-4.656,3.854Zm6.082,3.52c0,2.25-1.849,3.609-4.01,3.609A2.381,2.381,0,0,1,511,81.448c0-2.228,2.963-2.228,5.347-2.651.379-.067,1-.178,1.181-.512h.045Zm4.188,4.456h1.4V77.861c.067-2.25,1.359-3.943,3.609-3.943,2.272,0,2.919,1.515,2.919,3.476v7.174h1.4v-7.4c0-2.74-.98-4.434-4.211-4.434a3.92,3.92,0,0,0-3.676,2.317h-.045V73.071h-1.4Zm22.1-15.907h-1.4v6.595h-.045a4.1,4.1,0,0,0-3.988-2.518c-3.5,0-5.169,2.807-5.169,6.082s1.671,6.082,5.169,6.082a4.514,4.514,0,0,0,4.1-2.518h.045v2.183h1.292Zm-9.2,10.159c0-2.384,1.092-4.9,3.765-4.9,2.963,0,4.032,2.518,4.032,4.9s-1.069,4.9-4.032,4.9C535.756,83.72,534.665,81.2,534.665,78.819Zm20.608,5.748h1.537l2.807-9.669h.044l2.829,9.669h1.537l3.7-11.5h-1.493l-2.941,9.847h-.045l-2.807-9.847h-1.582l-2.807,9.847h-.045l-2.941-9.847h-1.493Zm13.947,0h1.4V77.861c.067-2.25,1.359-3.943,3.609-3.943,2.272,0,2.919,1.515,2.919,3.476v7.174h1.4v-7.4c0-2.74-.98-4.434-4.211-4.434a3.92,3.92,0,0,0-3.676,2.317h-.045V68.66h-1.4Zm15.283-.045-.49,1.314c-.468,1.069-.757,1.8-2.005,1.8a4.683,4.683,0,0,1-.958-.111v1.181a3.747,3.747,0,0,0,1.069.111c1.76,0,2.206-.557,3.03-2.5l4.99-13.256h-1.4l-3.542,9.8-3.787-9.8h-1.493ZM597.736,70.91h1.4V68.66h-1.4Zm0,13.657h1.4v-11.5h-1.4Zm6.327-14.949h-1.4v3.453h-2.005v1.181h2.005v7.864c-.022,1.961.624,2.584,2.5,2.584.423,0,.824-.045,1.248-.045v-1.2a10.886,10.886,0,0,1-1.2.067c-1-.067-1.136-.6-1.136-1.515V74.252H606.4V73.071h-2.339Zm5.236-.958v2.362h.936c.067.691-.29,1.871-1.047,2.094v.958a2.986,2.986,0,0,0,1.983-3.03V68.66Zm11.14,7.775c-.111-2.5-1.894-3.7-4.211-3.7-2.027,0-4.322.891-4.322,3.23,0,1.938,1.381,2.607,3.208,3.074l1.8.4c1.27.312,2.518.757,2.518,2.094,0,1.6-1.8,2.183-3.141,2.183-1.871,0-3.275-.98-3.386-2.874h-1.4c.245,2.829,2.027,4.055,4.723,4.055,2.139,0,4.612-.958,4.612-3.453,0-2.005-1.671-2.941-3.275-3.186l-1.871-.423c-.98-.245-2.384-.713-2.384-1.938,0-1.493,1.47-1.983,2.718-1.983,1.6,0,2.941.78,3.008,2.518ZM1.4,102.737H2.8v-2.25H1.4Zm0,13.657H2.8V104.9H1.4Zm4.1,0H6.9v-6.416c0-2.406,1.025-4.233,3.431-4.233,1.8,0,2.406,1.292,2.406,2.852v7.8h1.4v-6.505c0-2.139.691-4.144,3.119-4.144,2.027,0,2.718,1.025,2.718,2.919v7.731h1.4v-7.8c0-2.7-1.27-4.032-3.81-4.032a3.886,3.886,0,0,0-3.654,2.25,3.2,3.2,0,0,0-3.3-2.25,3.956,3.956,0,0,0-3.765,2.272H6.789V104.9H5.5Zm18.558,4.255h1.4v-6.439H25.5a4.089,4.089,0,0,0,3.988,2.518c3.5,0,5.169-2.807,5.169-6.082s-1.671-6.082-5.169-6.082a4.247,4.247,0,0,0-4.1,2.518h-.045V104.9H24.055Zm9.2-10c0,2.384-1.092,4.9-3.765,4.9-2.963,0-4.032-2.518-4.032-4.9,0-2.607.913-4.9,4.032-4.9C32.165,105.745,33.256,108.262,33.256,110.646Zm8.444-4.9c2.673,0,4.032,2.473,4.032,4.9s-1.359,4.9-4.032,4.9-4.032-2.473-4.032-4.9S39.026,105.745,41.7,105.745Zm0-1.181c-3.5,0-5.436,2.785-5.436,6.082s1.938,6.082,5.436,6.082,5.436-2.785,5.436-6.082S45.2,104.564,41.7,104.564Zm7.53,11.83h1.4v-6.127a3.96,3.96,0,0,1,4.278-4.122v-1.4a4.222,4.222,0,0,0-4.344,2.852h-.045v-2.7H49.23Zm9.246-14.949h-1.4V104.9H55.067v1.181h2.005v7.864c-.022,1.961.624,2.584,2.5,2.584.423,0,.824-.045,1.248-.045v-1.2a10.887,10.887,0,0,1-1.2.067c-1-.067-1.136-.6-1.136-1.515v-7.753h2.339V104.9H58.476Zm5.637,6.973c.067-1.871,1.314-2.673,3.074-2.673,1.671,0,3.008.468,3.008,2.362,0,1.248-.646,1.448-1.8,1.56-3.03.356-6.171.49-6.171,3.7,0,2.317,1.715,3.364,3.854,3.364a4.383,4.383,0,0,0,4.188-2.339h.045c0,1.181.223,2.005,1.649,2.005a3.973,3.973,0,0,0,.913-.089v-1.181a1.062,1.062,0,0,1-.446.089.739.739,0,0,1-.824-.847v-6.1c0-3.1-2.206-3.7-4.233-3.7-2.651,0-4.5,1.159-4.656,3.854Zm6.082,3.52c0,2.25-1.849,3.609-4.01,3.609a2.381,2.381,0,0,1-2.562-2.272c0-2.228,2.963-2.228,5.347-2.651.379-.067,1-.178,1.181-.512h.045Zm4.188,4.456h1.4v-6.706c.067-2.25,1.359-3.943,3.609-3.943,2.272,0,2.919,1.515,2.919,3.476v7.174h1.4V109c0-2.74-.98-4.433-4.211-4.433a3.92,3.92,0,0,0-3.676,2.317h-.045V104.9h-1.4ZM88.6,101.445h-1.4V104.9H85.188v1.181h2.005v7.864c-.022,1.961.624,2.584,2.5,2.584.423,0,.824-.045,1.248-.045v-1.2a10.887,10.887,0,0,1-1.2.067c-1-.067-1.136-.6-1.136-1.515v-7.753h2.339V104.9H88.6Zm7.062,14.949v-2.362H93.788v2.362ZM111.054,102l3.074,8.154h-6.26Zm-7.2,14.392h1.626l1.916-4.946h7.241l1.938,4.946h1.626l-6.238-15.907h-1.693Zm15.506,0h1.4v-6.706c.067-2.25,1.359-3.943,3.609-3.943,2.272,0,2.919,1.515,2.919,3.476v7.174h1.4V109c0-2.74-.98-4.433-4.211-4.433a3.92,3.92,0,0,0-3.676,2.317h-.045V104.9h-1.4Zm22.1-15.907h-1.4v6.595h-.045a4.1,4.1,0,0,0-3.988-2.518c-3.5,0-5.169,2.807-5.169,6.082s1.671,6.082,5.169,6.082a4.514,4.514,0,0,0,4.1-2.518h.045v2.183h1.292Zm-9.2,10.159c0-2.384,1.092-4.9,3.765-4.9,2.963,0,4.032,2.518,4.032,4.9s-1.069,4.9-4.032,4.9C133.355,115.547,132.264,113.03,132.264,110.646Zm19.338-2.228c.067-1.871,1.314-2.673,3.074-2.673,1.671,0,3.008.468,3.008,2.362,0,1.248-.646,1.448-1.8,1.56-3.03.356-6.171.49-6.171,3.7,0,2.317,1.715,3.364,3.854,3.364a4.383,4.383,0,0,0,4.188-2.339h.045c0,1.181.223,2.005,1.649,2.005a3.973,3.973,0,0,0,.913-.089v-1.181a1.062,1.062,0,0,1-.446.089.739.739,0,0,1-.824-.847v-6.1c0-3.1-2.206-3.7-4.233-3.7-2.651,0-4.5,1.159-4.656,3.854Zm6.082,3.52c0,2.25-1.849,3.609-4.01,3.609a2.381,2.381,0,0,1-2.562-2.272c0-2.228,2.963-2.228,5.347-2.651.379-.067,1-.178,1.181-.512h.045Zm16.6,8.711h1.4v-6.439h.045a4.089,4.089,0,0,0,3.988,2.518c3.5,0,5.169-2.807,5.169-6.082s-1.671-6.082-5.169-6.082a4.247,4.247,0,0,0-4.1,2.518h-.045V104.9h-1.292Zm9.2-10c0,2.384-1.092,4.9-3.765,4.9-2.963,0-4.032-2.518-4.032-4.9,0-2.607.913-4.9,4.032-4.9C182.391,105.745,183.483,108.262,183.483,110.646Zm3.609,5.748h1.4V100.487h-1.4Zm5.369-7.976c.067-1.871,1.314-2.673,3.074-2.673,1.671,0,3.008.468,3.008,2.362,0,1.248-.646,1.448-1.8,1.56-3.03.356-6.171.49-6.171,3.7,0,2.317,1.715,3.364,3.854,3.364a4.383,4.383,0,0,0,4.188-2.339h.045c0,1.181.223,2.005,1.649,2.005a3.973,3.973,0,0,0,.913-.089v-1.181a1.062,1.062,0,0,1-.446.089.739.739,0,0,1-.824-.847v-6.1c0-3.1-2.206-3.7-4.233-3.7-2.651,0-4.5,1.159-4.656,3.854Zm6.082,3.52c0,2.25-1.849,3.609-4.01,3.609a2.381,2.381,0,0,1-2.562-2.272c0-2.228,2.963-2.228,5.347-2.651.379-.067,1-.178,1.181-.512h.045Zm13.724-3.431a4.283,4.283,0,0,0-4.656-3.943c-3.5,0-5.436,2.785-5.436,6.082s1.938,6.082,5.436,6.082c2.584,0,4.367-1.671,4.745-4.456h-1.4a3.458,3.458,0,0,1-3.342,3.275c-2.673,0-4.032-2.473-4.032-4.9s1.359-4.9,4.032-4.9a3.11,3.11,0,0,1,3.253,2.763Zm2.874,1.337c.245-2.094,1.47-4.1,3.787-4.1,2.25,0,3.587,1.983,3.654,4.1Zm8.845,1.181c.111-3.23-1.381-6.461-5.057-6.461-3.654,0-5.191,3.052-5.191,6.082,0,3.275,1.537,6.082,5.191,6.082,2.919,0,4.411-1.515,5.013-4.122h-1.4a3.483,3.483,0,0,1-3.609,2.941c-2.673,0-3.787-2.473-3.787-4.523Zm10.627,5.369h1.537l2.807-9.669H239l2.829,9.669h1.537l3.7-11.5h-1.493l-2.941,9.847h-.045l-2.807-9.847H238.2l-2.807,9.847h-.045l-2.941-9.847h-1.493Zm13.947,0h1.4v-6.706c.067-2.25,1.359-3.943,3.609-3.943,2.272,0,2.919,1.515,2.919,3.476v7.174h1.4V109c0-2.74-.98-4.433-4.211-4.433a3.92,3.92,0,0,0-3.676,2.317h-.045v-6.394h-1.4Zm12.81-6.55c.245-2.094,1.47-4.1,3.787-4.1,2.25,0,3.587,1.983,3.654,4.1Zm8.845,1.181c.111-3.23-1.381-6.461-5.057-6.461-3.654,0-5.191,3.052-5.191,6.082,0,3.275,1.537,6.082,5.191,6.082,2.919,0,4.411-1.515,5.013-4.122h-1.4a3.483,3.483,0,0,1-3.609,2.941c-2.673,0-3.787-2.473-3.787-4.523Zm1.894,5.369h1.4v-6.127a3.96,3.96,0,0,1,4.278-4.122v-1.4a4.222,4.222,0,0,0-4.344,2.852H273.4v-2.7h-1.292Zm7.441-6.55c.245-2.094,1.47-4.1,3.787-4.1,2.25,0,3.587,1.983,3.654,4.1Zm8.845,1.181c.111-3.23-1.381-6.461-5.057-6.461-3.654,0-5.191,3.052-5.191,6.082,0,3.275,1.537,6.082,5.191,6.082,2.919,0,4.411-1.515,5.013-4.122h-1.4a3.483,3.483,0,0,1-3.609,2.941c-2.673,0-3.787-2.473-3.787-4.523Zm8.065,5.369h1.4v-6.706c.067-2.25,1.359-3.943,3.609-3.943,2.272,0,2.919,1.515,2.919,3.476v7.174h1.4V109c0-2.74-.98-4.433-4.211-4.433a3.92,3.92,0,0,0-3.676,2.317h-.045V104.9h-1.4ZM313.3,105.745c2.673,0,4.032,2.473,4.032,4.9s-1.359,4.9-4.032,4.9-4.033-2.473-4.033-4.9S310.628,105.745,313.3,105.745Zm0-1.181c-3.5,0-5.436,2.785-5.436,6.082s1.938,6.082,5.436,6.082,5.436-2.785,5.436-6.082S316.8,104.564,313.3,104.564Zm18.581,1.181c2.673,0,4.032,2.473,4.032,4.9s-1.359,4.9-4.032,4.9-4.033-2.473-4.033-4.9S329.209,105.745,331.882,105.745Zm0-1.181c-3.5,0-5.436,2.785-5.436,6.082s1.938,6.082,5.436,6.082,5.436-2.785,5.436-6.082S335.38,104.564,331.882,104.564Zm7.508,11.83h1.4v-6.706c.067-2.25,1.359-3.943,3.609-3.943,2.272,0,2.919,1.515,2.919,3.476v7.174h1.4V109c0-2.74-.98-4.433-4.211-4.433a3.92,3.92,0,0,0-3.676,2.317h-.045V104.9h-1.4Zm12.81-6.55c.245-2.094,1.47-4.1,3.787-4.1,2.25,0,3.587,1.983,3.654,4.1Zm8.845,1.181c.111-3.23-1.381-6.461-5.057-6.461-3.654,0-5.191,3.052-5.191,6.082,0,3.275,1.537,6.082,5.191,6.082,2.919,0,4.411-1.515,5.013-4.122h-1.4a3.483,3.483,0,0,1-3.609,2.941c-2.673,0-3.787-2.473-3.787-4.523Zm8.11-8.288h1.4v-2.25h-1.4Zm0,13.657h1.4V104.9h-1.4Zm12.387-8.132c-.111-2.5-1.894-3.7-4.211-3.7-2.027,0-4.322.891-4.322,3.23,0,1.938,1.381,2.607,3.208,3.074l1.8.4c1.27.312,2.518.757,2.518,2.094,0,1.6-1.8,2.183-3.141,2.183-1.871,0-3.275-.98-3.386-2.874h-1.4c.245,2.829,2.027,4.055,4.723,4.055,2.139,0,4.612-.958,4.612-3.453,0-2.005-1.671-2.941-3.275-3.186l-1.871-.423c-.98-.245-2.384-.713-2.384-1.938,0-1.493,1.47-1.983,2.718-1.983,1.6,0,2.941.78,3.008,2.518Zm8.622,12.387h1.4v-6.439h.045a4.089,4.089,0,0,0,3.988,2.518c3.5,0,5.169-2.807,5.169-6.082s-1.671-6.082-5.169-6.082a4.247,4.247,0,0,0-4.1,2.518h-.045V104.9h-1.292Zm9.2-10c0,2.384-1.092,4.9-3.765,4.9-2.963,0-4.032-2.518-4.032-4.9,0-2.607.913-4.9,4.032-4.9C398.273,105.745,399.365,108.262,399.365,110.646Zm12.9-5.748h-1.4v6.038c0,2.339-1.047,4.612-3.453,4.612-2.228,0-3.008-1.092-3.074-3.164V104.9h-1.4v7.463c0,2.7,1.114,4.367,4.033,4.367a4.276,4.276,0,0,0,3.966-2.406h.045v2.072h1.292Zm10.939,3.364c-.111-2.5-1.894-3.7-4.211-3.7-2.027,0-4.322.891-4.322,3.23,0,1.938,1.381,2.607,3.208,3.074l1.8.4c1.27.312,2.518.757,2.518,2.094,0,1.6-1.8,2.183-3.141,2.183-1.871,0-3.275-.98-3.386-2.874h-1.4c.245,2.829,2.027,4.055,4.723,4.055,2.139,0,4.612-.958,4.612-3.453,0-2.005-1.671-2.941-3.275-3.186l-1.871-.423c-.98-.245-2.384-.713-2.384-1.938,0-1.493,1.47-1.983,2.718-1.983,1.6,0,2.941.78,3.008,2.518Zm2.406,8.132h1.4v-6.706c.067-2.25,1.359-3.943,3.609-3.943,2.272,0,2.919,1.515,2.919,3.476v7.174h1.4V109c0-2.74-.98-4.433-4.211-4.433a3.92,3.92,0,0,0-3.676,2.317h-.045v-6.394h-1.4Zm12.008-13.657h1.4v-2.25h-1.4Zm0,13.657h1.4V104.9h-1.4Zm4.077,0h1.4v-6.706c.067-2.25,1.359-3.943,3.609-3.943,2.272,0,2.919,1.515,2.919,3.476v7.174h1.4V109c0-2.74-.98-4.433-4.211-4.433a3.92,3.92,0,0,0-3.676,2.317H443.1V104.9h-1.4Zm21.7-11.5h-1.4v1.983h-.045a4.02,4.02,0,0,0-3.654-2.317c-3.32,0-5.191,2.629-5.191,5.793,0,3.3,1.515,5.9,5.191,5.9a3.925,3.925,0,0,0,3.654-2.362h.045v1.56c0,2.829-1.092,4.344-3.7,4.344-1.537,0-3.074-.6-3.364-2.295h-1.4c.178,2.428,2.473,3.476,4.768,3.476,3.721,0,5.1-2.072,5.1-5.525Zm-5.1,10.181c-2.607,0-3.787-2.25-3.787-4.567,0-2.384,1.114-4.768,3.787-4.768s3.7,2.518,3.7,4.768C461.991,112.829,460.721,115.08,458.293,115.08Zm16.2-13.635h-1.4V104.9h-2.005v1.181h2.005v7.864c-.022,1.961.624,2.584,2.5,2.584.423,0,.824-.045,1.248-.045v-1.2a10.887,10.887,0,0,1-1.2.067c-1-.067-1.136-.6-1.136-1.515v-7.753h2.339V104.9h-2.339Zm4.344,14.949h1.4v-6.706c.067-2.25,1.359-3.943,3.609-3.943,2.272,0,2.919,1.515,2.919,3.476v7.174h1.4V109c0-2.74-.98-4.433-4.211-4.433a3.92,3.92,0,0,0-3.676,2.317h-.045v-6.394h-1.4Zm12.81-6.55c.245-2.094,1.47-4.1,3.787-4.1,2.25,0,3.587,1.983,3.654,4.1Zm8.845,1.181c.111-3.23-1.381-6.461-5.057-6.461-3.654,0-5.191,3.052-5.191,6.082,0,3.275,1.537,6.082,5.191,6.082,2.919,0,4.411-1.515,5.013-4.122h-1.4a3.483,3.483,0,0,1-3.609,2.941c-2.673,0-3.787-2.473-3.787-4.523Zm1.916-8.288h1.4v-2.25h-1.4Zm0,13.657h1.4V104.9h-1.4Zm4.1,0h1.4v-6.127a3.96,3.96,0,0,1,4.278-4.122v-1.4a4.222,4.222,0,0,0-4.344,2.852H507.8v-2.7H506.5Zm14.481-7.976c.067-1.871,1.314-2.673,3.074-2.673,1.671,0,3.008.468,3.008,2.362,0,1.248-.646,1.448-1.8,1.56-3.03.356-6.171.49-6.171,3.7,0,2.317,1.716,3.364,3.854,3.364a4.383,4.383,0,0,0,4.188-2.339h.045c0,1.181.223,2.005,1.649,2.005a3.972,3.972,0,0,0,.913-.089v-1.181a1.062,1.062,0,0,1-.446.089.739.739,0,0,1-.824-.847v-6.1c0-3.1-2.206-3.7-4.233-3.7-2.651,0-4.5,1.159-4.656,3.854Zm6.082,3.52c0,2.25-1.849,3.609-4.01,3.609a2.381,2.381,0,0,1-2.562-2.272c0-2.228,2.963-2.228,5.347-2.651.379-.067,1-.178,1.181-.512h.045Zm13.924-7.04h-1.4v1.983h-.045a4.02,4.02,0,0,0-3.654-2.317c-3.32,0-5.191,2.629-5.191,5.793,0,3.3,1.515,5.9,5.191,5.9a3.926,3.926,0,0,0,3.654-2.362h.045v1.56c0,2.829-1.092,4.344-3.7,4.344-1.537,0-3.074-.6-3.364-2.295h-1.4c.178,2.428,2.473,3.476,4.768,3.476,3.721,0,5.1-2.072,5.1-5.525Zm-5.1,10.181c-2.607,0-3.787-2.25-3.787-4.567,0-2.384,1.114-4.768,3.787-4.768s3.7,2.518,3.7,4.768C539.588,112.829,538.318,115.08,535.89,115.08Zm8.6-5.236c.245-2.094,1.47-4.1,3.787-4.1,2.25,0,3.587,1.983,3.654,4.1Zm8.845,1.181c.111-3.23-1.381-6.461-5.057-6.461-3.654,0-5.191,3.052-5.191,6.082,0,3.275,1.537,6.082,5.191,6.082,2.919,0,4.411-1.515,5.013-4.122h-1.4a3.483,3.483,0,0,1-3.609,2.941c-2.673,0-3.787-2.473-3.787-4.523Zm1.871,5.369h1.4v-6.706c.067-2.25,1.359-3.943,3.609-3.943,2.273,0,2.919,1.515,2.919,3.476v7.174h1.4V109c0-2.74-.98-4.433-4.211-4.433a3.92,3.92,0,0,0-3.676,2.317h-.045V104.9h-1.4Zm22.1-15.907h-1.4v6.595h-.045a4.1,4.1,0,0,0-3.988-2.518c-3.5,0-5.169,2.807-5.169,6.082s1.671,6.082,5.169,6.082a4.514,4.514,0,0,0,4.1-2.518h.045v2.183h1.292Zm-9.2,10.159c0-2.384,1.092-4.9,3.765-4.9,2.963,0,4.032,2.518,4.032,4.9s-1.069,4.9-4.032,4.9C569.2,115.547,568.105,113.03,568.105,110.646Zm13.145-2.228c.067-1.871,1.314-2.673,3.075-2.673,1.671,0,3.008.468,3.008,2.362,0,1.248-.646,1.448-1.8,1.56-3.03.356-6.171.49-6.171,3.7,0,2.317,1.715,3.364,3.854,3.364a4.383,4.383,0,0,0,4.188-2.339h.045c0,1.181.223,2.005,1.649,2.005a3.973,3.973,0,0,0,.913-.089v-1.181a1.062,1.062,0,0,1-.446.089.739.739,0,0,1-.824-.847v-6.1c0-3.1-2.206-3.7-4.233-3.7-2.651,0-4.5,1.159-4.656,3.854Zm6.082,3.52c0,2.25-1.849,3.609-4.01,3.609a2.381,2.381,0,0,1-2.562-2.272c0-2.228,2.963-2.228,5.347-2.651.379-.067,1-.178,1.181-.512h.045Zm6.906,4.456v-2.362h-1.871v2.362ZM4.45,180.048H6.1l4.01-14.236h.045l4.032,14.236h1.6l4.389-15.907H18.664l-3.631,13.924h-.045l-3.9-13.924H9.195L5.318,178.065H5.274L1.665,164.141H.038Zm17.556-6.55c.245-2.094,1.47-4.1,3.787-4.1,2.25,0,3.587,1.983,3.654,4.1Zm8.845,1.181c.111-3.23-1.381-6.461-5.057-6.461-3.654,0-5.191,3.052-5.191,6.082,0,3.275,1.537,6.082,5.191,6.082,2.919,0,4.411-1.515,5.013-4.122H29.4a3.483,3.483,0,0,1-3.609,2.941c-2.673,0-3.787-2.473-3.787-4.523Zm2.763-10.538V166.5h.936c.067.691-.29,1.871-1.047,2.094v.958a2.985,2.985,0,0,0,1.983-3.03v-2.384Zm5.325,15.907h1.4v-6.127a3.96,3.96,0,0,1,4.278-4.122v-1.4a4.222,4.222,0,0,0-4.344,2.852h-.045v-2.7H38.937Zm7.441-6.55c.245-2.094,1.47-4.1,3.787-4.1,2.25,0,3.587,1.983,3.654,4.1Zm8.845,1.181c.111-3.23-1.381-6.461-5.057-6.461-3.654,0-5.191,3.052-5.191,6.082,0,3.275,1.537,6.082,5.191,6.082,2.919,0,4.411-1.515,5.013-4.122h-1.4a3.483,3.483,0,0,1-3.609,2.941c-2.673,0-3.787-2.473-3.787-4.523Zm8.065,5.369h1.4v-6.706c.067-2.25,1.359-3.943,3.609-3.943,2.272,0,2.919,1.515,2.919,3.475v7.174h1.4v-7.4c0-2.74-.98-4.433-4.211-4.433a3.92,3.92,0,0,0-3.676,2.317h-.045v-6.394h-1.4ZM76.1,173.5c.245-2.094,1.47-4.1,3.787-4.1,2.25,0,3.587,1.983,3.654,4.1Zm8.845,1.181c.111-3.23-1.381-6.461-5.057-6.461-3.654,0-5.191,3.052-5.191,6.082,0,3.275,1.537,6.082,5.191,6.082,2.919,0,4.411-1.515,5.013-4.122H83.5a3.483,3.483,0,0,1-3.609,2.941c-2.673,0-3.787-2.473-3.787-4.523Zm1.894,5.369h1.4v-6.127a3.96,3.96,0,0,1,4.278-4.122v-1.4a4.222,4.222,0,0,0-4.344,2.852h-.045v-2.7H86.837Zm7.441-6.55c.245-2.094,1.47-4.1,3.787-4.1,2.25,0,3.587,1.983,3.654,4.1Zm8.845,1.181c.111-3.23-1.381-6.461-5.057-6.461-3.654,0-5.191,3.052-5.191,6.082,0,3.275,1.537,6.082,5.191,6.082,2.919,0,4.411-1.515,5.013-4.122h-1.4a3.483,3.483,0,0,1-3.609,2.941c-2.673,0-3.787-2.473-3.787-4.523Zm10.315-9.58h-1.4v3.453h-2.005v1.181h2.005V177.6c-.022,1.961.624,2.584,2.5,2.584.423,0,.824-.045,1.248-.045v-1.2a10.883,10.883,0,0,1-1.2.067c-1-.067-1.136-.6-1.136-1.515v-7.753h2.339v-1.181h-2.339Zm9.223,4.3c2.673,0,4.032,2.473,4.032,4.9s-1.359,4.9-4.032,4.9-4.032-2.473-4.032-4.9S119.988,169.4,122.661,169.4Zm0-1.181c-3.5,0-5.436,2.785-5.436,6.082s1.938,6.082,5.436,6.082S128.1,177.6,128.1,174.3,126.159,168.218,122.661,168.218Zm14.994,3.854c.067-1.871,1.314-2.673,3.074-2.673,1.671,0,3.008.468,3.008,2.362,0,1.248-.646,1.448-1.8,1.56-3.03.356-6.171.49-6.171,3.7,0,2.317,1.715,3.364,3.854,3.364a4.383,4.383,0,0,0,4.188-2.339h.045c0,1.181.223,2.005,1.649,2.005a3.973,3.973,0,0,0,.913-.089v-1.181a1.062,1.062,0,0,1-.446.089.739.739,0,0,1-.824-.847v-6.1c0-3.1-2.206-3.7-4.233-3.7-2.651,0-4.5,1.158-4.656,3.854Zm6.082,3.52c0,2.25-1.849,3.609-4.01,3.609a2.381,2.381,0,0,1-2.562-2.272c0-2.228,2.963-2.228,5.347-2.651.379-.067,1-.178,1.181-.512h.045Zm6.751,4.456h1.537l2.807-9.669h.045l2.829,9.669h1.537l3.7-11.5h-1.493l-2.941,9.847h-.045l-2.807-9.847h-1.582l-2.807,9.847h-.045l-2.941-9.847h-1.493Zm15.239-7.976c.067-1.871,1.314-2.673,3.074-2.673,1.671,0,3.008.468,3.008,2.362,0,1.248-.646,1.448-1.8,1.56-3.03.356-6.171.49-6.171,3.7,0,2.317,1.715,3.364,3.854,3.364a4.383,4.383,0,0,0,4.188-2.339h.045c0,1.181.223,2.005,1.649,2.005a3.973,3.973,0,0,0,.913-.089v-1.181a1.062,1.062,0,0,1-.446.089.739.739,0,0,1-.824-.847v-6.1c0-3.1-2.206-3.7-4.233-3.7-2.651,0-4.5,1.158-4.656,3.854Zm6.082,3.52c0,2.25-1.849,3.609-4.01,3.609a2.381,2.381,0,0,1-2.562-2.272c0-2.228,2.963-2.228,5.347-2.651.379-.067,1-.178,1.181-.512h.045Zm4.211,4.456h1.4v-4.367l2.272-1.894,4.545,6.26H186l-5.236-7.241,4.9-4.255h-1.871l-6.372,5.57v-9.981h-1.4Zm11.964-6.55c.245-2.094,1.47-4.1,3.787-4.1,2.25,0,3.587,1.983,3.654,4.1Zm8.845,1.181c.111-3.23-1.381-6.461-5.057-6.461-3.654,0-5.191,3.052-5.191,6.082,0,3.275,1.537,6.082,5.191,6.082,2.919,0,4.411-1.515,5.013-4.122h-1.4a3.483,3.483,0,0,1-3.609,2.941c-2.673,0-3.787-2.473-3.787-4.523Zm1.871,5.369h1.4v-6.706c.067-2.25,1.359-3.943,3.609-3.943,2.272,0,2.919,1.515,2.919,3.475v7.174h1.4v-7.4c0-2.74-.98-4.433-4.211-4.433a3.92,3.92,0,0,0-3.676,2.317H200.1v-1.983h-1.4ZM219.107,165.1h-1.4v3.453H215.7v1.181H217.7V177.6c-.022,1.961.624,2.584,2.5,2.584.423,0,.824-.045,1.248-.045v-1.2a10.883,10.883,0,0,1-1.2.067c-1-.067-1.136-.6-1.136-1.515v-7.753h2.339v-1.181h-2.339Zm4.344,14.949h1.4v-6.706c.067-2.25,1.359-3.943,3.609-3.943,2.272,0,2.919,1.515,2.919,3.475v7.174h1.4v-7.4c0-2.74-.98-4.433-4.211-4.433a3.92,3.92,0,0,0-3.676,2.317h-.045v-6.394h-1.4Zm12.81-6.55c.245-2.094,1.47-4.1,3.787-4.1,2.25,0,3.587,1.983,3.654,4.1Zm8.845,1.181c.111-3.23-1.381-6.461-5.057-6.461-3.654,0-5.191,3.052-5.191,6.082,0,3.275,1.537,6.082,5.191,6.082,2.919,0,4.411-1.515,5.013-4.122h-1.4a3.483,3.483,0,0,1-3.609,2.941c-2.673,0-3.787-2.473-3.787-4.523Zm8.087,9.624h1.4v-6.439h.045a4.089,4.089,0,0,0,3.988,2.518c3.5,0,5.169-2.807,5.169-6.082s-1.671-6.082-5.169-6.082a4.247,4.247,0,0,0-4.1,2.518h-.045v-2.183h-1.292Zm9.2-10c0,2.384-1.092,4.9-3.765,4.9-2.963,0-4.032-2.518-4.032-4.9,0-2.607.913-4.9,4.032-4.9C261.3,169.4,262.394,171.916,262.394,174.3Zm8.444-4.9c2.673,0,4.032,2.473,4.032,4.9s-1.359,4.9-4.032,4.9-4.032-2.473-4.032-4.9S268.165,169.4,270.838,169.4Zm0-1.181c-3.5,0-5.436,2.785-5.436,6.082s1.938,6.082,5.436,6.082,5.436-2.785,5.436-6.082S274.336,168.218,270.838,168.218ZM280.6,165.1h-1.4v3.453h-2.005v1.181h2.005V177.6c-.022,1.961.624,2.584,2.5,2.584.423,0,.824-.045,1.248-.045v-1.2a10.883,10.883,0,0,1-1.2.067c-1-.067-1.136-.6-1.136-1.515v-7.753h2.339v-1.181H280.6Zm5.191,8.4c.245-2.094,1.47-4.1,3.787-4.1,2.25,0,3.587,1.983,3.654,4.1Zm8.845,1.181c.111-3.23-1.381-6.461-5.057-6.461-3.654,0-5.191,3.052-5.191,6.082,0,3.275,1.537,6.082,5.191,6.082,2.919,0,4.411-1.515,5.013-4.122h-1.4a3.483,3.483,0,0,1-3.609,2.941c-2.673,0-3.787-2.473-3.787-4.523Zm1.871,5.369h1.4v-6.706c.067-2.25,1.359-3.943,3.609-3.943,2.272,0,2.919,1.515,2.919,3.475v7.174h1.4v-7.4c0-2.74-.98-4.433-4.211-4.433a3.92,3.92,0,0,0-3.676,2.317h-.045v-1.983h-1.4ZM310.717,165.1h-1.4v3.453h-2.005v1.181h2.005V177.6c-.022,1.961.624,2.584,2.5,2.584.423,0,.824-.045,1.248-.045v-1.2a10.884,10.884,0,0,1-1.2.067c-1-.067-1.136-.6-1.136-1.515v-7.753h2.339v-1.181h-2.339Zm4.389,1.292h1.4v-2.25h-1.4Zm0,13.657h1.4v-11.5h-1.4Zm5.369-7.976c.067-1.871,1.314-2.673,3.075-2.673,1.671,0,3.008.468,3.008,2.362,0,1.248-.646,1.448-1.8,1.56-3.03.356-6.171.49-6.171,3.7,0,2.317,1.715,3.364,3.854,3.364a4.383,4.383,0,0,0,4.188-2.339h.045c0,1.181.223,2.005,1.649,2.005a3.973,3.973,0,0,0,.913-.089v-1.181a1.062,1.062,0,0,1-.446.089.739.739,0,0,1-.824-.847v-6.1c0-3.1-2.206-3.7-4.233-3.7-2.651,0-4.5,1.158-4.656,3.854Zm6.082,3.52c0,2.25-1.849,3.609-4.01,3.609a2.381,2.381,0,0,1-2.562-2.272c0-2.228,2.963-2.228,5.347-2.651.379-.067,1-.178,1.181-.512h.045Zm4.233,4.456h1.4V164.141h-1.4ZM345.94,169.4c2.673,0,4.032,2.473,4.032,4.9s-1.359,4.9-4.032,4.9-4.033-2.473-4.033-4.9S343.267,169.4,345.94,169.4Zm0-1.181c-3.5,0-5.436,2.785-5.436,6.082s1.938,6.082,5.436,6.082,5.436-2.785,5.436-6.082S349.438,168.218,345.94,168.218Zm11.964.334h-2.272v-1c0-1.225,0-2.228,1.537-2.228a5.751,5.751,0,0,1,1.025.111v-1.2a7.2,7.2,0,0,0-1.181-.089c-2.272,0-2.785,1.381-2.785,3.364v1.047h-1.961v1.181h1.961v10.315h1.4V169.733H357.9Zm8.8,3.52c.067-1.871,1.314-2.673,3.074-2.673,1.671,0,3.008.468,3.008,2.362,0,1.248-.646,1.448-1.8,1.56-3.03.356-6.171.49-6.171,3.7,0,2.317,1.715,3.364,3.854,3.364a4.383,4.383,0,0,0,4.188-2.339h.045c0,1.181.223,2.005,1.649,2.005a3.973,3.973,0,0,0,.913-.089v-1.181a1.062,1.062,0,0,1-.446.089.739.739,0,0,1-.824-.847v-6.1c0-3.1-2.206-3.7-4.233-3.7-2.651,0-4.5,1.158-4.656,3.854Zm6.082,3.52c0,2.25-1.849,3.609-4.01,3.609a2.381,2.381,0,0,1-2.562-2.272c0-2.228,2.963-2.228,5.347-2.651.379-.067,1-.178,1.181-.512h.045Zm12.944,4.456h1.537l2.807-9.669h.045l2.829,9.669h1.537l3.7-11.5h-1.493l-2.941,9.847h-.045l-2.807-9.847h-1.582L386.51,178.4h-.045l-2.941-9.847h-1.493Zm14.793-6.55c.245-2.094,1.47-4.1,3.787-4.1,2.25,0,3.587,1.983,3.654,4.1Zm8.845,1.181c.111-3.23-1.381-6.461-5.057-6.461-3.654,0-5.191,3.052-5.191,6.082,0,3.275,1.537,6.082,5.191,6.082,2.919,0,4.411-1.515,5.013-4.122h-1.4a3.483,3.483,0,0,1-3.609,2.941c-2.673,0-3.787-2.473-3.787-4.523Zm1.916,5.369h1.4V164.141h-1.4Zm4.122,0h1.4V164.141h-1.4Zm9.669-5.481v-1.292h-5.57v1.292Zm2.7-8.176h1.4v-2.25h-1.4Zm0,13.657h1.4v-11.5h-1.4Zm4.077,0h1.4v-6.706c.067-2.25,1.359-3.943,3.609-3.943,2.272,0,2.919,1.515,2.919,3.475v7.174h1.4v-7.4c0-2.74-.98-4.433-4.211-4.433a3.92,3.92,0,0,0-3.676,2.317h-.045v-1.983h-1.4Zm16.42-11.5h-2.272v-1c0-1.225,0-2.228,1.537-2.228a5.751,5.751,0,0,1,1.025.111v-1.2a7.2,7.2,0,0,0-1.181-.089c-2.272,0-2.785,1.381-2.785,3.364v1.047h-1.961v1.181h1.961v10.315h1.4V169.733h2.272Zm6.194.847c2.673,0,4.032,2.473,4.032,4.9s-1.359,4.9-4.032,4.9-4.033-2.473-4.033-4.9S451.787,169.4,454.461,169.4Zm0-1.181c-3.5,0-5.436,2.785-5.436,6.082s1.938,6.082,5.436,6.082S459.9,177.6,459.9,174.3,457.958,168.218,454.461,168.218Zm7.53,11.83h1.4v-6.127a3.96,3.96,0,0,1,4.278-4.122v-1.4a4.222,4.222,0,0,0-4.344,2.852h-.045v-2.7h-1.292Zm7.018,0h1.4v-6.416c0-2.406,1.025-4.233,3.431-4.233,1.8,0,2.406,1.292,2.406,2.852v7.8h1.4v-6.505c0-2.139.691-4.144,3.119-4.144,2.027,0,2.718,1.025,2.718,2.919v7.731h1.4v-7.8c0-2.7-1.27-4.032-3.81-4.032a3.886,3.886,0,0,0-3.654,2.25,3.2,3.2,0,0,0-3.3-2.25,3.956,3.956,0,0,0-3.765,2.272H470.3v-1.938h-1.292Zm19.383-6.55c.245-2.094,1.47-4.1,3.787-4.1,2.25,0,3.587,1.983,3.654,4.1Zm8.845,1.181c.111-3.23-1.381-6.461-5.057-6.461-3.654,0-5.191,3.052-5.191,6.082,0,3.275,1.537,6.082,5.191,6.082,2.919,0,4.411-1.515,5.013-4.122h-1.4a3.483,3.483,0,0,1-3.609,2.941c-2.673,0-3.787-2.473-3.787-4.523Zm12.008-10.538h-1.4v6.595H507.8a4.1,4.1,0,0,0-3.988-2.518c-3.5,0-5.169,2.807-5.169,6.082s1.671,6.082,5.169,6.082a4.514,4.514,0,0,0,4.1-2.518h.045v2.183h1.292Zm-9.2,10.159c0-2.384,1.092-4.9,3.765-4.9,2.963,0,4.032,2.518,4.032,4.9s-1.069,4.9-4.032,4.9C501.135,179.2,500.043,176.684,500.043,174.3Zm20.608,5.748h1.537L525,170.379h.045l2.829,9.669h1.537l3.7-11.5h-1.493l-2.941,9.847h-.045l-2.807-9.847h-1.582l-2.807,9.847h-.045l-2.941-9.847h-1.493ZM539.477,169.4c2.673,0,4.032,2.473,4.032,4.9s-1.359,4.9-4.032,4.9-4.033-2.473-4.033-4.9S536.8,169.4,539.477,169.4Zm0-1.181c-3.5,0-5.436,2.785-5.436,6.082s1.938,6.082,5.436,6.082,5.436-2.785,5.436-6.082S542.975,168.218,539.477,168.218Zm7.53,11.83h1.4v-6.127a3.96,3.96,0,0,1,4.278-4.122v-1.4a4.222,4.222,0,0,0-4.344,2.852H548.3v-2.7h-1.292Zm7.04,0h1.4V164.141h-1.4Zm14.214-15.907h-1.4v6.595h-.045a4.1,4.1,0,0,0-3.988-2.518c-3.5,0-5.169,2.807-5.169,6.082s1.671,6.082,5.169,6.082a4.514,4.514,0,0,0,4.1-2.518h.045v2.183h1.292Zm-9.2,10.159c0-2.384,1.092-4.9,3.765-4.9,2.963,0,4.032,2.518,4.032,4.9s-1.069,4.9-4.032,4.9C560.152,179.2,559.06,176.684,559.06,174.3Zm23.638.267v-1.292h-5.57v1.292Zm11.407,5.481h1.537l2.807-9.669h.045l2.829,9.669h1.537l3.7-11.5h-1.493l-2.941,9.847h-.045l-2.807-9.847h-1.582l-2.807,9.847h-.045l-2.941-9.847h-1.493ZM608.9,173.5c.245-2.094,1.47-4.1,3.787-4.1,2.25,0,3.587,1.983,3.654,4.1Zm8.845,1.181c.111-3.23-1.381-6.461-5.057-6.461-3.654,0-5.191,3.052-5.191,6.082,0,3.275,1.537,6.082,5.191,6.082,2.919,0,4.411-1.515,5.013-4.122h-1.4a3.483,3.483,0,0,1-3.609,2.941c-2.674,0-3.787-2.473-3.787-4.523ZM1.4,198.218H2.8v-2.25H1.4Zm0,15.061c0,.958-.178,1.671-1.27,1.671a4.305,4.305,0,0,1-.757-.022v1.159c.334,0,.646.045.98.045,1.983,0,2.451-1.47,2.451-3.186V200.379H1.4Zm13.412-12.9h-1.4v6.038c0,2.339-1.047,4.612-3.453,4.612-2.228,0-3.008-1.092-3.074-3.164v-7.486h-1.4v7.463c0,2.7,1.114,4.367,4.032,4.367a4.276,4.276,0,0,0,3.966-2.406h.045v2.072h1.292Zm10.939,3.364c-.111-2.5-1.894-3.7-4.211-3.7-2.027,0-4.322.891-4.322,3.23,0,1.938,1.381,2.607,3.208,3.074l1.8.4c1.27.312,2.518.757,2.518,2.094,0,1.6-1.8,2.183-3.141,2.183-1.871,0-3.275-.98-3.386-2.874h-1.4c.245,2.829,2.027,4.055,4.723,4.055,2.139,0,4.612-.958,4.612-3.453,0-2.005-1.671-2.941-3.275-3.186L21,205.147c-.98-.245-2.384-.713-2.384-1.938,0-1.493,1.47-1.983,2.718-1.983,1.6,0,2.941.78,3.008,2.518Zm4.656-6.817H29v3.453H27v1.181H29v7.864c-.022,1.961.624,2.584,2.5,2.584.423,0,.824-.045,1.248-.045v-1.2a10.883,10.883,0,0,1-1.2.067c-1-.067-1.136-.6-1.136-1.515V201.56h2.339v-1.181H30.4Zm10.56,14.949h1.4v-6.127a3.96,3.96,0,0,1,4.278-4.122v-1.4a4.222,4.222,0,0,0-4.344,2.852h-.045v-2.7H40.965Zm7.441-6.55c.245-2.094,1.47-4.1,3.787-4.1,2.25,0,3.587,1.983,3.654,4.1Zm8.845,1.181c.111-3.23-1.381-6.461-5.057-6.461-3.654,0-5.191,3.052-5.191,6.082,0,3.275,1.537,6.082,5.191,6.082,2.919,0,4.411-1.515,5.013-4.122H55.8a3.483,3.483,0,0,1-3.609,2.941c-2.673,0-3.787-2.473-3.787-4.523Zm1.894,9.624h1.4v-6.439h.045a4.089,4.089,0,0,0,3.988,2.518c3.5,0,5.169-2.807,5.169-6.082s-1.671-6.082-5.169-6.082a4.247,4.247,0,0,0-4.1,2.518h-.045v-2.183H59.144Zm9.2-10c0,2.384-1.092,4.9-3.765,4.9-2.963,0-4.032-2.518-4.032-4.9,0-2.607.913-4.9,4.032-4.9C67.254,201.226,68.345,203.743,68.345,206.127Zm8.444-4.9c2.673,0,4.032,2.473,4.032,4.9s-1.359,4.9-4.032,4.9-4.032-2.473-4.032-4.9S74.116,201.226,76.789,201.226Zm0-1.181c-3.5,0-5.436,2.785-5.436,6.082s1.938,6.082,5.436,6.082,5.436-2.785,5.436-6.082S80.287,200.045,76.789,200.045Zm7.53,11.83h1.4v-6.127A3.96,3.96,0,0,1,90,201.627v-1.4a4.222,4.222,0,0,0-4.344,2.852h-.045v-2.7H84.319Zm9.246-14.949h-1.4v3.453H90.156v1.181h2.005v7.864c-.022,1.961.624,2.584,2.5,2.584.423,0,.824-.045,1.248-.045v-1.2a10.883,10.883,0,0,1-1.2.067c-1-.067-1.136-.6-1.136-1.515V201.56H95.9v-1.181H93.565Zm12.788,0h-1.4v3.453h-2.005v1.181h2.005v7.864c-.022,1.961.624,2.584,2.5,2.584.423,0,.824-.045,1.248-.045v-1.2a10.883,10.883,0,0,1-1.2.067c-1-.067-1.136-.6-1.136-1.515V201.56h2.339v-1.181h-2.339Zm4.344,14.949h1.4v-6.706c.067-2.25,1.359-3.943,3.609-3.943,2.272,0,2.919,1.515,2.919,3.475v7.174h1.4v-7.4c0-2.74-.98-4.433-4.211-4.433a3.92,3.92,0,0,0-3.676,2.317H112.1v-6.394h-1.4Zm12.81-6.55c.245-2.094,1.47-4.1,3.787-4.1,2.25,0,3.587,1.983,3.654,4.1Zm8.845,1.181c.111-3.23-1.381-6.461-5.057-6.461-3.654,0-5.191,3.052-5.191,6.082,0,3.275,1.537,6.082,5.191,6.082,2.919,0,4.411-1.515,5.013-4.122h-1.4a3.483,3.483,0,0,1-3.609,2.941c-2.673,0-3.787-2.473-3.787-4.523Zm12.521-6.127H142.6v-1c0-1.225,0-2.228,1.537-2.228a5.752,5.752,0,0,1,1.025.111v-1.2a7.2,7.2,0,0,0-1.181-.089c-2.272,0-2.785,1.381-2.785,3.364v1.047h-1.961v1.181H141.2v10.315h1.4V201.56h2.272Zm2.607,3.52c.067-1.871,1.314-2.673,3.074-2.673,1.671,0,3.008.468,3.008,2.362,0,1.248-.646,1.448-1.8,1.56-3.03.356-6.171.49-6.171,3.7,0,2.317,1.715,3.364,3.854,3.364a4.383,4.383,0,0,0,4.188-2.339h.045c0,1.181.223,2.005,1.649,2.005a3.973,3.973,0,0,0,.913-.089v-1.181a1.062,1.062,0,0,1-.446.089.739.739,0,0,1-.824-.847v-6.1c0-3.1-2.206-3.7-4.233-3.7-2.651,0-4.5,1.158-4.656,3.854Zm6.082,3.52c0,2.25-1.849,3.609-4.01,3.609a2.381,2.381,0,0,1-2.562-2.272c0-2.228,2.963-2.228,5.347-2.651.379-.067,1-.178,1.181-.512h.045Zm13.724-3.431a4.283,4.283,0,0,0-4.656-3.943c-3.5,0-5.436,2.785-5.436,6.082s1.938,6.082,5.436,6.082c2.584,0,4.367-1.671,4.745-4.456h-1.4a3.457,3.457,0,0,1-3.342,3.275c-2.673,0-4.032-2.473-4.032-4.9s1.359-4.9,4.032-4.9a3.111,3.111,0,0,1,3.253,2.763Zm4.278-7.062h-1.4v3.453h-2.005v1.181h2.005v7.864c-.022,1.961.624,2.584,2.5,2.584.423,0,.824-.045,1.248-.045v-1.2a10.883,10.883,0,0,1-1.2.067c-1-.067-1.136-.6-1.136-1.515V201.56H173.9v-1.181h-2.339Zm12.654,6.817c-.111-2.5-1.894-3.7-4.211-3.7-2.027,0-4.322.891-4.322,3.23,0,1.938,1.381,2.607,3.208,3.074l1.8.4c1.27.312,2.518.757,2.518,2.094,0,1.6-1.8,2.183-3.141,2.183-1.871,0-3.275-.98-3.386-2.874h-1.4c.245,2.829,2.027,4.055,4.723,4.055,2.139,0,4.612-.958,4.612-3.453,0-2.005-1.671-2.941-3.275-3.186l-1.871-.423c-.98-.245-2.384-.713-2.384-1.938,0-1.493,1.47-1.983,2.718-1.983,1.6,0,2.941.78,3.008,2.518Zm9.892.156c.067-1.871,1.314-2.673,3.074-2.673,1.671,0,3.008.468,3.008,2.362,0,1.248-.646,1.448-1.8,1.56-3.03.356-6.171.49-6.171,3.7,0,2.317,1.715,3.364,3.854,3.364a4.383,4.383,0,0,0,4.188-2.339h.045c0,1.181.223,2.005,1.649,2.005a3.973,3.973,0,0,0,.913-.089v-1.181a1.062,1.062,0,0,1-.446.089.739.739,0,0,1-.824-.847v-6.1c0-3.1-2.206-3.7-4.233-3.7-2.651,0-4.5,1.158-4.656,3.854Zm6.082,3.52c0,2.25-1.849,3.609-4.01,3.609a2.381,2.381,0,0,1-2.562-2.272c0-2.228,2.963-2.228,5.347-2.651.379-.067,1-.178,1.181-.512h.045Zm4.188,4.456h1.4v-6.706c.067-2.25,1.359-3.943,3.609-3.943,2.272,0,2.919,1.515,2.919,3.475v7.174h1.4v-7.4c0-2.74-.98-4.433-4.211-4.433a3.92,3.92,0,0,0-3.676,2.317h-.045v-1.983h-1.4Zm22.1-15.907h-1.4v6.595h-.045a4.1,4.1,0,0,0-3.988-2.518c-3.5,0-5.169,2.807-5.169,6.082s1.671,6.082,5.169,6.082a4.514,4.514,0,0,0,4.1-2.518h.045v2.183h1.292Zm-9.2,10.159c0-2.384,1.092-4.9,3.765-4.9,2.963,0,4.032,2.518,4.032,4.9s-1.069,4.9-4.032,4.9C218.371,211.028,217.28,208.511,217.28,206.127Zm21.365,5.7-.49,1.314c-.468,1.069-.757,1.8-2.005,1.8a4.681,4.681,0,0,1-.958-.111v1.181a3.746,3.746,0,0,0,1.069.111c1.76,0,2.206-.557,3.03-2.5l4.99-13.256h-1.4l-3.542,9.8-3.787-9.8h-1.493Zm11.875-10.6c2.673,0,4.032,2.473,4.032,4.9s-1.359,4.9-4.032,4.9-4.032-2.473-4.032-4.9S247.846,201.226,250.52,201.226Zm0-1.181c-3.5,0-5.436,2.785-5.436,6.082s1.938,6.082,5.436,6.082,5.436-2.785,5.436-6.082S254.018,200.045,250.52,200.045Zm16.843.334h-1.4v6.038c0,2.339-1.047,4.612-3.453,4.612-2.228,0-3.008-1.092-3.074-3.164v-7.486h-1.4v7.463c0,2.7,1.114,4.367,4.032,4.367a4.276,4.276,0,0,0,3.966-2.406h.045v2.072h1.292Zm8.845,11.5h1.4v-6.416c0-2.406,1.025-4.233,3.431-4.233,1.8,0,2.406,1.292,2.406,2.852v7.8h1.4v-6.505c0-2.139.691-4.144,3.119-4.144,2.027,0,2.718,1.025,2.718,2.919v7.731h1.4v-7.8c0-2.7-1.27-4.032-3.81-4.032a3.886,3.886,0,0,0-3.654,2.25,3.2,3.2,0,0,0-3.3-2.25,3.956,3.956,0,0,0-3.765,2.272H277.5v-1.938h-1.292Zm19.828-7.976c.067-1.871,1.314-2.673,3.074-2.673,1.671,0,3.008.468,3.008,2.362,0,1.248-.646,1.448-1.8,1.56-3.03.356-6.171.49-6.171,3.7,0,2.317,1.715,3.364,3.854,3.364a4.383,4.383,0,0,0,4.188-2.339h.045c0,1.181.223,2.005,1.649,2.005a3.972,3.972,0,0,0,.913-.089v-1.181a1.062,1.062,0,0,1-.446.089.739.739,0,0,1-.824-.847v-6.1c0-3.1-2.206-3.7-4.233-3.7-2.651,0-4.5,1.158-4.656,3.854Zm6.082,3.52c0,2.25-1.849,3.609-4.01,3.609a2.381,2.381,0,0,1-2.562-2.272c0-2.228,2.963-2.228,5.347-2.651.379-.067,1-.178,1.181-.512h.045Zm4.211,4.456h1.4v-4.367L310,205.615l4.545,6.26h1.76l-5.236-7.241,4.9-4.255H314.1l-6.372,5.57v-9.981h-1.4Zm11.964-6.55c.245-2.094,1.47-4.1,3.787-4.1,2.25,0,3.587,1.983,3.654,4.1Zm8.845,1.181c.111-3.23-1.381-6.461-5.057-6.461-3.654,0-5.191,3.052-5.191,6.082,0,3.275,1.537,6.082,5.191,6.082,2.919,0,4.411-1.515,5.013-4.122h-1.4a3.483,3.483,0,0,1-3.609,2.941c-2.673,0-3.787-2.473-3.787-4.523Zm11.385,5.325-.49,1.314c-.468,1.069-.758,1.8-2.005,1.8a4.682,4.682,0,0,1-.958-.111v1.181a3.746,3.746,0,0,0,1.069.111c1.76,0,2.206-.557,3.03-2.5l4.99-13.256h-1.4l-3.542,9.8-3.787-9.8h-1.493Zm11.875-10.6c2.673,0,4.032,2.473,4.032,4.9s-1.359,4.9-4.032,4.9-4.033-2.473-4.033-4.9S347.723,201.226,350.4,201.226Zm0-1.181c-3.5,0-5.436,2.785-5.436,6.082s1.938,6.082,5.436,6.082,5.436-2.785,5.436-6.082S353.894,200.045,350.4,200.045Zm16.843.334h-1.4v6.038c0,2.339-1.047,4.612-3.453,4.612-2.228,0-3.008-1.092-3.074-3.164v-7.486h-1.4v7.463c0,2.7,1.114,4.367,4.032,4.367A4.276,4.276,0,0,0,365.9,209.8h.045v2.072h1.292Zm2.651,11.5h1.4v-6.127a3.96,3.96,0,0,1,4.278-4.122v-1.4a4.222,4.222,0,0,0-4.344,2.852h-.045v-2.7H369.89Zm18.068-10.649c2.673,0,4.032,2.473,4.032,4.9s-1.359,4.9-4.032,4.9-4.033-2.473-4.033-4.9S385.285,201.226,387.958,201.226Zm0-1.181c-3.5,0-5.436,2.785-5.436,6.082s1.938,6.082,5.436,6.082,5.436-2.785,5.436-6.082S391.456,200.045,387.958,200.045Zm10.07,11.83h1.537l2.807-9.669h.045l2.829,9.669h1.537l3.7-11.5h-1.493l-2.941,9.847H406l-2.807-9.847h-1.582l-2.807,9.847h-.045l-2.941-9.847H394.33Zm13.947,0h1.4v-6.706c.067-2.25,1.359-3.943,3.609-3.943,2.272,0,2.919,1.515,2.919,3.475v7.174h1.4v-7.4c0-2.74-.98-4.433-4.211-4.433a3.92,3.92,0,0,0-3.676,2.317h-.045v-1.983h-1.4Zm28.294-15.907h-1.4v6.595h-.045a4.1,4.1,0,0,0-3.988-2.518c-3.5,0-5.169,2.807-5.169,6.082s1.671,6.082,5.169,6.082a4.514,4.514,0,0,0,4.1-2.518h.045v2.183h1.292Zm-9.2,10.159c0-2.384,1.092-4.9,3.765-4.9,2.963,0,4.032,2.518,4.032,4.9s-1.069,4.9-4.032,4.9C432.159,211.028,431.068,208.511,431.068,206.127Zm12.7-.8c.245-2.094,1.47-4.1,3.787-4.1,2.25,0,3.587,1.983,3.654,4.1Zm8.845,1.181c.111-3.23-1.381-6.461-5.057-6.461-3.654,0-5.191,3.052-5.191,6.082,0,3.275,1.537,6.082,5.191,6.082,2.919,0,4.411-1.515,5.013-4.122h-1.4a3.483,3.483,0,0,1-3.609,2.941c-2.673,0-3.787-2.473-3.787-4.523Zm11.407-2.518a4.283,4.283,0,0,0-4.656-3.943c-3.5,0-5.436,2.785-5.436,6.082s1.938,6.082,5.436,6.082c2.584,0,4.367-1.671,4.745-4.456h-1.4a3.458,3.458,0,0,1-3.342,3.275c-2.673,0-4.033-2.473-4.033-4.9s1.359-4.9,4.033-4.9a3.11,3.11,0,0,1,3.253,2.763Zm2.072-5.77h1.4v-2.25h-1.4Zm0,13.657h1.4v-11.5h-1.4Zm12.387-8.132c-.111-2.5-1.894-3.7-4.211-3.7-2.027,0-4.322.891-4.322,3.23,0,1.938,1.381,2.607,3.208,3.074l1.8.4c1.27.312,2.518.757,2.518,2.094,0,1.6-1.8,2.183-3.141,2.183-1.871,0-3.275-.98-3.386-2.874h-1.4c.245,2.829,2.027,4.055,4.723,4.055,2.139,0,4.612-.958,4.612-3.453,0-2.005-1.671-2.941-3.275-3.186l-1.871-.423c-.98-.245-2.384-.713-2.384-1.938,0-1.493,1.47-1.983,2.718-1.983,1.6,0,2.941.78,3.008,2.518Zm2.451-5.525h1.4v-2.25h-1.4Zm0,13.657h1.4v-11.5h-1.4Zm8.956-10.649c2.673,0,4.032,2.473,4.032,4.9s-1.359,4.9-4.032,4.9-4.033-2.473-4.033-4.9S487.211,201.226,489.884,201.226Zm0-1.181c-3.5,0-5.436,2.785-5.436,6.082s1.938,6.082,5.436,6.082,5.436-2.785,5.436-6.082S493.382,200.045,489.884,200.045Zm7.508,11.83h1.4v-6.706c.067-2.25,1.359-3.943,3.609-3.943,2.272,0,2.919,1.515,2.919,3.475v7.174h1.4v-7.4c0-2.74-.98-4.433-4.211-4.433a3.92,3.92,0,0,0-3.676,2.317H498.8v-1.983h-1.4Zm20.274-8.132c-.111-2.5-1.894-3.7-4.211-3.7-2.027,0-4.322.891-4.322,3.23,0,1.938,1.381,2.607,3.208,3.074l1.8.4c1.27.312,2.518.757,2.518,2.094,0,1.6-1.8,2.183-3.141,2.183-1.871,0-3.275-.98-3.386-2.874h-1.4c.245,2.829,2.027,4.055,4.723,4.055,2.139,0,4.612-.958,4.612-3.453,0-2.005-1.671-2.941-3.275-3.186l-1.871-.423c-.98-.245-2.384-.713-2.384-1.938,0-1.493,1.47-1.983,2.718-1.983,1.6,0,2.941.78,3.008,2.518Zm5.124,8.132v-2.362h-1.871v2.362ZM1.642,275.529H12.737v-1.292H3.157v-6.283h8.867v-1.292H3.157v-5.748h9.469v-1.292H1.642Zm16.085,0H19.22l4.3-11.5H22.072l-3.565,10.092h-.045l-3.609-10.092h-1.56ZM29.758,264.88c2.673,0,4.032,2.473,4.032,4.9s-1.359,4.9-4.032,4.9-4.032-2.473-4.032-4.9S27.085,264.88,29.758,264.88Zm0-1.181c-3.5,0-5.436,2.785-5.436,6.082s1.938,6.082,5.436,6.082,5.436-2.785,5.436-6.082S33.256,263.7,29.758,263.7Zm7.553,11.83h1.4V259.622h-1.4Zm7.241,0h1.493l4.3-11.5H48.9l-3.565,10.092h-.045l-3.609-10.092h-1.56Zm8-6.55c.245-2.094,1.47-4.1,3.787-4.1,2.25,0,3.587,1.983,3.654,4.1Zm8.845,1.181c.111-3.23-1.381-6.461-5.057-6.461-3.654,0-5.191,3.052-5.191,6.082,0,3.275,1.537,6.082,5.191,6.082,2.919,0,4.411-1.515,5.013-4.122h-1.4a3.483,3.483,0,0,1-3.609,2.941c-2.673,0-3.787-2.473-3.787-4.523Zm10.627,5.369h1.537l2.807-9.669h.045l2.829,9.669h1.537l3.7-11.5H82.983l-2.941,9.847H80l-2.807-9.847H75.608L72.8,273.88h-.045l-2.941-9.847H68.323Zm13.991-13.657h1.4v-2.25h-1.4Zm0,13.657h1.4v-11.5h-1.4ZM92.34,260.58h-1.4v3.453H88.931v1.181h2.005v7.864c-.022,1.961.624,2.584,2.5,2.584.423,0,.824-.045,1.248-.045v-1.2a10.887,10.887,0,0,1-1.2.067c-1-.067-1.136-.6-1.136-1.515v-7.753h2.339v-1.181H92.34Zm4.344,14.949h1.4v-6.706c.067-2.25,1.359-3.943,3.609-3.943,2.272,0,2.919,1.515,2.919,3.475v7.174h1.4v-7.4c0-2.74-.98-4.434-4.211-4.434a3.92,3.92,0,0,0-3.676,2.317h-.045v-6.394h-1.4Zm27.492-11.5h-1.4v6.038c0,2.339-1.047,4.612-3.453,4.612-2.228,0-3.008-1.092-3.074-3.164v-7.486h-1.4V271.5c0,2.7,1.114,4.367,4.032,4.367a4.276,4.276,0,0,0,3.966-2.406h.045v2.072h1.292Zm10.939,3.364c-.111-2.5-1.894-3.7-4.211-3.7-2.027,0-4.322.891-4.322,3.23,0,1.938,1.381,2.607,3.208,3.074l1.8.4c1.27.312,2.518.758,2.518,2.094,0,1.6-1.8,2.183-3.141,2.183-1.871,0-3.275-.98-3.386-2.874h-1.4c.245,2.829,2.027,4.055,4.723,4.055,2.139,0,4.612-.958,4.612-3.453,0-2.005-1.671-2.941-3.275-3.186l-1.871-.423c-.98-.245-2.384-.713-2.384-1.938,0-1.493,1.47-1.983,2.718-1.983,1.6,0,2.941.78,3.008,2.518Zm5.124,8.132v-2.362h-1.871v2.362Z" transform="translate(-3824 -8192)"/>
    <path id="Path_325" data-name="Path 325" d="M2.752-18.464a2.307,2.307,0,0,0-.7-1.264A2.71,2.71,0,0,0,.48-20.064V-21.12H8.512v1.056H7.072a1.157,1.157,0,0,0-.592.112.437.437,0,0,0-.176.4,2.626,2.626,0,0,0,.1.576L10.144-4.384h.128l4.064-16.288h2.528l4.384,16.32h.16L24.9-18.56a7.408,7.408,0,0,0,.192-.992.444.444,0,0,0-.176-.384,1.111,1.111,0,0,0-.624-.128H22.464V-21.12h6.72v1.056a2.645,2.645,0,0,0-1.888.56,4.511,4.511,0,0,0-.96,2.1L21.632,0H18.784L14.592-15.3h-.128L10.5,0H7.648ZM42.272-7.328h-9.6a8.094,8.094,0,0,0,1.056,4.192A3.594,3.594,0,0,0,36.96-1.7a4.4,4.4,0,0,0,2.592-.72,4.864,4.864,0,0,0,1.632-2.16L42.176-4a7.791,7.791,0,0,1-2.24,3.136A6.69,6.69,0,0,1,35.616.32q-6.88,0-6.88-7.776,0-3.936,1.744-5.92a6.434,6.434,0,0,1,5.1-1.984q3.52,0,5.1,2.048a8.88,8.88,0,0,1,1.584,5.568Zm-3.9-1.28a12.333,12.333,0,0,0-.512-4.16,2.063,2.063,0,0,0-2.144-1.312,2.424,2.424,0,0,0-2.288,1.312,9.507,9.507,0,0,0-.784,4.16Zm6.208,7.552A4.818,4.818,0,0,0,45.968-1.2a.839.839,0,0,0,.56-.464,2.851,2.851,0,0,0,.128-.992v-16.1a2.512,2.512,0,0,0-.192-1.2.8.8,0,0,0-.736-.3h-.96v-1.088l4.7-.736h.9V-2.656a2.688,2.688,0,0,0,.144,1.008.838.838,0,0,0,.576.464,5.052,5.052,0,0,0,1.328.128V0h-7.84ZM61.408.32a6.831,6.831,0,0,1-5.2-1.9Q54.4-3.488,54.4-7.36q0-4,1.888-6a7.123,7.123,0,0,1,5.44-2,8.223,8.223,0,0,1,3.3.576,4.3,4.3,0,0,1,1.92,1.488,3.48,3.48,0,0,1,.608,1.968,2.149,2.149,0,0,1-.5,1.5,1.748,1.748,0,0,1-1.36.544,1.7,1.7,0,0,1-1.328-.512A1.879,1.879,0,0,1,63.9-11.1a1.951,1.951,0,0,1,.144-.8q.144-.32.176-.384a1.353,1.353,0,0,0,.224-.64.946.946,0,0,0-.576-.832,3.487,3.487,0,0,0-1.664-.32,3.424,3.424,0,0,0-2.88,1.28q-.992,1.28-.992,4.64a9.02,9.02,0,0,0,1.056,4.9,3.636,3.636,0,0,0,3.264,1.6A3.942,3.942,0,0,0,65.392-2.5a7.14,7.14,0,0,0,1.552-2.112l.8.48A6.84,6.84,0,0,1,65.552-.816,6.607,6.607,0,0,1,61.408.32ZM77.6.32q-3.84,0-5.648-1.888t-1.808-5.92q0-4.032,1.824-5.968t5.7-1.936q3.808,0,5.6,1.9t1.792,5.936q0,4.064-1.808,5.968T77.6.32Zm0-1.28a2.822,2.822,0,0,0,2.688-1.568A10.732,10.732,0,0,0,81.12-7.36a11.46,11.46,0,0,0-.864-5.12,2.848,2.848,0,0,0-2.688-1.632A2.826,2.826,0,0,0,74.9-12.528a11.128,11.128,0,0,0-.848,5.008A11.019,11.019,0,0,0,74.9-2.528,2.856,2.856,0,0,0,77.6-.96Zm34.912-1.7a2.67,2.67,0,0,0,.144,1.024.841.841,0,0,0,.56.448,5.2,5.2,0,0,0,1.376.128V0h-7.584V-1.056a6.279,6.279,0,0,0,1.216-.08.644.644,0,0,0,.48-.368,2.692,2.692,0,0,0,.128-.992v-7.68a3.332,3.332,0,0,0-.72-2.3,2.593,2.593,0,0,0-2.032-.8,3.412,3.412,0,0,0-1.68.416,4.964,4.964,0,0,0-1.456,1.312v8.9a3,3,0,0,0,.128,1.008.772.772,0,0,0,.512.464,4.03,4.03,0,0,0,1.184.128V0h-7.36V-1.056a6.279,6.279,0,0,0,1.216-.08.691.691,0,0,0,.5-.368,2.417,2.417,0,0,0,.144-.992v-7.68a3.332,3.332,0,0,0-.72-2.3,2.675,2.675,0,0,0-2.1-.8,3.91,3.91,0,0,0-3.072,1.44V-2.5a2.417,2.417,0,0,0,.144.992.691.691,0,0,0,.5.368,5.81,5.81,0,0,0,1.152.08V0H87.584V-1.056a5.2,5.2,0,0,0,1.376-.128.788.788,0,0,0,.544-.448,2.977,2.977,0,0,0,.128-1.024V-11.9a2.417,2.417,0,0,0-.192-1.168.767.767,0,0,0-.7-.3h-.96v-1.088l4.608-.736h.9v1.984A10.01,10.01,0,0,1,95.936-14.8a7.271,7.271,0,0,1,2.688-.56,4.588,4.588,0,0,1,2.576.7,3.766,3.766,0,0,1,1.488,1.728,7.737,7.737,0,0,1,2.544-1.76,7.43,7.43,0,0,1,3.024-.672,4.023,4.023,0,0,1,3.136,1.232,4.978,4.978,0,0,1,1.12,3.472ZM129.92-7.328h-9.6a8.1,8.1,0,0,0,1.056,4.192,3.594,3.594,0,0,0,3.232,1.44,4.4,4.4,0,0,0,2.592-.72,4.864,4.864,0,0,0,1.632-2.16l.992.576a7.791,7.791,0,0,1-2.24,3.136A6.69,6.69,0,0,1,123.264.32q-6.88,0-6.88-7.776,0-3.936,1.744-5.92a6.434,6.434,0,0,1,5.1-1.984q3.52,0,5.1,2.048a8.88,8.88,0,0,1,1.584,5.568Zm-3.9-1.28a12.333,12.333,0,0,0-.512-4.16,2.063,2.063,0,0,0-2.144-1.312,2.424,2.424,0,0,0-2.288,1.312,9.507,9.507,0,0,0-.784,4.16ZM144.8.352a3.755,3.755,0,0,1-2.752-.976,3.709,3.709,0,0,1-.992-2.768V-13.76h-1.888v-1.056a5.234,5.234,0,0,0,2.656-1.776,9.473,9.473,0,0,0,1.568-3.472h1.344v5.024h3.424v1.28h-3.424v9.248a3.486,3.486,0,0,0,.544,2.144,2.008,2.008,0,0,0,1.7.7,3.969,3.969,0,0,0,1.6-.32l.352.8A16.056,16.056,0,0,1,146.9-.032,5.075,5.075,0,0,1,144.8.352ZM157.888.32q-3.84,0-5.648-1.888t-1.808-5.92q0-4.032,1.824-5.968t5.7-1.936q3.808,0,5.6,1.9t1.792,5.936q0,4.064-1.808,5.968T157.888.32Zm0-1.28a2.822,2.822,0,0,0,2.688-1.568,10.732,10.732,0,0,0,.832-4.832,11.46,11.46,0,0,0-.864-5.12,2.848,2.848,0,0,0-2.688-1.632,2.826,2.826,0,0,0-2.672,1.584,11.128,11.128,0,0,0-.848,5.008,11.019,11.019,0,0,0,.848,4.992A2.856,2.856,0,0,0,157.888-.96Zm19.232-17.5a4.019,4.019,0,0,0-.448-.992A1.256,1.256,0,0,0,176-19.92a4.394,4.394,0,0,0-1.28-.144V-21.12H183.1v1.056H181.7q-.768,0-.768.576a1.644,1.644,0,0,0,.1.512l4.928,14.912h.16l4.672-14.5a3.071,3.071,0,0,0,.192-.9.542.542,0,0,0-.192-.464,1.021,1.021,0,0,0-.608-.144H188.64V-21.12h6.624v1.056a3.07,3.07,0,0,0-1.7.384,2.643,2.643,0,0,0-.928,1.344L186.144,0H183.36ZM201.568.32q-3.84,0-5.648-1.888t-1.808-5.92q0-4.032,1.824-5.968t5.7-1.936q3.808,0,5.6,1.9t1.792,5.936q0,4.064-1.808,5.968T201.568.32Zm0-1.28a2.822,2.822,0,0,0,2.688-1.568,10.732,10.732,0,0,0,.832-4.832,11.46,11.46,0,0,0-.864-5.12,2.848,2.848,0,0,0-2.688-1.632,2.826,2.826,0,0,0-2.672,1.584,11.128,11.128,0,0,0-.848,5.008,11.019,11.019,0,0,0,.848,4.992A2.856,2.856,0,0,0,201.568-.96Zm9.056-.1a4.818,4.818,0,0,0,1.392-.144.839.839,0,0,0,.56-.464,2.85,2.85,0,0,0,.128-.992v-16.1a2.512,2.512,0,0,0-.192-1.2.8.8,0,0,0-.736-.3h-.96v-1.088l4.7-.736h.9V-2.656a2.688,2.688,0,0,0,.144,1.008.838.838,0,0,0,.576.464,5.052,5.052,0,0,0,1.328.128V0h-7.84ZM221.344-12.8a1.89,1.89,0,0,0-.688-.944,2.9,2.9,0,0,0-1.392-.24V-15.04h7.36v1.056H225.5q-.608,0-.608.48a1.751,1.751,0,0,0,.064.384l3.648,9.568h.1l3.36-9.5a2.81,2.81,0,0,0,.064-.416q0-.512-.64-.512H230.24V-15.04h5.824v1.056a2.57,2.57,0,0,0-1.408.288,2.165,2.165,0,0,0-.7,1.024L228.736,0h-2.368Z" transform="translate(-3824 -8229)"/>
  </g>
</svg>
