<svg width="388" height="160" viewBox="0 0 388 160" fill="none" xmlns="http://www.w3.org/2000/svg">
<path d="M152.19 156.107C146.004 153.658 140.332 150.074 135.465 145.54C130.746 141.127 126.967 135.807 124.354 129.899C121.684 123.893 120.325 117.389 120.366 110.817C120.35 104.311 121.724 97.8762 124.394 91.9426C127.008 86.0378 130.788 80.7206 135.506 76.3091C140.38 71.7728 146.037 68.1581 152.203 65.6407C165.568 60.3224 180.464 60.3224 193.829 65.6407C200.003 68.163 205.669 71.782 210.553 76.3225C215.268 80.7389 219.047 86.0577 221.664 91.9628C224.332 97.8949 225.705 104.327 225.693 110.83C225.719 117.407 224.346 123.914 221.664 129.919C219.048 135.823 215.269 141.14 210.553 145.553C205.686 150.086 200.013 153.67 193.829 156.121C180.436 161.293 165.596 161.293 152.203 156.121L152.19 156.107ZM159.863 68.6533C156.611 71.4324 154.184 75.0507 152.847 79.1137C151.245 83.8841 150.299 88.85 150.034 93.875C149.676 99.4172 149.495 105.062 149.491 110.81C149.486 116.558 149.667 122.237 150.034 127.846C150.288 132.911 151.23 137.917 152.834 142.728C154.173 146.79 156.6 150.407 159.85 153.189C163.616 156.06 168.287 157.488 173.016 157.214C177.74 157.497 182.409 156.084 186.182 153.229C189.427 150.445 191.851 146.828 193.191 142.768C194.803 137.959 195.75 132.952 196.004 127.886C196.358 122.282 196.539 116.603 196.548 110.851C196.557 105.098 196.376 99.4575 196.004 93.9287C195.746 88.904 194.805 83.9378 193.204 79.1674C191.862 75.1073 189.436 71.4904 186.188 68.707C182.422 65.8363 177.752 64.4082 173.023 64.6812C168.301 64.4007 163.635 65.8141 159.863 68.6667V68.6533ZM345.092 157.201H323.527L280.558 61.8765H309.696L334.283 117.211L358.869 61.8765H388L345.092 157.167V157.201ZM239.013 157.154V3.07285H224.531V0.0602021H265.318V157.154H239.013ZM61.0289 157.154L17.1405 42.0024C16.901 41.3328 16.4602 40.7535 15.8784 40.3439C15.2967 39.9343 14.6025 39.7145 13.891 39.7144H3.45092C2.81618 39.7133 2.19416 39.5365 1.65378 39.2037C1.11341 38.871 0.675781 38.3951 0.389406 37.829C0.137017 37.3487 0.00348705 36.8149 3.02777e-06 36.2724C-0.000741764 35.7115 0.135931 35.159 0.398084 34.6631C0.660237 34.1672 1.0399 33.743 1.50391 33.4275H1.54419L41.317 6.24653C41.5649 6.0843 41.8368 5.96203 42.1227 5.88421C42.3792 5.80279 42.6459 5.75762 42.9149 5.75002C43.4306 5.75032 43.9365 5.8906 44.3786 6.15587C44.8207 6.42113 45.1823 6.80143 45.425 7.25614C45.6677 7.71085 45.7822 8.22289 45.7563 8.73758C45.7305 9.25227 45.5652 9.75028 45.2782 10.1784C45.4729 9.90331 43.4655 13.5332 41.9213 16.3983C41.6615 16.893 41.5255 17.4432 41.5252 18.0019C41.526 18.4316 41.608 18.8573 41.7669 19.2566L81.6001 123.498L91.6709 93.0967L97.7133 74.7457L97.8141 74.4572C101.423 63.4158 101.703 51.5578 98.6197 40.3586C98.0547 38.3118 97.3824 36.2961 96.6056 34.3199C96.5049 34.0582 96.4041 33.8032 96.2967 33.5482C95.7014 32.223 94.7949 31.0608 93.6542 30.1603C92.5136 29.2598 91.1724 28.6476 89.7445 28.3757C88.3166 28.1037 86.8441 28.18 85.452 28.598C84.0599 29.0161 82.7892 29.7636 81.7478 30.7771C81.4372 31.0971 81.0679 31.3545 80.6602 31.5353C80.4766 31.6148 80.2854 31.6755 80.0895 31.7165H79.9955C79.2573 31.8738 78.4877 31.782 77.8074 31.4554C77.127 31.1288 76.5743 30.5858 76.2357 29.9116V29.8311C75.9928 29.3622 75.8639 28.8427 75.8598 28.3147C75.8593 27.7522 75.9967 27.1981 76.26 26.701C76.5234 26.2039 76.9046 25.7789 77.3704 25.4631L83.7083 21.1353L86.8369 19.0016L87.4143 18.6125L90.0461 16.8143L113.954 0.516461C114.595 0.0856171 115.376 -0.0848367 116.138 0.0398308C116.9 0.164498 117.586 0.574906 118.056 1.18743C126.306 11.7339 130.725 24.7691 130.589 38.1552C130.452 51.5413 125.768 64.4836 117.304 74.8598V74.9805L100.036 98.3974L99.7476 98.7932C93.7407 108.033 88.323 117.643 83.527 127.564L71.7912 157.141L61.0289 157.154Z" fill="black"/>
</svg>
