<svg width="596" height="522" viewBox="0 0 596 522" fill="none" xmlns="http://www.w3.org/2000/svg">
<path d="M224.535 18.9991H236.129V15.8421H228.364V0.888235H224.535V18.9991Z" fill="black"/>
<path d="M242.134 18.9991L243.478 14.8694H250.013L251.357 18.9991H255.46L249.217 0.888235H244.282L238.03 18.9991H242.134ZM244.451 11.8803L246.679 5.02686H246.82L249.049 11.8803H244.451Z" fill="black"/>
<path d="M268.739 0.888235V12.7293C268.739 14.666 267.174 15.8421 265.034 15.8421C262.92 15.8421 261.355 14.666 261.355 12.7293V0.888235H257.526V12.8619C257.526 16.9652 260.638 19.2556 265.034 19.2556C269.411 19.2556 272.541 16.9652 272.541 12.8619V0.888235H268.739Z" fill="black"/>
<path d="M290.726 0.888235H286.914V12.2783H286.755L278.938 0.888235H275.577V18.9991H279.406V7.60023H279.539L287.418 18.9991H290.726V0.888235Z" fill="black"/>
<path d="M309.755 7.22882C309.25 3.04598 306.085 0.640625 301.893 0.640625C297.109 0.640625 293.456 4.01873 293.456 9.94369C293.456 15.851 297.047 19.2467 301.893 19.2467C306.536 19.2467 309.339 16.1605 309.755 12.8266L305.881 12.8089C305.519 14.7456 303.998 15.8598 301.955 15.8598C299.205 15.8598 297.339 13.817 297.339 9.94369C297.339 6.17648 299.178 4.02758 301.981 4.02758C304.077 4.02758 305.589 5.2391 305.881 7.22882H309.755Z" fill="black"/>
<path d="M312.386 18.9991H316.215V11.5178H323.988V18.9991H327.808V0.888235H323.988V8.36075H316.215V0.888235H312.386V18.9991Z" fill="black"/>
<path d="M334.68 0.888235H330.851V18.9991H334.68V0.888235Z" fill="black"/>
<path d="M352.864 0.888235H349.053V12.2783H348.894L341.076 0.888235H337.716V18.9991H341.545V7.60023H341.678L349.557 18.9991H352.864V0.888235Z" fill="black"/>
<path d="M367.923 6.74244H371.814C371.318 3.16094 368.161 0.640625 364.067 0.640625C359.283 0.640625 355.595 4.08948 355.595 9.96137C355.595 15.6918 359.044 19.2467 364.146 19.2467C368.718 19.2467 371.982 16.355 371.982 11.5885V9.30697H364.403V12.1899H368.294C368.241 14.436 366.711 15.8598 364.164 15.8598C361.29 15.8598 359.477 13.7109 359.477 9.926C359.477 6.15879 361.361 4.02758 364.129 4.02758C366.101 4.02758 367.436 5.04455 367.923 6.74244Z" fill="black"/>
<path fill-rule="evenodd" clip-rule="evenodd" d="M0.785156 520.566V444.791H19.2231V504.826H50.3946V520.566H0.785156ZM48.862 506.359V519.033H2.31774V446.324H17.6905V506.359H48.862ZM74.0832 520.566H54.3465L80.5052 444.791H102.501L128.623 520.566H108.887L103.49 503.986H79.4796L74.0832 520.566ZM78.3667 502.454L72.9703 519.033H56.4969L81.5975 446.324H101.408L126.473 519.033H110L104.603 502.454H78.3667ZM82.272 490.454H100.734L91.7868 462.939H91.2188L82.272 490.454ZM84.3819 488.921H98.6236L91.5028 467.022L84.3819 488.921ZM178.25 444.791H196.581V494.394C196.581 503.058 193.257 509.924 187.537 514.594C181.854 519.232 173.944 521.596 164.907 521.596C155.835 521.596 147.924 519.233 142.249 514.593C136.536 509.922 133.232 503.056 133.232 494.394V444.791H151.67V493.862C151.67 497.297 153.041 499.983 155.311 501.84C157.611 503.721 160.935 504.826 164.907 504.826C168.936 504.826 172.287 503.719 174.599 501.837C176.88 499.981 178.25 497.297 178.25 493.862V444.791ZM179.783 493.862C179.783 501.637 173.498 506.359 164.907 506.359C156.422 506.359 150.138 501.637 150.138 493.862V446.324H134.765V494.394C134.765 510.868 147.262 520.063 164.907 520.063C182.481 520.063 195.049 510.868 195.049 494.394V446.324H179.783V493.862ZM269.586 444.791V520.566H253.972L224.142 477.412V520.566H205.704V444.791H221.535L251.219 488.041V444.791H269.586ZM252.752 492.051H252.113L220.728 446.324H207.237V519.033H222.61V473.27H223.142L254.775 519.033H268.053V446.324H252.752V492.051ZM346.177 473.312H327.574L327.382 472.002C326.847 468.353 325.212 465.498 322.817 463.545C320.416 461.587 317.152 460.46 313.241 460.46C308.041 460.46 303.835 462.434 300.896 466.091C297.926 469.787 296.135 475.347 296.135 482.679C296.135 490.227 297.954 495.781 300.917 499.418C303.848 503.017 308.025 504.897 313.135 504.897C316.958 504.897 320.192 503.857 322.615 502.004C325.027 500.16 326.729 497.442 327.392 493.899L327.627 492.643L346.183 492.728L345.969 494.442C344.207 508.581 332.311 521.56 312.886 521.56C302.79 521.56 293.902 518.015 287.543 511.3C281.188 504.59 277.484 494.849 277.484 482.679C277.484 470.466 281.254 460.725 287.64 454.026C294.027 447.325 302.913 443.797 312.886 443.797C321.591 443.797 329.336 446.297 335.188 451.069C341.053 455.853 344.915 462.837 345.97 471.596L346.177 473.312ZM344.215 495.784C341.908 508.567 330.812 520.028 312.886 520.028C293.431 520.028 279.017 506.394 279.017 482.679C279.017 458.892 293.679 445.329 312.886 445.329C329.196 445.329 341.637 454.4 344.231 470.247C344.314 470.751 344.386 471.261 344.449 471.779H328.898C327.727 463.791 321.656 458.927 313.241 458.927C301.987 458.927 294.602 467.554 294.602 482.679C294.602 498.229 302.094 506.43 313.135 506.43C321.336 506.43 327.443 501.957 328.898 494.181L344.449 494.252C344.385 494.765 344.307 495.275 344.215 495.784ZM353.48 520.566V444.791H371.918V474.791H400.06V444.791H418.462V520.566H400.06V490.531H371.918V520.566H353.48ZM370.385 446.324V476.323H401.592V446.324H416.929V519.033H401.592V488.998H370.385V519.033H355.012V446.324H370.385ZM446.05 444.791V520.566H427.612V444.791H446.05ZM429.144 446.324H444.517V519.033H429.144V446.324ZM519.054 444.791V520.566H503.44L473.61 477.412V520.566H455.172V444.791H471.003L500.687 488.041V444.791H519.054ZM502.22 492.051H501.581L470.196 446.324H456.705V519.033H472.078V473.27H472.61L504.243 519.033H517.522V446.324H502.22V492.051ZM576.821 471.359L576.503 470.249C575.609 467.128 573.961 464.708 571.695 463.06C569.426 461.409 566.437 460.46 562.745 460.46C557.615 460.46 553.397 462.417 550.429 466.063C547.435 469.743 545.603 475.285 545.603 482.608C545.603 489.981 547.371 495.556 550.346 499.257C553.289 502.915 557.534 504.897 562.887 504.897C567.72 504.897 571.413 503.55 573.906 501.306C576.065 499.363 577.444 496.642 577.829 493.229H562.313V478.59H595.804V489.282C595.804 499.215 592.395 507.322 586.483 512.942C580.581 518.552 572.316 521.56 562.816 521.56C552.203 521.56 543.196 517.854 536.849 511.062C530.51 504.28 526.952 494.559 526.952 482.75C526.952 470.637 530.761 460.881 537.178 454.142C543.596 447.402 552.514 443.797 562.497 443.797C579.567 443.797 593.005 454.355 595.115 469.617L595.356 471.359H576.821ZM579.467 491.696C579.455 492.218 579.422 492.729 579.371 493.229C578.529 501.357 572.52 506.43 562.887 506.43C551.349 506.43 544.071 497.803 544.071 482.608C544.071 467.483 551.633 458.927 562.745 458.927C570.662 458.927 576.023 463.01 577.976 469.826H593.597C593.526 469.31 593.441 468.799 593.342 468.294C590.694 454.734 578.344 445.329 562.497 445.329C543.29 445.329 528.485 459.176 528.485 482.75C528.485 505.755 542.331 520.028 562.816 520.028C581.171 520.028 594.272 508.418 594.272 489.282V480.122H563.846V491.696H579.467Z" fill="black" fill-opacity="0.13"/>
<path fill-rule="evenodd" clip-rule="evenodd" d="M0.785156 125.101V49.3261H19.2231V109.362H50.3946V125.101H0.785156ZM48.862 110.894V123.569H2.31774V50.8587H17.6905V110.894H48.862ZM74.0832 125.101H54.3465L80.5052 49.3261H102.501L128.623 125.101H108.887L103.49 108.521H79.4796L74.0832 125.101ZM78.3667 106.989L72.9703 123.569H56.4969L81.5975 50.8587H101.408L126.473 123.569H110L104.603 106.989H78.3667ZM82.272 94.9888H100.734L91.7868 67.4741H91.2188L82.272 94.9888ZM84.3819 93.4562H98.6236L91.5028 71.5568L84.3819 93.4562ZM178.25 49.3261H196.581V98.9296C196.581 107.594 193.257 114.459 187.537 119.129C181.854 123.767 173.944 126.131 164.907 126.131C155.835 126.131 147.924 123.768 142.249 119.128C136.536 114.457 133.232 107.591 133.232 98.9296V49.3261H151.67V98.3971C151.67 101.833 153.041 104.518 155.311 106.375C157.611 108.256 160.935 109.362 164.907 109.362C168.936 109.362 172.287 108.254 174.599 106.373C176.88 104.517 178.25 101.832 178.25 98.3971V49.3261ZM179.783 98.3971C179.783 106.172 173.498 110.894 164.907 110.894C156.422 110.894 150.138 106.172 150.138 98.3971V50.8587H134.765V98.9296C134.765 115.403 147.262 124.598 164.907 124.598C182.481 124.598 195.049 115.403 195.049 98.9296V50.8587H179.783V98.3971ZM269.586 49.3261V125.101H253.972L224.142 81.9474V125.101H205.704V49.3261H221.535L251.219 92.5762V49.3261H269.586ZM252.752 96.5864H252.113L220.728 50.8587H207.237V123.569H222.61V77.8054H223.142L254.775 123.569H268.053V50.8587H252.752V96.5864ZM346.177 77.8469H327.574L327.382 76.5367C326.847 72.8885 325.212 70.0327 322.817 68.0805C320.416 66.1221 317.152 64.9948 313.241 64.9948C308.041 64.9948 303.835 66.9693 300.896 70.6265C297.926 74.3218 296.135 79.8824 296.135 87.2137C296.135 94.7621 297.954 100.316 300.917 103.953C303.848 107.552 308.025 109.433 313.135 109.433C316.958 109.433 320.192 108.392 322.615 106.539C325.027 104.695 326.729 101.977 327.392 98.4346L327.627 97.1782L346.183 97.2629L345.969 98.9772C344.207 113.116 332.311 126.095 312.886 126.095C302.79 126.095 293.902 122.55 287.543 115.836C281.188 109.125 277.484 99.3843 277.484 87.2137C277.484 75.0014 281.254 65.2605 287.64 58.5616C294.027 51.8606 302.913 48.332 312.886 48.332C321.591 48.332 329.336 50.8317 335.188 55.6044C341.053 60.3877 344.915 67.3721 345.97 76.1309L346.177 77.8469ZM344.215 100.319C341.908 113.102 330.812 124.563 312.886 124.563C293.431 124.563 279.017 110.93 279.017 87.2137C279.017 63.4267 293.679 49.8646 312.886 49.8646C329.196 49.8646 341.637 58.9352 344.231 74.7817C344.314 75.2857 344.386 75.7966 344.449 76.3143H328.898C327.727 68.3261 321.656 63.4622 313.241 63.4622C301.987 63.4622 294.602 72.0894 294.602 87.2137C294.602 102.764 302.094 110.965 313.135 110.965C321.336 110.965 327.443 106.492 328.898 98.7166L344.449 98.7876C344.385 99.2998 344.307 99.8105 344.215 100.319ZM353.48 125.101V49.3261H371.918V79.3261H400.06V49.3261H418.462V125.101H400.06V95.0658H371.918V125.101H353.48ZM370.385 50.8587V80.8586H401.592V50.8587H416.929V123.569H401.592V93.5332H370.385V123.569H355.012V50.8587H370.385ZM446.05 49.3261V125.101H427.612V49.3261H446.05ZM429.144 50.8587H444.517V123.569H429.144V50.8587ZM519.054 49.3261V125.101H503.44L473.61 81.9474V125.101H455.172V49.3261H471.003L500.687 92.5762V49.3261H519.054ZM502.22 96.5864H501.581L470.196 50.8587H456.705V123.569H472.078V77.8054H472.61L504.243 123.569H517.522V50.8587H502.22V96.5864ZM576.821 75.8942L576.503 74.7837C575.609 71.6634 573.961 69.2433 571.695 67.595C569.426 65.944 566.437 64.9948 562.745 64.9948C557.615 64.9948 553.397 66.9523 550.429 70.5983C547.435 74.278 545.603 79.8197 545.603 87.1427C545.603 94.5162 547.371 100.091 550.346 103.792C553.289 107.45 557.534 109.433 562.887 109.433C567.72 109.433 571.413 108.085 573.906 105.841C576.065 103.898 577.444 101.177 577.829 97.764H562.313V83.1249H595.804V93.8172C595.804 103.75 592.395 111.857 586.483 117.477C580.581 123.087 572.316 126.095 562.816 126.095C552.203 126.095 543.196 122.389 536.849 115.597C530.51 108.815 526.952 99.0942 526.952 87.2847C526.952 75.1719 530.761 65.4163 537.178 58.6776C543.596 51.9372 552.514 48.332 562.497 48.332C579.567 48.332 593.005 58.8906 595.115 74.1517L595.356 75.8942H576.821ZM579.467 96.2314C579.455 96.7535 579.422 97.2645 579.371 97.764C578.529 105.892 572.52 110.965 562.887 110.965C551.349 110.965 544.071 102.338 544.071 87.1427C544.071 72.0184 551.633 63.4622 562.745 63.4622C570.662 63.4622 576.023 67.5451 577.976 74.3616H593.597C593.526 73.8452 593.441 73.3342 593.342 72.829C590.694 59.2691 578.344 49.8646 562.497 49.8646C543.29 49.8646 528.485 63.7107 528.485 87.2847C528.485 110.291 542.331 124.563 562.816 124.563C581.171 124.563 594.272 112.953 594.272 93.8172V84.6575H563.846V96.2314H579.467Z" fill="black" fill-opacity="0.13"/>
<path fill-rule="evenodd" clip-rule="evenodd" d="M0.785156 223.64V147.865H19.2231V207.901H50.3946V223.64H0.785156ZM48.862 209.433V222.108H2.31774V149.398H17.6905V209.433H48.862ZM74.0832 223.64H54.3465L80.5052 147.865H102.501L128.623 223.64H108.887L103.49 207.06H79.4796L74.0832 223.64ZM78.3667 205.528L72.9703 222.108H56.4969L81.5975 149.398H101.408L126.473 222.108H110L104.603 205.528H78.3667ZM82.272 193.528H100.734L91.7868 166.013H91.2188L82.272 193.528ZM84.3819 191.995H98.6236L91.5028 170.096L84.3819 191.995ZM178.25 147.865H196.581V197.469C196.581 206.133 193.257 212.998 187.537 217.668C181.854 222.306 173.944 224.67 164.907 224.67C155.835 224.67 147.924 222.307 142.249 217.667C136.536 212.996 133.232 206.13 133.232 197.469V147.865H151.67V196.936C151.67 200.372 153.041 203.058 155.311 204.914C157.611 206.795 160.935 207.901 164.907 207.901C168.936 207.901 172.287 206.793 174.599 204.912C176.88 203.056 178.25 200.371 178.25 196.936V147.865ZM179.783 196.936C179.783 204.711 173.498 209.433 164.907 209.433C156.422 209.433 150.138 204.711 150.138 196.936V149.398H134.765V197.469C134.765 213.942 147.262 223.137 164.907 223.137C182.481 223.137 195.049 213.942 195.049 197.469V149.398H179.783V196.936ZM269.586 147.865V223.64H253.972L224.142 180.486V223.64H205.704V147.865H221.535L251.219 191.115V147.865H269.586ZM252.752 195.125H252.113L220.728 149.398H207.237V222.108H222.61V176.344H223.142L254.775 222.108H268.053V149.398H252.752V195.125ZM346.177 176.386H327.574L327.382 175.076C326.847 171.428 325.212 168.572 322.817 166.62C320.416 164.661 317.152 163.534 313.241 163.534C308.041 163.534 303.835 165.508 300.896 169.166C297.926 172.861 296.135 178.421 296.135 185.753C296.135 193.301 297.954 198.855 300.917 202.492C303.848 206.091 308.025 207.972 313.135 207.972C316.958 207.972 320.192 206.931 322.615 205.078C325.027 203.234 326.729 200.516 327.392 196.974L327.627 195.717L346.183 195.802L345.969 197.516C344.207 211.655 332.311 224.634 312.886 224.634C302.79 224.634 293.902 221.089 287.543 214.375C281.188 207.664 277.484 197.923 277.484 185.753C277.484 173.54 281.254 163.8 287.64 157.101C294.027 150.4 302.913 146.871 312.886 146.871C321.591 146.871 329.336 149.371 335.188 154.144C341.053 158.927 344.915 165.911 345.97 174.67L346.177 176.386ZM344.215 198.858C341.908 211.641 330.812 223.102 312.886 223.102C293.431 223.102 279.017 209.469 279.017 185.753C279.017 161.966 293.679 148.404 312.886 148.404C329.196 148.404 341.637 157.474 344.231 173.321C344.314 173.825 344.386 174.336 344.449 174.853H328.898C327.727 166.865 321.656 162.001 313.241 162.001C301.987 162.001 294.602 170.628 294.602 185.753C294.602 201.303 302.094 209.504 313.135 209.504C321.336 209.504 327.443 205.031 328.898 197.256L344.449 197.327C344.385 197.839 344.307 198.35 344.215 198.858ZM353.48 223.64V147.865H371.918V177.865H400.06V147.865H418.462V223.64H400.06V193.605H371.918V223.64H353.48ZM370.385 149.398V179.398H401.592V149.398H416.929V222.108H401.592V192.072H370.385V222.108H355.012V149.398H370.385ZM446.05 147.865V223.64H427.612V147.865H446.05ZM429.144 149.398H444.517V222.108H429.144V149.398ZM519.054 147.865V223.64H503.44L473.61 180.486V223.64H455.172V147.865H471.003L500.687 191.115V147.865H519.054ZM502.22 195.125H501.581L470.196 149.398H456.705V222.108H472.078V176.344H472.61L504.243 222.108H517.522V149.398H502.22V195.125ZM576.821 174.433L576.503 173.323C575.609 170.202 573.961 167.782 571.695 166.134C569.426 164.483 566.437 163.534 562.745 163.534C557.615 163.534 553.397 165.491 550.429 169.137C547.435 172.817 545.603 178.359 545.603 185.682C545.603 193.055 547.371 198.631 550.346 202.331C553.289 205.989 557.534 207.972 562.887 207.972C567.72 207.972 571.413 206.624 573.906 204.38C576.065 202.437 577.444 199.716 577.829 196.303H562.313V181.664H595.804V192.356C595.804 202.289 592.395 210.396 586.483 216.016C580.581 221.626 572.316 224.634 562.816 224.634C552.203 224.634 543.196 220.928 536.849 214.136C530.51 207.354 526.952 197.633 526.952 185.824C526.952 173.711 530.761 163.955 537.178 157.217C543.596 150.476 552.514 146.871 562.497 146.871C579.567 146.871 593.005 157.43 595.115 172.691L595.356 174.433H576.821ZM579.467 194.77C579.455 195.293 579.422 195.804 579.371 196.303C578.529 204.431 572.52 209.504 562.887 209.504C551.349 209.504 544.071 200.877 544.071 185.682C544.071 170.557 551.633 162.001 562.745 162.001C570.662 162.001 576.023 166.084 577.976 172.901H593.597C593.526 172.384 593.441 171.873 593.342 171.368C590.694 157.808 578.344 148.404 562.497 148.404C543.29 148.404 528.485 162.25 528.485 185.824C528.485 208.83 542.331 223.102 562.816 223.102C581.171 223.102 594.272 211.492 594.272 192.356V183.197H563.846V194.77H579.467Z" fill="black" fill-opacity="0.13"/>
<path fill-rule="evenodd" clip-rule="evenodd" d="M0.785156 322.175V246.4H19.2231V306.436H50.3946V322.175H0.785156ZM48.862 307.968V320.643H2.31774V247.933H17.6905V307.968H48.862ZM74.0832 322.175H54.3465L80.5052 246.4H102.501L128.623 322.175H108.887L103.49 305.596H79.4796L74.0832 322.175ZM78.3667 304.063L72.9703 320.643H56.4969L81.5975 247.933H101.408L126.473 320.643H110L104.603 304.063H78.3667ZM82.272 292.063H100.734L91.7868 264.548H91.2188L82.272 292.063ZM84.3819 290.53H98.6236L91.5028 268.631L84.3819 290.53ZM178.25 246.4H196.581V296.004C196.581 304.668 193.257 311.534 187.537 316.203C181.854 320.842 173.944 323.205 164.907 323.205C155.835 323.205 147.924 320.842 142.249 316.202C136.536 311.531 133.232 304.665 133.232 296.004V246.4H151.67V295.471C151.67 298.907 153.041 301.593 155.311 303.449C157.611 305.33 160.935 306.436 164.907 306.436C168.936 306.436 172.287 305.328 174.599 303.447C176.88 301.591 178.25 298.906 178.25 295.471V246.4ZM179.783 295.471C179.783 303.246 173.498 307.968 164.907 307.968C156.422 307.968 150.138 303.246 150.138 295.471V247.933H134.765V296.004C134.765 312.477 147.262 321.672 164.907 321.672C182.481 321.672 195.049 312.477 195.049 296.004V247.933H179.783V295.471ZM269.586 246.4V322.175H253.972L224.142 279.022V322.175H205.704V246.4H221.535L251.219 289.65V246.4H269.586ZM252.752 293.661H252.113L220.728 247.933H207.237V320.643H222.61V274.88H223.142L254.775 320.643H268.053V247.933H252.752V293.661ZM346.177 274.921H327.574L327.382 273.611C326.847 269.963 325.212 267.107 322.817 265.155C320.416 263.196 317.152 262.069 313.241 262.069C308.041 262.069 303.835 264.044 300.896 267.701C297.926 271.396 296.135 276.957 296.135 284.288C296.135 291.836 297.954 297.39 300.917 301.027C303.848 304.626 308.025 306.507 313.135 306.507C316.958 306.507 320.192 305.466 322.615 303.613C325.027 301.769 326.729 299.051 327.392 295.509L327.627 294.252L346.183 294.337L345.969 296.051C344.207 310.191 332.311 323.17 312.886 323.17C302.79 323.17 293.902 319.624 287.543 312.91C281.188 306.199 277.484 296.459 277.484 284.288C277.484 272.076 281.254 262.335 287.64 255.636C294.027 248.935 302.913 245.406 312.886 245.406C321.591 245.406 329.336 247.906 335.188 252.679C341.053 257.462 344.915 264.446 345.97 273.205L346.177 274.921ZM344.215 297.393C341.908 310.177 330.812 321.637 312.886 321.637C293.431 321.637 279.017 308.004 279.017 284.288C279.017 260.501 293.679 246.939 312.886 246.939C329.196 246.939 341.637 256.009 344.231 271.856C344.314 272.36 344.386 272.871 344.449 273.388H328.898C327.727 265.4 321.656 260.536 313.241 260.536C301.987 260.536 294.602 269.164 294.602 284.288C294.602 299.838 302.094 308.039 313.135 308.039C321.336 308.039 327.443 303.566 328.898 295.791L344.449 295.862C344.385 296.374 344.307 296.885 344.215 297.393ZM353.48 322.175V246.4H371.918V276.4H400.06V246.4H418.462V322.175H400.06V292.14H371.918V322.175H353.48ZM370.385 247.933V277.933H401.592V247.933H416.929V320.643H401.592V290.607H370.385V320.643H355.012V247.933H370.385ZM446.05 246.4V322.175H427.612V246.4H446.05ZM429.144 247.933H444.517V320.643H429.144V247.933ZM519.054 246.4V322.175H503.44L473.61 279.022V322.175H455.172V246.4H471.003L500.687 289.65V246.4H519.054ZM502.22 293.661H501.581L470.196 247.933H456.705V320.643H472.078V274.88H472.61L504.243 320.643H517.522V247.933H502.22V293.661ZM576.821 272.968L576.503 271.858C575.609 268.738 573.961 266.317 571.695 264.669C569.426 263.018 566.437 262.069 562.745 262.069C557.615 262.069 553.397 264.026 550.429 267.672C547.435 271.352 545.603 276.894 545.603 284.217C545.603 291.59 547.371 297.166 550.346 300.866C553.289 304.525 557.534 306.507 562.887 306.507C567.72 306.507 571.413 305.159 573.906 302.915C576.065 300.972 577.444 298.251 577.829 294.838H562.313V280.199H595.804V290.891C595.804 300.824 592.395 308.931 586.483 314.551C580.581 320.161 572.316 323.17 562.816 323.17C552.203 323.17 543.196 319.463 536.849 312.672C530.51 305.889 526.952 296.168 526.952 284.359C526.952 272.246 530.761 262.491 537.178 255.752C543.596 249.011 552.514 245.406 562.497 245.406C579.567 245.406 593.005 255.965 595.115 271.226L595.356 272.968H576.821ZM579.467 293.306C579.455 293.828 579.422 294.339 579.371 294.838C578.529 302.966 572.52 308.039 562.887 308.039C551.349 308.039 544.071 299.412 544.071 284.217C544.071 269.093 551.633 260.536 562.745 260.536C570.662 260.536 576.023 264.619 577.976 271.436H593.597C593.526 270.919 593.441 270.408 593.342 269.903C590.694 256.343 578.344 246.939 562.497 246.939C543.29 246.939 528.485 260.785 528.485 284.359C528.485 307.365 542.331 321.637 562.816 321.637C581.171 321.637 594.272 310.027 594.272 290.891V281.732H563.846V293.306H579.467Z" fill="black" fill-opacity="0.13"/>
<path fill-rule="evenodd" clip-rule="evenodd" d="M0.785156 420.711V344.935H19.2231V404.971H50.3946V420.711H0.785156ZM48.862 406.503V419.178H2.31774V346.468H17.6905V406.503H48.862ZM74.0832 420.711H54.3465L80.5052 344.935H102.501L128.623 420.711H108.887L103.49 404.131H79.4796L74.0832 420.711ZM78.3667 402.598L72.9703 419.178H56.4969L81.5975 346.468H101.408L126.473 419.178H110L104.603 402.598H78.3667ZM82.272 390.598H100.734L91.7868 363.083H91.2188L82.272 390.598ZM84.3819 389.066H98.6236L91.5028 367.166L84.3819 389.066ZM178.25 344.935H196.581V394.539C196.581 403.203 193.257 410.069 187.537 414.738C181.854 419.377 173.944 421.74 164.907 421.74C155.835 421.74 147.924 419.377 142.249 414.737C136.536 410.066 133.232 403.2 133.232 394.539V344.935H151.67V394.006C151.67 397.442 153.041 400.128 155.311 401.984C157.611 403.866 160.935 404.971 164.907 404.971C168.936 404.971 172.287 403.863 174.599 401.982C176.88 400.126 178.25 397.441 178.25 394.006V344.935ZM179.783 394.006C179.783 401.782 173.498 406.503 164.907 406.503C156.422 406.503 150.138 401.782 150.138 394.006V346.468H134.765V394.539C134.765 411.012 147.262 420.208 164.907 420.208C182.481 420.208 195.049 411.012 195.049 394.539V346.468H179.783V394.006ZM269.586 344.935V420.711H253.972L224.142 377.557V420.711H205.704V344.935H221.535L251.219 388.186V344.935H269.586ZM252.752 392.196H252.113L220.728 346.468H207.237V419.178H222.61V373.415H223.142L254.775 419.178H268.053V346.468H252.752V392.196ZM346.177 373.456H327.574L327.382 372.146C326.847 368.498 325.212 365.642 322.817 363.69C320.416 361.732 317.152 360.604 313.241 360.604C308.041 360.604 303.835 362.579 300.896 366.236C297.926 369.931 296.135 375.492 296.135 382.823C296.135 390.371 297.954 395.925 300.917 399.562C303.848 403.162 308.025 405.042 313.135 405.042C316.958 405.042 320.192 404.001 322.615 402.148C325.027 400.304 326.729 397.586 327.392 394.044L327.627 392.788L346.183 392.872L345.969 394.587C344.207 408.726 332.311 421.705 312.886 421.705C302.79 421.705 293.902 418.159 287.543 411.445C281.188 404.735 277.484 394.994 277.484 382.823C277.484 370.611 281.254 360.87 287.64 354.171C294.027 347.47 302.913 343.941 312.886 343.941C321.591 343.941 329.336 346.441 335.188 351.214C341.053 355.997 344.915 362.982 345.97 371.74L346.177 373.456ZM344.215 395.929C341.908 408.712 330.812 420.172 312.886 420.172C293.431 420.172 279.017 406.539 279.017 382.823C279.017 359.036 293.679 345.474 312.886 345.474C329.196 345.474 341.637 354.545 344.231 370.391C344.314 370.895 344.386 371.406 344.449 371.924H328.898C327.727 363.935 321.656 359.072 313.241 359.072C301.987 359.072 294.602 367.699 294.602 382.823C294.602 398.373 302.094 406.574 313.135 406.574C321.336 406.574 327.443 402.101 328.898 394.326L344.449 394.397C344.385 394.909 344.307 395.42 344.215 395.929ZM353.48 420.711V344.935H371.918V374.935H400.06V344.935H418.462V420.711H400.06V390.675H371.918V420.711H353.48ZM370.385 346.468V376.468H401.592V346.468H416.929V419.178H401.592V389.143H370.385V419.178H355.012V346.468H370.385ZM446.05 344.935V420.711H427.612V344.935H446.05ZM429.144 346.468H444.517V419.178H429.144V346.468ZM519.054 344.935V420.711H503.44L473.61 377.557V420.711H455.172V344.935H471.003L500.687 388.186V344.935H519.054ZM502.22 392.196H501.581L470.196 346.468H456.705V419.178H472.078V373.415H472.61L504.243 419.178H517.522V346.468H502.22V392.196ZM576.821 371.504L576.503 370.393C575.609 367.273 573.961 364.853 571.695 363.204C569.426 361.553 566.437 360.604 562.745 360.604C557.615 360.604 553.397 362.562 550.429 366.208C547.435 369.887 545.603 375.429 545.603 382.752C545.603 390.126 547.371 395.701 550.346 399.401C553.289 403.06 557.534 405.042 562.887 405.042C567.72 405.042 571.413 403.694 573.906 401.45C576.065 399.507 577.444 396.786 577.829 393.373H562.313V378.734H595.804V389.427C595.804 399.359 592.395 407.467 586.483 413.086C580.581 418.696 572.316 421.705 562.816 421.705C552.203 421.705 543.196 417.998 536.849 411.207C530.51 404.424 526.952 394.704 526.952 382.894C526.952 370.781 530.761 361.026 537.178 354.287C543.596 347.547 552.514 343.941 562.497 343.941C579.567 343.941 593.005 354.5 595.115 369.761L595.356 371.504H576.821ZM579.467 391.841C579.455 392.363 579.422 392.874 579.371 393.373C578.529 401.501 572.52 406.574 562.887 406.574C551.349 406.574 544.071 397.947 544.071 382.752C544.071 367.628 551.633 359.072 562.745 359.072C570.662 359.072 576.023 363.154 577.976 369.971H593.597C593.526 369.455 593.441 368.944 593.342 368.438C590.694 354.879 578.344 345.474 562.497 345.474C543.29 345.474 528.485 359.32 528.485 382.894C528.485 405.9 542.331 420.172 562.816 420.172C581.171 420.172 594.272 408.563 594.272 389.427V380.267H563.846V391.841H579.467Z" fill="black" fill-opacity="0.13"/>
<path d="M93.3809 154.804C90.7162 154.804 88.4512 154.627 86.5859 154.272V140.948C88.0071 141.303 89.6059 141.481 91.3824 141.481C94.3135 141.481 96.4897 140.771 97.9108 139.349C99.332 137.839 100.043 135.574 100.043 132.554V61.0078H114.698V132.155C114.698 139.793 112.922 145.478 109.369 149.209C105.905 152.939 100.575 154.804 93.3809 154.804Z" fill="black"/>
<path d="M145.882 155.604C138.776 155.604 133.358 153.605 129.627 149.608C125.897 145.523 124.031 139.705 124.031 132.155V61.0078H138.687V133.221C138.687 136.418 139.309 138.728 140.552 140.149C141.885 141.57 143.75 142.281 146.148 142.281C148.546 142.281 150.367 141.57 151.611 140.149C152.943 138.728 153.609 136.418 153.609 133.221V61.0078H167.732V132.155C167.732 139.705 165.867 145.523 162.136 149.608C158.406 153.605 152.987 155.604 145.882 155.604Z" fill="black"/>
<path d="M177.557 61.0078H195.944L210.2 116.833H210.466V61.0078H223.523V154.272H208.468L190.881 86.189H190.614V154.272H177.557V61.0078Z" fill="black"/>
<path d="M233.803 61.0078H273.773V74.3312H248.459V98.9795H268.577V112.303H248.459V140.948H273.773V154.272H233.803V61.0078Z" fill="black"/>
<path d="M322.835 83.1246H307.513V72.7324C311.688 72.7324 315.019 72.3771 317.506 71.6665C320.082 70.9559 322.125 69.8013 323.635 68.2024C325.145 66.5148 326.477 64.1166 327.632 61.0078H337.491V154.272H322.835V83.1246Z" fill="black"/>
<path d="M376.501 155.604C369.395 155.604 363.977 153.605 360.246 149.608C356.516 145.523 354.651 139.705 354.651 132.155V124.827H368.507V133.221C368.507 139.261 371.038 142.281 376.101 142.281C381.164 142.281 383.696 139.261 383.696 133.221V112.303C383.696 106.174 381.164 103.11 376.101 103.11C371.038 103.11 368.507 106.174 368.507 112.303V113.102H354.651L357.315 61.0078H395.953V74.3312H370.372L369.173 96.5813H369.44C372.193 92.0513 376.412 89.7863 382.097 89.7863C387.426 89.7863 391.468 91.6072 394.221 95.2489C396.975 98.8907 398.351 104.176 398.351 111.104V132.155C398.351 139.705 396.486 145.523 392.755 149.608C389.025 153.605 383.607 155.604 376.501 155.604Z" fill="black"/>
<path d="M419.241 74.3312H403.919V61.0078H449.219V74.3312H433.897V154.272H419.241V74.3312Z" fill="black"/>
<path d="M455.702 61.0078H470.358V98.9795H486.079V61.0078H500.735V154.272H486.079V112.303H470.358V154.272H455.702V61.0078Z" fill="black"/>
<g opacity="0.3">
<path d="M248.629 233.39H268.31V228.619H256.717V228.43L260.747 224.48C266.422 219.304 267.946 216.716 267.946 213.575C267.946 208.79 264.036 205.406 258.119 205.406C252.322 205.406 248.346 208.871 248.359 214.289H253.9C253.886 211.647 255.558 210.03 258.078 210.03C260.505 210.03 262.311 211.54 262.311 213.966C262.311 216.163 260.963 217.673 258.456 220.086L248.629 229.185V233.39Z" fill="black"/>
<path d="M283.097 233.997C290.039 233.997 294.231 228.713 294.244 219.614C294.258 210.583 290.012 205.406 283.097 205.406C276.168 205.406 271.962 210.569 271.949 219.614C271.922 228.686 276.141 233.983 283.097 233.997ZM283.097 229.158C279.929 229.158 277.88 225.976 277.893 219.614C277.907 213.346 279.942 210.192 283.097 210.192C286.237 210.192 288.286 213.346 288.286 219.614C288.3 225.976 286.251 229.158 283.097 229.158Z" fill="black"/>
<path d="M298.14 233.39H317.82V228.619H306.228V228.43L310.258 224.48C315.933 219.304 317.456 216.716 317.456 213.575C317.456 208.79 313.547 205.406 307.63 205.406C301.833 205.406 297.857 208.871 297.87 214.289H303.41C303.397 211.647 305.068 210.03 307.589 210.03C310.016 210.03 311.822 211.54 311.822 213.966C311.822 216.163 310.474 217.673 307.967 220.086L298.14 229.185V233.39Z" fill="black"/>
<path d="M332.607 233.997C339.55 233.997 343.742 228.713 343.755 219.614C343.769 210.583 339.523 205.406 332.607 205.406C325.679 205.406 321.473 210.569 321.46 219.614C321.433 228.686 325.652 233.983 332.607 233.997ZM332.607 229.158C329.44 229.158 327.391 225.976 327.404 219.614C327.418 213.346 329.453 210.192 332.607 210.192C335.748 210.192 337.797 213.346 337.797 219.614C337.811 225.976 335.762 229.158 332.607 229.158Z" fill="black"/>
</g>
<path d="M242.112 289.527H245.782C245.728 286.299 243.075 284.07 239.043 284.07C235.072 284.07 232.163 286.263 232.181 289.553C232.172 292.224 234.055 293.754 237.115 294.488L239.087 294.983C241.059 295.46 242.156 296.026 242.165 297.247C242.156 298.573 240.9 299.475 238.955 299.475C236.965 299.475 235.532 298.555 235.408 296.743H231.703C231.8 300.66 234.604 302.685 238.999 302.685C243.42 302.685 246.02 300.572 246.029 297.256C246.02 294.24 243.748 292.639 240.599 291.932L238.972 291.543C237.398 291.18 236.081 290.597 236.107 289.297C236.107 288.129 237.142 287.272 239.016 287.272C240.847 287.272 241.97 288.103 242.112 289.527Z" fill="black"/>
<path d="M255.644 288.846H253.089V285.591H249.321V288.846H247.464V291.675H249.321V298.75C249.304 301.412 251.117 302.729 253.849 302.615C254.822 302.579 255.512 302.385 255.892 302.261L255.299 299.458C255.114 299.493 254.716 299.581 254.362 299.581C253.61 299.581 253.089 299.298 253.089 298.255V291.675H255.644V288.846Z" fill="black"/>
<path d="M261.857 302.685C263.865 302.685 265.165 301.81 265.828 300.545H265.934V302.429H269.507V293.267C269.507 290.031 266.765 288.669 263.741 288.669C260.486 288.669 258.346 290.225 257.825 292.701L261.309 292.984C261.565 292.082 262.37 291.419 263.723 291.419C265.005 291.419 265.739 292.065 265.739 293.179V293.232C265.739 294.107 264.811 294.222 262.45 294.452C259.761 294.7 257.347 295.602 257.347 298.635C257.347 301.323 259.266 302.685 261.857 302.685ZM262.936 300.085C261.778 300.085 260.946 299.546 260.946 298.511C260.946 297.45 261.822 296.928 263.148 296.743C263.971 296.628 265.315 296.433 265.766 296.132V297.574C265.766 298.998 264.59 300.085 262.936 300.085Z" fill="black"/>
<path d="M274.154 307.496C276.957 307.496 278.452 306.072 279.212 303.897L284.492 288.863L280.504 288.846L277.665 298.821H277.523L274.711 288.846H270.749L275.622 302.818L275.401 303.393C274.87 304.622 273.96 304.71 272.633 304.295L271.784 307.116C272.324 307.337 273.199 307.496 274.154 307.496Z" fill="black"/>
<path d="M299.179 288.846H296.623V285.591H292.856V288.846H290.999V291.675H292.856V298.75C292.838 301.412 294.651 302.729 297.384 302.615C298.357 302.579 299.046 302.385 299.427 302.261L298.834 299.458C298.648 299.493 298.251 299.581 297.897 299.581C297.145 299.581 296.623 299.298 296.623 298.255V291.675H299.179V288.846Z" fill="black"/>
<path d="M310.229 296.645C310.238 298.467 308.991 299.422 307.638 299.422C306.214 299.422 305.295 298.423 305.286 296.822V288.846H301.519V297.494C301.527 300.669 303.384 302.606 306.117 302.606C308.16 302.606 309.628 301.553 310.238 299.962H310.379V302.429H313.996V288.846H310.229V296.645Z" fill="black"/>
<path d="M320.662 294.576C320.671 292.825 321.715 291.799 323.236 291.799C324.748 291.799 325.659 292.79 325.65 294.452V302.429H329.417V293.78C329.417 290.614 327.56 288.669 324.73 288.669C322.714 288.669 321.255 289.659 320.645 291.242H320.485V288.846H316.895V302.429H320.662V294.576Z" fill="black"/>
<path d="M338.462 302.694C341.822 302.694 344.086 301.058 344.617 298.538L341.133 298.308C340.752 299.343 339.78 299.882 338.524 299.882C336.64 299.882 335.446 298.635 335.446 296.61V296.601H344.696V295.566C344.696 290.95 341.902 288.669 338.312 288.669C334.314 288.669 331.723 291.507 331.723 295.699C331.723 300.006 334.279 302.694 338.462 302.694ZM335.446 294.267C335.526 292.719 336.702 291.481 338.373 291.481C340.009 291.481 341.141 292.648 341.15 294.267H335.446Z" fill="black"/>
<path d="M352.046 302.65C354.239 302.65 355.379 301.385 355.901 300.253H356.06V302.429H359.775V284.318H356.016V291.127H355.901C355.397 290.022 354.309 288.669 352.037 288.669C349.057 288.669 346.536 290.986 346.536 295.655C346.536 300.2 348.95 302.65 352.046 302.65ZM353.239 299.652C351.391 299.652 350.383 298.007 350.383 295.637C350.383 293.285 351.373 291.667 353.239 291.667C355.07 291.667 356.096 293.214 356.096 295.637C356.096 298.06 355.052 299.652 353.239 299.652Z" fill="black"/>
<path d="M364.959 302.659C366.091 302.659 367.073 301.713 367.082 300.536C367.073 299.378 366.091 298.432 364.959 298.432C363.792 298.432 362.828 299.378 362.837 300.536C362.828 301.713 363.792 302.659 364.959 302.659Z" fill="black"/>
</svg>
