<svg width="596" height="522" viewBox="0 0 596 522" fill="none" xmlns="http://www.w3.org/2000/svg">
<path d="M224.535 18.964H236.129V15.807H228.364V0.853079H224.535V18.964Z" fill="black"/>
<path d="M242.134 18.964L243.478 14.8342H250.013L251.357 18.964H255.46L249.217 0.853079H244.282L238.03 18.964H242.134ZM244.451 11.8452L246.679 4.9917H246.82L249.049 11.8452H244.451Z" fill="black"/>
<path d="M268.739 0.853079V12.6941C268.739 14.6308 267.174 15.807 265.034 15.807C262.92 15.807 261.355 14.6308 261.355 12.6941V0.853079H257.526V12.8268C257.526 16.93 260.638 19.2204 265.034 19.2204C269.411 19.2204 272.541 16.93 272.541 12.8268V0.853079H268.739Z" fill="black"/>
<path d="M290.726 0.853079H286.914V12.2431H286.755L278.938 0.853079H275.577V18.964H279.406V7.56508H279.539L287.418 18.964H290.726V0.853079Z" fill="black"/>
<path d="M309.755 7.19366C309.25 3.01082 306.085 0.605469 301.893 0.605469C297.109 0.605469 293.456 3.98358 293.456 9.90853C293.456 15.8158 297.047 19.2116 301.893 19.2116C306.536 19.2116 309.339 16.1253 309.755 12.7914L305.881 12.7737C305.519 14.7104 303.998 15.8246 301.955 15.8246C299.205 15.8246 297.339 13.7819 297.339 9.90853C297.339 6.14132 299.178 3.99242 301.981 3.99242C304.077 3.99242 305.589 5.20394 305.881 7.19366H309.755Z" fill="black"/>
<path d="M312.386 18.964H316.215V11.4826H323.988V18.964H327.808V0.853079H323.988V8.32559H316.215V0.853079H312.386V18.964Z" fill="black"/>
<path d="M334.68 0.853079H330.851V18.964H334.68V0.853079Z" fill="black"/>
<path d="M352.864 0.853079H349.053V12.2431H348.894L341.076 0.853079H337.716V18.964H341.545V7.56508H341.678L349.557 18.964H352.864V0.853079Z" fill="black"/>
<path d="M367.923 6.70729H371.814C371.318 3.12578 368.161 0.605469 364.067 0.605469C359.283 0.605469 355.595 4.05432 355.595 9.92622C355.595 15.6566 359.044 19.2116 364.146 19.2116C368.718 19.2116 371.982 16.3199 371.982 11.5534V9.27182H364.403V12.1547H368.294C368.241 14.4009 366.711 15.8246 364.164 15.8246C361.29 15.8246 359.477 13.6757 359.477 9.89084C359.477 6.12363 361.361 3.99242 364.129 3.99242C366.101 3.99242 367.436 5.00939 367.923 6.70729Z" fill="black"/>
<path fill-rule="evenodd" clip-rule="evenodd" d="M0.785156 520.531V444.756H19.2231V504.791H50.3946V520.531H0.785156ZM48.862 506.324V518.998H2.31774V446.288H17.6905V506.324H48.862ZM74.0832 520.531H54.3465L80.5052 444.756H102.501L128.623 520.531H108.887L103.49 503.951H79.4796L74.0832 520.531ZM78.3667 502.418L72.9703 518.998H56.4969L81.5975 446.288H101.408L126.473 518.998H110L104.603 502.418H78.3667ZM82.272 490.418H100.734L91.7868 462.904H91.2188L82.272 490.418ZM84.3819 488.886H98.6236L91.5028 466.986L84.3819 488.886ZM178.25 444.756H196.581V494.359C196.581 503.023 193.257 509.889 187.537 514.558C181.854 519.197 173.944 521.56 164.907 521.56C155.835 521.56 147.924 519.198 142.249 514.558C136.536 509.887 133.232 503.02 133.232 494.359V444.756H151.67V493.827C151.67 497.262 153.041 499.948 155.311 501.805C157.611 503.686 160.935 504.791 164.907 504.791C168.936 504.791 172.287 503.684 174.599 501.802C176.88 499.946 178.25 497.262 178.25 493.827V444.756ZM179.783 493.827C179.783 501.602 173.498 506.324 164.907 506.324C156.422 506.324 150.138 501.602 150.138 493.827V446.288H134.765V494.359C134.765 510.833 147.262 520.028 164.907 520.028C182.481 520.028 195.049 510.833 195.049 494.359V446.288H179.783V493.827ZM269.586 444.756V520.531H253.972L224.142 477.377V520.531H205.704V444.756H221.535L251.219 488.006V444.756H269.586ZM252.752 492.016H252.113L220.728 446.288H207.237V518.998H222.61V473.235H223.142L254.775 518.998H268.053V446.288H252.752V492.016ZM346.177 473.277H327.574L327.382 471.966C326.847 468.318 325.212 465.462 322.817 463.51C320.416 461.552 317.152 460.424 313.241 460.424C308.041 460.424 303.835 462.399 300.896 466.056C297.926 469.752 296.135 475.312 296.135 482.643C296.135 490.192 297.954 495.746 300.917 499.383C303.848 502.982 308.025 504.862 313.135 504.862C316.958 504.862 320.192 503.821 322.615 501.969C325.027 500.125 326.729 497.406 327.392 493.864L327.627 492.608L346.183 492.693L345.969 494.407C344.207 508.546 332.311 521.525 312.886 521.525C302.79 521.525 293.902 517.98 287.543 511.265C281.188 504.555 277.484 494.814 277.484 482.643C277.484 470.431 281.254 460.69 287.64 453.991C294.027 447.29 302.913 443.762 312.886 443.762C321.591 443.762 329.336 446.261 335.188 451.034C341.053 455.817 344.915 462.802 345.97 471.561L346.177 473.277ZM344.215 495.749C341.908 508.532 330.812 519.992 312.886 519.992C293.431 519.992 279.017 506.359 279.017 482.643C279.017 458.856 293.679 445.294 312.886 445.294C329.196 445.294 341.637 454.365 344.231 470.211C344.314 470.715 344.386 471.226 344.449 471.744H328.898C327.727 463.756 321.656 458.892 313.241 458.892C301.987 458.892 294.602 467.519 294.602 482.643C294.602 498.194 302.094 506.395 313.135 506.395C321.336 506.395 327.443 501.921 328.898 494.146L344.449 494.217C344.385 494.729 344.307 495.24 344.215 495.749ZM353.48 520.531V444.756H371.918V474.756H400.06V444.756H418.462V520.531H400.06V490.495H371.918V520.531H353.48ZM370.385 446.288V476.288H401.592V446.288H416.929V518.998H401.592V488.963H370.385V518.998H355.012V446.288H370.385ZM446.05 444.756V520.531H427.612V444.756H446.05ZM429.144 446.288H444.517V518.998H429.144V446.288ZM519.054 444.756V520.531H503.44L473.61 477.377V520.531H455.172V444.756H471.003L500.687 488.006V444.756H519.054ZM502.22 492.016H501.581L470.196 446.288H456.705V518.998H472.078V473.235H472.61L504.243 518.998H517.522V446.288H502.22V492.016ZM576.821 471.324L576.503 470.213C575.609 467.093 573.961 464.673 571.695 463.025C569.426 461.374 566.437 460.424 562.745 460.424C557.615 460.424 553.397 462.382 550.429 466.028C547.435 469.708 545.603 475.249 545.603 482.572C545.603 489.946 547.371 495.521 550.346 499.221C553.289 502.88 557.534 504.862 562.887 504.862C567.72 504.862 571.413 503.514 573.906 501.27C576.065 499.328 577.444 496.607 577.829 493.194H562.313V478.555H595.804V489.247C595.804 499.18 592.395 507.287 586.483 512.906C580.581 518.516 572.316 521.525 562.816 521.525C552.203 521.525 543.196 517.819 536.849 511.027C530.51 504.245 526.952 494.524 526.952 482.714C526.952 470.602 530.761 460.846 537.178 454.107C543.596 447.367 552.514 443.762 562.497 443.762C579.567 443.762 593.005 454.32 595.115 469.581L595.356 471.324H576.821ZM579.467 491.661C579.455 492.183 579.422 492.694 579.371 493.194C578.529 501.322 572.52 506.395 562.887 506.395C551.349 506.395 544.071 497.768 544.071 482.572C544.071 467.448 551.633 458.892 562.745 458.892C570.662 458.892 576.023 462.975 577.976 469.791H593.597C593.526 469.275 593.441 468.764 593.342 468.259C590.694 454.699 578.344 445.294 562.497 445.294C543.29 445.294 528.485 459.14 528.485 482.714C528.485 505.72 542.331 519.992 562.816 519.992C581.171 519.992 594.272 508.383 594.272 489.247V480.087H563.846V491.661H579.467Z" fill="black" fill-opacity="0.13"/>
<path fill-rule="evenodd" clip-rule="evenodd" d="M0.785156 125.066V49.291H19.2231V109.326H50.3946V125.066H0.785156ZM48.862 110.859V123.533H2.31774V50.8235H17.6905V110.859H48.862ZM74.0832 125.066H54.3465L80.5052 49.291H102.501L128.623 125.066H108.887L103.49 108.486H79.4796L74.0832 125.066ZM78.3667 106.954L72.9703 123.533H56.4969L81.5975 50.8235H101.408L126.473 123.533H110L104.603 106.954H78.3667ZM82.272 94.9536H100.734L91.7868 67.4389H91.2188L82.272 94.9536ZM84.3819 93.4211H98.6236L91.5028 71.5216L84.3819 93.4211ZM178.25 49.291H196.581V98.8945C196.581 107.558 193.257 114.424 187.537 119.094C181.854 123.732 173.944 126.096 164.907 126.096C155.835 126.096 147.924 123.733 142.249 119.093C136.536 114.422 133.232 107.556 133.232 98.8945V49.291H151.67V98.3619C151.67 101.797 153.041 104.483 155.311 106.34C157.611 108.221 160.935 109.326 164.907 109.326C168.936 109.326 172.287 108.219 174.599 106.337C176.88 104.481 178.25 101.797 178.25 98.3619V49.291ZM179.783 98.3619C179.783 106.137 173.498 110.859 164.907 110.859C156.422 110.859 150.138 106.137 150.138 98.3619V50.8235H134.765V98.8945C134.765 115.368 147.262 124.563 164.907 124.563C182.481 124.563 195.049 115.368 195.049 98.8945V50.8235H179.783V98.3619ZM269.586 49.291V125.066H253.972L224.142 81.9123V125.066H205.704V49.291H221.535L251.219 92.541V49.291H269.586ZM252.752 96.5513H252.113L220.728 50.8235H207.237V123.533H222.61V77.7702H223.142L254.775 123.533H268.053V50.8235H252.752V96.5513ZM346.177 77.8117H327.574L327.382 76.5015C326.847 72.8534 325.212 69.9975 322.817 68.0453C320.416 66.087 317.152 64.9597 313.241 64.9597C308.041 64.9597 303.835 66.9341 300.896 70.5913C297.926 74.2867 296.135 79.8472 296.135 87.1785C296.135 94.7269 297.954 100.281 300.917 103.918C303.848 107.517 308.025 109.397 313.135 109.397C316.958 109.397 320.192 108.357 322.615 106.504C325.027 104.66 326.729 101.942 327.392 98.3994L327.627 97.143L346.183 97.2278L345.969 98.942C344.207 113.081 332.311 126.06 312.886 126.06C302.79 126.06 293.902 122.515 287.543 115.8C281.188 109.09 277.484 99.3491 277.484 87.1785C277.484 74.9662 281.254 65.2253 287.64 58.5264C294.027 51.8255 302.913 48.2969 312.886 48.2969C321.591 48.2969 329.336 50.7966 335.188 55.5693C341.053 60.3525 344.915 67.337 345.97 76.0958L346.177 77.8117ZM344.215 100.284C341.908 113.067 330.812 124.528 312.886 124.528C293.431 124.528 279.017 110.894 279.017 87.1785C279.017 63.3916 293.679 49.8295 312.886 49.8295C329.196 49.8295 341.637 58.9001 344.231 74.7465C344.314 75.2506 344.386 75.7615 344.449 76.2791H328.898C327.727 68.291 321.656 63.4271 313.241 63.4271C301.987 63.4271 294.602 72.0543 294.602 87.1785C294.602 102.729 302.094 110.93 313.135 110.93C321.336 110.93 327.443 106.457 328.898 98.6814L344.449 98.7524C344.385 99.2646 344.307 99.7754 344.215 100.284ZM353.48 125.066V49.291H371.918V79.2909H400.06V49.291H418.462V125.066H400.06V95.0306H371.918V125.066H353.48ZM370.385 50.8235V80.8235H401.592V50.8235H416.929V123.533H401.592V93.498H370.385V123.533H355.012V50.8235H370.385ZM446.05 49.291V125.066H427.612V49.291H446.05ZM429.144 50.8235H444.517V123.533H429.144V50.8235ZM519.054 49.291V125.066H503.44L473.61 81.9123V125.066H455.172V49.291H471.003L500.687 92.5411V49.291H519.054ZM502.22 96.5513H501.581L470.196 50.8235H456.705V123.533H472.078V77.7702H472.61L504.243 123.533H517.522V50.8235H502.22V96.5513ZM576.821 75.859L576.503 74.7485C575.609 71.6283 573.961 69.2081 571.695 67.5598C569.426 65.9088 566.437 64.9597 562.745 64.9597C557.615 64.9597 553.397 66.9171 550.429 70.5631C547.435 74.2428 545.603 79.7845 545.603 87.1075C545.603 94.4811 547.371 100.056 550.346 103.757C553.289 107.415 557.534 109.397 562.887 109.397C567.72 109.397 571.413 108.05 573.906 105.806C576.065 103.863 577.444 101.142 577.829 97.7288H562.313V83.0897H595.804V93.782C595.804 103.715 592.395 111.822 586.483 117.442C580.581 123.052 572.316 126.06 562.816 126.06C552.203 126.06 543.196 122.354 536.849 115.562C530.51 108.78 526.952 99.059 526.952 87.2495C526.952 75.1368 530.761 65.3812 537.178 58.6424C543.596 51.9021 552.514 48.2969 562.497 48.2969C579.567 48.2969 593.005 58.8555 595.115 74.1165L595.356 75.859H576.821ZM579.467 96.1962C579.455 96.7183 579.422 97.2293 579.371 97.7288C578.529 105.857 572.52 110.93 562.887 110.93C551.349 110.93 544.071 102.303 544.071 87.1075C544.071 71.9833 551.633 63.4271 562.745 63.4271C570.662 63.4271 576.023 67.5099 577.976 74.3265H593.597C593.526 73.81 593.441 73.2991 593.342 72.7939C590.694 59.234 578.344 49.8295 562.497 49.8295C543.29 49.8295 528.485 63.6756 528.485 87.2495C528.485 110.255 542.331 124.528 562.816 124.528C581.171 124.528 594.272 112.918 594.272 93.782V84.6223H563.846V96.1962H579.467Z" fill="black" fill-opacity="0.13"/>
<path fill-rule="evenodd" clip-rule="evenodd" d="M0.785156 223.605V147.83H19.2231V207.865H50.3946V223.605H0.785156ZM48.862 209.398V222.073H2.31774V149.363H17.6905V209.398H48.862ZM74.0832 223.605H54.3465L80.5052 147.83H102.501L128.623 223.605H108.887L103.49 207.025H79.4796L74.0832 223.605ZM78.3667 205.493L72.9703 222.073H56.4969L81.5975 149.363H101.408L126.473 222.073H110L104.603 205.493H78.3667ZM82.272 193.493H100.734L91.7868 165.978H91.2188L82.272 193.493ZM84.3819 191.96H98.6236L91.5028 170.061L84.3819 191.96ZM178.25 147.83H196.581V197.434C196.581 206.097 193.257 212.963 187.537 217.633C181.854 222.271 173.944 224.635 164.907 224.635C155.835 224.635 147.924 222.272 142.249 217.632C136.536 212.961 133.232 206.095 133.232 197.434V147.83H151.67V196.901C151.67 200.336 153.041 203.022 155.311 204.879C157.611 206.76 160.935 207.865 164.907 207.865C168.936 207.865 172.287 206.758 174.599 204.876C176.88 203.02 178.25 200.336 178.25 196.901V147.83ZM179.783 196.901C179.783 204.676 173.498 209.398 164.907 209.398C156.422 209.398 150.138 204.676 150.138 196.901V149.363H134.765V197.434C134.765 213.907 147.262 223.102 164.907 223.102C182.481 223.102 195.049 213.907 195.049 197.434V149.363H179.783V196.901ZM269.586 147.83V223.605H253.972L224.142 180.451V223.605H205.704V147.83H221.535L251.219 191.08V147.83H269.586ZM252.752 195.09H252.113L220.728 149.363H207.237V222.073H222.61V176.309H223.142L254.775 222.073H268.053V149.363H252.752V195.09ZM346.177 176.351H327.574L327.382 175.041C326.847 171.392 325.212 168.537 322.817 166.584C320.416 164.626 317.152 163.499 313.241 163.499C308.041 163.499 303.835 165.473 300.896 169.13C297.926 172.826 296.135 178.386 296.135 185.718C296.135 193.266 297.954 198.82 300.917 202.457C303.848 206.056 308.025 207.936 313.135 207.936C316.958 207.936 320.192 206.896 322.615 205.043C325.027 203.199 326.729 200.481 327.392 196.938L327.627 195.682L346.183 195.767L345.969 197.481C344.207 211.62 332.311 224.599 312.886 224.599C302.79 224.599 293.902 221.054 287.543 214.339C281.188 207.629 277.484 197.888 277.484 185.718C277.484 173.505 281.254 163.764 287.64 157.065C294.027 150.365 302.913 146.836 312.886 146.836C321.591 146.836 329.336 149.336 335.188 154.108C341.053 158.892 344.915 165.876 345.97 174.635L346.177 176.351ZM344.215 198.823C341.908 211.606 330.812 223.067 312.886 223.067C293.431 223.067 279.017 209.434 279.017 185.718C279.017 161.931 293.679 148.369 312.886 148.369C329.196 148.369 341.637 157.439 344.231 173.286C344.314 173.79 344.386 174.301 344.449 174.818H328.898C327.727 166.83 321.656 161.966 313.241 161.966C301.987 161.966 294.602 170.593 294.602 185.718C294.602 201.268 302.094 209.469 313.135 209.469C321.336 209.469 327.443 204.996 328.898 197.221L344.449 197.292C344.385 197.804 344.307 198.314 344.215 198.823ZM353.48 223.605V147.83H371.918V177.83H400.06V147.83H418.462V223.605H400.06V193.57H371.918V223.605H353.48ZM370.385 149.363V179.363H401.592V149.363H416.929V222.073H401.592V192.037H370.385V222.073H355.012V149.363H370.385ZM446.05 147.83V223.605H427.612V147.83H446.05ZM429.144 149.363H444.517V222.073H429.144V149.363ZM519.054 147.83V223.605H503.44L473.61 180.451V223.605H455.172V147.83H471.003L500.687 191.08V147.83H519.054ZM502.22 195.09H501.581L470.196 149.363H456.705V222.073H472.078V176.309H472.61L504.243 222.073H517.522V149.363H502.22V195.09ZM576.821 174.398L576.503 173.288C575.609 170.167 573.961 167.747 571.695 166.099C569.426 164.448 566.437 163.499 562.745 163.499C557.615 163.499 553.397 165.456 550.429 169.102C547.435 172.782 545.603 178.324 545.603 185.647C545.603 193.02 547.371 198.595 550.346 202.296C553.289 205.954 557.534 207.936 562.887 207.936C567.72 207.936 571.413 206.589 573.906 204.345C576.065 202.402 577.444 199.681 577.829 196.268H562.313V181.629H595.804V192.321C595.804 202.254 592.395 210.361 586.483 215.981C580.581 221.591 572.316 224.599 562.816 224.599C552.203 224.599 543.196 220.893 536.849 214.101C530.51 207.319 526.952 197.598 526.952 185.789C526.952 173.676 530.761 163.92 537.178 157.181C543.596 150.441 552.514 146.836 562.497 146.836C579.567 146.836 593.005 157.395 595.115 172.656L595.356 174.398H576.821ZM579.467 194.735C579.455 195.257 579.422 195.768 579.371 196.268C578.529 204.396 572.52 209.469 562.887 209.469C551.349 209.469 544.071 200.842 544.071 185.647C544.071 170.522 551.633 161.966 562.745 161.966C570.662 161.966 576.023 166.049 577.976 172.866H593.597C593.526 172.349 593.441 171.838 593.342 171.333C590.694 157.773 578.344 148.369 562.497 148.369C543.29 148.369 528.485 162.215 528.485 185.789C528.485 208.794 542.331 223.067 562.816 223.067C581.171 223.067 594.272 211.457 594.272 192.321V183.161H563.846V194.735H579.467Z" fill="black" fill-opacity="0.13"/>
<path fill-rule="evenodd" clip-rule="evenodd" d="M0.785156 322.14V246.365H19.2231V306.401H50.3946V322.14H0.785156ZM48.862 307.933V320.608H2.31774V247.898H17.6905V307.933H48.862ZM74.0832 322.14H54.3465L80.5052 246.365H102.501L128.623 322.14H108.887L103.49 305.56H79.4796L74.0832 322.14ZM78.3667 304.028L72.9703 320.608H56.4969L81.5975 247.898H101.408L126.473 320.608H110L104.603 304.028H78.3667ZM82.272 292.028H100.734L91.7868 264.513H91.2188L82.272 292.028ZM84.3819 290.495H98.6236L91.5028 268.596L84.3819 290.495ZM178.25 246.365H196.581V295.969C196.581 304.633 193.257 311.498 187.537 316.168C181.854 320.806 173.944 323.17 164.907 323.17C155.835 323.17 147.924 320.807 142.249 316.167C136.536 311.496 133.232 304.63 133.232 295.969V246.365H151.67V295.436C151.67 298.872 153.041 301.558 155.311 303.414C157.611 305.295 160.935 306.401 164.907 306.401C168.936 306.401 172.287 305.293 174.599 303.412C176.88 301.556 178.25 298.871 178.25 295.436V246.365ZM179.783 295.436C179.783 303.211 173.498 307.933 164.907 307.933C156.422 307.933 150.138 303.211 150.138 295.436V247.898H134.765V295.969C134.765 312.442 147.262 321.637 164.907 321.637C182.481 321.637 195.049 312.442 195.049 295.969V247.898H179.783V295.436ZM269.586 246.365V322.14H253.972L224.142 278.986V322.14H205.704V246.365H221.535L251.219 289.615V246.365H269.586ZM252.752 293.625H252.113L220.728 247.898H207.237V320.608H222.61V274.844H223.142L254.775 320.608H268.053V247.898H252.752V293.625ZM346.177 274.886H327.574L327.382 273.576C326.847 269.928 325.212 267.072 322.817 265.12C320.416 263.161 317.152 262.034 313.241 262.034C308.041 262.034 303.835 264.008 300.896 267.666C297.926 271.361 296.135 276.921 296.135 284.253C296.135 291.801 297.954 297.355 300.917 300.992C303.848 304.591 308.025 306.472 313.135 306.472C316.958 306.472 320.192 305.431 322.615 303.578C325.027 301.734 326.729 299.016 327.392 295.474L327.627 294.217L346.183 294.302L345.969 296.016C344.207 310.155 332.311 323.134 312.886 323.134C302.79 323.134 293.902 319.589 287.543 312.875C281.188 306.164 277.484 296.423 277.484 284.253C277.484 272.04 281.254 262.3 287.64 255.601C294.027 248.9 302.913 245.371 312.886 245.371C321.591 245.371 329.336 247.871 335.188 252.644C341.053 257.427 344.915 264.411 345.97 273.17L346.177 274.886ZM344.215 297.358C341.908 310.141 330.812 321.602 312.886 321.602C293.431 321.602 279.017 307.969 279.017 284.253C279.017 260.466 293.679 246.904 312.886 246.904C329.196 246.904 341.637 255.974 344.231 271.821C344.314 272.325 344.386 272.836 344.449 273.353H328.898C327.727 265.365 321.656 260.501 313.241 260.501C301.987 260.501 294.602 269.128 294.602 284.253C294.602 299.803 302.094 308.004 313.135 308.004C321.336 308.004 327.443 303.531 328.898 295.756L344.449 295.827C344.385 296.339 344.307 296.85 344.215 297.358ZM353.48 322.14V246.365H371.918V276.365H400.06V246.365H418.462V322.14H400.06V292.105H371.918V322.14H353.48ZM370.385 247.898V277.898H401.592V247.898H416.929V320.608H401.592V290.572H370.385V320.608H355.012V247.898H370.385ZM446.05 246.365V322.14H427.612V246.365H446.05ZM429.144 247.898H444.517V320.608H429.144V247.898ZM519.054 246.365V322.14H503.44L473.61 278.986V322.14H455.172V246.365H471.003L500.687 289.615V246.365H519.054ZM502.22 293.625H501.581L470.196 247.898H456.705V320.608H472.078V274.844H472.61L504.243 320.608H517.522V247.898H502.22V293.625ZM576.821 272.933L576.503 271.823C575.609 268.702 573.961 266.282 571.695 264.634C569.426 262.983 566.437 262.034 562.745 262.034C557.615 262.034 553.397 263.991 550.429 267.637C547.435 271.317 545.603 276.859 545.603 284.182C545.603 291.555 547.371 297.131 550.346 300.831C553.289 304.489 557.534 306.472 562.887 306.472C567.72 306.472 571.413 305.124 573.906 302.88C576.065 300.937 577.444 298.216 577.829 294.803H562.313V280.164H595.804V290.856C595.804 300.789 592.395 308.896 586.483 314.516C580.581 320.126 572.316 323.134 562.816 323.134C552.203 323.134 543.196 319.428 536.849 312.636C530.51 305.854 526.952 296.133 526.952 284.324C526.952 272.211 530.761 262.455 537.178 255.717C543.596 248.976 552.514 245.371 562.497 245.371C579.567 245.371 593.005 255.93 595.115 271.191L595.356 272.933H576.821ZM579.467 293.27C579.455 293.793 579.422 294.304 579.371 294.803C578.529 302.931 572.52 308.004 562.887 308.004C551.349 308.004 544.071 299.377 544.071 284.182C544.071 269.057 551.633 260.501 562.745 260.501C570.662 260.501 576.023 264.584 577.976 271.401H593.597C593.526 270.884 593.441 270.373 593.342 269.868C590.694 256.308 578.344 246.904 562.497 246.904C543.29 246.904 528.485 260.75 528.485 284.324C528.485 307.33 542.331 321.602 562.816 321.602C581.171 321.602 594.272 309.992 594.272 290.856V281.697H563.846V293.27H579.467Z" fill="black" fill-opacity="0.13"/>
<path fill-rule="evenodd" clip-rule="evenodd" d="M0.785156 420.675V344.9H19.2231V404.936H50.3946V420.675H0.785156ZM48.862 406.468V419.143H2.31774V346.433H17.6905V406.468H48.862ZM74.0832 420.675H54.3465L80.5052 344.9H102.501L128.623 420.675H108.887L103.49 404.096H79.4796L74.0832 420.675ZM78.3667 402.563L72.9703 419.143H56.4969L81.5975 346.433H101.408L126.473 419.143H110L104.603 402.563H78.3667ZM82.272 390.563H100.734L91.7868 363.048H91.2188L82.272 390.563ZM84.3819 389.03H98.6236L91.5028 367.131L84.3819 389.03ZM178.25 344.9H196.581V394.504C196.581 403.168 193.257 410.034 187.537 414.703C181.854 419.342 173.944 421.705 164.907 421.705C155.835 421.705 147.924 419.342 142.249 414.702C136.536 410.031 133.232 403.165 133.232 394.504V344.9H151.67V393.971C151.67 397.407 153.041 400.093 155.311 401.949C157.611 403.83 160.935 404.936 164.907 404.936C168.936 404.936 172.287 403.828 174.599 401.947C176.88 400.091 178.25 397.406 178.25 393.971V344.9ZM179.783 393.971C179.783 401.746 173.498 406.468 164.907 406.468C156.422 406.468 150.138 401.746 150.138 393.971V346.433H134.765V394.504C134.765 410.977 147.262 420.172 164.907 420.172C182.481 420.172 195.049 410.977 195.049 394.504V346.433H179.783V393.971ZM269.586 344.9V420.675H253.972L224.142 377.522V420.675H205.704V344.9H221.535L251.219 388.15V344.9H269.586ZM252.752 392.161H252.113L220.728 346.433H207.237V419.143H222.61V373.38H223.142L254.775 419.143H268.053V346.433H252.752V392.161ZM346.177 373.421H327.574L327.382 372.111C326.847 368.463 325.212 365.607 322.817 363.655C320.416 361.696 317.152 360.569 313.241 360.569C308.041 360.569 303.835 362.544 300.896 366.201C297.926 369.896 296.135 375.457 296.135 382.788C296.135 390.336 297.954 395.89 300.917 399.527C303.848 403.126 308.025 405.007 313.135 405.007C316.958 405.007 320.192 403.966 322.615 402.113C325.027 400.269 326.729 397.551 327.392 394.009L327.627 392.752L346.183 392.837L345.969 394.551C344.207 408.691 332.311 421.67 312.886 421.67C302.79 421.67 293.902 418.124 287.543 411.41C281.188 404.699 277.484 394.959 277.484 382.788C277.484 370.576 281.254 360.835 287.64 354.136C294.027 347.435 302.913 343.906 312.886 343.906C321.591 343.906 329.336 346.406 335.188 351.179C341.053 355.962 344.915 362.946 345.97 371.705L346.177 373.421ZM344.215 395.893C341.908 408.677 330.812 420.137 312.886 420.137C293.431 420.137 279.017 406.504 279.017 382.788C279.017 359.001 293.679 345.439 312.886 345.439C329.196 345.439 341.637 354.509 344.231 370.356C344.314 370.86 344.386 371.371 344.449 371.888H328.898C327.727 363.9 321.656 359.036 313.241 359.036C301.987 359.036 294.602 367.664 294.602 382.788C294.602 398.338 302.094 406.539 313.135 406.539C321.336 406.539 327.443 402.066 328.898 394.291L344.449 394.362C344.385 394.874 344.307 395.385 344.215 395.893ZM353.48 420.675V344.9H371.918V374.9H400.06V344.9H418.462V420.675H400.06V390.64H371.918V420.675H353.48ZM370.385 346.433V376.433H401.592V346.433H416.929V419.143H401.592V389.107H370.385V419.143H355.012V346.433H370.385ZM446.05 344.9V420.675H427.612V344.9H446.05ZM429.144 346.433H444.517V419.143H429.144V346.433ZM519.054 344.9V420.675H503.44L473.61 377.522V420.675H455.172V344.9H471.003L500.687 388.15V344.9H519.054ZM502.22 392.161H501.581L470.196 346.433H456.705V419.143H472.078V373.38H472.61L504.243 419.143H517.522V346.433H502.22V392.161ZM576.821 371.468L576.503 370.358C575.609 367.238 573.961 364.817 571.695 363.169C569.426 361.518 566.437 360.569 562.745 360.569C557.615 360.569 553.397 362.526 550.429 366.172C547.435 369.852 545.603 375.394 545.603 382.717C545.603 390.09 547.371 395.666 550.346 399.366C553.289 403.025 557.534 405.007 562.887 405.007C567.72 405.007 571.413 403.659 573.906 401.415C576.065 399.472 577.444 396.751 577.829 393.338H562.313V378.699H595.804V389.391C595.804 399.324 592.395 407.431 586.483 413.051C580.581 418.661 572.316 421.67 562.816 421.67C552.203 421.67 543.196 417.963 536.849 411.172C530.51 404.389 526.952 394.668 526.952 382.859C526.952 370.746 530.761 360.991 537.178 354.252C543.596 347.511 552.514 343.906 562.497 343.906C579.567 343.906 593.005 354.465 595.115 369.726L595.356 371.468H576.821ZM579.467 391.806C579.455 392.328 579.422 392.839 579.371 393.338C578.529 401.466 572.52 406.539 562.887 406.539C551.349 406.539 544.071 397.912 544.071 382.717C544.071 367.593 551.633 359.036 562.745 359.036C570.662 359.036 576.023 363.119 577.976 369.936H593.597C593.526 369.419 593.441 368.908 593.342 368.403C590.694 354.843 578.344 345.439 562.497 345.439C543.29 345.439 528.485 359.285 528.485 382.859C528.485 405.865 542.331 420.137 562.816 420.137C581.171 420.137 594.272 408.527 594.272 389.391V380.232H563.846V391.806H579.467Z" fill="black" fill-opacity="0.13"/>
<path d="M119.748 154.77C117.083 154.77 114.818 154.592 112.953 154.237V140.913C114.374 141.269 115.973 141.446 117.75 141.446C120.681 141.446 122.857 140.736 124.278 139.315C125.699 137.805 126.41 135.54 126.41 132.52V60.973H141.065V132.12C141.065 139.759 139.289 145.443 135.736 149.174C132.272 152.904 126.943 154.77 119.748 154.77Z" fill="black"/>
<path d="M172.249 155.569C165.143 155.569 159.725 153.571 155.994 149.574C152.264 145.488 150.398 139.67 150.398 132.12V60.973H165.054V133.186C165.054 136.383 165.676 138.693 166.919 140.114C168.252 141.535 170.117 142.246 172.515 142.246C174.913 142.246 176.734 141.535 177.978 140.114C179.31 138.693 179.976 136.383 179.976 133.186V60.973H194.099V132.12C194.099 139.67 192.234 145.488 188.503 149.574C184.773 153.571 179.355 155.569 172.249 155.569Z" fill="black"/>
<path d="M203.924 60.973H222.311L236.567 116.798H236.833V60.973H249.89V154.237H234.835L217.248 86.1542H216.981V154.237H203.924V60.973Z" fill="black"/>
<path d="M260.17 60.973H300.141V74.2964H274.826V98.9446H294.944V112.268H274.826V140.913H300.141V154.237H260.17V60.973Z" fill="black"/>
<path d="M349.869 155.569C342.496 155.569 336.812 153.615 332.815 149.707C328.907 145.71 326.953 139.981 326.953 132.52V124.259C326.953 119.64 327.708 115.777 329.217 112.668C330.727 109.47 333.17 106.983 336.545 105.207V104.94C333.437 103.253 331.127 100.943 329.617 98.012C328.196 94.992 327.485 91.1727 327.485 86.5539V82.6901C327.485 75.229 329.395 69.5443 333.215 65.6362C337.123 61.6391 342.674 59.6406 349.869 59.6406C357.063 59.6406 362.57 61.6391 366.39 65.6362C370.298 69.5443 372.252 75.229 372.252 82.6901V86.5539C372.252 95.4361 369.232 101.565 363.192 104.94V105.207C366.567 106.983 369.01 109.47 370.52 112.668C372.03 115.777 372.785 119.64 372.785 124.259V132.52C372.785 139.981 370.786 145.71 366.789 149.707C362.881 153.615 357.241 155.569 349.869 155.569ZM349.869 98.9446C355.02 98.9446 357.596 95.8358 357.596 89.6183V82.2904C357.596 76.0728 355.02 72.964 349.869 72.964C344.717 72.964 342.141 76.0728 342.141 82.2904V89.6183C342.141 95.8358 344.717 98.9446 349.869 98.9446ZM349.869 142.246C355.376 142.246 358.129 138.737 358.129 131.72V122.793C358.129 115.777 355.376 112.268 349.869 112.268C344.362 112.268 341.608 115.777 341.608 122.793V131.72C341.608 138.737 344.362 142.246 349.869 142.246Z" fill="black"/>
<path d="M392.876 74.2964H377.554V60.973H422.853V74.2964H407.531V154.237H392.876V74.2964Z" fill="black"/>
<path d="M429.336 60.973H443.992V98.9446H459.714V60.973H474.369V154.237H459.714V112.268H443.992V154.237H429.336V60.973Z" fill="black"/>
<g opacity="0.3">
<path d="M248.629 233.355H268.31V228.583H256.717V228.395L260.747 224.445C266.422 219.269 267.946 216.681 267.946 213.54C267.946 208.755 264.036 205.371 258.119 205.371C252.322 205.371 248.346 208.835 248.359 214.254H253.9C253.886 211.612 255.558 209.995 258.078 209.995C260.505 209.995 262.311 211.504 262.311 213.931C262.311 216.128 260.963 217.638 258.456 220.051L248.629 229.15V233.355Z" fill="black"/>
<path d="M283.097 233.962C290.039 233.962 294.231 228.678 294.244 219.579C294.258 210.547 290.012 205.371 283.097 205.371C276.168 205.371 271.962 210.534 271.949 219.579C271.922 228.651 276.141 233.948 283.097 233.962ZM283.097 229.123C279.929 229.123 277.88 225.941 277.893 219.579C277.907 213.311 279.942 210.156 283.097 210.156C286.237 210.156 288.286 213.311 288.286 219.579C288.3 225.941 286.251 229.123 283.097 229.123Z" fill="black"/>
<path d="M298.14 233.355H317.82V228.583H306.228V228.395L310.258 224.445C315.933 219.269 317.456 216.681 317.456 213.54C317.456 208.755 313.547 205.371 307.63 205.371C301.833 205.371 297.857 208.835 297.87 214.254H303.41C303.397 211.612 305.068 209.995 307.589 209.995C310.016 209.995 311.822 211.504 311.822 213.931C311.822 216.128 310.474 217.638 307.967 220.051L298.14 229.15V233.355Z" fill="black"/>
<path d="M332.607 233.962C339.55 233.962 343.742 228.678 343.755 219.579C343.769 210.547 339.523 205.371 332.607 205.371C325.679 205.371 321.473 210.534 321.46 219.579C321.433 228.651 325.652 233.948 332.607 233.962ZM332.607 229.123C329.44 229.123 327.391 225.941 327.404 219.579C327.418 213.311 329.453 210.156 332.607 210.156C335.748 210.156 337.797 213.311 337.797 219.579C337.811 225.941 335.762 229.123 332.607 229.123Z" fill="black"/>
</g>
<path d="M242.112 289.491H245.782C245.728 286.264 243.075 284.035 239.043 284.035C235.072 284.035 232.163 286.228 232.181 289.518C232.172 292.189 234.055 293.718 237.115 294.452L239.087 294.948C241.059 295.425 242.156 295.991 242.165 297.212C242.156 298.538 240.9 299.44 238.955 299.44C236.965 299.44 235.532 298.52 235.408 296.707H231.703C231.8 300.625 234.604 302.65 238.999 302.65C243.42 302.65 246.02 300.537 246.029 297.22C246.02 294.205 243.748 292.604 240.599 291.897L238.972 291.508C237.398 291.145 236.081 290.561 236.107 289.261C236.107 288.094 237.142 287.236 239.016 287.236C240.847 287.236 241.97 288.068 242.112 289.491Z" fill="black"/>
<path d="M255.644 288.81H253.089V285.556H249.321V288.81H247.464V291.64H249.321V298.715C249.304 301.377 251.117 302.694 253.849 302.579C254.822 302.544 255.512 302.349 255.892 302.226L255.299 299.422C255.114 299.458 254.716 299.546 254.362 299.546C253.61 299.546 253.089 299.263 253.089 298.22V291.64H255.644V288.81Z" fill="black"/>
<path d="M261.857 302.65C263.865 302.65 265.165 301.775 265.828 300.51H265.934V302.394H269.507V293.232C269.507 289.995 266.765 288.634 263.741 288.634C260.486 288.634 258.346 290.19 257.825 292.666L261.309 292.949C261.565 292.047 262.37 291.384 263.723 291.384C265.005 291.384 265.739 292.029 265.739 293.144V293.197C265.739 294.072 264.811 294.187 262.45 294.417C259.761 294.665 257.347 295.567 257.347 298.6C257.347 301.288 259.266 302.65 261.857 302.65ZM262.936 300.05C261.778 300.05 260.946 299.511 260.946 298.476C260.946 297.415 261.822 296.893 263.148 296.707C263.971 296.593 265.315 296.398 265.766 296.097V297.539C265.766 298.962 264.59 300.05 262.936 300.05Z" fill="black"/>
<path d="M274.154 307.461C276.957 307.461 278.452 306.037 279.212 303.862L284.492 288.828L280.504 288.81L277.665 298.786H277.523L274.711 288.81H270.749L275.622 302.783L275.401 303.358C274.87 304.587 273.96 304.675 272.633 304.26L271.784 307.081C272.324 307.302 273.199 307.461 274.154 307.461Z" fill="black"/>
<path d="M299.179 288.81H296.623V285.556H292.856V288.81H290.999V291.64H292.856V298.715C292.838 301.377 294.651 302.694 297.384 302.579C298.357 302.544 299.046 302.349 299.427 302.226L298.834 299.422C298.648 299.458 298.251 299.546 297.897 299.546C297.145 299.546 296.623 299.263 296.623 298.22V291.64H299.179V288.81Z" fill="black"/>
<path d="M310.229 296.61C310.238 298.432 308.991 299.387 307.638 299.387C306.214 299.387 305.295 298.388 305.286 296.787V288.81H301.519V297.459C301.527 300.634 303.384 302.571 306.117 302.571C308.16 302.571 309.628 301.518 310.238 299.926H310.379V302.394H313.996V288.81H310.229V296.61Z" fill="black"/>
<path d="M320.662 294.541C320.671 292.79 321.715 291.764 323.236 291.764C324.748 291.764 325.659 292.755 325.65 294.417V302.394H329.417V293.745C329.417 290.579 327.56 288.634 324.73 288.634C322.714 288.634 321.255 289.624 320.645 291.207H320.485V288.81H316.895V302.394H320.662V294.541Z" fill="black"/>
<path d="M338.462 302.659C341.822 302.659 344.086 301.023 344.617 298.503L341.133 298.273C340.752 299.307 339.78 299.847 338.524 299.847C336.64 299.847 335.446 298.6 335.446 296.575V296.566H344.696V295.531C344.696 290.915 341.902 288.634 338.312 288.634C334.314 288.634 331.723 291.472 331.723 295.664C331.723 299.971 334.279 302.659 338.462 302.659ZM335.446 294.231C335.526 292.684 336.702 291.446 338.373 291.446C340.009 291.446 341.141 292.613 341.15 294.231H335.446Z" fill="black"/>
<path d="M352.046 302.615C354.239 302.615 355.379 301.35 355.901 300.218H356.06V302.394H359.775V284.283H356.016V291.092H355.901C355.397 289.987 354.309 288.634 352.037 288.634C349.057 288.634 346.536 290.951 346.536 295.62C346.536 300.165 348.95 302.615 352.046 302.615ZM353.239 299.617C351.391 299.617 350.383 297.972 350.383 295.602C350.383 293.25 351.373 291.631 353.239 291.631C355.07 291.631 356.096 293.179 356.096 295.602C356.096 298.025 355.052 299.617 353.239 299.617Z" fill="black"/>
<path d="M364.959 302.624C366.091 302.624 367.073 301.677 367.082 300.501C367.073 299.343 366.091 298.397 364.959 298.397C363.792 298.397 362.828 299.343 362.837 300.501C362.828 301.677 363.792 302.624 364.959 302.624Z" fill="black"/>
</svg>
