<svg width="688" height="266" viewBox="0 0 688 266" fill="none" xmlns="http://www.w3.org/2000/svg">
<g filter="url(#filter0_d)">
<path fill-rule="evenodd" clip-rule="evenodd" d="M123.184 177.232C125.209 175.171 128.013 174.109 131.133 174.109C134.243 174.109 137.049 175.172 139.079 177.232C141.11 179.293 142.309 182.298 142.309 186.081C142.309 189.864 141.11 192.869 139.079 194.931C137.049 196.991 134.243 198.053 131.133 198.053C128.012 198.053 125.208 196.982 123.184 194.917C121.159 192.852 119.968 189.848 119.968 186.081C119.968 182.299 121.158 179.294 123.184 177.232ZM124.112 178.143C122.365 179.921 121.268 182.577 121.268 186.081C121.268 189.568 122.365 192.225 124.112 194.007C125.86 195.79 128.314 196.753 131.133 196.753C133.943 196.753 136.4 195.798 138.153 194.018C139.905 192.24 141.009 189.584 141.009 186.081C141.009 182.578 139.905 179.922 138.153 178.144C136.4 176.365 133.943 175.409 131.133 175.409C128.312 175.409 125.859 176.365 124.112 178.143ZM153.601 177.233C155.617 175.173 158.405 174.109 161.494 174.109C164.279 174.109 166.747 174.898 168.6 176.423C170.459 177.954 171.65 180.189 171.934 182.98L172.007 183.696H165.331L165.261 183.125C165.144 182.161 164.747 181.413 164.154 180.904C163.559 180.393 162.717 180.08 161.634 180.08C160.206 180.08 159.114 180.613 158.362 181.577C157.593 182.563 157.129 184.067 157.129 186.081C157.129 188.184 157.605 189.684 158.37 190.645C159.119 191.585 160.201 192.082 161.602 192.082C162.652 192.082 163.485 191.8 164.087 191.327C164.685 190.856 165.103 190.16 165.267 189.239L165.362 188.7L172.007 188.74L171.934 189.451C171.504 193.677 167.888 198.053 161.494 198.053C158.352 198.053 155.562 196.982 153.558 194.915C151.554 192.848 150.394 189.843 150.394 186.081C150.394 182.299 151.584 179.295 153.601 177.233ZM154.53 178.142C152.791 179.92 151.694 182.577 151.694 186.081C151.694 189.573 152.766 192.23 154.492 194.01C156.217 195.79 158.652 196.753 161.494 196.753C166.821 196.753 169.858 193.397 170.533 190.031L166.423 190.006C166.151 190.965 165.632 191.766 164.89 192.349C164.018 193.035 162.886 193.382 161.602 193.382C159.86 193.382 158.38 192.745 157.353 191.454C156.342 190.184 155.829 188.358 155.829 186.081C155.829 183.888 156.332 182.066 157.337 180.778C158.358 179.469 159.843 178.78 161.634 178.78C162.972 178.78 164.132 179.171 165.001 179.918C165.735 180.547 166.226 181.4 166.453 182.396H170.544C170.177 180.26 169.19 178.594 167.774 177.427C166.196 176.127 164.037 175.409 161.494 175.409C158.707 175.409 156.27 176.364 154.53 178.142ZM298.071 177.277C300.105 175.202 302.913 174.109 306.011 174.109C311.373 174.109 315.628 177.401 316.213 182.181L316.303 182.911H309.676L309.548 182.427C309.347 181.669 308.949 181.096 308.395 180.707C307.837 180.315 307.079 180.08 306.119 180.08C304.699 180.08 303.591 180.607 302.823 181.567C302.041 182.545 301.56 184.04 301.56 186.049C301.56 188.083 302.018 189.593 302.788 190.581C303.54 191.546 304.644 192.082 306.119 192.082C307.456 192.082 308.414 191.741 309.034 191.211C309.502 190.811 309.819 190.268 309.952 189.583H305.652V184.398H316.455V187.965C316.455 191.08 315.383 193.619 313.513 195.377C311.647 197.13 309.045 198.053 306.076 198.053C302.764 198.053 299.935 196.918 297.936 194.822C295.939 192.728 294.825 189.734 294.825 186.113C294.825 182.365 296.036 179.354 298.071 177.277ZM299 178.187C297.238 179.985 296.125 182.651 296.125 186.113C296.125 189.467 297.153 192.117 298.877 193.925C300.598 195.73 303.07 196.753 306.076 196.753C308.778 196.753 311.041 195.916 312.622 194.43C314.198 192.949 315.155 190.769 315.155 187.965V185.698H306.952V188.283H311.337L311.321 188.948C311.291 190.266 310.811 191.401 309.879 192.199C308.957 192.987 307.666 193.382 306.119 193.382C304.29 193.382 302.789 192.697 301.763 191.38C300.754 190.086 300.26 188.255 300.26 186.049C300.26 183.85 300.785 182.035 301.808 180.755C302.846 179.458 304.342 178.78 306.119 178.78C307.29 178.78 308.324 179.067 309.143 179.644C309.834 180.13 310.343 180.8 310.65 181.611H314.797C313.986 177.987 310.554 175.409 306.011 175.409C303.223 175.409 300.763 176.388 299 178.187ZM414.509 176.132C416.179 174.825 418.495 174.109 421.126 174.109C423.801 174.109 426.06 174.837 427.669 176.167C429.288 177.506 430.201 179.416 430.224 181.662L430.231 182.319H423.878L423.826 181.726C423.769 181.095 423.523 180.646 423.125 180.342C422.712 180.025 422.064 179.811 421.115 179.811C420.162 179.811 419.536 180.013 419.166 180.277C418.819 180.524 418.658 180.848 418.655 181.244L418.655 181.252L418.654 181.259C418.642 181.649 418.8 181.951 419.219 182.238C419.674 182.549 420.391 182.803 421.37 183.013L421.378 183.015L423.267 183.445C423.268 183.445 423.269 183.445 423.269 183.445C425.509 183.939 427.317 184.755 428.575 185.965C429.851 187.193 430.514 188.783 430.526 190.705L430.526 190.712C430.514 192.992 429.613 194.856 427.94 196.132C426.288 197.392 423.947 198.032 421.115 198.032C418.259 198.032 415.815 197.398 414.063 196.015C412.287 194.614 411.308 192.511 411.274 189.77L411.266 189.112H417.64L417.674 189.726C417.724 190.621 418.066 191.241 418.596 191.652C419.144 192.076 419.964 192.33 421.051 192.33C422.036 192.33 422.744 192.113 423.189 191.808C423.611 191.518 423.813 191.14 423.823 190.698C423.814 190.327 423.668 190.041 423.245 189.756C422.772 189.438 421.994 189.155 420.797 188.878L420.795 188.877L418.495 188.34C418.494 188.34 418.494 188.34 418.493 188.34C416.529 187.89 414.866 187.164 413.689 186.057C412.492 184.931 411.84 183.45 411.844 181.607C411.827 179.345 412.827 177.448 414.509 176.132ZM415.31 177.156C413.928 178.237 413.13 179.761 413.144 181.599L413.144 181.606C413.14 183.108 413.655 184.24 414.58 185.11C415.525 185.999 416.94 186.651 418.785 187.073L418.788 187.073L421.089 187.611C421.089 187.611 421.089 187.611 421.089 187.611C422.313 187.894 423.289 188.219 423.971 188.678C424.698 189.168 425.108 189.826 425.123 190.687L425.123 190.698L425.123 190.709C425.108 191.608 424.67 192.367 423.925 192.879C423.199 193.378 422.207 193.63 421.051 193.63C419.78 193.63 418.646 193.335 417.801 192.68C417.087 192.127 416.626 191.355 416.45 190.412H412.604C412.767 192.482 413.582 193.98 414.868 194.995C416.31 196.133 418.428 196.732 421.115 196.732C423.772 196.732 425.8 196.129 427.151 195.098C428.48 194.086 429.215 192.615 429.226 190.71C429.215 189.114 428.678 187.869 427.673 186.902C426.65 185.917 425.096 185.179 422.988 184.714L422.984 184.713L421.097 184.284C421.096 184.284 421.094 184.284 421.093 184.284C420.072 184.064 419.154 183.768 418.485 183.311C417.782 182.83 417.328 182.145 417.355 181.225C417.364 180.418 417.726 179.706 418.412 179.218C419.078 178.744 420.002 178.511 421.115 178.511C422.243 178.511 423.204 178.765 423.916 179.309C424.485 179.745 424.85 180.333 425.022 181.019H428.886C428.718 179.437 427.998 178.125 426.841 177.169C425.517 176.075 423.574 175.409 421.126 175.409C418.72 175.409 416.704 176.065 415.31 177.156ZM515.403 176.132C517.074 174.825 519.39 174.109 522.021 174.109C524.696 174.109 526.955 174.837 528.564 176.167C530.183 177.506 531.096 179.416 531.119 181.662L531.126 182.319H524.773L524.72 181.726C524.664 181.095 524.418 180.646 524.02 180.342C523.607 180.025 522.959 179.811 522.01 179.811C521.057 179.811 520.431 180.013 520.061 180.277C519.713 180.524 519.553 180.848 519.549 181.244L519.549 181.252L519.549 181.259C519.536 181.649 519.694 181.951 520.114 182.238C520.569 182.549 521.285 182.803 522.265 183.013L522.272 183.015L524.162 183.445C524.163 183.445 524.163 183.445 524.164 183.445C526.403 183.939 528.212 184.755 529.47 185.965C530.746 187.193 531.409 188.783 531.42 190.705L531.42 190.712C531.409 192.992 530.508 194.856 528.834 196.132C527.183 197.392 524.842 198.032 522.01 198.032C519.154 198.032 516.709 197.398 514.957 196.015C513.182 194.614 512.203 192.511 512.169 189.77L512.161 189.112H518.535L518.569 189.726C518.619 190.621 518.961 191.241 519.491 191.652C520.039 192.076 520.859 192.33 521.945 192.33C522.931 192.33 523.639 192.113 524.083 191.808C524.505 191.518 524.707 191.14 524.718 190.698C524.708 190.327 524.562 190.041 524.139 189.756C523.667 189.438 522.889 189.155 521.691 188.878L521.69 188.877L519.389 188.34C519.389 188.34 519.389 188.34 519.388 188.34C517.424 187.89 515.761 187.164 514.584 186.057C513.387 184.931 512.734 183.45 512.739 181.607C512.722 179.345 513.722 177.448 515.403 176.132ZM516.204 177.156C514.822 178.237 514.025 179.761 514.039 181.599L514.039 181.606C514.034 183.108 514.55 184.24 515.474 185.11C516.42 185.999 517.835 186.651 519.679 187.073L519.682 187.073L521.984 187.611C521.984 187.611 521.984 187.611 521.984 187.611C523.207 187.894 524.184 188.219 524.866 188.678C525.593 189.168 526.003 189.826 526.018 190.687L526.018 190.698L526.018 190.709C526.003 191.608 525.565 192.367 524.82 192.879C524.093 193.378 523.101 193.63 521.945 193.63C520.674 193.63 519.541 193.335 518.695 192.68C517.981 192.127 517.521 191.355 517.344 190.412H513.498C513.662 192.482 514.477 193.98 515.763 194.995C517.204 196.133 519.323 196.732 522.01 196.732C524.667 196.732 526.695 196.129 528.046 195.098C529.374 194.086 530.11 192.615 530.12 190.71C530.11 189.114 529.573 187.869 528.568 186.902C527.545 185.917 525.991 185.179 523.883 184.714L523.878 184.713L521.992 184.284C521.99 184.284 521.989 184.284 521.988 184.284C520.967 184.064 520.049 183.768 519.38 183.311C518.677 182.83 518.222 182.145 518.25 181.225C518.259 180.418 518.62 179.706 519.307 179.218C519.972 178.744 520.896 178.511 522.01 178.511C523.138 178.511 524.099 178.765 524.81 179.309C525.379 179.745 525.744 180.333 525.916 181.019H529.781C529.613 179.437 528.893 178.125 527.736 177.169C526.412 176.075 524.468 175.409 522.021 175.409C519.614 175.409 517.599 176.065 516.204 177.156ZM542.301 177.232C544.326 175.171 547.131 174.109 550.25 174.109C553.36 174.109 556.166 175.172 558.196 177.232C560.227 179.293 561.426 182.298 561.426 186.081C561.426 189.828 560.244 192.808 558.253 194.871L561.99 199.474H555.499L553.876 197.525C552.74 197.876 551.522 198.053 550.25 198.053C547.129 198.053 544.325 196.982 542.301 194.917C540.276 192.852 539.085 189.848 539.085 186.081C539.085 182.299 540.276 179.294 542.301 177.232ZM543.229 178.143C541.482 179.921 540.385 182.577 540.385 186.081C540.385 189.568 541.482 192.225 543.229 194.007C544.977 195.79 547.431 196.753 550.25 196.753C551.549 196.753 552.766 196.549 553.875 196.156L554.302 196.004L556.108 198.174H559.26L556.485 194.755L556.935 194.341C558.879 192.557 560.126 189.794 560.126 186.081C560.126 182.578 559.022 179.922 557.27 178.144C555.517 176.365 553.06 175.409 550.25 175.409C547.429 175.409 544.976 176.365 543.229 178.143ZM588.235 177.232C590.26 175.171 593.064 174.109 596.184 174.109C599.294 174.109 602.1 175.172 604.13 177.232C606.161 179.293 607.36 182.298 607.36 186.081C607.36 189.864 606.161 192.869 604.13 194.931C602.1 196.991 599.294 198.053 596.184 198.053C593.063 198.053 590.259 196.982 588.235 194.917C586.21 192.852 585.019 189.848 585.019 186.081C585.019 182.299 586.209 179.294 588.235 177.232ZM589.163 178.143C587.416 179.921 586.319 182.577 586.319 186.081C586.319 189.568 587.416 192.225 589.163 194.007C590.911 195.79 593.365 196.753 596.184 196.753C598.994 196.753 601.451 195.798 603.204 194.018C604.956 192.24 606.06 189.584 606.06 186.081C606.06 182.578 604.956 179.922 603.204 178.144C601.451 176.365 598.994 175.409 596.184 175.409C593.363 175.409 590.91 176.365 589.163 178.143ZM63.9277 174.41H71.1982L74.1338 187.16L77.4874 174.41H83.29L86.6442 187.191L89.5898 174.41H96.849L90.0677 197.752H83.961L80.3886 185.727L76.8161 197.752H70.7204L63.9277 174.41ZM65.66 175.71L71.696 196.452H75.8462L79.8175 183.085H80.9596L84.931 196.452H89.0916L95.1175 175.71H90.6242L87.2879 190.186H86.0863L82.2872 175.71H78.4897L74.6906 190.154H73.4891L70.1635 175.71H65.66ZM97.5342 174.41H104.162V183.257H111.547V174.41H118.163V197.752H111.547V188.894H104.162V197.752H97.5342V174.41ZM98.8342 175.71V196.452H102.862V187.594H112.847V196.452H116.863V175.71H112.847V184.557H102.862V175.71H98.8342ZM173.686 174.41H180.314V183.257H187.699V174.41H194.315V197.752H187.699V188.894H180.314V197.752H173.686V174.41ZM174.986 175.71V196.452H179.014V187.594H188.999V196.452H193.015V175.71H188.999V184.557H179.014V175.71H174.986ZM203.019 174.41H211.045L218.921 197.752H211.813L210.36 193.124H203.705L202.252 197.752H195.144L203.019 174.41ZM203.953 175.71L196.955 196.452H201.298L202.751 191.824H211.314L212.767 196.452H217.11L210.112 175.71H203.953ZM219.738 174.41H226.366V192.125H235.535V197.752H219.738V174.41ZM221.038 175.71V196.452H234.235V193.425H225.066V175.71H221.038ZM236.993 174.41H243.621V192.125H252.79V197.752H236.993V174.41ZM238.293 175.71V196.452H251.49V193.425H242.321V175.71H238.293ZM254.248 174.41H270.917V180.037H260.875V183.257H270.131V188.894H260.875V192.125H270.917V197.752H254.248V174.41ZM255.548 175.71V196.452H269.617V193.425H259.575V187.594H268.831V184.557H259.575V178.737H269.617V175.71H255.548ZM272.953 174.41H278.531L286.395 185.924V174.41H293.012V197.752H287.5L279.58 186.266V197.752H272.953V174.41ZM274.253 175.71V196.452H278.28V183.731H279.412L288.183 196.452H291.712V175.71H287.695V188.41H286.519L277.845 175.71H274.253ZM318.295 174.41H334.964V180.037H324.922V183.257H334.178V188.894H324.922V192.125H334.964V197.752H318.295V174.41ZM319.595 175.71V196.452H333.664V193.425H323.622V187.594H332.878V184.557H323.622V178.737H333.664V175.71H319.595ZM342.79 174.41H362.72V180.037H356.036V197.752H349.484V180.037H342.79V174.41ZM344.09 175.71V178.737H350.784V196.452H354.736V178.737H361.42V175.71H344.09ZM364.022 174.41H370.649V183.257H378.034V174.41H384.651V197.752H378.034V188.894H370.649V197.752H364.022V174.41ZM365.322 175.71V196.452H369.349V187.594H379.334V196.452H383.351V175.71H379.334V184.557H369.349V175.71H365.322ZM386.693 174.41H403.361V180.037H393.32V183.257H402.576V188.894H393.32V192.125H403.361V197.752H386.693V174.41ZM387.993 175.71V196.452H402.061V193.425H392.02V187.594H401.276V184.557H392.02V178.737H402.061V175.71H387.993ZM431.195 174.41H451.125V180.037H444.441V197.752H437.889V180.037H431.195V174.41ZM432.495 175.71V178.737H439.189V196.452H443.141V178.737H449.825V175.71H432.495ZM456.336 174.41H464.362L472.238 197.752H465.13L463.677 193.124H457.022L455.569 197.752H448.461L456.336 174.41ZM457.27 175.71L450.272 196.452H454.615L456.068 191.824H464.631L466.084 196.452H470.427L463.429 175.71H457.27ZM469.582 174.41H489.512V180.037H482.828V197.752H476.276V180.037H469.582V174.41ZM470.882 175.71V178.737H477.576V196.452H481.528V178.737H488.212V175.71H470.882ZM490.813 174.41H497.441V189.418C497.441 190.221 497.759 190.852 498.306 191.295C498.866 191.749 499.71 192.039 500.794 192.039C501.891 192.039 502.744 191.748 503.309 191.294C503.861 190.85 504.18 190.219 504.18 189.418V174.41H510.765V189.622C510.765 192.309 509.744 194.443 507.94 195.89C506.154 197.322 503.664 198.032 500.794 198.032C497.904 198.032 495.411 197.322 493.627 195.889C491.825 194.441 490.813 192.307 490.813 189.622V174.41ZM492.113 175.71V189.622C492.113 191.952 492.975 193.698 494.441 194.876C495.927 196.069 498.099 196.732 500.794 196.732C503.467 196.732 505.638 196.069 507.126 194.875C508.597 193.696 509.465 191.95 509.465 189.622V175.71H505.48V189.418C505.48 190.607 504.987 191.612 504.124 192.307C503.274 192.99 502.109 193.339 500.794 193.339C499.489 193.339 498.332 192.99 497.487 192.305C496.63 191.61 496.141 190.605 496.141 189.418V175.71H492.113ZM563.266 174.41H569.893V189.418C569.893 190.221 570.211 190.852 570.758 191.295C571.318 191.749 572.163 192.039 573.247 192.039C574.343 192.039 575.196 191.748 575.762 191.294C576.313 190.85 576.633 190.219 576.633 189.418V174.41H583.217V189.622C583.217 192.309 582.196 194.443 580.392 195.89C578.606 197.322 576.117 198.032 573.247 198.032C570.356 198.032 567.864 197.322 566.08 195.889C564.277 194.441 563.266 192.307 563.266 189.622V174.41ZM564.566 175.71V189.622C564.566 191.952 565.427 193.698 566.894 194.876C568.379 196.069 570.552 196.732 573.247 196.732C575.92 196.732 578.09 196.069 579.579 194.875C581.049 193.696 581.917 191.95 581.917 189.622V175.71H577.933V189.418C577.933 190.607 577.44 191.612 576.576 192.307C575.726 192.99 574.561 193.339 573.247 193.339C571.942 193.339 570.785 192.99 569.94 192.305C569.082 191.61 568.593 190.605 568.593 189.418V175.71H564.566ZM127.916 181.536C127.163 182.505 126.703 184.007 126.703 186.081C126.703 188.155 127.163 189.657 127.916 190.626C128.651 191.572 129.721 192.082 131.133 192.082C132.551 192.082 133.621 191.572 134.354 190.627C135.106 189.658 135.563 188.156 135.563 186.081C135.563 184.006 135.106 182.505 134.354 181.536C133.621 180.59 132.551 180.08 131.133 180.08C129.721 180.08 128.651 180.59 127.916 181.536ZM126.89 180.738C127.9 179.438 129.37 178.78 131.133 178.78C132.901 178.78 134.371 179.437 135.381 180.739C136.373 182.016 136.863 183.84 136.863 186.081C136.863 188.322 136.373 190.146 135.381 191.424C134.371 192.725 132.901 193.382 131.133 193.382C129.37 193.382 127.9 192.725 126.89 191.424C125.897 190.147 125.403 188.323 125.403 186.081C125.403 183.839 125.897 182.016 126.89 180.738ZM547.033 181.536C546.28 182.505 545.82 184.007 545.82 186.081C545.82 188.155 546.28 189.657 547.033 190.626C547.681 191.461 548.59 191.956 549.764 192.061L547.092 188.531H553.021L553.989 189.768C554.43 188.845 554.68 187.621 554.68 186.081C554.68 184.006 554.223 182.505 553.471 181.536C552.738 180.59 551.668 180.08 550.25 180.08C548.838 180.08 547.768 180.59 547.033 181.536ZM546.007 180.738C547.018 179.438 548.487 178.78 550.25 178.78C552.018 178.78 553.488 179.437 554.498 180.739C555.49 182.016 555.98 183.84 555.98 186.081C555.98 188.249 555.524 190.029 554.583 191.3L554.075 191.986L552.387 189.831H549.706L552.244 193.184L551.127 193.323C550.85 193.358 550.553 193.382 550.25 193.382C548.487 193.382 547.018 192.725 546.007 191.424C545.014 190.147 544.52 188.323 544.52 186.081C544.52 183.839 545.014 182.016 546.007 180.738ZM592.967 181.536C592.214 182.505 591.754 184.007 591.754 186.081C591.754 188.155 592.214 189.657 592.967 190.626C593.702 191.572 594.772 192.082 596.184 192.082C597.602 192.082 598.672 191.572 599.405 190.627C600.157 189.658 600.614 188.156 600.614 186.081C600.614 184.006 600.157 182.505 599.405 181.536C598.672 180.59 597.602 180.08 596.184 180.08C594.772 180.08 593.702 180.59 592.967 181.536ZM591.94 180.738C592.951 179.438 594.421 178.78 596.184 178.78C597.952 178.78 599.422 179.437 600.432 180.739C601.424 182.016 601.914 183.84 601.914 186.081C601.914 188.322 601.424 190.146 600.432 191.424C599.422 192.725 597.952 193.382 596.184 193.382C594.421 193.382 592.951 192.725 591.94 191.424C590.948 190.147 590.454 188.323 590.454 186.081C590.454 183.839 590.948 182.016 591.94 180.738ZM206.463 179.964H207.59L210.452 189.077H203.613L206.463 179.964ZM207.028 182.513L205.382 187.777H208.681L207.028 182.513ZM459.78 179.964H460.907L463.769 189.077H456.931L459.78 179.964ZM460.345 182.513L458.699 187.777H461.999L460.345 182.513Z" fill="white"/>
</g>
<g filter="url(#filter1_d)">
<path d="M145.02 138.544V160.585H150.207V146.97H150.39L155.686 160.445H159L164.295 147.046H164.478V160.585H169.666V138.544H163.069L157.472 152.19H157.214L151.617 138.544H145.02Z" fill="white"/>
<path d="M186.356 138.544V152.901C186.356 154.892 184.731 156.172 182.32 156.172C179.931 156.172 178.316 154.892 178.316 152.901V138.544H172.989V153.105C172.989 158.12 176.734 160.865 182.32 160.865C187.862 160.865 191.64 158.12 191.64 153.105V138.544H186.356Z" fill="white"/>
<path d="M194.979 160.585H209.476V156.258H200.306V138.544H194.979V160.585Z" fill="white"/>
<path d="M208.819 142.87H215.514V160.585H220.766V142.87H227.449V138.544H208.819V142.87Z" fill="white"/>
<path d="M235.378 138.544H230.051V160.585H235.378V138.544Z" fill="white"/>
<path d="M238.723 160.585H244.05V151.727H252.811V147.39H244.05V142.87H253.769V138.544H238.723V160.585Z" fill="white"/>
<path d="M258.466 160.585L259.919 155.957H267.528L268.981 160.585H274.707L267.27 138.544H260.178L252.741 160.585H258.466ZM261.189 151.91L263.632 144.097H263.805L266.258 151.91H261.189Z" fill="white"/>
<path d="M296.051 146.529C295.513 141.256 291.585 138.242 286.258 138.242C280.381 138.242 275.807 142.278 275.807 149.564C275.807 156.818 280.274 160.886 286.258 160.886C292.306 160.886 295.653 156.775 296.051 152.868L290.67 152.836C290.293 154.956 288.701 156.215 286.365 156.215C283.223 156.215 281.242 153.945 281.242 149.564C281.242 145.356 283.18 142.913 286.397 142.913C288.819 142.913 290.401 144.323 290.67 146.529H296.051Z" fill="white"/>
<path d="M298.379 142.87H305.073V160.585H310.325V142.87H317.008V138.544H298.379V142.87Z" fill="white"/>
<path d="M319.61 160.585H334.979V156.258H324.938V151.727H334.193V147.39H324.938V142.87H334.979V138.544H319.61V160.585Z" fill="white"/>
<path d="M346.462 160.585C353.178 160.585 357.343 156.441 357.343 149.553C357.343 142.676 353.178 138.544 346.452 138.544H338.315V160.585H346.462ZM343.643 156.043V143.085H346.183C349.971 143.085 352.005 144.807 352.005 149.553C352.005 154.321 349.971 156.043 346.258 156.043H343.643Z" fill="white"/>
<path d="M366.965 138.544V160.585H372.152V146.97H372.335L377.63 160.445H380.945L386.24 147.046H386.423V160.585H391.611V138.544H385.013L379.417 152.19H379.159L373.562 138.544H366.965Z" fill="white"/>
<path d="M400.261 138.544H394.933V160.585H400.261V138.544Z" fill="white"/>
<path d="M403.605 160.585H418.102V156.258H408.933V138.544H403.605V160.585Z" fill="white"/>
<path d="M420.86 160.585H435.357V156.258H426.187V138.544H420.86V160.585Z" fill="white"/>
<path d="M438.115 160.585H453.484V156.258H443.442V151.727H452.698V147.39H443.442V142.87H453.484V138.544H438.115V160.585Z" fill="white"/>
<path d="M475.579 138.544H470.262V151.243H470.079L461.405 138.544H456.82V160.585H462.147V147.864H462.287L471.059 160.585H475.579V138.544Z" fill="white"/>
<path d="M497.687 138.544H492.371V151.243H492.188L483.513 138.544H478.929V160.585H484.256V147.864H484.396L493.167 160.585H497.687V138.544Z" fill="white"/>
<path d="M505.805 160.585L507.258 155.957H514.867L516.32 160.585H522.045L514.609 138.544H507.516L500.079 160.585H505.805ZM508.528 151.91L510.971 144.097H511.143L513.597 151.91H508.528Z" fill="white"/>
<path d="M529.746 138.544H524.419V160.585H529.746V138.544Z" fill="white"/>
<path d="M533.09 160.585H547.587V156.258H538.418V138.544H533.09V160.585Z" fill="white"/>
<path d="M562.259 145.152H567.36C567.317 141.03 564.035 138.242 558.912 138.242C553.875 138.242 550.248 140.987 550.281 145.087C550.27 148.434 552.616 150.318 556.426 151.189L558.729 151.727C561.151 152.287 562.238 152.944 562.259 154.181C562.238 155.527 560.978 156.463 558.837 156.463C556.48 156.463 554.93 155.365 554.811 153.245H549.71C549.775 158.4 553.359 160.865 558.901 160.865C564.39 160.865 567.64 158.379 567.662 154.192C567.64 150.673 565.262 148.52 560.914 147.562L559.02 147.132C557.018 146.701 555.748 146.034 555.791 144.721C555.802 143.516 556.835 142.644 558.901 142.644C560.978 142.644 562.119 143.58 562.259 145.152Z" fill="white"/>
</g>
<path d="M686.324 28.2353L687.643 19.4638L670.402 0.803877H645.473L644.863 4.85883L641.104 0.803877H632.529L631.373 8.46561L624.281 0.803877H612.558L611.948 4.86594L608.196 0.803877H598.643L598.26 3.35779L595.905 0.803877H570.005L568.678 9.5825L578.381 20.0756L576.664 23.1701L576.622 19.4638L559.373 0.803877H546.778L543.232 11.987C540.92 10.3223 538.267 8.99204 535.82 7.43408L531.92 3.21551C529.976 1.08132 526.92 0 522.898 0C522.331 0 521.778 0 521.232 0.0640256C521.054 0.0640256 520.884 0.106709 520.707 0.128051C520.345 0.163621 519.998 0.206305 519.65 0.263216L519.047 0.384154C518.742 0.448179 518.437 0.505091 518.146 0.583344L517.537 0.768307C517.267 0.853675 516.99 0.939042 516.728 1.03864L516.537 1.09555C516.409 1.14535 516.295 1.20937 516.175 1.25917C515.891 1.38011 515.607 1.50816 515.331 1.64332L515.09 1.75715C514.955 1.82829 514.827 1.91365 514.7 1.98479C514.572 2.05593 514.395 2.15553 514.246 2.25512C514.173 2.28848 514.104 2.32899 514.04 2.37606C513.834 2.50411 513.636 2.65351 513.444 2.79578L513.232 2.94518L513.168 2.98786C512.908 3.18705 512.652 3.40047 512.402 3.62812L512.21 3.79885C512.04 3.96247 511.863 4.13321 511.7 4.30394C511.537 4.47468 511.501 4.52448 511.402 4.6383L511.161 4.90863L511.012 5.07225C510.827 5.29278 510.657 5.52754 510.48 5.78365C510.444 5.84056 510.402 5.88324 510.366 5.94015C510.125 6.28162 509.891 6.65155 509.657 7.00725V7.04993C509.398 7.48826 509.162 7.93938 508.948 8.40158V8.40158C508.756 8.80708 508.586 9.23391 508.416 9.66786C508.366 9.79592 508.324 9.93108 508.274 10.0662C508.225 10.2014 508.139 10.4148 508.083 10.5998C508.083 10.6709 508.04 10.7492 508.019 10.8203L498.707 0.803877H486.097L483.26 9.92397L474.82 0.803877H461.501L458.891 9.79592L450.586 0.803877H437.274L434.175 21.3419L434.125 21.285L432.31 19.3286L430.544 17.415L418.026 3.89845C416.154 1.87808 412.955 0.846561 408.487 0.846561H395.005L394.607 3.47161L392.168 0.803877H367.224L366.941 2.68196L365.217 0.803877H337.061L336.998 1.24494L336.586 0.803877H312.388L311.778 4.85883L308.033 0.803877H298.473L297.842 4.85883L294.097 0.803877H284.558L283.31 9.07029L275.678 0.803877H266.118L264.785 9.63229L258.749 3.10168C256.849 1.03864 253.905 0 249.99 0C249.416 0 248.863 0 248.324 0.0640256C248.139 0.0640256 247.969 0.106709 247.792 0.128051C247.437 0.163621 247.083 0.206305 246.735 0.263216L246.132 0.384154C245.834 0.448179 245.529 0.505091 245.232 0.583344L244.629 0.768307L243.813 1.03152C243.753 1.05603 243.691 1.0774 243.629 1.09555C243.501 1.14535 243.388 1.20937 243.267 1.25917C242.983 1.38011 242.7 1.50816 242.423 1.64332L242.182 1.75715C242.047 1.82829 241.92 1.90654 241.792 1.98479L241.338 2.24801L241.132 2.36895C240.927 2.50411 240.728 2.65351 240.522 2.8029L240.324 2.94518L240.274 2.98075C240.005 3.18705 239.749 3.40047 239.501 3.621L239.31 3.79885C239.125 3.96959 238.941 4.14744 238.771 4.3324C238.6 4.51736 238.586 4.53159 238.501 4.63118C238.416 4.73078 238.324 4.82326 238.239 4.91574L238.076 5.10782C237.912 5.29278 237.771 5.49909 237.622 5.69828L237.437 5.93304L237.395 5.98995C237.154 6.33142 236.92 6.70135 236.685 7.05704C236.43 7.48388 236.196 7.93206 235.976 8.39447V8.43715C235.792 8.8213 235.629 9.21968 235.466 9.62518L235.338 9.98088C235.267 10.1801 235.189 10.3721 235.125 10.5785C235.125 10.6638 235.076 10.7634 235.047 10.8488C234.927 11.2329 234.82 11.6313 234.721 12.0297L234.572 12.5917C234.575 12.6391 234.575 12.6866 234.572 12.734L223.501 0.803877H198.551L197.047 10.799L190.622 3.85576C188.756 1.8354 185.551 0.803877 181.09 0.803877H167.6L167.033 4.55293L163.565 0.803877H154.345L153.161 8.62923L145.941 0.803877H136.381L136.139 2.38317L134.721 0.803877H106.565L105.444 8.24507L98.5507 0.803877H88.9762L88.4089 4.55293L84.9479 0.803877H75.728L74.5436 8.62923L67.345 0.803877H57.7564L56.4514 9.46867L54.2954 7.11395L52.9479 5.69116L50.6358 3.17994C48.6855 1.06709 45.6926 0 41.7067 0C41.1394 0 40.5933 0 40.0543 0.0640256C39.8769 0.0640256 39.7138 0.106709 39.5365 0.128051C39.1819 0.163621 38.8273 0.199191 38.494 0.256102L37.8982 0.37704L37.0046 0.57623L36.4089 0.761193C36.1394 0.839447 35.8699 0.924814 35.6074 1.02441L35.4301 1.08132C35.3025 1.13112 35.189 1.19514 35.0684 1.24494C34.7847 1.36351 34.5082 1.49156 34.2386 1.6291C34.1606 1.6291 34.0755 1.69312 33.9975 1.7358C33.9195 1.77849 33.7351 1.89231 33.6074 1.96345L33.1606 2.22667L32.9621 2.34049C32.7564 2.47566 32.5578 2.62505 32.3521 2.77444L32.1606 2.90961H32.111C31.8486 3.1088 31.6004 3.32222 31.3521 3.53564L31.1748 3.75617C30.9975 3.9269 30.8202 4.09764 30.65 4.27549C30.4798 4.45334 30.4656 4.48179 30.3734 4.58139C30.2812 4.68098 30.2032 4.76635 30.1252 4.86594C30.0672 4.92177 30.0127 4.98117 29.9621 5.04379C29.806 5.23587 29.6571 5.43506 29.5082 5.63425L29.3308 5.8619L29.2883 5.91881C29.0472 6.26028 28.8202 6.63021 28.5791 6.97168C28.3201 7.40021 28.0834 7.84186 27.8699 8.29487V8.33044C27.6925 8.71459 27.5223 9.11298 27.3663 9.51847L27.2386 9.86705L27.0259 10.4504C27.0259 10.5429 26.9833 10.6354 26.955 10.7207C26.8344 11.1049 26.728 11.4961 26.6287 11.8945C26.5791 12.0795 26.5294 12.2573 26.4869 12.4423C26.3521 13.0328 26.2316 13.6375 26.1323 14.2706L21.5082 44.8179C21.423 45.4226 21.3592 46.0059 21.3096 46.5679C21.3096 46.76 21.3096 46.9308 21.3096 47.1157C21.3096 47.4928 21.3096 47.8271 21.3096 48.2255C21.3096 48.4318 21.3096 48.631 21.3096 48.8302C21.3096 49.1503 21.3096 49.4633 21.3663 49.7692C21.423 50.0751 21.416 50.1747 21.4443 50.3668C21.4727 50.5589 21.5365 50.943 21.5933 51.2205C21.5933 51.3201 21.5933 51.4268 21.6429 51.5264C21.6925 51.626 21.7209 51.8109 21.7635 51.9603C21.806 52.1097 21.7635 52.1168 21.8273 52.188C21.9195 52.501 22.0188 52.8069 22.1323 53.0986C22.148 53.1286 22.1622 53.1595 22.1748 53.191C22.2457 53.3618 22.3308 53.5254 22.4089 53.689C22.4869 53.8526 22.5507 54.0163 22.6358 54.1656L22.6996 54.2795L22.8911 54.5854C22.9762 54.7277 23.0543 54.8699 23.1535 55.0051C23.2305 55.123 23.3134 55.237 23.4018 55.3466C23.494 55.4675 23.5862 55.5884 23.6855 55.7023L23.8982 55.937L37.4443 70.5989L38.7918 72.0644L41.1039 74.5614C41.1535 74.6183 41.2103 74.6609 41.2599 74.7107L41.6145 75.0451C41.7706 75.1945 41.9337 75.3297 42.1039 75.4648C42.2741 75.6 42.3663 75.664 42.5082 75.7565C42.65 75.849 42.8628 75.9984 43.0543 76.1122L43.5011 76.3612C43.6996 76.4608 43.9053 76.5604 44.1181 76.6529L44.6004 76.852C44.8273 76.9374 45.0543 77.0086 45.3096 77.0797L45.8273 77.2362C46.0826 77.3026 46.345 77.3595 46.6145 77.4069L47.1323 77.5136L48.0684 77.6275L48.5436 77.6773C49.033 77.6773 49.5294 77.7342 50.0543 77.7342C50.5791 77.7342 51.1677 77.7342 51.6996 77.6702C51.8769 77.6702 52.0472 77.6275 52.2174 77.6061C52.572 77.6061 52.9266 77.5279 53.267 77.471C53.4656 77.471 53.6571 77.3927 53.8557 77.35C54.0543 77.3073 54.4585 77.2291 54.7493 77.1579L55.345 76.973C55.6145 76.8876 55.8911 76.8094 56.1535 76.7098L56.3309 76.6529C56.4585 76.6031 56.572 76.539 56.6926 76.4892C56.9762 76.3683 57.2528 76.2403 57.5294 76.1051C57.6074 76.1051 57.6855 76.0411 57.7635 75.9984C57.8415 75.9557 58.0259 75.8419 58.1535 75.7707C58.2812 75.6996 58.4585 75.6 58.6004 75.5075L58.806 75.3866C59.0046 75.2585 59.2032 75.1091 59.4018 74.9668L59.6074 74.8175H59.6571C59.9195 74.6183 60.1748 74.4048 60.4231 74.1843L60.6145 74.0136L61.1323 73.5014L61.4089 73.1884L61.6642 72.9038C61.7138 72.8469 61.7706 72.79 61.8202 72.726C61.9833 72.5339 62.1323 72.3276 62.2812 72.1284C62.3379 72.0501 62.4018 71.979 62.4514 71.9007L62.494 71.8509C62.7351 71.5095 62.9621 71.1395 63.2032 70.791C63.4514 70.3641 63.6855 69.9231 63.9124 69.4607C64.0188 69.2401 64.1181 69.0054 64.2174 68.7493C65.1252 69.2757 66.0259 69.8092 66.8982 70.3712L68.4727 72.0715L70.7777 74.5756C70.8174 74.614 70.8553 74.6544 70.8911 74.6965L71.2528 75.038C71.416 75.1803 71.5791 75.3225 71.7493 75.4577L72.1535 75.7565C72.3379 75.8774 72.5223 75.9984 72.7138 76.1122C72.9053 76.226 73.0117 76.2829 73.1677 76.3612C73.3238 76.4394 73.572 76.5604 73.7848 76.6529L74.2812 76.8592C74.5011 76.9445 74.7422 77.0228 74.9904 77.0939L75.5152 77.2504C75.7706 77.3145 76.0401 77.3714 76.3096 77.4212C76.5791 77.471 76.6571 77.4994 76.8344 77.5279C77.1465 77.5777 77.4656 77.6132 77.7919 77.6417L78.267 77.6986C78.7564 77.6986 79.267 77.7555 79.7919 77.7555C80.3167 77.7555 80.9195 77.7555 81.4585 77.6844L81.9904 77.6275C82.345 77.5848 82.6996 77.5492 83.0401 77.4923L83.6429 77.3714L84.5436 77.1722L85.1536 76.9872C85.4231 76.9018 85.6997 76.8165 85.9621 76.7169C86.0259 76.7169 86.0897 76.7169 86.1535 76.6529C86.2174 76.5888 86.3876 76.5461 86.5153 76.4892C86.7989 76.3683 87.0826 76.2474 87.3592 76.1051L87.6004 75.9984C87.7351 75.9272 87.8628 75.8419 87.9904 75.7707L88.4514 75.5004L88.6571 75.3795L89.2528 74.9597C89.3209 74.9059 89.3919 74.856 89.4656 74.8103L89.5223 74.7677C89.7871 74.5637 90.0424 74.3503 90.2883 74.1274L90.4727 73.9567C90.6571 73.7859 90.8344 73.6152 91.0046 73.4374C91.1748 73.2595 91.189 73.2239 91.2883 73.1172L91.5294 72.8469L91.6855 72.6762C91.8628 72.4556 92.033 72.228 92.2032 72.0003C92.2458 71.9434 92.2883 71.8936 92.3309 71.8296C92.3947 71.7442 92.4443 71.6517 92.5082 71.5593L97.5153 76.9801H121.714L122.083 74.5044L124.366 76.9801H133.927L136.402 60.5753L139.409 63.8335L139.685 64.0256L148.196 73.1884L149.402 74.5044L149.565 74.6538L149.927 75.0024C150.09 75.1447 150.253 75.287 150.423 75.4221L150.827 75.7209L151.381 76.0766L151.834 76.3256C152.04 76.4323 152.246 76.5248 152.459 76.6173L152.955 76.8236C153.175 76.909 153.416 76.9872 153.664 77.0584L154.189 77.2149C154.444 77.2789 154.714 77.3358 154.983 77.3856C155.253 77.4354 155.331 77.4638 155.508 77.4923C155.813 77.5421 156.139 77.5777 156.459 77.6061L156.934 77.663C157.43 77.663 157.941 77.72 158.466 77.72C159.033 77.72 159.593 77.72 160.132 77.6488L160.657 77.5919C160.976 77.5919 161.302 77.5279 161.607 77.4781H161.721L162.317 77.3571L163.217 77.1579L163.82 76.973C164.097 76.8876 164.373 76.8023 164.636 76.7027L164.82 76.6457C164.948 76.5959 165.061 76.5319 165.189 76.475C165.473 76.3541 165.756 76.2331 166.033 76.0909C166.111 76.0909 166.196 76.0268 166.274 75.9841C166.352 75.9415 166.537 75.8276 166.664 75.7565L167.118 75.4862L167.324 75.3652C167.529 75.2301 167.728 75.0878 167.927 74.9455C167.99 74.8886 168.068 74.8459 168.132 74.7961L168.189 74.7534C168.451 74.5471 168.707 74.3408 168.962 74.1132L169.146 73.9424C169.331 73.7717 169.501 73.601 169.678 73.4231L169.962 73.103L170.203 72.8327C170.253 72.7686 170.31 72.7188 170.359 72.6619C170.537 72.4414 170.707 72.2138 170.877 71.9861L170.983 71.8509C171.047 71.7656 171.097 71.6731 171.161 71.5806L176.168 77.0014H185.721L186.969 68.7208L194.622 77.0014H204.423L204.288 76.5319C204.232 76.3327 204.182 76.1335 204.139 75.9272C204.139 75.849 204.104 75.7636 204.09 75.6854C204.076 75.6071 204.04 75.4008 204.019 75.2585C203.998 75.1162 204.019 75.0878 203.983 75.0095C203.948 74.9313 203.983 74.7036 203.948 74.5471C203.912 74.3906 203.948 74.4048 203.948 74.3337C203.948 74.1132 203.948 73.8926 203.948 73.665C203.948 73.665 203.948 73.5796 203.948 73.5369L207.146 77.0014H232.068L233.395 68.2228L220.189 53.8526L220.565 51.3627H229.572C229.572 51.4197 229.572 51.4837 229.607 51.5406L229.693 51.8323C229.693 51.9248 229.735 52.0172 229.764 52.1026C229.86 52.455 229.976 52.8017 230.111 53.1412C230.161 53.2622 230.224 53.3689 230.274 53.4898C230.381 53.7175 230.48 53.9593 230.593 54.2012V54.2439L230.721 54.4502C230.834 54.6423 230.948 54.8415 231.076 55.0264L231.26 55.2754C231.366 55.4177 231.48 55.5671 231.6 55.7023L231.806 55.937L244.324 69.4535L246.09 71.3672L247.905 73.3306L249.047 74.5685C249.09 74.6112 249.132 74.6396 249.168 74.6823C249.203 74.725 249.395 74.8957 249.508 75.0024C249.622 75.1091 249.834 75.3012 250.005 75.4364C250.175 75.5715 250.267 75.6285 250.402 75.7209C250.537 75.8134 250.764 75.9699 250.955 76.0837L251.395 76.3327L252.019 76.6244C252.176 76.6993 252.337 76.7658 252.501 76.8236C252.721 76.909 252.955 76.9872 253.21 77.0584C253.466 77.1295 253.544 77.1651 253.721 77.2077C253.898 77.2504 254.246 77.3287 254.508 77.3856L255.033 77.4852C255.338 77.535 255.657 77.5706 255.976 77.6061L256.451 77.6559C256.941 77.6559 257.444 77.7128 257.969 77.7128C258.494 77.7128 259.111 77.7128 259.657 77.6417L260.189 77.5848C260.551 77.5421 260.898 77.5065 261.267 77.4496C261.473 77.4141 261.671 77.3643 261.87 77.3216C262.182 77.2575 262.487 77.2006 262.785 77.1224L263.402 76.9374C263.678 76.8449 263.955 76.7596 264.224 76.66L264.416 76.5959C264.544 76.5533 264.657 76.4821 264.785 76.4323C265.068 76.3114 265.359 76.1833 265.636 76.0482L265.884 75.9343C266.019 75.8632 266.139 75.7778 266.274 75.6996C266.409 75.6213 266.586 75.5289 266.735 75.4364C266.884 75.3439 266.877 75.3581 266.941 75.3083C267.146 75.1732 267.352 75.0309 267.551 74.8815L267.756 74.7321H267.813C268.076 74.5258 268.338 74.3124 268.586 74.0847L268.785 73.9069C268.962 73.7361 269.139 73.5654 269.31 73.3876L269.6 73.0603L269.849 72.7829L270.005 72.6121C270.111 72.4841 270.21 72.3489 270.31 72.2138L274.671 76.9374H284.232L285.473 68.671L293.111 76.9374H302.671L303.281 72.8825L307.026 76.9374H316.586L317.196 72.8825L320.941 76.9374H330.494L334.224 52.188H338.586L337.664 58.2775L354.912 76.9374H364.508L366.097 66.4159L375.82 76.9374H400.749L401.139 74.3124L403.565 76.9374H413.125L414.373 68.6568L422.026 76.9374H431.82L431.685 76.4679C431.629 76.2687 431.579 76.0695 431.537 75.8632C431.537 75.785 431.501 75.6996 431.487 75.6213C431.473 75.5431 431.437 75.3368 431.416 75.1945C431.395 75.0522 431.416 75.0238 431.416 74.9455C431.416 74.8673 431.416 74.6396 431.373 74.4902C431.331 74.3408 431.373 74.3479 431.373 74.2697C431.373 74.0492 431.373 73.8286 431.373 73.601C431.416 72.6335 431.558 71.3245 431.799 69.7096L432.841 62.802L445.905 76.9374H454.331L455.175 71.3387L460.352 76.9374H468.359L469.834 72.0217L474.373 76.9374H483.444L483.721 75.1162L485.402 76.9374H494.295L497.395 66.4728L507.061 76.9232H516.629L516.537 68.3864C516.806 68.6852 517.083 68.9769 517.359 69.2757L518.338 70.3357L520.033 72.1711L522.203 74.5187L522.366 74.6752L522.728 75.0166C522.884 75.1589 523.047 75.3012 523.217 75.4364L523.629 75.7352C523.806 75.8561 523.99 75.977 524.182 76.0909C524.373 76.2047 524.48 76.2616 524.636 76.3398C524.792 76.4181 525.047 76.539 525.26 76.6315C525.473 76.724 525.579 76.7738 525.749 76.8378C525.92 76.9018 526.21 77.0014 526.459 77.0726L526.976 77.2291C527.232 77.2931 527.501 77.35 527.771 77.3998C528.04 77.4496 528.118 77.4781 528.303 77.5065C528.607 77.5563 528.927 77.5919 529.253 77.6204L529.728 77.6773C530.217 77.6773 530.728 77.7342 531.26 77.7342C531.792 77.7342 532.381 77.7342 532.927 77.663L533.451 77.6061C533.806 77.5634 534.161 77.5279 534.508 77.471L535.111 77.35L536.012 77.1508L536.615 76.9659C536.891 76.8805 537.161 76.7951 537.43 76.6955L537.615 76.6386C537.742 76.5888 537.856 76.5248 537.976 76.4679C538.267 76.347 538.551 76.226 538.82 76.0837C538.898 76.0837 538.99 76.0197 539.068 75.977C539.146 75.9344 539.324 75.8205 539.459 75.7494L539.912 75.4791L540.118 75.3581C540.324 75.223 540.515 75.0807 540.714 74.9384L540.927 74.789L540.983 74.7463C541.246 74.54 541.501 74.3337 541.749 74.1061L541.941 73.9353C542.118 73.7646 542.295 73.5939 542.466 73.416C542.522 73.3591 542.572 73.2951 542.629 73.231L546.04 76.9232H554.934L558.033 66.4515L567.707 76.9232H577.274V76.3754L577.778 76.9232H604.48L604.863 74.3693L607.217 76.9232H616.771L617.381 72.8611L621.132 76.9232H629.714L631.132 67.3834L639.948 76.9232H649.671L650.281 72.8682L654.026 76.9232H678.976L680.303 68.1446L667.09 53.8526L667.466 51.3627H679.671L680.998 42.5912L670.501 31.2089L670.955 28.2068L686.324 28.2353ZM260.962 34.5525C260.962 34.4671 260.962 34.3817 260.962 34.2893C260.962 34.083 260.962 33.8767 260.962 33.6632C260.962 33.5779 260.962 33.4925 260.962 33.4071C260.962 33.1155 261.012 32.8238 261.054 32.5321C261.097 32.2404 261.146 31.9915 261.203 31.7354L261.246 31.5433C261.303 31.3156 261.359 31.1022 261.423 30.903C261.426 30.8746 261.426 30.846 261.423 30.8177C261.466 30.6754 261.529 30.5473 261.579 30.4193L260.934 34.6876C260.94 34.642 260.95 34.5969 260.962 34.5525V34.5525ZM255.111 45.7072L254.749 45.1878L255.111 45.7072ZM254.402 44.6827L254.076 44.1421C254.182 44.3199 254.288 44.4978 254.409 44.6827H254.402ZM253.87 43.6512C253.756 43.4591 253.657 43.26 253.558 43.0679C253.657 43.26 253.756 43.452 253.87 43.6512ZM253.388 42.7335C253.246 42.4276 253.104 42.1288 252.99 41.8301C253.061 42.1217 253.203 42.4276 253.352 42.7335H253.388ZM238.061 28.4558L238.352 28.8257C238.6 29.1459 238.863 29.4589 239.132 29.779C239.196 29.8573 239.246 29.9284 239.31 29.9995L239.402 30.0991C239.733 30.4928 240.08 30.884 240.444 31.2729L243.99 35.086L244.43 35.6196L244.515 35.7263C244.742 36.0251 244.955 36.3096 245.154 36.5942L245.324 36.8432L245.593 37.2487L245.764 37.519L245.99 37.9103L246.125 38.1521C246.246 38.3798 246.359 38.6074 246.459 38.8208C246.558 39.0343 246.593 39.1623 246.657 39.3331L246.764 39.6176C246.806 39.7457 246.842 39.8737 246.877 40.0018L246.962 40.3006C246.962 40.393 246.962 40.4855 247.019 40.5709C247.076 40.8199 247.118 41.0689 247.154 41.3178C247.154 41.3961 247.154 41.4744 247.189 41.5526C247.224 41.8727 247.246 42.2 247.26 42.5272V42.7264C247.26 43.0062 247.26 43.2908 247.26 43.5801C247.26 43.6726 247.26 43.7722 247.26 43.8646C247.26 44.2203 247.203 44.576 247.146 44.9388C247.09 45.3017 247.04 45.5507 246.976 45.8352C246.976 45.9063 246.941 45.9775 246.927 46.0486C246.863 46.3118 246.799 46.5608 246.721 46.8027C246.72 46.8193 246.72 46.8359 246.721 46.8525C246.629 47.1228 246.529 47.3718 246.423 47.6066L246.338 47.7915L246.203 48.0476C246.162 48.1237 246.117 48.1973 246.068 48.2682V48.2682L239.217 40.8554H232.615L223.6 31.2303L224.054 28.2353H237.877L238.061 28.4558ZM337.182 32.7242L337.856 28.2424H342.217L340.934 36.7791L337.182 32.7242ZM430.154 47.2936H430.196H430.267V47.4999L430.146 47.3718L430.154 47.2936Z" fill="black"/>
<path d="M41.6082 0.66333C45.75 0.66333 48.7713 1.85136 50.5727 4.22031C52.3741 6.58925 52.977 9.96127 52.3245 14.2866L51.4734 19.9777H43.7145L44.6507 13.7174C45.2181 9.99684 43.8919 8.11875 40.7216 8.11875C37.5514 8.11875 35.6649 9.99684 35.1046 13.7174L30.3174 45.4457C29.7571 49.088 31.0833 50.9661 34.2606 50.9661C37.438 50.9661 39.3103 49.1094 39.8635 45.4457L41.1046 37.0939H48.906L47.7216 44.8196C47.0692 49.1449 45.4592 52.5454 42.9273 54.9001C40.3954 57.2548 37.0337 58.4571 32.8919 58.4571C28.75 58.4571 25.7216 57.2691 23.9202 54.9001C22.1188 52.5312 21.516 49.1236 22.1684 44.8196L26.7713 14.2866C27.4238 9.96127 29.0479 6.56791 31.5656 4.20608C34.0833 1.84425 37.4592 0.66333 41.6082 0.66333Z" fill="#FFC451"/>
<path d="M84.1905 1.47461L77.7012 44.4713C77.0274 48.9603 75.382 52.4532 72.8217 54.8364C70.2614 57.2196 66.8572 58.3934 62.6586 58.3934C58.46 58.3934 55.4033 57.1911 53.5735 54.8364C51.7437 52.4817 51.148 48.9603 51.8288 44.4713L58.3111 1.47461H66.5522L59.9636 45.1187C59.6586 47.1391 59.8643 48.6757 60.5593 49.5578C60.9676 50.0503 61.4883 50.4368 62.0772 50.6845C62.6661 50.9321 63.3059 51.0337 63.9423 50.9806C65.3512 51.0279 66.7219 50.5168 67.7579 49.5578C68.7295 48.633 69.382 47.1391 69.687 45.1187L76.2685 1.47461H84.1905Z" fill="#FFC451"/>
<path d="M97.7793 1.47461L90.4318 50.1554H105.07L103.95 57.6108H81.063L89.5311 1.47461H97.7793Z" fill="#FFC451"/>
<path d="M133.927 1.47461L132.806 8.92292H123.509L116.161 57.6108H107.92L115.267 8.92292H105.962L107.083 1.47461H133.927Z" fill="#FFC451"/>
<path d="M162.814 1.47461L156.324 44.4713C155.615 48.9603 153.998 52.4532 151.445 54.8364C148.892 57.2196 145.48 58.3934 141.282 58.3934C137.083 58.3934 134.026 57.1911 132.197 54.8364C130.367 52.4817 129.757 48.9603 130.466 44.4713L136.948 1.47461H145.19L138.601 45.1187C138.296 47.1391 138.502 48.6757 139.197 49.5578C139.605 50.0508 140.125 50.4376 140.714 50.6853C141.303 50.933 141.943 51.0343 142.58 50.9806C143.987 51.0291 145.356 50.5177 146.388 49.5578C147.367 48.633 148.019 47.1391 148.324 45.1187L154.906 1.47461H162.814Z" fill="#FFC451"/>
<path d="M186.034 55.0071C185.995 55.8828 186.081 56.7595 186.289 57.6108H177.984C177.839 56.8489 177.77 56.0744 177.779 55.2988C177.86 53.8442 178.023 52.3954 178.268 50.9593L179.807 40.5516C180.218 37.8554 180.062 36.0057 179.332 34.9102C178.601 33.8146 177.14 33.2455 175.006 33.2455H171.601L167.928 57.6251H159.687L168.155 1.47461H181.013C185.481 1.47461 188.623 2.52036 190.339 4.57629C192.055 6.63223 192.601 9.8833 191.949 14.2015L191.46 17.6944C190.594 23.3856 188.155 27.0777 184.197 28.5859L183.977 28.6713L183.885 29.2973L184.105 29.3684C185.011 29.6159 185.837 30.0956 186.503 30.7604C187.168 31.4252 187.649 32.2522 187.899 33.1602C188.467 35.1165 188.509 37.77 188.013 41.0567L186.509 51.0162C186.226 52.7022 186.084 53.9969 186.034 55.0071ZM182.949 19.48L183.609 15.0978C183.935 12.9636 183.772 11.4057 183.148 10.4311C182.523 9.45647 181.339 8.92292 179.687 8.92292H175.311L172.765 25.8114H176.311C177.93 25.8959 179.522 25.3678 180.772 24.3317C181.864 23.3571 182.601 21.7209 182.899 19.48" fill="#FFC451"/>
<path d="M222.742 1.47461L221.621 8.92292H206.252L203.883 24.595H216.103L214.976 32.0433H202.763L200.032 50.1554H215.401L214.274 57.6108H190.664L199.139 1.47461H222.742Z" fill="#FFC451"/>
<path d="M249.892 0.66333C254.034 0.66333 257.02 1.86559 258.772 4.22031C260.524 6.57503 261.077 10.0964 260.396 14.5925L260.091 16.6128H252.339L252.729 14.0233C253.034 12.003 252.85 10.5019 252.19 9.54866C251.531 8.59539 250.396 8.12587 248.85 8.12587C245.68 8.12587 243.772 10.0609 243.176 13.8882C242.845 15.9031 243.129 17.9713 243.992 19.8212C244.829 21.621 246.552 23.8335 249.091 26.3874C252.275 29.5887 254.396 32.5338 255.382 35.1375C256.395 38.0856 256.64 41.245 256.091 44.3145C255.382 48.8604 253.743 52.3818 251.126 54.8005C248.509 57.2193 245.084 58.4215 240.829 58.4215C236.573 58.4215 233.602 57.2193 231.829 54.8645C230.056 52.5098 229.481 48.9884 230.162 44.4995L230.602 41.5757H238.353L237.814 45.1327C237.233 49.0098 238.595 50.9803 241.878 50.9803C242.59 51.0143 243.301 50.906 243.971 50.6618C244.641 50.4175 245.255 50.0422 245.779 49.5575C246.758 48.6114 247.403 47.0819 247.715 45.0046C248.108 42.8304 247.862 40.5884 247.006 38.5522C246.19 36.7168 244.488 34.4902 241.956 31.9363C238.821 28.735 236.701 25.804 235.658 23.2217C234.602 20.4404 234.315 17.4243 234.829 14.4929C235.495 10.1107 237.119 6.66751 239.68 4.29856C242.24 1.92961 245.694 0.66333 249.892 0.66333Z" fill="#FFC451"/>
<path d="M293.358 1.47461L284.89 57.6108H276.649L280.507 32.0433H270.309L266.45 57.6108H258.202L266.677 1.47461H274.918L271.429 24.595H281.635L285.117 1.47461H293.358Z" fill="#FFC451"/>
<path d="M307.274 1.47461L298.806 57.6108H290.558L299.033 1.47461H307.274Z" fill="#FFC451"/>
<path d="M335.821 1.47461L334.701 8.92292H320.055L317.573 25.4131H329.055L327.935 32.8614H316.445L312.715 57.6108H304.474L312.942 1.47461H335.821Z" fill="#FFC451"/>
<path d="M364.458 1.47461L363.331 8.92292H354.033L346.685 57.6108H338.444L345.792 8.92292H336.487L337.607 1.47461H364.458Z" fill="#FFC451"/>
<path d="M391.397 1.47461L390.277 8.92292H374.901L372.539 24.595H384.752L383.631 32.0433H371.419L368.681 50.1554H384.05L382.929 57.6108H359.319L367.787 1.47461H391.397Z" fill="#FFC451"/>
<path d="M413.446 55.0071C413.392 55.8855 413.464 56.7671 413.659 57.6251H405.326C405.181 56.8631 405.112 56.0886 405.12 55.313C405.205 53.8584 405.371 52.4096 405.616 50.9735L407.184 40.5516C407.588 37.8554 407.432 36.0057 406.709 34.9102C405.985 33.8146 404.517 33.2455 402.375 33.2455H398.971L395.304 57.6251H387.056L395.524 1.47461H408.389C412.858 1.47461 415.992 2.52036 417.716 4.57629C419.439 6.63223 419.971 9.8833 419.319 14.2015L418.794 17.6944C417.928 23.3856 415.489 27.0777 411.538 28.5859L411.319 28.6713L411.219 29.2973L411.446 29.3684C412.351 29.6163 413.176 30.0963 413.841 30.7611C414.505 31.426 414.985 32.2528 415.233 33.1602C415.808 35.1165 415.85 37.77 415.354 41.0567L413.843 51.0162C413.642 52.3387 413.51 53.6708 413.446 55.0071ZM410.326 19.48L410.985 15.0978C411.304 12.9636 411.148 11.4057 410.524 10.4311C409.9 9.45647 408.716 8.92292 407.056 8.92292H402.68L400.134 25.8114H403.68C405.302 25.8949 406.895 25.3671 408.148 24.3317C409.248 23.3571 409.971 21.7209 410.276 19.48" fill="#FFC451"/>
<path d="M474.061 1.47461L465.593 57.6108H457.835L464.324 14.607H463.551L450.586 57.6108H443.714L443.728 14.8844V14.607H442.955L436.466 57.6108H429.359L437.827 1.47461H449.913L449.452 41.8321L449.444 42.1166H450.175L461.976 1.47461H474.061Z" fill="#FFC451"/>
<path d="M498.056 1.47461L498.701 57.6251H490.474L490.552 46.6269H490.219V46.4775H479.85L476.566 57.6251H468.978L486.559 1.47461H498.056ZM481.871 39.4418H490.637L490.914 10.7085H490.204L481.871 39.4418Z" fill="#FFC451"/>
<path d="M522.799 0.66333C526.998 0.66333 530.054 1.86559 531.891 4.22031C533.728 6.57503 534.31 10.0964 533.636 14.5853L532.927 19.1169H525.189L525.962 14.0162C526.551 10.0822 525.196 8.0903 521.92 8.0903C518.643 8.0903 516.679 10.0822 516.083 14.0162L511.395 45.09C510.806 48.9671 512.175 50.9376 515.452 50.9376C518.728 50.9376 520.686 48.9671 521.274 45.09L522.998 33.6436H518.551L519.679 26.1882H531.884L529.125 44.4426C528.416 48.9315 526.813 52.4173 524.253 54.8005C521.693 57.1837 518.281 58.3575 514.09 58.3575C509.898 58.3575 506.827 57.1552 504.998 54.8005C503.168 52.4458 502.579 48.9315 503.253 44.4426L507.757 14.564C508.466 10.0751 510.076 6.58214 512.629 4.19897C515.182 1.81579 518.608 0.66333 522.799 0.66333Z" fill="#FFC451"/>
<path d="M558.712 1.47461L559.358 57.6251H551.131L551.216 46.6269H550.882V46.4775H540.507L537.216 57.6251H529.634L547.216 1.47461H558.712ZM542.521 39.4418H551.28L551.563 10.7085H550.854L542.521 39.4418Z" fill="#FFC451"/>
<path d="M595.146 1.47461L594.004 9.02963L571.139 50.1554H587.799L586.678 57.6108H561.288L562.43 50.0487L585.295 8.92292H569.444L570.565 1.47461H595.146Z" fill="#FFC451"/>
<path d="M607.437 1.47461L598.969 57.6108H590.728L599.203 1.47461H607.437Z" fill="#FFC451"/>
<path d="M640.36 1.47461L631.892 57.6108H623.331L618.913 16.1507H618.168L611.913 57.6108H604.644L613.112 1.47461H623.693L627.19 35.2232L627.211 35.4651H627.963L633.09 1.47461H640.36Z" fill="#FFC451"/>
<path d="M669.636 1.47461L668.515 8.92292H653.146L650.777 24.595H662.997L661.87 32.0433H649.657L646.926 50.1554H662.295L661.168 57.6108H637.558L646.033 1.47461H669.636Z" fill="#FFC451"/>
<path d="M52.0257 20.6307H42.9548L43.9973 13.7302C44.5009 10.4008 43.3945 8.75041 40.6214 8.75041C37.8484 8.75041 36.2597 10.3653 35.7562 13.7302L30.969 45.4584C30.4796 48.7308 31.586 50.3172 34.359 50.3172C37.1321 50.3172 38.7136 48.7308 39.2101 45.4584L40.5647 36.445H49.6144L48.3803 44.8182C47.6711 49.3213 46.0044 52.864 43.3449 55.3468C40.6853 57.8296 37.125 59.1101 32.7917 59.1101C28.4583 59.1101 25.281 57.8153 23.3732 55.3184C21.4654 52.8214 20.8342 49.2928 21.508 44.8182L26.1108 14.2851C26.82 9.78193 28.4867 6.23918 31.1463 3.75641C33.8058 1.27364 37.3661 0.000244141 41.7066 0.000244141C46.047 0.000244141 49.203 1.26653 51.125 3.75641C53.047 6.2463 53.664 9.78193 52.9832 14.2851L52.0257 20.6307ZM40.7207 8.11727C43.891 8.11727 45.2172 9.99535 44.6498 13.7159L43.7136 19.9549H51.4725L52.3236 14.2637C52.9761 9.93132 52.3874 6.54508 50.5718 4.18325C48.7562 1.82142 45.7491 0.626272 41.6073 0.626272C37.4654 0.626272 34.0824 1.84987 31.5647 4.20459C29.047 6.55931 27.4229 9.95978 26.7704 14.2851L22.1675 44.8182C21.5151 49.1506 22.1037 52.5439 23.9193 54.8986C25.7349 57.2533 28.7491 58.4556 32.891 58.4556C37.0328 58.4556 40.4158 57.2676 42.9264 54.8986C45.4371 52.5297 47.0683 49.0865 47.7207 44.8182L48.9051 37.0924H41.1037L39.8626 45.4442C39.3094 49.1079 37.43 50.9646 34.2597 50.9646C31.0895 50.9646 29.7562 49.0865 30.3165 45.4442L35.1037 13.7159C35.664 9.99535 37.5505 8.11727 40.7207 8.11727Z" fill="black"/>
<path d="M75.7146 0.804688H84.9344L78.36 44.4701C77.6507 49.1298 75.9344 52.7721 73.2394 55.2833C70.5444 57.7946 66.9415 59.0822 62.5585 59.0822C58.1756 59.0822 54.9557 57.7946 53.0195 55.2833C51.0834 52.7721 50.4663 49.1298 51.1685 44.4701L57.7571 0.804688H67.3458L60.6224 45.1175C60.3458 46.9671 60.5089 48.3188 61.1117 49.1156C61.4694 49.5344 61.9222 49.8609 62.4319 50.0677C62.9416 50.2744 63.4934 50.3553 64.0408 50.3036C64.6445 50.3298 65.2474 50.2358 65.8146 50.027C66.3819 49.8182 66.9023 49.4988 67.3458 49.0871C68.1827 48.2903 68.7642 46.9529 69.0337 45.0891L75.7146 0.804688ZM77.7004 44.4701L84.1897 1.4734H76.2678L69.6862 45.1175C69.3812 47.1379 68.7288 48.6318 67.7571 49.5566C66.7212 50.5156 65.3504 51.0267 63.9415 50.9794C63.3051 51.0325 62.6654 50.9309 62.0765 50.6833C61.4875 50.4356 60.9669 50.0491 60.5585 49.5566C59.8493 48.6389 59.6578 47.1379 59.9628 45.1175L66.5514 1.4734H58.3103L51.828 44.4701C51.1188 48.959 51.7358 52.452 53.5727 54.8281C55.4096 57.2041 58.4592 58.385 62.6578 58.385C66.8564 58.385 70.2749 57.1828 72.821 54.8281C75.3671 52.4733 77.0266 48.9519 77.7004 44.463" fill="black"/>
<path d="M91.1898 49.4926H105.828L104.502 58.2641H80.3032L88.977 0.804688H98.5515L91.1898 49.4926ZM103.956 57.6096L105.076 50.1542H90.4309L97.7784 1.4734H89.5302L81.0621 57.6239H103.949" fill="black"/>
<path d="M106.532 0.804688H134.724L133.405 9.58331H124.085L116.724 58.2641H107.164L114.511 9.58331H105.206L106.532 0.804688ZM132.809 8.92171L133.929 1.4734H107.064L105.944 8.92171H115.249L107.922 57.6239H116.164L123.511 8.93594H132.809" fill="black"/>
<path d="M154.34 0.804688H163.56L156.971 44.4701C156.262 49.1298 154.553 52.7721 151.858 55.2833C149.163 57.7946 145.567 59.0822 141.177 59.0822C136.787 59.0822 133.574 57.7946 131.638 55.2833C129.702 52.7721 129.085 49.1298 129.787 44.4701L136.375 0.804688H145.928L139.241 45.1175C138.964 46.9671 139.127 48.3188 139.73 49.1156C140.088 49.5344 140.54 49.8609 141.05 50.0677C141.56 50.2744 142.112 50.3553 142.659 50.3036C143.262 50.3304 143.864 50.2367 144.43 50.0279C144.996 49.819 145.515 49.4992 145.957 49.0871C146.801 48.2903 147.375 46.9529 147.652 45.0891L154.34 0.804688ZM156.326 44.4701L162.815 1.4734H154.893L148.311 45.1175C148.006 47.1379 147.354 48.6318 146.375 49.5566C145.343 50.5165 143.974 51.0279 142.567 50.9794C141.93 51.0331 141.29 50.9318 140.701 50.6841C140.112 50.4364 139.592 50.0496 139.184 49.5566C138.475 48.6389 138.283 47.1379 138.588 45.1175L145.177 1.4734H136.936L130.467 44.4701C129.758 48.959 130.375 52.452 132.212 54.8281C134.049 57.2041 137.099 58.385 141.297 58.385C145.496 58.385 148.914 57.1828 151.46 54.8281C154.007 52.4733 155.659 48.9519 156.34 44.463" fill="black"/>
<path d="M187.047 57.8017L187.189 58.2641H177.388L177.345 58.0436C177.161 57.169 177.073 56.2768 177.083 55.383C177.167 53.8996 177.335 52.4223 177.586 50.9581L179.154 40.5504C179.53 38.0462 179.402 36.282 178.764 35.3216C178.125 34.3612 176.842 33.8988 174.905 33.8988H172.161L168.487 58.2641H158.927L167.601 0.804688H181.118C185.764 0.804688 189.047 1.92158 190.877 4.11268C192.707 6.30378 193.281 9.70425 192.608 14.2003L192.076 17.6932C191.218 23.3844 188.813 27.1975 184.927 28.9404C185.787 29.272 186.557 29.8033 187.173 30.4908C187.79 31.1783 188.235 32.0024 188.473 32.8957C189.069 34.9303 189.118 37.6763 188.608 41.0554L187.104 51.015C186.893 52.3037 186.748 53.6026 186.671 54.9063C186.638 55.8856 186.765 56.8638 187.047 57.8017V57.8017ZM177.983 57.6239H186.317C186.109 56.7726 186.023 55.8958 186.062 55.0201C186.111 54.01 186.253 52.7152 186.501 51.0577L188.005 41.0981C188.501 37.8115 188.459 35.158 187.891 33.2016C187.641 32.2937 187.16 31.4667 186.495 30.8019C185.829 30.1371 185.003 29.6574 184.097 29.4099L183.877 29.3388L183.969 28.7127L184.189 28.6274C188.147 27.1192 190.572 23.4555 191.452 17.7359L191.976 14.243C192.629 9.92478 192.09 6.68793 190.366 4.61777C188.643 2.54761 185.508 1.51608 181.04 1.51608H168.154L159.686 57.6239H167.927L171.601 33.2657H175.005C177.132 33.2657 178.601 33.8277 179.331 34.9303C180.062 36.033 180.218 37.8755 179.806 40.5717L178.239 50.9581C177.994 52.3942 177.831 53.843 177.749 55.2976C177.75 56.0789 177.828 56.8582 177.983 57.6239Z" fill="black"/>
<path d="M179.652 8.92383C181.304 8.92383 182.489 9.42892 183.113 10.432C183.737 11.4351 183.9 12.9717 183.574 15.0987L182.95 19.4809C182.616 21.7218 181.879 23.358 180.822 24.3327C179.572 25.3687 177.98 25.8968 176.361 25.8124H172.815L175.361 8.92383H179.652ZM182.24 19.4809L182.9 15.0987C183.198 13.1282 183.063 11.6983 182.517 10.8304C181.971 9.96247 180.978 9.5712 179.531 9.5712H175.857L173.503 25.1436H176.411C177.846 25.2259 179.26 24.7666 180.375 23.856C181.326 23.0095 181.971 21.5298 182.283 19.4667" fill="black"/>
<path d="M222.176 9.58331H206.807L204.644 23.9393H216.857L215.573 32.725H203.318L200.786 49.5068H216.155L214.864 58.2641H189.914L198.552 0.804688H223.474L222.176 9.58331ZM216.105 24.5938H203.885L206.254 8.94305H221.623L222.743 1.49474H199.141L190.665 57.6239H214.275L215.403 50.1684H200.034L202.765 32.0136H214.977L216.105 24.5653" fill="black"/>
<path d="M255.998 34.8157C257.044 37.8654 257.288 41.1338 256.708 44.3057C255.998 49.0223 254.254 52.7002 251.53 55.2399C248.807 57.7795 245.147 59.0814 240.722 59.0814C236.296 59.0814 233.147 57.7938 231.261 55.2754C229.374 52.7571 228.786 49.129 229.495 44.4693L230.034 40.9123H239.105L238.466 45.138C237.942 48.631 239.083 50.3241 241.97 50.3241C242.589 50.353 243.207 50.2584 243.789 50.046C244.371 49.8335 244.905 49.5073 245.36 49.0863C246.204 48.2611 246.778 46.8667 247.069 44.9602C247.447 42.9011 247.223 40.7764 246.424 38.8422C245.63 37.0708 243.97 34.8939 241.459 32.3898C238.275 29.1388 236.119 26.1438 235.076 23.4974C233.978 20.6148 233.682 17.487 234.218 14.4484C234.927 9.89551 236.615 6.31719 239.31 3.77751C242.005 1.23783 245.601 0 249.991 0C254.381 0 257.466 1.2734 259.332 3.79885C261.197 6.32431 261.757 9.95242 261.055 14.6121L260.651 17.294H251.58L252.076 14.0429C252.353 12.1791 252.204 10.8203 251.63 9.99511C251.055 9.16989 250.119 8.77151 248.75 8.77151C245.97 8.77151 244.374 10.4433 243.856 13.8793C243.55 15.7785 243.827 17.7262 244.651 19.4638C245.466 21.2138 247.147 23.3693 249.615 25.8663C252.856 29.1672 255.012 32.1408 255.998 34.8157ZM251.14 54.7774C253.736 52.3587 255.395 48.8373 256.105 44.2915C256.653 41.2219 256.409 38.0626 255.395 35.1145C254.41 32.5108 252.289 29.5656 249.105 26.3643C246.566 23.8104 244.849 21.598 244.005 19.7981C243.16 17.948 242.891 15.8854 243.232 13.8793C243.807 10.052 245.715 8.11702 248.906 8.11702C250.452 8.11702 251.58 8.60077 252.247 9.53981C252.913 10.4789 253.091 11.9941 252.786 14.0145L252.395 16.604H260.147L260.452 14.5836C261.161 10.0876 260.587 6.59464 258.828 4.21146C257.069 1.82829 254.091 0.654484 249.949 0.654484C245.807 0.654484 242.325 1.85674 239.778 4.21146C237.232 6.56618 235.594 10.0236 234.927 14.4058C234.414 17.3372 234.701 20.3533 235.757 23.1346C236.8 25.7169 238.92 28.6479 242.055 31.8492C244.587 34.4031 246.31 36.6297 247.105 38.4651C247.96 40.5013 248.207 42.7433 247.814 44.9175C247.502 46.9948 246.856 48.5243 245.878 49.4704C245.354 49.9551 244.739 50.3304 244.07 50.5747C243.4 50.8189 242.689 50.9272 241.977 50.8932C238.693 50.8932 237.332 48.9227 237.913 45.0456L238.452 41.4886H230.622L230.183 44.4124C229.473 48.9013 230.062 52.3943 231.849 54.7774C233.637 57.1606 236.651 58.3344 240.849 58.3344C245.048 58.3344 248.566 57.1962 251.14 54.7774Z" fill="black"/>
<path d="M284.559 0.804688H294.119L285.445 58.2641H275.892L279.75 32.725H270.892L267.005 58.2641H257.452L266.119 0.804688H275.679L272.19 23.9393H281.069L284.559 0.804688ZM284.892 57.6239L293.36 1.4734H285.126L281.637 24.5938H271.431L274.92 1.4734H266.672L258.204 57.6239H266.452L270.303 32.0136H280.509L276.651 57.6239H284.892Z" fill="black"/>
<path d="M298.473 0.804688H308.033L299.359 58.2641H289.806L298.473 0.804688ZM298.806 57.6239L307.274 1.4734H299.033L290.558 57.6239H298.806Z" fill="black"/>
<path d="M335.26 9.58331H320.615L318.324 24.7431H329.813L328.494 33.5147H316.99L313.267 58.2641H303.714L312.388 0.804688H336.579L335.26 9.58331ZM329.047 25.4119H317.572L320.054 8.92171H334.721L335.842 1.4734H312.941L304.473 57.6239H312.735L316.466 32.8744H327.955L329.047 25.4119Z" fill="black"/>
<path d="M337.057 0.804688H365.22L363.901 9.58331H354.582L347.248 58.2641H337.688L345.035 9.58331H335.73L337.057 0.804688ZM363.298 8.92171L364.425 1.4734H337.61L336.489 8.92171H345.794L338.447 57.6239H346.688L354.035 8.93594H363.333" fill="black"/>
<path d="M390.827 9.58331H375.458L373.295 23.9393H385.508L384.182 32.725H371.969L369.473 49.4926H384.841L383.48 58.2641H358.558L367.224 0.804688H392.168L390.827 9.58331ZM384.749 24.5938H372.536L374.898 8.94305H390.274L391.394 1.49474H367.785L359.316 57.6239H382.948L384.068 50.1684H368.678L371.409 32.0136H383.657L384.777 24.5653" fill="black"/>
<path d="M407.018 8.92383C408.677 8.92383 409.855 9.42892 410.486 10.432C411.117 11.4351 411.266 12.9788 410.947 15.0987L410.287 19.4809C409.947 21.7218 409.224 23.358 408.16 24.3327C406.907 25.368 405.313 25.8958 403.692 25.8124H400.146L402.692 8.92383H407.018ZM409.628 19.4809L410.287 15.0987C410.585 13.1282 410.458 11.6983 409.904 10.8304C409.351 9.96247 408.365 9.5712 406.919 9.5712H403.202L400.855 25.1436H403.755C405.191 25.2259 406.605 24.7666 407.72 23.856C408.67 23.0095 409.316 21.5298 409.628 19.4667" fill="black"/>
<path d="M414.423 57.8017L414.558 58.2641H404.757L404.714 58.0436C404.53 57.1689 404.442 56.2768 404.452 55.383C404.536 53.8996 404.704 52.4223 404.955 50.9581L406.523 40.5504C406.898 38.0462 406.771 36.282 406.133 35.3216C405.494 34.3612 404.203 33.8988 402.274 33.8988H399.53L395.856 58.2641H386.303L395.005 0.804688H408.48C413.133 0.804688 416.416 1.92158 418.246 4.11268C420.076 6.30378 420.65 9.70425 419.969 14.2003L419.445 17.6932C418.579 23.3844 416.175 27.1975 412.289 28.9404C413.148 29.274 413.917 29.8059 414.533 30.4931C415.149 31.1803 415.595 32.0034 415.835 32.8957C416.43 34.9303 416.473 37.6763 415.962 41.0554L414.459 51.015C414.249 52.3038 414.107 53.6026 414.033 54.9063C413.996 55.8868 414.128 56.8662 414.423 57.8017ZM405.324 57.6239H413.657C413.451 56.7722 413.368 55.8955 413.409 55.0201C413.485 53.6927 413.63 52.3702 413.842 51.0577L415.352 41.0981C415.849 37.8115 415.806 35.158 415.232 33.2016C414.983 32.2942 414.503 31.4674 413.839 30.8026C413.175 30.1378 412.35 29.6578 411.445 29.4099L411.218 29.3388L411.317 28.7127L411.537 28.6274C415.487 27.1192 417.92 23.4555 418.792 17.7359L419.317 14.243C419.969 9.92478 419.43 6.68081 417.714 4.61777C415.998 2.55472 412.856 1.51608 408.388 1.51608H395.523L387.055 57.6239H395.303L398.969 33.2799H402.374C404.501 33.2799 405.969 33.8419 406.707 34.9446C407.445 36.0472 407.586 37.8897 407.182 40.5859L405.643 50.9581C405.397 52.3942 405.232 53.843 405.147 55.2976C405.139 56.0732 405.208 56.8477 405.352 57.6096" fill="black"/>
<path d="M461.504 0.804688H474.823L466.149 58.2641H457.078L463.092 18.2552L451.036 58.2641H443.05V57.9867V18.2552L437.036 58.2641H428.603L437.277 0.804688H450.589L450.135 39.9884L461.504 0.804688ZM465.596 57.6239L474.064 1.4734H462.007L450.185 42.1225H449.475V41.8309L449.936 1.4734H437.88L429.362 57.6239H436.454L442.943 14.62H443.717V14.8974V57.6239H450.589L463.553 14.62H464.319L457.837 57.6239H465.596" fill="black"/>
<path d="M490.182 10.7039H490.891L490.615 39.4371H481.87L490.182 10.7039ZM482.721 38.7826H489.976L490.232 12.8025L482.721 38.7826Z" fill="black"/>
<path d="M498.706 0.804688L499.365 58.2641H489.798L489.883 47.145H480.316L477.025 58.2641H468.103L486.096 0.804688H498.706ZM490.55 46.6114L490.472 57.6239H498.699L498.053 1.4734H486.557L468.975 57.6239H476.564L479.855 46.5047H490.252V46.6541H490.585" fill="black"/>
<path d="M533.509 19.8052H524.431L525.303 14.0429C525.842 10.486 524.7 8.77151 521.821 8.77151C518.941 8.77151 517.275 10.4931 516.743 14.0429L512.027 45.1167C511.502 48.6096 512.651 50.3028 515.53 50.3028C518.409 50.3028 520.069 48.6096 520.594 45.1167L522.218 34.3319H517.778L519.119 25.5533H532.636L529.8 44.4693C529.09 49.129 527.374 52.7713 524.679 55.2825C521.984 57.7938 518.395 59.0814 513.998 59.0814C509.601 59.0814 506.402 57.7938 504.459 55.2825C502.516 52.7713 501.906 49.129 502.608 44.4693L507.119 14.5907C507.828 9.93108 509.544 6.28874 512.225 3.77751C514.906 1.26628 518.509 0 522.899 0C527.289 0 530.466 1.2734 532.438 3.79174C534.41 6.31008 534.991 9.95242 534.289 14.6121L533.509 19.8052ZM521.956 8.11702C525.232 8.11702 526.587 10.1089 525.998 14.0429L525.225 19.1436H532.948L533.658 14.6121C534.331 10.1232 533.743 6.6302 531.913 4.24703C530.083 1.86386 527.019 0.690054 522.821 0.690054C518.622 0.690054 515.204 1.89231 512.651 4.24703C510.097 6.60175 508.459 10.1232 507.778 14.6121L503.275 44.4907C502.565 48.9796 503.183 52.4654 505.019 54.8557C506.856 57.246 509.906 58.4127 514.112 58.4127C518.317 58.4127 521.729 57.2104 524.275 54.8557C526.821 52.501 528.473 48.9867 529.147 44.4978L531.885 26.2149H519.679L518.551 33.6703H522.998L521.246 45.1167C520.658 48.9938 518.707 50.9644 515.424 50.9644C512.14 50.9644 510.778 48.9938 511.367 45.1167L516.055 14.0429C516.651 10.1089 518.615 8.11702 521.892 8.11702" fill="black"/>
<path d="M550.847 10.7039H551.556L551.273 39.4371H542.521L550.847 10.7039ZM543.386 38.7826H550.642L550.89 12.8025L543.386 38.7826Z" fill="black"/>
<path d="M559.373 0.804688L560.033 58.2641H550.466L550.551 47.145H540.983L537.685 58.2641H528.771L546.778 0.804688H559.373ZM551.217 46.6114L551.132 57.6239H559.359L558.714 1.48763H547.224L529.636 57.6239H537.217L540.508 46.5047H550.912V46.6541H551.246" fill="black"/>
<path d="M594.615 9.24895L572.218 49.4926H588.53L587.204 58.2641H560.53L561.821 49.8625L584.218 9.58331H568.679L570.005 0.804688H595.906L594.615 9.24895ZM587.8 50.1542H571.14L594.005 9.02842L595.147 1.4734H570.566L569.474 8.92171H585.325L562.431 50.0475L561.289 57.6239H586.679L587.8 50.1684" fill="black"/>
<path d="M598.643 0.804688H608.196L599.53 58.2641H589.977L598.643 0.804688ZM598.97 57.6239L607.438 1.4734H599.204L590.75 57.6239H598.991" fill="black"/>
<path d="M632.529 0.804688H641.103L632.451 58.2641H622.728L618.472 18.426L612.458 58.2641H603.891L612.557 0.804688H624.302V1.06079L627.628 33.1518L632.529 0.804688ZM631.884 57.6239L640.394 1.4734H633.089L627.962 35.4639H627.21V35.222L623.692 1.4734H613.11L604.642 57.6239H611.912L618.167 16.1637H618.912L623.33 57.6239H631.884Z" fill="black"/>
<path d="M669.077 9.58331H653.708L651.581 23.9393H663.786L662.432 32.725H650.219L647.687 49.5068H663.091L661.737 58.2641H636.808L645.474 0.804688H670.403L669.077 9.58331ZM662.999 24.5938H650.779L653.148 8.94305H668.517L669.637 1.49474H646.07L637.559 57.6239H661.169L662.297 50.1684H646.928L649.659 32.0136H661.871L662.999 24.5653" fill="black"/>
<defs>
<filter id="filter0_d" x="0.788372" y="113.847" width="669.711" height="151.643" filterUnits="userSpaceOnUse" color-interpolation-filters="sRGB">
<feFlood flood-opacity="0" result="BackgroundImageFix"/>
<feColorMatrix in="SourceAlpha" type="matrix" values="0 0 0 0 0 0 0 0 0 0 0 0 0 0 0 0 0 0 127 0"/>
<feOffset dy="2.87716"/>
<feGaussianBlur stdDeviation="31.5697"/>
<feColorMatrix type="matrix" values="0 0 0 0 0 0 0 0 0 0 0 0 0 0 0 0 0 0 0.5 0"/>
<feBlend mode="normal" in2="BackgroundImageFix" result="effect1_dropShadow"/>
<feBlend mode="normal" in="SourceGraphic" in2="effect1_dropShadow" result="shape"/>
</filter>
<filter id="filter1_d" x="81.8807" y="77.98" width="548.92" height="148.923" filterUnits="userSpaceOnUse" color-interpolation-filters="sRGB">
<feFlood flood-opacity="0" result="BackgroundImageFix"/>
<feColorMatrix in="SourceAlpha" type="matrix" values="0 0 0 0 0 0 0 0 0 0 0 0 0 0 0 0 0 0 127 0"/>
<feOffset dy="2.87716"/>
<feGaussianBlur stdDeviation="31.5697"/>
<feColorMatrix type="matrix" values="0 0 0 0 0 0 0 0 0 0 0 0 0 0 0 0 0 0 0.5 0"/>
<feBlend mode="normal" in2="BackgroundImageFix" result="effect1_dropShadow"/>
<feBlend mode="normal" in="SourceGraphic" in2="effect1_dropShadow" result="shape"/>
</filter>
</defs>
</svg>
