<svg width="528" height="163" viewBox="0 0 528 163" fill="none" xmlns="http://www.w3.org/2000/svg">
<g filter="url(#filter0_d)">
<path fill-rule="evenodd" clip-rule="evenodd" d="M133.216 112.82C134.337 111.679 135.892 111.089 137.627 111.089C139.357 111.089 140.913 111.679 142.036 112.82C143.161 113.961 143.829 115.629 143.829 117.739C143.829 119.848 143.161 121.516 142.036 122.657C140.913 123.798 139.357 124.388 137.627 124.388C135.891 124.388 134.337 123.793 133.216 122.65C132.095 121.506 131.431 119.839 131.431 117.739C131.431 115.629 132.095 113.962 133.216 112.82ZM133.617 113.214C132.617 114.233 131.994 115.749 131.994 117.739C131.994 119.718 132.617 121.235 133.618 122.256C134.619 123.277 136.022 123.826 137.627 123.826C139.227 123.826 140.632 123.282 141.636 122.262C142.639 121.244 143.267 119.727 143.267 117.739C143.267 115.75 142.639 114.233 141.636 113.215C140.632 112.196 139.227 111.651 137.627 111.651C136.021 111.651 134.618 112.196 133.617 113.214ZM150.325 112.821C151.441 111.68 152.987 111.089 154.705 111.089C156.256 111.089 157.624 111.528 158.649 112.371C159.676 113.217 160.336 114.453 160.494 116.003L160.525 116.313H156.938L156.908 116.065C156.84 115.505 156.608 115.064 156.256 114.762C155.904 114.46 155.41 114.278 154.784 114.278C153.957 114.278 153.317 114.588 152.877 115.153C152.429 115.727 152.165 116.594 152.165 117.739C152.165 118.933 152.436 119.797 152.882 120.358C153.321 120.909 153.956 121.199 154.766 121.199C155.372 121.199 155.86 121.036 156.216 120.756C156.57 120.477 156.815 120.066 156.91 119.53L156.952 119.296L160.525 119.318L160.494 119.626C160.256 121.961 158.257 124.388 154.705 124.388C152.957 124.388 151.411 123.793 150.302 122.649C149.193 121.505 148.546 119.837 148.546 117.739C148.546 115.629 149.209 113.962 150.325 112.821ZM150.727 113.214C149.731 114.232 149.108 115.749 149.108 117.739C149.108 119.72 149.717 121.237 150.706 122.257C151.694 123.277 153.087 123.826 154.705 123.826C157.796 123.826 159.545 121.841 159.891 119.876L157.413 119.861C157.27 120.413 156.981 120.869 156.563 121.198C156.09 121.57 155.473 121.761 154.766 121.761C153.808 121.761 153.002 121.411 152.442 120.708C151.889 120.014 151.603 119.008 151.603 117.739C151.603 116.516 151.884 115.512 152.433 114.807C152.99 114.093 153.8 113.716 154.784 113.716C155.52 113.716 156.152 113.931 156.623 114.335C157.036 114.69 157.309 115.177 157.426 115.75H159.895C159.7 114.483 159.127 113.494 158.291 112.805C157.386 112.06 156.151 111.651 154.705 111.651C153.118 111.651 151.724 112.195 150.727 113.214ZM231.59 112.845C232.716 111.696 234.273 111.089 235.996 111.089C238.978 111.089 241.328 112.917 241.651 115.555L241.69 115.871H238.123L238.067 115.661C237.949 115.218 237.714 114.878 237.386 114.647C237.055 114.414 236.61 114.278 236.057 114.278C235.235 114.278 234.586 114.585 234.137 115.147C233.681 115.717 233.408 116.578 233.408 117.72C233.408 118.876 233.668 119.746 234.116 120.322C234.557 120.887 235.204 121.199 236.057 121.199C236.822 121.199 237.383 121.003 237.751 120.688C238.053 120.43 238.248 120.073 238.313 119.624H235.878V116.876H241.786V118.798C241.786 120.53 241.191 121.935 240.158 122.906C239.127 123.875 237.685 124.388 236.032 124.388C234.189 124.388 232.621 123.757 231.515 122.597C230.409 121.438 229.788 119.776 229.788 117.757C229.788 115.667 230.463 113.995 231.59 112.845ZM231.992 113.239C230.983 114.268 230.351 115.791 230.351 117.757C230.351 119.66 230.934 121.174 231.922 122.209C232.908 123.243 234.322 123.826 236.032 123.826C237.57 123.826 238.865 123.35 239.773 122.496C240.678 121.645 241.224 120.395 241.224 118.798V117.439H236.441V119.062H238.905L238.899 119.349C238.882 120.07 238.62 120.685 238.117 121.115C237.618 121.542 236.913 121.761 236.057 121.761C235.051 121.761 234.232 121.385 233.673 120.667C233.121 119.959 232.845 118.95 232.845 117.72C232.845 116.496 233.138 115.496 233.698 114.795C234.264 114.088 235.08 113.716 236.057 113.716C236.702 113.716 237.265 113.874 237.709 114.186C238.098 114.46 238.382 114.842 238.546 115.308H241.042C240.619 113.171 238.626 111.651 235.996 111.651C234.408 111.651 233.001 112.209 231.992 113.239ZM297.078 112.209C297.999 111.488 299.283 111.089 300.748 111.089C302.238 111.089 303.488 111.494 304.375 112.227C305.266 112.963 305.769 114.014 305.782 115.254L305.785 115.538H302.373L302.351 115.281C302.317 114.906 302.169 114.631 301.924 114.443C301.672 114.25 301.287 114.127 300.742 114.127C300.196 114.127 299.824 114.243 299.597 114.405C299.379 114.56 299.276 114.767 299.274 115.017L299.274 115.024C299.265 115.277 299.373 115.472 299.628 115.646C299.898 115.831 300.314 115.976 300.868 116.095L300.871 116.096L301.935 116.338C301.935 116.338 301.935 116.338 301.935 116.338C303.186 116.614 304.187 117.068 304.88 117.734C305.58 118.408 305.945 119.28 305.951 120.34L305.951 120.343C305.945 121.601 305.449 122.624 304.53 123.325C303.62 124.019 302.324 124.376 300.742 124.376C299.147 124.376 297.793 124.022 296.827 123.26C295.852 122.49 295.31 121.333 295.291 119.812L295.287 119.528H298.708L298.722 119.793C298.752 120.318 298.954 120.691 299.274 120.939C299.601 121.192 300.083 121.338 300.706 121.338C301.271 121.338 301.688 121.214 301.956 121.029C302.215 120.852 302.344 120.614 302.349 120.336C302.344 120.095 302.245 119.91 301.987 119.736C301.708 119.548 301.257 119.385 300.582 119.229L300.581 119.229L299.287 118.927C299.287 118.927 299.287 118.927 299.287 118.927C298.19 118.676 297.27 118.272 296.623 117.663C295.967 117.047 295.609 116.236 295.612 115.221C295.602 113.977 296.151 112.933 297.078 112.209ZM297.424 112.652C296.628 113.275 296.166 114.157 296.174 115.218L296.174 115.221C296.171 116.088 296.47 116.748 297.008 117.254C297.555 117.768 298.367 118.139 299.412 118.378L299.414 118.379L300.708 118.681C301.395 118.84 301.931 119.02 302.301 119.269C302.691 119.532 302.904 119.878 302.912 120.331L302.912 120.335L302.912 120.34C302.904 120.816 302.673 121.219 302.275 121.493C301.885 121.761 301.345 121.9 300.706 121.9C300.003 121.9 299.386 121.737 298.929 121.384C298.529 121.073 298.275 120.634 298.189 120.09H295.864C295.94 121.322 296.412 122.216 297.176 122.819C298.007 123.475 299.22 123.814 300.742 123.814C302.248 123.814 303.409 123.472 304.189 122.878C304.958 122.291 305.382 121.438 305.389 120.342C305.383 119.423 305.072 118.7 304.49 118.139C303.899 117.571 303.008 117.15 301.814 116.887L301.812 116.887L300.749 116.645C300.749 116.645 300.748 116.645 300.748 116.645C300.176 116.522 299.673 116.359 299.31 116.111C298.933 115.852 298.696 115.492 298.711 115.008C298.716 114.581 298.906 114.206 299.271 113.947C299.626 113.694 300.126 113.565 300.742 113.565C301.365 113.565 301.885 113.705 302.266 113.996C302.587 114.242 302.787 114.578 302.872 114.975H305.206C305.128 114.023 304.708 113.232 304.017 112.66C303.253 112.03 302.14 111.651 300.748 111.651C299.38 111.651 298.227 112.024 297.424 112.652ZM353.831 112.209C354.753 111.488 356.036 111.089 357.501 111.089C358.991 111.089 360.242 111.494 361.128 112.227C362.019 112.963 362.522 114.014 362.535 115.254L362.538 115.538H359.127L359.104 115.281C359.071 114.906 358.922 114.631 358.677 114.443C358.426 114.25 358.041 114.127 357.495 114.127C356.949 114.127 356.577 114.243 356.35 114.405C356.132 114.56 356.029 114.767 356.027 115.017L356.027 115.024C356.018 115.277 356.127 115.472 356.381 115.646C356.651 115.831 357.067 115.976 357.621 116.095L357.624 116.096L358.688 116.338C358.688 116.338 358.688 116.338 358.689 116.338C359.94 116.614 360.94 117.068 361.633 117.734C362.333 118.408 362.698 119.28 362.704 120.34L362.704 120.343C362.698 121.601 362.202 122.624 361.283 123.325C360.373 124.019 359.077 124.376 357.495 124.376C355.9 124.376 354.546 124.022 353.58 123.26C352.605 122.49 352.063 121.333 352.044 119.812L352.04 119.528H355.461L355.476 119.793C355.505 120.318 355.707 120.691 356.027 120.939C356.354 121.192 356.836 121.338 357.459 121.338C358.024 121.338 358.441 121.214 358.709 121.029C358.968 120.852 359.097 120.614 359.103 120.336C359.097 120.095 358.998 119.91 358.74 119.736C358.461 119.548 358.011 119.385 357.335 119.229L357.334 119.229L356.04 118.927C356.04 118.927 356.04 118.927 356.04 118.927C354.943 118.676 354.023 118.272 353.376 117.663C352.72 117.047 352.362 116.236 352.365 115.221C352.355 113.977 352.905 112.933 353.831 112.209ZM354.178 112.652C353.381 113.275 352.919 114.157 352.927 115.218L352.927 115.221C352.925 116.088 353.223 116.748 353.761 117.254C354.308 117.768 355.12 118.139 356.166 118.378L356.167 118.379L357.462 118.681C358.148 118.84 358.685 119.02 359.055 119.269C359.444 119.532 359.657 119.878 359.665 120.331L359.665 120.335L359.665 120.34C359.658 120.816 359.426 121.219 359.028 121.493C358.638 121.761 358.098 121.9 357.459 121.9C356.756 121.9 356.139 121.737 355.683 121.384C355.282 121.073 355.028 120.634 354.942 120.09H352.617C352.693 121.322 353.166 122.216 353.929 122.819C354.76 123.475 355.973 123.814 357.495 123.814C359.001 123.814 360.162 123.472 360.942 122.878C361.712 122.291 362.136 121.438 362.142 120.342C362.136 119.423 361.826 118.7 361.243 118.139C360.652 117.571 359.761 117.15 358.567 116.887L358.565 116.887L357.503 116.645C357.502 116.645 357.501 116.645 357.501 116.645C356.929 116.522 356.426 116.359 356.064 116.111C355.686 115.852 355.45 115.492 355.464 115.008C355.469 114.581 355.66 114.206 356.024 113.947C356.379 113.694 356.879 113.565 357.495 113.565C358.118 113.565 358.638 113.705 359.019 113.996C359.34 114.242 359.54 114.578 359.626 114.975H361.959C361.881 114.023 361.461 113.232 360.77 112.66C360.007 112.03 358.893 111.651 357.501 111.651C356.133 111.651 354.98 112.024 354.178 112.652ZM368.969 112.82C370.09 111.679 371.645 111.089 373.381 111.089C375.11 111.089 376.666 111.679 377.79 112.82C378.914 113.961 379.582 115.629 379.582 117.739C379.582 119.861 378.903 121.534 377.769 122.678L379.807 125.188H376.373L375.449 124.078C374.803 124.284 374.108 124.388 373.381 124.388C371.644 124.388 370.09 123.793 368.969 122.65C367.848 121.506 367.185 119.839 367.185 117.739C367.185 115.629 367.848 113.962 368.969 112.82ZM369.371 113.214C368.37 114.233 367.747 115.749 367.747 117.739C367.747 119.718 368.37 121.235 369.371 122.256C370.372 123.277 371.775 123.826 373.381 123.826C374.12 123.826 374.814 123.71 375.448 123.485L375.633 123.419L376.636 124.625H378.626L377.003 122.626L377.198 122.447C378.311 121.425 379.02 119.846 379.02 117.739C379.02 115.75 378.393 114.233 377.389 113.215C376.385 112.196 374.981 111.651 373.381 111.651C371.774 111.651 370.372 112.196 369.371 113.214ZM394.807 112.82C395.928 111.679 397.483 111.089 399.218 111.089C400.948 111.089 402.504 111.679 403.628 112.82C404.752 113.961 405.42 115.629 405.42 117.739C405.42 119.848 404.752 121.516 403.628 122.657C402.504 123.798 400.948 124.388 399.218 124.388C397.482 124.388 395.928 123.793 394.807 122.65C393.686 121.506 393.023 119.839 393.023 117.739C393.023 115.629 393.686 113.962 394.807 112.82ZM395.209 113.214C394.208 114.233 393.585 115.749 393.585 117.739C393.585 119.718 394.208 121.235 395.209 122.256C396.21 123.277 397.613 123.826 399.218 123.826C400.818 123.826 402.223 123.282 403.227 122.262C404.231 121.244 404.858 119.727 404.858 117.739C404.858 115.75 404.231 114.233 403.227 113.215C402.223 112.196 400.818 111.651 399.218 111.651C397.612 111.651 396.209 112.196 395.209 113.214ZM99.9365 111.258H103.847L105.56 118.698L107.516 111.258H110.65L112.607 118.715L114.326 111.258H118.23L114.464 124.219H111.156L109.083 117.243L107.011 124.219H103.708L99.9365 111.258ZM100.686 111.821L104.13 123.656H106.591L108.825 116.138H109.342L111.575 123.656H114.042L117.481 111.821H114.774L112.897 119.963H112.353L110.216 111.821H107.95L105.813 119.945H105.27L103.399 111.821H100.686ZM118.812 111.258H122.371V116.234H126.694V111.258H130.247V124.219H126.694V119.237H122.371V124.219H118.812V111.258ZM119.375 111.821V123.656H121.809V118.674H127.257V123.656H129.685V111.821H127.257V116.797H121.809V111.821H119.375ZM161.648 111.258H165.207V116.234H169.53V111.258H173.083V124.219H169.53V119.237H165.207V124.219H161.648V111.258ZM162.21 111.821V123.656H164.644V118.674H170.092V123.656H172.52V111.821H170.092V116.797H164.644V111.821H162.21ZM178.124 111.258H182.517L186.89 124.219H183.071L182.254 121.616H178.387L177.57 124.219H173.751L178.124 111.258ZM178.528 111.821L174.534 123.656H177.157L177.974 121.053H182.667L183.484 123.656H186.107L182.113 111.821H178.528ZM187.552 111.258H191.111V121.223H196.269V124.219H187.552V111.258ZM188.114 111.821V123.656H195.707V121.785H190.549V111.821H188.114ZM197.258 111.258H200.817V121.223H205.975V124.219H197.258V111.258ZM197.82 111.821V123.656H205.412V121.785H200.254V111.821H197.82ZM206.964 111.258H216.171V114.254H210.523V116.234H215.729V119.237H210.523V121.223H216.171V124.219H206.964V111.258ZM207.526 111.821V123.656H215.609V121.785H209.96V118.674H215.167V116.797H209.96V113.692H215.609V111.821H207.526ZM217.485 111.258H220.494L225.046 117.923V111.258H228.6V124.219H225.628L221.044 117.571V124.219H217.485V111.258ZM218.048 111.821V123.656H220.482V116.501H220.99L225.923 123.656H228.037V111.821H225.609V118.964H225.076L220.197 111.821H218.048ZM242.99 111.258H252.197V114.254H246.549V116.234H251.756V119.237H246.549V121.223H252.197V124.219H242.99V111.258ZM243.553 111.821V123.656H251.635V121.785H245.987V118.674H251.193V116.797H245.987V113.692H251.635V111.821H243.553ZM256.769 111.258H267.81V114.254H264.051V124.219H260.534V114.254H256.769V111.258ZM257.331 111.821V113.692H261.097V123.656H263.488V113.692H267.248V111.821H257.331ZM268.711 111.258H272.271V116.234H276.593V111.258H280.147V124.219H276.593V119.237H272.271V124.219H268.711V111.258ZM269.274 111.821V123.656H271.708V118.674H277.156V123.656H279.584V111.821H277.156V116.797H271.708V111.821H269.274ZM281.464 111.258H290.671V114.254H285.023V116.234H290.229V119.237H285.023V121.223H290.671V124.219H281.464V111.258ZM282.026 111.821V123.656H290.109V121.785H284.46V118.674H289.667V116.797H284.46V113.692H290.109V111.821H282.026ZM306.496 111.258H317.538V114.254H313.779V124.219H310.262V114.254H306.496V111.258ZM307.059 111.821V113.692H310.824V123.656H313.216V113.692H316.976V111.821H307.059ZM320.615 111.258H325.008L329.381 124.219H325.562L324.745 121.616H320.878L320.06 124.219H316.242L320.615 111.258ZM321.018 111.821L317.025 123.656H319.647L320.465 121.053H325.158L325.975 123.656H328.598L324.604 111.821H321.018ZM328.089 111.258H339.131V114.254H335.371V124.219H331.854V114.254H328.089V111.258ZM328.651 111.821V113.692H332.417V123.656H334.809V113.692H338.568V111.821H328.651ZM340.032 111.258H343.591V119.615C343.591 120.092 343.781 120.471 344.109 120.737C344.442 121.007 344.937 121.174 345.562 121.174C346.192 121.174 346.693 121.007 347.029 120.736C347.36 120.47 347.551 120.091 347.551 119.615V111.258H351.086V119.73C351.086 121.218 350.521 122.393 349.528 123.19C348.543 123.98 347.163 124.376 345.562 124.376C343.948 124.376 342.567 123.98 341.583 123.19C340.591 122.393 340.032 121.218 340.032 119.73V111.258ZM340.594 111.821V119.73C340.594 121.064 341.088 122.071 341.935 122.751C342.79 123.438 344.033 123.814 345.562 123.814C347.078 123.814 348.32 123.438 349.176 122.751C350.025 122.071 350.523 121.063 350.523 119.73V111.821H348.113V119.615C348.113 120.259 347.847 120.8 347.382 121.175C346.922 121.544 346.287 121.737 345.562 121.737C344.842 121.737 344.211 121.544 343.755 121.174C343.292 120.799 343.028 120.258 343.028 119.615V111.821H340.594ZM380.786 111.258H384.345V119.615C384.345 120.092 384.535 120.471 384.863 120.737C385.197 121.007 385.692 121.174 386.316 121.174C386.947 121.174 387.447 121.007 387.783 120.736C388.114 120.47 388.305 120.091 388.305 119.615V111.258H391.84V119.73C391.84 121.218 391.276 122.393 390.283 123.19C389.297 123.98 387.918 124.376 386.316 124.376C384.703 124.376 383.321 123.98 382.337 123.19C381.345 122.393 380.786 121.218 380.786 119.73V111.258ZM381.349 111.821V119.73C381.349 121.064 381.843 122.071 382.69 122.751C383.544 123.438 384.787 123.814 386.316 123.814C387.832 123.814 389.074 123.438 389.931 122.751C390.779 122.071 391.277 121.063 391.277 119.73V111.821H388.868V119.615C388.868 120.259 388.601 120.8 388.136 121.175C387.676 121.544 387.041 121.737 386.316 121.737C385.596 121.737 384.966 121.544 384.509 121.174C384.047 120.799 383.783 120.258 383.783 119.615V111.821H381.349ZM135.751 115.13C135.312 115.695 135.051 116.561 135.051 117.739C135.051 118.916 135.312 119.782 135.751 120.347C136.182 120.902 136.81 121.199 137.627 121.199C138.447 121.199 139.075 120.902 139.506 120.347C139.944 119.782 140.203 118.916 140.203 117.739C140.203 116.561 139.944 115.695 139.506 115.13C139.075 114.575 138.447 114.278 137.627 114.278C136.81 114.278 136.182 114.575 135.751 115.13ZM135.307 114.785C135.857 114.076 136.658 113.716 137.627 113.716C138.599 113.716 139.4 114.076 139.95 114.785C140.492 115.484 140.766 116.489 140.766 117.739C140.766 118.988 140.492 119.993 139.95 120.692C139.4 121.401 138.599 121.761 137.627 121.761C136.658 121.761 135.857 121.401 135.307 120.692C134.764 119.994 134.489 118.989 134.489 117.739C134.489 116.488 134.764 115.483 135.307 114.785ZM371.504 115.13C371.065 115.695 370.804 116.561 370.804 117.739C370.804 118.916 371.065 119.782 371.504 120.347C371.919 120.88 372.514 121.175 373.285 121.197L371.774 119.201H374.898L375.499 119.969C375.792 119.422 375.957 118.68 375.957 117.739C375.957 116.561 375.698 115.695 375.259 115.13C374.828 114.575 374.201 114.278 373.381 114.278C372.564 114.278 371.936 114.575 371.504 115.13ZM371.06 114.785C371.611 114.076 372.412 113.716 373.381 113.716C374.352 113.716 375.153 114.076 375.703 114.785C376.246 115.484 376.519 116.489 376.519 117.739C376.519 118.948 376.264 119.929 375.75 120.624L375.53 120.921L374.624 119.763H372.905L374.347 121.668L373.863 121.729C373.71 121.748 373.547 121.761 373.381 121.761C372.412 121.761 371.611 121.401 371.06 120.692C370.517 119.994 370.242 118.989 370.242 117.739C370.242 116.488 370.517 115.483 371.06 114.785ZM397.342 115.13C396.903 115.695 396.642 116.561 396.642 117.739C396.642 118.916 396.903 119.782 397.342 120.347C397.774 120.902 398.401 121.199 399.218 121.199C400.039 121.199 400.666 120.902 401.097 120.347C401.535 119.782 401.795 118.916 401.795 117.739C401.795 116.561 401.535 115.695 401.097 115.13C400.666 114.575 400.039 114.278 399.218 114.278C398.401 114.278 397.774 114.575 397.342 115.13ZM396.898 114.785C397.449 114.076 398.249 113.716 399.218 113.716C400.19 113.716 400.991 114.076 401.541 114.785C402.083 115.484 402.357 116.489 402.357 117.739C402.357 118.988 402.083 119.993 401.541 120.692C400.991 121.401 400.19 121.761 399.218 121.761C398.249 121.761 397.449 121.401 396.898 120.692C396.355 119.994 396.08 118.989 396.08 117.739C396.08 116.488 396.355 115.483 396.898 114.785ZM180.062 114.382H180.572L182.129 119.34H178.512L180.062 114.382ZM180.318 115.449L179.277 118.777H181.363L180.318 115.449ZM322.553 114.382H323.063L324.62 119.34H321.003L322.553 114.382ZM322.809 115.449L321.768 118.777H323.854L322.809 115.449Z" fill="white"/>
</g>
<g filter="url(#filter1_d)">
<path d="M146.788 88.523V100.921H149.706V93.2632H149.809L152.787 100.843H154.652L157.631 93.3056H157.733V100.921H160.651V88.523H156.94L153.792 96.1993H153.647L150.499 88.523H146.788Z" fill="white"/>
<path d="M170.039 88.523V96.5989C170.039 97.7188 169.125 98.4392 167.769 98.4392C166.425 98.4392 165.517 97.7188 165.517 96.5989V88.523H162.521V96.7139C162.521 99.535 164.627 101.079 167.769 101.079C170.887 101.079 173.012 99.535 173.012 96.7139V88.523H170.039Z" fill="white"/>
<path d="M174.89 100.921H183.045V98.4877H177.887V88.523H174.89V100.921Z" fill="white"/>
<path d="M182.675 90.9567H186.441V100.921H189.395V90.9567H193.154V88.523H182.675V90.9567Z" fill="white"/>
<path d="M197.615 88.523H194.618V100.921H197.615V88.523Z" fill="white"/>
<path d="M199.496 100.921H202.493V95.939H207.42V93.4993H202.493V90.9567H207.959V88.523H199.496V100.921Z" fill="white"/>
<path d="M210.602 100.921L211.419 98.3181H215.699L216.516 100.921H219.737L215.554 88.523H211.564L207.381 100.921H210.602ZM212.133 96.0419L213.508 91.6468H213.604L214.985 96.0419H212.133Z" fill="white"/>
<path d="M231.743 93.015C231.441 90.0486 229.231 88.3535 226.234 88.3535C222.929 88.3535 220.356 90.6237 220.356 94.7222C220.356 98.8025 222.868 101.091 226.234 101.091C229.636 101.091 231.519 98.7782 231.743 96.5807L228.716 96.5625C228.504 97.7551 227.608 98.4634 226.295 98.4634C224.527 98.4634 223.413 97.1861 223.413 94.7222C223.413 92.3551 224.503 90.9809 226.313 90.9809C227.675 90.9809 228.565 91.7739 228.716 93.015H231.743Z" fill="white"/>
<path d="M233.052 90.9567H236.818V100.921H239.772V90.9567H243.532V88.523H233.052V90.9567Z" fill="white"/>
<path d="M244.995 100.921H253.64V98.4877H247.992V95.939H253.198V93.4993H247.992V90.9567H253.64V88.523H244.995V100.921Z" fill="white"/>
<path d="M260.099 100.921C263.877 100.921 266.22 98.5906 266.22 94.7161C266.22 90.8477 263.877 88.523 260.093 88.523H255.517V100.921H260.099ZM258.513 98.3666V91.0777H259.942C262.073 91.0777 263.217 92.0464 263.217 94.7161C263.217 97.398 262.073 98.3666 259.984 98.3666H258.513Z" fill="white"/>
<path d="M271.632 88.523V100.921H274.55V93.2632H274.653L277.631 100.843H279.496L282.474 93.3056H282.577V100.921H285.495V88.523H281.784L278.636 96.1993H278.491L275.343 88.523H271.632Z" fill="white"/>
<path d="M290.361 88.523H287.364V100.921H290.361V88.523Z" fill="white"/>
<path d="M292.242 100.921H300.397V98.4877H295.239V88.523H292.242V100.921Z" fill="white"/>
<path d="M301.948 100.921H310.103V98.4877H304.945V88.523H301.948V100.921Z" fill="white"/>
<path d="M311.654 100.921H320.299V98.4877H314.651V95.939H319.857V93.4993H314.651V90.9567H320.299V88.523H311.654V100.921Z" fill="white"/>
<path d="M332.727 88.523H329.737V95.6666H329.634L324.754 88.523H322.176V100.921H325.172V93.7657H325.251L330.185 100.921H332.727V88.523Z" fill="white"/>
<path d="M345.163 88.523H342.173V95.6666H342.07L337.191 88.523H334.612V100.921H337.608V93.7657H337.687L342.621 100.921H345.163V88.523Z" fill="white"/>
<path d="M349.73 100.921L350.547 98.3181H354.827L355.644 100.921H358.865L354.682 88.523H350.692L346.509 100.921H349.73ZM351.261 96.0419L352.635 91.6468H352.732L354.113 96.0419H351.261Z" fill="white"/>
<path d="M363.196 88.523H360.2V100.921H363.196V88.523Z" fill="white"/>
<path d="M365.078 100.921H373.232V98.4877H368.074V88.523H365.078V100.921Z" fill="white"/>
<path d="M381.485 92.2401H384.355C384.33 89.9215 382.484 88.3535 379.602 88.3535C376.769 88.3535 374.729 89.8972 374.747 92.2038C374.741 94.0865 376.061 95.1459 378.204 95.6363L379.499 95.939C380.861 96.2538 381.473 96.6231 381.485 97.3193C381.473 98.076 380.765 98.6027 379.56 98.6027C378.234 98.6027 377.362 97.9852 377.296 96.7926H374.426C374.463 99.6924 376.479 101.079 379.596 101.079C382.684 101.079 384.512 99.6803 384.524 97.3253C384.512 95.3457 383.174 94.1349 380.728 93.5961L379.663 93.354C378.537 93.1118 377.822 92.7365 377.847 91.9979C377.853 91.3199 378.434 90.8295 379.596 90.8295C380.765 90.8295 381.406 91.3562 381.485 92.2401Z" fill="white"/>
</g>
<path d="M526.768 22.8669L527.812 15.9506L514.175 1.23737H494.459L493.976 4.43468L491.003 1.23737H484.222L483.307 7.27861L477.698 1.23737H468.426L467.943 4.44029L464.976 1.23737H457.42L457.117 3.25112L455.255 1.23737H434.77L433.721 8.15928L441.394 16.433L440.037 18.8731L440.003 15.9506L426.361 1.23737H416.399L413.595 10.0552C411.766 8.74265 409.668 7.6937 407.733 6.46526L404.648 3.13893C403.111 1.45613 400.693 0.603516 397.513 0.603516C397.064 0.603516 396.626 0.603516 396.194 0.654C396.054 0.654 395.92 0.687655 395.779 0.704483C395.493 0.73253 395.218 0.766186 394.944 0.811061L394.467 0.906419C394.226 0.956903 393.984 1.00178 393.754 1.06348L393.272 1.20932C393.059 1.27663 392.84 1.34395 392.633 1.42248L392.481 1.46735C392.38 1.50662 392.29 1.5571 392.195 1.59637C391.971 1.69172 391.746 1.79269 391.527 1.89927L391.337 1.98902C391.23 2.04511 391.129 2.11242 391.028 2.16852C390.927 2.22461 390.787 2.30314 390.669 2.38167C390.612 2.40797 390.558 2.43992 390.507 2.47703C390.344 2.578 390.187 2.69579 390.035 2.80798L389.867 2.92578L389.817 2.95943C389.611 3.11649 389.409 3.28477 389.211 3.46427L389.059 3.5989C388.925 3.72791 388.785 3.86253 388.656 3.99716C388.526 4.13178 388.498 4.17105 388.42 4.2608L388.229 4.47395L388.111 4.60296C387.966 4.77685 387.831 4.96196 387.691 5.1639C387.663 5.20877 387.629 5.24243 387.601 5.2873C387.41 5.55655 387.225 5.84823 387.04 6.1287V6.16236C386.835 6.50798 386.648 6.86369 386.479 7.22813V7.22813C386.328 7.54786 386.193 7.88442 386.058 8.22659C386.019 8.32756 385.985 8.43413 385.946 8.54071C385.907 8.64729 385.84 8.81557 385.795 8.96141C385.795 9.0175 385.761 9.07921 385.744 9.1353L378.379 1.23737H368.406L366.162 8.42852L359.487 1.23737H348.953L346.889 8.32756L340.32 1.23737H329.791L327.34 17.4315L327.301 17.3866L325.865 15.8441L324.468 14.3351L314.568 3.67743C313.087 2.08438 310.557 1.27103 307.023 1.27103H296.36L296.046 3.34087L294.116 1.23737H274.388L274.164 2.71823L272.801 1.23737H250.532L250.481 1.58515L250.156 1.23737H231.017L230.534 4.43468L227.573 1.23737H220.011L219.512 4.43468L216.55 1.23737H209.006L208.018 7.7554L201.983 1.23737H194.421L193.367 8.19854L188.593 3.04918C187.09 1.42248 184.762 0.603516 181.666 0.603516C181.212 0.603516 180.774 0.603516 180.348 0.654C180.202 0.654 180.067 0.687655 179.927 0.704483C179.647 0.73253 179.366 0.766186 179.091 0.811061L178.614 0.906419C178.379 0.956903 178.138 1.00178 177.902 1.06348L177.425 1.20932L176.78 1.41687C176.732 1.43619 176.684 1.45304 176.634 1.46735C176.533 1.50662 176.444 1.5571 176.348 1.59637C176.124 1.69172 175.899 1.79269 175.681 1.89927L175.49 1.98902C175.383 2.04511 175.282 2.10681 175.181 2.16852L174.822 2.37606L174.66 2.47142C174.497 2.578 174.34 2.69579 174.177 2.81359L174.02 2.92578L173.981 2.95382C173.768 3.11649 173.566 3.28477 173.37 3.45866L173.218 3.5989C173.072 3.73352 172.927 3.87375 172.792 4.01959C172.657 4.16544 172.646 4.17666 172.579 4.25519C172.511 4.33372 172.439 4.40664 172.371 4.47956L172.242 4.63101C172.113 4.77685 172.001 4.93952 171.883 5.09658L171.737 5.28169L171.704 5.32657C171.513 5.59581 171.328 5.8875 171.143 6.16797C170.941 6.50453 170.756 6.85791 170.582 7.22252V7.25617C170.436 7.55908 170.307 7.8732 170.178 8.19293L170.077 8.4734C170.021 8.63046 169.959 8.78191 169.909 8.94458C169.909 9.01189 169.869 9.09042 169.847 9.15774C169.752 9.46064 169.668 9.77476 169.589 10.0889L169.471 10.532C169.474 10.5694 169.474 10.6069 169.471 10.6442L160.715 1.23737H140.981L139.792 9.11847L134.71 3.64377C133.235 2.05072 130.7 1.23737 127.171 1.23737H116.502L116.054 4.19348L113.311 1.23737H106.019L105.082 7.40763L99.3715 1.23737H91.8101L91.6194 2.48264L90.4975 1.23737H68.2285L67.3422 7.10472L61.89 1.23737H54.3174L53.8686 4.19348L51.1313 1.23737H43.8392L42.9024 7.40763L37.209 1.23737H29.6251L28.593 8.06953L26.8878 6.21284L25.822 5.09098L23.9934 3.11088C22.4508 1.44491 20.0837 0.603516 16.9312 0.603516C16.4825 0.603516 16.0506 0.603516 15.6243 0.654C15.484 0.654 15.355 0.687655 15.2148 0.704483C14.9343 0.73253 14.6539 0.760577 14.3902 0.805451L13.919 0.90081L13.2123 1.05787L12.7411 1.20371C12.5279 1.26542 12.3148 1.33273 12.1072 1.41126L11.967 1.45613C11.866 1.4954 11.7763 1.54588 11.6809 1.58515C11.4565 1.67864 11.2378 1.7796 11.0246 1.88805C10.9629 1.88805 10.8956 1.93853 10.8339 1.97219C10.7722 2.00585 10.6264 2.0956 10.5254 2.15169L10.172 2.35923L10.0149 2.44898C9.85228 2.55556 9.69522 2.67336 9.53255 2.79115L9.38109 2.89773H9.34183C9.13428 3.05479 8.93796 3.22307 8.74163 3.39135L8.6014 3.56524C8.46116 3.69986 8.32093 3.83449 8.18631 3.97472C8.05168 4.11495 8.04047 4.13739 7.96754 4.21592C7.89462 4.29445 7.83292 4.36176 7.77122 4.44029C7.72534 4.48431 7.68226 4.53115 7.6422 4.58053C7.5188 4.73198 7.401 4.88904 7.28321 5.0461L7.14297 5.2256L7.10932 5.27047C6.9186 5.53972 6.7391 5.83141 6.54839 6.10065C6.34358 6.43855 6.15635 6.78679 5.98745 7.14399V7.17203C5.84722 7.47494 5.7126 7.78906 5.58919 8.10879L5.48822 8.38365L5.31994 8.84361C5.31994 8.91653 5.28629 8.98946 5.26385 9.05677C5.16849 9.35967 5.08435 9.66818 5.00582 9.98231C4.96656 10.1281 4.92729 10.2684 4.89363 10.4142C4.78706 10.8798 4.6917 11.3566 4.61317 11.8558L0.955889 35.9423C0.888577 36.4191 0.838093 36.879 0.798828 37.3222C0.798828 37.4736 0.798828 37.6082 0.798828 37.7541C0.798828 38.0514 0.798828 38.315 0.798828 38.6291C0.798828 38.7918 0.798828 38.9489 0.798828 39.1059C0.798828 39.3583 0.798828 39.6051 0.843703 39.8463C0.888577 40.0876 0.882968 40.1661 0.905405 40.3175C0.927843 40.469 0.978326 40.7719 1.0232 40.9907C1.0232 41.0692 1.0232 41.1533 1.06247 41.2319C1.10173 41.3104 1.12417 41.4562 1.15782 41.574C1.19148 41.6918 1.15782 41.6974 1.20831 41.7535C1.28123 42.0003 1.35976 42.2415 1.44951 42.4715C1.46197 42.4952 1.47321 42.5196 1.48317 42.5444C1.53926 42.6791 1.60657 42.8081 1.66827 42.9371C1.72998 43.0661 1.78046 43.1951 1.84777 43.3129L1.89826 43.4027L2.04971 43.6439C2.11702 43.7561 2.17872 43.8682 2.25725 43.9748C2.31815 44.0678 2.38367 44.1577 2.45358 44.2441C2.5265 44.3394 2.59942 44.4348 2.67795 44.5245L2.84623 44.7096L13.56 56.2705L14.6258 57.426L16.4545 59.3948C16.4937 59.4397 16.5386 59.4734 16.5779 59.5126L16.8583 59.7763C16.9817 59.8941 17.1107 60.0007 17.2454 60.1072C17.38 60.2138 17.4529 60.2643 17.5651 60.3372C17.6773 60.4101 17.8456 60.5279 17.997 60.6177L18.3504 60.814C18.5075 60.8925 18.6701 60.9711 18.8384 61.044L19.2198 61.201C19.3993 61.2684 19.5788 61.3245 19.7808 61.3805L20.1903 61.504C20.3922 61.5563 20.5997 61.6012 20.8129 61.6386L21.2224 61.7227L21.9628 61.8125L22.3386 61.8517C22.7257 61.8517 23.1183 61.8966 23.5334 61.8966C23.9485 61.8966 24.4141 61.8966 24.8348 61.8461C24.975 61.8461 25.1096 61.8125 25.2443 61.7956C25.5247 61.7956 25.8052 61.7339 26.0744 61.6891C26.2315 61.6891 26.383 61.6274 26.54 61.5937C26.6971 61.56 27.0168 61.4983 27.2468 61.4422L27.718 61.2964C27.9311 61.2291 28.1499 61.1674 28.3574 61.0889L28.4977 61.044C28.5986 61.0047 28.6884 60.9542 28.7837 60.915C29.0081 60.8196 29.2269 60.7186 29.4456 60.6121C29.5073 60.6121 29.5691 60.5616 29.6308 60.5279C29.6925 60.4943 29.8383 60.4045 29.9393 60.3484C30.0402 60.2923 30.1805 60.2138 30.2927 60.1409L30.4553 60.0455C30.6124 59.9446 30.7694 59.8268 30.9265 59.7146L31.0892 59.5968H31.1284C31.336 59.4397 31.5379 59.2714 31.7343 59.0976L31.8857 58.9629L32.2952 58.5591L32.5139 58.3122L32.7159 58.0879C32.7551 58.043 32.8 57.9981 32.8393 57.9476C32.9683 57.7962 33.0861 57.6335 33.2039 57.4765C33.2488 57.4148 33.2993 57.3587 33.3385 57.297L33.3722 57.2577C33.5629 56.9884 33.7424 56.6968 33.9331 56.4219C34.1294 56.0853 34.3145 55.7376 34.494 55.373C34.5782 55.1991 34.6567 55.014 34.7352 54.812C35.4532 55.2271 36.1656 55.6478 36.8556 56.091L38.1008 57.4316L39.9239 59.4061C39.9553 59.4364 39.9853 59.4682 40.0136 59.5014L40.2997 59.7707C40.4287 59.8829 40.5577 59.995 40.6923 60.1016L41.0121 60.3372C41.1579 60.4326 41.3038 60.5279 41.4552 60.6177C41.6067 60.7074 41.6908 60.7523 41.8142 60.814C41.9376 60.8757 42.1339 60.9711 42.3022 61.044L42.6949 61.2067C42.8688 61.274 43.0595 61.3357 43.2558 61.3918L43.6709 61.5152C43.8728 61.5657 44.086 61.6105 44.2991 61.6498C44.5123 61.6891 44.574 61.7115 44.7142 61.7339C44.961 61.7732 45.2135 61.8012 45.4715 61.8237L45.8473 61.8686C46.2344 61.8686 46.6382 61.9134 47.0533 61.9134C47.4684 61.9134 47.9452 61.9134 48.3715 61.8573L48.7922 61.8125C49.0727 61.7788 49.3531 61.7508 49.6224 61.7059L50.0992 61.6105L50.8116 61.4535L51.294 61.3076C51.5071 61.2403 51.7259 61.173 51.9334 61.0945C51.9839 61.0945 52.0344 61.0945 52.0849 61.044C52.1354 60.9935 52.27 60.9598 52.371 60.915C52.5953 60.8196 52.8197 60.7243 53.0385 60.6121L53.2292 60.5279C53.3358 60.4718 53.4367 60.4045 53.5377 60.3484L53.9023 60.1353L54.065 60.0399L54.5362 59.709C54.59 59.6665 54.6461 59.6272 54.7044 59.5912L54.7493 59.5575C54.9587 59.3967 55.1607 59.2284 55.3551 59.0527L55.501 58.9181C55.6468 58.7834 55.787 58.6488 55.9217 58.5086C56.0563 58.3683 56.0675 58.3403 56.146 58.2562L56.3367 58.043L56.4602 57.9084C56.6004 57.7345 56.735 57.555 56.8696 57.3755C56.9033 57.3306 56.9369 57.2914 56.9706 57.2409C57.0211 57.1736 57.0604 57.1006 57.1108 57.0277L61.071 61.302H80.21L80.5017 59.35L82.3079 61.302H89.8693L91.8269 48.3669L94.2053 50.936L94.4241 51.0874L101.155 58.3122L102.109 59.35L102.238 59.4678L102.524 59.7426C102.653 59.8548 102.782 59.967 102.917 60.0736L103.236 60.3092L103.674 60.5896L104.033 60.786C104.196 60.8701 104.358 60.943 104.526 61.0159L104.919 61.1786C105.093 61.2459 105.284 61.3076 105.48 61.3637L105.895 61.4871C106.097 61.5376 106.31 61.5825 106.523 61.6217C106.737 61.661 106.798 61.6835 106.938 61.7059C107.18 61.7452 107.438 61.7732 107.69 61.7956L108.066 61.8405C108.459 61.8405 108.862 61.8854 109.278 61.8854C109.726 61.8854 110.169 61.8854 110.596 61.8293L111.011 61.7844C111.263 61.7844 111.521 61.7339 111.762 61.6947H111.852L112.323 61.5993L113.036 61.4422L113.513 61.2964C113.731 61.2291 113.95 61.1618 114.158 61.0833L114.304 61.0384C114.404 60.9991 114.494 60.9486 114.595 60.9038C114.82 60.8084 115.044 60.713 115.263 60.6009C115.324 60.6009 115.392 60.5504 115.453 60.5167C115.515 60.4831 115.661 60.3933 115.762 60.3372L116.121 60.1241L116.284 60.0287C116.446 59.9221 116.603 59.8099 116.76 59.6977C116.811 59.6529 116.873 59.6192 116.923 59.58L116.968 59.5463C117.175 59.3836 117.377 59.221 117.579 59.0415L117.725 58.9068C117.871 58.7722 118.006 58.6376 118.146 58.4974L118.37 58.2449L118.561 58.0318C118.6 57.9813 118.645 57.942 118.684 57.8972C118.825 57.7233 118.959 57.5438 119.094 57.3643L119.178 57.2577C119.228 57.1904 119.268 57.1175 119.318 57.0445L123.278 61.3188H130.834L131.821 54.7896L137.874 61.3188H145.626L145.519 60.9486C145.475 60.7916 145.435 60.6345 145.402 60.4718C145.402 60.4101 145.374 60.3428 145.362 60.2811C145.351 60.2194 145.323 60.0567 145.306 59.9446C145.289 59.8324 145.306 59.8099 145.278 59.7482C145.25 59.6865 145.278 59.507 145.25 59.3836C145.222 59.2602 145.25 59.2714 145.25 59.2153C145.25 59.0415 145.25 58.8676 145.25 58.6881C145.25 58.6881 145.25 58.6208 145.25 58.5871L147.78 61.3188H167.491L168.54 54.3969L158.095 43.0661L158.393 41.1028H165.517C165.517 41.1477 165.517 41.1982 165.545 41.2431L165.612 41.4731C165.612 41.546 165.646 41.6189 165.668 41.6862C165.744 41.9641 165.836 42.2375 165.943 42.5052C165.982 42.6005 166.033 42.6847 166.072 42.78C166.156 42.9595 166.235 43.1502 166.324 43.341V43.3746L166.425 43.5373C166.515 43.6887 166.605 43.8458 166.706 43.9916L166.852 44.188C166.936 44.3002 167.026 44.418 167.121 44.5245L167.284 44.7096L177.184 55.3673L178.581 56.8763L180.017 58.4244L180.92 59.4005C180.953 59.4341 180.987 59.4566 181.015 59.4902C181.043 59.5239 181.195 59.6585 181.284 59.7426C181.374 59.8268 181.542 59.9782 181.677 60.0848C181.812 60.1914 181.885 60.2362 181.991 60.3092C182.098 60.3821 182.277 60.5055 182.429 60.5952L182.777 60.7916L183.27 61.0216C183.394 61.0806 183.522 61.1331 183.652 61.1786C183.825 61.2459 184.011 61.3076 184.213 61.3637C184.414 61.4198 184.476 61.4479 184.616 61.4815C184.757 61.5152 185.031 61.5769 185.239 61.6217L185.654 61.7003C185.895 61.7395 186.148 61.7676 186.4 61.7956L186.776 61.8349C187.163 61.8349 187.561 61.8798 187.976 61.8798C188.391 61.8798 188.879 61.8798 189.311 61.8237L189.732 61.7788C190.018 61.7452 190.293 61.7171 190.585 61.6722C190.747 61.6442 190.904 61.6049 191.061 61.5713C191.308 61.5208 191.55 61.4759 191.785 61.4142L192.273 61.2684C192.492 61.1954 192.711 61.1281 192.924 61.0496L193.075 60.9991C193.176 60.9655 193.266 60.9094 193.367 60.8701C193.591 60.7747 193.821 60.6738 194.04 60.5672L194.236 60.4774C194.343 60.4214 194.438 60.354 194.545 60.2923C194.651 60.2306 194.792 60.1577 194.909 60.0848C195.027 60.0119 195.022 60.0231 195.072 59.9838C195.235 59.8772 195.398 59.7651 195.555 59.6473L195.717 59.5295H195.762C195.97 59.3668 196.177 59.1985 196.374 59.019L196.531 58.8788C196.671 58.7442 196.811 58.6095 196.946 58.4693L197.176 58.2113L197.372 57.9925L197.495 57.8579C197.58 57.7569 197.658 57.6503 197.737 57.5438L201.186 61.2684H208.748L209.729 54.7503L215.771 61.2684H223.332L223.814 58.071L226.776 61.2684H234.337L234.82 58.071L237.782 61.2684H245.337L248.288 41.7535H251.738L251.008 46.5551L264.65 61.2684H272.24L273.496 52.9722L281.187 61.2684H300.903L301.212 59.1985L303.13 61.2684H310.692L311.679 54.7391L317.731 61.2684H325.478L325.371 60.8981C325.326 60.7411 325.287 60.584 325.253 60.4214C325.253 60.3596 325.225 60.2923 325.214 60.2306C325.203 60.1689 325.175 60.0063 325.158 59.8941C325.141 59.7819 325.158 59.7595 325.158 59.6977C325.158 59.636 325.158 59.4565 325.124 59.3388C325.091 59.221 325.124 59.2266 325.124 59.1649C325.124 58.991 325.124 58.8171 325.124 58.6376C325.158 57.8747 325.27 56.8426 325.461 55.5693L326.285 50.1226L336.618 61.2684H343.282L343.949 56.8538L348.044 61.2684H354.377L355.544 57.3923L359.134 61.2684H366.308L366.527 59.8324L367.856 61.2684H374.89L377.342 53.017L384.987 61.2571H392.554L392.481 54.526C392.694 54.7615 392.913 54.9915 393.132 55.2271L393.906 56.0629L395.246 57.5101L396.963 59.3612L397.092 59.4846L397.378 59.7538C397.501 59.866 397.63 59.9782 397.765 60.0848L398.09 60.3204C398.231 60.4157 398.376 60.5111 398.528 60.6009C398.679 60.6906 398.764 60.7355 398.887 60.7972C399.01 60.8589 399.212 60.9542 399.381 61.0272C399.549 61.1001 399.633 61.1393 399.768 61.1898C399.902 61.2403 400.132 61.3188 400.329 61.3749L400.738 61.4983C400.94 61.5488 401.153 61.5937 401.366 61.633C401.579 61.6722 401.641 61.6947 401.787 61.7171C402.028 61.7564 402.281 61.7844 402.539 61.8069L402.914 61.8517C403.301 61.8517 403.705 61.8966 404.126 61.8966C404.547 61.8966 405.012 61.8966 405.444 61.8405L405.859 61.7956C406.14 61.762 406.42 61.7339 406.695 61.6891L407.172 61.5937L407.884 61.4366L408.361 61.2908C408.58 61.2235 408.793 61.1562 409.006 61.0776L409.152 61.0328C409.253 60.9935 409.343 60.943 409.438 60.8981C409.668 60.8028 409.892 60.7074 410.106 60.5952C410.167 60.5952 410.24 60.5448 410.302 60.5111C410.364 60.4774 410.504 60.3877 410.61 60.3316L410.969 60.1184L411.132 60.0231C411.295 59.9165 411.446 59.8043 411.603 59.6921L411.772 59.5743L411.816 59.5407C412.024 59.378 412.226 59.2153 412.422 59.0358L412.574 58.9012C412.714 58.7666 412.854 58.632 412.989 58.4917C413.034 58.4469 413.073 58.3964 413.118 58.3459L415.816 61.2571H422.85L425.301 53.0002L432.952 61.2571H440.519V60.8252L440.918 61.2571H462.037L462.34 59.2434L464.202 61.2571H471.758L472.24 58.0542L475.207 61.2571H481.995L483.117 53.735L490.089 61.2571H497.779L498.262 58.0598L501.223 61.2571H520.957L522.006 54.3352L511.556 43.0661L511.853 41.1028H521.507L522.556 34.1865L514.254 25.2116L514.613 22.8445L526.768 22.8669ZM190.343 27.848C190.343 27.7807 190.343 27.7134 190.343 27.6405C190.343 27.4778 190.343 27.3151 190.343 27.1468C190.343 27.0795 190.343 27.0122 190.343 26.9449C190.343 26.7149 190.383 26.4849 190.416 26.255C190.45 26.025 190.489 25.8286 190.534 25.6267L190.568 25.4753C190.613 25.2958 190.658 25.1275 190.708 24.9704C190.711 24.948 190.711 24.9255 190.708 24.9031C190.742 24.7909 190.792 24.69 190.832 24.589L190.321 27.9546C190.326 27.9186 190.334 27.883 190.343 27.848V27.848ZM185.716 36.6434L185.43 36.2339L185.716 36.6434ZM185.155 35.8357L184.897 35.4094C184.981 35.5496 185.065 35.6898 185.16 35.8357H185.155ZM184.734 35.0223C184.644 34.8709 184.566 34.7138 184.487 34.5624C184.566 34.7138 184.644 34.8653 184.734 35.0223ZM184.353 34.2987C184.241 34.0575 184.128 33.8219 184.039 33.5863C184.095 33.8163 184.207 34.0575 184.325 34.2987H184.353ZM172.231 23.0408L172.461 23.3325C172.657 23.5849 172.865 23.8317 173.078 24.0841C173.128 24.1459 173.168 24.2019 173.218 24.258L173.291 24.3366C173.553 24.647 173.828 24.9555 174.116 25.2621L176.92 28.2687L177.268 28.6894L177.335 28.7735C177.515 29.0091 177.683 29.2335 177.84 29.4579L177.975 29.6542L178.188 29.9739L178.323 30.1871L178.502 30.4956L178.609 30.6863C178.704 30.8658 178.794 31.0453 178.872 31.2136C178.951 31.3819 178.979 31.4828 179.029 31.6175L179.114 31.8418C179.147 31.9428 179.175 32.0438 179.203 32.1447L179.271 32.3803C179.271 32.4533 179.271 32.5262 179.316 32.5935C179.36 32.7898 179.394 32.9861 179.422 33.1825C179.422 33.2442 179.422 33.3059 179.45 33.3676C179.478 33.62 179.495 33.878 179.506 34.1361V34.2931C179.506 34.5138 179.506 34.7381 179.506 34.9662C179.506 35.0392 179.506 35.1177 179.506 35.1906C179.506 35.4711 179.461 35.7515 179.417 36.0376C179.372 36.3237 179.332 36.52 179.282 36.7444C179.282 36.8005 179.254 36.8566 179.243 36.9127C179.192 37.1202 179.142 37.3165 179.08 37.5073C179.079 37.5203 179.079 37.5334 179.08 37.5465C179.007 37.7597 178.929 37.956 178.844 38.1411L178.777 38.287L178.67 38.4889C178.638 38.5488 178.603 38.6069 178.564 38.6628V38.6628L173.145 32.8179H167.923L160.794 25.2285L161.153 22.8669H172.085L172.231 23.0408ZM250.627 26.4064L251.16 22.8725H254.61L253.594 29.6037L250.627 26.4064ZM324.16 37.8943H324.193H324.249V38.057L324.154 37.956L324.16 37.8943Z" fill="black"/>
<path d="M16.8545 1.12671C20.1303 1.12671 22.5199 2.06347 23.9447 3.93137C25.3694 5.79928 25.8462 8.4581 25.3302 11.8686L24.657 16.356H18.5204L19.2609 11.4198C19.7096 8.48614 18.6607 7.00528 16.1533 7.00528C13.6459 7.00528 12.1539 8.48614 11.7107 11.4198L7.92443 36.4374C7.48129 39.3094 8.53023 40.7902 11.0432 40.7902C13.5562 40.7902 15.037 39.3262 15.4746 36.4374L16.4562 29.8521H22.6265L21.6897 35.9438C21.1737 39.3543 19.9003 42.0355 17.8978 43.8922C15.8953 45.7489 13.2365 46.6969 9.96061 46.6969C6.68477 46.6969 4.28958 45.7601 2.86482 43.8922C1.44005 42.0243 0.963256 39.3374 1.47931 35.9438L5.11976 11.8686C5.63582 8.4581 6.92036 5.78245 8.91167 3.92015C10.903 2.05786 13.573 1.12671 16.8545 1.12671Z" fill="#FFC451"/>
<path d="M50.5336 1.76636L45.401 35.6691C44.8681 39.2086 43.5668 41.9628 41.5418 43.8419C39.5168 45.721 36.8244 46.6466 33.5036 46.6466C30.1829 46.6466 27.7653 45.6986 26.3181 43.8419C24.8709 41.9852 24.3997 39.2086 24.9382 35.6691L30.0651 1.76636H36.5832L31.3721 36.1796C31.1309 37.7726 31.2936 38.9842 31.8433 39.6798C32.1662 40.0681 32.5781 40.3728 33.0438 40.5681C33.5096 40.7634 34.0156 40.8435 34.5189 40.8016C35.6332 40.8389 36.7174 40.4359 37.5368 39.6798C38.3052 38.9506 38.8213 37.7726 39.0625 36.1796L44.2679 1.76636H50.5336Z" fill="#FFC451"/>
<path d="M61.2808 1.76636L55.4695 40.151H67.0471L66.1609 46.0295H48.0596L54.7571 1.76636H61.2808Z" fill="#FFC451"/>
<path d="M89.8705 1.76636L88.9842 7.63932H81.6304L75.8191 46.0295H69.3011L75.1124 7.63932H67.7529L68.6392 1.76636H89.8705Z" fill="#FFC451"/>
<path d="M112.717 1.76636L107.585 35.6691C107.024 39.2086 105.745 41.9628 103.725 43.8419C101.706 45.721 99.0079 46.6466 95.6872 46.6466C92.3665 46.6466 89.9489 45.6986 88.5017 43.8419C87.0545 41.9852 86.5721 39.2086 87.133 35.6691L92.2599 1.76636H98.778L93.5669 36.1796C93.3257 37.7726 93.4884 38.9842 94.0381 39.6798C94.3607 40.0685 94.7725 40.3735 95.2383 40.5688C95.7042 40.7641 96.2104 40.844 96.7137 40.8016C97.8265 40.8399 98.9093 40.4366 99.7259 39.6798C100.5 38.9506 101.016 37.7726 101.257 36.1796L106.463 1.76636H112.717Z" fill="#FFC451"/>
<path d="M131.083 43.9765C131.052 44.667 131.12 45.3583 131.285 46.0295H124.716C124.602 45.4288 124.547 44.8181 124.554 44.2065C124.618 43.0596 124.747 41.9172 124.941 40.7848L126.158 32.5784C126.483 30.4524 126.36 28.994 125.782 28.1302C125.204 27.2663 124.049 26.8176 122.36 26.8176H119.668L116.762 46.0408H110.244L116.942 1.76636H127.111C130.645 1.76636 133.13 2.59093 134.488 4.21202C135.845 5.83312 136.277 8.39658 135.761 11.8014L135.374 14.5556C134.69 19.0431 132.76 21.9543 129.63 23.1435L129.456 23.2108L129.383 23.7044L129.557 23.7605C130.274 23.9556 130.927 24.3339 131.453 24.8581C131.98 25.3823 132.36 26.0344 132.558 26.7503C133.007 28.2929 133.04 30.3851 132.648 32.9766L131.459 40.8297C131.234 42.1591 131.122 43.18 131.083 43.9765ZM128.643 15.9636L129.164 12.5082C129.422 10.8254 129.293 9.59697 128.8 8.8285C128.306 8.06002 127.369 7.63932 126.062 7.63932H122.601L120.588 20.9559H123.392C124.673 21.0224 125.932 20.6061 126.921 19.7891C127.784 19.0206 128.368 17.7305 128.603 15.9636" fill="#FFC451"/>
<path d="M160.116 1.76636L159.229 7.63932H147.074L145.2 19.9967H154.865L153.973 25.8696H144.314L142.155 40.151H154.31L153.418 46.0295H134.745L141.448 1.76636H160.116Z" fill="#FFC451"/>
<path d="M181.589 1.12671C184.865 1.12671 187.227 2.07468 188.612 3.93137C189.998 5.78806 190.435 8.56467 189.897 12.1098L189.655 13.7028H183.524L183.833 11.661C184.074 10.068 183.928 8.8844 183.407 8.13275C182.885 7.38111 181.988 7.01089 180.765 7.01089C178.257 7.01089 176.748 8.53663 176.277 11.5544C176.015 13.1432 176.24 14.774 176.922 16.2326C177.584 17.6518 178.947 19.3963 180.955 21.41C183.474 23.9342 185.151 26.2565 185.931 28.3095C186.733 30.634 186.926 33.1252 186.492 35.5455C185.931 39.1299 184.635 41.9065 182.565 43.8137C180.495 45.7208 177.786 46.6688 174.421 46.6688C171.055 46.6688 168.705 45.7208 167.302 43.8641C165.9 42.0075 165.446 39.2308 165.984 35.6914L166.332 33.3859H172.463L172.037 36.1906C171.577 39.2477 172.654 40.8015 175.251 40.8015C175.814 40.8283 176.376 40.7429 176.906 40.5503C177.436 40.3577 177.922 40.0617 178.336 39.6796C179.11 38.9336 179.62 37.7275 179.867 36.0896C180.178 34.3752 179.983 32.6075 179.306 31.002C178.661 29.5548 177.315 27.799 175.312 25.7853C172.833 23.2611 171.156 20.9501 170.331 18.9139C169.496 16.7209 169.269 14.3426 169.675 12.0312C170.202 8.57589 171.487 5.86098 173.512 3.99307C175.537 2.12517 178.269 1.12671 181.589 1.12671Z" fill="#FFC451"/>
<path d="M215.967 1.76636L209.269 46.0295H202.751L205.802 25.8696H197.736L194.685 46.0295H188.161L194.864 1.76636H201.382L198.623 19.9967H206.694L209.449 1.76636H215.967Z" fill="#FFC451"/>
<path d="M226.973 1.76636L220.276 46.0295H213.752L220.455 1.76636H226.973Z" fill="#FFC451"/>
<path d="M249.552 1.76636L248.665 7.63932H237.082L235.119 20.6417H244.2L243.314 26.5147H234.227L231.276 46.0295H224.758L231.456 1.76636H249.552Z" fill="#FFC451"/>
<path d="M272.201 1.76636L271.309 7.63932H263.956L258.144 46.0295H251.626L257.438 7.63932H250.078L250.964 1.76636H272.201Z" fill="#FFC451"/>
<path d="M293.507 1.76636L292.621 7.63932H280.46L278.592 19.9967H288.251L287.365 25.8696H277.706L275.541 40.151H287.696L286.81 46.0295H268.136L274.834 1.76636H293.507Z" fill="#FFC451"/>
<path d="M310.947 43.9765C310.904 44.6691 310.96 45.3643 311.115 46.0408H304.524C304.409 45.44 304.355 44.8293 304.361 44.2177C304.428 43.0707 304.559 41.9284 304.754 40.796L305.993 32.5784C306.313 30.4524 306.19 28.994 305.618 28.1302C305.046 27.2663 303.884 26.8176 302.19 26.8176H299.498L296.598 46.0408H290.074L296.772 1.76636H306.947C310.481 1.76636 312.96 2.59093 314.323 4.21202C315.686 5.83312 316.107 8.39658 315.591 11.8014L315.176 14.5556C314.492 19.0431 312.562 21.9543 309.438 23.1435L309.264 23.2108L309.185 23.7044L309.365 23.7605C310.081 23.956 310.733 24.3344 311.258 24.8587C311.784 25.3829 312.163 26.0348 312.36 26.7503C312.814 28.2929 312.848 30.3851 312.455 32.9766L311.261 40.8297C311.102 41.8725 310.997 42.9229 310.947 43.9765ZM308.478 15.9636L309 12.5082C309.253 10.8254 309.129 9.59697 308.635 8.8285C308.142 8.06002 307.205 7.63932 305.893 7.63932H302.432L300.418 20.9559H303.222C304.505 21.0216 305.765 20.6055 306.756 19.7891C307.626 19.0206 308.198 17.7305 308.439 15.9636" fill="#FFC451"/>
<path d="M358.888 1.76636L352.19 46.0295H346.054L351.186 12.1212H350.575L340.321 46.0295H334.885L334.897 12.3399V12.1212H334.285L329.153 46.0295H323.532L330.23 1.76636H339.788L339.423 33.5881L339.418 33.8124H339.996L349.33 1.76636H358.888Z" fill="#FFC451"/>
<path d="M377.865 1.76636L378.376 46.0408H371.869L371.931 37.3687H371.667V37.2509H363.466L360.869 46.0408H354.867L368.773 1.76636H377.865ZM365.065 31.7033H371.998L372.217 9.04726H371.656L365.065 31.7033Z" fill="#FFC451"/>
<path d="M397.436 1.12671C400.756 1.12671 403.174 2.07468 404.627 3.93137C406.08 5.78806 406.54 8.56467 406.007 12.1042L405.446 15.6773H399.326L399.937 11.6554C400.403 8.55345 399.332 6.98284 396.74 6.98284C394.149 6.98284 392.595 8.55345 392.124 11.6554L388.416 36.1569C387.95 39.214 389.033 40.7678 391.624 40.7678C394.216 40.7678 395.764 39.214 396.23 36.1569L397.593 27.1315H394.076L394.967 21.253H404.621L402.439 35.6465C401.878 39.186 400.61 41.9345 398.586 43.8137C396.561 45.6928 393.862 46.6183 390.547 46.6183C387.232 46.6183 384.803 45.6704 383.356 43.8137C381.909 41.957 381.443 39.186 381.976 35.6465L385.538 12.0873C386.099 8.54784 387.372 5.79367 389.392 3.91454C391.411 2.03542 394.121 1.12671 397.436 1.12671Z" fill="#FFC451"/>
<path d="M425.84 1.76636L426.35 46.0408H419.843L419.91 37.3687H419.647V37.2509H411.44L408.838 46.0408H402.841L416.747 1.76636H425.84ZM413.033 31.7033H419.961L420.185 9.04726H419.624L413.033 31.7033Z" fill="#FFC451"/>
<path d="M454.655 1.76636L453.752 7.72346L435.668 40.151H448.844L447.958 46.0295H427.876L428.78 40.0668L446.864 7.63932H434.327L435.213 1.76636H454.655Z" fill="#FFC451"/>
<path d="M464.377 1.76636L457.679 46.0295H451.161L457.864 1.76636H464.377Z" fill="#FFC451"/>
<path d="M490.416 1.76636L483.718 46.0295H476.948L473.453 13.3384H472.864L467.917 46.0295H462.167L468.865 1.76636H477.234L479.999 28.377L480.016 28.5677H480.61L484.666 1.76636H490.416Z" fill="#FFC451"/>
<path d="M513.57 1.76636L512.684 7.63932H500.529L498.655 19.9967H508.32L507.428 25.8696H497.769L495.609 40.151H507.765L506.873 46.0295H488.199L494.902 1.76636H513.57Z" fill="#FFC451"/>
<path d="M25.0937 16.8706H17.9193L18.7439 11.4295C19.1422 8.80435 18.2671 7.50298 16.0739 7.50298C13.8806 7.50298 12.6241 8.7763 12.2259 11.4295L8.43957 36.4471C8.05253 39.0274 8.92759 40.2783 11.1208 40.2783C13.3141 40.2783 14.565 39.0274 14.9576 36.4471L16.029 29.3401H23.1865L22.2105 35.9423C21.6495 39.493 20.3313 42.2864 18.2278 44.2441C16.1243 46.2017 13.3085 47.2114 9.88117 47.2114C6.45387 47.2114 3.9409 46.1905 2.43199 44.2216C0.92308 42.2527 0.42385 39.4705 0.956736 35.9423L4.59719 11.867C5.15812 8.31634 6.47631 5.52289 8.57981 3.56524C10.6833 1.60758 13.4992 0.603516 16.9321 0.603516C20.365 0.603516 22.8611 1.60198 24.3813 3.56524C25.9014 5.5285 26.3894 8.31634 25.8509 11.867L25.0937 16.8706ZM16.1524 7.00375C18.6598 7.00375 19.7087 8.48462 19.26 11.4183L18.5195 16.3377H24.6561L25.3292 11.8502C25.8453 8.43413 25.3797 5.76409 23.9437 3.9018C22.5078 2.0395 20.1294 1.09714 16.8536 1.09714C13.5777 1.09714 10.9021 2.06194 8.91076 3.91863C6.91945 5.77531 5.63491 8.45657 5.11885 11.867L1.4784 35.9423C0.962345 39.3583 1.42792 42.034 2.86391 43.8907C4.29989 45.7473 6.68386 46.6953 9.9597 46.6953C13.2355 46.6953 15.9112 45.7586 17.8969 43.8907C19.8826 42.0228 21.1727 39.3078 21.6888 35.9423L22.6256 29.8505H16.4553L15.4737 36.4359C15.0361 39.3247 13.5497 40.7887 11.0423 40.7887C8.53493 40.7887 7.48038 39.3078 7.92352 36.4359L11.7098 11.4183C12.1529 8.48462 13.645 7.00375 16.1524 7.00375Z" fill="black"/>
<path d="M43.8294 1.23804H51.1215L45.9217 35.6681C45.3607 39.3422 44.0033 42.2141 41.8717 44.1942C39.7402 46.1743 36.8907 47.1896 33.4241 47.1896C29.9575 47.1896 27.4109 46.1743 25.8796 44.1942C24.3482 42.2141 23.8602 39.3422 24.4155 35.6681L29.6266 1.23804H37.2104L31.8928 36.1785C31.674 37.6369 31.803 38.7027 32.2798 39.331C32.5627 39.6612 32.9208 39.9187 33.3239 40.0817C33.7271 40.2447 34.1635 40.3085 34.5965 40.2677C35.0739 40.2884 35.5507 40.2143 35.9994 40.0496C36.448 39.885 36.8596 39.6331 37.2104 39.3085C37.8723 38.6803 38.3323 37.6257 38.5454 36.1561L43.8294 1.23804ZM45.4 35.6681L50.5325 1.76531H44.2669L39.0615 36.1785C38.8203 37.7716 38.3042 38.9495 37.5357 39.6787C36.7164 40.4349 35.6322 40.8379 34.5179 40.8006C34.0146 40.8425 33.5086 40.7624 33.0428 40.5671C32.577 40.3718 32.1652 40.0671 31.8423 39.6787C31.2813 38.9551 31.1299 37.7716 31.3711 36.1785L36.5822 1.76531H30.0641L24.9372 35.6681C24.3763 39.2075 24.8643 41.9617 26.3171 43.8352C27.7699 45.7088 30.1819 46.6399 33.5026 46.6399C36.8234 46.6399 39.527 45.6919 41.5408 43.8352C43.5545 41.9786 44.8671 39.2019 45.4 35.6625" fill="black"/>
<path d="M56.0683 39.6283H67.646L66.597 46.5446H47.458L54.3182 1.23804H61.8908L56.0683 39.6283ZM66.1651 46.0285L67.0514 40.1499H55.4681L61.2794 1.76531H54.7557L48.0582 46.0397H66.1595" fill="black"/>
<path d="M68.2037 1.23804H90.5008L89.4575 8.15994H82.0868L76.2643 46.5446H68.703L74.5142 8.15994H67.1548L68.2037 1.23804ZM88.9863 7.63828L89.8726 1.76531H68.6244L67.7382 7.63828H75.0976L69.3032 46.0397H75.8212L81.6325 7.6495H88.9863" fill="black"/>
<path d="M106.015 1.23804H113.307L108.096 35.6681C107.535 39.3422 106.183 42.2141 104.052 44.1942C101.92 46.1743 99.0765 47.1896 95.6043 47.1896C92.1321 47.1896 89.5911 46.1743 88.0597 44.1942C86.5284 42.2141 86.0404 39.3422 86.5957 35.6681L91.8068 1.23804H99.3625L94.0729 36.1785C93.8542 37.6369 93.9832 38.7027 94.46 39.331C94.7429 39.6612 95.101 39.9187 95.5041 40.0817C95.9073 40.2447 96.3437 40.3085 96.7766 40.2677C97.2533 40.2889 97.7294 40.215 98.1772 40.0503C98.625 39.8856 99.0356 39.6335 99.385 39.3085C100.052 38.6803 100.507 37.6257 100.726 36.1561L106.015 1.23804ZM107.586 35.6681L112.718 1.76531H106.453L101.247 36.1785C101.006 37.7716 100.49 38.9495 99.7159 39.6787C98.8993 40.4356 97.8165 40.8389 96.7037 40.8006C96.2003 40.843 95.6942 40.7631 95.2283 40.5677C94.7625 40.3724 94.3507 40.0674 94.0281 39.6787C93.4671 38.9551 93.3157 37.7716 93.5569 36.1785L98.7679 1.76531H92.2499L87.1342 35.6681C86.5733 39.2075 87.0613 41.9617 88.5141 43.8352C89.9669 45.7088 92.3789 46.6399 95.6996 46.6399C99.0204 46.6399 101.724 45.6919 103.738 43.8352C105.752 41.9786 107.059 39.2019 107.597 35.6625" fill="black"/>
<path d="M131.884 46.18L131.996 46.5446H124.244L124.21 46.3707C124.065 45.681 123.995 44.9776 124.003 44.2728C124.07 43.1032 124.203 41.9383 124.401 40.7838L125.641 32.5773C125.938 30.6029 125.837 29.2117 125.332 28.4545C124.828 27.6972 123.812 27.3326 122.281 27.3326H120.11L117.204 46.5446H109.643L116.503 1.23804H127.195C130.869 1.23804 133.466 2.1187 134.913 3.84637C136.36 5.57405 136.815 8.2553 136.282 11.8004L135.861 14.5546C135.182 19.042 133.281 22.0486 130.207 23.4229C130.887 23.6844 131.496 24.1033 131.984 24.6454C132.471 25.1875 132.823 25.8373 133.012 26.5417C133.483 28.146 133.522 30.3112 133.118 32.9756L131.929 40.8287C131.762 41.8448 131.648 42.869 131.587 43.897C131.56 44.6691 131.66 45.4404 131.884 46.18V46.18ZM124.715 46.0397H131.306C131.142 45.3685 131.074 44.6772 131.104 43.9867C131.144 43.1902 131.256 42.1693 131.452 40.8623L132.641 33.0093C133.034 30.4177 133 28.3255 132.552 26.7829C132.354 26.067 131.973 25.4149 131.447 24.8907C130.921 24.3665 130.267 23.9883 129.551 23.7931L129.377 23.737L129.45 23.2434L129.623 23.1761C132.753 21.9869 134.672 19.0981 135.367 14.5882L135.783 11.8341C136.299 8.42919 135.872 5.87695 134.509 4.24464C133.146 2.61232 130.667 1.79897 127.133 1.79897H116.941L110.243 46.0397H116.761L119.667 26.8334H122.359C124.042 26.8334 125.203 27.2765 125.781 28.146C126.359 29.0154 126.482 30.4682 126.157 32.5942L124.917 40.7838C124.724 41.9161 124.595 43.0585 124.53 44.2055C124.53 44.8215 124.592 45.436 124.715 46.0397Z" fill="black"/>
<path d="M126.035 7.63989C127.342 7.63989 128.279 8.03815 128.772 8.82907C129.266 9.61998 129.395 10.8316 129.137 12.5088L128.643 15.9641C128.38 17.7311 127.796 19.0212 126.96 19.7897C125.972 20.6066 124.713 21.023 123.432 20.9564H120.627L122.641 7.63989H126.035ZM128.082 15.9641L128.604 12.5088C128.839 10.955 128.733 9.82753 128.301 9.14319C127.869 8.45885 127.084 8.15034 125.939 8.15034H123.034L121.172 20.4292H123.471C124.607 20.494 125.725 20.1318 126.607 19.4139C127.359 18.7464 127.869 17.5796 128.116 15.9529" fill="black"/>
<path d="M159.668 8.15994H147.513L145.802 19.4796H155.461L154.446 26.4071H144.753L142.75 39.6395H154.906L153.885 46.5446H134.151L140.984 1.23804H160.695L159.668 8.15994ZM154.867 19.9956H145.202L147.075 7.6551H159.231L160.117 1.78214H141.449L134.746 46.0397H153.419L154.311 40.1611H142.156L144.315 25.8461H153.975L154.867 19.9732" fill="black"/>
<path d="M186.418 28.0555C187.245 30.4602 187.438 33.0373 186.979 35.5384C186.418 39.2574 185.039 42.1574 182.885 44.1599C180.731 46.1624 177.836 47.189 174.336 47.189C170.836 47.189 168.345 46.1737 166.853 44.188C165.361 42.2023 164.896 39.3415 165.456 35.6674L165.883 32.8627H173.057L172.552 36.1947C172.137 38.9489 173.04 40.2839 175.323 40.2839C175.813 40.3066 176.301 40.2321 176.762 40.0646C177.222 39.897 177.644 39.6398 178.005 39.3079C178.672 38.6572 179.126 37.5577 179.356 36.0544C179.655 34.4309 179.478 32.7556 178.846 31.2304C178.218 29.8337 176.905 28.1172 174.919 26.1428C172.401 23.5793 170.696 21.2178 169.871 19.1311C169.003 16.8582 168.768 14.392 169.192 11.9961C169.753 8.40608 171.088 5.5846 173.22 3.58207C175.351 1.57954 178.195 0.603516 181.667 0.603516C185.14 0.603516 187.58 1.60758 189.055 3.59889C190.53 5.5902 190.973 8.45096 190.418 12.1251L190.098 14.2398H182.924L183.317 11.6763C183.535 10.2067 183.418 9.1353 182.963 8.48462C182.509 7.83393 181.768 7.51981 180.686 7.51981C178.487 7.51981 177.225 8.838 176.815 11.5473C176.573 13.0448 176.792 14.5806 177.444 15.9506C178.089 17.3305 179.418 19.0301 181.37 20.999C183.934 23.6017 185.639 25.9464 186.418 28.0555ZM182.576 43.7953C184.629 41.8881 185.942 39.1115 186.503 35.5272C186.937 33.1068 186.743 30.6157 185.942 28.2911C185.162 26.2381 183.485 23.9159 180.966 21.3917C178.958 19.3779 177.601 17.6334 176.933 16.2143C176.265 14.7554 176.052 13.1291 176.322 11.5473C176.776 8.52949 178.285 7.00375 180.809 7.00375C182.032 7.00375 182.924 7.38519 183.451 8.12562C183.978 8.86605 184.119 10.0608 183.877 11.6539L183.569 13.6957H189.7L189.941 12.1026C190.502 8.55754 190.048 5.80336 188.657 3.92424C187.265 2.04511 184.91 1.11957 181.634 1.11957C178.358 1.11957 175.604 2.06755 173.59 3.92424C171.576 5.78092 170.28 8.50705 169.753 11.9624C169.347 14.2738 169.574 16.652 170.409 18.845C171.234 20.8812 172.911 23.1923 175.391 25.7165C177.393 27.7302 178.756 29.4859 179.384 30.9331C180.061 32.5386 180.256 34.3064 179.945 36.0208C179.699 37.6587 179.188 38.8647 178.414 39.6108C178 39.9929 177.514 40.2888 176.984 40.4814C176.454 40.674 175.892 40.7594 175.329 40.7326C172.732 40.7326 171.655 39.1788 172.115 36.1218L172.541 33.3171H166.348L166.001 35.6225C165.44 39.162 165.905 41.9162 167.319 43.7953C168.732 45.6744 171.116 46.6 174.437 46.6C177.758 46.6 180.54 45.7025 182.576 43.7953Z" fill="black"/>
<path d="M209.007 1.23804H216.569L209.708 46.5446H202.153L205.204 26.4071H198.198L195.124 46.5446H187.568L194.423 1.23804H201.984L199.225 19.4796H206.247L209.007 1.23804ZM209.271 46.0397L215.968 1.76531H209.456L206.696 19.9956H198.624L201.384 1.76531H194.86L188.163 46.0397H194.687L197.732 25.8461H205.804L202.753 46.0397H209.271Z" fill="black"/>
<path d="M220.012 1.23804H227.574L220.713 46.5446H213.158L220.012 1.23804ZM220.276 46.0397L226.973 1.76531H220.455L213.752 46.0397H220.276Z" fill="black"/>
<path d="M249.108 8.15994H237.524L235.712 20.1134H244.8L243.756 27.0297H234.658L231.713 46.5446H224.157L231.017 1.23804H250.151L249.108 8.15994ZM244.194 20.6407H235.118L237.081 7.63828H248.681L249.567 1.76531H231.455L224.757 46.0397H231.292L234.243 26.5249H243.33L244.194 20.6407Z" fill="black"/>
<path d="M250.529 1.23804H272.804L271.76 8.15994H264.39L258.59 46.5446H251.028L256.839 8.15994H249.48L250.529 1.23804ZM271.283 7.63828L272.175 1.76531H250.966L250.08 7.63828H257.44L251.628 46.0397H258.146L263.958 7.6495H271.311" fill="black"/>
<path d="M293.057 8.15994H280.901L279.19 19.4796H288.85L287.801 26.4071H278.141L276.167 39.6283H288.322L287.245 46.5446H267.534L274.389 1.23804H294.117L293.057 8.15994ZM288.249 19.9956H278.59L280.458 7.6551H292.619L293.505 1.78214H274.832L268.134 46.0397H286.825L287.711 40.1611H275.539L277.698 25.8461H287.386L288.272 19.9732" fill="black"/>
<path d="M305.862 7.63989C307.175 7.63989 308.106 8.03815 308.605 8.82907C309.104 9.61998 309.222 10.8372 308.97 12.5088L308.448 15.9641C308.179 17.7311 307.607 19.0212 306.765 19.7897C305.774 20.606 304.514 21.0222 303.231 20.9564H300.427L302.441 7.63989H305.862ZM307.926 15.9641L308.448 12.5088C308.684 10.955 308.583 9.82753 308.145 9.14319C307.708 8.45885 306.928 8.15034 305.784 8.15034H302.844L300.988 20.4292H303.282C304.417 20.494 305.536 20.1318 306.418 19.4139C307.169 18.7464 307.68 17.5796 307.926 15.9529" fill="black"/>
<path d="M311.72 46.18L311.826 46.5446H304.074L304.04 46.3707C303.895 45.681 303.825 44.9775 303.833 44.2728C303.9 43.1032 304.033 41.9383 304.231 40.7838L305.471 32.5773C305.768 30.6029 305.667 29.2117 305.162 28.4545C304.657 27.6972 303.636 27.3326 302.111 27.3326H299.94L297.034 46.5446H289.479L296.361 1.23804H307.019C310.699 1.23804 313.296 2.1187 314.743 3.84637C316.19 5.57405 316.644 8.2553 316.106 11.8004L315.691 14.5546C315.007 19.042 313.105 22.0486 310.031 23.4229C310.711 23.6859 311.319 24.1054 311.806 24.6472C312.293 25.1891 312.646 25.8381 312.836 26.5417C313.307 28.146 313.341 30.3112 312.937 32.9756L311.748 40.8287C311.582 41.8448 311.47 42.869 311.411 43.897C311.382 44.67 311.486 45.4423 311.72 46.18ZM304.523 46.0397H311.114C310.951 45.3682 310.885 44.6769 310.917 43.9867C310.978 42.9401 311.092 41.8972 311.26 40.8623L312.454 33.0093C312.847 30.4177 312.813 28.3255 312.359 26.7829C312.162 26.0674 311.782 25.4155 311.257 24.8913C310.732 24.3671 310.079 23.9886 309.364 23.7931L309.184 23.737L309.263 23.2434L309.437 23.1761C312.561 21.9869 314.485 19.0981 315.175 14.5882L315.59 11.8341C316.106 8.42919 315.68 5.87134 314.322 4.24464C312.965 2.61793 310.48 1.79897 306.946 1.79897H296.771L290.073 46.0397H296.597L299.497 26.8446H302.189C303.872 26.8446 305.033 27.2877 305.617 28.1572C306.2 29.0266 306.312 30.4794 305.992 32.6054L304.775 40.7838C304.581 41.9162 304.45 43.0585 304.382 44.2055C304.376 44.817 304.431 45.4277 304.545 46.0285" fill="black"/>
<path d="M348.955 1.23804H359.49L352.629 46.5446H345.455L350.212 14.9977L340.676 46.5446H334.36V46.3258V14.9977L329.603 46.5446H322.934L329.794 1.23804H340.322L339.963 32.1342L348.955 1.23804ZM352.192 46.0397L358.889 1.76531H349.353L340.003 33.817H339.442V33.587L339.806 1.76531H330.271L323.534 46.0397H329.143L334.276 12.1313H334.887V12.3501V46.0397H340.322L350.576 12.1313H351.182L346.055 46.0397H352.192" fill="black"/>
<path d="M371.638 9.04346H372.199L371.98 31.6995H365.064L371.638 9.04346ZM365.737 31.1835H371.475L371.677 10.6982L365.737 31.1835Z" fill="black"/>
<path d="M378.38 1.23804L378.901 46.5446H371.334L371.402 37.7772H363.835L361.232 46.5446H354.175L368.406 1.23804H378.38ZM371.929 37.3565L371.867 46.0397H378.374L377.863 1.76531H368.771L354.865 46.0397H360.867L363.47 37.2723H371.693V37.3901H371.957" fill="black"/>
<path d="M405.906 16.2199H398.726L399.416 11.6763C399.842 8.87166 398.939 7.51981 396.661 7.51981C394.384 7.51981 393.066 8.87727 392.645 11.6763L388.915 36.1778C388.5 38.932 389.409 40.267 391.686 40.267C393.963 40.267 395.276 38.932 395.691 36.1778L396.976 27.6741H393.464L394.524 20.7522H405.216L402.972 35.6674C402.411 39.3415 401.054 42.2135 398.922 44.1936C396.79 46.1737 393.952 47.189 390.474 47.189C386.997 47.189 384.467 46.1737 382.93 44.1936C381.393 42.2135 380.91 39.3415 381.466 35.6674L385.033 12.1082C385.594 8.43413 386.952 5.56216 389.072 3.58207C391.192 1.60198 394.042 0.603516 397.514 0.603516C400.986 0.603516 403.499 1.60758 405.059 3.59329C406.618 5.57899 407.078 8.45096 406.523 12.1251L405.906 16.2199ZM396.768 7.00375C399.359 7.00375 400.431 8.57436 399.965 11.6763L399.354 15.6982H405.462L406.023 12.1251C406.556 8.58558 406.091 5.83141 404.643 3.95228C403.196 2.07316 400.773 1.14762 397.452 1.14762C394.132 1.14762 391.428 2.0956 389.409 3.95228C387.389 5.80897 386.093 8.58558 385.555 12.1251L381.993 35.6842C381.432 39.2237 381.92 41.9723 383.373 43.857C384.826 45.7417 387.238 46.6617 390.564 46.6617C393.89 46.6617 396.588 45.7137 398.602 43.857C400.616 42.0003 401.923 39.2293 402.456 35.6898L404.621 21.2739H394.967L394.076 27.1524H397.593L396.207 36.1778C395.741 39.2349 394.199 40.7887 391.602 40.7887C389.005 40.7887 387.928 39.2349 388.393 36.1778L392.101 11.6763C392.572 8.57436 394.126 7.00375 396.717 7.00375" fill="black"/>
<path d="M419.619 9.04346H420.179L419.955 31.6995H413.033L419.619 9.04346ZM413.718 31.1835H419.456L419.652 10.6982L413.718 31.1835Z" fill="black"/>
<path d="M426.362 1.23804L426.884 46.5446H419.317L419.384 37.7772H411.817L409.209 46.5446H402.158L416.4 1.23804H426.362ZM419.912 37.3565L419.844 46.0397H426.351L425.841 1.77653H416.754L402.843 46.0397H408.839L411.442 37.2723H419.671V37.3901H419.934" fill="black"/>
<path d="M454.235 7.89631L436.521 39.6283H449.422L448.374 46.5446H427.277L428.298 39.9199L446.012 8.15994H433.722L434.771 1.23804H455.256L454.235 7.89631ZM448.845 40.1499H435.668L453.753 7.72242L454.656 1.76531H435.214L434.35 7.63828H446.887L428.78 40.0658L427.877 46.0397H447.958L448.845 40.1611" fill="black"/>
<path d="M457.421 1.23804H464.977L458.122 46.5446H450.566L457.421 1.23804ZM457.679 46.0397L464.377 1.76531H457.864L451.178 46.0397H457.696" fill="black"/>
<path d="M484.222 1.23804H491.004L484.161 46.5446H476.47L473.105 15.1323L468.348 46.5446H461.572L468.426 1.23804H477.715V1.43997L480.346 26.7436L484.222 1.23804ZM483.712 46.0397L490.443 1.76531H484.665L480.61 28.5667H480.015V28.376L477.233 1.76531H468.864L462.166 46.0397H467.916L472.863 13.3486H473.452L476.947 46.0397H483.712Z" fill="black"/>
<path d="M513.128 8.15994H500.973L499.29 19.4796H508.944L507.872 26.4071H498.213L496.211 39.6395H508.394L507.323 46.5446H487.606L494.461 1.23804H514.177L513.128 8.15994ZM508.321 19.9956H498.656L500.53 7.6551H512.685L513.572 1.78214H494.932L488.201 46.0397H506.874L507.766 40.1611H495.61L497.77 25.8461H507.429L508.321 19.9732" fill="black"/>
<defs>
<filter id="filter0_d" x="64.4206" y="77.1911" width="376.516" height="85.1307" filterUnits="userSpaceOnUse" color-interpolation-filters="sRGB">
<feFlood flood-opacity="0" result="BackgroundImageFix"/>
<feColorMatrix in="SourceAlpha" type="matrix" values="0 0 0 0 0 0 0 0 0 0 0 0 0 0 0 0 0 0 127 0"/>
<feOffset dy="1.6184"/>
<feGaussianBlur stdDeviation="17.7579"/>
<feColorMatrix type="matrix" values="0 0 0 0 0 0 0 0 0 0 0 0 0 0 0 0 0 0 0.5 0"/>
<feBlend mode="normal" in2="BackgroundImageFix" result="effect1_dropShadow"/>
<feBlend mode="normal" in="SourceGraphic" in2="effect1_dropShadow" result="shape"/>
</filter>
<filter id="filter1_d" x="111.272" y="54.456" width="308.768" height="83.7691" filterUnits="userSpaceOnUse" color-interpolation-filters="sRGB">
<feFlood flood-opacity="0" result="BackgroundImageFix"/>
<feColorMatrix in="SourceAlpha" type="matrix" values="0 0 0 0 0 0 0 0 0 0 0 0 0 0 0 0 0 0 127 0"/>
<feOffset dy="1.6184"/>
<feGaussianBlur stdDeviation="17.7579"/>
<feColorMatrix type="matrix" values="0 0 0 0 0 0 0 0 0 0 0 0 0 0 0 0 0 0 0.5 0"/>
<feBlend mode="normal" in2="BackgroundImageFix" result="effect1_dropShadow"/>
<feBlend mode="normal" in="SourceGraphic" in2="effect1_dropShadow" result="shape"/>
</filter>
</defs>
</svg>
