<svg width="608" height="259" viewBox="0 0 608 259" fill="none" xmlns="http://www.w3.org/2000/svg">
<rect y="108" width="279" height="151" fill="#FEF5E1"/>
<path d="M145.069 200.218C132.594 200.218 124.942 194.645 122.115 183.501C116.958 185.497 110.887 186.495 103.901 186.495C90.4275 186.495 80.1147 182.669 72.9623 175.018C65.8098 167.366 62.2336 156.555 62.2336 142.582V50.765C62.2336 36.7928 65.8098 25.9809 72.9623 18.3295C80.1147 10.678 90.4275 6.85233 103.901 6.85233C117.374 6.85233 127.687 10.678 134.839 18.3295C141.992 25.9809 145.568 36.7928 145.568 50.765V142.582C145.568 154.226 142.99 163.79 137.833 171.275C138.831 172.939 140.079 174.02 141.576 174.519C143.073 175.018 145.235 175.267 148.063 175.267H152.304V200.218H145.069ZM103.901 161.545C113.382 161.545 118.122 155.806 118.122 144.329V49.0185C118.122 37.5413 113.382 31.8027 103.901 31.8027C94.4196 31.8027 89.679 37.5413 89.679 49.0185V144.329C89.679 155.806 94.4196 161.545 103.901 161.545ZM192.822 186.495C182.841 186.495 175.273 183.085 170.117 176.265C164.96 169.446 162.382 159.549 162.382 146.574V128.361C162.382 119.212 163.962 111.561 167.123 105.406C170.283 99.2519 175.439 94.7608 182.592 91.9331V91.4341C176.105 88.7727 171.281 84.5312 168.121 78.7094C165.127 72.7213 163.63 65.0699 163.63 55.7551V52.5115C163.63 38.373 167.039 27.6443 173.859 20.3255C180.679 13.0068 190.909 9.34736 204.548 9.34736H235.986V34.2977H205.047C200.556 34.2977 197.063 35.6284 194.568 38.2898C192.239 40.9512 191.075 45.2759 191.075 51.264V61.9927C191.075 68.6461 192.406 73.3867 195.067 76.2144C197.895 79.0421 202.053 80.4559 207.542 80.4559H218.271V60.9946H245.217V80.4559H252.952V105.406H245.217V162.792C245.217 167.782 245.384 171.857 245.716 175.018C246.049 178.012 246.881 181.006 248.211 184H220.766C219.435 180.341 218.604 175.766 218.271 170.277H217.772C214.778 175.766 211.285 179.842 207.293 182.503C203.467 185.164 198.643 186.495 192.822 186.495ZM203.051 161.545C211.701 161.545 216.774 156.305 218.271 145.826V105.406H207.792C201.471 105.406 196.897 107.153 194.069 110.646C191.241 113.973 189.828 119.628 189.828 127.612V145.327C189.828 151.149 190.992 155.307 193.321 157.802C195.649 160.297 198.893 161.545 203.051 161.545ZM289.378 9.34736H326.554L354.997 184H327.552L322.562 149.319V149.818H291.374L286.384 184H260.934L289.378 9.34736ZM319.318 126.115L307.092 39.7868H306.593L294.617 126.115H319.318Z" fill="black"/>
<path d="M401 98H608" stroke="black" stroke-width="2"/>
</svg>
