<svg width="800" height="155" viewBox="0 0 800 155" fill="none" xmlns="http://www.w3.org/2000/svg">
<path d="M32.3201 107C23.3431 107 15.7262 103.881 9.46953 97.6426C3.21283 91.4043 0.0844727 81.3688 0.0844727 67.5361C0.0844727 50.1774 4.98103 35.2598 14.7741 22.7833C24.5672 10.0355 38.0327 2.44107 55.1707 0L56.8029 13.019C50.2741 13.8327 43.7454 16.4094 37.2167 20.749C30.96 24.8175 27.8316 29.8352 27.8316 35.8023C27.8316 38.7858 28.5117 40.82 29.8718 41.905C31.504 42.9899 33.9523 44.0748 37.2167 45.1597C54.6266 50.0418 63.3316 60.0773 63.3316 75.2662C63.3316 84.2167 60.4753 91.8111 54.7626 98.0494C49.322 104.016 41.8412 107 32.3201 107ZM111.073 107C102.096 107 94.4791 103.881 88.2224 97.6426C81.9657 91.1331 78.8373 80.962 78.8373 67.1293C78.8373 50.0418 83.7339 35.2598 93.527 22.7833C103.32 10.0355 116.786 2.44107 133.924 0L135.556 12.6122C128.755 13.6971 122.226 16.2738 115.97 20.3422C109.713 24.4106 106.584 29.4284 106.584 35.3954C106.584 38.379 107.265 40.4132 108.625 41.4981C110.257 42.583 112.705 43.6679 115.97 44.7529C133.379 49.635 142.084 59.8061 142.084 75.2662C142.084 84.2167 139.228 91.8111 133.516 98.0494C128.075 104.016 120.594 107 111.073 107Z" fill="#FEF5E1"/>
<path d="M100.305 49.0106H96.0351V69.207H100.305V49.0106ZM118.224 54.0597H115.374V50.4306H111.173V54.0597H109.102V57.2154H111.173V65.1046C111.153 68.073 113.175 69.5423 116.222 69.4141C117.306 69.3747 118.076 69.1577 118.5 69.0197L117.839 65.8936C117.632 65.933 117.188 66.0316 116.794 66.0316C115.955 66.0316 115.374 65.716 115.374 64.5524V57.2154H118.224V54.0597ZM125.487 60.45C125.497 58.4974 126.69 57.3535 128.406 57.3535C130.112 57.3535 131.118 58.4481 131.108 60.3119V69.207H135.309V59.5624C135.319 56.0123 133.228 53.8625 130.072 53.8625C127.775 53.8625 126.236 54.9472 125.546 56.7322H125.368V49.0106H121.286V69.207H125.487V60.45ZM138.615 69.207H142.816V54.0597H138.615V69.207ZM140.725 52.1071C141.978 52.1071 143.003 51.1505 143.003 49.977C143.003 48.8134 141.978 47.8568 140.725 47.8568C139.483 47.8568 138.457 48.8134 138.457 49.977C138.457 51.1505 139.483 52.1071 140.725 52.1071ZM150.382 60.45C150.392 58.4974 151.556 57.3535 153.252 57.3535C154.938 57.3535 155.954 58.4579 155.944 60.3119V69.207H160.145V59.5624C160.145 56.032 158.074 53.8625 154.918 53.8625C152.67 53.8625 151.043 54.967 150.362 56.7322H150.185V54.0597H146.181V69.207H150.382V60.45ZM163.456 69.207H167.657V64.3946L168.791 63.1027L172.923 69.207H177.844L171.937 60.6176L177.558 54.0597H172.736L167.884 59.809H167.657V49.0106H163.456V69.207ZM190.395 49.0106H186.125V69.207H190.395V49.0106ZM198.031 60.45C198.041 58.4974 199.204 57.3535 200.9 57.3535C202.587 57.3535 203.602 58.4579 203.593 60.3119V69.207H207.794V59.5624C207.794 56.032 205.723 53.8625 202.567 53.8625C200.319 53.8625 198.691 54.967 198.011 56.7322H197.833V54.0597H193.83V69.207H198.031V60.45ZM223.708 58.3791C223.333 55.5882 221.084 53.8625 217.258 53.8625C213.383 53.8625 210.828 55.6573 210.838 58.5763C210.828 60.8444 212.258 62.3138 215.217 62.9055L217.84 63.4282C219.161 63.6944 219.763 64.1776 219.783 64.937C219.763 65.8344 218.787 66.4754 217.317 66.4754C215.818 66.4754 214.822 65.8344 214.566 64.6017L210.434 64.8186C210.828 67.7179 213.294 69.5029 217.308 69.5029C221.232 69.5029 224.043 67.501 224.053 64.5129C224.043 62.3237 222.613 61.0121 219.674 60.4105L216.933 59.8583C215.523 59.5526 215 59.0694 215.01 58.3396C215 57.4323 216.026 56.8407 217.327 56.8407C218.787 56.8407 219.655 57.6394 219.862 58.6157L223.708 58.3791ZM234.755 54.0597H231.905V50.4306H227.704V54.0597H225.633V57.2154H227.704V65.1046C227.684 68.073 229.706 69.5423 232.753 69.4141C233.838 69.3747 234.607 69.1577 235.031 69.0197L234.37 65.8936C234.163 65.933 233.72 66.0316 233.325 66.0316C232.487 66.0316 231.905 65.716 231.905 64.5524V57.2154H234.755V54.0597ZM241.811 69.493C244.05 69.493 245.499 68.5167 246.239 67.1065H246.357V69.207H250.341V58.9905C250.341 55.3811 247.284 53.8625 243.912 53.8625C240.282 53.8625 237.896 55.5981 237.314 58.3593L241.2 58.6749C241.486 57.669 242.383 56.9294 243.892 56.9294C245.322 56.9294 246.14 57.6493 246.14 58.8919V58.951C246.14 59.9273 245.105 60.0555 242.472 60.3119C239.474 60.588 236.782 61.5939 236.782 64.9764C236.782 67.9743 238.922 69.493 241.811 69.493ZM243.014 66.5937C241.722 66.5937 240.795 65.9922 240.795 64.8384C240.795 63.655 241.772 63.0731 243.251 62.8661C244.168 62.7379 245.667 62.5209 246.17 62.1856V63.793C246.17 65.3808 244.858 66.5937 243.014 66.5937ZM260.425 75.1042C264.754 75.1042 267.831 73.1319 267.831 69.355V54.0597H263.659V56.604H263.501C262.939 55.3713 261.707 53.8625 259.172 53.8625C255.849 53.8625 253.038 56.4462 253.038 61.6038C253.038 66.643 255.77 68.9901 259.182 68.9901C261.598 68.9901 262.949 67.7771 263.501 66.5247H263.679V69.2958C263.679 71.278 262.348 72.0866 260.523 72.0866C258.669 72.0866 257.732 71.278 257.387 70.4594L253.502 70.9821C254.005 73.27 256.342 75.1042 260.425 75.1042ZM260.513 65.8344C258.452 65.8344 257.328 64.1974 257.328 61.5841C257.328 59.0102 258.433 57.2055 260.513 57.2055C262.555 57.2055 263.699 58.9313 263.699 61.5841C263.699 64.2565 262.535 65.8344 260.513 65.8344ZM271.174 69.207H275.375V60.6373C275.375 58.7735 276.736 57.4915 278.59 57.4915C279.171 57.4915 279.97 57.5901 280.365 57.7183V53.9907C279.99 53.9019 279.467 53.8427 279.043 53.8427C277.347 53.8427 275.957 54.8289 275.404 56.7026H275.247V54.0597H271.174V69.207ZM286.422 69.493C288.661 69.493 290.11 68.5167 290.85 67.1065H290.968V69.207H294.952V58.9905C294.952 55.3811 291.895 53.8625 288.523 53.8625C284.894 53.8625 282.507 55.5981 281.925 58.3593L285.811 58.6749C286.097 57.669 286.994 56.9294 288.503 56.9294C289.933 56.9294 290.751 57.6493 290.751 58.8919V58.951C290.751 59.9273 289.716 60.0555 287.083 60.3119C284.085 60.588 281.393 61.5939 281.393 64.9764C281.393 67.9743 283.533 69.493 286.422 69.493ZM287.625 66.5937C286.333 66.5937 285.406 65.9922 285.406 64.8384C285.406 63.655 286.383 63.0731 287.862 62.8661C288.779 62.7379 290.278 62.5209 290.781 62.1856V63.793C290.781 65.3808 289.469 66.5937 287.625 66.5937ZM298.212 69.207H302.413V60.1147C302.413 58.4382 303.478 57.3239 304.878 57.3239C306.259 57.3239 307.186 58.2706 307.186 59.7597V69.207H311.258V59.9569C311.258 58.3889 312.156 57.3239 313.684 57.3239C315.026 57.3239 316.031 58.1621 316.031 59.8484V69.207H320.223V59.0201C320.223 55.7362 318.27 53.8625 315.45 53.8625C313.231 53.8625 311.505 54.9965 310.884 56.7322H310.726C310.243 54.9768 308.694 53.8625 306.614 53.8625C304.572 53.8625 303.024 54.9472 302.393 56.7322H302.215V54.0597H298.212V69.207ZM342.571 58.3791C342.197 55.5882 339.948 53.8625 336.122 53.8625C332.246 53.8625 329.692 55.6573 329.702 58.5763C329.692 60.8444 331.122 62.3138 334.081 62.9055L336.704 63.4282C338.025 63.6944 338.627 64.1776 338.646 64.937C338.627 65.8344 337.65 66.4754 336.181 66.4754C334.682 66.4754 333.686 65.8344 333.43 64.6017L329.298 64.8186C329.692 67.7179 332.158 69.5029 336.171 69.5029C340.096 69.5029 342.907 67.501 342.916 64.5129C342.907 62.3237 341.477 61.0121 338.538 60.4105L335.796 59.8583C334.386 59.5526 333.864 59.0694 333.873 58.3396C333.864 57.4323 334.889 56.8407 336.191 56.8407C337.65 56.8407 338.518 57.6394 338.725 58.6157L342.571 58.3791ZM349.763 60.45C349.773 58.4974 350.966 57.3535 352.682 57.3535C354.388 57.3535 355.394 58.4481 355.384 60.3119V69.207H359.585V59.5624C359.595 56.0123 357.504 53.8625 354.348 53.8625C352.051 53.8625 350.512 54.9472 349.822 56.7322H349.645V49.0106H345.562V69.207H349.763V60.45ZM369.735 69.5029C374.33 69.5029 377.19 66.357 377.19 61.6925C377.19 56.9984 374.33 53.8625 369.735 53.8625C365.139 53.8625 362.28 56.9984 362.28 61.6925C362.28 66.357 365.139 69.5029 369.735 69.5029ZM369.755 66.2486C367.634 66.2486 366.55 64.3058 366.55 61.6629C366.55 59.0201 367.634 57.0675 369.755 57.0675C371.835 57.0675 372.92 59.0201 372.92 61.6629C372.92 64.3058 371.835 66.2486 369.755 66.2486ZM389.636 62.7576C389.645 64.7891 388.255 65.8541 386.746 65.8541C385.158 65.8541 384.133 64.7398 384.123 62.9548V54.0597H379.922V63.7043C379.932 67.2446 382.003 69.4043 385.05 69.4043C387.328 69.4043 388.965 68.2307 389.645 66.4557H389.803V69.207H393.837V54.0597H389.636V62.7576ZM401.398 49.0106H397.197V69.207H401.398V49.0106ZM410.345 69.4536C412.79 69.4536 414.063 68.0434 414.644 66.7811H414.822V69.207H418.964V49.0106H414.773V56.604H414.644C414.082 55.3713 412.869 53.8625 410.335 53.8625C407.012 53.8625 404.201 56.4462 404.201 61.6531C404.201 66.7219 406.893 69.4536 410.345 69.4536ZM411.676 66.1105C409.615 66.1105 408.491 64.2763 408.491 61.6334C408.491 59.0102 409.595 57.2055 411.676 57.2055C413.717 57.2055 414.861 58.9313 414.861 61.6334C414.861 64.3354 413.698 66.1105 411.676 66.1105ZM428.845 69.207H433.046V60.6373C433.046 58.7735 434.407 57.4915 436.261 57.4915C436.843 57.4915 437.642 57.5901 438.036 57.7183V53.9907C437.661 53.9019 437.139 53.8427 436.715 53.8427C435.018 53.8427 433.628 54.8289 433.076 56.7026H432.918V54.0597H428.845V69.207ZM446.406 69.5029C450.153 69.5029 452.678 67.6785 453.27 64.868L449.384 64.6116C448.96 65.7654 447.875 66.3669 446.475 66.3669C444.375 66.3669 443.043 64.9764 443.043 62.7181V62.7083H453.358V61.5545C453.358 56.4067 450.242 53.8625 446.238 53.8625C441.781 53.8625 438.892 57.028 438.892 61.7024C438.892 66.505 441.742 69.5029 446.406 69.5029ZM443.043 60.1048C443.132 58.3791 444.444 56.9984 446.307 56.9984C448.132 56.9984 449.394 58.3002 449.404 60.1048H443.043ZM464.157 54.0597H461.307V50.4306H457.106V54.0597H455.035V57.2154H457.106V65.1046C457.086 68.073 459.108 69.5423 462.155 69.4141C463.24 69.3747 464.009 69.1577 464.433 69.0197L463.772 65.8936C463.565 65.933 463.121 66.0316 462.727 66.0316C461.889 66.0316 461.307 65.716 461.307 64.5524V57.2154H464.157V54.0597ZM471.42 60.45C471.43 58.4974 472.623 57.3535 474.339 57.3535C476.045 57.3535 477.051 58.4481 477.041 60.3119V69.207H481.242V59.5624C481.252 56.0123 479.161 53.8625 476.005 53.8625C473.708 53.8625 472.169 54.9472 471.479 56.7322H471.302V49.0106H467.219V69.207H471.42V60.45ZM484.548 69.207H488.749V54.0597H484.548V69.207ZM486.658 52.1071C487.911 52.1071 488.936 51.1505 488.936 49.977C488.936 48.8134 487.911 47.8568 486.658 47.8568C485.416 47.8568 484.39 48.8134 484.39 49.977C484.39 51.1505 485.416 52.1071 486.658 52.1071ZM496.315 60.45C496.325 58.4974 497.489 57.3535 499.185 57.3535C500.871 57.3535 501.887 58.4579 501.877 60.3119V69.207H506.078V59.5624C506.078 56.032 504.007 53.8625 500.852 53.8625C498.603 53.8625 496.976 54.967 496.296 56.7322H496.118V54.0597H492.114V69.207H496.315V60.45ZM509.389 69.207H513.59V64.3946L514.724 63.1027L518.856 69.207H523.777L517.87 60.6176L523.491 54.0597H518.669L513.817 59.809H513.59V49.0106H509.389V69.207ZM540.036 54.0597H537.186V50.4306H532.985V54.0597H530.915V57.2154H532.985V65.1046C532.966 68.073 534.987 69.5423 538.035 69.4141C539.119 69.3747 539.889 69.1577 540.313 69.0197L539.652 65.8936C539.445 65.933 539.001 66.0316 538.607 66.0316C537.768 66.0316 537.186 65.716 537.186 64.5524V57.2154H540.036V54.0597ZM547.3 60.45C547.309 58.4974 548.503 57.3535 550.219 57.3535C551.925 57.3535 552.93 58.4481 552.921 60.3119V69.207H557.122V59.5624C557.131 56.0123 555.041 53.8625 551.885 53.8625C549.587 53.8625 548.049 54.9472 547.359 56.7322H547.181V49.0106H543.098V69.207H547.3V60.45ZM567.331 69.5029C571.078 69.5029 573.603 67.6785 574.194 64.868L570.309 64.6116C569.885 65.7654 568.8 66.3669 567.4 66.3669C565.299 66.3669 563.968 64.9764 563.968 62.7181V62.7083H574.283V61.5545C574.283 56.4067 571.167 53.8625 567.163 53.8625C562.706 53.8625 559.816 57.028 559.816 61.7024C559.816 66.505 562.666 69.5029 567.331 69.5029ZM563.968 60.1048C564.057 58.3791 565.368 56.9984 567.232 56.9984C569.057 56.9984 570.319 58.3002 570.329 60.1048H563.968ZM577.025 69.207H581.226V54.0597H577.025V69.207ZM579.135 52.1071C580.387 52.1071 581.413 51.1505 581.413 49.977C581.413 48.8134 580.387 47.8568 579.135 47.8568C577.892 47.8568 576.867 48.8134 576.867 49.977C576.867 51.1505 577.892 52.1071 579.135 52.1071ZM584.591 69.207H588.792V60.6373C588.792 58.7735 590.153 57.4915 592.007 57.4915C592.589 57.4915 593.387 57.5901 593.782 57.7183V53.9907C593.407 53.9019 592.885 53.8427 592.46 53.8427C590.764 53.8427 589.374 54.8289 588.822 56.7026H588.664V54.0597H584.591V69.207ZM602.46 69.207H606.602V66.7811H606.789C607.371 68.0434 608.643 69.4536 611.089 69.4536C614.54 69.4536 617.233 66.7219 617.233 61.6531C617.233 56.4462 614.422 53.8625 611.099 53.8625C608.564 53.8625 607.351 55.3713 606.789 56.604H606.661V49.0106H602.46V69.207ZM606.572 61.6334C606.572 58.9313 607.716 57.2055 609.758 57.2055C611.838 57.2055 612.943 59.0102 612.943 61.6334C612.943 64.2763 611.819 66.1105 609.758 66.1105C607.736 66.1105 606.572 64.3354 606.572 61.6334ZM624.355 69.493C626.594 69.493 628.043 68.5167 628.783 67.1065H628.901V69.207H632.885V58.9905C632.885 55.3811 629.828 53.8625 626.456 53.8625C622.827 53.8625 620.44 55.5981 619.858 58.3593L623.744 58.6749C624.03 57.669 624.927 56.9294 626.436 56.9294C627.866 56.9294 628.684 57.6493 628.684 58.8919V58.951C628.684 59.9273 627.649 60.0555 625.016 60.3119C622.018 60.588 619.326 61.5939 619.326 64.9764C619.326 67.9743 621.466 69.493 624.355 69.493ZM625.558 66.5937C624.266 66.5937 623.339 65.9922 623.339 64.8384C623.339 63.655 624.316 63.0731 625.795 62.8661C626.712 62.7379 628.211 62.5209 628.714 62.1856V63.793C628.714 65.3808 627.402 66.5937 625.558 66.5937ZM640.346 60.45C640.356 58.4974 641.519 57.3535 643.215 57.3535C644.902 57.3535 645.917 58.4579 645.908 60.3119V69.207H650.109V59.5624C650.109 56.032 648.038 53.8625 644.882 53.8625C642.634 53.8625 641.006 54.967 640.326 56.7322H640.148V54.0597H636.145V69.207H640.346V60.45ZM659.847 69.207H664.048V54.0597H659.847V69.207ZM661.957 52.1071C663.21 52.1071 664.235 51.1505 664.235 49.977C664.235 48.8134 663.21 47.8568 661.957 47.8568C660.715 47.8568 659.689 48.8134 659.689 49.977C659.689 51.1505 660.715 52.1071 661.957 52.1071ZM671.614 60.45C671.624 58.4974 672.788 57.3535 674.484 57.3535C676.17 57.3535 677.186 58.4579 677.176 60.3119V69.207H681.377V59.5624C681.377 56.032 679.306 53.8625 676.15 53.8625C673.902 53.8625 672.275 54.967 671.594 56.7322H671.417V54.0597H667.413V69.207H671.614V60.45ZM699.172 54.0597H696.322V50.4306H692.121V54.0597H690.05V57.2154H692.121V65.1046C692.102 68.073 694.123 69.5423 697.17 69.4141C698.255 69.3747 699.024 69.1577 699.448 69.0197L698.788 65.8936C698.581 65.933 698.137 66.0316 697.742 66.0316C696.904 66.0316 696.322 65.716 696.322 64.5524V57.2154H699.172V54.0597ZM706.435 60.45C706.445 58.4974 707.638 57.3535 709.354 57.3535C711.06 57.3535 712.066 58.4481 712.056 60.3119V69.207H716.257V59.5624C716.267 56.0123 714.177 53.8625 711.021 53.8625C708.723 53.8625 707.185 54.9472 706.494 56.7322H706.317V49.0106H702.234V69.207H706.435V60.45ZM726.467 69.5029C730.214 69.5029 732.739 67.6785 733.33 64.868L729.445 64.6116C729.021 65.7654 727.936 66.3669 726.536 66.3669C724.435 66.3669 723.104 64.9764 723.104 62.7181V62.7083H733.419V61.5545C733.419 56.4067 730.303 53.8625 726.299 53.8625C721.842 53.8625 718.952 57.028 718.952 61.7024C718.952 66.505 721.802 69.5029 726.467 69.5029ZM723.104 60.1048C723.193 58.3791 724.504 56.9984 726.368 56.9984C728.192 56.9984 729.455 58.3002 729.464 60.1048H723.104ZM104.102 92.0597H101.094V91.044C101.094 90.0184 101.508 89.4168 102.741 89.4168C103.244 89.4168 103.757 89.5253 104.092 89.6338L104.832 86.4781C104.309 86.3203 103.155 86.0639 101.863 86.0639C99.0133 86.0639 96.8931 87.6713 96.8931 90.9651V92.0597H94.7531V95.2154H96.8931V107.207H101.094V95.2154H104.102V92.0597ZM116.382 100.758C116.392 102.789 115.001 103.854 113.493 103.854C111.905 103.854 110.879 102.74 110.869 100.955V92.0597H106.668V101.704C106.678 105.245 108.749 107.404 111.796 107.404C114.074 107.404 115.711 106.231 116.392 104.456H116.55V107.207H120.583V92.0597H116.382V100.758ZM132 92.0597H129.15V88.4306H124.949V92.0597H122.878V95.2154H124.949V103.105C124.929 106.073 126.951 107.542 129.998 107.414C131.083 107.375 131.852 107.158 132.276 107.02L131.616 103.894C131.409 103.933 130.965 104.032 130.57 104.032C129.732 104.032 129.15 103.716 129.15 102.552V95.2154H132V92.0597ZM144.45 100.758C144.46 102.789 143.07 103.854 141.561 103.854C139.973 103.854 138.948 102.74 138.938 100.955V92.0597H134.737V101.704C134.747 105.245 136.818 107.404 139.865 107.404C142.143 107.404 143.78 106.231 144.46 104.456H144.618V107.207H148.651V92.0597H144.45V100.758ZM152.012 107.207H156.213V98.6373C156.213 96.7735 157.574 95.4915 159.428 95.4915C160.009 95.4915 160.808 95.5901 161.203 95.7183V91.9907C160.828 91.9019 160.305 91.8427 159.881 91.8427C158.185 91.8427 156.795 92.8289 156.242 94.7026H156.085V92.0597H152.012V107.207ZM169.573 107.503C173.32 107.503 175.845 105.678 176.436 102.868L172.551 102.612C172.127 103.765 171.042 104.367 169.642 104.367C167.541 104.367 166.21 102.976 166.21 100.718V100.708H176.525V99.5545C176.525 94.4067 173.409 91.8625 169.405 91.8625C164.948 91.8625 162.058 95.028 162.058 99.7024C162.058 104.505 164.908 107.503 169.573 107.503ZM166.21 98.1048C166.299 96.3791 167.61 94.9984 169.474 94.9984C171.298 94.9984 172.561 96.3002 172.571 98.1048H166.21ZM190.013 107.493C192.252 107.493 193.701 106.517 194.441 105.107H194.559V107.207H198.543V96.9905C198.543 93.3811 195.486 91.8625 192.114 91.8625C188.485 91.8625 186.098 93.5981 185.516 96.3593L189.402 96.6749C189.688 95.669 190.585 94.9294 192.094 94.9294C193.524 94.9294 194.342 95.6493 194.342 96.8919V96.951C194.342 97.9273 193.307 98.0555 190.674 98.3119C187.676 98.588 184.984 99.5939 184.984 102.976C184.984 105.974 187.124 107.493 190.013 107.493ZM191.216 104.594C189.924 104.594 188.997 103.992 188.997 102.838C188.997 101.655 189.974 101.073 191.453 100.866C192.37 100.738 193.869 100.521 194.372 100.186V101.793C194.372 103.381 193.06 104.594 191.216 104.594ZM206.004 98.45C206.014 96.4974 207.177 95.3535 208.873 95.3535C210.56 95.3535 211.575 96.4579 211.566 98.3119V107.207H215.767V97.5624C215.767 94.032 213.696 91.8625 210.54 91.8625C208.292 91.8625 206.664 92.967 205.984 94.7322H205.806V92.0597H201.803V107.207H206.004V98.45ZM224.659 107.454C227.105 107.454 228.377 106.043 228.959 104.781H229.136V107.207H233.278V87.0106H229.087V94.604H228.959C228.397 93.3713 227.184 91.8625 224.649 91.8625C221.326 91.8625 218.516 94.4462 218.516 99.6531C218.516 104.722 221.208 107.454 224.659 107.454ZM225.991 104.111C223.93 104.111 222.805 102.276 222.805 99.6334C222.805 97.0102 223.91 95.2055 225.991 95.2055C228.032 95.2055 229.176 96.9313 229.176 99.6334C229.176 102.335 228.012 104.111 225.991 104.111ZM247.479 107.493C249.717 107.493 251.167 106.517 251.907 105.107H252.025V107.207H256.009V96.9905C256.009 93.3811 252.952 91.8625 249.579 91.8625C245.95 91.8625 243.564 93.5981 242.982 96.3593L246.867 96.6749C247.153 95.669 248.051 94.9294 249.56 94.9294C250.99 94.9294 251.808 95.6493 251.808 96.8919V96.951C251.808 97.9273 250.773 98.0555 248.14 98.3119C245.142 98.588 242.45 99.5939 242.45 102.976C242.45 105.974 244.589 107.493 247.479 107.493ZM248.682 104.594C247.39 104.594 246.463 103.992 246.463 102.838C246.463 101.655 247.439 101.073 248.919 100.866C249.836 100.738 251.335 100.521 251.838 100.186V101.793C251.838 103.381 250.526 104.594 248.682 104.594ZM263.469 87.0106H259.268V107.207H263.469V87.0106ZM271.036 87.0106H266.835V107.207H271.036V87.0106ZM281.245 107.503C285.84 107.503 288.7 104.357 288.7 99.6925C288.7 94.9984 285.84 91.8625 281.245 91.8625C276.649 91.8625 273.79 94.9984 273.79 99.6925C273.79 104.357 276.649 107.503 281.245 107.503ZM281.265 104.249C279.144 104.249 278.06 102.306 278.06 99.6629C278.06 97.0201 279.144 95.0675 281.265 95.0675C283.345 95.0675 284.43 97.0201 284.43 99.6629C284.43 102.306 283.345 104.249 281.265 104.249ZM294.04 107.207H298.478L301.081 97.6808H301.269L303.872 107.207H308.32L312.432 92.0597H308.192L305.884 102.178H305.756L303.271 92.0597H299.099L296.654 102.237H296.515L294.168 92.0597H289.918L294.04 107.207ZM325.42 107.493C327.658 107.493 329.108 106.517 329.847 105.107H329.966V107.207H333.95V96.9905C333.95 93.3811 330.893 91.8625 327.52 91.8625C323.891 91.8625 321.505 93.5981 320.923 96.3593L324.808 96.6749C325.094 95.669 325.992 94.9294 327.5 94.9294C328.93 94.9294 329.749 95.6493 329.749 96.8919V96.951C329.749 97.9273 328.713 98.0555 326.08 98.3119C323.082 98.588 320.39 99.5939 320.39 102.976C320.39 105.974 322.53 107.493 325.42 107.493ZM326.623 104.594C325.331 104.594 324.404 103.992 324.404 102.838C324.404 101.655 325.38 101.073 326.859 100.866C327.777 100.738 329.276 100.521 329.778 100.186V101.793C329.778 103.381 328.467 104.594 326.623 104.594ZM337.209 107.207H341.41V98.6373C341.41 96.7735 342.771 95.4915 344.625 95.4915C345.207 95.4915 346.006 95.5901 346.4 95.7183V91.9907C346.025 91.9019 345.503 91.8427 345.079 91.8427C343.382 91.8427 341.992 92.8289 341.44 94.7026H341.282V92.0597H337.209V107.207ZM357.388 92.0597H354.538V88.4306H350.337V92.0597H348.266V95.2154H350.337V103.105C350.318 106.073 352.339 107.542 355.386 107.414C356.471 107.375 357.24 107.158 357.664 107.02L357.004 103.894C356.797 103.933 356.353 104.032 355.958 104.032C355.12 104.032 354.538 103.716 354.538 102.552V95.2154H357.388V92.0597ZM360.125 107.207H364.326V92.0597H360.125V107.207ZM362.235 90.1071C363.488 90.1071 364.513 89.1505 364.513 87.977C364.513 86.8134 363.488 85.8568 362.235 85.8568C360.993 85.8568 359.967 86.8134 359.967 87.977C359.967 89.1505 360.993 90.1071 362.235 90.1071ZM380.294 96.3791C379.919 93.5882 377.671 91.8625 373.845 91.8625C369.969 91.8625 367.415 93.6573 367.425 96.5763C367.415 98.8444 368.845 100.314 371.803 100.906L374.427 101.428C375.748 101.694 376.35 102.178 376.369 102.937C376.35 103.834 375.373 104.475 373.904 104.475C372.405 104.475 371.409 103.834 371.153 102.602L367.021 102.819C367.415 105.718 369.88 107.503 373.894 107.503C377.819 107.503 380.63 105.501 380.639 102.513C380.63 100.324 379.2 99.0121 376.261 98.4105L373.519 97.8583C372.109 97.5526 371.586 97.0694 371.596 96.3396C371.586 95.4323 372.612 94.8407 373.914 94.8407C375.373 94.8407 376.241 95.6394 376.448 96.6157L380.294 96.3791ZM391.342 92.0597H388.492V88.4306H384.291V92.0597H382.22V95.2154H384.291V103.105C384.271 106.073 386.293 107.542 389.34 107.414C390.424 107.375 391.194 107.158 391.618 107.02L390.957 103.894C390.75 103.933 390.306 104.032 389.912 104.032C389.073 104.032 388.492 103.716 388.492 102.552V95.2154H391.342V92.0597ZM406.464 96.3791C406.09 93.5882 403.841 91.8625 400.015 91.8625C396.139 91.8625 393.585 93.6573 393.595 96.5763C393.585 98.8444 395.015 100.314 397.974 100.906L400.597 101.428C401.918 101.694 402.52 102.178 402.539 102.937C402.52 103.834 401.543 104.475 400.074 104.475C398.575 104.475 397.579 103.834 397.323 102.602L393.191 102.819C393.585 105.718 396.051 107.503 400.064 107.503C403.989 107.503 406.8 105.501 406.809 102.513C406.8 100.324 405.37 99.0121 402.431 98.4105L399.689 97.8583C398.279 97.5526 397.757 97.0694 397.766 96.3396C397.757 95.4323 398.782 94.8407 400.084 94.8407C401.543 94.8407 402.411 95.6394 402.618 96.6157L406.464 96.3791ZM420.201 107.493C422.44 107.493 423.89 106.517 424.629 105.107H424.748V107.207H428.732V96.9905C428.732 93.3811 425.675 91.8625 422.302 91.8625C418.673 91.8625 416.286 93.5981 415.705 96.3593L419.59 96.6749C419.876 95.669 420.773 94.9294 422.282 94.9294C423.712 94.9294 424.531 95.6493 424.531 96.8919V96.951C424.531 97.9273 423.495 98.0555 420.862 98.3119C417.864 98.588 415.172 99.5939 415.172 102.976C415.172 105.974 417.312 107.493 420.201 107.493ZM421.405 104.594C420.113 104.594 419.186 103.992 419.186 102.838C419.186 101.655 420.162 101.073 421.641 100.866C422.558 100.738 424.057 100.521 424.56 100.186V101.793C424.56 103.381 423.249 104.594 421.405 104.594ZM436.192 98.45C436.202 96.4974 437.365 95.3535 439.062 95.3535C440.748 95.3535 441.764 96.4579 441.754 98.3119V107.207H445.955V97.5624C445.955 94.032 443.884 91.8625 440.728 91.8625C438.48 91.8625 436.853 92.967 436.172 94.7322H435.995V92.0597H431.991V107.207H436.192V98.45ZM454.848 107.454C457.293 107.454 458.565 106.043 459.147 104.781H459.325V107.207H463.467V87.0106H459.275V94.604H459.147C458.585 93.3713 457.372 91.8625 454.838 91.8625C451.514 91.8625 448.704 94.4462 448.704 99.6531C448.704 104.722 451.396 107.454 454.848 107.454ZM456.179 104.111C454.118 104.111 452.994 102.276 452.994 99.6334C452.994 97.0102 454.098 95.2055 456.179 95.2055C458.22 95.2055 459.364 96.9313 459.364 99.6334C459.364 102.335 458.2 104.111 456.179 104.111ZM483.061 100.758C483.071 102.789 481.681 103.854 480.172 103.854C478.584 103.854 477.559 102.74 477.549 100.955V92.0597H473.348V101.704C473.358 105.245 475.429 107.404 478.476 107.404C480.754 107.404 482.391 106.231 483.071 104.456H483.229V107.207H487.262V92.0597H483.061V100.758ZM503.226 96.3791C502.851 93.5882 500.603 91.8625 496.776 91.8625C492.901 91.8625 490.347 93.6573 490.356 96.5763C490.347 98.8444 491.777 100.314 494.735 100.906L497.358 101.428C498.68 101.694 499.281 102.178 499.301 102.937C499.281 103.834 498.305 104.475 496.835 104.475C495.337 104.475 494.341 103.834 494.084 102.602L489.952 102.819C490.347 105.718 492.812 107.503 496.826 107.503C500.751 107.503 503.561 105.501 503.571 102.513C503.561 100.324 502.131 99.0121 499.192 98.4105L496.451 97.8583C495.041 97.5526 494.518 97.0694 494.528 96.3396C494.518 95.4323 495.544 94.8407 496.845 94.8407C498.305 94.8407 499.173 95.6394 499.38 96.6157L503.226 96.3791ZM513.119 107.503C516.867 107.503 519.391 105.678 519.983 102.868L516.098 102.612C515.674 103.765 514.589 104.367 513.188 104.367C511.088 104.367 509.757 102.976 509.757 100.718V100.708H520.072V99.5545C520.072 94.4067 516.956 91.8625 512.952 91.8625C508.494 91.8625 505.605 95.028 505.605 99.7024C505.605 104.505 508.455 107.503 513.119 107.503ZM509.757 98.1048C509.845 96.3791 511.157 94.9984 513.021 94.9984C514.845 94.9984 516.107 96.3002 516.117 98.1048H509.757ZM522.813 107.207H527.014V98.6373C527.014 96.7735 528.375 95.4915 530.229 95.4915C530.811 95.4915 531.61 95.5901 532.004 95.7183V91.9907C531.63 91.9019 531.107 91.8427 530.683 91.8427C528.987 91.8427 527.596 92.8289 527.044 94.7026H526.886V92.0597H522.813V107.207ZM546.779 96.3791C546.405 93.5882 544.156 91.8625 540.33 91.8625C536.454 91.8625 533.9 93.6573 533.91 96.5763C533.9 98.8444 535.33 100.314 538.289 100.906L540.912 101.428C542.233 101.694 542.835 102.178 542.854 102.937C542.835 103.834 541.858 104.475 540.389 104.475C538.89 104.475 537.894 103.834 537.638 102.602L533.506 102.819C533.9 105.718 536.366 107.503 540.379 107.503C544.304 107.503 547.115 105.501 547.124 102.513C547.115 100.324 545.685 99.0121 542.746 98.4105L540.004 97.8583C538.594 97.5526 538.072 97.0694 538.081 96.3396C538.072 95.4323 539.097 94.8407 540.399 94.8407C541.858 94.8407 542.726 95.6394 542.933 96.6157L546.779 96.3791ZM564.254 92.0597H561.404V88.4306H557.203V92.0597H555.132V95.2154H557.203V103.105C557.183 106.073 559.205 107.542 562.252 107.414C563.337 107.375 564.106 107.158 564.53 107.02L563.869 103.894C563.662 103.933 563.219 104.032 562.824 104.032C561.986 104.032 561.404 103.716 561.404 102.552V95.2154H564.254V92.0597ZM573.672 107.503C578.267 107.503 581.127 104.357 581.127 99.6925C581.127 94.9984 578.267 91.8625 573.672 91.8625C569.076 91.8625 566.216 94.9984 566.216 99.6925C566.216 104.357 569.076 107.503 573.672 107.503ZM573.691 104.249C571.571 104.249 570.486 102.306 570.486 99.6629C570.486 97.0201 571.571 95.0675 573.691 95.0675C575.772 95.0675 576.857 97.0201 576.857 99.6629C576.857 102.306 575.772 104.249 573.691 104.249ZM590.286 107.207H594.487V98.1147C594.487 96.4382 595.552 95.3239 596.952 95.3239C598.333 95.3239 599.26 96.2706 599.26 97.7597V107.207H603.333V97.9569C603.333 96.3889 604.23 95.3239 605.759 95.3239C607.1 95.3239 608.106 96.1621 608.106 97.8484V107.207H612.297V97.0201C612.297 93.7362 610.344 91.8625 607.524 91.8625C605.305 91.8625 603.579 92.9965 602.958 94.7322H602.8C602.317 92.9768 600.769 91.8625 598.688 91.8625C596.647 91.8625 595.098 92.9472 594.467 94.7322H594.29V92.0597H590.286V107.207ZM619.935 107.493C622.173 107.493 623.623 106.517 624.363 105.107H624.481V107.207H628.465V96.9905C628.465 93.3811 625.408 91.8625 622.035 91.8625C618.406 91.8625 616.02 93.5981 615.438 96.3593L619.323 96.6749C619.609 95.669 620.507 94.9294 622.016 94.9294C623.445 94.9294 624.264 95.6493 624.264 96.8919V96.951C624.264 97.9273 623.228 98.0555 620.595 98.3119C617.598 98.588 614.905 99.5939 614.905 102.976C614.905 105.974 617.045 107.493 619.935 107.493ZM621.138 104.594C619.846 104.594 618.919 103.992 618.919 102.838C618.919 101.655 619.895 101.073 621.375 100.866C622.292 100.738 623.791 100.521 624.294 100.186V101.793C624.294 103.381 622.982 104.594 621.138 104.594ZM631.724 107.207H635.925V102.395L637.059 101.103L641.191 107.207H646.112L640.205 98.6176L645.826 92.0597H641.004L636.152 97.809H635.925V87.0106H631.724V107.207ZM654.167 107.503C657.914 107.503 660.439 105.678 661.03 102.868L657.145 102.612C656.721 103.765 655.636 104.367 654.236 104.367C652.135 104.367 650.804 102.976 650.804 100.718V100.708H661.119V99.5545C661.119 94.4067 658.003 91.8625 653.999 91.8625C649.542 91.8625 646.652 95.028 646.652 99.7024C646.652 104.505 649.502 107.503 654.167 107.503ZM650.804 98.1048C650.893 96.3791 652.204 94.9984 654.068 94.9984C655.892 94.9984 657.155 96.3002 657.165 98.1048H650.804ZM678.345 92.0597H675.495V88.4306H671.294V92.0597H669.223V95.2154H671.294V103.105C671.274 106.073 673.296 107.542 676.343 107.414C677.428 107.375 678.197 107.158 678.621 107.02L677.96 103.894C677.753 103.933 677.309 104.032 676.915 104.032C676.077 104.032 675.495 103.716 675.495 102.552V95.2154H678.345V92.0597ZM685.608 98.45C685.618 96.4974 686.811 95.3535 688.527 95.3535C690.233 95.3535 691.239 96.4481 691.229 98.3119V107.207H695.43V97.5624C695.44 94.0123 693.349 91.8625 690.193 91.8625C687.896 91.8625 686.357 92.9472 685.667 94.7322H685.489V87.0106H681.407V107.207H685.608V98.45ZM705.639 107.503C709.386 107.503 711.911 105.678 712.503 102.868L708.617 102.612C708.193 103.765 707.108 104.367 705.708 104.367C703.608 104.367 702.276 102.976 702.276 100.718V100.708H712.591V99.5545C712.591 94.4067 709.475 91.8625 705.471 91.8625C701.014 91.8625 698.124 95.028 698.124 99.7024C698.124 104.505 700.974 107.503 705.639 107.503ZM702.276 98.1048C702.365 96.3791 703.677 94.9984 705.54 94.9984C707.365 94.9984 708.627 96.3002 708.637 98.1048H702.276ZM715.333 107.207H719.534V92.0597H715.333V107.207ZM717.443 90.1071C718.696 90.1071 719.721 89.1505 719.721 87.977C719.721 86.8134 718.696 85.8568 717.443 85.8568C716.201 85.8568 715.175 86.8134 715.175 87.977C715.175 89.1505 716.201 90.1071 717.443 90.1071ZM722.899 107.207H727.1V98.6373C727.1 96.7735 728.461 95.4915 730.315 95.4915C730.897 95.4915 731.696 95.5901 732.09 95.7183V91.9907C731.715 91.9019 731.193 91.8427 730.769 91.8427C729.072 91.8427 727.682 92.8289 727.13 94.7026H726.972V92.0597H722.899V107.207ZM747.533 107.503C752.129 107.503 754.989 104.357 754.989 99.6925C754.989 94.9984 752.129 91.8625 747.533 91.8625C742.938 91.8625 740.078 94.9984 740.078 99.6925C740.078 104.357 742.938 107.503 747.533 107.503ZM747.553 104.249C745.433 104.249 744.348 102.306 744.348 99.6629C744.348 97.0201 745.433 95.0675 747.553 95.0675C749.634 95.0675 750.719 97.0201 750.719 99.6629C750.719 102.306 749.634 104.249 747.553 104.249ZM760.329 107.207H764.766L767.37 97.6808H767.557L770.161 107.207H774.608L778.72 92.0597H774.48L772.172 102.178H772.044L769.559 92.0597H765.388L762.942 102.237H762.804L760.457 92.0597H756.207L760.329 107.207ZM785.162 98.45C785.172 96.4974 786.336 95.3535 788.032 95.3535C789.718 95.3535 790.734 96.4579 790.724 98.3119V107.207H794.925V97.5624C794.925 94.032 792.854 91.8625 789.699 91.8625C787.45 91.8625 785.823 92.967 785.143 94.7322H784.965V92.0597H780.961V107.207H785.162V98.45ZM101.538 145.454C103.984 145.454 105.256 144.043 105.838 142.781H106.015V145.207H110.157V125.011H105.966V132.604H105.838C105.275 131.371 104.062 129.862 101.528 129.862C98.2047 129.862 95.3941 132.446 95.3941 137.653C95.3941 142.722 98.0863 145.454 101.538 145.454ZM102.869 142.111C100.808 142.111 99.6839 140.276 99.6839 137.633C99.6839 135.01 100.788 133.206 102.869 133.206C104.911 133.206 106.054 134.931 106.054 137.633C106.054 140.335 104.891 142.111 102.869 142.111ZM120.514 145.503C124.261 145.503 126.786 143.678 127.378 140.868L123.492 140.612C123.068 141.765 121.983 142.367 120.583 142.367C118.482 142.367 117.151 140.976 117.151 138.718V138.708H127.466V137.554C127.466 132.407 124.35 129.862 120.346 129.862C115.889 129.862 112.999 133.028 112.999 137.702C112.999 142.505 115.849 145.503 120.514 145.503ZM117.151 136.105C117.24 134.379 118.552 132.998 120.415 132.998C122.24 132.998 123.502 134.3 123.512 136.105H117.151ZM137.052 145.503C141.085 145.503 143.62 143.136 143.817 139.655H139.852C139.606 141.272 138.541 142.18 137.101 142.18C135.139 142.18 133.866 140.533 133.866 137.633C133.866 134.774 135.149 133.136 137.101 133.136C138.639 133.136 139.626 134.152 139.852 135.661H143.817C143.639 132.16 140.987 129.862 137.032 129.862C132.437 129.862 129.596 133.048 129.596 137.693C129.596 142.298 132.387 145.503 137.052 145.503ZM146.507 145.207H150.708V130.06H146.507V145.207ZM148.617 128.107C149.869 128.107 150.895 127.151 150.895 125.977C150.895 124.813 149.869 123.857 148.617 123.857C147.374 123.857 146.349 124.813 146.349 125.977C146.349 127.151 147.374 128.107 148.617 128.107ZM166.676 134.379C166.301 131.588 164.053 129.862 160.226 129.862C156.351 129.862 153.797 131.657 153.807 134.576C153.797 136.844 155.227 138.314 158.185 138.906L160.808 139.428C162.13 139.694 162.731 140.178 162.751 140.937C162.731 141.834 161.755 142.475 160.286 142.475C158.787 142.475 157.791 141.834 157.534 140.602L153.402 140.819C153.797 143.718 156.262 145.503 160.276 145.503C164.201 145.503 167.011 143.501 167.021 140.513C167.011 138.324 165.581 137.012 162.642 136.411L159.901 135.858C158.491 135.553 157.968 135.069 157.978 134.34C157.968 133.432 158.994 132.841 160.295 132.841C161.755 132.841 162.623 133.639 162.83 134.616L166.676 134.379ZM169.666 145.207H173.867V130.06H169.666V145.207ZM171.777 128.107C173.029 128.107 174.055 127.151 174.055 125.977C174.055 124.813 173.029 123.857 171.777 123.857C170.534 123.857 169.509 124.813 169.509 125.977C169.509 127.151 170.534 128.107 171.777 128.107ZM184.077 145.503C188.672 145.503 191.532 142.357 191.532 137.693C191.532 132.998 188.672 129.862 184.077 129.862C179.481 129.862 176.621 132.998 176.621 137.693C176.621 142.357 179.481 145.503 184.077 145.503ZM184.096 142.249C181.976 142.249 180.891 140.306 180.891 137.663C180.891 135.02 181.976 133.067 184.096 133.067C186.177 133.067 187.262 135.02 187.262 137.663C187.262 140.306 186.177 142.249 184.096 142.249ZM198.465 136.45C198.474 134.497 199.638 133.353 201.334 133.353C203.021 133.353 204.036 134.458 204.026 136.312V145.207H208.227V135.562C208.227 132.032 206.157 129.862 203.001 129.862C200.752 129.862 199.125 130.967 198.445 132.732H198.267V130.06H194.264V145.207H198.465V136.45ZM222.285 145.493C224.524 145.493 225.973 144.517 226.713 143.107H226.831V145.207H230.815V134.99C230.815 131.381 227.758 129.862 224.386 129.862C220.757 129.862 218.37 131.598 217.788 134.359L221.674 134.675C221.96 133.669 222.857 132.929 224.366 132.929C225.796 132.929 226.614 133.649 226.614 134.892V134.951C226.614 135.927 225.579 136.056 222.946 136.312C219.948 136.588 217.256 137.594 217.256 140.976C217.256 143.974 219.396 145.493 222.285 145.493ZM223.488 142.594C222.196 142.594 221.269 141.992 221.269 140.838C221.269 139.655 222.246 139.073 223.725 138.866C224.642 138.738 226.141 138.521 226.644 138.186V139.793C226.644 141.381 225.332 142.594 223.488 142.594ZM238.276 136.45C238.285 134.497 239.449 133.353 241.145 133.353C242.832 133.353 243.847 134.458 243.838 136.312V145.207H248.039V135.562C248.039 132.032 245.968 129.862 242.812 129.862C240.564 129.862 238.936 130.967 238.256 132.732H238.078V130.06H234.075V145.207H238.276V136.45ZM256.931 145.454C259.377 145.454 260.649 144.043 261.231 142.781H261.408V145.207H265.55V125.011H261.359V132.604H261.231C260.669 131.371 259.456 129.862 256.921 129.862C253.598 129.862 250.787 132.446 250.787 137.653C250.787 142.722 253.48 145.454 256.931 145.454ZM258.263 142.111C256.201 142.111 255.077 140.276 255.077 137.633C255.077 135.01 256.182 133.206 258.263 133.206C260.304 133.206 261.448 134.931 261.448 137.633C261.448 140.335 260.284 142.111 258.263 142.111ZM282.275 145.503C286.309 145.503 288.843 143.136 289.04 139.655H285.076C284.83 141.272 283.764 142.18 282.325 142.18C280.362 142.18 279.09 140.533 279.09 137.633C279.09 134.774 280.372 133.136 282.325 133.136C283.863 133.136 284.849 134.152 285.076 135.661H289.04C288.863 132.16 286.21 129.862 282.256 129.862C277.66 129.862 274.82 133.048 274.82 137.693C274.82 142.298 277.611 145.503 282.275 145.503ZM295.931 136.45C295.941 134.497 297.134 133.353 298.85 133.353C300.556 133.353 301.562 134.448 301.552 136.312V145.207H305.753V135.562C305.763 132.012 303.672 129.862 300.517 129.862C298.219 129.862 296.681 130.947 295.99 132.732H295.813V125.011H291.73V145.207H295.931V136.45ZM315.903 145.503C320.499 145.503 323.359 142.357 323.359 137.693C323.359 132.998 320.499 129.862 315.903 129.862C311.308 129.862 308.448 132.998 308.448 137.693C308.448 142.357 311.308 145.503 315.903 145.503ZM315.923 142.249C313.803 142.249 312.718 140.306 312.718 137.663C312.718 135.02 313.803 133.067 315.923 133.067C318.004 133.067 319.089 135.02 319.089 137.663C319.089 140.306 318.004 142.249 315.923 142.249ZM326.09 145.207H330.291V130.06H326.09V145.207ZM328.201 128.107C329.453 128.107 330.479 127.151 330.479 125.977C330.479 124.813 329.453 123.857 328.201 123.857C326.958 123.857 325.932 124.813 325.932 125.977C325.932 127.151 326.958 128.107 328.201 128.107ZM340.5 145.503C344.534 145.503 347.068 143.136 347.265 139.655H343.301C343.055 141.272 341.99 142.18 340.55 142.18C338.587 142.18 337.315 140.533 337.315 137.633C337.315 134.774 338.597 133.136 340.55 133.136C342.088 133.136 343.074 134.152 343.301 135.661H347.265C347.088 132.16 344.435 129.862 340.481 129.862C335.885 129.862 333.045 133.048 333.045 137.693C333.045 142.298 335.836 145.503 340.5 145.503ZM356.858 145.503C360.606 145.503 363.13 143.678 363.722 140.868L359.836 140.612C359.412 141.765 358.328 142.367 356.927 142.367C354.827 142.367 353.495 140.976 353.495 138.718V138.708H363.811V137.554C363.811 132.407 360.694 129.862 356.691 129.862C352.233 129.862 349.344 133.028 349.344 137.702C349.344 142.505 352.194 145.503 356.858 145.503ZM353.495 136.105C353.584 134.379 354.896 132.998 356.76 132.998C358.584 132.998 359.846 134.3 359.856 136.105H353.495ZM369.008 145.463C370.27 145.463 371.365 144.408 371.374 143.097C371.365 141.805 370.27 140.75 369.008 140.75C367.706 140.75 366.631 141.805 366.641 143.097C366.631 144.408 367.706 145.463 369.008 145.463ZM375.578 125.011H372.422V127.16C372.422 128.827 371.831 130.04 371.17 131.085L373.024 132.18C374.414 131.016 375.578 128.945 375.578 127.141V125.011ZM380.528 125.011H377.373V127.16C377.373 128.827 376.781 130.04 376.12 131.085L377.974 132.18C379.365 131.016 380.528 128.945 380.528 127.141V125.011Z" fill="url(#paint0_linear)"/>
<defs>
<linearGradient id="paint0_linear" x1="267.625" y1="0.907011" x2="199.011" y2="238.316" gradientUnits="userSpaceOnUse">
<stop/>
<stop offset="1" stop-color="#FFE2AF"/>
</linearGradient>
</defs>
</svg>
