<svg width="795" height="146" viewBox="0 0 795 146" fill="none" xmlns="http://www.w3.org/2000/svg">
<path d="M32.2356 107C23.2586 107 15.6418 103.881 9.38506 97.6426C3.12835 91.4043 0 81.3688 0 67.5361C0 50.1774 4.89655 35.2598 14.6897 22.7833C24.4828 10.0355 37.9483 2.44107 55.0862 0L56.7184 13.019C50.1897 13.8327 43.6609 16.4094 37.1322 20.749C30.8755 24.8175 27.7471 29.8352 27.7471 35.8023C27.7471 38.7858 28.4272 40.82 29.7874 41.905C31.4195 42.9899 33.8678 44.0748 37.1322 45.1597C54.5421 50.0418 63.2471 60.0773 63.2471 75.2661C63.2471 84.2167 60.3908 91.8111 54.6782 98.0494C49.2375 104.016 41.7567 107 32.2356 107ZM110.989 107C102.011 107 94.3946 103.881 88.1379 97.6426C81.8812 91.1331 78.7529 80.962 78.7529 67.1293C78.7529 50.0418 83.6494 35.2598 93.4425 22.7833C103.236 10.0355 116.701 2.44107 133.839 0L135.471 12.6122C128.671 13.6971 122.142 16.2738 115.885 20.3422C109.628 24.4106 106.5 29.4284 106.5 35.3954C106.5 38.379 107.18 40.4132 108.54 41.4981C110.172 42.583 112.621 43.6679 115.885 44.7529C133.295 49.635 142 59.8061 142 75.2661C142 84.2167 139.144 91.8111 133.431 98.0494C127.99 104.016 120.51 107 110.989 107Z" fill="#FEF5E1"/>
<path d="M100.221 49.0105H95.9505V69.2069H100.221V49.0105Z" fill="url(#paint0_linear)"/>
<path d="M118.139 54.0596H115.289V50.4306H111.088V54.0596H109.017V57.2153H111.088V65.1045C111.068 68.0729 113.09 69.5422 116.137 69.414C117.222 69.3746 117.991 69.1576 118.415 69.0196L117.754 65.8935C117.547 65.9329 117.103 66.0315 116.709 66.0315C115.871 66.0315 115.289 65.716 115.289 64.5523V57.2153H118.139V54.0596Z" fill="url(#paint1_linear)"/>
<path d="M125.402 60.4499C125.412 58.4973 126.605 57.3534 128.321 57.3534C130.027 57.3534 131.033 58.448 131.023 60.3118V69.2069H135.224V59.5623C135.234 56.0122 133.143 53.8624 129.988 53.8624C127.69 53.8624 126.151 54.9471 125.461 56.7321H125.284V49.0105H121.201V69.2069H125.402V60.4499Z" fill="url(#paint2_linear)"/>
<path d="M138.53 69.2069H142.731V54.0596H138.53V69.2069ZM140.641 52.107C141.893 52.107 142.919 51.1504 142.919 49.9769C142.919 48.8133 141.893 47.8567 140.641 47.8567C139.398 47.8567 138.372 48.8133 138.372 49.9769C138.372 51.1504 139.398 52.107 140.641 52.107Z" fill="url(#paint3_linear)"/>
<path d="M150.297 60.4499C150.307 58.4973 151.471 57.3534 153.167 57.3534C154.853 57.3534 155.869 58.4579 155.859 60.3118V69.2069H160.06V59.5623C160.06 56.0319 157.989 53.8624 154.834 53.8624C152.585 53.8624 150.958 54.9669 150.278 56.7321H150.1V54.0596H146.096V69.2069H150.297V60.4499Z" fill="url(#paint4_linear)"/>
<path d="M163.371 69.2069H167.572V64.3945L168.706 63.1026L172.838 69.2069H177.759L171.852 60.6175L177.473 54.0596H172.651L167.799 59.8089H167.572V49.0105H163.371V69.2069Z" fill="url(#paint5_linear)"/>
<path d="M190.311 49.0105H186.041V69.2069H190.311V49.0105Z" fill="url(#paint6_linear)"/>
<path d="M197.946 60.4499C197.956 58.4973 199.119 57.3534 200.816 57.3534C202.502 57.3534 203.518 58.4579 203.508 60.3118V69.2069H207.709V59.5623C207.709 56.0319 205.638 53.8624 202.482 53.8624C200.234 53.8624 198.607 54.9669 197.926 56.7321H197.749V54.0596H193.745V69.2069H197.946V60.4499Z" fill="url(#paint7_linear)"/>
<path d="M223.623 58.379C223.248 55.5881 221 53.8624 217.174 53.8624C213.298 53.8624 210.744 55.6572 210.754 58.5762C210.744 60.8443 212.174 62.3137 215.132 62.9054L217.755 63.4281C219.077 63.6943 219.678 64.1776 219.698 64.9369C219.678 65.8343 218.702 66.4753 217.233 66.4753C215.734 66.4753 214.738 65.8343 214.481 64.6016L210.349 64.8186C210.744 67.7178 213.209 69.5028 217.223 69.5028C221.148 69.5028 223.958 67.5009 223.968 64.5128C223.958 62.3236 222.528 61.012 219.59 60.4104L216.848 59.8582C215.438 59.5525 214.915 59.0693 214.925 58.3395C214.915 57.4323 215.941 56.8406 217.243 56.8406C218.702 56.8406 219.57 57.6393 219.777 58.6156L223.623 58.379Z" fill="url(#paint8_linear)"/>
<path d="M234.67 54.0596H231.82V50.4306H227.619V54.0596H225.548V57.2153H227.619V65.1045C227.6 68.0729 229.621 69.5422 232.668 69.414C233.753 69.3746 234.522 69.1576 234.946 69.0196L234.286 65.8935C234.079 65.9329 233.635 66.0315 233.24 66.0315C232.402 66.0315 231.82 65.716 231.82 64.5523V57.2153H234.67V54.0596Z" fill="url(#paint9_linear)"/>
<path d="M241.726 69.4929C243.965 69.4929 245.415 68.5166 246.154 67.1064H246.272V69.2069H250.257V58.9904C250.257 55.3811 247.199 53.8624 243.827 53.8624C240.198 53.8624 237.811 55.598 237.229 58.3592L241.115 58.6748C241.401 57.6689 242.298 56.9293 243.807 56.9293C245.237 56.9293 246.056 57.6492 246.056 58.8918V58.9509C246.056 59.9272 245.02 60.0554 242.387 60.3118C239.389 60.5879 236.697 61.5938 236.697 64.9763C236.697 67.9742 238.837 69.4929 241.726 69.4929ZM242.929 66.5936C241.638 66.5936 240.711 65.9921 240.711 64.8383C240.711 63.6549 241.687 63.0731 243.166 62.866C244.083 62.7378 245.582 62.5208 246.085 62.1855V63.7929C246.085 65.3807 244.774 66.5936 242.929 66.5936Z" fill="url(#paint10_linear)"/>
<path d="M260.34 75.1041C264.669 75.1041 267.746 73.1318 267.746 69.3549V54.0596H263.575V56.6039H263.417C262.855 55.3712 261.622 53.8624 259.088 53.8624C255.764 53.8624 252.954 56.4461 252.954 61.6037C252.954 66.6429 255.685 68.99 259.097 68.99C261.513 68.99 262.865 67.777 263.417 66.5246H263.594V69.2957C263.594 71.2779 262.263 72.0865 260.439 72.0865C258.585 72.0865 257.648 71.2779 257.303 70.4594L253.417 70.982C253.92 73.2699 256.257 75.1041 260.34 75.1041ZM260.429 65.8343C258.368 65.8343 257.243 64.1973 257.243 61.584C257.243 59.0101 258.348 57.2054 260.429 57.2054C262.47 57.2054 263.614 58.9312 263.614 61.584C263.614 64.2564 262.45 65.8343 260.429 65.8343Z" fill="url(#paint11_linear)"/>
<path d="M271.089 69.2069H275.29V60.6373C275.29 58.7734 276.651 57.4914 278.505 57.4914C279.087 57.4914 279.886 57.59 280.28 57.7182V53.9906C279.905 53.9018 279.383 53.8426 278.959 53.8426C277.262 53.8426 275.872 54.8288 275.32 56.7025H275.162V54.0596H271.089V69.2069Z" fill="url(#paint12_linear)"/>
<path d="M286.337 69.4929C288.576 69.4929 290.026 68.5166 290.765 67.1064H290.884V69.2069H294.868V58.9904C294.868 55.3811 291.811 53.8624 288.438 53.8624C284.809 53.8624 282.422 55.598 281.841 58.3592L285.726 58.6748C286.012 57.6689 286.909 56.9293 288.418 56.9293C289.848 56.9293 290.667 57.6492 290.667 58.8918V58.9509C290.667 59.9272 289.631 60.0554 286.998 60.3118C284 60.5879 281.308 61.5938 281.308 64.9763C281.308 67.9742 283.448 69.4929 286.337 69.4929ZM287.541 66.5936C286.249 66.5936 285.322 65.9921 285.322 64.8383C285.322 63.6549 286.298 63.0731 287.777 62.866C288.694 62.7378 290.193 62.5208 290.696 62.1855V63.7929C290.696 65.3807 289.385 66.5936 287.541 66.5936Z" fill="url(#paint13_linear)"/>
<path d="M298.127 69.2069H302.328V60.1146C302.328 58.4381 303.393 57.3238 304.793 57.3238C306.174 57.3238 307.101 58.2705 307.101 59.7596V69.2069H311.174V59.9568C311.174 58.3888 312.071 57.3238 313.6 57.3238C314.941 57.3238 315.947 58.162 315.947 59.8483V69.2069H320.138V59.02C320.138 55.7361 318.185 53.8624 315.365 53.8624C313.146 53.8624 311.42 54.9965 310.799 56.7321H310.641C310.158 54.9767 308.61 53.8624 306.529 53.8624C304.488 53.8624 302.939 54.9471 302.308 56.7321H302.131V54.0596H298.127V69.2069Z" fill="url(#paint14_linear)"/>
<path d="M342.487 58.379C342.112 55.5881 339.863 53.8624 336.037 53.8624C332.162 53.8624 329.607 55.6572 329.617 58.5762C329.607 60.8443 331.037 62.3137 333.996 62.9054L336.619 63.4281C337.94 63.6943 338.542 64.1776 338.562 64.9369C338.542 65.8343 337.566 66.4753 336.096 66.4753C334.597 66.4753 333.601 65.8343 333.345 64.6016L329.213 64.8186C329.607 67.7178 332.073 69.5028 336.087 69.5028C340.011 69.5028 342.822 67.5009 342.832 64.5128C342.822 62.3236 341.392 61.012 338.453 60.4104L335.712 59.8582C334.302 59.5525 333.779 59.0693 333.789 58.3395C333.779 57.4323 334.805 56.8406 336.106 56.8406C337.566 56.8406 338.434 57.6393 338.641 58.6156L342.487 58.379Z" fill="url(#paint15_linear)"/>
<path d="M349.678 60.4499C349.688 58.4973 350.881 57.3534 352.597 57.3534C354.303 57.3534 355.309 58.448 355.299 60.3118V69.2069H359.5V59.5623C359.51 56.0122 357.419 53.8624 354.264 53.8624C351.966 53.8624 350.428 54.9471 349.737 56.7321H349.56V49.0105H345.477V69.2069H349.678V60.4499Z" fill="url(#paint16_linear)"/>
<path d="M369.65 69.5028C374.246 69.5028 377.106 66.357 377.106 61.6924C377.106 56.9983 374.246 53.8624 369.65 53.8624C365.055 53.8624 362.195 56.9983 362.195 61.6924C362.195 66.357 365.055 69.5028 369.65 69.5028ZM369.67 66.2485C367.55 66.2485 366.465 64.3058 366.465 61.6629C366.465 59.02 367.55 57.0674 369.67 57.0674C371.751 57.0674 372.836 59.02 372.836 61.6629C372.836 64.3058 371.751 66.2485 369.67 66.2485Z" fill="url(#paint17_linear)"/>
<path d="M389.551 62.7575C389.561 64.789 388.17 65.854 386.661 65.854C385.074 65.854 384.048 64.7397 384.038 62.9547V54.0596H379.837V63.7042C379.847 67.2445 381.918 69.4042 384.965 69.4042C387.243 69.4042 388.88 68.2306 389.561 66.4556H389.719V69.2069H393.752V54.0596H389.551V62.7575Z" fill="url(#paint18_linear)"/>
<path d="M401.313 49.0105H397.112V69.2069H401.313V49.0105Z" fill="url(#paint19_linear)"/>
<path d="M410.26 69.4535C412.706 69.4535 413.978 68.0433 414.56 66.781H414.737V69.2069H418.879V49.0105H414.688V56.6039H414.56C413.998 55.3712 412.785 53.8624 410.25 53.8624C406.927 53.8624 404.116 56.4461 404.116 61.653C404.116 66.7218 406.809 69.4535 410.26 69.4535ZM411.591 66.1104C409.53 66.1104 408.406 64.2762 408.406 61.6333C408.406 59.0101 409.511 57.2054 411.591 57.2054C413.633 57.2054 414.777 58.9312 414.777 61.6333C414.777 64.3353 413.613 66.1104 411.591 66.1104Z" fill="url(#paint20_linear)"/>
<path d="M428.76 69.2069H432.961V60.6373C432.961 58.7734 434.322 57.4914 436.176 57.4914C436.758 57.4914 437.557 57.59 437.951 57.7182V53.9906C437.577 53.9018 437.054 53.8426 436.63 53.8426C434.934 53.8426 433.543 54.8288 432.991 56.7025H432.833V54.0596H428.76V69.2069Z" fill="url(#paint21_linear)"/>
<path d="M446.321 69.5028C450.069 69.5028 452.593 67.6784 453.185 64.8679L449.3 64.6115C448.875 65.7653 447.791 66.3668 446.39 66.3668C444.29 66.3668 442.959 64.9763 442.959 62.718V62.7082H453.274V61.5544C453.274 56.4067 450.157 53.8624 446.154 53.8624C441.696 53.8624 438.807 57.0279 438.807 61.7023C438.807 66.5049 441.657 69.5028 446.321 69.5028ZM442.959 60.1047C443.047 58.379 444.359 56.9983 446.223 56.9983C448.047 56.9983 449.309 58.3001 449.319 60.1047H442.959Z" fill="url(#paint22_linear)"/>
<path d="M464.072 54.0596H461.222V50.4306H457.021V54.0596H454.95V57.2153H457.021V65.1045C457.001 68.0729 459.023 69.5422 462.07 69.414C463.155 69.3746 463.924 69.1576 464.348 69.0196L463.688 65.8935C463.48 65.9329 463.037 66.0315 462.642 66.0315C461.804 66.0315 461.222 65.716 461.222 64.5523V57.2153H464.072V54.0596Z" fill="url(#paint23_linear)"/>
<path d="M471.335 60.4499C471.345 58.4973 472.538 57.3534 474.254 57.3534C475.96 57.3534 476.966 58.448 476.956 60.3118V69.2069H481.157V59.5623C481.167 56.0122 479.076 53.8624 475.921 53.8624C473.623 53.8624 472.085 54.9471 471.394 56.7321H471.217V49.0105H467.134V69.2069H471.335V60.4499Z" fill="url(#paint24_linear)"/>
<path d="M484.463 69.2069H488.664V54.0596H484.463V69.2069ZM486.574 52.107C487.826 52.107 488.852 51.1504 488.852 49.9769C488.852 48.8133 487.826 47.8567 486.574 47.8567C485.331 47.8567 484.306 48.8133 484.306 49.9769C484.306 51.1504 485.331 52.107 486.574 52.107Z" fill="url(#paint25_linear)"/>
<path d="M496.231 60.4499C496.24 58.4973 497.404 57.3534 499.1 57.3534C500.787 57.3534 501.802 58.4579 501.793 60.3118V69.2069H505.994V59.5623C505.994 56.0319 503.923 53.8624 500.767 53.8624C498.519 53.8624 496.891 54.9669 496.211 56.7321H496.033V54.0596H492.03V69.2069H496.231V60.4499Z" fill="url(#paint26_linear)"/>
<path d="M509.305 69.2069H513.506V64.3945L514.64 63.1026L518.772 69.2069H523.693L517.785 60.6175L523.407 54.0596H518.584L513.732 59.8089H513.506V49.0105H509.305V69.2069Z" fill="url(#paint27_linear)"/>
<path d="M539.952 54.0596H537.102V50.4306H532.901V54.0596H530.83V57.2153H532.901V65.1045C532.881 68.0729 534.903 69.5422 537.95 69.414C539.035 69.3746 539.804 69.1576 540.228 69.0196L539.567 65.8935C539.36 65.9329 538.916 66.0315 538.522 66.0315C537.684 66.0315 537.102 65.716 537.102 64.5523V57.2153H539.952V54.0596Z" fill="url(#paint28_linear)"/>
<path d="M547.215 60.4499C547.225 58.4973 548.418 57.3534 550.134 57.3534C551.84 57.3534 552.846 58.448 552.836 60.3118V69.2069H557.037V59.5623C557.047 56.0122 554.956 53.8624 551.8 53.8624C549.503 53.8624 547.964 54.9471 547.274 56.7321H547.096V49.0105H543.014V69.2069H547.215V60.4499Z" fill="url(#paint29_linear)"/>
<path d="M567.246 69.5028C570.993 69.5028 573.518 67.6784 574.11 64.8679L570.224 64.6115C569.8 65.7653 568.715 66.3668 567.315 66.3668C565.215 66.3668 563.883 64.9763 563.883 62.718V62.7082H574.198V61.5544C574.198 56.4067 571.082 53.8624 567.078 53.8624C562.621 53.8624 559.732 57.0279 559.732 61.7023C559.732 66.5049 562.582 69.5028 567.246 69.5028ZM563.883 60.1047C563.972 58.379 565.284 56.9983 567.147 56.9983C568.972 56.9983 570.234 58.3001 570.244 60.1047H563.883Z" fill="url(#paint30_linear)"/>
<path d="M576.94 69.2069H581.141V54.0596H576.94V69.2069ZM579.05 52.107C580.303 52.107 581.328 51.1504 581.328 49.9769C581.328 48.8133 580.303 47.8567 579.05 47.8567C577.808 47.8567 576.782 48.8133 576.782 49.9769C576.782 51.1504 577.808 52.107 579.05 52.107Z" fill="url(#paint31_linear)"/>
<path d="M584.506 69.2069H588.707V60.6373C588.707 58.7734 590.068 57.4914 591.922 57.4914C592.504 57.4914 593.303 57.59 593.697 57.7182V53.9906C593.322 53.9018 592.8 53.8426 592.376 53.8426C590.68 53.8426 589.289 54.8288 588.737 56.7025H588.579V54.0596H584.506V69.2069Z" fill="url(#paint32_linear)"/>
<path d="M602.375 69.2069H606.517V66.781H606.705C607.286 68.0433 608.559 69.4535 611.004 69.4535C614.456 69.4535 617.148 66.7218 617.148 61.653C617.148 56.4461 614.337 53.8624 611.014 53.8624C608.48 53.8624 607.267 55.3712 606.705 56.6039H606.576V49.0105H602.375V69.2069ZM606.488 61.6333C606.488 58.9312 607.632 57.2054 609.673 57.2054C611.754 57.2054 612.858 59.0101 612.858 61.6333C612.858 64.2762 611.734 66.1104 609.673 66.1104C607.651 66.1104 606.488 64.3353 606.488 61.6333Z" fill="url(#paint33_linear)"/>
<path d="M624.271 69.4929C626.509 69.4929 627.959 68.5166 628.698 67.1064H628.817V69.2069H632.801V58.9904C632.801 55.3811 629.744 53.8624 626.371 53.8624C622.742 53.8624 620.356 55.598 619.774 58.3592L623.659 58.6748C623.945 57.6689 624.843 56.9293 626.351 56.9293C627.781 56.9293 628.6 57.6492 628.6 58.8918V58.9509C628.6 59.9272 627.564 60.0554 624.931 60.3118C621.933 60.5879 619.241 61.5938 619.241 64.9763C619.241 67.9742 621.381 69.4929 624.271 69.4929ZM625.474 66.5936C624.182 66.5936 623.255 65.9921 623.255 64.8383C623.255 63.6549 624.231 63.0731 625.71 62.866C626.627 62.7378 628.126 62.5208 628.629 62.1855V63.7929C628.629 65.3807 627.318 66.5936 625.474 66.5936Z" fill="url(#paint34_linear)"/>
<path d="M640.261 60.4499C640.271 58.4973 641.435 57.3534 643.131 57.3534C644.817 57.3534 645.833 58.4579 645.823 60.3118V69.2069H650.024V59.5623C650.024 56.0319 647.953 53.8624 644.797 53.8624C642.549 53.8624 640.922 54.9669 640.241 56.7321H640.064V54.0596H636.06V69.2069H640.261V60.4499Z" fill="url(#paint35_linear)"/>
<path d="M659.762 69.2069H663.963V54.0596H659.762V69.2069ZM661.873 52.107C663.125 52.107 664.151 51.1504 664.151 49.9769C664.151 48.8133 663.125 47.8567 661.873 47.8567C660.63 47.8567 659.604 48.8133 659.604 49.9769C659.604 51.1504 660.63 52.107 661.873 52.107Z" fill="url(#paint36_linear)"/>
<path d="M671.53 60.4499C671.539 58.4973 672.703 57.3534 674.399 57.3534C676.086 57.3534 677.101 58.4579 677.091 60.3118V69.2069H681.292V59.5623C681.292 56.0319 679.222 53.8624 676.066 53.8624C673.817 53.8624 672.19 54.9669 671.51 56.7321H671.332V54.0596H667.328V69.2069H671.53V60.4499Z" fill="url(#paint37_linear)"/>
<path d="M699.088 54.0596H696.238V50.4306H692.037V54.0596H689.966V57.2153H692.037V65.1045C692.017 68.0729 694.038 69.5422 697.086 69.414C698.17 69.3746 698.94 69.1576 699.364 69.0196L698.703 65.8935C698.496 65.9329 698.052 66.0315 697.658 66.0315C696.819 66.0315 696.238 65.716 696.238 64.5523V57.2153H699.088V54.0596Z" fill="url(#paint38_linear)"/>
<path d="M706.351 60.4499C706.361 58.4973 707.554 57.3534 709.27 57.3534C710.976 57.3534 711.982 58.448 711.972 60.3118V69.2069H716.173V59.5623C716.183 56.0122 714.092 53.8624 710.936 53.8624C708.638 53.8624 707.1 54.9471 706.41 56.7321H706.232V49.0105H702.15V69.2069H706.351V60.4499Z" fill="url(#paint39_linear)"/>
<path d="M726.382 69.5028C730.129 69.5028 732.654 67.6784 733.246 64.8679L729.36 64.6115C728.936 65.7653 727.851 66.3668 726.451 66.3668C724.35 66.3668 723.019 64.9763 723.019 62.718V62.7082H733.334V61.5544C733.334 56.4067 730.218 53.8624 726.214 53.8624C721.757 53.8624 718.867 57.0279 718.867 61.7023C718.867 66.5049 721.717 69.5028 726.382 69.5028ZM723.019 60.1047C723.108 58.379 724.419 56.9983 726.283 56.9983C728.108 56.9983 729.37 58.3001 729.38 60.1047H723.019Z" fill="url(#paint40_linear)"/>
<path d="M104.017 92.0596H101.009V91.0439C101.009 90.0183 101.424 89.4167 102.656 89.4167C103.159 89.4167 103.672 89.5252 104.007 89.6337L104.747 86.478C104.224 86.3202 103.07 86.0638 101.779 86.0638C98.9286 86.0638 96.8084 87.6712 96.8084 90.965V92.0596H94.6685V95.2153H96.8084V107.207H101.009V95.2153H104.017V92.0596Z" fill="url(#paint41_linear)"/>
<path d="M116.297 100.757C116.307 102.789 114.917 103.854 113.408 103.854C111.82 103.854 110.795 102.74 110.785 100.955V92.0596H106.584V101.704C106.594 105.244 108.664 107.404 111.712 107.404C113.99 107.404 115.627 106.231 116.307 104.456H116.465V107.207H120.498V92.0596H116.297V100.757Z" fill="url(#paint42_linear)"/>
<path d="M131.916 92.0596H129.066V88.4306H124.865V92.0596H122.794V95.2153H124.865V103.105C124.845 106.073 126.866 107.542 129.914 107.414C130.998 107.375 131.768 107.158 132.192 107.02L131.531 103.893C131.324 103.933 130.88 104.032 130.486 104.032C129.647 104.032 129.066 103.716 129.066 102.552V95.2153H131.916V92.0596Z" fill="url(#paint43_linear)"/>
<path d="M144.366 100.757C144.376 102.789 142.985 103.854 141.476 103.854C139.889 103.854 138.863 102.74 138.853 100.955V92.0596H134.652V101.704C134.662 105.244 136.733 107.404 139.78 107.404C142.058 107.404 143.695 106.231 144.376 104.456H144.533V107.207H148.567V92.0596H144.366V100.757Z" fill="url(#paint44_linear)"/>
<path d="M151.927 107.207H156.128V98.6373C156.128 96.7734 157.489 95.4914 159.343 95.4914C159.925 95.4914 160.724 95.59 161.118 95.7182V91.9906C160.743 91.9018 160.221 91.8427 159.797 91.8427C158.1 91.8427 156.71 92.8288 156.158 94.7025H156V92.0596H151.927V107.207Z" fill="url(#paint45_linear)"/>
<path d="M169.488 107.503C173.235 107.503 175.76 105.678 176.352 102.868L172.466 102.611C172.042 103.765 170.957 104.367 169.557 104.367C167.457 104.367 166.125 102.976 166.125 100.718V100.708H176.44V99.5544C176.44 94.4067 173.324 91.8624 169.32 91.8624C164.863 91.8624 161.974 95.0279 161.974 99.7023C161.974 104.505 164.824 107.503 169.488 107.503ZM166.125 98.1047C166.214 96.379 167.526 94.9983 169.389 94.9983C171.214 94.9983 172.476 96.3001 172.486 98.1047H166.125Z" fill="url(#paint46_linear)"/>
<path d="M189.929 107.493C192.167 107.493 193.617 106.517 194.356 105.106H194.475V107.207H198.459V96.9904C198.459 93.381 195.402 91.8624 192.029 91.8624C188.4 91.8624 186.014 93.598 185.432 96.3592L189.317 96.6748C189.603 95.6689 190.501 94.9293 192.009 94.9293C193.439 94.9293 194.258 95.6492 194.258 96.8918V96.9509C194.258 97.9272 193.222 98.0554 190.589 98.3118C187.591 98.5879 184.899 99.5938 184.899 102.976C184.899 105.974 187.039 107.493 189.929 107.493ZM191.132 104.594C189.84 104.594 188.913 103.992 188.913 102.838C188.913 101.655 189.889 101.073 191.368 100.866C192.285 100.738 193.784 100.521 194.287 100.186V101.793C194.287 103.381 192.976 104.594 191.132 104.594Z" fill="url(#paint47_linear)"/>
<path d="M205.919 98.4499C205.929 96.4973 207.093 95.3534 208.789 95.3534C210.475 95.3534 211.491 96.4579 211.481 98.3118V107.207H215.682V97.5623C215.682 94.0319 213.611 91.8624 210.455 91.8624C208.207 91.8624 206.58 92.9669 205.899 94.7321H205.722V92.0596H201.718V107.207H205.919V98.4499Z" fill="url(#paint48_linear)"/>
<path d="M224.575 107.453C227.02 107.453 228.292 106.043 228.874 104.781H229.052V107.207H233.194V87.0105H229.002V94.6039H228.874C228.312 93.3712 227.099 91.8624 224.565 91.8624C221.241 91.8624 218.431 94.4461 218.431 99.653C218.431 104.722 221.123 107.453 224.575 107.453ZM225.906 104.11C223.845 104.11 222.721 102.276 222.721 99.6333C222.721 97.0101 223.825 95.2054 225.906 95.2054C227.947 95.2054 229.091 96.9312 229.091 99.6333C229.091 102.335 227.928 104.11 225.906 104.11Z" fill="url(#paint49_linear)"/>
<path d="M247.394 107.493C249.633 107.493 251.082 106.517 251.822 105.106H251.94V107.207H255.924V96.9904C255.924 93.381 252.867 91.8624 249.495 91.8624C245.866 91.8624 243.479 93.598 242.897 96.3592L246.783 96.6748C247.069 95.6689 247.966 94.9293 249.475 94.9293C250.905 94.9293 251.723 95.6492 251.723 96.8918V96.9509C251.723 97.9272 250.688 98.0554 248.055 98.3118C245.057 98.5879 242.365 99.5938 242.365 102.976C242.365 105.974 244.505 107.493 247.394 107.493ZM248.597 104.594C247.305 104.594 246.378 103.992 246.378 102.838C246.378 101.655 247.355 101.073 248.834 100.866C249.751 100.738 251.25 100.521 251.753 100.186V101.793C251.753 103.381 250.441 104.594 248.597 104.594Z" fill="url(#paint50_linear)"/>
<path d="M263.385 87.0105H259.184V107.207H263.385V87.0105Z" fill="url(#paint51_linear)"/>
<path d="M270.951 87.0105H266.75V107.207H270.951V87.0105Z" fill="url(#paint52_linear)"/>
<path d="M281.16 107.503C285.756 107.503 288.615 104.357 288.615 99.6924C288.615 94.9983 285.756 91.8624 281.16 91.8624C276.565 91.8624 273.705 94.9983 273.705 99.6924C273.705 104.357 276.565 107.503 281.16 107.503ZM281.18 104.248C279.06 104.248 277.975 102.306 277.975 99.6629C277.975 97.02 279.06 95.0674 281.18 95.0674C283.261 95.0674 284.345 97.02 284.345 99.6629C284.345 102.306 283.261 104.248 281.18 104.248Z" fill="url(#paint53_linear)"/>
<path d="M293.956 107.207H298.393L300.997 97.6807H301.184L303.787 107.207H308.235L312.347 92.0596H308.107L305.799 102.178H305.671L303.186 92.0596H299.014L296.569 102.237H296.431L294.084 92.0596H289.833L293.956 107.207Z" fill="url(#paint54_linear)"/>
<path d="M325.335 107.493C327.574 107.493 329.023 106.517 329.763 105.106H329.881V107.207H333.865V96.9904C333.865 93.381 330.808 91.8624 327.435 91.8624C323.806 91.8624 321.42 93.598 320.838 96.3592L324.724 96.6748C325.01 95.6689 325.907 94.9293 327.416 94.9293C328.846 94.9293 329.664 95.6492 329.664 96.8918V96.9509C329.664 97.9272 328.629 98.0554 325.996 98.3118C322.998 98.5879 320.306 99.5938 320.306 102.976C320.306 105.974 322.446 107.493 325.335 107.493ZM326.538 104.594C325.246 104.594 324.319 103.992 324.319 102.838C324.319 101.655 325.296 101.073 326.775 100.866C327.692 100.738 329.191 100.521 329.694 100.186V101.793C329.694 103.381 328.382 104.594 326.538 104.594Z" fill="url(#paint55_linear)"/>
<path d="M337.124 107.207H341.325V98.6373C341.325 96.7734 342.686 95.4914 344.54 95.4914C345.122 95.4914 345.921 95.59 346.315 95.7182V91.9906C345.941 91.9018 345.418 91.8427 344.994 91.8427C343.298 91.8427 341.907 92.8288 341.355 94.7025H341.197V92.0596H337.124V107.207Z" fill="url(#paint56_linear)"/>
<path d="M357.304 92.0596H354.454V88.4306H350.253V92.0596H348.182V95.2153H350.253V103.105C350.233 106.073 352.255 107.542 355.302 107.414C356.386 107.375 357.156 107.158 357.58 107.02L356.919 103.893C356.712 103.933 356.268 104.032 355.874 104.032C355.035 104.032 354.454 103.716 354.454 102.552V95.2153H357.304V92.0596Z" fill="url(#paint57_linear)"/>
<path d="M360.04 107.207H364.241V92.0596H360.04V107.207ZM362.151 90.107C363.403 90.107 364.429 89.1504 364.429 87.9769C364.429 86.8133 363.403 85.8567 362.151 85.8567C360.908 85.8567 359.882 86.8133 359.882 87.9769C359.882 89.1504 360.908 90.107 362.151 90.107Z" fill="url(#paint58_linear)"/>
<path d="M380.21 96.379C379.835 93.5881 377.586 91.8624 373.76 91.8624C369.885 91.8624 367.33 93.6572 367.34 96.5762C367.33 98.8443 368.76 100.314 371.719 100.905L374.342 101.428C375.663 101.694 376.265 102.178 376.285 102.937C376.265 103.834 375.289 104.475 373.819 104.475C372.32 104.475 371.324 103.834 371.068 102.602L366.936 102.819C367.33 105.718 369.796 107.503 373.809 107.503C377.734 107.503 380.545 105.501 380.555 102.513C380.545 100.324 379.115 99.012 376.176 98.4104L373.435 97.8582C372.024 97.5525 371.502 97.0693 371.512 96.3395C371.502 95.4323 372.527 94.8406 373.829 94.8406C375.289 94.8406 376.156 95.6393 376.364 96.6156L380.21 96.379Z" fill="url(#paint59_linear)"/>
<path d="M391.257 92.0596H388.407V88.4306H384.206V92.0596H382.135V95.2153H384.206V103.105C384.186 106.073 386.208 107.542 389.255 107.414C390.34 107.375 391.109 107.158 391.533 107.02L390.872 103.893C390.665 103.933 390.221 104.032 389.827 104.032C388.989 104.032 388.407 103.716 388.407 102.552V95.2153H391.257V92.0596Z" fill="url(#paint60_linear)"/>
<path d="M406.38 96.379C406.005 93.5881 403.756 91.8624 399.93 91.8624C396.055 91.8624 393.5 93.6572 393.51 96.5762C393.5 98.8443 394.93 100.314 397.889 100.905L400.512 101.428C401.833 101.694 402.435 102.178 402.455 102.937C402.435 103.834 401.459 104.475 399.989 104.475C398.49 104.475 397.494 103.834 397.238 102.602L393.106 102.819C393.5 105.718 395.966 107.503 399.979 107.503C403.904 107.503 406.715 105.501 406.725 102.513C406.715 100.324 405.285 99.012 402.346 98.4104L399.605 97.8582C398.195 97.5525 397.672 97.0693 397.682 96.3395C397.672 95.4323 398.697 94.8406 399.999 94.8406C401.459 94.8406 402.327 95.6393 402.534 96.6156L406.38 96.379Z" fill="url(#paint61_linear)"/>
<path d="M420.117 107.493C422.355 107.493 423.805 106.517 424.545 105.106H424.663V107.207H428.647V96.9904C428.647 93.381 425.59 91.8624 422.217 91.8624C418.588 91.8624 416.202 93.598 415.62 96.3592L419.505 96.6748C419.791 95.6689 420.689 94.9293 422.198 94.9293C423.627 94.9293 424.446 95.6492 424.446 96.8918V96.9509C424.446 97.9272 423.41 98.0554 420.777 98.3118C417.78 98.5879 415.087 99.5938 415.087 102.976C415.087 105.974 417.227 107.493 420.117 107.493ZM421.32 104.594C420.028 104.594 419.101 103.992 419.101 102.838C419.101 101.655 420.077 101.073 421.557 100.866C422.474 100.738 423.973 100.521 424.476 100.186V101.793C424.476 103.381 423.164 104.594 421.32 104.594Z" fill="url(#paint62_linear)"/>
<path d="M436.107 98.4499C436.117 96.4973 437.281 95.3534 438.977 95.3534C440.663 95.3534 441.679 96.4579 441.669 98.3118V107.207H445.87V97.5623C445.87 94.0319 443.799 91.8624 440.644 91.8624C438.395 91.8624 436.768 92.9669 436.088 94.7321H435.91V92.0596H431.906V107.207H436.107V98.4499Z" fill="url(#paint63_linear)"/>
<path d="M454.763 107.453C457.208 107.453 458.481 106.043 459.062 104.781H459.24V107.207H463.382V87.0105H459.191V94.6039H459.062C458.5 93.3712 457.287 91.8624 454.753 91.8624C451.43 91.8624 448.619 94.4461 448.619 99.653C448.619 104.722 451.311 107.453 454.763 107.453ZM456.094 104.11C454.033 104.11 452.909 102.276 452.909 99.6333C452.909 97.0101 454.013 95.2054 456.094 95.2054C458.135 95.2054 459.279 96.9312 459.279 99.6333C459.279 102.335 458.116 104.11 456.094 104.11Z" fill="url(#paint64_linear)"/>
<path d="M482.977 100.757C482.987 102.789 481.596 103.854 480.087 103.854C478.5 103.854 477.474 102.74 477.464 100.955V92.0596H473.263V101.704C473.273 105.244 475.344 107.404 478.391 107.404C480.669 107.404 482.306 106.231 482.987 104.456H483.144V107.207H487.178V92.0596H482.977V100.757Z" fill="url(#paint65_linear)"/>
<path d="M503.141 96.379C502.766 93.5881 500.518 91.8624 496.692 91.8624C492.816 91.8624 490.262 93.6572 490.272 96.5762C490.262 98.8443 491.692 100.314 494.65 100.905L497.273 101.428C498.595 101.694 499.196 102.178 499.216 102.937C499.196 103.834 498.22 104.475 496.751 104.475C495.252 104.475 494.256 103.834 493.999 102.602L489.867 102.819C490.262 105.718 492.727 107.503 496.741 107.503C500.666 107.503 503.476 105.501 503.486 102.513C503.476 100.324 502.046 99.012 499.108 98.4104L496.366 97.8582C494.956 97.5525 494.433 97.0693 494.443 96.3395C494.433 95.4323 495.459 94.8406 496.761 94.8406C498.22 94.8406 499.088 95.6393 499.295 96.6156L503.141 96.379Z" fill="url(#paint66_linear)"/>
<path d="M513.035 107.503C516.782 107.503 519.307 105.678 519.898 102.868L516.013 102.611C515.589 103.765 514.504 104.367 513.104 104.367C511.003 104.367 509.672 102.976 509.672 100.718V100.708H519.987V99.5544C519.987 94.4067 516.871 91.8624 512.867 91.8624C508.41 91.8624 505.52 95.0279 505.52 99.7023C505.52 104.505 508.37 107.503 513.035 107.503ZM509.672 98.1047C509.761 96.379 511.072 94.9983 512.936 94.9983C514.76 94.9983 516.023 96.3001 516.033 98.1047H509.672Z" fill="url(#paint67_linear)"/>
<path d="M522.729 107.207H526.93V98.6373C526.93 96.7734 528.291 95.4914 530.145 95.4914C530.726 95.4914 531.525 95.59 531.92 95.7182V91.9906C531.545 91.9018 531.022 91.8427 530.598 91.8427C528.902 91.8427 527.511 92.8288 526.959 94.7025H526.801V92.0596H522.729V107.207Z" fill="url(#paint68_linear)"/>
<path d="M546.695 96.379C546.32 93.5881 544.071 91.8624 540.245 91.8624C536.37 91.8624 533.815 93.6572 533.825 96.5762C533.815 98.8443 535.245 100.314 538.204 100.905L540.827 101.428C542.148 101.694 542.75 102.178 542.77 102.937C542.75 103.834 541.774 104.475 540.304 104.475C538.805 104.475 537.809 103.834 537.553 102.602L533.421 102.819C533.815 105.718 536.281 107.503 540.294 107.503C544.219 107.503 547.03 105.501 547.04 102.513C547.03 100.324 545.6 99.012 542.661 98.4104L539.92 97.8582C538.51 97.5525 537.987 97.0693 537.997 96.3395C537.987 95.4323 539.012 94.8406 540.314 94.8406C541.774 94.8406 542.642 95.6393 542.849 96.6156L546.695 96.379Z" fill="url(#paint69_linear)"/>
<path d="M564.169 92.0596H561.319V88.4306H557.118V92.0596H555.047V95.2153H557.118V103.105C557.099 106.073 559.12 107.542 562.167 107.414C563.252 107.375 564.021 107.158 564.445 107.02L563.785 103.893C563.578 103.933 563.134 104.032 562.739 104.032C561.901 104.032 561.319 103.716 561.319 102.552V95.2153H564.169V92.0596Z" fill="url(#paint70_linear)"/>
<path d="M573.587 107.503C578.183 107.503 581.042 104.357 581.042 99.6924C581.042 94.9983 578.183 91.8624 573.587 91.8624C568.992 91.8624 566.132 94.9983 566.132 99.6924C566.132 104.357 568.992 107.503 573.587 107.503ZM573.607 104.248C571.487 104.248 570.402 102.306 570.402 99.6629C570.402 97.02 571.487 95.0674 573.607 95.0674C575.688 95.0674 576.772 97.02 576.772 99.6629C576.772 102.306 575.688 104.248 573.607 104.248Z" fill="url(#paint71_linear)"/>
<path d="M590.201 107.207H594.402V98.1146C594.402 96.4381 595.467 95.3238 596.868 95.3238C598.248 95.3238 599.175 96.2705 599.175 97.7596V107.207H603.248V97.9568C603.248 96.3888 604.146 95.3238 605.674 95.3238C607.015 95.3238 608.021 96.162 608.021 97.8483V107.207H612.212V97.02C612.212 93.7361 610.26 91.8624 607.439 91.8624C605.22 91.8624 603.495 92.9965 602.873 94.7321H602.716C602.232 92.9767 600.684 91.8624 598.603 91.8624C596.562 91.8624 595.014 92.9471 594.383 94.7321H594.205V92.0596H590.201V107.207Z" fill="url(#paint72_linear)"/>
<path d="M619.85 107.493C622.089 107.493 623.538 106.517 624.278 105.106H624.396V107.207H628.38V96.9904C628.38 93.381 625.323 91.8624 621.951 91.8624C618.322 91.8624 615.935 93.598 615.353 96.3592L619.239 96.6748C619.525 95.6689 620.422 94.9293 621.931 94.9293C623.361 94.9293 624.179 95.6492 624.179 96.8918V96.9509C624.179 97.9272 623.144 98.0554 620.511 98.3118C617.513 98.5879 614.821 99.5938 614.821 102.976C614.821 105.974 616.961 107.493 619.85 107.493ZM621.053 104.594C619.761 104.594 618.834 103.992 618.834 102.838C618.834 101.655 619.811 101.073 621.29 100.866C622.207 100.738 623.706 100.521 624.209 100.186V101.793C624.209 103.381 622.897 104.594 621.053 104.594Z" fill="url(#paint73_linear)"/>
<path d="M631.64 107.207H635.841V102.395L636.975 101.103L641.107 107.207H646.028L640.12 98.6175L645.742 92.0596H640.919L636.067 97.8089H635.841V87.0105H631.64V107.207Z" fill="url(#paint74_linear)"/>
<path d="M654.082 107.503C657.829 107.503 660.354 105.678 660.946 102.868L657.06 102.611C656.636 103.765 655.551 104.367 654.151 104.367C652.05 104.367 650.719 102.976 650.719 100.718V100.708H661.034V99.5544C661.034 94.4067 657.918 91.8624 653.914 91.8624C649.457 91.8624 646.568 95.0279 646.568 99.7023C646.568 104.505 649.417 107.503 654.082 107.503ZM650.719 98.1047C650.808 96.379 652.12 94.9983 653.983 94.9983C655.808 94.9983 657.07 96.3001 657.08 98.1047H650.719Z" fill="url(#paint75_linear)"/>
<path d="M678.26 92.0596H675.41V88.4306H671.209V92.0596H669.138V95.2153H671.209V103.105C671.189 106.073 673.211 107.542 676.258 107.414C677.343 107.375 678.112 107.158 678.536 107.02L677.875 103.893C677.668 103.933 677.225 104.032 676.83 104.032C675.992 104.032 675.41 103.716 675.41 102.552V95.2153H678.26V92.0596Z" fill="url(#paint76_linear)"/>
<path d="M685.523 98.4499C685.533 96.4973 686.726 95.3534 688.442 95.3534C690.148 95.3534 691.154 96.448 691.144 98.3118V107.207H695.345V97.5623C695.355 94.0122 693.264 91.8624 690.109 91.8624C687.811 91.8624 686.273 92.9471 685.582 94.7321H685.405V87.0105H681.322V107.207H685.523V98.4499Z" fill="url(#paint77_linear)"/>
<path d="M705.554 107.503C709.302 107.503 711.826 105.678 712.418 102.868L708.533 102.611C708.108 103.765 707.024 104.367 705.623 104.367C703.523 104.367 702.192 102.976 702.192 100.718V100.708H712.507V99.5544C712.507 94.4067 709.391 91.8624 705.387 91.8624C700.929 91.8624 698.04 95.0279 698.04 99.7023C698.04 104.505 700.89 107.503 705.554 107.503ZM702.192 98.1047C702.28 96.379 703.592 94.9983 705.456 94.9983C707.28 94.9983 708.542 96.3001 708.552 98.1047H702.192Z" fill="url(#paint78_linear)"/>
<path d="M715.248 107.207H719.449V92.0596H715.248V107.207ZM717.359 90.107C718.611 90.107 719.637 89.1504 719.637 87.9769C719.637 86.8133 718.611 85.8567 717.359 85.8567C716.116 85.8567 715.09 86.8133 715.09 87.9769C715.09 89.1504 716.116 90.107 717.359 90.107Z" fill="url(#paint79_linear)"/>
<path d="M722.814 107.207H727.016V98.6373C727.016 96.7734 728.376 95.4914 730.23 95.4914C730.812 95.4914 731.611 95.59 732.005 95.7182V91.9906C731.631 91.9018 731.108 91.8427 730.684 91.8427C728.988 91.8427 727.597 92.8288 727.045 94.7025H726.887V92.0596H722.814V107.207Z" fill="url(#paint80_linear)"/>
<path d="M747.449 107.503C752.044 107.503 754.904 104.357 754.904 99.6924C754.904 94.9983 752.044 91.8624 747.449 91.8624C742.853 91.8624 739.993 94.9983 739.993 99.6924C739.993 104.357 742.853 107.503 747.449 107.503ZM747.468 104.248C745.348 104.248 744.263 102.306 744.263 99.6629C744.263 97.02 745.348 95.0674 747.468 95.0674C749.549 95.0674 750.634 97.02 750.634 99.6629C750.634 102.306 749.549 104.248 747.468 104.248Z" fill="url(#paint81_linear)"/>
<path d="M760.244 107.207H764.682L767.285 97.6807H767.472L770.076 107.207H774.523L778.636 92.0596H774.395L772.088 102.178H771.959L769.474 92.0596H765.303L762.857 102.237H762.719L760.372 92.0596H756.122L760.244 107.207Z" fill="url(#paint82_linear)"/>
<path d="M785.078 98.4499C785.088 96.4973 786.251 95.3534 787.948 95.3534C789.634 95.3534 790.65 96.4579 790.64 98.3118V107.207H794.841V97.5623C794.841 94.0319 792.77 91.8624 789.614 91.8624C787.366 91.8624 785.739 92.9669 785.058 94.7321H784.881V92.0596H780.877V107.207H785.078V98.4499Z" fill="url(#paint83_linear)"/>
<path d="M101.453 145.453C103.899 145.453 105.171 144.043 105.753 142.781H105.93V145.207H110.072V125.01H105.881V132.604H105.753C105.191 131.371 103.978 129.862 101.443 129.862C98.12 129.862 95.3095 132.446 95.3095 137.653C95.3095 142.722 98.0017 145.453 101.453 145.453ZM102.785 142.11C100.723 142.11 99.5992 140.276 99.5992 137.633C99.5992 135.01 100.704 133.205 102.785 133.205C104.826 133.205 105.97 134.931 105.97 137.633C105.97 140.335 104.806 142.11 102.785 142.11Z" fill="url(#paint84_linear)"/>
<path d="M120.429 145.503C124.177 145.503 126.701 143.678 127.293 140.868L123.407 140.611C122.983 141.765 121.899 142.367 120.498 142.367C118.398 142.367 117.066 140.976 117.066 138.718V138.708H127.382V137.554C127.382 132.407 124.265 129.862 120.262 129.862C115.804 129.862 112.915 133.028 112.915 137.702C112.915 142.505 115.765 145.503 120.429 145.503ZM117.066 136.105C117.155 134.379 118.467 132.998 120.331 132.998C122.155 132.998 123.417 134.3 123.427 136.105H117.066Z" fill="url(#paint85_linear)"/>
<path d="M136.967 145.503C141 145.503 143.535 143.136 143.732 139.655H139.768C139.521 141.272 138.456 142.179 137.016 142.179C135.054 142.179 133.782 140.533 133.782 137.633C133.782 134.773 135.064 133.136 137.016 133.136C138.555 133.136 139.541 134.152 139.768 135.661H143.732C143.555 132.16 140.902 129.862 136.947 129.862C132.352 129.862 129.512 133.048 129.512 137.692C129.512 142.298 132.303 145.503 136.967 145.503Z" fill="url(#paint86_linear)"/>
<path d="M146.422 145.207H150.623V130.06H146.422V145.207ZM148.532 128.107C149.785 128.107 150.81 127.15 150.81 125.977C150.81 124.813 149.785 123.857 148.532 123.857C147.29 123.857 146.264 124.813 146.264 125.977C146.264 127.15 147.29 128.107 148.532 128.107Z" fill="url(#paint87_linear)"/>
<path d="M166.591 134.379C166.216 131.588 163.968 129.862 160.142 129.862C156.266 129.862 153.712 131.657 153.722 134.576C153.712 136.844 155.142 138.314 158.1 138.905L160.724 139.428C162.045 139.694 162.647 140.178 162.666 140.937C162.647 141.834 161.67 142.475 160.201 142.475C158.702 142.475 157.706 141.834 157.45 140.602L153.318 140.819C153.712 143.718 156.177 145.503 160.191 145.503C164.116 145.503 166.926 143.501 166.936 140.513C166.926 138.324 165.497 137.012 162.558 136.41L159.816 135.858C158.406 135.552 157.883 135.069 157.893 134.34C157.883 133.432 158.909 132.841 160.211 132.841C161.67 132.841 162.538 133.639 162.745 134.616L166.591 134.379Z" fill="url(#paint88_linear)"/>
<path d="M169.582 145.207H173.783V130.06H169.582V145.207ZM171.692 128.107C172.944 128.107 173.97 127.15 173.97 125.977C173.97 124.813 172.944 123.857 171.692 123.857C170.45 123.857 169.424 124.813 169.424 125.977C169.424 127.15 170.45 128.107 171.692 128.107Z" fill="url(#paint89_linear)"/>
<path d="M183.992 145.503C188.587 145.503 191.447 142.357 191.447 137.692C191.447 132.998 188.587 129.862 183.992 129.862C179.396 129.862 176.537 132.998 176.537 137.692C176.537 142.357 179.396 145.503 183.992 145.503ZM184.012 142.248C181.891 142.248 180.807 140.306 180.807 137.663C180.807 135.02 181.891 133.067 184.012 133.067C186.092 133.067 187.177 135.02 187.177 137.663C187.177 140.306 186.092 142.248 184.012 142.248Z" fill="url(#paint90_linear)"/>
<path d="M198.38 136.45C198.39 134.497 199.553 133.353 201.25 133.353C202.936 133.353 203.952 134.458 203.942 136.312V145.207H208.143V135.562C208.143 132.032 206.072 129.862 202.916 129.862C200.668 129.862 199.041 130.967 198.36 132.732H198.183V130.06H194.179V145.207H198.38V136.45Z" fill="url(#paint91_linear)"/>
<path d="M222.2 145.493C224.439 145.493 225.889 144.517 226.628 143.106H226.747V145.207H230.731V134.99C230.731 131.381 227.674 129.862 224.301 129.862C220.672 129.862 218.285 131.598 217.704 134.359L221.589 134.675C221.875 133.669 222.772 132.929 224.281 132.929C225.711 132.929 226.53 133.649 226.53 134.892V134.951C226.53 135.927 225.494 136.055 222.861 136.312C219.863 136.588 217.171 137.594 217.171 140.976C217.171 143.974 219.311 145.493 222.2 145.493ZM223.404 142.594C222.112 142.594 221.185 141.992 221.185 140.838C221.185 139.655 222.161 139.073 223.64 138.866C224.557 138.738 226.056 138.521 226.559 138.186V139.793C226.559 141.381 225.248 142.594 223.404 142.594Z" fill="url(#paint92_linear)"/>
<path d="M238.191 136.45C238.201 134.497 239.364 133.353 241.061 133.353C242.747 133.353 243.763 134.458 243.753 136.312V145.207H247.954V135.562C247.954 132.032 245.883 129.862 242.727 129.862C240.479 129.862 238.852 130.967 238.171 132.732H237.994V130.06H233.99V145.207H238.191V136.45Z" fill="url(#paint93_linear)"/>
<path d="M256.847 145.453C259.292 145.453 260.564 144.043 261.146 142.781H261.324V145.207H265.466V125.01H261.274V132.604H261.146C260.584 131.371 259.371 129.862 256.837 129.862C253.513 129.862 250.703 132.446 250.703 137.653C250.703 142.722 253.395 145.453 256.847 145.453ZM258.178 142.11C256.117 142.11 254.993 140.276 254.993 137.633C254.993 135.01 256.097 133.205 258.178 133.205C260.219 133.205 261.363 134.931 261.363 137.633C261.363 140.335 260.199 142.11 258.178 142.11Z" fill="url(#paint94_linear)"/>
<path d="M282.191 145.503C286.224 145.503 288.758 143.136 288.956 139.655H284.991C284.745 141.272 283.68 142.179 282.24 142.179C280.278 142.179 279.005 140.533 279.005 137.633C279.005 134.773 280.287 133.136 282.24 133.136C283.778 133.136 284.765 134.152 284.991 135.661H288.956C288.778 132.16 286.125 129.862 282.171 129.862C277.575 129.862 274.735 133.048 274.735 137.692C274.735 142.298 277.526 145.503 282.191 145.503Z" fill="url(#paint95_linear)"/>
<path d="M295.846 136.45C295.856 134.497 297.05 133.353 298.765 133.353C300.472 133.353 301.477 134.448 301.468 136.312V145.207H305.669V135.562C305.678 132.012 303.588 129.862 300.432 129.862C298.134 129.862 296.596 130.947 295.906 132.732H295.728V125.01H291.645V145.207H295.846V136.45Z" fill="url(#paint96_linear)"/>
<path d="M315.819 145.503C320.414 145.503 323.274 142.357 323.274 137.692C323.274 132.998 320.414 129.862 315.819 129.862C311.223 129.862 308.363 132.998 308.363 137.692C308.363 142.357 311.223 145.503 315.819 145.503ZM315.838 142.248C313.718 142.248 312.633 140.306 312.633 137.663C312.633 135.02 313.718 133.067 315.838 133.067C317.919 133.067 319.004 135.02 319.004 137.663C319.004 140.306 317.919 142.248 315.838 142.248Z" fill="url(#paint97_linear)"/>
<path d="M326.006 145.207H330.207V130.06H326.006V145.207ZM328.116 128.107C329.368 128.107 330.394 127.15 330.394 125.977C330.394 124.813 329.368 123.857 328.116 123.857C326.873 123.857 325.848 124.813 325.848 125.977C325.848 127.15 326.873 128.107 328.116 128.107Z" fill="url(#paint98_linear)"/>
<path d="M340.416 145.503C344.449 145.503 346.984 143.136 347.181 139.655H343.216C342.97 141.272 341.905 142.179 340.465 142.179C338.503 142.179 337.23 140.533 337.23 137.633C337.23 134.773 338.512 133.136 340.465 133.136C342.003 133.136 342.99 134.152 343.216 135.661H347.181C347.003 132.16 344.35 129.862 340.396 129.862C335.801 129.862 332.96 133.048 332.96 137.692C332.96 142.298 335.751 145.503 340.416 145.503Z" fill="url(#paint99_linear)"/>
<path d="M356.774 145.503C360.521 145.503 363.046 143.678 363.637 140.868L359.752 140.611C359.328 141.765 358.243 142.367 356.843 142.367C354.742 142.367 353.411 140.976 353.411 138.718V138.708H363.726V137.554C363.726 132.407 360.61 129.862 356.606 129.862C352.149 129.862 349.259 133.028 349.259 137.702C349.259 142.505 352.109 145.503 356.774 145.503ZM353.411 136.105C353.5 134.379 354.811 132.998 356.675 132.998C358.499 132.998 359.762 134.3 359.771 136.105H353.411Z" fill="url(#paint100_linear)"/>
<path d="M368.923 145.463C370.185 145.463 371.28 144.408 371.29 143.097C371.28 141.805 370.185 140.75 368.923 140.75C367.621 140.75 366.546 141.805 366.556 143.097C366.546 144.408 367.621 145.463 368.923 145.463Z" fill="url(#paint101_linear)"/>
<path d="M375.493 125.01H372.338V127.16C372.338 128.827 371.746 130.04 371.085 131.085L372.939 132.18C374.33 131.016 375.493 128.945 375.493 127.141V125.01ZM380.444 125.01H377.288V127.16C377.288 128.827 376.696 130.04 376.036 131.085L377.89 132.18C379.28 131.016 380.444 128.945 380.444 127.141V125.01Z" fill="url(#paint102_linear)"/>
<defs>
<linearGradient id="paint0_linear" x1="267.54" y1="0.907007" x2="198.927" y2="238.316" gradientUnits="userSpaceOnUse">
<stop/>
<stop offset="1" stop-color="#FFE2AF"/>
</linearGradient>
<linearGradient id="paint1_linear" x1="267.54" y1="0.907007" x2="198.927" y2="238.316" gradientUnits="userSpaceOnUse">
<stop/>
<stop offset="1" stop-color="#FFE2AF"/>
</linearGradient>
<linearGradient id="paint2_linear" x1="267.54" y1="0.907007" x2="198.927" y2="238.316" gradientUnits="userSpaceOnUse">
<stop/>
<stop offset="1" stop-color="#FFE2AF"/>
</linearGradient>
<linearGradient id="paint3_linear" x1="267.54" y1="0.907007" x2="198.927" y2="238.316" gradientUnits="userSpaceOnUse">
<stop/>
<stop offset="1" stop-color="#FFE2AF"/>
</linearGradient>
<linearGradient id="paint4_linear" x1="267.54" y1="0.907007" x2="198.927" y2="238.316" gradientUnits="userSpaceOnUse">
<stop/>
<stop offset="1" stop-color="#FFE2AF"/>
</linearGradient>
<linearGradient id="paint5_linear" x1="267.54" y1="0.907007" x2="198.927" y2="238.316" gradientUnits="userSpaceOnUse">
<stop/>
<stop offset="1" stop-color="#FFE2AF"/>
</linearGradient>
<linearGradient id="paint6_linear" x1="267.54" y1="0.907007" x2="198.927" y2="238.316" gradientUnits="userSpaceOnUse">
<stop/>
<stop offset="1" stop-color="#FFE2AF"/>
</linearGradient>
<linearGradient id="paint7_linear" x1="267.54" y1="0.907007" x2="198.927" y2="238.316" gradientUnits="userSpaceOnUse">
<stop/>
<stop offset="1" stop-color="#FFE2AF"/>
</linearGradient>
<linearGradient id="paint8_linear" x1="267.54" y1="0.907007" x2="198.927" y2="238.316" gradientUnits="userSpaceOnUse">
<stop/>
<stop offset="1" stop-color="#FFE2AF"/>
</linearGradient>
<linearGradient id="paint9_linear" x1="267.54" y1="0.907007" x2="198.927" y2="238.316" gradientUnits="userSpaceOnUse">
<stop/>
<stop offset="1" stop-color="#FFE2AF"/>
</linearGradient>
<linearGradient id="paint10_linear" x1="267.54" y1="0.907007" x2="198.927" y2="238.316" gradientUnits="userSpaceOnUse">
<stop/>
<stop offset="1" stop-color="#FFE2AF"/>
</linearGradient>
<linearGradient id="paint11_linear" x1="267.54" y1="0.907007" x2="198.927" y2="238.316" gradientUnits="userSpaceOnUse">
<stop/>
<stop offset="1" stop-color="#FFE2AF"/>
</linearGradient>
<linearGradient id="paint12_linear" x1="267.54" y1="0.907007" x2="198.927" y2="238.316" gradientUnits="userSpaceOnUse">
<stop/>
<stop offset="1" stop-color="#FFE2AF"/>
</linearGradient>
<linearGradient id="paint13_linear" x1="267.54" y1="0.907007" x2="198.927" y2="238.316" gradientUnits="userSpaceOnUse">
<stop/>
<stop offset="1" stop-color="#FFE2AF"/>
</linearGradient>
<linearGradient id="paint14_linear" x1="267.54" y1="0.907007" x2="198.927" y2="238.316" gradientUnits="userSpaceOnUse">
<stop/>
<stop offset="1" stop-color="#FFE2AF"/>
</linearGradient>
<linearGradient id="paint15_linear" x1="267.54" y1="0.907007" x2="198.927" y2="238.316" gradientUnits="userSpaceOnUse">
<stop/>
<stop offset="1" stop-color="#FFE2AF"/>
</linearGradient>
<linearGradient id="paint16_linear" x1="267.54" y1="0.907007" x2="198.927" y2="238.316" gradientUnits="userSpaceOnUse">
<stop/>
<stop offset="1" stop-color="#FFE2AF"/>
</linearGradient>
<linearGradient id="paint17_linear" x1="267.54" y1="0.907007" x2="198.927" y2="238.316" gradientUnits="userSpaceOnUse">
<stop/>
<stop offset="1" stop-color="#FFE2AF"/>
</linearGradient>
<linearGradient id="paint18_linear" x1="267.54" y1="0.907007" x2="198.927" y2="238.316" gradientUnits="userSpaceOnUse">
<stop/>
<stop offset="1" stop-color="#FFE2AF"/>
</linearGradient>
<linearGradient id="paint19_linear" x1="267.54" y1="0.907007" x2="198.927" y2="238.316" gradientUnits="userSpaceOnUse">
<stop/>
<stop offset="1" stop-color="#FFE2AF"/>
</linearGradient>
<linearGradient id="paint20_linear" x1="267.54" y1="0.907007" x2="198.927" y2="238.316" gradientUnits="userSpaceOnUse">
<stop/>
<stop offset="1" stop-color="#FFE2AF"/>
</linearGradient>
<linearGradient id="paint21_linear" x1="267.54" y1="0.907007" x2="198.927" y2="238.316" gradientUnits="userSpaceOnUse">
<stop/>
<stop offset="1" stop-color="#FFE2AF"/>
</linearGradient>
<linearGradient id="paint22_linear" x1="267.54" y1="0.907007" x2="198.927" y2="238.316" gradientUnits="userSpaceOnUse">
<stop/>
<stop offset="1" stop-color="#FFE2AF"/>
</linearGradient>
<linearGradient id="paint23_linear" x1="267.54" y1="0.907007" x2="198.927" y2="238.316" gradientUnits="userSpaceOnUse">
<stop/>
<stop offset="1" stop-color="#FFE2AF"/>
</linearGradient>
<linearGradient id="paint24_linear" x1="267.54" y1="0.907007" x2="198.927" y2="238.316" gradientUnits="userSpaceOnUse">
<stop/>
<stop offset="1" stop-color="#FFE2AF"/>
</linearGradient>
<linearGradient id="paint25_linear" x1="267.54" y1="0.907007" x2="198.927" y2="238.316" gradientUnits="userSpaceOnUse">
<stop/>
<stop offset="1" stop-color="#FFE2AF"/>
</linearGradient>
<linearGradient id="paint26_linear" x1="267.54" y1="0.907007" x2="198.927" y2="238.316" gradientUnits="userSpaceOnUse">
<stop/>
<stop offset="1" stop-color="#FFE2AF"/>
</linearGradient>
<linearGradient id="paint27_linear" x1="267.54" y1="0.907007" x2="198.927" y2="238.316" gradientUnits="userSpaceOnUse">
<stop/>
<stop offset="1" stop-color="#FFE2AF"/>
</linearGradient>
<linearGradient id="paint28_linear" x1="267.54" y1="0.907007" x2="198.927" y2="238.316" gradientUnits="userSpaceOnUse">
<stop/>
<stop offset="1" stop-color="#FFE2AF"/>
</linearGradient>
<linearGradient id="paint29_linear" x1="267.54" y1="0.907007" x2="198.927" y2="238.316" gradientUnits="userSpaceOnUse">
<stop/>
<stop offset="1" stop-color="#FFE2AF"/>
</linearGradient>
<linearGradient id="paint30_linear" x1="267.54" y1="0.907007" x2="198.927" y2="238.316" gradientUnits="userSpaceOnUse">
<stop/>
<stop offset="1" stop-color="#FFE2AF"/>
</linearGradient>
<linearGradient id="paint31_linear" x1="267.54" y1="0.907007" x2="198.927" y2="238.316" gradientUnits="userSpaceOnUse">
<stop/>
<stop offset="1" stop-color="#FFE2AF"/>
</linearGradient>
<linearGradient id="paint32_linear" x1="267.54" y1="0.907007" x2="198.927" y2="238.316" gradientUnits="userSpaceOnUse">
<stop/>
<stop offset="1" stop-color="#FFE2AF"/>
</linearGradient>
<linearGradient id="paint33_linear" x1="267.54" y1="0.907007" x2="198.927" y2="238.316" gradientUnits="userSpaceOnUse">
<stop/>
<stop offset="1" stop-color="#FFE2AF"/>
</linearGradient>
<linearGradient id="paint34_linear" x1="267.54" y1="0.907007" x2="198.927" y2="238.316" gradientUnits="userSpaceOnUse">
<stop/>
<stop offset="1" stop-color="#FFE2AF"/>
</linearGradient>
<linearGradient id="paint35_linear" x1="267.54" y1="0.907007" x2="198.927" y2="238.316" gradientUnits="userSpaceOnUse">
<stop/>
<stop offset="1" stop-color="#FFE2AF"/>
</linearGradient>
<linearGradient id="paint36_linear" x1="267.54" y1="0.907007" x2="198.927" y2="238.316" gradientUnits="userSpaceOnUse">
<stop/>
<stop offset="1" stop-color="#FFE2AF"/>
</linearGradient>
<linearGradient id="paint37_linear" x1="267.54" y1="0.907007" x2="198.927" y2="238.316" gradientUnits="userSpaceOnUse">
<stop/>
<stop offset="1" stop-color="#FFE2AF"/>
</linearGradient>
<linearGradient id="paint38_linear" x1="267.54" y1="0.907007" x2="198.927" y2="238.316" gradientUnits="userSpaceOnUse">
<stop/>
<stop offset="1" stop-color="#FFE2AF"/>
</linearGradient>
<linearGradient id="paint39_linear" x1="267.54" y1="0.907007" x2="198.927" y2="238.316" gradientUnits="userSpaceOnUse">
<stop/>
<stop offset="1" stop-color="#FFE2AF"/>
</linearGradient>
<linearGradient id="paint40_linear" x1="267.54" y1="0.907007" x2="198.927" y2="238.316" gradientUnits="userSpaceOnUse">
<stop/>
<stop offset="1" stop-color="#FFE2AF"/>
</linearGradient>
<linearGradient id="paint41_linear" x1="267.54" y1="0.907007" x2="198.927" y2="238.316" gradientUnits="userSpaceOnUse">
<stop/>
<stop offset="1" stop-color="#FFE2AF"/>
</linearGradient>
<linearGradient id="paint42_linear" x1="267.54" y1="0.907007" x2="198.927" y2="238.316" gradientUnits="userSpaceOnUse">
<stop/>
<stop offset="1" stop-color="#FFE2AF"/>
</linearGradient>
<linearGradient id="paint43_linear" x1="267.54" y1="0.907007" x2="198.927" y2="238.316" gradientUnits="userSpaceOnUse">
<stop/>
<stop offset="1" stop-color="#FFE2AF"/>
</linearGradient>
<linearGradient id="paint44_linear" x1="267.54" y1="0.907007" x2="198.927" y2="238.316" gradientUnits="userSpaceOnUse">
<stop/>
<stop offset="1" stop-color="#FFE2AF"/>
</linearGradient>
<linearGradient id="paint45_linear" x1="267.54" y1="0.907007" x2="198.927" y2="238.316" gradientUnits="userSpaceOnUse">
<stop/>
<stop offset="1" stop-color="#FFE2AF"/>
</linearGradient>
<linearGradient id="paint46_linear" x1="267.54" y1="0.907007" x2="198.927" y2="238.316" gradientUnits="userSpaceOnUse">
<stop/>
<stop offset="1" stop-color="#FFE2AF"/>
</linearGradient>
<linearGradient id="paint47_linear" x1="267.54" y1="0.907007" x2="198.927" y2="238.316" gradientUnits="userSpaceOnUse">
<stop/>
<stop offset="1" stop-color="#FFE2AF"/>
</linearGradient>
<linearGradient id="paint48_linear" x1="267.54" y1="0.907007" x2="198.927" y2="238.316" gradientUnits="userSpaceOnUse">
<stop/>
<stop offset="1" stop-color="#FFE2AF"/>
</linearGradient>
<linearGradient id="paint49_linear" x1="267.54" y1="0.907007" x2="198.927" y2="238.316" gradientUnits="userSpaceOnUse">
<stop/>
<stop offset="1" stop-color="#FFE2AF"/>
</linearGradient>
<linearGradient id="paint50_linear" x1="267.54" y1="0.907007" x2="198.927" y2="238.316" gradientUnits="userSpaceOnUse">
<stop/>
<stop offset="1" stop-color="#FFE2AF"/>
</linearGradient>
<linearGradient id="paint51_linear" x1="267.54" y1="0.907007" x2="198.927" y2="238.316" gradientUnits="userSpaceOnUse">
<stop/>
<stop offset="1" stop-color="#FFE2AF"/>
</linearGradient>
<linearGradient id="paint52_linear" x1="267.54" y1="0.907007" x2="198.927" y2="238.316" gradientUnits="userSpaceOnUse">
<stop/>
<stop offset="1" stop-color="#FFE2AF"/>
</linearGradient>
<linearGradient id="paint53_linear" x1="267.54" y1="0.907007" x2="198.927" y2="238.316" gradientUnits="userSpaceOnUse">
<stop/>
<stop offset="1" stop-color="#FFE2AF"/>
</linearGradient>
<linearGradient id="paint54_linear" x1="267.54" y1="0.907007" x2="198.927" y2="238.316" gradientUnits="userSpaceOnUse">
<stop/>
<stop offset="1" stop-color="#FFE2AF"/>
</linearGradient>
<linearGradient id="paint55_linear" x1="267.54" y1="0.907007" x2="198.927" y2="238.316" gradientUnits="userSpaceOnUse">
<stop/>
<stop offset="1" stop-color="#FFE2AF"/>
</linearGradient>
<linearGradient id="paint56_linear" x1="267.54" y1="0.907007" x2="198.927" y2="238.316" gradientUnits="userSpaceOnUse">
<stop/>
<stop offset="1" stop-color="#FFE2AF"/>
</linearGradient>
<linearGradient id="paint57_linear" x1="267.54" y1="0.907007" x2="198.927" y2="238.316" gradientUnits="userSpaceOnUse">
<stop/>
<stop offset="1" stop-color="#FFE2AF"/>
</linearGradient>
<linearGradient id="paint58_linear" x1="267.54" y1="0.907007" x2="198.927" y2="238.316" gradientUnits="userSpaceOnUse">
<stop/>
<stop offset="1" stop-color="#FFE2AF"/>
</linearGradient>
<linearGradient id="paint59_linear" x1="267.54" y1="0.907007" x2="198.927" y2="238.316" gradientUnits="userSpaceOnUse">
<stop/>
<stop offset="1" stop-color="#FFE2AF"/>
</linearGradient>
<linearGradient id="paint60_linear" x1="267.54" y1="0.907007" x2="198.927" y2="238.316" gradientUnits="userSpaceOnUse">
<stop/>
<stop offset="1" stop-color="#FFE2AF"/>
</linearGradient>
<linearGradient id="paint61_linear" x1="267.54" y1="0.907007" x2="198.927" y2="238.316" gradientUnits="userSpaceOnUse">
<stop/>
<stop offset="1" stop-color="#FFE2AF"/>
</linearGradient>
<linearGradient id="paint62_linear" x1="267.54" y1="0.907007" x2="198.927" y2="238.316" gradientUnits="userSpaceOnUse">
<stop/>
<stop offset="1" stop-color="#FFE2AF"/>
</linearGradient>
<linearGradient id="paint63_linear" x1="267.54" y1="0.907007" x2="198.927" y2="238.316" gradientUnits="userSpaceOnUse">
<stop/>
<stop offset="1" stop-color="#FFE2AF"/>
</linearGradient>
<linearGradient id="paint64_linear" x1="267.54" y1="0.907007" x2="198.927" y2="238.316" gradientUnits="userSpaceOnUse">
<stop/>
<stop offset="1" stop-color="#FFE2AF"/>
</linearGradient>
<linearGradient id="paint65_linear" x1="267.54" y1="0.907007" x2="198.927" y2="238.316" gradientUnits="userSpaceOnUse">
<stop/>
<stop offset="1" stop-color="#FFE2AF"/>
</linearGradient>
<linearGradient id="paint66_linear" x1="267.54" y1="0.907007" x2="198.927" y2="238.316" gradientUnits="userSpaceOnUse">
<stop/>
<stop offset="1" stop-color="#FFE2AF"/>
</linearGradient>
<linearGradient id="paint67_linear" x1="267.54" y1="0.907007" x2="198.927" y2="238.316" gradientUnits="userSpaceOnUse">
<stop/>
<stop offset="1" stop-color="#FFE2AF"/>
</linearGradient>
<linearGradient id="paint68_linear" x1="267.54" y1="0.907007" x2="198.927" y2="238.316" gradientUnits="userSpaceOnUse">
<stop/>
<stop offset="1" stop-color="#FFE2AF"/>
</linearGradient>
<linearGradient id="paint69_linear" x1="267.54" y1="0.907007" x2="198.927" y2="238.316" gradientUnits="userSpaceOnUse">
<stop/>
<stop offset="1" stop-color="#FFE2AF"/>
</linearGradient>
<linearGradient id="paint70_linear" x1="267.54" y1="0.907007" x2="198.927" y2="238.316" gradientUnits="userSpaceOnUse">
<stop/>
<stop offset="1" stop-color="#FFE2AF"/>
</linearGradient>
<linearGradient id="paint71_linear" x1="267.54" y1="0.907007" x2="198.927" y2="238.316" gradientUnits="userSpaceOnUse">
<stop/>
<stop offset="1" stop-color="#FFE2AF"/>
</linearGradient>
<linearGradient id="paint72_linear" x1="267.54" y1="0.907007" x2="198.927" y2="238.316" gradientUnits="userSpaceOnUse">
<stop/>
<stop offset="1" stop-color="#FFE2AF"/>
</linearGradient>
<linearGradient id="paint73_linear" x1="267.54" y1="0.907007" x2="198.927" y2="238.316" gradientUnits="userSpaceOnUse">
<stop/>
<stop offset="1" stop-color="#FFE2AF"/>
</linearGradient>
<linearGradient id="paint74_linear" x1="267.54" y1="0.907007" x2="198.927" y2="238.316" gradientUnits="userSpaceOnUse">
<stop/>
<stop offset="1" stop-color="#FFE2AF"/>
</linearGradient>
<linearGradient id="paint75_linear" x1="267.54" y1="0.907007" x2="198.927" y2="238.316" gradientUnits="userSpaceOnUse">
<stop/>
<stop offset="1" stop-color="#FFE2AF"/>
</linearGradient>
<linearGradient id="paint76_linear" x1="267.54" y1="0.907007" x2="198.927" y2="238.316" gradientUnits="userSpaceOnUse">
<stop/>
<stop offset="1" stop-color="#FFE2AF"/>
</linearGradient>
<linearGradient id="paint77_linear" x1="267.54" y1="0.907007" x2="198.927" y2="238.316" gradientUnits="userSpaceOnUse">
<stop/>
<stop offset="1" stop-color="#FFE2AF"/>
</linearGradient>
<linearGradient id="paint78_linear" x1="267.54" y1="0.907007" x2="198.927" y2="238.316" gradientUnits="userSpaceOnUse">
<stop/>
<stop offset="1" stop-color="#FFE2AF"/>
</linearGradient>
<linearGradient id="paint79_linear" x1="267.54" y1="0.907007" x2="198.927" y2="238.316" gradientUnits="userSpaceOnUse">
<stop/>
<stop offset="1" stop-color="#FFE2AF"/>
</linearGradient>
<linearGradient id="paint80_linear" x1="267.54" y1="0.907007" x2="198.927" y2="238.316" gradientUnits="userSpaceOnUse">
<stop/>
<stop offset="1" stop-color="#FFE2AF"/>
</linearGradient>
<linearGradient id="paint81_linear" x1="267.54" y1="0.907007" x2="198.927" y2="238.316" gradientUnits="userSpaceOnUse">
<stop/>
<stop offset="1" stop-color="#FFE2AF"/>
</linearGradient>
<linearGradient id="paint82_linear" x1="267.54" y1="0.907007" x2="198.927" y2="238.316" gradientUnits="userSpaceOnUse">
<stop/>
<stop offset="1" stop-color="#FFE2AF"/>
</linearGradient>
<linearGradient id="paint83_linear" x1="267.54" y1="0.907007" x2="198.927" y2="238.316" gradientUnits="userSpaceOnUse">
<stop/>
<stop offset="1" stop-color="#FFE2AF"/>
</linearGradient>
<linearGradient id="paint84_linear" x1="267.54" y1="0.907007" x2="198.927" y2="238.316" gradientUnits="userSpaceOnUse">
<stop/>
<stop offset="1" stop-color="#FFE2AF"/>
</linearGradient>
<linearGradient id="paint85_linear" x1="267.54" y1="0.907007" x2="198.927" y2="238.316" gradientUnits="userSpaceOnUse">
<stop/>
<stop offset="1" stop-color="#FFE2AF"/>
</linearGradient>
<linearGradient id="paint86_linear" x1="267.54" y1="0.907007" x2="198.927" y2="238.316" gradientUnits="userSpaceOnUse">
<stop/>
<stop offset="1" stop-color="#FFE2AF"/>
</linearGradient>
<linearGradient id="paint87_linear" x1="267.54" y1="0.907007" x2="198.927" y2="238.316" gradientUnits="userSpaceOnUse">
<stop/>
<stop offset="1" stop-color="#FFE2AF"/>
</linearGradient>
<linearGradient id="paint88_linear" x1="267.54" y1="0.907007" x2="198.927" y2="238.316" gradientUnits="userSpaceOnUse">
<stop/>
<stop offset="1" stop-color="#FFE2AF"/>
</linearGradient>
<linearGradient id="paint89_linear" x1="267.54" y1="0.907007" x2="198.927" y2="238.316" gradientUnits="userSpaceOnUse">
<stop/>
<stop offset="1" stop-color="#FFE2AF"/>
</linearGradient>
<linearGradient id="paint90_linear" x1="267.54" y1="0.907007" x2="198.927" y2="238.316" gradientUnits="userSpaceOnUse">
<stop/>
<stop offset="1" stop-color="#FFE2AF"/>
</linearGradient>
<linearGradient id="paint91_linear" x1="267.54" y1="0.907007" x2="198.927" y2="238.316" gradientUnits="userSpaceOnUse">
<stop/>
<stop offset="1" stop-color="#FFE2AF"/>
</linearGradient>
<linearGradient id="paint92_linear" x1="267.54" y1="0.907007" x2="198.927" y2="238.316" gradientUnits="userSpaceOnUse">
<stop/>
<stop offset="1" stop-color="#FFE2AF"/>
</linearGradient>
<linearGradient id="paint93_linear" x1="267.54" y1="0.907007" x2="198.927" y2="238.316" gradientUnits="userSpaceOnUse">
<stop/>
<stop offset="1" stop-color="#FFE2AF"/>
</linearGradient>
<linearGradient id="paint94_linear" x1="267.54" y1="0.907007" x2="198.927" y2="238.316" gradientUnits="userSpaceOnUse">
<stop/>
<stop offset="1" stop-color="#FFE2AF"/>
</linearGradient>
<linearGradient id="paint95_linear" x1="267.54" y1="0.907007" x2="198.927" y2="238.316" gradientUnits="userSpaceOnUse">
<stop/>
<stop offset="1" stop-color="#FFE2AF"/>
</linearGradient>
<linearGradient id="paint96_linear" x1="267.54" y1="0.907007" x2="198.927" y2="238.316" gradientUnits="userSpaceOnUse">
<stop/>
<stop offset="1" stop-color="#FFE2AF"/>
</linearGradient>
<linearGradient id="paint97_linear" x1="267.54" y1="0.907007" x2="198.927" y2="238.316" gradientUnits="userSpaceOnUse">
<stop/>
<stop offset="1" stop-color="#FFE2AF"/>
</linearGradient>
<linearGradient id="paint98_linear" x1="267.54" y1="0.907007" x2="198.927" y2="238.316" gradientUnits="userSpaceOnUse">
<stop/>
<stop offset="1" stop-color="#FFE2AF"/>
</linearGradient>
<linearGradient id="paint99_linear" x1="267.54" y1="0.907007" x2="198.927" y2="238.316" gradientUnits="userSpaceOnUse">
<stop/>
<stop offset="1" stop-color="#FFE2AF"/>
</linearGradient>
<linearGradient id="paint100_linear" x1="267.54" y1="0.907007" x2="198.927" y2="238.316" gradientUnits="userSpaceOnUse">
<stop/>
<stop offset="1" stop-color="#FFE2AF"/>
</linearGradient>
<linearGradient id="paint101_linear" x1="267.54" y1="0.907007" x2="198.927" y2="238.316" gradientUnits="userSpaceOnUse">
<stop/>
<stop offset="1" stop-color="#FFE2AF"/>
</linearGradient>
<linearGradient id="paint102_linear" x1="267.54" y1="0.907007" x2="198.927" y2="238.316" gradientUnits="userSpaceOnUse">
<stop/>
<stop offset="1" stop-color="#FFE2AF"/>
</linearGradient>
</defs>
</svg>
