<svg width="653" height="782" viewBox="0 0 653 782" fill="none" xmlns="http://www.w3.org/2000/svg">
<path opacity="0.6" d="M305.164 782L85.7077 209.005C84.5101 205.672 82.306 202.79 79.3973 200.752C76.4885 198.714 73.0174 197.62 69.4592 197.619H17.2557C14.0818 197.614 10.9715 196.734 8.26944 195.078C5.56739 193.422 3.37912 191.055 1.94715 188.238C0.685129 185.847 0.0174364 183.191 1.51398e-05 180.492C-0.00370905 177.701 0.679698 174.951 1.99055 172.484C3.3014 170.016 5.19982 167.905 7.52 166.335H7.72143L206.598 31.0828C207.838 30.2755 209.197 29.6671 210.627 29.2799C211.91 28.8747 213.243 28.65 214.588 28.6121C217.167 28.6136 219.696 29.3117 221.907 30.6316C224.118 31.9516 225.926 33.844 227.14 36.1066C228.353 38.3693 228.926 40.9172 228.796 43.4783C228.667 46.0394 227.841 48.5175 226.405 50.6478C227.379 49.279 217.341 67.3416 209.62 81.598C208.321 84.0595 207.641 86.7976 207.639 89.5776C207.643 91.7159 208.053 93.8341 208.848 95.8211L408.027 614.529L458.384 463.25L488.598 371.935L489.101 370.5C507.145 315.558 508.546 256.552 493.13 200.825C490.305 190.64 486.943 180.61 483.059 170.776C482.555 169.474 482.051 168.205 481.514 166.936C478.537 160.342 474.005 154.559 468.301 150.078C462.597 145.597 455.891 142.551 448.751 141.198C441.611 139.844 434.248 140.224 427.287 142.304C420.326 144.384 413.972 148.104 408.765 153.147C407.212 154.74 405.366 156.02 403.327 156.92C402.408 157.316 401.452 157.618 400.473 157.822H400.003C396.312 158.604 392.464 158.147 389.062 156.522C385.66 154.897 382.896 152.195 381.203 148.84V148.44C379.988 146.107 379.344 143.521 379.323 140.894C379.32 138.095 380.008 135.338 381.324 132.865C382.641 130.391 384.548 128.276 386.877 126.704L418.568 105.17L434.212 94.5523L437.099 92.6159L450.259 83.668L569.807 2.56991C573.011 0.426031 576.917 -0.422148 580.728 0.198198C584.539 0.818545 587.969 2.86074 590.319 5.90866C631.571 58.3882 653.668 123.251 652.985 189.861C652.301 256.47 628.879 320.871 586.559 372.503V373.104L500.214 489.626L498.77 491.596C468.733 537.574 441.643 585.391 417.662 634.761L358.979 781.933L305.164 782Z" fill="black"/>
</svg>
