<svg width="403" height="235" viewBox="0 0 403 235" fill="none" xmlns="http://www.w3.org/2000/svg">
<path d="M133.12 222C132.634 219.315 130.486 217.73 127.853 217.73C124.503 217.73 122.074 220.312 122.074 224.454C122.074 228.596 124.503 231.179 127.853 231.179C130.486 231.179 132.634 229.594 133.12 226.909H131.534C131.151 228.724 129.591 229.696 127.853 229.696C125.475 229.696 123.608 227.855 123.608 224.454C123.608 221.054 125.475 219.213 127.853 219.213C129.591 219.213 131.151 220.185 131.534 222H133.12Z" fill="#868686"/>
<path d="M137.181 231H138.767V225.145H145.747V231H147.332V217.909H145.747V223.739H138.767V217.909H137.181V231Z" fill="#868686"/>
<path d="M152.006 231H160.008V229.594H153.591V225.145H159.497V223.739H153.591V219.315H159.906V217.909H152.006V231Z" fill="#868686"/>
<path d="M174.797 222C174.312 219.315 172.164 217.73 169.53 217.73C166.181 217.73 163.752 220.312 163.752 224.454C163.752 228.596 166.181 231.179 169.53 231.179C172.164 231.179 174.312 229.594 174.797 226.909H173.212C172.829 228.724 171.269 229.696 169.53 229.696C167.153 229.696 165.286 227.855 165.286 224.454C165.286 221.054 167.153 219.213 169.53 219.213C171.269 219.213 172.829 220.185 173.212 222H174.797Z" fill="#868686"/>
<path d="M178.859 231H180.444V226.756L182.081 224.915L186.632 231H188.549L183.052 223.815L188.549 217.909H186.478L180.598 224.403H180.444V217.909H178.859V231Z" fill="#868686"/>
<path d="M200.249 217.909H198.664V231H200.249V217.909Z" fill="#868686"/>
<path d="M204.211 219.315H208.328V231H209.913V219.315H214.03V217.909H204.211V219.315Z" fill="#868686"/>
<path d="M235.584 224.454C235.584 220.312 233.155 217.73 229.806 217.73C226.456 217.73 224.027 220.312 224.027 224.454C224.027 228.596 226.456 231.179 229.806 231.179C233.155 231.179 235.584 228.596 235.584 224.454ZM234.05 224.454C234.05 227.855 232.184 229.696 229.806 229.696C227.428 229.696 225.561 227.855 225.561 224.454C225.561 221.054 227.428 219.213 229.806 219.213C232.184 219.213 234.05 221.054 234.05 224.454Z" fill="#868686"/>
<path d="M248.341 217.909V226.449C248.341 228.366 247.024 229.747 244.838 229.747C242.652 229.747 241.335 228.366 241.335 226.449V217.909H239.75V226.577C239.75 229.261 241.757 231.23 244.838 231.23C247.919 231.23 249.926 229.261 249.926 226.577V217.909H248.341Z" fill="#868686"/>
<path d="M253.876 219.315H257.992V231H259.577V219.315H263.694V217.909H253.876V219.315Z" fill="#868686"/>
<path d="M274 216L283 225L274 234" stroke="#E15B2B"/>
<path d="M133.852 12.5045L134.295 3.5165C135.561 2.79916 137.123 2.1873 138.979 1.68093C140.878 1.17457 143.009 0.921387 145.372 0.921387C148.748 0.921387 151.47 1.40665 153.537 2.37718C155.605 3.30552 157.124 4.59253 158.095 6.23821C159.065 7.8839 159.55 9.74056 159.55 11.8082C159.55 14.7198 158.137 17.5681 155.31 20.3531C152.482 23.0959 148.621 26.1341 143.727 29.4677C142.798 30.1428 141.701 30.9657 140.435 31.9362C139.169 32.9067 137.988 33.8562 136.891 34.7845H160.626V42.0002H132.776V36.6834C134.295 35.2065 135.772 33.7507 137.207 32.316C138.684 30.8391 140.076 29.4466 141.385 28.1385C144.423 25.0159 146.68 22.252 148.157 19.8467C149.676 17.3993 150.436 14.7831 150.436 11.9981C150.436 9.08651 149.908 6.74458 148.853 4.9723C147.799 3.15783 146.216 2.2506 144.106 2.2506C142.798 2.2506 141.574 2.58817 140.435 3.26332C139.338 3.89628 138.367 5.0145 137.524 6.61799L134.485 12.5045H133.852Z" fill="black"/>
<path d="M179.06 42.9496C176.528 42.9496 174.144 42.2323 171.907 40.7976C169.713 39.3629 167.941 37.1053 166.591 34.0249C165.24 30.9446 164.565 26.9358 164.565 21.9988C164.565 17.0196 165.24 12.9897 166.591 9.90935C167.941 6.78677 169.713 4.50813 171.907 3.07344C174.144 1.63874 176.528 0.921387 179.06 0.921387C181.592 0.921387 183.955 1.63874 186.149 3.07344C188.385 4.50813 190.179 6.78677 191.529 9.90935C192.921 12.9897 193.618 17.0196 193.618 21.9988C193.618 26.9358 192.921 30.9446 191.529 34.0249C190.179 37.1053 188.385 39.3629 186.149 40.7976C183.955 42.2323 181.592 42.9496 179.06 42.9496ZM179.06 41.6837C180.115 41.6837 181.001 41.4094 181.718 40.8609C182.478 40.3123 183.09 39.3207 183.554 37.886C184.018 36.4513 184.355 34.468 184.566 31.9362C184.777 29.3622 184.883 26.0497 184.883 21.9988C184.883 17.9479 184.777 14.6354 184.566 12.0614C184.355 9.44519 184.018 7.41973 183.554 5.98503C183.09 4.55033 182.478 3.5587 181.718 3.01014C181.001 2.46158 180.115 2.1873 179.06 2.1873C178.005 2.1873 177.098 2.46158 176.338 3.01014C175.621 3.5587 175.03 4.55033 174.566 5.98503C174.102 7.37753 173.764 9.38189 173.553 11.9981C173.342 14.5721 173.237 17.9057 173.237 21.9988C173.237 26.0497 173.342 29.3622 173.553 31.9362C173.764 34.5102 174.102 36.5146 174.566 37.9493C175.03 39.3418 175.621 40.3123 176.338 40.8609C177.098 41.4094 178.005 41.6837 179.06 41.6837Z" fill="black"/>
<path d="M199.311 12.5045L199.754 3.5165C201.02 2.79916 202.582 2.1873 204.438 1.68093C206.337 1.17457 208.468 0.921387 210.831 0.921387C214.207 0.921387 216.929 1.40665 218.996 2.37718C221.064 3.30552 222.583 4.59253 223.554 6.23821C224.524 7.8839 225.009 9.74056 225.009 11.8082C225.009 14.7198 223.596 17.5681 220.769 20.3531C217.941 23.0959 214.08 26.1341 209.185 29.4677C208.257 30.1428 207.16 30.9657 205.894 31.9362C204.628 32.9067 203.447 33.8562 202.35 34.7845H226.085V42.0002H198.235V36.6834C199.754 35.2065 201.231 33.7507 202.666 32.316C204.143 30.8391 205.535 29.4466 206.844 28.1385C209.882 25.0159 212.139 22.252 213.616 19.8467C215.135 17.3993 215.895 14.7831 215.895 11.9981C215.895 9.08651 215.367 6.74458 214.312 4.9723C213.257 3.15783 211.675 2.2506 209.565 2.2506C208.257 2.2506 207.033 2.58817 205.894 3.26332C204.797 3.89628 203.826 5.0145 202.983 6.61799L199.944 12.5045H199.311Z" fill="black"/>
<path d="M244.519 42.9496C241.987 42.9496 239.603 42.2323 237.366 40.7976C235.172 39.3629 233.4 37.1053 232.049 34.0249C230.699 30.9446 230.024 26.9358 230.024 21.9988C230.024 17.0196 230.699 12.9897 232.049 9.90935C233.4 6.78677 235.172 4.50813 237.366 3.07344C239.603 1.63874 241.987 0.921387 244.519 0.921387C247.051 0.921387 249.414 1.63874 251.608 3.07344C253.844 4.50813 255.638 6.78677 256.988 9.90935C258.38 12.9897 259.077 17.0196 259.077 21.9988C259.077 26.9358 258.38 30.9446 256.988 34.0249C255.638 37.1053 253.844 39.3629 251.608 40.7976C249.414 42.2323 247.051 42.9496 244.519 42.9496ZM244.519 41.6837C245.574 41.6837 246.46 41.4094 247.177 40.8609C247.937 40.3123 248.549 39.3207 249.013 37.886C249.477 36.4513 249.814 34.468 250.025 31.9362C250.236 29.3622 250.342 26.0497 250.342 21.9988C250.342 17.9479 250.236 14.6354 250.025 12.0614C249.814 9.44519 249.477 7.41973 249.013 5.98503C248.549 4.55033 247.937 3.5587 247.177 3.01014C246.46 2.46158 245.574 2.1873 244.519 2.1873C243.464 2.1873 242.557 2.46158 241.797 3.01014C241.08 3.5587 240.489 4.55033 240.025 5.98503C239.561 7.37753 239.223 9.38189 239.012 11.9981C238.801 14.5721 238.696 17.9057 238.696 21.9988C238.696 26.0497 238.801 29.3622 239.012 31.9362C239.223 34.5102 239.561 36.5146 240.025 37.9493C240.489 39.3418 241.08 40.3123 241.797 40.8609C242.557 41.4094 243.464 41.6837 244.519 41.6837Z" fill="black"/>
<path d="M0.763184 128V127.367L2.21898 126.798C2.93633 126.502 3.42159 126.122 3.67477 125.658C3.97015 125.152 4.11784 124.477 4.11784 123.633V90.5925C4.11784 89.7486 3.99126 89.0945 3.73808 88.6304C3.52709 88.124 3.02072 87.7231 2.21898 87.4277L0.763184 86.8581V86.2251H31.0817L31.4615 95.9726H30.8286L28.1068 90.0229C27.7271 89.2633 27.3262 88.6515 26.9042 88.1873C26.4823 87.7231 25.8493 87.4911 25.0054 87.4911H13.6122V105.783H20.3848C21.2287 105.783 21.8617 105.572 22.2837 105.15C22.7478 104.686 23.1487 104.074 23.4863 103.315L24.7522 100.783H25.3851V112.176H24.7522L23.4863 109.518C23.1065 108.758 22.7056 108.168 22.2837 107.746C21.8617 107.281 21.2287 107.049 20.3848 107.049H13.6122V126.734H26.3979C27.2418 126.734 27.8959 126.523 28.36 126.101C28.8242 125.637 29.204 125.004 29.4994 124.202L32.0945 118.253H32.7274L32.3476 128H0.763184Z" fill="black"/>
<path d="M35.9357 128V127.367L36.6953 127.114C38.2144 126.608 38.9739 125.553 38.9739 123.949V90.0862C38.9739 89.2422 38.8051 88.6093 38.4675 88.1873C38.13 87.7231 37.5392 87.3856 36.6953 87.1746L35.8724 86.9847V86.3517L47.4555 83.63L48.215 84.1997L47.9619 93.0611V114.708C47.9619 116.269 47.9619 117.831 47.9619 119.392C48.0041 120.911 48.0252 122.43 48.0252 123.949C48.0252 124.793 48.1939 125.489 48.5315 126.038C48.8691 126.544 49.4388 126.924 50.2405 127.177L51.0633 127.367V128H35.9357Z" fill="black"/>
<path d="M69.7439 96.6056C72.4867 96.6056 74.8287 97.1753 76.7697 98.3146C78.7108 99.4117 80.1877 100.931 81.2004 102.872C82.2553 104.771 82.7828 106.944 82.7828 109.391C82.7828 109.855 82.7617 110.341 82.7195 110.847C82.6773 111.311 82.5929 111.733 82.4663 112.113H63.6043C63.6465 116.67 64.4482 119.962 66.0095 121.987C67.613 123.97 69.976 124.962 73.0986 124.962C75.2084 124.962 76.9174 124.624 78.2255 123.949C79.5336 123.274 80.7573 122.282 81.8967 120.974L82.5296 121.544C81.2215 123.865 79.4703 125.679 77.2761 126.987C75.124 128.296 72.5289 128.95 69.4908 128.95C66.4948 128.95 63.8364 128.317 61.5155 127.051C59.1947 125.743 57.3802 123.886 56.0721 121.481C54.764 119.076 54.1099 116.206 54.1099 112.873C54.1099 109.412 54.8695 106.48 56.3886 104.074C57.9077 101.627 59.8487 99.7704 62.2118 98.5045C64.617 97.2386 67.1277 96.6056 69.7439 96.6056ZM69.554 97.8715C68.3303 97.8715 67.2754 98.2513 66.3893 99.0108C65.5453 99.7282 64.8702 101.036 64.3638 102.935C63.8996 104.792 63.6465 107.429 63.6043 110.847H74.4278C74.8498 106.248 74.681 102.935 73.9214 100.91C73.1619 98.8842 71.7061 97.8715 69.554 97.8715Z" fill="black"/>
<path d="M101.634 128.95C98.7651 128.95 96.1489 128.338 93.7859 127.114C91.465 125.848 89.6084 124.034 88.2159 121.671C86.8655 119.265 86.1904 116.333 86.1904 112.873C86.1904 109.455 86.9288 106.543 88.4057 104.138C89.9248 101.69 91.9292 99.8337 94.4188 98.5678C96.9506 97.2597 99.7145 96.6056 102.711 96.6056C105.158 96.6056 107.226 97.0065 108.913 97.8082C110.601 98.61 111.888 99.6649 112.775 100.973C113.661 102.239 114.104 103.568 114.104 104.961C114.104 106.142 113.745 107.07 113.028 107.746C112.31 108.379 111.382 108.695 110.243 108.695C109.019 108.695 108.027 108.252 107.268 107.366C106.508 106.48 106.065 105.319 105.939 103.885C105.896 102.956 105.917 102.176 106.002 101.543C106.086 100.868 106.086 100.192 106.002 99.5172C105.833 98.7998 105.559 98.3357 105.179 98.1247C104.841 97.8715 104.356 97.7449 103.723 97.7449C101.149 97.7449 99.1449 98.8631 97.7102 101.1C96.3177 103.336 95.6214 106.902 95.6214 111.797C95.6214 116.058 96.4021 119.329 97.9633 121.607C99.5668 123.844 102.014 124.962 105.306 124.962C107.289 124.962 108.892 124.603 110.116 123.886C111.34 123.169 112.521 122.093 113.661 120.658L114.294 121.164C113.239 123.654 111.614 125.574 109.42 126.924C107.226 128.274 104.63 128.95 101.634 128.95Z" fill="black"/>
<path d="M128.869 128.95C126.169 128.95 124.059 128.274 122.54 126.924C121.063 125.574 120.324 123.422 120.324 120.468V98.8209H115.957V98.188L117.476 97.9348C118.784 97.6394 119.902 97.2175 120.831 96.6689C121.801 96.1203 122.751 95.3819 123.679 94.4536L128.869 88.6937H129.502L129.312 97.555H136.402V98.8209H129.249V121.607C129.249 123.084 129.566 124.202 130.199 124.962C130.874 125.722 131.718 126.101 132.73 126.101C133.617 126.101 134.397 125.89 135.072 125.468C135.747 125.004 136.423 124.392 137.098 123.633L137.731 124.266C136.887 125.7 135.726 126.84 134.249 127.684C132.773 128.528 130.979 128.95 128.869 128.95Z" fill="black"/>
<path d="M147.309 93.3142C145.874 93.3142 144.651 92.8712 143.638 91.985C142.667 91.0567 142.182 89.8963 142.182 88.5038C142.182 87.0691 142.667 85.9087 143.638 85.0225C144.651 84.1364 145.874 83.6933 147.309 83.6933C148.744 83.6933 149.946 84.1364 150.917 85.0225C151.888 85.9087 152.373 87.0691 152.373 88.5038C152.373 89.8963 151.888 91.0567 150.917 91.985C149.946 92.8712 148.744 93.3142 147.309 93.3142ZM139.84 128V127.367L140.726 127.114C141.57 126.861 142.14 126.481 142.435 125.975C142.773 125.468 142.942 124.793 142.942 123.949V104.138C142.942 103.252 142.773 102.598 142.435 102.176C142.14 101.711 141.57 101.395 140.726 101.226L139.84 101.036V100.403L151.423 96.6689L152.056 97.3019L151.866 106.29V124.013C151.866 124.856 152.014 125.532 152.309 126.038C152.647 126.544 153.217 126.924 154.018 127.177L154.651 127.367V128H139.84Z" fill="black"/>
<path d="M173.467 128.95C170.261 128.95 167.476 128.296 165.112 126.987C162.749 125.637 160.914 123.738 159.606 121.291C158.34 118.843 157.707 115.974 157.707 112.683C157.707 109.391 158.382 106.543 159.732 104.138C161.125 101.733 163.003 99.8759 165.366 98.5678C167.771 97.2597 170.471 96.6056 173.467 96.6056C176.463 96.6056 179.143 97.2597 181.506 98.5678C183.869 99.8337 185.726 101.669 187.076 104.074C188.469 106.48 189.165 109.349 189.165 112.683C189.165 116.016 188.511 118.907 187.203 121.354C185.937 123.759 184.122 125.637 181.759 126.987C179.438 128.296 176.674 128.95 173.467 128.95ZM173.467 127.684C174.944 127.684 176.126 127.262 177.012 126.418C177.898 125.574 178.531 124.076 178.911 121.924C179.333 119.772 179.544 116.734 179.544 112.809C179.544 108.843 179.333 105.783 178.911 103.631C178.531 101.479 177.898 99.9814 177.012 99.1374C176.126 98.2935 174.944 97.8715 173.467 97.8715C171.991 97.8715 170.788 98.2935 169.86 99.1374C168.973 99.9814 168.319 101.479 167.897 103.631C167.518 105.783 167.328 108.843 167.328 112.809C167.328 116.734 167.518 119.772 167.897 121.924C168.319 124.076 168.973 125.574 169.86 126.418C170.788 127.262 171.991 127.684 173.467 127.684Z" fill="black"/>
<path d="M191.945 128V127.367L192.831 127.114C194.308 126.692 195.046 125.658 195.046 124.013V104.201C195.046 103.273 194.899 102.598 194.603 102.176C194.308 101.711 193.738 101.395 192.894 101.226L191.945 100.973V100.34L202.768 96.6689L203.401 97.3019L203.908 101.1C205.385 99.7915 207.051 98.7155 208.908 97.8715C210.765 97.0276 212.6 96.6056 214.415 96.6056C217.2 96.6056 219.331 97.3652 220.808 98.8842C222.327 100.403 223.086 102.724 223.086 105.847V124.076C223.086 125.722 223.888 126.755 225.491 127.177L226.061 127.367V128H211.123V127.367L211.946 127.114C213.423 126.65 214.162 125.616 214.162 124.013V103.821C214.162 101.121 212.811 99.7704 210.111 99.7704C208.254 99.7704 206.229 100.699 204.034 102.555V124.076C204.034 125.722 204.773 126.755 206.25 127.177L206.819 127.367V128H191.945Z" fill="black"/>
<path d="M264.095 129.139C259.791 129.139 255.993 128.253 252.702 126.481C249.453 124.667 246.9 122.114 245.043 118.822C243.229 115.489 242.322 111.564 242.322 107.049C242.322 102.661 243.229 98.8209 245.043 95.5296C246.858 92.2382 249.474 89.6853 252.892 87.8708C256.352 86.0141 260.53 85.0858 265.424 85.0858C267.661 85.0858 269.729 85.339 271.627 85.8454C273.569 86.3517 275.404 87.0902 277.134 88.0607L277.387 96.9221H276.754L273.21 90.3393C272.661 89.2844 272.155 88.5249 271.691 88.0607C271.227 87.5965 270.636 87.2379 269.918 86.9847C269.243 86.7737 268.61 86.626 268.02 86.5416C267.471 86.415 266.733 86.3517 265.804 86.3517C263.188 86.3517 260.867 87.048 258.842 88.4405C256.859 89.833 255.318 92.0483 254.221 95.0865C253.124 98.1247 252.576 102.112 252.576 107.049C252.576 111.944 253.082 115.932 254.095 119.012C255.15 122.093 256.626 124.35 258.525 125.785C260.424 127.177 262.618 127.874 265.108 127.874C265.488 127.874 265.846 127.852 266.184 127.81C266.564 127.726 266.922 127.642 267.26 127.557C268.062 127.431 268.589 127.093 268.842 126.544C269.096 125.996 269.222 125.342 269.222 124.582V112.05C269.222 110.404 268.378 109.391 266.69 109.012L263.779 108.252V107.619H281.628V108.252L280.742 108.505C279.139 109.012 278.337 110.066 278.337 111.67V125.405C276.143 126.629 273.906 127.557 271.627 128.19C269.391 128.823 266.88 129.139 264.095 129.139Z" fill="black"/>
<path d="M294.945 128.95C293.299 128.95 291.78 128.633 290.388 128C289.037 127.367 287.961 126.355 287.16 124.962C286.4 123.527 286.041 121.65 286.084 119.329L286.273 103.062C286.273 102.091 286.105 101.395 285.767 100.973C285.43 100.551 284.902 100.256 284.185 100.087L283.425 99.8337V99.2007L294.755 96.9854L295.388 97.6183L295.072 106.606V121.861C295.072 123.211 295.451 124.202 296.211 124.835C297.013 125.468 298.004 125.785 299.186 125.785C300.367 125.785 301.422 125.616 302.351 125.278C303.279 124.941 304.207 124.435 305.136 123.759L305.389 103.125C305.389 102.155 305.241 101.479 304.946 101.1C304.65 100.678 304.102 100.382 303.3 100.213L302.667 100.024V99.3906L313.744 96.9854L314.377 97.6183L314.187 106.606V123.759C314.187 124.688 314.313 125.405 314.567 125.911C314.82 126.418 315.368 126.84 316.212 127.177L316.845 127.367V128L305.768 128.633L305.199 124.899C303.806 126.038 302.287 127.009 300.642 127.81C299.038 128.57 297.139 128.95 294.945 128.95Z" fill="black"/>
<path d="M326.997 93.3142C325.562 93.3142 324.338 92.8712 323.326 91.985C322.355 91.0567 321.87 89.8963 321.87 88.5038C321.87 87.0691 322.355 85.9087 323.326 85.0225C324.338 84.1364 325.562 83.6933 326.997 83.6933C328.431 83.6933 329.634 84.1364 330.605 85.0225C331.575 85.9087 332.06 87.0691 332.06 88.5038C332.06 89.8963 331.575 91.0567 330.605 91.985C329.634 92.8712 328.431 93.3142 326.997 93.3142ZM319.528 128V127.367L320.414 127.114C321.258 126.861 321.828 126.481 322.123 125.975C322.461 125.468 322.629 124.793 322.629 123.949V104.138C322.629 103.252 322.461 102.598 322.123 102.176C321.828 101.711 321.258 101.395 320.414 101.226L319.528 101.036V100.403L331.111 96.6689L331.744 97.3019L331.554 106.29V124.013C331.554 124.856 331.702 125.532 331.997 126.038C332.335 126.544 332.904 126.924 333.706 127.177L334.339 127.367V128H319.528Z" fill="black"/>
<path d="M350.56 128.95C348.07 128.95 345.834 128.401 343.851 127.304C341.867 126.165 340.285 124.435 339.103 122.114C337.964 119.751 337.394 116.734 337.394 113.062C337.394 109.349 338.049 106.29 339.357 103.885C340.665 101.437 342.395 99.6227 344.547 98.4412C346.699 97.2175 349.041 96.6056 351.573 96.6056C353.05 96.6056 354.463 96.7533 355.813 97.0487C357.164 97.3441 358.366 97.7871 359.421 98.3779V90.1495C359.421 89.2633 359.274 88.6093 358.978 88.1873C358.725 87.7653 358.155 87.4699 357.269 87.3012L356.067 87.048V86.415L367.586 83.63L368.283 84.1997L368.029 93.0611V124.013C368.029 124.856 368.177 125.553 368.473 126.101C368.768 126.608 369.317 126.966 370.118 127.177L370.688 127.367V128L359.864 128.696L359.295 126.418C358.155 127.177 356.847 127.789 355.37 128.253C353.936 128.718 352.332 128.95 350.56 128.95ZM354.231 126.608C356.003 126.608 357.628 126.08 359.105 125.025V99.897C357.544 98.8842 355.94 98.3779 354.294 98.3779C352.269 98.3779 350.539 99.5594 349.104 101.922C347.669 104.243 346.952 107.914 346.952 112.936C346.952 117.957 347.627 121.502 348.978 123.57C350.328 125.595 352.079 126.608 354.231 126.608Z" fill="black"/>
<path d="M389.374 96.6056C392.117 96.6056 394.459 97.1753 396.4 98.3146C398.341 99.4117 399.818 100.931 400.83 102.872C401.885 104.771 402.413 106.944 402.413 109.391C402.413 109.855 402.392 110.341 402.35 110.847C402.307 111.311 402.223 111.733 402.096 112.113H383.234C383.277 116.67 384.078 119.962 385.64 121.987C387.243 123.97 389.606 124.962 392.729 124.962C394.838 124.962 396.547 124.624 397.856 123.949C399.164 123.274 400.387 122.282 401.527 120.974L402.16 121.544C400.852 123.865 399.1 125.679 396.906 126.987C394.754 128.296 392.159 128.95 389.121 128.95C386.125 128.95 383.466 128.317 381.146 127.051C378.825 125.743 377.01 123.886 375.702 121.481C374.394 119.076 373.74 116.206 373.74 112.873C373.74 109.412 374.5 106.48 376.019 104.074C377.538 101.627 379.479 99.7704 381.842 98.5045C384.247 97.2386 386.758 96.6056 389.374 96.6056ZM389.184 97.8715C387.96 97.8715 386.905 98.2513 386.019 99.0108C385.175 99.7282 384.5 101.036 383.994 102.935C383.53 104.792 383.277 107.429 383.234 110.847H394.058C394.48 106.248 394.311 102.935 393.551 100.91C392.792 98.8842 391.336 97.8715 389.184 97.8715Z" fill="black"/>
</svg>
