<svg width="521" height="248" viewBox="0 0 521 248" fill="none" xmlns="http://www.w3.org/2000/svg">
<path fill-rule="evenodd" clip-rule="evenodd" d="M79.6969 138.563C81.28 136.952 83.4724 136.122 85.9115 136.122C88.3425 136.122 90.5366 136.952 92.1235 138.563C93.7115 140.174 94.6488 142.524 94.6488 145.482C94.6488 148.439 93.7115 150.789 92.1235 152.4C90.5366 154.011 88.3425 154.841 85.9115 154.841C83.4713 154.841 81.279 154.004 79.6966 152.39C78.1134 150.775 77.1827 148.426 77.1827 145.482C77.1827 142.525 78.1131 140.175 79.6969 138.563ZM80.4219 139.276C79.0566 140.665 78.199 142.742 78.199 145.482C78.199 148.208 79.0563 150.285 80.4223 151.678C81.789 153.072 83.7071 153.825 85.9115 153.825C88.1084 153.825 90.0288 153.078 91.3995 151.687C92.7692 150.297 93.6325 148.22 93.6325 145.482C93.6325 142.743 92.7692 140.666 91.3995 139.276C90.0288 137.885 88.1084 137.138 85.9115 137.138C83.706 137.138 81.7881 137.885 80.4219 139.276ZM103.477 138.564C105.053 136.953 107.233 136.122 109.648 136.122C111.825 136.122 113.755 136.738 115.204 137.931C116.657 139.128 117.588 140.875 117.811 143.057L117.868 143.617H112.648L112.593 143.17C112.502 142.417 112.191 141.832 111.728 141.434C111.263 141.035 110.604 140.79 109.757 140.79C108.641 140.79 107.788 141.206 107.199 141.96C106.599 142.731 106.235 143.907 106.235 145.482C106.235 147.126 106.608 148.298 107.206 149.049C107.791 149.784 108.637 150.173 109.732 150.173C110.554 150.173 111.205 149.953 111.675 149.583C112.143 149.215 112.47 148.671 112.598 147.951L112.672 147.529L117.867 147.56L117.811 148.116C117.474 151.42 114.647 154.841 109.648 154.841C107.191 154.841 105.01 154.004 103.444 152.388C101.877 150.772 100.97 148.423 100.97 145.482C100.97 142.525 101.9 140.176 103.477 138.564ZM104.203 139.275C102.844 140.665 101.986 142.742 101.986 145.482C101.986 148.211 102.824 150.289 104.173 151.68C105.522 153.072 107.426 153.825 109.648 153.825C113.813 153.825 116.187 151.201 116.715 148.569L113.502 148.55C113.289 149.3 112.883 149.926 112.303 150.382C111.621 150.918 110.736 151.19 109.732 151.19C108.37 151.19 107.214 150.691 106.411 149.682C105.62 148.69 105.219 147.262 105.219 145.482C105.219 143.767 105.613 142.342 106.398 141.335C107.196 140.312 108.358 139.773 109.757 139.773C110.804 139.773 111.71 140.079 112.39 140.663C112.963 141.155 113.347 141.821 113.525 142.601H116.723C116.437 140.931 115.665 139.628 114.558 138.715C113.324 137.7 111.636 137.138 109.648 137.138C107.469 137.138 105.564 137.884 104.203 139.275ZM216.426 138.599C218.016 136.976 220.212 136.122 222.634 136.122C226.826 136.122 230.152 138.695 230.61 142.433L230.68 143.003H225.499L225.399 142.625C225.242 142.032 224.931 141.584 224.498 141.28C224.062 140.973 223.469 140.79 222.718 140.79C221.608 140.79 220.742 141.202 220.142 141.953C219.53 142.717 219.154 143.885 219.154 145.456C219.154 147.047 219.512 148.228 220.114 149C220.702 149.754 221.565 150.173 222.718 150.173C223.764 150.173 224.513 149.906 224.997 149.492C225.363 149.179 225.611 148.755 225.715 148.219H222.353V144.166H230.799V146.954C230.799 149.389 229.961 151.375 228.499 152.749C227.04 154.12 225.006 154.841 222.685 154.841C220.096 154.841 217.884 153.954 216.321 152.315C214.759 150.678 213.888 148.337 213.888 145.507C213.888 142.576 214.836 140.222 216.426 138.599ZM217.152 139.31C215.775 140.715 214.905 142.8 214.905 145.507C214.905 148.128 215.708 150.201 217.056 151.614C218.402 153.025 220.335 153.825 222.685 153.825C224.797 153.825 226.566 153.171 227.803 152.009C229.035 150.851 229.783 149.146 229.783 146.954V145.182H223.369V147.203H226.798L226.786 147.723C226.762 148.753 226.387 149.641 225.658 150.264C224.937 150.88 223.928 151.19 222.718 151.19C221.289 151.19 220.115 150.654 219.313 149.625C218.524 148.613 218.138 147.181 218.138 145.456C218.138 143.737 218.548 142.318 219.348 141.318C220.159 140.304 221.329 139.773 222.718 139.773C223.634 139.773 224.442 139.998 225.083 140.449C225.623 140.828 226.021 141.353 226.261 141.986H229.503C228.868 139.154 226.185 137.138 222.634 137.138C220.454 137.138 218.531 137.903 217.152 139.31ZM307.459 137.703C308.765 136.682 310.576 136.122 312.633 136.122C314.724 136.122 316.49 136.691 317.748 137.731C319.014 138.777 319.728 140.271 319.746 142.026L319.751 142.54H314.784L314.743 142.077C314.699 141.584 314.507 141.232 314.196 140.994C313.873 140.747 313.366 140.579 312.624 140.579C311.879 140.579 311.39 140.738 311.1 140.944C310.829 141.137 310.703 141.391 310.701 141.7L310.701 141.706L310.7 141.712C310.69 142.016 310.814 142.252 311.142 142.477C311.498 142.72 312.058 142.918 312.824 143.083L312.829 143.084L314.307 143.42C314.307 143.42 314.308 143.42 314.308 143.421C316.059 143.806 317.473 144.445 318.456 145.391C319.454 146.351 319.972 147.594 319.982 149.097L319.982 149.102C319.972 150.884 319.268 152.342 317.96 153.34C316.669 154.324 314.838 154.825 312.624 154.825C310.392 154.825 308.48 154.329 307.11 153.248C305.723 152.153 304.957 150.508 304.93 148.366L304.924 147.851H309.907L309.934 148.331C309.973 149.031 310.24 149.516 310.655 149.837C311.083 150.168 311.725 150.367 312.574 150.367C313.344 150.367 313.898 150.197 314.245 149.959C314.575 149.732 314.733 149.437 314.741 149.091C314.734 148.801 314.62 148.577 314.289 148.355C313.92 148.106 313.312 147.884 312.375 147.668L312.374 147.668L310.576 147.247C310.575 147.247 310.575 147.247 310.575 147.247C309.039 146.896 307.739 146.328 306.818 145.463C305.882 144.582 305.373 143.425 305.376 141.984C305.363 140.215 306.144 138.732 307.459 137.703ZM308.085 138.504C307.005 139.349 306.381 140.541 306.393 141.977L306.393 141.983C306.389 143.157 306.792 144.042 307.515 144.722C308.254 145.417 309.36 145.927 310.802 146.257L310.805 146.257L312.604 146.678C312.604 146.678 312.604 146.678 312.604 146.678C313.56 146.899 314.324 147.153 314.857 147.512C315.426 147.895 315.746 148.41 315.758 149.082L315.758 149.091L315.758 149.099C315.746 149.802 315.403 150.396 314.821 150.796C314.253 151.187 313.478 151.383 312.574 151.383C311.58 151.383 310.694 151.152 310.033 150.641C309.475 150.208 309.115 149.605 308.977 148.867H305.97C306.098 150.486 306.735 151.657 307.74 152.45C308.867 153.34 310.523 153.808 312.624 153.808C314.701 153.808 316.287 153.337 317.344 152.531C318.382 151.739 318.957 150.59 318.965 149.1C318.957 147.853 318.537 146.879 317.752 146.123C316.951 145.353 315.736 144.776 314.088 144.413L314.085 144.412L312.61 144.077C312.609 144.077 312.608 144.076 312.607 144.076C311.809 143.904 311.091 143.673 310.568 143.316C310.019 142.94 309.663 142.404 309.684 141.685C309.692 141.054 309.974 140.498 310.511 140.116C311.031 139.745 311.754 139.563 312.624 139.563C313.506 139.563 314.257 139.761 314.814 140.187C315.259 140.528 315.544 140.987 315.678 141.524H318.7C318.568 140.287 318.005 139.262 317.101 138.514C316.066 137.658 314.546 137.138 312.633 137.138C310.751 137.138 309.176 137.651 308.085 138.504ZM386.34 137.703C387.646 136.682 389.457 136.122 391.514 136.122C393.605 136.122 395.372 136.691 396.629 137.731C397.895 138.777 398.609 140.271 398.627 142.026L398.632 142.54H393.666L393.624 142.077C393.581 141.584 393.388 141.232 393.077 140.994C392.754 140.747 392.247 140.579 391.505 140.579C390.76 140.579 390.271 140.738 389.981 140.944C389.71 141.137 389.585 141.391 389.582 141.7L389.582 141.706L389.582 141.712C389.572 142.016 389.695 142.252 390.023 142.477C390.379 142.72 390.939 142.918 391.705 143.083L391.711 143.084L393.188 143.42C393.189 143.42 393.189 143.42 393.19 143.421C394.94 143.806 396.354 144.445 397.337 145.391C398.335 146.351 398.853 147.594 398.863 149.097L398.863 149.102C398.854 150.884 398.149 152.342 396.841 153.34C395.55 154.324 393.72 154.825 391.505 154.825C389.273 154.825 387.361 154.329 385.992 153.248C384.604 152.153 383.838 150.508 383.811 148.366L383.805 147.851H388.789L388.815 148.331C388.854 149.031 389.121 149.516 389.536 149.837C389.965 150.168 390.606 150.367 391.455 150.367C392.225 150.367 392.779 150.197 393.126 149.959C393.456 149.732 393.614 149.437 393.622 149.091C393.615 148.801 393.501 148.577 393.17 148.355C392.801 148.106 392.193 147.884 391.256 147.668L391.255 147.668L389.457 147.247C389.456 147.247 389.456 147.247 389.456 147.247C387.92 146.896 386.62 146.328 385.7 145.463C384.764 144.582 384.254 143.425 384.257 141.984C384.244 140.215 385.025 138.732 386.34 137.703ZM386.967 138.504C385.886 139.349 385.262 140.541 385.274 141.977L385.274 141.983C385.27 143.157 385.673 144.042 386.396 144.722C387.135 145.417 388.241 145.927 389.683 146.257L389.686 146.257L391.485 146.678C391.485 146.678 391.485 146.678 391.485 146.678C392.442 146.899 393.205 147.153 393.738 147.512C394.307 147.895 394.627 148.41 394.639 149.082L394.639 149.091L394.639 149.099C394.627 149.802 394.285 150.396 393.702 150.796C393.134 151.187 392.359 151.383 391.455 151.383C390.461 151.383 389.575 151.152 388.914 150.641C388.356 150.208 387.996 149.605 387.858 148.867H384.851C384.979 150.486 385.616 151.657 386.621 152.45C387.748 153.34 389.405 153.808 391.505 153.808C393.582 153.808 395.168 153.337 396.225 152.531C397.263 151.739 397.838 150.59 397.846 149.1C397.838 147.853 397.418 146.879 396.633 146.123C395.833 145.353 394.618 144.776 392.969 144.413L392.966 144.412L391.491 144.077C391.49 144.077 391.489 144.076 391.488 144.076C390.69 143.904 389.972 143.673 389.449 143.316C388.9 142.94 388.544 142.404 388.566 141.685C388.573 141.054 388.855 140.498 389.392 140.116C389.912 139.745 390.635 139.563 391.505 139.563C392.388 139.563 393.138 139.761 393.695 140.187C394.14 140.528 394.425 140.987 394.56 141.524H397.581C397.449 140.287 396.886 139.262 395.982 138.514C394.947 137.658 393.428 137.138 391.514 137.138C389.633 137.138 388.057 137.651 386.967 138.504ZM407.37 138.563C408.953 136.952 411.145 136.122 413.584 136.122C416.015 136.122 418.209 136.952 419.796 138.563C421.384 140.174 422.322 142.524 422.322 145.482C422.322 148.411 421.397 150.741 419.841 152.354L422.763 155.952H417.688L416.419 154.428C415.53 154.703 414.579 154.841 413.584 154.841C411.144 154.841 408.952 154.004 407.369 152.39C405.786 150.775 404.855 148.426 404.855 145.482C404.855 142.525 405.786 140.175 407.37 138.563ZM408.095 139.276C406.729 140.665 405.872 142.742 405.872 145.482C405.872 148.208 406.729 150.285 408.095 151.678C409.462 153.072 411.38 153.825 413.584 153.825C414.599 153.825 415.551 153.665 416.418 153.358L416.752 153.24L418.164 154.936H420.628L418.459 152.263L418.811 151.939C420.33 150.545 421.305 148.384 421.305 145.482C421.305 142.743 420.442 140.666 419.072 139.276C417.702 137.885 415.781 137.138 413.584 137.138C411.379 137.138 409.461 137.885 408.095 139.276ZM443.282 138.563C444.865 136.952 447.057 136.122 449.496 136.122C451.927 136.122 454.121 136.952 455.708 138.563C457.296 140.174 458.233 142.524 458.233 145.482C458.233 148.439 457.296 150.789 455.708 152.4C454.121 154.011 451.927 154.841 449.496 154.841C447.056 154.841 444.864 154.004 443.281 152.39C441.698 150.775 440.767 148.426 440.767 145.482C440.767 142.525 441.698 140.175 443.282 138.563ZM444.007 139.276C442.641 140.665 441.784 142.742 441.784 145.482C441.784 148.208 442.641 150.285 444.007 151.678C445.374 153.072 447.292 153.825 449.496 153.825C451.693 153.825 453.613 153.078 454.984 151.687C456.354 150.297 457.217 148.22 457.217 145.482C457.217 142.743 456.354 140.666 454.984 139.276C453.613 137.885 451.693 137.138 449.496 137.138C447.291 137.138 445.373 137.885 444.007 139.276ZM33.3691 136.357H39.0533L41.3484 146.325L43.9703 136.357H48.5069L51.1292 146.349L53.4322 136.357H59.1075L53.8058 154.606H49.0315L46.2385 145.205L43.4455 154.606H38.6798L33.3691 136.357ZM34.7234 137.374L39.4425 153.589H42.6872L45.792 143.139H46.685L49.7898 153.589H53.0427L57.7539 137.374H54.2409L51.6325 148.691H50.6931L47.7228 137.374H44.7539L41.7837 148.665H40.8444L38.2444 137.374H34.7234ZM59.6432 136.357H64.8246V143.274H70.5985V136.357H75.7715V154.606H70.5985V147.681H64.8246V154.606H59.6432V136.357ZM60.6596 137.374V153.589H63.8083V146.665H71.6149V153.589H74.7552V137.374H71.6149V144.29H63.8083V137.374H60.6596ZM119.18 136.357H124.362V143.274H130.135V136.357H135.308V154.606H130.135V147.681H124.362V154.606H119.18V136.357ZM120.196 137.374V153.589H123.345V146.665H131.152V153.589H134.292V137.374H131.152V144.29H123.345V137.374H120.196ZM142.113 136.357H148.388L154.545 154.606H148.988L147.852 150.988H142.649L141.513 154.606H135.956L142.113 136.357ZM142.843 137.374L137.372 153.589H140.767L141.903 149.971H148.598L149.734 153.589H153.13L147.658 137.374H142.843ZM155.185 136.357H160.366V150.207H167.535V154.606H155.185V136.357ZM156.201 137.374V153.589H166.518V151.223H159.35V137.374H156.201ZM168.675 136.357H173.856V150.207H181.025V154.606H168.675V136.357ZM169.691 137.374V153.589H180.009V151.223H172.84V137.374H169.691ZM182.165 136.357H195.197V140.756H187.346V143.274H194.582V147.681H187.346V150.207H195.197V154.606H182.165V136.357ZM183.181 137.374V153.589H194.18V151.223H186.33V146.665H193.566V144.29H186.33V139.74H194.18V137.374H183.181ZM196.789 136.357H201.15L207.298 145.359V136.357H212.471V154.606H208.162L201.97 145.626V154.606H196.789V136.357ZM197.805 137.374V153.589H200.954V143.644H201.838L208.696 153.589H211.455V137.374H208.314V147.302H207.395L200.613 137.374H197.805ZM232.238 136.357H245.27V140.756H237.419V143.274H244.655V147.681H237.419V150.207H245.27V154.606H232.238V136.357ZM233.254 137.374V153.589H244.253V151.223H236.403V146.665H243.639V144.29H236.403V139.74H244.253V137.374H233.254ZM251.388 136.357H266.97V140.756H261.745V154.606H256.622V140.756H251.388V136.357ZM252.405 137.374V139.74H257.638V153.589H260.728V139.74H265.954V137.374H252.405ZM267.988 136.357H273.169V143.274H278.943V136.357H284.116V154.606H278.943V147.681H273.169V154.606H267.988V136.357ZM269.004 137.374V153.589H272.153V146.665H279.959V153.589H283.1V137.374H279.959V144.29H272.153V137.374H269.004ZM285.712 136.357H298.744V140.756H290.894V143.274H298.13V147.681H290.894V150.207H298.744V154.606H285.712V136.357ZM286.729 137.374V153.589H297.728V151.223H289.877V146.665H297.113V144.29H289.877V139.74H297.728V137.374H286.729ZM320.505 136.357H336.086V140.756H330.861V154.606H325.739V140.756H320.505V136.357ZM321.521 137.374V139.74H326.755V153.589H329.845V139.74H335.07V137.374H321.521ZM340.161 136.357H346.436L352.593 154.606H347.035L345.9 150.988H340.697L339.561 154.606H334.004L340.161 136.357ZM340.891 137.374L335.419 153.589H338.815L339.951 149.971H346.646L347.782 153.589H351.177L345.706 137.374H340.891ZM350.516 136.357H366.098V140.756H360.873V154.606H355.75V140.756H350.516V136.357ZM351.533 137.374V139.74H356.766V153.589H359.856V139.74H365.081V137.374H351.533ZM367.116 136.357H372.297V148.09C372.297 148.718 372.546 149.211 372.973 149.558C373.411 149.912 374.071 150.14 374.919 150.14C375.776 150.14 376.443 149.912 376.885 149.557C377.316 149.21 377.566 148.717 377.566 148.09V136.357H382.714V148.25C382.714 150.351 381.916 152.019 380.505 153.15C379.109 154.27 377.163 154.825 374.919 154.825C372.659 154.825 370.71 154.27 369.315 153.15C367.906 152.018 367.116 150.349 367.116 148.25V136.357ZM368.132 137.374V148.25C368.132 150.071 368.805 151.436 369.952 152.357C371.113 153.29 372.812 153.808 374.919 153.808C377.008 153.808 378.705 153.29 379.869 152.357C381.019 151.435 381.697 150.07 381.697 148.25V137.374H378.582V148.09C378.582 149.02 378.197 149.806 377.522 150.349C376.857 150.883 375.947 151.156 374.919 151.156C373.899 151.156 372.994 150.883 372.333 150.347C371.663 149.804 371.281 149.018 371.281 148.09V137.374H368.132ZM423.76 136.357H428.941V148.09C428.941 148.718 429.19 149.211 429.618 149.558C430.055 149.912 430.716 150.14 431.563 150.14C432.42 150.14 433.088 149.912 433.529 149.557C433.961 149.21 434.21 148.717 434.21 148.09V136.357H439.358V148.25C439.358 150.351 438.56 152.019 437.15 153.15C435.753 154.27 433.807 154.825 431.563 154.825C429.304 154.825 427.355 154.27 425.96 153.15C424.551 152.018 423.76 150.349 423.76 148.25V136.357ZM424.776 137.374V148.25C424.776 150.071 425.45 151.436 426.596 152.357C427.758 153.29 429.456 153.808 431.563 153.808C433.653 153.808 435.35 153.29 436.514 152.357C437.663 151.435 438.342 150.07 438.342 148.25V137.374H435.227V148.09C435.227 149.02 434.841 149.806 434.166 150.349C433.502 150.883 432.591 151.156 431.563 151.156C430.543 151.156 429.638 150.883 428.978 150.347C428.307 149.804 427.925 149.018 427.925 148.09V137.374H424.776ZM83.3962 141.928C82.8072 142.686 82.4482 143.86 82.4482 145.482C82.4482 147.103 82.8072 148.277 83.3962 149.035C83.9711 149.775 84.8076 150.173 85.9115 150.173C87.02 150.173 87.8562 149.774 88.4298 149.035C89.0177 148.278 89.3749 147.104 89.3749 145.482C89.3749 143.859 89.0177 142.685 88.4298 141.928C87.8562 141.189 87.02 140.79 85.9115 140.79C84.8076 140.79 83.9711 141.188 83.3962 141.928ZM82.5937 141.304C83.3841 140.288 84.5332 139.773 85.9115 139.773C87.2936 139.773 88.4432 140.287 89.2327 141.305C90.008 142.304 90.3912 143.729 90.3912 145.482C90.3912 147.234 90.008 148.659 89.2327 149.658C88.4432 150.676 87.2936 151.19 85.9115 151.19C84.5332 151.19 83.3841 150.676 82.5937 149.659C81.8175 148.66 81.4318 147.234 81.4318 145.482C81.4318 143.729 81.8175 142.303 82.5937 141.304ZM411.069 141.928C410.48 142.686 410.121 143.86 410.121 145.482C410.121 147.103 410.48 148.277 411.069 149.035C411.576 149.687 412.286 150.074 413.204 150.157L411.115 147.397H415.75L416.508 148.364C416.852 147.642 417.048 146.686 417.048 145.482C417.048 143.859 416.69 142.685 416.103 141.928C415.529 141.189 414.693 140.79 413.584 140.79C412.48 140.79 411.644 141.188 411.069 141.928ZM410.266 141.304C411.057 140.288 412.206 139.773 413.584 139.773C414.966 139.773 416.116 140.287 416.905 141.305C417.681 142.304 418.064 143.729 418.064 145.482C418.064 147.176 417.707 148.568 416.971 149.562L416.574 150.098L415.255 148.413H413.159L415.143 151.035L414.27 151.144C414.053 151.171 413.821 151.19 413.584 151.19C412.206 151.19 411.057 150.676 410.266 149.659C409.49 148.66 409.105 147.234 409.105 145.482C409.105 143.729 409.49 142.303 410.266 141.304ZM446.981 141.928C446.392 142.686 446.033 143.86 446.033 145.482C446.033 147.103 446.392 148.277 446.981 149.035C447.556 149.775 448.392 150.173 449.496 150.173C450.605 150.173 451.441 149.774 452.014 149.035C452.602 148.278 452.959 147.104 452.959 145.482C452.959 143.859 452.602 142.685 452.014 141.928C451.441 141.189 450.605 140.79 449.496 140.79C448.392 140.79 447.556 141.188 446.981 141.928ZM446.178 141.304C446.969 140.288 448.118 139.773 449.496 139.773C450.878 139.773 452.028 140.287 452.817 141.305C453.593 142.304 453.976 143.729 453.976 145.482C453.976 147.234 453.593 148.659 452.817 149.658C452.028 150.676 450.878 151.19 449.496 151.19C448.118 151.19 446.969 150.676 446.178 149.659C445.402 148.66 445.016 147.234 445.016 145.482C445.016 143.729 445.402 142.303 446.178 141.304ZM144.806 140.699H145.687L147.924 147.824H142.578L144.806 140.699ZM145.247 142.692L143.96 146.808H146.54L145.247 142.692ZM342.853 140.699H343.734L345.972 147.824H340.625L342.853 140.699ZM343.295 142.692L342.008 146.808H344.588L343.295 142.692Z" fill="black"/>
<path d="M96.7686 108.316V125.548H100.824V114.904H100.967L105.107 125.439H107.699L111.838 114.963H111.981V125.548H116.037V108.316H110.879L106.504 118.985H106.302L101.926 108.316H96.7686Z" fill="black"/>
<path d="M129.085 108.316V119.54C129.085 121.097 127.815 122.098 125.93 122.098C124.062 122.098 122.8 121.097 122.8 119.54V108.316H118.635V119.7C118.635 123.621 121.563 125.767 125.93 125.767C130.263 125.767 133.217 123.621 133.217 119.7V108.316H129.085Z" fill="black"/>
<path d="M135.827 125.548H147.161V122.165H139.992V108.316H135.827V125.548Z" fill="black"/>
<path d="M146.648 111.698H151.882V125.548H155.988V111.698H161.213V108.316H146.648V111.698Z" fill="black"/>
<path d="M167.412 108.316H163.247V125.548H167.412V108.316Z" fill="black"/>
<path d="M170.027 125.548H174.192V118.623H181.041V115.232H174.192V111.698H181.79V108.316H170.027V125.548Z" fill="black"/>
<path d="M185.463 125.548L186.599 121.93H192.548L193.684 125.548H198.16L192.346 108.316H186.801L180.986 125.548H185.463ZM187.592 118.766L189.502 112.657H189.636L191.555 118.766H187.592Z" fill="black"/>
<path d="M214.847 114.559C214.427 110.436 211.355 108.08 207.19 108.08C202.596 108.08 199.02 111.235 199.02 116.932C199.02 122.603 202.512 125.784 207.19 125.784C211.919 125.784 214.536 122.569 214.847 119.515L210.64 119.49C210.346 121.147 209.1 122.132 207.275 122.132C204.818 122.132 203.269 120.356 203.269 116.932C203.269 113.642 204.784 111.732 207.3 111.732C209.193 111.732 210.43 112.834 210.64 114.559H214.847Z" fill="black"/>
<path d="M216.667 111.698H221.901V125.548H226.007V111.698H231.232V108.316H216.667V111.698Z" fill="black"/>
<path d="M233.266 125.548H245.282V122.165H237.431V118.623H244.667V115.232H237.431V111.698H245.282V108.316H233.266V125.548Z" fill="black"/>
<path d="M254.26 125.548C259.51 125.548 262.766 122.309 262.766 116.923C262.766 111.547 259.51 108.316 254.251 108.316H247.89V125.548H254.26ZM252.055 121.997V111.866H254.041C257.003 111.866 258.593 113.213 258.593 116.923C258.593 120.651 257.003 121.997 254.1 121.997H252.055Z" fill="black"/>
<path d="M270.289 108.316V125.548H274.344V114.904H274.487L278.627 125.439H281.219L285.358 114.963H285.502V125.548H289.557V108.316H284.399L280.024 118.985H279.822L275.447 108.316H270.289Z" fill="black"/>
<path d="M296.32 108.316H292.155V125.548H296.32V108.316Z" fill="black"/>
<path d="M298.935 125.548H310.269V122.165H303.1V108.316H298.935V125.548Z" fill="black"/>
<path d="M312.425 125.548H323.759V122.165H316.59V108.316H312.425V125.548Z" fill="black"/>
<path d="M325.915 125.548H337.931V122.165H330.08V118.623H337.316V115.232H330.08V111.698H337.931V108.316H325.915V125.548Z" fill="black"/>
<path d="M355.205 108.316H351.048V118.244H350.905L344.123 108.316H340.539V125.548H344.704V115.602H344.813L351.671 125.548H355.205V108.316Z" fill="black"/>
<path d="M372.49 108.316H368.333V118.244H368.19L361.408 108.316H357.824V125.548H361.989V115.602H362.098L368.956 125.548H372.49V108.316Z" fill="black"/>
<path d="M378.836 125.548L379.972 121.93H385.921L387.057 125.548H391.533L385.719 108.316H380.174L374.36 125.548H378.836ZM380.965 118.766L382.875 112.657H383.01L384.928 118.766H380.965Z" fill="black"/>
<path d="M397.554 108.316H393.389V125.548H397.554V108.316Z" fill="black"/>
<path d="M400.168 125.548H411.502V122.165H404.333V108.316H400.168V125.548Z" fill="black"/>
<path d="M422.973 113.482H426.961C426.928 110.259 424.361 108.08 420.356 108.08C416.418 108.08 413.583 110.226 413.608 113.432C413.6 116.048 415.434 117.521 418.412 118.202L420.213 118.623C422.106 119.061 422.956 119.574 422.973 120.542C422.956 121.593 421.972 122.325 420.297 122.325C418.455 122.325 417.243 121.467 417.15 119.809H413.162C413.213 123.84 416.014 125.767 420.348 125.767C424.639 125.767 427.18 123.823 427.197 120.55C427.18 117.798 425.321 116.116 421.921 115.367L420.44 115.03C418.875 114.694 417.882 114.172 417.916 113.145C417.924 112.203 418.732 111.521 420.348 111.521C421.972 111.521 422.864 112.254 422.973 113.482Z" fill="black"/>
<path d="M519.969 22.0748L521 15.2171L507.52 0.628484H488.03L487.554 3.79872L484.615 0.628484H477.911L477.007 6.61855L471.463 0.628484H462.297L461.82 3.80428L458.887 0.628484H451.418L451.119 2.62517L449.278 0.628484H429.028L427.991 7.49176L435.577 15.6954L434.235 18.1148L434.202 15.2171L420.717 0.628484H410.869L408.097 9.37165C406.289 8.07018 404.215 7.03013 402.302 5.81209L399.253 2.51394C397.733 0.845395 395.344 0 392.2 0C391.756 0 391.324 0 390.897 0.0500563C390.758 0.0500563 390.625 0.0834271 390.486 0.100113C390.204 0.127922 389.932 0.161292 389.66 0.205787L389.189 0.300338C388.95 0.350394 388.712 0.394888 388.485 0.456068L388.008 0.600675C387.797 0.667417 387.581 0.734159 387.376 0.812024L387.226 0.856518C387.126 0.895451 387.037 0.945507 386.943 0.98444C386.721 1.07899 386.5 1.1791 386.283 1.28478L386.095 1.37377C385.99 1.42938 385.89 1.49613 385.79 1.55174C385.69 1.60736 385.551 1.68523 385.435 1.76309C385.378 1.78917 385.325 1.82084 385.274 1.85764C385.113 1.95776 384.958 2.07455 384.808 2.18579L384.642 2.30259L384.592 2.33596C384.389 2.49169 384.189 2.65854 383.993 2.83652L383.844 2.97001C383.711 3.09793 383.572 3.23141 383.444 3.36489C383.317 3.49838 383.289 3.53731 383.212 3.6263L383.023 3.83765L382.907 3.96557C382.762 4.13799 382.629 4.32153 382.491 4.52175C382.463 4.56624 382.43 4.59962 382.402 4.64411C382.214 4.91108 382.031 5.20029 381.848 5.47838V5.51175C381.645 5.85445 381.46 6.20714 381.293 6.5685V6.5685C381.143 6.88552 381.01 7.21923 380.877 7.5585C380.838 7.65861 380.805 7.76428 380.766 7.86996C380.728 7.97563 380.661 8.14249 380.617 8.28709C380.617 8.34271 380.583 8.40389 380.567 8.45951L373.286 0.628484H363.428L361.21 7.75872L354.611 0.628484H344.198L342.158 7.65861L335.665 0.628484H325.257L322.834 16.6854L322.795 16.6409L321.376 15.1114L319.995 13.6153L310.209 3.04787C308.745 1.46832 306.244 0.661855 302.751 0.661855H292.21L291.9 2.71416L289.992 0.628484H270.491L270.27 2.0968L268.922 0.628484H246.909L246.859 0.973316L246.538 0.628484H227.619L227.142 3.79872L224.214 0.628484H216.74L216.247 3.79872L213.319 0.628484H205.861L204.885 7.09131L198.919 0.628484H191.445L190.402 7.53069L185.684 2.42495C184.198 0.812024 181.897 0 178.836 0C178.387 0 177.954 0 177.533 0.0500563C177.389 0.0500563 177.256 0.0834271 177.117 0.100113C176.84 0.127922 176.562 0.161292 176.291 0.205787L175.819 0.300338C175.587 0.350394 175.348 0.394888 175.115 0.456068L174.644 0.600675L174.006 0.806462C173.959 0.825622 173.911 0.842329 173.862 0.856518C173.762 0.895451 173.674 0.945507 173.579 0.98444C173.358 1.07899 173.136 1.1791 172.92 1.28478L172.731 1.37377C172.626 1.42938 172.526 1.49056 172.426 1.55174L172.071 1.75753L171.91 1.85208C171.75 1.95776 171.594 2.07455 171.434 2.19135L171.278 2.30259L171.239 2.3304C171.029 2.49169 170.829 2.65854 170.635 2.83096L170.485 2.97001C170.341 3.10349 170.197 3.24253 170.064 3.38714C169.931 3.53175 169.92 3.54287 169.853 3.62074C169.787 3.6986 169.715 3.77091 169.648 3.84321L169.521 3.99338C169.393 4.13799 169.282 4.29928 169.166 4.45501L169.022 4.63855L168.988 4.68304C168.8 4.95001 168.617 5.23922 168.434 5.51731C168.234 5.85102 168.051 6.20142 167.879 6.56293V6.5963C167.735 6.89664 167.608 7.2081 167.48 7.52513L167.38 7.80322C167.325 7.95895 167.264 8.10912 167.214 8.27041C167.214 8.33715 167.175 8.41502 167.153 8.48176C167.059 8.7821 166.976 9.09356 166.898 9.40502L166.781 9.8444C166.784 9.88144 166.784 9.9186 166.781 9.95564L158.126 0.628484H138.619L137.444 8.44283L132.42 3.0145C130.962 1.43495 128.456 0.628484 124.968 0.628484H114.422L113.978 3.55956L111.267 0.628484H104.059L103.133 6.74647L97.4881 0.628484H90.0137L89.8252 1.86321L88.7162 0.628484H66.7034L65.8273 6.44614L60.4377 0.628484H52.9523L52.5087 3.55956L49.8028 0.628484H42.5946L41.6686 6.74647L36.0406 0.628484H28.544L27.5238 7.40277L25.8382 5.56181L24.7847 4.44945L22.9771 2.48613C21.4522 0.834271 19.1123 0 15.9962 0C15.5526 0 15.1256 0 14.7042 0.0500563C14.5656 0.0500563 14.4381 0.0834271 14.2995 0.100113C14.0222 0.127922 13.745 0.155731 13.4844 0.200225L13.0186 0.294776L12.32 0.450506L11.8542 0.595114C11.6435 0.656293 11.4328 0.723035 11.2276 0.8009L11.089 0.845395C10.9892 0.884328 10.9005 0.934384 10.8062 0.973316C10.5844 1.06601 10.3682 1.16613 10.1575 1.27365C10.0965 1.27365 10.03 1.32371 9.96896 1.35708C9.90797 1.39045 9.76381 1.47944 9.664 1.53506L9.31468 1.74085L9.15942 1.82983C8.99862 1.93551 8.84337 2.05231 8.68257 2.16911L8.53286 2.27478H8.49405C8.28889 2.43051 8.09482 2.59736 7.90075 2.76422L7.76213 2.93663C7.62351 3.07012 7.48489 3.2036 7.35182 3.34265C7.21874 3.48169 7.20765 3.50394 7.13557 3.5818C7.06349 3.65967 7.0025 3.72641 6.9415 3.80428C6.89616 3.84792 6.85356 3.89436 6.81397 3.94332C6.69199 4.09349 6.57555 4.24922 6.4591 4.40495L6.32048 4.58293L6.28722 4.62742C6.09869 4.89439 5.92126 5.18361 5.73274 5.45057C5.53029 5.78561 5.34521 6.1309 5.17826 6.48507V6.51288C5.03964 6.81322 4.90656 7.12468 4.78458 7.4417L4.68477 7.71423L4.51842 8.1703C4.51842 8.2426 4.48516 8.3149 4.46298 8.38165C4.36872 8.68198 4.28554 8.98788 4.20792 9.29934C4.1691 9.44395 4.13029 9.583 4.09702 9.7276C3.99167 10.1892 3.89741 10.662 3.81978 11.157L0.204571 35.0394C0.138033 35.5121 0.08813 35.9682 0.0493164 36.4076C0.0493164 36.5578 0.0493164 36.6913 0.0493164 36.8359C0.0493164 37.1306 0.0493164 37.392 0.0493164 37.7035C0.0493164 37.8648 0.0493164 38.0205 0.0493164 38.1763C0.0493164 38.4265 0.0493164 38.6713 0.0936748 38.9104C0.138033 39.1496 0.132488 39.2274 0.154668 39.3776C0.176847 39.5278 0.22675 39.8281 0.271108 40.045C0.271108 40.1229 0.271108 40.2063 0.309922 40.2842C0.348736 40.362 0.370915 40.5067 0.404184 40.6234C0.437452 40.7402 0.404184 40.7458 0.454087 40.8014C0.526169 41.0461 0.603796 41.2853 0.692513 41.5133C0.704834 41.5368 0.715938 41.561 0.725782 41.5856C0.78123 41.7191 0.847768 41.847 0.90876 41.975C0.969753 42.1029 1.01966 42.2308 1.08619 42.3476L1.1361 42.4366L1.28581 42.6758C1.35234 42.787 1.41334 42.8982 1.49096 43.0039C1.55116 43.0961 1.61593 43.1852 1.68503 43.2709C1.75711 43.3654 1.8292 43.46 1.90682 43.549L2.07317 43.7325L12.6637 55.1954L13.7172 56.3411L15.5249 58.2933C15.5637 58.3378 15.608 58.3712 15.6468 58.4101L15.9241 58.6715C16.0461 58.7883 16.1736 58.894 16.3067 58.9997C16.4397 59.1053 16.5118 59.1554 16.6227 59.2277C16.7336 59.3 16.9 59.4168 17.0497 59.5058L17.399 59.7004C17.5542 59.7783 17.715 59.8562 17.8814 59.9285L18.2584 60.0842C18.4359 60.151 18.6133 60.2066 18.8129 60.2622L19.2177 60.3846C19.4173 60.4365 19.6225 60.481 19.8332 60.518L20.2379 60.6015L20.9698 60.6905L21.3413 60.7294C21.7239 60.7294 22.1121 60.7739 22.5224 60.7739C22.9327 60.7739 23.3929 60.7739 23.8088 60.7238C23.9474 60.7238 24.0805 60.6905 24.2136 60.6738C24.4908 60.6738 24.768 60.6126 25.0342 60.5681C25.1894 60.5681 25.3391 60.5069 25.4944 60.4735C25.6497 60.4402 25.9657 60.379 26.193 60.3234L26.6588 60.1788C26.8695 60.112 27.0858 60.0508 27.2909 59.973L27.4295 59.9285C27.5293 59.8896 27.6181 59.8395 27.7123 59.8006C27.9341 59.706 28.1504 59.6059 28.3666 59.5002C28.4276 59.5002 28.4886 59.4502 28.5496 59.4168C28.6106 59.3834 28.7547 59.2944 28.8546 59.2388C28.9544 59.1832 29.093 59.1053 29.2039 59.033L29.3647 58.9385C29.5199 58.8384 29.6752 58.7216 29.8304 58.6103L29.9912 58.4935H30.03C30.2352 58.3378 30.4348 58.171 30.6289 57.9985L30.7786 57.8651L31.1834 57.4646L31.3996 57.2199L31.5992 56.9974C31.638 56.9529 31.6824 56.9084 31.7212 56.8584C31.8487 56.7082 31.9652 56.5469 32.0816 56.3912C32.126 56.33 32.1759 56.2744 32.2147 56.2132L32.248 56.1743C32.4365 55.9073 32.6139 55.6181 32.8024 55.3456C32.9965 55.0118 33.1795 54.667 33.3569 54.3055C33.4401 54.1331 33.5177 53.9495 33.5954 53.7493C34.3051 54.1609 35.0093 54.578 35.6913 55.0174L36.9222 56.3467L38.7243 58.3044C38.7554 58.3345 38.785 58.366 38.813 58.399L39.0958 58.666C39.2233 58.7772 39.3509 58.8884 39.4839 58.9941L39.8 59.2277C39.9442 59.3222 40.0883 59.4168 40.238 59.5058C40.3877 59.5948 40.4709 59.6393 40.5929 59.7004C40.7149 59.7616 40.9089 59.8562 41.0753 59.9285L41.4634 60.0898C41.6353 60.1565 41.8238 60.2177 42.0179 60.2733L42.4282 60.3957C42.6278 60.4457 42.8385 60.4902 43.0492 60.5292C43.2599 60.5681 43.3209 60.5903 43.4596 60.6126C43.7035 60.6515 43.953 60.6793 44.2081 60.7016L44.5796 60.7461C44.9622 60.7461 45.3614 60.7906 45.7717 60.7906C46.1821 60.7906 46.6534 60.7906 47.0748 60.7349L47.4906 60.6905C47.7679 60.6571 48.0451 60.6293 48.3113 60.5848L48.7826 60.4902L49.4868 60.3345L49.9636 60.1899C50.1743 60.1231 50.3906 60.0564 50.5957 59.9785C50.6456 59.9785 50.6955 59.9785 50.7454 59.9285C50.7953 59.8784 50.9284 59.8451 51.0282 59.8006C51.25 59.706 51.4718 59.6115 51.688 59.5002L51.8766 59.4168C51.9819 59.3612 52.0817 59.2944 52.1815 59.2388L52.5419 59.0275L52.7027 58.9329L53.1685 58.6048C53.2217 58.5627 53.2772 58.5237 53.3348 58.488L53.3792 58.4546C53.5862 58.2952 53.7858 58.1283 53.978 57.954L54.1222 57.8206C54.2664 57.6871 54.405 57.5536 54.5381 57.4145C54.6711 57.2755 54.6822 57.2477 54.7599 57.1643L54.9484 56.9529L55.0704 56.8194C55.209 56.647 55.3421 56.469 55.4751 56.2911C55.5084 56.2466 55.5417 56.2076 55.5749 56.1576C55.6248 56.0908 55.6637 56.0185 55.7136 55.9462L59.6282 60.1843H78.547L78.8354 58.2488L80.6208 60.1843H88.0952L90.0303 47.3588L92.3813 49.9061L92.5976 50.0563L99.2513 57.2199L100.194 58.2488L100.321 58.3656L100.604 58.6381C100.732 58.7494 100.859 58.8606 100.992 58.9663L101.308 59.1999L101.741 59.478L102.096 59.6726C102.257 59.7561 102.417 59.8284 102.584 59.9007L102.972 60.062C103.144 60.1287 103.332 60.1899 103.526 60.2455L103.937 60.3679C104.136 60.4179 104.347 60.4624 104.558 60.5014C104.768 60.5403 104.829 60.5625 104.968 60.5848C105.206 60.6237 105.461 60.6515 105.711 60.6738L106.083 60.7183C106.471 60.7183 106.87 60.7628 107.28 60.7628C107.724 60.7628 108.162 60.7628 108.583 60.7071L108.994 60.6626C109.243 60.6626 109.498 60.6126 109.737 60.5737H109.825L110.291 60.4791L110.995 60.3234L111.467 60.1788C111.683 60.112 111.899 60.0453 112.104 59.9674L112.248 59.9229C112.348 59.884 112.437 59.8339 112.537 59.7894C112.758 59.6949 112.98 59.6003 113.196 59.4891C113.257 59.4891 113.324 59.439 113.385 59.4057C113.446 59.3723 113.59 59.2833 113.69 59.2277L114.045 59.0163L114.206 58.9218C114.366 58.8161 114.522 58.7049 114.677 58.5937C114.727 58.5492 114.788 58.5158 114.838 58.4769L114.882 58.4435C115.087 58.2822 115.287 58.1209 115.486 57.9429L115.631 57.8094C115.775 57.676 115.908 57.5425 116.047 57.4034L116.268 57.1531L116.457 56.9418C116.496 56.8917 116.54 56.8528 116.579 56.8083C116.717 56.6359 116.851 56.4579 116.984 56.2799L117.067 56.1743C117.117 56.1075 117.155 56.0352 117.205 55.9629L121.12 60.201H128.589L129.565 53.7271L135.548 60.201H143.21L143.105 59.8339C143.061 59.6782 143.022 59.5225 142.989 59.3612C142.989 59.3 142.961 59.2333 142.95 59.1721C142.939 59.1109 142.911 58.9496 142.894 58.8384C142.878 58.7271 142.894 58.7049 142.867 58.6437C142.839 58.5825 142.867 58.4045 142.839 58.2822C142.811 58.1598 142.839 58.171 142.839 58.1153C142.839 57.9429 142.839 57.7705 142.839 57.5925C142.839 57.5925 142.839 57.5258 142.839 57.4924L145.34 60.201H164.824L165.861 53.3377L155.537 42.1029L155.83 40.1563H162.872C162.872 40.2007 162.872 40.2508 162.9 40.2953L162.967 40.5233C162.967 40.5956 163 40.6679 163.022 40.7347C163.098 41.0102 163.188 41.2813 163.294 41.5467C163.333 41.6413 163.382 41.7247 163.421 41.8192C163.504 41.9972 163.582 42.1863 163.671 42.3754V42.4088L163.771 42.5701C163.859 42.7203 163.948 42.876 164.048 43.0206L164.192 43.2152C164.275 43.3265 164.364 43.4433 164.458 43.549L164.619 43.7325L174.406 54.2999L175.786 55.7961L177.206 57.3311L178.098 58.2989C178.132 58.3322 178.165 58.3545 178.193 58.3879C178.22 58.4212 178.37 58.5547 178.459 58.6381C178.548 58.7216 178.714 58.8717 178.847 58.9774C178.98 59.0831 179.052 59.1276 179.157 59.1999C179.263 59.2722 179.44 59.3945 179.59 59.4835L179.934 59.6782L180.422 59.9062C180.544 59.9648 180.67 60.0168 180.799 60.062C180.971 60.1287 181.154 60.1899 181.353 60.2455C181.553 60.3011 181.614 60.3289 181.752 60.3623C181.891 60.3957 182.163 60.4569 182.368 60.5014L182.778 60.5792C183.017 60.6181 183.266 60.646 183.516 60.6738L183.887 60.7127C184.27 60.7127 184.663 60.7572 185.074 60.7572C185.484 60.7572 185.966 60.7572 186.393 60.7016L186.809 60.6571C187.092 60.6237 187.364 60.5959 187.652 60.5514C187.813 60.5236 187.968 60.4847 188.123 60.4513C188.367 60.4012 188.606 60.3567 188.839 60.2956L189.321 60.151C189.537 60.0787 189.754 60.0119 189.964 59.934L190.114 59.884C190.214 59.8506 190.302 59.795 190.402 59.7561C190.624 59.6615 190.851 59.5614 191.068 59.4557L191.262 59.3667C191.367 59.3111 191.461 59.2444 191.567 59.1832C191.672 59.122 191.811 59.0497 191.927 58.9774C192.044 58.9051 192.038 58.9162 192.088 58.8773C192.249 58.7716 192.41 58.6604 192.565 58.5436L192.726 58.4268H192.77C192.975 58.2655 193.18 58.0986 193.374 57.9207L193.53 57.7816C193.668 57.6481 193.807 57.5147 193.94 57.3756L194.167 57.1198L194.361 56.9029L194.483 56.7694C194.566 56.6693 194.644 56.5636 194.722 56.4579L198.132 60.151H205.606L206.576 53.6881L212.548 60.151H220.023L220.499 56.9807L223.427 60.151H230.901L231.378 56.9807L234.306 60.151H241.775L244.691 40.8014H248.101L247.381 45.5623L260.866 60.151H268.368L269.61 51.925L277.212 60.151H296.702L297.007 58.0986L298.903 60.151H306.377L307.353 53.677L313.336 60.151H320.993L320.888 59.7839C320.844 59.6281 320.805 59.4724 320.772 59.3111C320.772 59.2499 320.744 59.1832 320.733 59.122C320.722 59.0608 320.694 58.8995 320.677 58.7883C320.661 58.6771 320.677 58.6548 320.677 58.5937C320.677 58.5325 320.677 58.3545 320.644 58.2377C320.611 58.1209 320.644 58.1265 320.644 58.0653C320.644 57.8929 320.644 57.7204 320.644 57.5425C320.677 56.7861 320.788 55.7627 320.977 54.5002L321.792 49.0996L332.005 60.151H338.593L339.252 55.7738L343.3 60.151H349.56L350.714 56.3077L354.262 60.151H361.354L361.57 58.7271L362.884 60.151H369.838L372.261 51.9695L379.818 60.1398H387.298L387.226 53.4657C387.437 53.6993 387.653 53.9273 387.869 54.1609L388.634 54.9896L389.96 56.4245L391.656 58.2599L391.784 58.3823L392.067 58.6493C392.189 58.7605 392.316 58.8717 392.449 58.9774L392.771 59.211C392.909 59.3056 393.054 59.4001 393.203 59.4891C393.353 59.5781 393.436 59.6226 393.558 59.6838C393.68 59.7449 393.88 59.8395 394.046 59.9118C394.212 59.9841 394.296 60.023 394.429 60.0731C394.562 60.1231 394.789 60.201 394.983 60.2566L395.388 60.379C395.588 60.429 395.798 60.4735 396.009 60.5125C396.22 60.5514 396.281 60.5737 396.425 60.5959C396.663 60.6348 396.913 60.6626 397.168 60.6849L397.539 60.7294C397.922 60.7294 398.321 60.7739 398.737 60.7739C399.153 60.7739 399.613 60.7739 400.04 60.7183L400.45 60.6738C400.728 60.6404 401.005 60.6126 401.277 60.5681L401.748 60.4735L402.452 60.3178L402.923 60.1732C403.14 60.1065 403.35 60.0397 403.561 59.9619L403.705 59.9174C403.805 59.8784 403.894 59.8284 403.988 59.7839C404.215 59.6893 404.437 59.5948 404.648 59.4835C404.709 59.4835 404.781 59.4335 404.842 59.4001C404.903 59.3667 405.041 59.2778 405.147 59.2221L405.502 59.0108L405.662 58.9162C405.823 58.8106 405.973 58.6993 406.128 58.5881L406.295 58.4713L406.339 58.4379C406.544 58.2766 406.744 58.1153 406.938 57.9374L407.087 57.8039C407.226 57.6704 407.365 57.5369 407.498 57.3979C407.542 57.3534 407.581 57.3033 407.625 57.2533L410.292 60.1398H417.246L419.669 51.9529L427.232 60.1398H434.712V59.7116L435.105 60.1398H455.982L456.281 58.1431L458.122 60.1398H465.591L466.068 56.964L469.001 60.1398H475.71L476.819 52.6814L483.711 60.1398H491.313L491.79 56.9696L494.717 60.1398H514.224L515.261 53.2766L504.931 42.1029L505.225 40.1563H514.768L515.804 33.2985L507.598 24.3997L507.953 22.0526L519.969 22.0748ZM187.414 27.0137C187.414 26.947 187.414 26.8802 187.414 26.8079C187.414 26.6466 187.414 26.4853 187.414 26.3185C187.414 26.2517 187.414 26.185 187.414 26.1183C187.414 25.8902 187.452 25.6622 187.486 25.4341C187.519 25.2061 187.558 25.0115 187.602 24.8112L187.635 24.6611C187.68 24.4831 187.724 24.3162 187.774 24.1605C187.776 24.1383 187.776 24.1159 187.774 24.0938C187.807 23.9825 187.857 23.8824 187.896 23.7823L187.391 27.1194C187.397 27.0837 187.404 27.0484 187.414 27.0137V27.0137ZM182.839 35.7346L182.556 35.3286L182.839 35.7346ZM182.285 34.9337L182.03 34.511C182.113 34.6501 182.196 34.7891 182.29 34.9337H182.285ZM181.869 34.1273C181.78 33.9771 181.702 33.8214 181.625 33.6712C181.702 33.8214 181.78 33.9715 181.869 34.1273ZM181.492 33.4098C181.381 33.1706 181.27 32.937 181.181 32.7034C181.237 32.9315 181.348 33.1706 181.464 33.4098H181.492ZM169.509 22.2472L169.737 22.5364C169.931 22.7867 170.136 23.0314 170.347 23.2817C170.397 23.3429 170.435 23.3985 170.485 23.4541L170.557 23.532C170.816 23.8398 171.088 24.1457 171.373 24.4497L174.145 27.4308L174.489 27.848L174.555 27.9314C174.733 28.165 174.899 28.3875 175.054 28.6099L175.187 28.8046L175.398 29.1216L175.531 29.333L175.709 29.6389L175.814 29.828C175.908 30.006 175.997 30.1839 176.075 30.3508C176.152 30.5176 176.18 30.6178 176.23 30.7512L176.313 30.9737C176.346 31.0738 176.374 31.1739 176.402 31.274L176.468 31.5076C176.468 31.5799 176.468 31.6523 176.513 31.719C176.557 31.9137 176.59 32.1083 176.618 32.303C176.618 32.3642 176.618 32.4253 176.646 32.4865C176.673 32.7368 176.69 32.9926 176.701 33.2485V33.4042C176.701 33.623 176.701 33.8455 176.701 34.0716C176.701 34.1439 176.701 34.2218 176.701 34.2941C176.701 34.5722 176.657 34.8503 176.612 35.1339C176.568 35.4176 176.529 35.6123 176.479 35.8347C176.479 35.8903 176.452 35.946 176.44 36.0016C176.391 36.2074 176.341 36.402 176.28 36.5911C176.279 36.6041 176.279 36.6171 176.28 36.6301C176.208 36.8414 176.13 37.0361 176.047 37.2196L175.98 37.3642L175.875 37.5645C175.843 37.6239 175.808 37.6814 175.77 37.7369V37.7369L170.413 31.9415H165.251L158.204 24.4163L158.558 22.0748H169.365L169.509 22.2472ZM247.004 25.5843L247.53 22.0804H250.94L249.937 28.7545L247.004 25.5843ZM319.69 36.9749H319.724H319.779V37.1362L319.685 37.0361L319.69 36.9749Z" fill="black"/>
<path d="M15.9189 0.518555C19.1571 0.518555 21.5192 1.44738 22.9276 3.29946C24.3359 5.15154 24.8073 7.78784 24.2971 11.1694L23.6318 15.6189H17.5657L18.2977 10.7245C18.7412 7.81565 17.7044 6.34733 15.2258 6.34733C12.7473 6.34733 11.2724 7.81565 10.8344 10.7245L7.09162 35.5301C6.65358 38.3778 7.69046 39.8461 10.1745 39.8461C12.6586 39.8461 14.1224 38.3945 14.5549 35.5301L15.5253 29.0006H21.6245L20.6986 35.0407C20.1884 38.4223 18.9298 41.0808 16.9503 42.9218C14.9708 44.7627 12.3425 45.7027 9.10438 45.7027C5.86622 45.7027 3.49859 44.7739 2.09021 42.9218C0.681829 41.0697 0.210521 38.4056 0.720643 35.0407L4.31922 11.1694C4.82934 7.78784 6.0991 5.13486 8.0675 3.28834C10.0359 1.44181 12.6752 0.518555 15.9189 0.518555Z" fill="#FFC451"/>
<path d="M49.2105 1.15283L44.137 34.7684C43.6103 38.2779 42.3239 41.0087 40.3222 42.872C38.3205 44.7352 35.659 45.6529 32.3765 45.6529C29.094 45.6529 26.7042 44.7129 25.2736 42.872C23.8431 41.031 23.3773 38.2779 23.9096 34.7684L28.9775 1.15283H35.4206L30.2695 35.2745C30.0311 36.8541 30.1919 38.0554 30.7352 38.7451C31.0545 39.1301 31.4616 39.4323 31.922 39.6259C32.3824 39.8196 32.8826 39.899 33.3801 39.8575C34.4816 39.8944 35.5533 39.4948 36.3632 38.7451C37.1229 38.0221 37.633 36.8541 37.8714 35.2745L43.017 1.15283H49.2105Z" fill="#FFC451"/>
<path d="M59.8345 1.15283L54.0901 39.2123H65.5345L64.6585 45.0411H46.7654L53.3859 1.15283H59.8345Z" fill="#FFC451"/>
<path d="M88.0953 1.15283L87.2192 6.97605H79.95L74.2056 45.0411H67.7625L73.507 6.97605H66.2322L67.1083 1.15283H88.0953Z" fill="#FFC451"/>
<path d="M110.679 1.15283L105.606 34.7684C105.052 38.2779 103.787 41.0087 101.791 42.872C99.7951 44.7352 97.128 45.6529 93.8455 45.6529C90.563 45.6529 88.1732 44.7129 86.7426 42.872C85.312 41.031 84.8352 38.2779 85.3897 34.7684L90.4576 1.15283H96.9007L91.7495 35.2745C91.5111 36.8541 91.6719 38.0554 92.2153 38.7451C92.5342 39.1305 92.9413 39.4329 93.4018 39.6266C93.8623 39.8202 94.3626 39.8995 94.8602 39.8575C95.9602 39.8954 97.0305 39.4955 97.8377 38.7451C98.6029 38.0221 99.113 36.8541 99.3515 35.2745L104.497 1.15283H110.679Z" fill="#FFC451"/>
<path d="M128.834 43.0054C128.803 43.6901 128.87 44.3755 129.033 45.0411H122.54C122.427 44.4454 122.373 43.8399 122.379 43.2335C122.443 42.0962 122.571 40.9635 122.762 39.8408L123.965 31.7038C124.287 29.5959 124.165 28.1498 123.594 27.2933C123.023 26.4368 121.88 25.9919 120.211 25.9919H117.55L114.678 45.0522H108.235L114.855 1.15283H124.908C128.401 1.15283 130.857 1.97042 132.199 3.57778C133.541 5.18514 133.968 7.72689 133.458 11.1029L133.075 13.8338C132.399 18.2832 130.491 21.1698 127.397 22.3489L127.226 22.4156L127.153 22.9051L127.325 22.9607C128.034 23.1541 128.68 23.5292 129.2 24.049C129.72 24.5687 130.096 25.2153 130.292 25.9251C130.735 27.4546 130.769 29.5292 130.381 32.0987L129.205 39.8853C128.983 41.2034 128.872 42.2157 128.834 43.0054ZM126.422 15.2298L126.937 11.8037C127.192 10.1352 127.065 8.91712 126.577 8.15515C126.089 7.39318 125.163 6.97605 123.871 6.97605H120.45L118.459 20.1798H121.232C122.498 20.2458 123.742 19.833 124.719 19.0229C125.573 18.261 126.15 16.9817 126.383 15.2298" fill="#FFC451"/>
<path d="M157.532 1.15283L156.656 6.97605H144.641L142.789 19.2287H152.342L151.461 25.0519H141.913L139.778 39.2123H151.793L150.912 45.0411H132.453L139.079 1.15283H157.532Z" fill="#FFC451"/>
<path d="M178.759 0.518555C181.997 0.518555 184.332 1.4585 185.701 3.29946C187.071 5.14042 187.503 7.89351 186.971 11.4086L186.732 12.9881H180.672L180.977 10.9636C181.215 9.38408 181.071 8.21053 180.556 7.46525C180.04 6.71997 179.153 6.35289 177.944 6.35289C175.465 6.35289 173.974 7.8657 173.508 10.858C173.249 12.4333 173.472 14.0502 174.146 15.4965C174.8 16.9036 176.147 18.6334 178.132 20.6301C180.622 23.1329 182.28 25.4355 183.051 27.4711C183.843 29.7759 184.034 32.246 183.605 34.6458C183.051 38.1998 181.77 40.9529 179.724 42.8439C177.678 44.7349 175 45.6749 171.673 45.6749C168.346 45.6749 166.023 44.7349 164.636 42.894C163.25 41.053 162.801 38.2999 163.333 34.7904L163.677 32.5045H169.738L169.316 35.2854C168.862 38.3166 169.926 39.8572 172.493 39.8572C173.05 39.8838 173.606 39.7991 174.13 39.6082C174.653 39.4172 175.134 39.1237 175.543 38.7449C176.308 38.0051 176.813 36.8093 177.057 35.1853C177.364 33.4854 177.171 31.7326 176.502 30.1407C175.865 28.7058 174.534 26.9649 172.554 24.9683C170.104 22.4654 168.446 20.174 167.631 18.155C166.805 15.9806 166.58 13.6225 166.982 11.3307C167.503 7.90464 168.773 5.21272 170.774 3.36064C172.776 1.50856 175.477 0.518555 178.759 0.518555Z" fill="#FFC451"/>
<path d="M212.741 1.15283L206.121 45.0411H199.678L202.694 25.0519H194.721L191.704 45.0411H185.256L191.882 1.15283H198.325L195.597 19.2287H203.576L206.298 1.15283H212.741Z" fill="#FFC451"/>
<path d="M223.621 1.15283L217 45.0411H210.552L217.178 1.15283H223.621Z" fill="#FFC451"/>
<path d="M245.94 1.15283L245.064 6.97605H233.614L231.673 19.8683H240.65L239.774 25.6915H230.791L227.875 45.0411H221.432L228.052 1.15283H245.94Z" fill="#FFC451"/>
<path d="M268.329 1.15283L267.447 6.97605H260.178L254.433 45.0411H247.99L253.735 6.97605H246.46L247.336 1.15283H268.329Z" fill="#FFC451"/>
<path d="M289.39 1.15283L288.514 6.97605H276.493L274.647 19.2287H284.195L283.319 25.0519H273.77L271.63 39.2123H283.646L282.77 45.0411H264.311L270.932 1.15283H289.39Z" fill="#FFC451"/>
<path d="M306.628 43.0054C306.586 43.6922 306.642 44.3814 306.795 45.0522H300.28C300.166 44.4565 300.112 43.851 300.119 43.2446C300.185 42.1073 300.315 40.9747 300.507 39.8519L301.732 31.7038C302.048 29.5959 301.926 28.1498 301.361 27.2933C300.795 26.4368 299.647 25.9919 297.973 25.9919H295.311L292.445 45.0522H285.996L292.617 1.15283H302.675C306.168 1.15283 308.619 1.97042 309.966 3.57778C311.314 5.18514 311.73 7.72689 311.219 11.1029L310.809 13.8338C310.133 18.2832 308.225 21.1698 305.137 22.3489L304.965 22.4156L304.887 22.9051L305.065 22.9607C305.772 23.1545 306.417 23.5297 306.937 24.0495C307.456 24.5693 307.831 25.2157 308.026 25.9251C308.475 27.4546 308.508 29.5292 308.12 32.0987L306.939 39.8853C306.782 40.9193 306.678 41.9607 306.628 43.0054ZM304.189 15.2298L304.704 11.8037C304.954 10.1352 304.832 8.91712 304.344 8.15515C303.856 7.39318 302.93 6.97605 301.632 6.97605H298.211L296.221 20.1798H298.993C300.261 20.245 301.507 19.8324 302.486 19.0229C303.346 18.261 303.911 16.9817 304.15 15.2298" fill="#FFC451"/>
<path d="M354.018 1.15283L347.398 45.0411H341.332L346.405 11.4199H345.801L335.665 45.0411H330.292L330.303 11.6368V11.4199H329.699L324.625 45.0411H319.069L325.69 1.15283H335.138L334.778 32.705L334.772 32.9274H335.343L344.57 1.15283H354.018Z" fill="#FFC451"/>
<path d="M372.777 1.15283L373.282 45.0522H366.85L366.911 36.4536H366.65V36.3368H358.544L355.976 45.0522H350.043L363.789 1.15283H372.777ZM360.124 30.8362H366.977L367.194 8.37206H366.639L360.124 30.8362Z" fill="#FFC451"/>
<path d="M392.122 0.518555C395.405 0.518555 397.794 1.4585 399.23 3.29946C400.667 5.14042 401.121 7.89351 400.594 11.403L400.04 14.9459H393.991L394.595 10.9581C395.055 7.88239 393.996 6.32508 391.434 6.32508C388.873 6.32508 387.337 7.88239 386.871 10.9581L383.206 35.252C382.746 38.2832 383.816 39.8239 386.378 39.8239C388.939 39.8239 390.47 38.2832 390.93 35.252L392.277 26.3031H388.801L389.682 20.4743H399.225L397.068 34.7459C396.513 38.2554 395.26 40.9807 393.259 42.8439C391.257 44.7071 388.59 45.6248 385.313 45.6248C382.036 45.6248 379.635 44.6849 378.205 42.8439C376.774 41.003 376.314 38.2554 376.841 34.7459L380.361 11.3863C380.916 7.87683 382.175 5.14598 384.171 3.28277C386.167 1.41957 388.845 0.518555 392.122 0.518555Z" fill="#FFC451"/>
<path d="M420.2 1.15283L420.704 45.0522H414.272L414.339 36.4536H414.078V36.3368H405.966L403.393 45.0522H397.466L411.212 1.15283H420.2ZM407.541 30.8362H414.389L414.611 8.37206H414.056L407.541 30.8362Z" fill="#FFC451"/>
<path d="M448.684 1.15283L447.791 7.05947L429.915 39.2123H442.94L442.064 45.0411H422.213L423.106 39.1289L440.982 6.97605H428.59L429.466 1.15283H448.684Z" fill="#FFC451"/>
<path d="M458.294 1.15283L451.673 45.0411H445.23L451.856 1.15283H458.294Z" fill="#FFC451"/>
<path d="M484.033 1.15283L477.412 45.0411H470.72L467.266 12.6268H466.683L461.793 45.0411H456.109L462.73 1.15283H471.003L473.736 27.5381L473.753 27.7272H474.341L478.35 1.15283H484.033Z" fill="#FFC451"/>
<path d="M506.921 1.15283L506.045 6.97605H494.03L492.178 19.2287H501.731L500.85 25.0519H491.302L489.167 39.2123H501.183L500.301 45.0411H481.842L488.468 1.15283H506.921Z" fill="#FFC451"/>
<path d="M24.0636 16.1292H16.9718L17.7869 10.7343C18.1806 8.13136 17.3156 6.84102 15.1476 6.84102C12.9796 6.84102 11.7375 8.10355 11.3439 10.7343L7.60112 35.54C7.21853 38.0984 8.08352 39.3387 10.2515 39.3387C12.4196 39.3387 13.656 38.0984 14.0442 35.54L15.1032 28.4931H22.1784L21.2136 35.0394C20.6591 38.56 19.3561 41.3298 17.2768 43.2709C15.1975 45.2119 12.414 46.2131 9.02614 46.2131C5.63826 46.2131 3.15419 45.2008 1.66264 43.2486C0.171089 41.2964 -0.322398 38.5378 0.204358 35.0394L3.80293 11.1681C4.35741 7.64749 5.66044 4.87771 7.73974 2.93663C9.81904 0.995564 12.6025 0 15.9959 0C19.3894 0 21.8568 0.990002 23.3594 2.93663C24.8621 4.88327 25.3445 7.64749 24.8122 11.1681L24.0636 16.1292ZM15.2252 6.34602C17.7037 6.34602 18.7406 7.81434 18.297 10.7232L17.5651 15.6009H23.6311L24.2965 11.1514C24.8066 7.76428 24.3464 5.11686 22.9269 3.27034C21.5075 1.42382 19.1565 0.489439 15.9183 0.489439C12.6802 0.489439 10.0353 1.44607 8.06688 3.28703C6.09848 5.12799 4.82872 7.78653 4.3186 11.1681L0.720024 35.0394C0.209903 38.4265 0.670121 41.0795 2.08959 42.9205C3.50906 44.7614 5.8656 45.7014 9.10376 45.7014C12.3419 45.7014 14.9868 44.7726 16.9497 42.9205C18.9125 41.0684 20.1878 38.3765 20.6979 35.0394L21.6239 28.9993H15.5246L14.5543 35.5288C14.1218 38.3932 12.6524 39.8448 10.1739 39.8448C7.69538 39.8448 6.65296 38.3765 7.091 35.5288L10.8337 10.7232C11.2718 7.81434 12.7467 6.34602 15.2252 6.34602Z" fill="black"/>
<path d="M42.584 0.628906H49.7922L44.6522 34.7673C44.0977 38.4103 42.7559 41.2579 40.6489 43.2212C38.5418 45.1845 35.7251 46.1912 32.2984 46.1912C28.8717 46.1912 26.3544 45.1845 24.8406 43.2212C23.3269 41.2579 22.8445 38.4103 23.3934 34.7673L28.5446 0.628906H36.0411L30.7847 35.2734C30.5684 36.7195 30.6959 37.7762 31.1673 38.3991C31.4469 38.7266 31.8009 38.9819 32.1994 39.1435C32.5979 39.3052 33.0293 39.3684 33.4573 39.328C33.9292 39.3485 34.4006 39.275 34.8441 39.1117C35.2876 38.9485 35.6944 38.6987 36.0411 38.3769C36.6954 37.754 37.1501 36.7084 37.3608 35.2512L42.584 0.628906ZM44.1365 34.7673L49.21 1.15172H43.0165L37.8709 35.2734C37.6325 36.853 37.1224 38.0209 36.3627 38.744C35.5528 39.4937 34.4811 39.8933 33.3796 39.8563C32.8821 39.8979 32.3819 39.8184 31.9215 39.6248C31.4611 39.4312 31.054 39.129 30.7348 38.744C30.1803 38.0265 30.0306 36.853 30.269 35.2734L35.4201 1.15172H28.9771L23.9091 34.7673C23.3546 38.2768 23.837 41.0076 25.2731 42.8653C26.7092 44.7229 29.0935 45.6462 32.376 45.6462C35.6585 45.6462 38.3311 44.7062 40.3217 42.8653C42.3123 41.0243 43.6098 38.2712 44.1365 34.7617" fill="black"/>
<path d="M54.6827 38.6939H66.1271L65.0902 45.5516H46.1714L52.9527 0.628906H60.4382L54.6827 38.6939ZM64.6633 45.04L65.5394 39.2112H54.0894L59.8338 1.15172H53.3852L46.7647 45.0511H64.6578" fill="black"/>
<path d="M66.6777 0.628906H88.7183L87.687 7.49218H80.4011L74.6456 45.5516H67.1712L72.9156 7.49218H65.6409L66.6777 0.628906ZM87.2212 6.97493L88.0973 1.15172H67.0936L66.2175 6.97493H73.4923L67.7645 45.0511H74.2076L79.952 6.98605H87.2212" fill="black"/>
<path d="M104.055 0.628906H111.263L106.112 34.7673C105.557 38.4103 104.221 41.2579 102.114 43.2212C100.007 45.1845 97.1957 46.1912 93.7635 46.1912C90.3313 46.1912 87.8195 45.1845 86.3057 43.2212C84.792 41.2579 84.3096 38.4103 84.8585 34.7673L90.0097 0.628906H97.4785L92.2498 35.2734C92.0335 36.7195 92.161 37.7762 92.6323 38.3991C92.912 38.7266 93.266 38.9819 93.6645 39.1435C94.063 39.3052 94.4944 39.3684 94.9224 39.328C95.3935 39.349 95.8642 39.2757 96.3068 39.1124C96.7495 38.9491 97.1553 38.6991 97.5007 38.3769C98.1605 37.754 98.6096 36.7084 98.8259 35.2512L104.055 0.628906ZM105.607 34.7673L110.681 1.15172H104.487L99.3416 35.2734C99.1031 36.853 98.593 38.0209 97.8278 38.744C97.0206 39.4944 95.9502 39.8943 94.8503 39.8563C94.3527 39.8983 93.8524 39.8191 93.3919 39.6255C92.9314 39.4318 92.5243 39.1294 92.2054 38.744C91.6509 38.0265 91.5012 36.853 91.7396 35.2734L96.8908 1.15172H90.4477L85.3908 34.7673C84.8364 38.2768 85.3188 41.0076 86.7549 42.8653C88.191 44.7229 90.5752 45.6462 93.8578 45.6462C97.1403 45.6462 99.8129 44.7062 101.803 42.8653C103.794 41.0243 105.086 38.2712 105.618 34.7617" fill="black"/>
<path d="M129.626 45.1901L129.737 45.5516H122.074L122.04 45.3792C121.897 44.6954 121.828 43.9979 121.835 43.2991C121.901 42.1394 122.033 40.9844 122.229 39.8397L123.454 31.7027C123.748 29.745 123.648 28.3657 123.149 27.6148C122.65 26.864 121.647 26.5024 120.133 26.5024H117.987L115.115 45.5516H107.641L114.422 0.628906H124.99C128.622 0.628906 131.189 1.50211 132.62 3.21515C134.05 4.92819 134.5 7.58673 133.973 11.1018L133.557 13.8326C132.886 18.2821 131.006 21.2632 127.968 22.6259C128.641 22.8851 129.243 23.3005 129.724 23.838C130.206 24.3755 130.554 25.0198 130.74 25.7182C131.206 27.3089 131.245 29.4558 130.846 32.0976L129.67 39.8842C129.505 40.8917 129.392 41.9072 129.332 42.9265C129.305 43.6921 129.405 44.4568 129.626 45.1901V45.1901ZM122.539 45.0511H129.055C128.892 44.3855 128.825 43.7001 128.855 43.0155C128.894 42.2257 129.005 41.2134 129.199 39.9175L130.374 32.131C130.762 29.5614 130.729 27.4869 130.286 25.9574C130.09 25.2476 129.714 24.601 129.194 24.0812C128.674 23.5615 128.028 23.1864 127.319 22.9929L127.147 22.9373L127.219 22.4479L127.391 22.3811C130.485 21.202 132.382 18.3377 133.069 13.866L133.479 11.1352C133.99 7.75915 133.568 5.22852 132.221 3.61004C130.873 1.99155 128.423 1.18509 124.929 1.18509H114.854L108.234 45.0511H114.677L117.549 26.0074H120.211C121.874 26.0074 123.022 26.4468 123.593 27.3089C124.164 28.171 124.286 29.6115 123.965 31.7194L122.739 39.8397C122.548 40.9624 122.42 42.0951 122.357 43.2324C122.357 43.8432 122.418 44.4525 122.539 45.0511Z" fill="black"/>
<path d="M123.844 6.97656C125.136 6.97656 126.062 7.37145 126.55 8.15567C127.038 8.93988 127.165 10.1412 126.91 11.8042L126.422 15.2303C126.162 16.9823 125.585 18.2615 124.759 19.0234C123.782 19.8335 122.537 20.2463 121.271 20.1803H118.499L120.489 6.97656H123.844ZM125.868 15.2303L126.383 11.8042C126.616 10.2636 126.511 9.14567 126.084 8.46713C125.657 7.78859 124.881 7.48269 123.75 7.48269H120.877L119.037 19.6575H121.31C122.432 19.7218 123.538 19.3627 124.41 18.6508C125.153 17.9889 125.657 16.8321 125.901 15.2192" fill="black"/>
<path d="M157.09 7.49218H145.074L143.383 18.7159H152.931L151.928 25.5847H142.346L140.367 38.7051H152.382L151.373 45.5516H131.867L138.62 0.628906H158.105L157.09 7.49218ZM152.344 19.2276H142.79L144.642 6.99162H156.657L157.534 1.1684H139.08L132.454 45.0511H150.913L151.795 39.2223H139.779L141.914 25.0286H151.462L152.344 19.2053" fill="black"/>
<path d="M183.533 27.2195C184.35 29.6038 184.541 32.1591 184.087 34.6389C183.533 38.3264 182.169 41.2019 180.04 43.1874C177.91 45.173 175.049 46.1908 171.589 46.1908C168.129 46.1908 165.668 45.1841 164.193 43.2152C162.718 41.2464 162.257 38.4098 162.812 34.7669L163.233 31.986H170.325L169.826 35.2897C169.416 38.0205 170.309 39.3442 172.565 39.3442C173.049 39.3668 173.532 39.2929 173.987 39.1268C174.442 38.9607 174.86 38.7056 175.216 38.3765C175.876 37.7313 176.325 36.6412 176.552 35.1506C176.847 33.5408 176.672 31.8797 176.047 30.3675C175.426 28.9826 174.129 27.2807 172.166 25.3229C169.676 22.7812 167.991 20.4396 167.176 18.3707C166.317 16.117 166.085 13.6717 166.505 11.296C167.059 7.73648 168.379 4.93889 170.486 2.95332C172.593 0.967755 175.404 0 178.836 0C182.269 0 184.681 0.995564 186.139 2.97001C187.597 4.94445 188.035 7.78097 187.486 11.424L187.17 13.5208H180.078L180.467 10.979C180.683 9.52182 180.566 8.45951 180.117 7.81434C179.668 7.16917 178.936 6.85771 177.866 6.85771C175.693 6.85771 174.445 8.16473 174.04 10.8511C173.801 12.3359 174.017 13.8587 174.661 15.2171C175.299 16.5853 176.613 18.2705 178.543 20.2227C181.077 22.8034 182.762 25.1282 183.533 27.2195ZM179.735 42.8259C181.764 40.9349 183.062 38.1818 183.616 34.6278C184.045 32.228 183.854 29.7579 183.062 27.4531C182.291 25.4175 180.633 23.1149 178.143 20.6121C176.158 18.6154 174.816 16.8857 174.157 15.4785C173.496 14.032 173.285 12.4194 173.552 10.8511C174.001 7.85884 175.493 6.34602 177.988 6.34602C179.197 6.34602 180.078 6.72423 180.6 7.45838C181.121 8.19254 181.26 9.37721 181.021 10.9568L180.716 12.9813H186.777L187.015 11.4017C187.569 7.88664 187.12 5.1558 185.745 3.29259C184.37 1.42938 182.041 0.511686 178.803 0.511686C175.565 0.511686 172.843 1.45163 170.852 3.29259C168.861 5.13355 167.58 7.83659 167.059 11.2627C166.658 13.5545 166.882 15.9126 167.708 18.087C168.523 20.1059 170.181 22.3974 172.632 24.9002C174.611 26.8969 175.959 28.6378 176.58 30.0727C177.249 31.6646 177.441 33.4174 177.134 35.1173C176.89 36.7413 176.386 37.9371 175.62 38.6768C175.211 39.0557 174.731 39.3492 174.207 39.5401C173.683 39.7311 173.127 39.8157 172.571 39.7892C170.004 39.7892 168.939 38.2486 169.394 35.2174L169.815 32.4365H163.694L163.35 34.7224C162.795 38.2319 163.256 40.9627 164.653 42.8259C166.05 44.6891 168.407 45.6068 171.689 45.6068C174.972 45.6068 177.722 44.7169 179.735 42.8259Z" fill="black"/>
<path d="M205.862 0.628906H213.336L206.555 45.5516H199.086L202.102 25.5847H195.177L192.138 45.5516H184.669L191.445 0.628906H198.92L196.192 18.7159H203.134L205.862 0.628906ZM206.122 45.0511L212.743 1.15172H206.305L203.577 19.2276H195.598L198.326 1.15172H191.878L185.257 45.0511H191.706L194.717 25.0286H202.696L199.679 45.0511H206.122Z" fill="black"/>
<path d="M216.74 0.628906H224.214L217.433 45.5516H209.964L216.74 0.628906ZM217.001 45.0511L223.621 1.15172H217.178L210.552 45.0511H217.001Z" fill="black"/>
<path d="M245.501 7.49218H234.051L232.26 19.3444H241.242L240.211 26.2021H231.218L228.306 45.5516H220.838L227.619 0.628906H246.532L245.501 7.49218ZM240.644 19.8672H231.672L233.613 6.97493H245.08L245.956 1.15172H228.051L221.431 45.0511H227.891L230.807 25.7015H239.79L240.644 19.8672Z" fill="black"/>
<path d="M246.906 0.628906H268.924L267.893 7.49218H260.607L254.873 45.5516H247.399L253.143 7.49218H245.869L246.906 0.628906ZM267.421 6.97493L268.303 1.15172H247.338L246.462 6.97493H253.737L247.992 45.0511H254.435L260.18 6.98605H267.449" fill="black"/>
<path d="M288.944 7.49218H276.929L275.237 18.7159H284.786L283.749 25.5847H274.201L272.249 38.6939H284.264L283.2 45.5516H263.715L270.491 0.628906H289.992L288.944 7.49218ZM284.192 19.2276H274.644L276.491 6.99162H288.512L289.388 1.1684H270.929L264.309 45.0511H282.784L283.66 39.2223H271.628L273.763 25.0286H283.338L284.214 19.2053" fill="black"/>
<path d="M301.602 6.97656C302.9 6.97656 303.82 7.37145 304.314 8.15567C304.807 8.93988 304.924 10.1468 304.674 11.8042L304.159 15.2303C303.892 16.9823 303.327 18.2615 302.495 19.0234C301.515 19.8329 300.269 20.2455 299.002 20.1803H296.229L298.22 6.97656H301.602ZM303.643 15.2303L304.159 11.8042C304.391 10.2636 304.292 9.14567 303.859 8.46713C303.427 7.78859 302.656 7.48269 301.525 7.48269H298.619L296.784 19.6575H299.052C300.174 19.7218 301.28 19.3627 302.151 18.6508C302.894 17.9889 303.399 16.8321 303.643 15.2192" fill="black"/>
<path d="M307.392 45.1901L307.497 45.5516H299.835L299.801 45.3792C299.658 44.6954 299.589 43.9979 299.596 43.2991C299.662 42.1394 299.794 40.9844 299.99 39.8397L301.215 31.7027C301.509 29.745 301.409 28.3657 300.91 27.6148C300.411 26.864 299.402 26.5024 297.894 26.5024H295.748L292.876 45.5516H285.407L292.21 0.628906H302.746C306.383 0.628906 308.95 1.50211 310.381 3.21515C311.811 4.92818 312.26 7.58673 311.728 11.1018L311.318 13.8326C310.641 18.2821 308.762 21.2632 305.723 22.6259C306.395 22.8867 306.996 23.3025 307.478 23.8398C307.959 24.3771 308.308 25.0206 308.496 25.7182C308.961 27.3089 308.995 29.4558 308.595 32.0976L307.42 39.8842C307.256 40.8917 307.145 41.9072 307.087 42.9265C307.058 43.693 307.162 44.4588 307.392 45.1901ZM300.278 45.0511H306.793C306.632 44.3853 306.567 43.6998 306.599 43.0155C306.659 41.9777 306.772 40.9437 306.937 39.9175L308.118 32.131C308.507 29.5614 308.473 27.4869 308.024 25.9574C307.83 25.248 307.454 24.6016 306.935 24.0818C306.416 23.562 305.771 23.1867 305.063 22.9929L304.886 22.9373L304.964 22.4479L305.135 22.3811C308.224 21.202 310.126 18.3377 310.808 13.866L311.218 11.1352C311.728 7.75915 311.307 5.22296 309.965 3.61004C308.623 1.99711 306.167 1.18509 302.673 1.18509H292.615L285.995 45.0511H292.443L295.31 26.0186H297.972C299.635 26.0186 300.783 26.4579 301.359 27.32C301.936 28.1821 302.047 29.6226 301.731 31.7305L300.528 39.8397C300.335 40.9624 300.206 42.0951 300.14 43.2324C300.133 43.8388 300.187 44.4443 300.3 45.04" fill="black"/>
<path d="M344.2 0.628906H354.613L347.832 45.5516H340.74L345.442 14.272L336.016 45.5516H329.773V45.3347V14.272L325.071 45.5516H318.478L325.259 0.628906H335.667L335.312 31.2634L344.2 0.628906ZM347.4 45.0511L354.02 1.15172H344.594L335.351 32.9319H334.796V32.7039L335.157 1.15172H325.731L319.071 45.0511H324.616L329.69 11.4299H330.294V11.6469V45.0511H335.667L345.803 11.4299H346.402L341.334 45.0511H347.4" fill="black"/>
<path d="M366.622 8.36865H367.176L366.96 30.8328H360.123L366.622 8.36865ZM360.788 30.3211H366.461L366.66 10.0094L360.788 30.3211Z" fill="black"/>
<path d="M373.286 0.628906L373.801 45.5516H366.321L366.388 36.8585H358.908L356.335 45.5516H349.36L363.427 0.628906H373.286ZM366.909 36.4414L366.848 45.0511H373.28L372.776 1.15172H363.787L350.042 45.0511H355.975L358.548 36.358H366.676V36.4748H366.937" fill="black"/>
<path d="M400.495 15.4841H393.398L394.08 10.979C394.501 8.19811 393.609 6.85771 391.357 6.85771C389.106 6.85771 387.803 8.20367 387.387 10.979L383.7 35.273C383.29 38.0038 384.188 39.3275 386.439 39.3275C388.69 39.3275 389.988 38.0038 390.398 35.273L391.668 26.8413H388.197L389.245 19.978H399.813L397.595 34.7669C397.041 38.4098 395.699 41.2575 393.592 43.2208C391.485 45.1841 388.679 46.1908 385.241 46.1908C381.804 46.1908 379.303 45.1841 377.784 43.2208C376.264 41.2575 375.788 38.4098 376.336 34.7669L379.863 11.4073C380.417 7.76428 381.759 4.91664 383.855 2.95332C385.951 0.990002 388.768 0 392.2 0C395.632 0 398.116 0.995564 399.658 2.96444C401.199 4.93332 401.654 7.78097 401.105 11.424L400.495 15.4841ZM391.463 6.34602C394.024 6.34602 395.083 7.90333 394.623 10.979L394.019 14.9668H400.057L400.612 11.424C401.138 7.91445 400.678 5.18361 399.248 3.3204C397.817 1.45719 395.422 0.539495 392.139 0.539495C388.857 0.539495 386.184 1.47944 384.188 3.3204C382.192 5.16136 380.911 7.91445 380.379 11.424L376.858 34.7835C376.303 38.2931 376.786 41.0183 378.222 42.8871C379.658 44.7559 382.042 45.668 385.33 45.668C388.618 45.668 391.285 44.7281 393.276 42.8871C395.266 41.0461 396.558 38.2986 397.085 34.7891L399.225 20.4953H389.683L388.801 26.324H392.278L390.908 35.273C390.448 38.3042 388.923 39.8448 386.356 39.8448C383.789 39.8448 382.724 38.3042 383.184 35.273L386.849 10.979C387.315 7.90333 388.851 6.34602 391.413 6.34602" fill="black"/>
<path d="M414.051 8.36865H414.605L414.383 30.8328H407.541L414.051 8.36865ZM408.217 30.3211H413.89L414.084 10.0094L408.217 30.3211Z" fill="black"/>
<path d="M420.717 0.628906L421.232 45.5516H413.752L413.819 36.8585H406.339L403.761 45.5516H396.791L410.869 0.628906H420.717ZM414.34 36.4414L414.274 45.0511H420.705L420.201 1.16284H411.218L397.467 45.0511H403.395L405.967 36.358H414.102V36.4748H414.362" fill="black"/>
<path d="M448.269 7.23077L430.759 38.6939H443.512L442.475 45.5516H421.621L422.63 38.9831L440.141 7.49218H427.992L429.029 0.628906H449.279L448.269 7.23077ZM442.941 39.2112H429.916L447.793 7.05836L448.685 1.15172H429.467L428.613 6.97493H441.006L423.107 39.1278L422.214 45.0511H442.065L442.941 39.2223" fill="black"/>
<path d="M451.418 0.628906H458.887L452.111 45.5516H444.642L451.418 0.628906ZM451.673 45.0511L458.293 1.15172H451.856L445.246 45.0511H451.69" fill="black"/>
<path d="M477.911 0.628906H484.614L477.85 45.5516H470.248L466.921 14.4055L462.219 45.5516H455.521L462.296 0.628906H471.479V0.829131L474.079 25.9185L477.911 0.628906ZM477.406 45.0511L484.06 1.15172H478.349L474.34 27.726H473.752V27.5369L471.002 1.15172H462.729L456.108 45.0511H461.792L466.682 12.6369H467.265L470.719 45.0511H477.406Z" fill="black"/>
<path d="M506.485 7.49218H494.469L492.806 18.7159H502.348L501.289 25.5847H491.741L489.762 38.7051H501.805L500.746 45.5516H481.256L488.032 0.628906H507.522L506.485 7.49218ZM501.733 19.2276H492.179L494.031 6.99162H506.047L506.923 1.1684H488.497L481.844 45.0511H500.302L501.184 39.2223H489.168L491.303 25.0286H500.851L501.733 19.2053" fill="black"/>
<path d="M179.119 235C178.634 232.315 176.486 230.73 173.852 230.73C170.503 230.73 168.074 233.312 168.074 237.454C168.074 241.596 170.503 244.179 173.852 244.179C176.486 244.179 178.634 242.594 179.119 239.909H177.534C177.151 241.724 175.591 242.696 173.852 242.696C171.475 242.696 169.608 240.855 169.608 237.454C169.608 234.054 171.475 232.213 173.852 232.213C175.591 232.213 177.151 233.185 177.534 235H179.119Z" fill="#868686"/>
<path d="M183.181 244H184.766V238.145H191.746V244H193.332V230.909H191.746V236.739H184.766V230.909H183.181V244Z" fill="#868686"/>
<path d="M198.005 244H206.008V242.594H199.59V238.145H205.497V236.739H199.59V232.315H205.906V230.909H198.005V244Z" fill="#868686"/>
<path d="M220.797 235C220.311 232.315 218.164 230.73 215.53 230.73C212.181 230.73 209.752 233.312 209.752 237.454C209.752 241.596 212.181 244.179 215.53 244.179C218.164 244.179 220.311 242.594 220.797 239.909H219.212C218.828 241.724 217.269 242.696 215.53 242.696C213.152 242.696 211.286 240.855 211.286 237.454C211.286 234.054 213.152 232.213 215.53 232.213C217.269 232.213 218.828 233.185 219.212 235H220.797Z" fill="#868686"/>
<path d="M224.859 244H226.444V239.756L228.08 237.915L232.632 244H234.549L229.052 236.815L234.549 230.909H232.478L226.597 237.403H226.444V230.909H224.859V244Z" fill="#868686"/>
<path d="M246.249 230.909H244.663V244H246.249V230.909Z" fill="#868686"/>
<path d="M250.211 232.315H254.328V244H255.913V232.315H260.029V230.909H250.211V232.315Z" fill="#868686"/>
<path d="M281.584 237.454C281.584 233.312 279.155 230.73 275.806 230.73C272.456 230.73 270.027 233.312 270.027 237.454C270.027 241.596 272.456 244.179 275.806 244.179C279.155 244.179 281.584 241.596 281.584 237.454ZM280.05 237.454C280.05 240.855 278.183 242.696 275.806 242.696C273.428 242.696 271.561 240.855 271.561 237.454C271.561 234.054 273.428 232.213 275.806 232.213C278.183 232.213 280.05 234.054 280.05 237.454Z" fill="#868686"/>
<path d="M294.34 230.909V239.449C294.34 241.366 293.024 242.747 290.837 242.747C288.651 242.747 287.335 241.366 287.335 239.449V230.909H285.749V239.577C285.749 242.261 287.757 244.23 290.837 244.23C293.918 244.23 295.926 242.261 295.926 239.577V230.909H294.34Z" fill="#868686"/>
<path d="M299.875 232.315H303.992V244H305.577V232.315H309.693V230.909H299.875V232.315Z" fill="#868686"/>
<path d="M320 229L329 238L320 247" stroke="#E15B2B"/>
</svg>
