<svg width="668" height="474" viewBox="0 0 668 474" fill="none" xmlns="http://www.w3.org/2000/svg">
<path fill-rule="evenodd" clip-rule="evenodd" d="M39.4656 472.568V396.793H57.9035V456.828H89.075V472.568H39.4656ZM87.5425 458.361V471.035H40.9982V398.325H56.3709V458.361H87.5425ZM112.764 472.568H93.0269L119.186 396.793H141.181L167.303 472.568H147.567L142.171 455.988H118.16L112.764 472.568ZM117.047 454.455L111.651 471.035H95.1773L120.278 398.325H140.089L165.154 471.035H148.68L143.284 454.455H117.047ZM120.952 442.455H139.414L130.467 414.941H129.899L120.952 442.455ZM123.062 440.923H137.304L130.183 419.023L123.062 440.923ZM216.93 396.793H235.262V446.396C235.262 455.06 231.938 461.926 226.218 466.595C220.535 471.234 212.624 473.597 203.587 473.597C194.516 473.597 186.604 471.235 180.929 466.594C175.217 461.924 171.913 455.057 171.913 446.396V396.793H190.351V445.864C190.351 449.299 191.721 451.985 193.991 453.841C196.291 455.723 199.616 456.828 203.587 456.828C207.616 456.828 210.968 455.721 213.28 453.839C215.56 451.983 216.93 449.299 216.93 445.864V396.793ZM218.463 445.864C218.463 453.639 212.179 458.361 203.587 458.361C195.102 458.361 188.818 453.639 188.818 445.864V398.325H173.445V446.396C173.445 462.87 185.942 472.065 203.587 472.065C221.161 472.065 233.729 462.87 233.729 446.396V398.325H218.463V445.864ZM308.266 396.793V472.568H292.652L262.823 429.414V472.568H244.385V396.793H260.215L289.899 440.043V396.793H308.266ZM291.432 444.053H290.793L259.408 398.325H245.917V471.035H261.29V425.272H261.823L293.456 471.035H306.734V398.325H291.432V444.053ZM384.857 425.313H366.254L366.062 424.003C365.527 420.355 363.892 417.499 361.498 415.547C359.096 413.589 355.832 412.461 351.922 412.461C346.722 412.461 342.516 414.436 339.577 418.093C336.606 421.788 334.815 427.349 334.815 434.68C334.815 442.229 336.635 447.783 339.597 451.419C342.528 455.019 346.705 456.899 351.815 456.899C355.639 456.899 358.873 455.858 361.296 454.006C363.708 452.161 365.409 449.443 366.072 445.901L366.307 444.645L384.863 444.729L384.65 446.444C382.887 460.583 370.992 473.562 351.567 473.562C341.47 473.562 332.582 470.016 326.223 463.302C319.868 456.592 316.164 446.851 316.164 434.68C316.164 422.468 319.934 412.727 326.32 406.028C332.708 399.327 341.593 395.799 351.567 395.799C360.272 395.799 368.016 398.298 373.868 403.071C379.733 407.854 383.595 414.839 384.651 423.597L384.857 425.313ZM382.895 447.786C380.588 460.569 369.493 472.029 351.567 472.029C332.111 472.029 317.697 458.396 317.697 434.68C317.697 410.893 332.36 397.331 351.567 397.331C367.876 397.331 380.318 406.402 382.912 422.248C382.994 422.752 383.067 423.263 383.129 423.781H367.579C366.407 415.793 360.336 410.929 351.922 410.929C340.667 410.929 333.283 419.556 333.283 434.68C333.283 450.23 340.774 458.432 351.815 458.432C360.017 458.432 366.123 453.958 367.579 446.183L383.129 446.254C383.065 446.766 382.987 447.277 382.895 447.786ZM392.16 472.568V396.793H410.598V426.793H438.74V396.793H457.142V472.568H438.74V442.532H410.598V472.568H392.16ZM409.066 398.325V428.325H440.273V398.325H455.61V471.035H440.273V441H409.066V471.035H393.693V398.325H409.066ZM484.73 396.793V472.568H466.292V396.793H484.73ZM467.825 398.325H483.197V471.035H467.825V398.325ZM557.735 396.793V472.568H542.12L512.291 429.414V472.568H493.853V396.793H509.684L539.368 440.043V396.793H557.735ZM540.9 444.053H540.261L508.877 398.325H495.385V471.035H510.758V425.272H511.291L542.924 471.035H556.202V398.325H540.9V444.053ZM615.501 423.361L615.183 422.25C614.289 419.13 612.641 416.71 610.376 415.062C608.107 413.411 605.117 412.461 601.426 412.461C596.296 412.461 592.077 414.419 589.11 418.065C586.115 421.745 584.284 427.286 584.284 434.609C584.284 441.983 586.051 447.558 589.027 451.258C591.969 454.917 596.215 456.899 601.568 456.899C606.4 456.899 610.093 455.551 612.587 453.307C614.745 451.365 616.124 448.644 616.51 445.231H600.994V430.591H634.485V441.284C634.485 451.217 631.075 459.324 625.163 464.943C619.262 470.553 610.997 473.562 601.497 473.562C590.884 473.562 581.876 469.855 575.529 463.064C569.191 456.282 565.633 446.561 565.633 434.751C565.633 422.638 569.442 412.883 575.859 406.144C582.277 399.404 591.195 395.799 601.177 395.799C618.248 395.799 631.686 406.357 633.796 421.618L634.037 423.361H615.501ZM618.147 443.698C618.135 444.22 618.103 444.731 618.051 445.231C617.21 453.358 611.2 458.432 601.568 458.432C590.029 458.432 582.751 449.804 582.751 434.609C582.751 419.485 590.313 410.929 601.426 410.929C609.343 410.929 614.704 415.012 616.656 421.828H632.278C632.206 421.312 632.121 420.801 632.022 420.296C629.374 406.736 617.024 397.331 601.177 397.331C581.97 397.331 567.165 411.177 567.165 434.751C567.165 457.757 581.011 472.029 601.497 472.029C619.852 472.029 632.952 460.42 632.952 441.284V432.124H602.526V443.698H618.147Z" fill="black" fill-opacity="0.13"/>
<path fill-rule="evenodd" clip-rule="evenodd" d="M39.4656 77.104V1.32889H57.9035V61.3643H89.075V77.104H39.4656ZM87.5425 62.8969V75.5714H40.9982V2.86147H56.3709V62.8969H87.5425ZM112.764 77.104H93.0269L119.186 1.32889H141.181L167.303 77.104H147.567L142.171 60.5241H118.16L112.764 77.104ZM117.047 58.9916L111.651 75.5714H95.1773L120.278 2.86147H140.089L165.154 75.5714H148.68L143.284 58.9916H117.047ZM120.952 46.9916H139.414L130.467 19.4768H129.899L120.952 46.9916ZM123.062 45.459H137.304L130.183 23.5595L123.062 45.459ZM216.93 1.32889H235.262V50.9324C235.262 59.5963 231.938 66.4622 226.218 71.1315C220.535 75.7702 212.624 78.1336 203.587 78.1336C194.516 78.1336 186.604 75.7708 180.929 71.1307C175.217 66.4599 171.913 59.5935 171.913 50.9324V1.32889H190.351V50.3999C190.351 53.8354 191.721 56.5213 193.991 58.3777C196.291 60.2589 199.616 61.3643 203.587 61.3643C207.616 61.3643 210.968 60.2568 213.28 58.3753C215.56 56.5193 216.93 53.8348 216.93 50.3999V1.32889ZM218.463 50.3999C218.463 58.175 212.179 62.8969 203.587 62.8969C195.102 62.8969 188.818 58.175 188.818 50.3999V2.86147H173.445V50.9324C173.445 67.4057 185.942 76.601 203.587 76.601C221.161 76.601 233.729 67.4057 233.729 50.9324V2.86147H218.463V50.3999ZM308.266 1.32889V77.104H292.652L262.823 33.9502V77.104H244.385V1.32889H260.215L289.899 44.579V1.32889H308.266ZM291.432 48.5892H290.793L259.408 2.86147H245.917V75.5714H261.29V29.8082H261.823L293.456 75.5714H306.734V2.86147H291.432V48.5892ZM384.857 29.8496H366.254L366.062 28.5395C365.527 24.8913 363.892 22.0354 361.498 20.0833C359.096 18.1249 355.832 16.9976 351.922 16.9976C346.722 16.9976 342.516 18.9721 339.577 22.6292C336.606 26.3246 334.815 31.8852 334.815 39.2164C334.815 46.7649 336.635 52.3189 339.597 55.9557C342.528 59.5549 346.705 61.4353 351.815 61.4353C355.639 61.4353 358.873 60.3944 361.296 58.5418C363.708 56.6976 365.409 53.9795 366.072 50.4374L366.307 49.181L384.863 49.2657L384.65 50.98C382.887 65.1191 370.992 78.0981 351.567 78.0981C341.47 78.0981 332.582 74.5527 326.223 67.8383C319.868 61.128 316.164 51.3871 316.164 39.2164C316.164 27.0042 319.934 17.2633 326.32 10.5643C332.708 3.86342 341.593 0.334808 351.567 0.334808C360.272 0.334808 368.016 2.8345 373.868 7.60722C379.733 12.3904 383.595 19.3749 384.651 28.1337L384.857 29.8496ZM382.895 52.3219C380.588 65.1051 369.493 76.5655 351.567 76.5655C332.111 76.5655 317.697 62.9324 317.697 39.2164C317.697 15.4295 332.36 1.86739 351.567 1.86739C367.876 1.86739 380.318 10.938 382.912 26.7845C382.994 27.2885 383.067 27.7994 383.129 28.3171H367.579C366.407 20.3289 360.336 15.465 351.922 15.465C340.667 15.465 333.283 24.0922 333.283 39.2164C333.283 54.7667 340.774 62.9679 351.815 62.9679C360.017 62.9679 366.123 58.4945 367.579 50.7194L383.129 50.7904C383.065 51.3026 382.987 51.8133 382.895 52.3219ZM392.16 77.104V1.32889H410.598V31.3288H438.74V1.32889H457.142V77.104H438.74V47.0685H410.598V77.104H392.16ZM409.066 2.86147V32.8614H440.273V2.86147H455.61V75.5714H440.273V45.536H409.066V75.5714H393.693V2.86147H409.066ZM484.73 1.32889V77.104H466.292V1.32889H484.73ZM467.825 2.86147H483.197V75.5714H467.825V2.86147ZM557.735 1.32889V77.104H542.12L512.291 33.9502V77.104H493.853V1.32889H509.684L539.368 44.579V1.32889H557.735ZM540.9 48.5892H540.261L508.877 2.86147H495.385V75.5714H510.758V29.8082H511.291L542.924 75.5714H556.202V2.86147H540.9V48.5892ZM615.501 27.897L615.183 26.7864C614.289 23.6662 612.641 21.246 610.376 19.5978C608.107 17.9467 605.117 16.9976 601.426 16.9976C596.296 16.9976 592.077 18.9551 589.11 22.6011C586.115 26.2807 584.284 31.8224 584.284 39.1454C584.284 46.519 586.051 52.0943 589.027 55.7944C591.969 59.4532 596.215 61.4353 601.568 61.4353C606.4 61.4353 610.093 60.0875 612.587 57.8435C614.745 55.9009 616.124 53.1797 616.51 49.7668H600.994V35.1277H634.485V45.82C634.485 55.7528 631.075 63.8599 625.163 69.4795C619.262 75.0895 610.997 78.0981 601.497 78.0981C590.884 78.0981 581.876 74.3916 575.529 67.6001C569.191 60.8178 565.633 51.0969 565.633 39.2874C565.633 27.1747 569.442 17.4191 575.859 10.6803C582.277 3.94 591.195 0.334808 601.177 0.334808C618.248 0.334808 631.686 10.8934 633.796 26.1545L634.037 27.897H615.501ZM618.147 48.2342C618.135 48.7563 618.103 49.2673 618.051 49.7668C617.21 57.8946 611.2 62.9679 601.568 62.9679C590.029 62.9679 582.751 54.3407 582.751 39.1454C582.751 24.0212 590.313 15.465 601.426 15.465C609.343 15.465 614.704 19.5478 616.656 26.3644H632.278C632.206 25.8479 632.121 25.337 632.022 24.8318C629.374 11.2719 617.024 1.86739 601.177 1.86739C581.97 1.86739 567.165 15.7135 567.165 39.2874C567.165 62.2933 581.011 76.5655 601.497 76.5655C619.852 76.5655 632.952 64.956 632.952 45.82V36.6602H602.526V48.2342H618.147Z" fill="black" fill-opacity="0.13"/>
<path fill-rule="evenodd" clip-rule="evenodd" d="M39.4656 175.64V99.8646H57.9035V159.9H89.075V175.64H39.4656ZM87.5425 161.433V174.107H40.9982V101.397H56.3709V161.433H87.5425ZM112.764 175.64H93.0269L119.186 99.8646H141.181L167.303 175.64H147.567L142.171 159.06H118.16L112.764 175.64ZM117.047 157.527L111.651 174.107H95.1773L120.278 101.397H140.089L165.154 174.107H148.68L143.284 157.527H117.047ZM120.952 145.527H139.414L130.467 118.013H129.899L120.952 145.527ZM123.062 143.995H137.304L130.183 122.095L123.062 143.995ZM216.93 99.8646H235.262V149.468C235.262 158.132 231.938 164.998 226.218 169.667C220.535 174.306 212.624 176.669 203.587 176.669C194.516 176.669 186.604 174.306 180.929 169.666C175.217 164.996 171.913 158.129 171.913 149.468V99.8646H190.351V148.936C190.351 152.371 191.721 155.057 193.991 156.913C196.291 158.795 199.616 159.9 203.587 159.9C207.616 159.9 210.968 158.792 213.28 156.911C215.56 155.055 216.93 152.371 216.93 148.936V99.8646ZM218.463 148.936C218.463 156.711 212.179 161.433 203.587 161.433C195.102 161.433 188.818 156.711 188.818 148.936V101.397H173.445V149.468C173.445 165.941 185.942 175.137 203.587 175.137C221.161 175.137 233.729 165.941 233.729 149.468V101.397H218.463V148.936ZM308.266 99.8646V175.64H292.652L262.823 132.486V175.64H244.385V99.8646H260.215L289.899 143.115V99.8646H308.266ZM291.432 147.125H290.793L259.408 101.397H245.917V174.107H261.29V128.344H261.823L293.456 174.107H306.734V101.397H291.432V147.125ZM384.857 128.385H366.254L366.062 127.075C365.527 123.427 363.892 120.571 361.498 118.619C359.096 116.661 355.832 115.533 351.922 115.533C346.722 115.533 342.516 117.508 339.577 121.165C336.606 124.86 334.815 130.421 334.815 137.752C334.815 145.301 336.635 150.855 339.597 154.491C342.528 158.091 346.705 159.971 351.815 159.971C355.639 159.971 358.873 158.93 361.296 157.078C363.708 155.233 365.409 152.515 366.072 148.973L366.307 147.717L384.863 147.801L384.65 149.516C382.887 163.655 370.992 176.634 351.567 176.634C341.47 176.634 332.582 173.088 326.223 166.374C319.868 159.664 316.164 149.923 316.164 137.752C316.164 125.54 319.934 115.799 326.32 109.1C332.708 102.399 341.593 98.8705 351.567 98.8705C360.272 98.8705 368.016 101.37 373.868 106.143C379.733 110.926 383.595 117.911 384.651 126.669L384.857 128.385ZM382.895 150.858C380.588 163.641 369.493 175.101 351.567 175.101C332.111 175.101 317.697 161.468 317.697 137.752C317.697 113.965 332.36 100.403 351.567 100.403C367.876 100.403 380.318 109.474 382.912 125.32C382.994 125.824 383.067 126.335 383.129 126.853H367.579C366.407 118.865 360.336 114.001 351.922 114.001C340.667 114.001 333.283 122.628 333.283 137.752C333.283 153.302 340.774 161.504 351.815 161.504C360.017 161.504 366.123 157.03 367.579 149.255L383.129 149.326C383.065 149.838 382.987 150.349 382.895 150.858ZM392.16 175.64V99.8646H410.598V129.865H438.74V99.8646H457.142V175.64H438.74V145.604H410.598V175.64H392.16ZM409.066 101.397V131.397H440.273V101.397H455.61V174.107H440.273V144.072H409.066V174.107H393.693V101.397H409.066ZM484.73 99.8646V175.64H466.292V99.8646H484.73ZM467.825 101.397H483.197V174.107H467.825V101.397ZM557.735 99.8646V175.64H542.12L512.291 132.486V175.64H493.853V99.8646H509.684L539.368 143.115V99.8646H557.735ZM540.9 147.125H540.261L508.877 101.397H495.385V174.107H510.758V128.344H511.291L542.924 174.107H556.202V101.397H540.9V147.125ZM615.501 126.433L615.183 125.322C614.289 122.202 612.641 119.782 610.376 118.133C608.107 116.482 605.117 115.533 601.426 115.533C596.296 115.533 592.077 117.491 589.11 121.137C586.115 124.816 584.284 130.358 584.284 137.681C584.284 145.055 586.051 150.63 589.027 154.33C591.969 157.989 596.215 159.971 601.568 159.971C606.4 159.971 610.093 158.623 612.587 156.379C614.745 154.437 616.124 151.715 616.51 148.302H600.994V133.663H634.485V144.356C634.485 154.289 631.075 162.396 625.163 168.015C619.262 173.625 610.997 176.634 601.497 176.634C590.884 176.634 581.876 172.927 575.529 166.136C569.191 159.353 565.633 149.633 565.633 137.823C565.633 125.71 569.442 115.955 575.859 109.216C582.277 102.476 591.195 98.8705 601.177 98.8705C618.248 98.8705 631.686 109.429 633.796 124.69L634.037 126.433H615.501ZM618.147 146.77C618.135 147.292 618.103 147.803 618.051 148.302C617.21 156.43 611.2 161.504 601.568 161.504C590.029 161.504 582.751 152.876 582.751 137.681C582.751 122.557 590.313 114.001 601.426 114.001C609.343 114.001 614.704 118.084 616.656 124.9H632.278C632.206 124.384 632.121 123.873 632.022 123.368C629.374 109.808 617.024 100.403 601.177 100.403C581.97 100.403 567.165 114.249 567.165 137.823C567.165 160.829 581.011 175.101 601.497 175.101C619.852 175.101 632.952 163.492 632.952 144.356V135.196H602.526V146.77H618.147Z" fill="black" fill-opacity="0.13"/>
<path fill-rule="evenodd" clip-rule="evenodd" d="M39.4656 274.175V198.4H57.9035V258.436H89.075V274.175H39.4656ZM87.5425 259.968V272.643H40.9982V199.933H56.3709V259.968H87.5425ZM112.764 274.175H93.0269L119.186 198.4H141.181L167.303 274.175H147.567L142.171 257.596H118.16L112.764 274.175ZM117.047 256.063L111.651 272.643H95.1773L120.278 199.933H140.089L165.154 272.643H148.68L143.284 256.063H117.047ZM120.952 244.063H139.414L130.467 216.548H129.899L120.952 244.063ZM123.062 242.53H137.304L130.183 220.631L123.062 242.53ZM216.93 198.4H235.262V248.004C235.262 256.668 231.938 263.534 226.218 268.203C220.535 272.842 212.624 275.205 203.587 275.205C194.516 275.205 186.604 272.842 180.929 268.202C175.217 263.531 171.913 256.665 171.913 248.004V198.4H190.351V247.471C190.351 250.907 191.721 253.593 193.991 255.449C196.291 257.33 199.616 258.436 203.587 258.436C207.616 258.436 210.968 257.328 213.28 255.447C215.56 253.591 216.93 250.906 216.93 247.471V198.4ZM218.463 247.471C218.463 255.246 212.179 259.968 203.587 259.968C195.102 259.968 188.818 255.246 188.818 247.471V199.933H173.445V248.004C173.445 264.477 185.942 273.672 203.587 273.672C221.161 273.672 233.729 264.477 233.729 248.004V199.933H218.463V247.471ZM308.266 198.4V274.175H292.652L262.823 231.022V274.175H244.385V198.4H260.215L289.899 241.65V198.4H308.266ZM291.432 245.661H290.793L259.408 199.933H245.917V272.643H261.29V226.88H261.823L293.456 272.643H306.734V199.933H291.432V245.661ZM384.857 226.921H366.254L366.062 225.611C365.527 221.963 363.892 219.107 361.498 217.155C359.096 215.196 355.832 214.069 351.922 214.069C346.722 214.069 342.516 216.044 339.577 219.701C336.606 223.396 334.815 228.957 334.815 236.288C334.815 243.836 336.635 249.39 339.597 253.027C342.528 256.626 346.705 258.507 351.815 258.507C355.639 258.507 358.873 257.466 361.296 255.613C363.708 253.769 365.409 251.051 366.072 247.509L366.307 246.252L384.863 246.337L384.65 248.051C382.887 262.191 370.992 275.17 351.567 275.17C341.47 275.17 332.582 271.624 326.223 264.91C319.868 258.199 316.164 248.459 316.164 236.288C316.164 224.076 319.934 214.335 326.32 207.636C332.708 200.935 341.593 197.406 351.567 197.406C360.272 197.406 368.016 199.906 373.868 204.679C379.733 209.462 383.595 216.446 384.651 225.205L384.857 226.921ZM382.895 249.393C380.588 262.177 369.493 273.637 351.567 273.637C332.111 273.637 317.697 260.004 317.697 236.288C317.697 212.501 332.36 198.939 351.567 198.939C367.876 198.939 380.318 208.009 382.912 223.856C382.994 224.36 383.067 224.871 383.129 225.388H367.579C366.407 217.4 360.336 212.536 351.922 212.536C340.667 212.536 333.283 221.164 333.283 236.288C333.283 251.838 340.774 260.039 351.815 260.039C360.017 260.039 366.123 255.566 367.579 247.791L383.129 247.862C383.065 248.374 382.987 248.885 382.895 249.393ZM392.16 274.175V198.4H410.598V228.4H438.74V198.4H457.142V274.175H438.74V244.14H410.598V274.175H392.16ZM409.066 199.933V229.933H440.273V199.933H455.61V272.643H440.273V242.607H409.066V272.643H393.693V199.933H409.066ZM484.73 198.4V274.175H466.292V198.4H484.73ZM467.825 199.933H483.197V272.643H467.825V199.933ZM557.735 198.4V274.175H542.12L512.291 231.022V274.175H493.853V198.4H509.684L539.368 241.65V198.4H557.735ZM540.9 245.661H540.261L508.877 199.933H495.385V272.643H510.758V226.88H511.291L542.924 272.643H556.202V199.933H540.9V245.661ZM615.501 224.968L615.183 223.858C614.289 220.738 612.641 218.317 610.376 216.669C608.107 215.018 605.117 214.069 601.426 214.069C596.296 214.069 592.077 216.026 589.11 219.672C586.115 223.352 584.284 228.894 584.284 236.217C584.284 243.59 586.051 249.166 589.027 252.866C591.969 256.525 596.215 258.507 601.568 258.507C606.4 258.507 610.093 257.159 612.587 254.915C614.745 252.972 616.124 250.251 616.51 246.838H600.994V232.199H634.485V242.891C634.485 252.824 631.075 260.931 625.163 266.551C619.262 272.161 610.997 275.17 601.497 275.17C590.884 275.17 581.876 271.463 575.529 264.672C569.191 257.889 565.633 248.168 565.633 236.359C565.633 224.246 569.442 214.491 575.859 207.752C582.277 201.011 591.195 197.406 601.177 197.406C618.248 197.406 631.686 207.965 633.796 223.226L634.037 224.968H615.501ZM618.147 245.306C618.135 245.828 618.103 246.339 618.051 246.838C617.21 254.966 611.2 260.039 601.568 260.039C590.029 260.039 582.751 251.412 582.751 236.217C582.751 221.093 590.313 212.536 601.426 212.536C609.343 212.536 614.704 216.619 616.656 223.436H632.278C632.206 222.919 632.121 222.408 632.022 221.903C629.374 208.343 617.024 198.939 601.177 198.939C581.97 198.939 567.165 212.785 567.165 236.359C567.165 259.365 581.011 273.637 601.497 273.637C619.852 273.637 632.952 262.027 632.952 242.891V233.732H602.526V245.306H618.147Z" fill="black" fill-opacity="0.13"/>
<path fill-rule="evenodd" clip-rule="evenodd" d="M39.4656 372.711V296.936H57.9035V356.972H89.075V372.711H39.4656ZM87.5425 358.504V371.179H40.9982V298.469H56.3709V358.504H87.5425ZM112.764 372.711H93.0269L119.186 296.936H141.181L167.303 372.711H147.567L142.171 356.131H118.16L112.764 372.711ZM117.047 354.599L111.651 371.179H95.1773L120.278 298.469H140.089L165.154 371.179H148.68L143.284 354.599H117.047ZM120.952 342.599H139.414L130.467 315.084H129.899L120.952 342.599ZM123.062 341.066H137.304L130.183 319.167L123.062 341.066ZM216.93 296.936H235.262V346.54C235.262 355.204 231.938 362.069 226.218 366.739C220.535 371.377 212.624 373.741 203.587 373.741C194.516 373.741 186.604 371.378 180.929 366.738C175.217 362.067 171.913 355.201 171.913 346.54V296.936H190.351V346.007C190.351 349.443 191.721 352.128 193.991 353.985C196.291 355.866 199.616 356.972 203.587 356.972C207.616 356.972 210.968 355.864 213.28 353.983C215.56 352.127 216.93 349.442 216.93 346.007V296.936ZM218.463 346.007C218.463 353.782 212.179 358.504 203.587 358.504C195.102 358.504 188.818 353.782 188.818 346.007V298.469H173.445V346.54C173.445 363.013 185.942 372.208 203.587 372.208C221.161 372.208 233.729 363.013 233.729 346.54V298.469H218.463V346.007ZM308.266 296.936V372.711H292.652L262.823 329.557V372.711H244.385V296.936H260.215L289.899 340.186V296.936H308.266ZM291.432 344.196H290.793L259.408 298.469H245.917V371.179H261.29V325.415H261.823L293.456 371.179H306.734V298.469H291.432V344.196ZM384.857 325.457H366.254L366.062 324.147C365.527 320.499 363.892 317.643 361.498 315.69C359.096 313.732 355.832 312.605 351.922 312.605C346.722 312.605 342.516 314.579 339.577 318.236C336.606 321.932 334.815 327.492 334.815 334.824C334.815 342.372 336.635 347.926 339.597 351.563C342.528 355.162 346.705 357.043 351.815 357.043C355.639 357.043 358.873 356.002 361.296 354.149C363.708 352.305 365.409 349.587 366.072 346.045L366.307 344.788L384.863 344.873L384.65 346.587C382.887 360.726 370.992 373.705 351.567 373.705C341.47 373.705 332.582 370.16 326.223 363.446C319.868 356.735 316.164 346.994 316.164 334.824C316.164 322.611 319.934 312.87 326.32 306.172C332.708 299.471 341.593 295.942 351.567 295.942C360.272 295.942 368.016 298.442 373.868 303.214C379.733 307.998 383.595 314.982 384.651 323.741L384.857 325.457ZM382.895 347.929C380.588 360.712 369.493 372.173 351.567 372.173C332.111 372.173 317.697 358.54 317.697 334.824C317.697 311.037 332.36 297.475 351.567 297.475C367.876 297.475 380.318 306.545 382.912 322.392C382.994 322.896 383.067 323.407 383.129 323.924H367.579C366.407 315.936 360.336 311.072 351.922 311.072C340.667 311.072 333.283 319.699 333.283 334.824C333.283 350.374 340.774 358.575 351.815 358.575C360.017 358.575 366.123 354.102 367.579 346.327L383.129 346.398C383.065 346.91 382.987 347.42 382.895 347.929ZM392.16 372.711V296.936H410.598V326.936H438.74V296.936H457.142V372.711H438.74V342.676H410.598V372.711H392.16ZM409.066 298.469V328.469H440.273V298.469H455.61V371.179H440.273V341.143H409.066V371.179H393.693V298.469H409.066ZM484.73 296.936V372.711H466.292V296.936H484.73ZM467.825 298.469H483.197V371.179H467.825V298.469ZM557.735 296.936V372.711H542.12L512.291 329.557V372.711H493.853V296.936H509.684L539.368 340.186V296.936H557.735ZM540.9 344.196H540.261L508.877 298.469H495.385V371.179H510.758V325.415H511.291L542.924 371.179H556.202V298.469H540.9V344.196ZM615.501 323.504L615.183 322.394C614.289 319.273 612.641 316.853 610.376 315.205C608.107 313.554 605.117 312.605 601.426 312.605C596.296 312.605 592.077 314.562 589.11 318.208C586.115 321.888 584.284 327.43 584.284 334.753C584.284 342.126 586.051 347.701 589.027 351.402C591.969 355.06 596.215 357.043 601.568 357.043C606.4 357.043 610.093 355.695 612.587 353.451C614.745 351.508 616.124 348.787 616.51 345.374H600.994V330.735H634.485V341.427C634.485 351.36 631.075 359.467 625.163 365.087C619.262 370.697 610.997 373.705 601.497 373.705C590.884 373.705 581.876 369.999 575.529 363.207C569.191 356.425 565.633 346.704 565.633 334.895C565.633 322.782 569.442 313.026 575.859 306.288C582.277 299.547 591.195 295.942 601.177 295.942C618.248 295.942 631.686 306.501 633.796 321.762L634.037 323.504H615.501ZM618.147 343.841C618.135 344.363 618.103 344.874 618.051 345.374C617.21 353.502 611.2 358.575 601.568 358.575C590.029 358.575 582.751 349.948 582.751 334.753C582.751 319.628 590.313 311.072 601.426 311.072C609.343 311.072 614.704 315.155 616.656 321.972H632.278C632.206 321.455 632.121 320.944 632.022 320.439C629.374 306.879 617.024 297.475 601.177 297.475C581.97 297.475 567.165 311.321 567.165 334.895C567.165 357.901 581.011 372.173 601.497 372.173C619.852 372.173 632.952 360.563 632.952 341.427V332.267H602.526V343.841H618.147Z" fill="black" fill-opacity="0.13"/>
<path d="M0.472168 46.0087H15.1279V125.949H39.2432V139.272H0.472168V46.0087Z" fill="black"/>
<path d="M57.5039 46.0087H77.3558L92.5444 139.272H77.8887L75.224 120.753V121.019H58.5698L55.9051 139.272H42.3153L57.5039 46.0087ZM73.492 108.362L66.9635 62.2633H66.6971L60.3018 108.362H73.492Z" fill="black"/>
<path d="M120.099 140.605C112.993 140.605 107.575 138.606 103.845 134.609C100.114 130.523 98.2489 124.706 98.2489 117.156V46.0087H112.905V118.222C112.905 121.419 113.526 123.729 114.77 125.15C116.102 126.571 117.967 127.281 120.366 127.281C122.764 127.281 124.585 126.571 125.828 125.15C127.161 123.729 127.827 121.419 127.827 118.222V46.0087H141.95V117.156C141.95 124.706 140.084 130.523 136.354 134.609C132.623 138.606 127.205 140.605 120.099 140.605Z" fill="black"/>
<path d="M151.775 46.0087H170.161L184.417 101.834H184.684V46.0087H197.741V139.272H182.685L165.098 71.1899H164.832V139.272H151.775V46.0087Z" fill="black"/>
<path d="M228.672 140.605C221.655 140.605 216.281 138.606 212.551 134.609C208.909 130.612 207.088 124.972 207.088 117.689V67.5926C207.088 60.3092 208.909 54.6689 212.551 50.6719C216.281 46.6749 221.655 44.6764 228.672 44.6764C235.689 44.6764 241.018 46.6749 244.66 50.6719C248.391 54.6689 250.256 60.3092 250.256 67.5926V77.4519H236.4V66.66C236.4 60.8865 233.957 57.9998 229.072 57.9998C224.187 57.9998 221.744 60.8865 221.744 66.66V118.754C221.744 124.439 224.187 127.281 229.072 127.281C233.957 127.281 236.4 124.439 236.4 118.754V104.498H250.256V117.689C250.256 124.972 248.391 130.612 244.66 134.609C241.018 138.606 235.689 140.605 228.672 140.605Z" fill="black"/>
<path d="M258.412 46.0087H273.067V83.9804H288.789V46.0087H303.445V139.272H288.789V97.3038H273.067V139.272H258.412V46.0087Z" fill="black"/>
<path d="M313.747 46.0087H328.403V139.272H313.747V46.0087Z" fill="black"/>
<path d="M338.766 46.0087H357.152L371.408 101.834H371.675V46.0087H384.732V139.272H369.676L352.089 71.1899H351.823V139.272H338.766V46.0087Z" fill="black"/>
<path d="M415.796 140.605C408.691 140.605 403.272 138.606 399.542 134.609C395.811 130.523 393.946 124.706 393.946 117.156V68.1256C393.946 60.5756 395.811 54.8022 399.542 50.8052C403.272 46.7193 408.691 44.6764 415.796 44.6764C422.902 44.6764 428.32 46.7193 432.051 50.8052C435.781 54.8022 437.647 60.5756 437.647 68.1256V76.1196H423.79V67.1929C423.79 61.0642 421.259 57.9998 416.196 57.9998C411.133 57.9998 408.602 61.0642 408.602 67.1929V118.222C408.602 124.261 411.133 127.281 416.196 127.281C421.259 127.281 423.79 124.261 423.79 118.222V99.9685H416.463V86.6451H437.647V117.156C437.647 124.706 435.781 130.523 432.051 134.609C428.32 138.606 422.902 140.605 415.796 140.605Z" fill="black"/>
<path d="M486.222 140.605C479.116 140.605 473.742 138.606 470.1 134.609C466.459 130.523 464.638 124.706 464.638 117.156V111.826H478.494V118.222C478.494 124.261 481.025 127.281 486.088 127.281C488.575 127.281 490.441 126.571 491.684 125.15C493.017 123.64 493.683 121.241 493.683 117.955C493.683 114.047 492.794 110.627 491.018 107.696C489.242 104.676 485.955 101.079 481.159 96.9041C475.119 91.5747 470.9 86.7783 468.501 82.5148C466.103 78.1625 464.904 73.2773 464.904 67.8591C464.904 60.4868 466.769 54.8022 470.5 50.8052C474.231 46.7193 479.649 44.6764 486.755 44.6764C493.772 44.6764 499.056 46.7193 502.609 50.8052C506.251 54.8022 508.072 60.5756 508.072 68.1256V71.9893H494.216V67.1929C494.216 63.9953 493.594 61.6859 492.35 60.2648C491.107 58.7548 489.286 57.9998 486.888 57.9998C482.003 57.9998 479.56 60.9753 479.56 66.9265C479.56 70.3017 480.448 73.4549 482.225 76.3861C484.09 79.3172 487.421 82.8701 492.217 87.0448C498.346 92.3741 502.565 97.215 504.874 101.567C507.184 105.92 508.338 111.027 508.338 116.889C508.338 124.528 506.429 130.39 502.609 134.476C498.879 138.562 493.416 140.605 486.222 140.605Z" fill="black"/>
<path d="M537.313 140.605C530.118 140.605 524.611 138.562 520.792 134.476C516.973 130.39 515.063 124.617 515.063 117.156V68.1256C515.063 60.6645 516.973 54.891 520.792 50.8052C524.611 46.7193 530.118 44.6764 537.313 44.6764C544.508 44.6764 550.015 46.7193 553.834 50.8052C557.653 54.891 559.563 60.6645 559.563 68.1256V117.156C559.563 124.617 557.653 130.39 553.834 134.476C550.015 138.562 544.508 140.605 537.313 140.605ZM537.313 127.281C542.376 127.281 544.907 124.217 544.907 118.088V67.1929C544.907 61.0642 542.376 57.9998 537.313 57.9998C532.25 57.9998 529.719 61.0642 529.719 67.1929V118.088C529.719 124.217 532.25 127.281 537.313 127.281Z" fill="black"/>
<path d="M590.046 140.605C582.851 140.605 577.344 138.562 573.525 134.476C569.706 130.39 567.796 124.617 567.796 117.156V68.1256C567.796 60.6645 569.706 54.891 573.525 50.8052C577.344 46.7193 582.851 44.6764 590.046 44.6764C597.241 44.6764 602.748 46.7193 606.567 50.8052C610.386 54.891 612.296 60.6645 612.296 68.1256V117.156C612.296 124.617 610.386 130.39 606.567 134.476C602.748 138.562 597.241 140.605 590.046 140.605ZM590.046 127.281C595.109 127.281 597.64 124.217 597.64 118.088V67.1929C597.64 61.0642 595.109 57.9998 590.046 57.9998C584.983 57.9998 582.452 61.0642 582.452 67.1929V118.088C582.452 124.217 584.983 127.281 590.046 127.281Z" fill="black"/>
<path d="M621.595 46.0087H639.981L654.237 101.834H654.503V46.0087H667.56V139.272H652.505L634.918 71.1899H634.652V139.272H621.595V46.0087Z" fill="black"/>
<path d="M257.494 240.408H262.643C262.569 235.879 258.846 232.752 253.188 232.752C247.617 232.752 243.535 235.83 243.56 240.445C243.548 244.193 246.19 246.339 250.484 247.369L253.25 248.064C256.017 248.734 257.556 249.528 257.568 251.24C257.556 253.101 255.794 254.367 253.064 254.367C250.273 254.367 248.263 253.077 248.089 250.533H242.89C243.026 256.03 246.96 258.871 253.126 258.871C259.33 258.871 262.978 255.906 262.991 251.253C262.978 247.021 259.789 244.776 255.372 243.783L253.089 243.237C250.881 242.728 249.032 241.909 249.069 240.085C249.069 238.448 250.521 237.244 253.151 237.244C255.72 237.244 257.295 238.41 257.494 240.408Z" fill="black"/>
<path d="M276.482 239.453H272.896V234.887H267.61V239.453H265.004V243.423H267.61V253.35C267.585 257.084 270.129 258.933 273.963 258.772C275.328 258.722 276.296 258.449 276.829 258.275L275.998 254.342C275.737 254.392 275.179 254.516 274.683 254.516C273.628 254.516 272.896 254.119 272.896 252.655V243.423H276.482V239.453Z" fill="black"/>
<path d="M285.199 258.871C288.015 258.871 289.839 257.643 290.77 255.868H290.919V258.511H295.932V245.657C295.932 241.115 292.085 239.205 287.842 239.205C283.276 239.205 280.273 241.388 279.541 244.863L284.43 245.26C284.789 243.994 285.919 243.063 287.817 243.063C289.616 243.063 290.646 243.969 290.646 245.533V245.607C290.646 246.835 289.343 246.997 286.03 247.319C282.258 247.667 278.871 248.932 278.871 253.188C278.871 256.96 281.563 258.871 285.199 258.871ZM286.713 255.223C285.087 255.223 283.921 254.466 283.921 253.015C283.921 251.526 285.149 250.793 287.01 250.533C288.164 250.372 290.05 250.099 290.683 249.677V251.699C290.683 253.697 289.033 255.223 286.713 255.223Z" fill="black"/>
<path d="M302.453 265.658C306.386 265.658 308.47 263.648 309.55 260.571L316.957 239.478L311.362 239.453L307.379 253.449H307.18L303.234 239.453H297.676L304.512 259.057L304.202 259.864C303.507 261.65 302.18 261.737 300.318 261.166L299.127 265.112C299.884 265.435 301.113 265.658 302.453 265.658Z" fill="black"/>
<path d="M337.565 239.453H333.979V234.887H328.693V239.453H326.088V243.423H328.693V253.35C328.669 257.084 331.212 258.933 335.046 258.772C336.411 258.722 337.379 258.449 337.912 258.275L337.081 254.342C336.821 254.392 336.262 254.516 335.766 254.516C334.711 254.516 333.979 254.119 333.979 252.655V243.423H337.565V239.453Z" fill="black"/>
<path d="M353.069 250.396C353.082 252.952 351.332 254.293 349.434 254.293C347.436 254.293 346.146 252.89 346.133 250.645V239.453H340.848V251.588C340.86 256.042 343.466 258.759 347.3 258.759C350.166 258.759 352.226 257.283 353.082 255.049H353.28V258.511H358.355V239.453H353.069V250.396Z" fill="black"/>
<path d="M367.708 247.493C367.721 245.036 369.185 243.597 371.319 243.597C373.441 243.597 374.719 244.987 374.706 247.319V258.511H379.992V246.376C379.992 241.934 377.386 239.205 373.416 239.205C370.587 239.205 368.539 240.594 367.683 242.815H367.46V239.453H362.422V258.511H367.708V247.493Z" fill="black"/>
<path d="M392.683 258.883C397.398 258.883 400.574 256.588 401.319 253.052L396.43 252.729C395.896 254.181 394.531 254.938 392.77 254.938C390.127 254.938 388.452 253.188 388.452 250.347V250.334H401.43V248.883C401.43 242.406 397.509 239.205 392.472 239.205C386.863 239.205 383.228 243.187 383.228 249.069C383.228 255.111 386.814 258.883 392.683 258.883ZM388.452 247.059C388.563 244.887 390.214 243.15 392.559 243.15C394.854 243.15 396.442 244.788 396.455 247.059H388.452Z" fill="black"/>
<path d="M411.742 258.821C414.819 258.821 416.42 257.047 417.152 255.459H417.375V258.511H422.586V233.1H417.313V242.654H417.152C416.444 241.103 414.918 239.205 411.729 239.205C407.548 239.205 404.012 242.455 404.012 249.007C404.012 255.384 407.399 258.821 411.742 258.821ZM413.417 254.615C410.824 254.615 409.409 252.307 409.409 248.982C409.409 245.681 410.799 243.411 413.417 243.411C415.985 243.411 417.425 245.582 417.425 248.982C417.425 252.382 415.96 254.615 413.417 254.615Z" fill="black"/>
<path d="M429.861 258.834C431.449 258.834 432.827 257.506 432.839 255.856C432.827 254.23 431.449 252.903 429.861 252.903C428.223 252.903 426.871 254.23 426.883 255.856C426.871 257.506 428.223 258.834 429.861 258.834Z" fill="black"/>
</svg>
