<svg width="937" height="110" viewBox="0 0 937 110" fill="none" xmlns="http://www.w3.org/2000/svg">
<path d="M935.144 40.3191L936.999 28.0235L912.757 1.8666H877.705L876.847 7.55071L871.562 1.8666H859.506L857.88 12.6066L847.908 1.8666H831.424L830.567 7.56068L825.291 1.8666H811.859L811.32 5.44659L808.01 1.8666H771.591L769.727 14.1722L783.368 28.8811L780.955 33.219L780.895 28.0235L756.643 1.8666H738.933L733.947 17.5428C730.696 15.2093 726.966 13.3445 723.526 11.1606L718.041 5.24715C715.309 2.25551 711.011 0.739746 705.356 0.739746C704.559 0.739746 703.781 0.739746 703.013 0.829495C702.764 0.829495 702.524 0.889328 702.275 0.919244C701.766 0.969105 701.278 1.02894 700.789 1.10871L699.942 1.27824C699.513 1.36799 699.084 1.44777 698.675 1.55746L697.818 1.81674C697.439 1.9364 697.05 2.05607 696.681 2.19568L696.411 2.27545C696.232 2.34526 696.072 2.43501 695.903 2.50481C695.504 2.67434 695.105 2.85384 694.716 3.04331L694.377 3.20286C694.188 3.30258 694.008 3.42225 693.829 3.52197C693.649 3.62169 693.4 3.7613 693.19 3.90091C693.089 3.94767 692.992 4.00446 692.901 4.07044C692.612 4.24994 692.333 4.45935 692.064 4.65879L691.764 4.86821L691.675 4.92804C691.309 5.20726 690.95 5.50642 690.598 5.82553L690.328 6.06486C690.089 6.29422 689.84 6.53356 689.61 6.77289C689.381 7.01222 689.331 7.08202 689.192 7.24158L688.853 7.62052L688.643 7.84988C688.384 8.15901 688.145 8.48809 687.895 8.84709C687.845 8.92687 687.786 8.9867 687.736 9.06648C687.397 9.54514 687.068 10.0637 686.738 10.5623V10.6221C686.374 11.2366 686.042 11.8689 685.741 12.5168C685.472 13.0852 685.233 13.6836 684.993 14.2919C684.924 14.4714 684.864 14.6608 684.794 14.8503C684.724 15.0398 684.604 15.3389 684.525 15.5982C684.525 15.6979 684.465 15.8076 684.435 15.9074L671.341 1.8666H653.611L649.622 14.6509L637.755 1.8666H619.028L615.358 14.4714L603.681 1.8666H584.963L580.605 30.6561L580.535 30.5764L577.982 27.834L575.499 25.1515L557.899 6.20447C555.266 3.37239 550.768 1.92643 544.486 1.92643H525.529L524.971 5.60615L521.54 1.8666H486.468L486.069 4.49924L483.646 1.8666H444.057L443.967 2.48487L443.389 1.8666H409.364L408.506 7.55071L403.241 1.8666H389.798L388.911 7.55071L383.646 1.8666H370.233L368.478 13.4542L357.748 1.8666H344.305L342.431 14.242L333.944 5.0876C331.272 2.19568 327.133 0.739746 321.629 0.739746C320.821 0.739746 320.043 0.739746 319.285 0.829495C319.026 0.829495 318.787 0.889328 318.537 0.919244C318.039 0.969105 317.54 1.02894 317.052 1.10871L316.204 1.27824C315.785 1.36799 315.356 1.44777 314.938 1.55746L314.09 1.81674L312.943 2.18571C312.858 2.22006 312.772 2.25001 312.684 2.27545C312.504 2.34526 312.345 2.43501 312.175 2.50481C311.776 2.67434 311.377 2.85384 310.989 3.04331L310.65 3.20286C310.46 3.30258 310.281 3.41228 310.101 3.52197L309.463 3.89094L309.174 4.06047C308.884 4.24994 308.605 4.45935 308.316 4.66877L308.037 4.86821L307.967 4.91807C307.588 5.20726 307.229 5.50643 306.88 5.81556L306.611 6.06486C306.352 6.3042 306.092 6.5535 305.853 6.81277C305.614 7.07205 305.594 7.09199 305.474 7.2316C305.354 7.37121 305.225 7.50085 305.105 7.63049L304.876 7.89974C304.646 8.15901 304.447 8.4482 304.237 8.72742L303.978 9.0565L303.918 9.13628C303.579 9.61494 303.25 10.1335 302.921 10.6321C302.562 11.2304 302.233 11.8587 301.924 12.5069V12.5667C301.665 13.1052 301.435 13.6636 301.206 14.232L301.026 14.7306C300.927 15.0099 300.817 15.2791 300.727 15.5683C300.727 15.688 300.657 15.8276 300.618 15.9472C300.448 16.4857 300.298 17.0442 300.159 17.6026L299.949 18.3904C299.954 18.4568 299.954 18.5235 299.949 18.5899L284.383 1.8666H249.301L247.187 15.8774L238.152 6.14464C235.529 3.31256 231.022 1.8666 224.75 1.8666H205.783L204.985 7.12191L200.108 1.8666H187.145L185.479 12.8359L175.328 1.8666H161.885L161.546 4.08041L159.552 1.8666H119.962L118.387 12.2974L108.694 1.8666H95.2315L94.4337 7.12191L89.5673 1.8666H76.6036L74.9382 12.8359L64.8165 1.8666H51.3342L49.4993 14.0127L46.4678 10.7119L44.5731 8.71745L41.3222 5.19729C38.5798 2.23557 34.3716 0.739746 28.7673 0.739746C27.9695 0.739746 27.2016 0.739746 26.4437 0.829495C26.1944 0.829495 25.9651 0.889328 25.7158 0.919244C25.2172 0.969105 24.7186 1.01897 24.2499 1.09874L23.4122 1.26827L22.1557 1.54749L21.3181 1.80676C20.9391 1.91646 20.5602 2.03612 20.1912 2.17573L19.9419 2.25551C19.7624 2.32531 19.6029 2.41506 19.4333 2.48487C19.0345 2.65107 18.6455 2.83057 18.2666 3.02336C18.1569 3.02336 18.0372 3.11311 17.9275 3.17295C17.8179 3.23278 17.5586 3.39233 17.3791 3.49205L16.7508 3.86102L16.4716 4.02058C16.1824 4.21005 15.9032 4.41946 15.614 4.62888L15.3448 4.81835H15.275C14.906 5.09757 14.557 5.39673 14.2079 5.6959L13.9586 6.00503C13.7093 6.24436 13.46 6.48369 13.2207 6.733C12.9814 6.9823 12.9614 7.02219 12.8318 7.1618C12.7021 7.30141 12.5925 7.42107 12.4828 7.56068C12.4012 7.63894 12.3246 7.72221 12.2534 7.80999C12.034 8.07924 11.8246 8.35845 11.6152 8.63767L11.3659 8.95678L11.3061 9.03656C10.967 9.51522 10.6479 10.0338 10.3088 10.5124C9.94474 11.1131 9.61189 11.7322 9.31162 12.3673V12.4171C9.06232 12.9556 8.82299 13.514 8.6036 14.0825L8.4241 14.5711L8.12494 15.3888C8.12494 15.5184 8.06511 15.6481 8.02522 15.7677C7.85569 16.3062 7.70611 16.8547 7.5665 17.4132C7.4967 17.6724 7.42689 17.9217 7.36706 18.181C7.17759 19.0087 7.00806 19.8563 6.86845 20.7438L0.366622 63.5642C0.246956 64.4118 0.157207 65.2295 0.0874023 66.0173C0.0874023 66.2866 0.0874023 66.5259 0.0874023 66.7852C0.0874023 67.3137 0.0874023 67.7824 0.0874023 68.3408C0.0874023 68.63 0.0874023 68.9092 0.0874023 69.1885C0.0874023 69.6372 0.0874023 70.076 0.167179 70.5048C0.246956 70.9336 0.236984 71.0732 0.276873 71.3424C0.316761 71.6117 0.406511 72.1502 0.486288 72.5391C0.486288 72.6787 0.486288 72.8283 0.556093 72.9679C0.625897 73.1075 0.665786 73.3668 0.725619 73.5762C0.785452 73.7856 0.725619 73.7956 0.815368 73.8953C0.945006 74.3341 1.08462 74.7629 1.24417 75.1717C1.26633 75.2139 1.2863 75.2572 1.304 75.3014C1.40372 75.5407 1.52339 75.7701 1.63308 75.9994C1.74278 76.2288 1.83253 76.4581 1.95219 76.6676L2.04194 76.8271L2.31119 77.2559C2.43085 77.4554 2.54055 77.6548 2.68016 77.8443C2.78841 78.0096 2.9049 78.1693 3.02918 78.3229C3.15882 78.4925 3.28846 78.662 3.42807 78.8215L3.72723 79.1506L22.774 99.7032L24.6687 101.757L27.9196 105.258C27.9894 105.337 28.0692 105.397 28.139 105.467L28.6376 105.936C28.857 106.145 29.0864 106.335 29.3257 106.524C29.565 106.714 29.6947 106.803 29.8941 106.933C30.0935 107.063 30.3927 107.272 30.662 107.432L31.2902 107.781C31.5694 107.92 31.8586 108.06 32.1578 108.189L32.8359 108.469C33.155 108.588 33.4741 108.688 33.8331 108.788L34.5611 109.007C34.9201 109.1 35.289 109.18 35.668 109.247L36.3959 109.396L37.7123 109.556L38.3804 109.625C39.0685 109.625 39.7665 109.705 40.5045 109.705C41.2424 109.705 42.0701 109.705 42.818 109.615C43.0673 109.615 43.3066 109.556 43.546 109.526C44.0446 109.526 44.5432 109.416 45.0218 109.336C45.301 109.336 45.5703 109.227 45.8495 109.167C46.1287 109.107 46.6971 108.997 47.106 108.897L47.9437 108.638C48.3226 108.519 48.7115 108.409 49.0805 108.269L49.3298 108.189C49.5093 108.12 49.6688 108.03 49.8384 107.96C50.2373 107.791 50.6262 107.611 51.0151 107.422C51.1248 107.422 51.2345 107.332 51.3442 107.272C51.4539 107.212 51.7131 107.053 51.8926 106.953C52.0721 106.853 52.3214 106.714 52.5209 106.584L52.8101 106.414C53.0893 106.235 53.3685 106.026 53.6477 105.826L53.9369 105.617H54.0067C54.3757 105.337 54.7347 105.038 55.0837 104.729L55.353 104.49L56.0809 103.772L56.4698 103.333L56.8288 102.934C56.8986 102.854 56.9784 102.775 57.0482 102.685C57.2776 102.416 57.487 102.126 57.6964 101.847C57.7762 101.737 57.8659 101.638 57.9357 101.528L57.9956 101.458C58.3346 100.98 58.6537 100.461 58.9928 99.9724C59.3418 99.3741 59.6709 98.7558 59.99 98.1076C60.1396 97.7985 60.2792 97.4694 60.4188 97.1104C61.6952 97.8484 62.9617 98.5963 64.1883 99.3841L66.4021 101.767L69.643 105.278C69.6989 105.331 69.7522 105.388 69.8026 105.447L70.3112 105.926C70.5405 106.125 70.7699 106.325 71.0092 106.514L71.5776 106.933C71.8369 107.103 72.0962 107.272 72.3654 107.432C72.6347 107.591 72.7842 107.671 73.0036 107.781C73.223 107.89 73.572 108.06 73.8712 108.189L74.5693 108.479C74.8784 108.598 75.2174 108.708 75.5665 108.808L76.3044 109.027C76.6634 109.117 77.0423 109.197 77.4213 109.266C77.8002 109.336 77.9099 109.376 78.1592 109.416C78.598 109.486 79.0468 109.536 79.5055 109.576L80.1736 109.655C80.8617 109.655 81.5797 109.735 82.3176 109.735C83.0555 109.735 83.9032 109.735 84.6611 109.635L85.409 109.556C85.9076 109.496 86.4062 109.446 86.8848 109.366L87.7325 109.197L88.9989 108.917L89.8565 108.658C90.2355 108.538 90.6244 108.419 90.9934 108.279C91.0831 108.279 91.1729 108.279 91.2626 108.189C91.3524 108.1 91.5917 108.04 91.7712 107.96C92.1701 107.791 92.569 107.621 92.9579 107.422L93.2969 107.272C93.4864 107.172 93.6659 107.053 93.8454 106.953L94.4936 106.574L94.7828 106.404L95.6204 105.816C95.7161 105.741 95.816 105.671 95.9196 105.607L95.9994 105.547C96.3717 105.261 96.7307 104.962 97.0764 104.649L97.3356 104.41C97.5949 104.171 97.8442 103.931 98.0835 103.682C98.3229 103.433 98.3428 103.383 98.4824 103.233L98.8215 102.854L99.0409 102.615C99.2902 102.306 99.5295 101.987 99.7688 101.668C99.8287 101.588 99.8885 101.518 99.9483 101.428C100.038 101.309 100.108 101.179 100.198 101.049L107.238 108.648H141.263L141.781 105.178L144.992 108.648H158.435L161.915 85.6525L166.143 90.2197L166.532 90.4889L178.499 103.333L180.194 105.178L180.423 105.387L180.932 105.876C181.161 106.075 181.391 106.275 181.63 106.464L182.198 106.883L182.976 107.382L183.615 107.731C183.904 107.88 184.193 108.01 184.492 108.14L185.19 108.429C185.499 108.548 185.838 108.658 186.187 108.758L186.925 108.977C187.284 109.067 187.663 109.147 188.042 109.217C188.421 109.286 188.531 109.326 188.78 109.366C189.209 109.436 189.668 109.486 190.116 109.526L190.784 109.606C191.483 109.606 192.201 109.685 192.938 109.685C193.736 109.685 194.524 109.685 195.282 109.586L196.02 109.506C196.469 109.506 196.927 109.416 197.356 109.346H197.516L198.353 109.177L199.62 108.897L200.467 108.638C200.856 108.519 201.245 108.399 201.614 108.259L201.873 108.179C202.053 108.11 202.213 108.02 202.392 107.94C202.791 107.771 203.19 107.601 203.579 107.402C203.688 107.402 203.808 107.312 203.918 107.252C204.027 107.192 204.287 107.033 204.466 106.933L205.104 106.554L205.394 106.385C205.683 106.195 205.962 105.996 206.241 105.796C206.331 105.716 206.441 105.657 206.53 105.587L206.61 105.527C206.979 105.238 207.338 104.949 207.697 104.629L207.956 104.39C208.216 104.151 208.455 103.911 208.704 103.662L209.103 103.213L209.442 102.834C209.512 102.745 209.592 102.675 209.662 102.595C209.911 102.286 210.15 101.967 210.39 101.648L210.539 101.458C210.629 101.339 210.699 101.209 210.789 101.079L217.829 108.678H231.261L233.016 97.0705L243.776 108.678H257.558L257.368 108.02C257.289 107.741 257.219 107.462 257.159 107.172C257.159 107.063 257.109 106.943 257.089 106.833C257.069 106.724 257.019 106.434 256.989 106.235C256.96 106.035 256.989 105.996 256.94 105.886C256.89 105.776 256.94 105.457 256.89 105.238C256.84 105.018 256.89 105.038 256.89 104.939C256.89 104.629 256.89 104.32 256.89 104.001C256.89 104.001 256.89 103.882 256.89 103.822L261.387 108.678H296.429L298.294 96.3725L279.726 76.2288L280.254 72.7385H292.919C292.919 72.8183 292.919 72.9081 292.969 72.9878L293.089 73.3967C293.089 73.5263 293.148 73.656 293.188 73.7756C293.324 74.2696 293.487 74.7557 293.677 75.2316C293.747 75.4011 293.837 75.5507 293.906 75.7202C294.056 76.0393 294.195 76.3784 294.355 76.7174V76.7773L294.535 77.0664C294.694 77.3357 294.854 77.6149 295.033 77.8742L295.292 78.2232C295.442 78.4227 295.602 78.6321 295.771 78.8215L296.06 79.1506L313.661 98.0977L316.144 100.78L318.697 103.532L320.303 105.268C320.362 105.327 320.422 105.367 320.472 105.427C320.522 105.487 320.791 105.726 320.951 105.876C321.11 106.026 321.409 106.295 321.649 106.484C321.888 106.674 322.018 106.753 322.207 106.883C322.397 107.013 322.716 107.232 322.985 107.392L323.603 107.741L324.481 108.15C324.702 108.255 324.928 108.348 325.159 108.429C325.468 108.548 325.797 108.658 326.156 108.758C326.515 108.858 326.625 108.907 326.874 108.967C327.123 109.027 327.612 109.137 327.981 109.217L328.719 109.356C329.148 109.426 329.597 109.476 330.045 109.526L330.713 109.596C331.402 109.596 332.11 109.675 332.847 109.675C333.585 109.675 334.453 109.675 335.221 109.576L335.969 109.496C336.477 109.436 336.966 109.386 337.484 109.306C337.774 109.256 338.053 109.187 338.332 109.127C338.771 109.037 339.2 108.957 339.619 108.848L340.486 108.588C340.875 108.459 341.264 108.339 341.643 108.199L341.912 108.11C342.092 108.05 342.251 107.95 342.431 107.88C342.83 107.711 343.238 107.531 343.627 107.342L343.976 107.182C344.166 107.083 344.335 106.963 344.525 106.853C344.714 106.744 344.964 106.614 345.173 106.484C345.382 106.355 345.372 106.375 345.462 106.305C345.751 106.115 346.041 105.916 346.32 105.706L346.609 105.497H346.689C347.058 105.208 347.427 104.909 347.776 104.59L348.055 104.34C348.304 104.101 348.554 103.862 348.793 103.612L349.202 103.154L349.551 102.765L349.77 102.525C349.92 102.346 350.059 102.156 350.199 101.967L356.332 108.588H369.774L371.519 97.0007L382.259 108.588H395.702L396.559 102.904L401.825 108.588H415.267L416.125 102.904L421.39 108.588H434.823L440.068 73.8953H446.201L444.904 82.4314L469.157 108.588H482.649L484.883 93.8396L498.554 108.588H533.606L534.155 104.909L537.565 108.588H551.008L552.763 96.9808L563.523 108.588H577.294L577.105 107.93C577.025 107.651 576.955 107.372 576.895 107.083C576.895 106.973 576.846 106.853 576.826 106.744C576.806 106.634 576.756 106.345 576.726 106.145C576.696 105.946 576.726 105.906 576.726 105.796C576.726 105.686 576.726 105.367 576.666 105.158C576.606 104.949 576.666 104.958 576.666 104.849C576.666 104.54 576.666 104.231 576.666 103.911C576.726 102.555 576.925 100.72 577.264 98.4567L578.73 88.7737L597.099 108.588H608.946L610.133 100.74L617.412 108.588H628.671L630.745 101.698L637.127 108.588H649.881L650.27 106.035L652.634 108.588H665.139L669.497 93.9193L683.089 108.568H696.541L696.411 96.6018C696.79 97.0207 697.179 97.4295 697.568 97.8484L698.944 99.3342L701.328 101.907L704.379 105.198L704.609 105.417L705.117 105.896C705.336 106.095 705.566 106.295 705.805 106.484L706.384 106.903C706.633 107.073 706.892 107.242 707.161 107.402C707.431 107.561 707.58 107.641 707.8 107.751C708.019 107.86 708.378 108.03 708.677 108.16C708.976 108.289 709.126 108.359 709.365 108.449C709.605 108.538 710.013 108.678 710.362 108.778L711.09 108.997C711.449 109.087 711.828 109.167 712.207 109.237C712.586 109.306 712.696 109.346 712.955 109.386C713.384 109.456 713.833 109.506 714.291 109.546L714.96 109.625C715.648 109.625 716.366 109.705 717.114 109.705C717.861 109.705 718.689 109.705 719.457 109.606L720.195 109.526C720.694 109.466 721.192 109.416 721.681 109.336L722.528 109.167L723.795 108.888L724.643 108.628C725.031 108.509 725.41 108.389 725.789 108.249L726.049 108.17C726.228 108.1 726.388 108.01 726.557 107.93C726.966 107.761 727.365 107.591 727.744 107.392C727.854 107.392 727.983 107.302 728.093 107.242C728.203 107.182 728.452 107.023 728.641 106.923L729.28 106.544L729.569 106.375C729.858 106.185 730.127 105.986 730.406 105.786L730.706 105.577L730.785 105.517C731.154 105.228 731.513 104.939 731.862 104.619L732.132 104.38C732.381 104.141 732.63 103.901 732.87 103.652C732.949 103.572 733.019 103.483 733.099 103.393L737.896 108.568H750.401L754.758 93.8894L768.36 108.568H781.813V107.801L782.521 108.568H820.066L820.604 104.988L823.915 108.568H837.348L838.205 102.874L843.48 108.568H855.547L857.541 95.1958L869.936 108.568H883.608L884.466 102.884L889.731 108.568H924.813L926.678 96.2628L908.1 76.2288L908.628 72.7385H925.79L927.655 60.4429L912.896 44.4875L913.535 40.2793L935.144 40.3191ZM337.056 49.1744C337.056 49.0547 337.056 48.9351 337.056 48.8054C337.056 48.5162 337.056 48.227 337.056 47.9279C337.056 47.8082 337.056 47.6885 337.056 47.5689C337.056 47.16 337.126 46.7512 337.185 46.3423C337.245 45.9334 337.315 45.5844 337.395 45.2254L337.455 44.9562C337.534 44.6371 337.614 44.3379 337.704 44.0587C337.708 44.0189 337.708 43.9788 337.704 43.939C337.764 43.7396 337.853 43.5601 337.923 43.3806L337.016 49.3639C337.025 49.2999 337.038 49.2366 337.056 49.1744ZM328.829 64.8107L328.32 64.0827L328.829 64.8107ZM327.831 63.3747L327.373 62.6168C327.522 62.8661 327.672 63.1154 327.841 63.3747H327.831ZM327.084 61.9287C326.924 61.6595 326.784 61.3803 326.645 61.111C326.784 61.3803 326.924 61.6495 327.084 61.9287ZM326.405 60.6423C326.206 60.2135 326.007 59.7947 325.847 59.3759C325.947 59.7847 326.146 60.2135 326.356 60.6423H326.405ZM304.856 40.6283L305.265 41.1468C305.614 41.5956 305.983 42.0343 306.361 42.4831C306.451 42.5928 306.521 42.6925 306.611 42.7922L306.74 42.9318C307.206 43.4836 307.694 44.0321 308.206 44.5772L313.192 49.9223L313.811 50.6702L313.93 50.8198C314.249 51.2386 314.549 51.6375 314.828 52.0364L315.067 52.3854L315.446 52.9538L315.685 53.3328L316.005 53.8812L316.194 54.2203C316.364 54.5394 316.523 54.8585 316.663 55.1577C316.802 55.4568 316.852 55.6363 316.942 55.8757L317.092 56.2745C317.151 56.454 317.201 56.6335 317.251 56.813L317.371 57.2319C317.371 57.3615 317.371 57.4911 317.451 57.6108C317.53 57.9598 317.59 58.3089 317.64 58.6579C317.64 58.7676 317.64 58.8773 317.69 58.987C317.74 59.4357 317.77 59.8944 317.79 60.3531V60.6324C317.79 61.0246 317.79 61.4235 317.79 61.829C317.79 61.9587 317.79 62.0983 317.79 62.2279C317.79 62.7265 317.71 63.2251 317.63 63.7337C317.55 64.2423 317.48 64.5913 317.391 64.9902C317.391 65.0899 317.341 65.1896 317.321 65.2894C317.231 65.6583 317.141 66.0073 317.032 66.3464C317.03 66.3697 317.03 66.393 317.032 66.4162C316.902 66.7952 316.762 67.1442 316.613 67.4733L316.493 67.7325L316.304 68.0915C316.246 68.1981 316.183 68.3013 316.114 68.4007L306.481 58.0097H297.197L284.523 44.5174L285.161 40.3191H304.596L304.856 40.6283ZM444.226 46.6116L445.174 40.3291H451.306L449.501 52.2957L444.226 46.6116ZM574.951 67.0345H575.011H575.11V67.3237L574.941 67.1442L574.951 67.0345Z" fill="black"/>
<path d="M28.6297 1.66968C34.4534 1.66968 38.7015 3.33502 41.2345 6.65574C43.7674 9.97646 44.615 14.7033 43.6976 20.7663L42.5009 28.744H31.5914L32.9077 19.9685C33.7055 14.7531 31.8407 12.1205 27.3832 12.1205C22.9256 12.1205 20.273 14.7531 19.4852 19.9685L12.754 64.4442C11.9662 69.55 13.831 72.1826 18.2986 72.1826C22.7661 72.1826 25.3987 69.5799 26.1765 64.4442L27.9217 52.737H38.891L37.2257 63.5667C36.3082 69.6298 34.0445 74.3964 30.4845 77.6972C26.9244 80.998 22.1977 82.6833 16.3739 82.6833C10.5502 82.6833 6.29211 81.0179 3.75919 77.6972C1.22626 74.3765 0.378633 69.5998 1.29607 63.5667L7.76798 20.7663C8.68542 14.7033 10.969 9.94655 14.5091 6.6358C18.0492 3.32505 22.796 1.66968 28.6297 1.66968Z" fill="#FFC451"/>
<path d="M88.5036 2.80688L79.3791 63.0784C78.4318 69.3709 76.1182 74.2672 72.5183 77.6078C68.9183 80.9485 64.1317 82.5939 58.2282 82.5939C52.3247 82.5939 48.0267 80.9086 45.4539 77.6078C42.8811 74.3071 42.0434 69.3709 43.0008 63.0784L52.1153 2.80688H63.7029L54.4388 63.9859C54.01 66.818 54.2992 68.972 55.2765 70.2085C55.8506 70.8989 56.5827 71.4406 57.4108 71.7878C58.2388 72.135 59.1384 72.2774 60.0332 72.2029C62.0142 72.2693 63.9416 71.5527 65.3982 70.2085C66.7644 68.9121 67.6818 66.818 68.1106 63.9859L77.3647 2.80688H88.5036Z" fill="#FFC451"/>
<path d="M107.61 2.80688L97.2787 71.0462H117.861L116.286 81.497H84.1055L96.0122 2.80688H107.61Z" fill="#FFC451"/>
<path d="M158.436 2.80688L156.861 13.2477H143.787L133.456 81.497H121.869L132.2 13.2477H119.116L120.692 2.80688H158.436Z" fill="#FFC451"/>
<path d="M199.053 2.80688L189.928 63.0784C188.931 69.3709 186.657 74.2672 183.067 77.6078C179.477 80.9485 174.681 82.5939 168.777 82.5939C162.874 82.5939 158.576 80.9086 156.003 77.6078C153.43 74.3071 152.573 69.3709 153.57 63.0784L162.684 2.80688H174.272L165.008 63.9859C164.579 66.818 164.868 68.972 165.846 70.2085C166.419 70.8995 167.151 71.4417 167.979 71.789C168.808 72.1362 169.707 72.2783 170.602 72.2029C172.581 72.271 174.505 71.554 175.957 70.2085C177.333 68.9121 178.251 66.818 178.68 63.9859L187.934 2.80688H199.053Z" fill="#FFC451"/>
<path d="M231.703 77.8472C231.648 79.0747 231.769 80.3037 232.062 81.497H220.384C220.18 80.429 220.084 79.3433 220.095 78.256C220.21 76.217 220.439 74.1861 220.783 72.173L222.947 57.5838C223.526 53.8044 223.306 51.2116 222.279 49.6759C221.252 48.1402 219.198 47.3424 216.196 47.3424H211.409L206.244 81.5169H194.656L206.563 2.80688H224.642C230.925 2.80688 235.343 4.27279 237.756 7.15473C240.169 10.0367 240.937 14.5939 240.019 20.647L239.331 25.5433C238.115 33.5211 234.684 38.6966 229.12 40.8107L228.811 40.9303L228.681 41.8079L228.99 41.9076C230.264 42.2545 231.426 42.9269 232.362 43.8588C233.297 44.7908 233.974 45.9501 234.325 47.2228C235.123 49.9651 235.183 53.6847 234.485 58.2918L232.371 72.2528C231.972 74.6162 231.773 76.4311 231.703 77.8472ZM227.365 28.0464L228.292 21.9035C228.751 18.9119 228.522 16.728 227.644 15.3618C226.767 13.9956 225.101 13.2477 222.778 13.2477H216.625L213.045 36.9215H218.031C220.308 37.0399 222.546 36.2997 224.303 34.8473C225.839 33.4812 226.876 31.1876 227.295 28.0464" fill="#FFC451"/>
<path d="M283.316 2.80688L281.74 13.2477H260.131L256.8 35.2163H273.982L272.396 45.6571H255.224L251.385 71.0462H272.995L271.409 81.497H238.212L250.129 2.80688H283.316Z" fill="#FFC451"/>
<path d="M321.492 1.66968C327.316 1.66968 331.514 3.35497 333.977 6.65574C336.44 9.95652 337.218 14.8927 336.261 21.1951L335.832 24.0272H324.932L325.481 20.3973C325.91 17.5653 325.65 15.4611 324.723 14.1249C323.795 12.7886 322.2 12.1304 320.026 12.1304C315.568 12.1304 312.886 14.8429 312.048 20.2079C311.583 23.0323 311.983 25.9315 313.195 28.5246C314.372 31.0476 316.795 34.1489 320.365 37.7289C324.843 42.2164 327.824 46.3448 329.21 49.9946C330.636 54.1272 330.979 58.5559 330.208 62.8587C329.21 69.2309 326.907 74.1671 323.227 77.5576C319.547 80.9481 314.731 82.6334 308.747 82.6334C302.764 82.6334 298.586 80.9481 296.093 77.6473C293.6 74.3466 292.792 69.4104 293.749 63.118L294.368 59.0194H305.267L304.509 64.0055C303.692 69.4403 305.606 72.2026 310.223 72.2026C311.224 72.2502 312.224 72.0984 313.166 71.756C314.108 71.4136 314.972 70.8875 315.708 70.2081C317.084 68.8818 317.992 66.7378 318.43 63.826C318.983 60.7782 318.637 57.6354 317.433 54.7812C316.286 52.2084 313.893 49.0872 310.333 45.5072C305.925 41.0197 302.944 36.9112 301.478 33.2913C299.992 29.3926 299.589 25.1647 300.311 21.0555C301.248 14.9127 303.532 10.0862 307.132 6.76544C310.732 3.44472 315.588 1.66968 321.492 1.66968Z" fill="#FFC451"/>
<path d="M382.608 2.80688L370.701 81.497H359.113L364.538 45.6571H350.198L344.773 81.497H333.176L345.092 2.80688H356.68L351.774 35.2163H366.124L371.02 2.80688H382.608Z" fill="#FFC451"/>
<path d="M402.174 2.80688L390.267 81.497H378.67L390.587 2.80688H402.174Z" fill="#FFC451"/>
<path d="M442.314 2.80688L440.738 13.2477H420.146L416.655 36.3631H432.8L431.225 46.8039H415.07L409.824 81.497H398.237L410.144 2.80688H442.314Z" fill="#FFC451"/>
<path d="M482.58 2.80688L480.995 13.2477H467.921L457.59 81.497H446.002L456.333 13.2477H443.25L444.826 2.80688H482.58Z" fill="#FFC451"/>
<path d="M520.457 2.80688L518.882 13.2477H497.262L493.942 35.2163H511.114L509.538 45.6571H492.366L488.517 71.0462H510.126L508.551 81.497H475.354L487.26 2.80688H520.457Z" fill="#FFC451"/>
<path d="M551.46 77.8472C551.384 79.0784 551.485 80.3143 551.759 81.5169H540.042C539.839 80.4489 539.742 79.3632 539.753 78.276C539.872 76.2369 540.105 74.2061 540.451 72.193L542.655 57.5838C543.223 53.8044 543.004 51.2116 541.987 49.6759C540.97 48.1402 538.905 47.3424 535.894 47.3424H531.107L525.952 81.5169H514.354L526.261 2.80688H544.35C550.633 2.80688 555.04 4.27279 557.464 7.15473C559.887 10.0367 560.635 14.5939 559.717 20.647L558.979 25.5433C557.763 33.5211 554.332 38.6966 548.778 40.8107L548.469 40.9303L548.329 41.8079L548.648 41.9076C549.921 42.2551 551.081 42.9279 552.015 43.8599C552.948 44.7918 553.623 45.9508 553.973 47.2228C554.781 49.9651 554.841 53.6847 554.143 58.2918L552.019 72.2528C551.736 74.1067 551.55 75.974 551.46 77.8472ZM547.073 28.0464L548 21.9035C548.449 18.9119 548.229 16.728 547.352 15.3618C546.474 13.9956 544.809 13.2477 542.475 13.2477H536.323L532.743 36.9215H537.729C540.008 37.0385 542.249 36.2986 544.011 34.8473C545.557 33.4812 546.574 31.1876 547.003 28.0464" fill="#FFC451"/>
<path d="M636.689 2.80688L624.783 81.497H613.873L622.998 21.2154H621.911L603.682 81.497H594.019L594.039 21.6044V21.2154H592.952L583.827 81.497H573.835L585.742 2.80688H602.734L602.086 59.3788L602.076 59.7777H603.103L619.697 2.80688H636.689Z" fill="#FFC451"/>
<path d="M670.427 2.80688L671.334 81.5169H659.767L659.876 66.1H659.408V65.8906H644.828L640.211 81.5169H629.541L654.262 2.80688H670.427ZM647.67 56.0282H659.996L660.385 15.7507H659.388L647.67 56.0282Z" fill="#FFC451"/>
<path d="M705.218 1.66968C711.122 1.66968 715.42 3.35497 718.003 6.65574C720.585 9.95652 721.403 14.8927 720.456 21.1851L719.459 27.5374H708.579L709.666 20.3874C710.494 14.8728 708.589 12.0806 703.982 12.0806C699.375 12.0806 696.612 14.8728 695.775 20.3874L689.183 63.9456C688.356 69.3804 690.28 72.1427 694.887 72.1427C699.494 72.1427 702.247 69.3804 703.074 63.9456L705.498 47.9005H699.245L700.831 37.4497H717.993L714.114 63.0382C713.116 69.3306 710.863 74.2169 707.263 77.5576C703.663 80.8983 698.866 82.5437 692.973 82.5437C687.079 82.5437 682.761 80.8584 680.188 77.5576C677.616 74.2568 676.788 69.3306 677.735 63.0382L684.068 21.1552C685.065 14.8628 687.328 9.96649 690.918 6.62583C694.508 3.28516 699.325 1.66968 705.218 1.66968Z" fill="#FFC451"/>
<path d="M755.715 2.80688L756.622 81.5169H745.055L745.174 66.1H744.706V65.8906H730.116L725.489 81.5169H714.829L739.55 2.80688H755.715ZM732.948 56.0282H745.264L745.663 15.7507H744.666L732.948 56.0282Z" fill="#FFC451"/>
<path d="M806.943 2.80688L805.337 13.3973L773.187 71.0462H796.612L795.036 81.497H759.336L760.941 70.8966L793.092 13.2477H770.804L772.379 2.80688H806.943Z" fill="#FFC451"/>
<path d="M824.225 2.80688L812.318 81.497H800.73L812.647 2.80688H824.225Z" fill="#FFC451"/>
<path d="M870.517 2.80688L858.61 81.497H846.574L840.361 23.3794H839.314L830.519 81.497H820.297L832.204 2.80688H847.082L851.999 50.1147L852.029 50.4537H853.086L860.296 2.80688H870.517Z" fill="#FFC451"/>
<path d="M911.68 2.80688L910.105 13.2477H888.495L885.164 35.2163H902.346L900.761 45.6571H883.589L879.749 71.0462H901.359L899.773 81.497H866.576L878.493 2.80688H911.68Z" fill="#FFC451"/>
<path d="M43.2776 29.6589H30.5233L31.9892 19.986C32.6972 15.319 31.1415 13.0055 27.2424 13.0055C23.3433 13.0055 21.1096 15.2691 20.4015 19.986L13.6704 64.4617C12.9823 69.0488 14.5379 71.2726 18.437 71.2726C22.3361 71.2726 24.5599 69.0488 25.258 64.4617L27.1626 51.827H39.8871L38.1519 63.5642C37.1547 69.8765 34.8113 74.8427 31.0717 78.3229C27.3322 81.8032 22.3262 83.5982 16.2332 83.5982C10.1402 83.5982 5.6727 81.7833 2.9902 78.283C0.307698 74.7828 -0.579822 69.8366 0.367531 63.5642L6.83944 20.7638C7.83666 14.4514 10.1801 9.48531 13.9197 6.00503C17.6592 2.52476 22.6652 0.739746 28.7682 0.739746C34.8711 0.739746 39.3087 2.51479 42.0112 6.00503C44.7136 9.49528 45.5812 14.4514 44.6239 20.7638L43.2776 29.6589ZM27.382 12.1179C31.8396 12.1179 33.7044 14.7506 32.9066 19.966L31.5903 28.7116H42.4998L43.6964 20.7339C44.6139 14.6608 43.7862 9.91411 41.2333 6.60336C38.6805 3.29261 34.4523 1.61729 28.6286 1.61729C22.8048 1.61729 18.0481 3.3325 14.508 6.63328C10.9679 9.93405 8.68429 14.7007 7.76685 20.7638L1.29494 63.5642C0.377503 69.6372 1.20519 74.3939 3.75806 77.6947C6.31092 80.9955 10.5491 82.6807 16.3728 82.6807C22.1965 82.6807 26.9532 81.0154 30.4834 77.6947C34.0135 74.374 36.3071 69.5475 37.2245 63.5642L38.8899 52.7344H27.9205L26.1754 64.4417C25.3976 69.5774 22.755 72.1801 18.2974 72.1801C13.8399 72.1801 11.9651 69.5475 12.7529 64.4417L19.4841 19.966C20.2719 14.7506 22.9245 12.1179 27.382 12.1179Z" fill="black"/>
<path d="M76.5854 1.86768H89.5492L80.305 63.0766C79.3078 69.6084 76.8945 74.7141 73.1051 78.2343C69.3157 81.7544 64.2499 83.5594 58.0871 83.5594C51.9243 83.5594 47.397 81.7544 44.6746 78.2343C41.9522 74.7141 41.0846 69.6084 42.0718 63.0766L51.3359 1.86768H64.8183L55.3647 63.9841C54.9758 66.5768 55.2051 68.4715 56.0528 69.5884C56.5557 70.1756 57.1923 70.6333 57.909 70.9231C58.6257 71.2129 59.4016 71.3263 60.1713 71.2538C61.0201 71.2905 61.8678 71.1588 62.6654 70.8661C63.463 70.5734 64.1947 70.1256 64.8183 69.5485C65.995 68.4317 66.8127 66.5569 67.1916 63.9442L76.5854 1.86768ZM79.3776 63.0766L88.5021 2.80506H77.3632L68.1091 63.9841C67.6803 66.8162 66.7628 68.9103 65.3967 70.2067C63.94 71.5509 62.0126 72.2674 60.0316 72.2011C59.1368 72.2756 58.2373 72.1332 57.4092 71.786C56.5812 71.4388 55.8491 70.8971 55.2749 70.2067C54.2777 68.9203 54.0085 66.8162 54.4373 63.9841L63.7014 2.80506H52.1138L42.9992 63.0766C42.002 69.369 42.8696 74.2654 45.4524 77.596C48.0352 80.9267 52.3232 82.5821 58.2267 82.5821C64.1302 82.5821 68.9368 80.8968 72.5168 77.596C76.0967 74.2953 78.4302 69.3591 79.3776 63.0666" fill="black"/>
<path d="M98.3443 70.117H118.927L117.062 82.4126H83.0371L95.233 1.86768H108.695L98.3443 70.117ZM116.294 81.4952L117.87 71.0444H97.2773L107.608 2.80506H96.0109L84.1041 81.5151H116.284" fill="black"/>
<path d="M119.918 1.86768H159.557L157.702 14.1733H144.599L134.247 82.4126H120.805L131.136 14.1733H118.053L119.918 1.86768ZM156.864 13.2459L158.44 2.80506H120.665L119.09 13.2459H132.173L121.872 81.5151H133.46L143.791 13.2658H156.864" fill="black"/>
<path d="M187.139 1.86768H200.103L190.838 63.0766C189.841 69.6084 187.438 74.7141 183.649 78.2343C179.859 81.7544 174.803 83.5594 168.631 83.5594C162.458 83.5594 157.94 81.7544 155.218 78.2343C152.496 74.7141 151.628 69.6084 152.615 63.0766L161.879 1.86768H175.312L165.908 63.9841C165.519 66.5768 165.749 68.4715 166.596 69.5884C167.099 70.1756 167.736 70.6333 168.452 70.9231C169.169 71.2129 169.945 71.3263 170.715 71.2538C171.562 71.2914 172.409 71.16 173.205 70.8673C174.001 70.5745 174.731 70.1262 175.352 69.5485C176.538 68.4317 177.346 66.5569 177.735 63.9442L187.139 1.86768ZM189.931 63.0766L199.056 2.80506H187.917L178.663 63.9841C178.234 66.8162 177.316 68.9103 175.94 70.2067C174.488 71.5522 172.563 72.2691 170.585 72.2011C169.69 72.2764 168.79 72.1344 167.962 71.7872C167.134 71.4399 166.402 70.8977 165.828 70.2067C164.831 68.9203 164.562 66.8162 164.991 63.9841L174.255 2.80506H162.667L153.573 63.0766C152.575 69.369 153.443 74.2654 156.026 77.596C158.609 80.9267 162.897 82.5821 168.8 82.5821C174.704 82.5821 179.51 80.8968 183.09 77.596C186.67 74.2953 188.994 69.3591 189.951 63.0666" fill="black"/>
<path d="M233.127 81.7644L233.327 82.4126H219.545L219.486 82.1035C219.227 80.8775 219.103 79.6268 219.117 78.3739C219.235 76.2946 219.472 74.2237 219.825 72.1712L222.028 57.582C222.557 54.0718 222.377 51.5987 221.48 50.2525C220.582 48.9062 218.777 48.258 216.055 48.258H212.196L207.03 82.4126H193.588L205.784 1.86768H224.791C231.322 1.86768 235.94 3.4333 238.512 6.50472C241.085 9.57614 241.893 14.3428 240.946 20.6452L240.198 25.5415C238.991 33.5192 235.61 38.8643 230.146 41.3075C231.356 41.7723 232.438 42.517 233.305 43.4808C234.171 44.4445 234.798 45.5997 235.132 46.852C235.969 49.704 236.039 53.5532 235.321 58.29L233.207 72.251C232.91 74.0575 232.707 75.8782 232.599 77.7058C232.551 79.0785 232.73 80.4497 233.127 81.7644ZM220.383 81.5151H232.1C231.807 80.3218 231.687 79.0928 231.741 77.8653C231.811 76.4493 232.011 74.6343 232.36 72.3108L234.474 58.3498C235.172 53.7427 235.112 50.0231 234.314 47.2808C233.962 46.0081 233.286 44.8488 232.35 43.9169C231.415 42.9849 230.253 42.3125 228.979 41.9656L228.67 41.8659L228.799 40.9884L229.109 40.8687C234.673 38.7546 238.084 33.6189 239.32 25.6014L240.058 20.705C240.975 14.652 240.218 10.1146 237.794 7.21274C235.371 4.31085 230.963 2.86489 224.681 2.86489H206.562L194.655 81.5151H206.243L211.408 47.3705H216.195C219.186 47.3705 221.251 48.1583 222.278 49.704C223.305 51.2497 223.524 53.8325 222.946 57.6119L220.742 72.1712C220.398 74.1843 220.168 76.2152 220.054 78.2542C220.054 79.3495 220.164 80.4419 220.383 81.5151Z" fill="black"/>
<path d="M222.729 13.2488C225.052 13.2488 226.718 13.9568 227.595 15.3629C228.473 16.7689 228.702 18.9229 228.243 21.9046L227.366 28.0474C226.897 31.1886 225.86 33.4822 224.374 34.8484C222.617 36.3008 220.379 37.0409 218.102 36.9226H213.116L216.696 13.2488H222.729ZM226.369 28.0474L227.296 21.9046C227.715 19.1423 227.525 17.1379 226.758 15.9213C225.99 14.7047 224.594 14.1562 222.559 14.1562H217.394L214.083 35.9852H218.172C220.19 36.1005 222.178 35.4567 223.746 34.1803C225.082 32.9936 225.99 30.9194 226.429 28.0275" fill="black"/>
<path d="M282.521 14.1733H260.911L257.87 34.2971H275.042L273.237 46.6126H256.005L252.445 70.1369H274.055L272.24 82.4126H237.158L249.304 1.86768H284.346L282.521 14.1733ZM273.985 35.2145H256.803L260.133 13.2758H281.743L283.319 2.83497H250.131L238.215 81.5151H271.412L272.998 71.0643H251.388L255.227 45.6154H272.399L273.985 35.1746" fill="black"/>
<path d="M330.078 49.5434C331.548 53.8183 331.891 58.3999 331.075 62.8462C330.078 69.4577 327.625 74.6133 323.795 78.1734C319.966 81.7334 314.82 83.5583 308.598 83.5583C302.375 83.5583 297.948 81.7533 295.295 78.2232C292.642 74.6931 291.815 69.6073 292.812 63.0755L293.57 58.0895H306.324L305.427 64.0129C304.689 68.9092 306.294 71.2826 310.353 71.2826C311.223 71.3231 312.092 71.1906 312.91 70.8927C313.728 70.5949 314.479 70.1376 315.12 69.5475C316.306 68.3907 317.114 66.4361 317.523 63.7636C318.054 60.8772 317.739 57.8989 316.615 55.1876C315.499 52.7045 313.165 49.6531 309.635 46.1429C305.158 41.5856 302.126 37.3873 300.66 33.6777C299.116 29.6369 298.699 25.2526 299.453 20.9931C300.451 14.611 302.824 9.595 306.613 6.03495C310.403 2.4749 315.459 0.739746 321.631 0.739746C327.804 0.739746 332.142 2.52476 334.765 6.06486C337.387 9.60497 338.175 14.6908 337.188 21.2225L336.62 24.982H323.865L324.563 20.4247C324.952 17.812 324.743 15.9074 323.935 14.7506C323.127 13.5938 321.811 13.0354 319.886 13.0354C315.977 13.0354 313.734 15.3788 313.006 20.1954C312.575 22.8576 312.965 25.5878 314.122 28.0235C315.269 30.4766 317.633 33.4982 321.103 36.9984C325.66 41.6255 328.692 45.7938 330.078 49.5434ZM323.247 77.5252C326.897 74.1346 329.23 69.1984 330.227 62.8262C330.999 58.5234 330.656 54.0947 329.23 49.9622C327.844 46.3124 324.862 42.1839 320.385 37.6965C316.815 34.1165 314.402 31.0151 313.215 28.4922C312.027 25.8987 311.648 23.0074 312.128 20.1954C312.936 14.8304 315.618 12.1179 320.106 12.1179C322.28 12.1179 323.865 12.7961 324.803 14.1124C325.74 15.4287 325.989 17.5528 325.56 20.3848L325.012 24.0147H335.912L336.34 21.1826C337.338 14.8802 336.53 9.98391 334.057 6.64325C331.584 3.30258 327.395 1.65718 321.572 1.65718C315.748 1.65718 310.852 3.34247 307.272 6.64325C303.692 9.94402 301.388 14.7905 300.451 20.9333C299.729 25.0425 300.132 29.2704 301.617 33.1691C303.083 36.789 306.065 40.8975 310.473 45.385C314.033 48.965 316.456 52.0863 317.573 54.6591C318.776 57.5133 319.123 60.656 318.57 63.7038C318.131 66.6156 317.224 68.7597 315.848 70.086C315.111 70.7653 314.247 71.2914 313.306 71.6338C312.364 71.9762 311.364 72.128 310.363 72.0804C305.746 72.0804 303.831 69.3181 304.649 63.8833L305.407 58.8972H294.398L293.779 62.9958C292.782 69.2882 293.61 74.1845 296.123 77.5252C298.636 80.8658 302.874 82.5112 308.777 82.5112C314.681 82.5112 319.627 80.9157 323.247 77.5252Z" fill="black"/>
<path d="M370.235 1.86768H383.678L371.482 82.4126H358.049L363.474 46.6126H351.019L345.554 82.4126H332.122L344.308 1.86768H357.75L352.844 34.2971H365.329L370.235 1.86768ZM370.704 81.5151L382.61 2.80506H371.033L366.127 35.2145H351.777L356.683 2.80506H345.085L333.179 81.5151H344.776L350.191 45.6154H364.541L359.116 81.5151H370.704Z" fill="black"/>
<path d="M389.799 1.86768H403.242L391.046 82.4126H377.613L389.799 1.86768ZM390.268 81.5151L402.175 2.80506H390.587L378.67 81.5151H390.268Z" fill="black"/>
<path d="M441.525 14.1733H420.933L417.712 35.4239H433.866L432.012 47.7195H415.837L410.601 82.4126H397.169L409.365 1.86768H443.38L441.525 14.1733ZM432.789 36.3613H416.654L420.145 13.2459H440.767L442.343 2.80506H410.143L398.236 81.5151H409.853L415.099 46.8221H431.254L432.789 36.3613Z" fill="black"/>
<path d="M444.051 1.86768H483.651L481.796 14.1733H468.692L458.381 82.4126H444.939L455.27 14.1733H442.187L444.051 1.86768ZM480.948 13.2459L482.534 2.80506H444.829L443.254 13.2459H456.337L446.006 81.5151H457.593L467.925 13.2658H480.998" fill="black"/>
<path d="M519.656 14.1733H498.047L495.005 34.2971H512.177L510.313 46.6126H493.141L489.63 70.117H511.24L509.325 82.4126H474.283L486.469 1.86768H521.541L519.656 14.1733ZM511.11 35.2145H493.938L497.259 13.2758H518.879L520.454 2.83497H487.257L475.35 81.5151H508.577L510.153 71.0643H488.513L492.353 45.6154H509.575L511.15 35.1746" fill="black"/>
<path d="M542.421 13.2488C544.755 13.2488 546.41 13.9568 547.298 15.3629C548.185 16.7689 548.395 18.9329 547.946 21.9046L547.018 28.0474C546.54 31.1886 545.523 33.4822 544.027 34.8484C542.265 36.2997 540.024 37.0396 537.744 36.9226H532.758L536.338 13.2488H542.421ZM546.091 28.0474L547.018 21.9046C547.437 19.1423 547.258 17.1379 546.48 15.9213C545.702 14.7047 544.316 14.1562 542.282 14.1562H537.056L533.756 35.9852H537.834C539.852 36.1005 541.841 35.4567 543.409 34.1803C544.745 32.9936 545.652 30.9194 546.091 28.0275" fill="black"/>
<path d="M552.834 81.7644L553.024 82.4126H539.242L539.183 82.1035C538.924 80.8774 538.801 79.6268 538.814 78.3739C538.932 76.2946 539.169 74.2237 539.522 72.1712L541.725 57.582C542.254 54.0718 542.075 51.5987 541.177 50.2525C540.28 48.9062 538.465 48.258 535.752 48.258H531.893L526.727 82.4126H513.295L525.531 1.86768H544.478C551.02 1.86768 555.637 3.4333 558.209 6.50472C560.782 9.57614 561.59 14.3428 560.633 20.6452L559.895 25.5415C558.678 33.5192 555.298 38.8643 549.833 41.3075C551.041 41.7751 552.122 42.5207 552.988 43.484C553.855 44.4473 554.482 45.6011 554.819 46.852C555.657 49.704 555.716 53.5532 554.998 58.29L552.884 72.251C552.59 74.0576 552.39 75.8783 552.286 77.7058C552.234 79.0801 552.42 80.4531 552.834 81.7644ZM540.04 81.5151H551.757C551.468 80.3213 551.35 79.0923 551.408 77.8653C551.516 76.0046 551.719 74.1507 552.017 72.3108L554.141 58.3498C554.839 53.7427 554.779 50.0231 553.971 47.2808C553.621 46.0088 552.946 44.8498 552.013 43.9179C551.079 42.9859 549.919 42.3131 548.646 41.9656L548.327 41.8659L548.467 40.9884L548.776 40.8687C554.33 38.7546 557.751 33.6189 558.977 25.6014L559.715 20.705C560.633 14.652 559.875 10.1047 557.462 7.21274C555.048 4.32082 550.631 2.86489 544.348 2.86489H526.259L514.352 81.5151H525.95L531.105 47.3905H535.892C538.883 47.3905 540.948 48.1783 541.985 49.7239C543.022 51.2696 543.221 53.8524 542.653 57.6318L540.489 72.1712C540.143 74.1843 539.91 76.2152 539.791 78.2542C539.78 79.3415 539.877 80.4271 540.08 81.4952" fill="black"/>
<path d="M619.032 1.86768H637.76L625.564 82.4126H612.81L621.266 26.3293L604.313 82.4126H593.085V82.0237V26.3293L584.628 82.4126H572.771L584.967 1.86768H603.685L603.047 56.7942L619.032 1.86768ZM624.786 81.5151L636.693 2.80506H619.74L603.117 59.7858H602.119V59.377L602.768 2.80506H585.815L573.839 81.5151H583.811L592.935 21.2336H594.022V21.6225V81.5151H603.685L621.914 21.2336H622.991L613.877 81.5151H624.786Z" fill="black"/>
<path d="M659.356 15.7441H660.354L659.965 56.0216H647.669L659.356 15.7441ZM648.866 55.1041H659.067L659.426 18.6859L648.866 55.1041Z" fill="black"/>
<path d="M671.341 1.86768L672.269 82.4126H658.816L658.936 66.8262H645.484L640.856 82.4126H628.312L653.611 1.86768H671.341ZM659.873 66.0782L659.764 81.5151H671.331L670.424 2.80506H654.259L629.538 81.5151H640.208L644.835 65.9287H659.454V66.1381H659.923" fill="black"/>
<path d="M720.276 28.5022H707.512L708.739 20.4247C709.496 15.4387 707.891 13.0354 703.842 13.0354C699.794 13.0354 697.45 15.4486 696.702 20.4247L690.071 63.983C689.333 68.8793 690.948 71.2527 694.997 71.2527C699.046 71.2527 701.379 68.8793 702.117 63.983L704.401 48.8653H698.158L700.043 36.5596H719.05L715.061 63.0755C714.064 69.6073 711.651 74.713 707.861 78.2332C704.072 81.7533 699.026 83.5583 692.843 83.5583C686.66 83.5583 682.163 81.7533 679.431 78.2332C676.698 74.713 675.841 69.6073 676.828 63.0755L683.17 21.1926C684.167 14.6608 686.581 9.55511 690.35 6.03495C694.12 2.51479 699.185 0.739746 705.358 0.739746C711.531 0.739746 715.998 2.52476 718.771 6.05489C721.543 9.58503 722.361 14.6908 721.373 21.2225L720.276 28.5022ZM704.032 12.1179C708.639 12.1179 710.544 14.9101 709.716 20.4247L708.629 27.5748H719.489L720.486 21.2225C721.433 14.9301 720.605 10.0338 718.033 6.69311C715.46 3.35244 711.152 1.70704 705.248 1.70704C699.345 1.70704 694.538 3.39233 690.948 6.69311C687.358 9.99388 685.055 14.9301 684.098 21.2225L677.765 63.1055C676.768 69.3979 677.636 74.2842 680.218 77.6349C682.801 80.9855 687.089 82.6209 693.003 82.6209C698.916 82.6209 703.713 80.9356 707.293 77.6349C710.873 74.3341 713.196 69.4078 714.144 63.1154L717.993 37.487H700.831L699.245 47.9378H705.498L703.035 63.983C702.207 69.4178 699.465 72.1801 694.847 72.1801C690.23 72.1801 688.316 69.4178 689.143 63.983L695.735 20.4247C696.573 14.9101 699.335 12.1179 703.942 12.1179" fill="black"/>
<path d="M744.656 15.7441H745.653L745.254 56.0216H732.948L744.656 15.7441ZM734.165 55.1041H744.366L744.715 18.6859L734.165 55.1041Z" fill="black"/>
<path d="M756.644 1.86768L757.571 82.4126H744.119L744.239 66.8262H730.786L726.149 82.4126H713.614L738.934 1.86768H756.644ZM745.176 66.0782L745.056 81.5151H756.624L755.717 2.825H739.562L714.831 81.5151H725.491L730.118 65.9287H744.747V66.1381H745.216" fill="black"/>
<path d="M806.197 13.7046L774.705 70.117H797.64L795.776 82.4126H758.271L760.085 70.6355L791.577 14.1733H769.728L771.593 1.86768H808.012L806.197 13.7046ZM796.613 71.0444H773.189L805.339 13.3955L806.944 2.80506H772.381L770.845 13.2459H793.133L760.943 70.8948L759.338 81.5151H795.038L796.613 71.0643" fill="black"/>
<path d="M811.86 1.86768H825.292L813.106 82.4126H799.674L811.86 1.86768ZM812.319 81.5151L824.225 2.80506H812.648L800.761 81.5151H812.348" fill="black"/>
<path d="M859.506 1.86768H871.562L859.396 82.4126H845.724L839.741 26.5687L831.285 82.4126H819.238L831.424 1.86768H847.938V2.22667L852.615 47.211L859.506 1.86768ZM858.598 81.5151L870.565 2.80506H860.294L853.084 50.4519H852.027V50.1129L847.08 2.80506H832.202L820.295 81.5151H830.517L839.312 23.3975H840.359L846.572 81.5151H858.598Z" fill="black"/>
<path d="M910.895 14.1733H889.286L886.294 34.2971H903.456L901.551 46.6126H884.379L880.819 70.1369H902.479L900.574 82.4126H865.522L877.708 1.86768H912.76L910.895 14.1733ZM902.349 35.2145H885.167L888.498 13.2758H910.107L911.683 2.83497H878.546L866.579 81.5151H899.776L901.362 71.0643H879.752L883.591 45.6154H900.764L902.349 35.1746" fill="black"/>
</svg>
