<svg width="608" height="253" viewBox="0 0 608 253" fill="none" xmlns="http://www.w3.org/2000/svg">
<path d="M145.069 194.218C132.593 194.218 124.942 188.645 122.114 177.501C116.958 179.497 110.887 180.495 103.901 180.495C90.4273 180.495 80.1145 176.669 72.9621 169.018C65.8096 161.366 62.2334 150.555 62.2334 136.582V44.765C62.2334 30.7927 65.8096 19.9809 72.9621 12.3295C80.1145 4.67802 90.4273 0.852295 103.901 0.852295C117.374 0.852295 127.687 4.67802 134.839 12.3295C141.991 19.9809 145.568 30.7927 145.568 44.765V136.582C145.568 148.226 142.989 157.79 137.833 165.275C138.831 166.939 140.079 168.02 141.576 168.519C143.073 169.018 145.235 169.267 148.063 169.267H152.304V194.218H145.069ZM103.901 155.545C113.382 155.545 118.122 149.806 118.122 138.329V43.0184C118.122 31.5413 113.382 25.8027 103.901 25.8027C94.4194 25.8027 89.6788 31.5413 89.6788 43.0184V138.329C89.6788 149.806 94.4194 155.545 103.901 155.545Z" fill="black"/>
<path d="M192.821 180.495C182.841 180.495 175.273 177.085 170.116 170.265C164.96 163.446 162.382 153.549 162.382 140.574V122.361C162.382 113.212 163.962 105.561 167.122 99.4063C170.283 93.2519 175.439 88.7608 182.592 85.9331V85.4341C176.105 82.7727 171.281 78.5311 168.12 72.7094C165.126 66.7213 163.629 59.0698 163.629 49.755V46.5115C163.629 32.3729 167.039 21.6443 173.859 14.3255C180.679 7.00672 190.908 3.34733 204.548 3.34733H235.985V28.2977H205.047C200.556 28.2977 197.063 29.6284 194.568 32.2898C192.239 34.9511 191.075 39.2759 191.075 45.264V55.9926C191.075 62.6461 192.405 67.3866 195.067 70.2143C197.895 73.0421 202.053 74.4559 207.542 74.4559H218.271V54.9946H245.217V74.4559H252.952V99.4063H245.217V156.792C245.217 161.782 245.383 165.857 245.716 169.018C246.049 172.012 246.88 175.006 248.211 178H220.766C219.435 174.341 218.603 169.766 218.271 164.277H217.772C214.778 169.766 211.285 173.842 207.293 176.503C203.467 179.164 198.643 180.495 192.821 180.495ZM203.051 155.545C211.7 155.545 216.774 150.305 218.271 139.826V99.4063H207.792C201.471 99.4063 196.897 101.153 194.069 104.646C191.241 107.973 189.827 113.628 189.827 121.612V139.327C189.827 145.149 190.992 149.307 193.32 151.802C195.649 154.297 198.893 155.545 203.051 155.545Z" fill="black"/>
<path d="M289.377 3.34733H326.553L354.997 178H327.551L322.561 143.319V143.818H291.373L286.383 178H260.934L289.377 3.34733ZM319.318 120.115L307.092 33.7868H306.593L294.617 120.115H319.318Z" fill="black"/>
<path d="M401 92H608" stroke="black" stroke-width="2"/>
</svg>
