<svg width="645" height="146" viewBox="0 0 645 146" fill="none" xmlns="http://www.w3.org/2000/svg">
<path d="M32.2356 107C23.2586 107 15.6418 103.881 9.38506 97.6426C3.12835 91.4043 0 81.3688 0 67.5361C0 50.1774 4.89655 35.2598 14.6897 22.7833C24.4828 10.0355 37.9483 2.44107 55.0862 0L56.7184 13.019C50.1897 13.8327 43.6609 16.4094 37.1322 20.749C30.8755 24.8175 27.7471 29.8352 27.7471 35.8023C27.7471 38.7858 28.4272 40.82 29.7874 41.905C31.4195 42.9899 33.8678 44.0748 37.1322 45.1597C54.5421 50.0418 63.2471 60.0773 63.2471 75.2661C63.2471 84.2167 60.3908 91.8111 54.6782 98.0494C49.2375 104.016 41.7567 107 32.2356 107ZM110.989 107C102.011 107 94.3946 103.881 88.1379 97.6426C81.8812 91.1331 78.7529 80.962 78.7529 67.1293C78.7529 50.0418 83.6494 35.2598 93.4425 22.7833C103.236 10.0355 116.701 2.44107 133.839 0L135.471 12.6122C128.671 13.6971 122.142 16.2738 115.885 20.3422C109.628 24.4106 106.5 29.4284 106.5 35.3954C106.5 38.379 107.18 40.4132 108.54 41.4981C110.172 42.583 112.621 43.6679 115.885 44.7529C133.295 49.635 142 59.8061 142 75.2661C142 84.2167 139.144 91.8111 133.431 98.0494C127.99 104.016 120.51 107 110.989 107Z" fill="#FEF5E1"/>
<path d="M95.7551 69.0002H100.025V63.2607L102.126 60.6967L107.658 69.0002H112.766L105.183 57.8467L112.678 48.8037H107.559L100.291 57.7087H100.025V48.8037H95.7551V69.0002Z" fill="url(#paint0_linear)"/>
<path d="M116.304 74.6804C119.43 74.6804 121.087 73.0828 121.945 70.6372L127.832 53.8725L123.385 53.8528L120.219 64.9766H120.061L116.925 53.8528H112.507L117.941 69.4341L117.695 70.0751C117.142 71.4951 116.087 71.5642 114.608 71.1105L113.661 74.2465C114.263 74.5029 115.239 74.6804 116.304 74.6804Z" fill="url(#paint1_linear)"/>
<path d="M134.183 48.8037H129.982V69.0002H134.183V48.8037Z" fill="url(#paint2_linear)"/>
<path d="M137.548 69.0002H141.749V53.8528H137.548V69.0002ZM139.659 51.9002C140.911 51.9002 141.937 50.9437 141.937 49.7701C141.937 48.6065 140.911 47.6499 139.659 47.6499C138.416 47.6499 137.391 48.6065 137.391 49.7701C137.391 50.9437 138.416 51.9002 139.659 51.9002Z" fill="url(#paint3_linear)"/>
<path d="M152.018 69.296C155.765 69.296 158.29 67.4716 158.881 64.6611L154.996 64.4047C154.572 65.5585 153.487 66.16 152.087 66.16C149.986 66.16 148.655 64.7695 148.655 62.5113V62.5014H158.97V61.3476C158.97 56.1999 155.854 53.6556 151.85 53.6556C147.393 53.6556 144.503 56.8211 144.503 61.4955C144.503 66.2981 147.353 69.296 152.018 69.296ZM148.655 59.8979C148.744 58.1722 150.055 56.7916 151.919 56.7916C153.744 56.7916 155.006 58.0933 155.016 59.8979H148.655Z" fill="url(#paint4_linear)"/>
<path d="M168.139 74.6804H172.34V66.5742H172.468C173.05 67.8365 174.322 69.2467 176.768 69.2467C180.219 69.2467 182.911 66.515 182.911 61.4462C182.911 56.2393 180.101 53.6556 176.778 53.6556C174.243 53.6556 173.03 55.1644 172.468 56.3971H172.281V53.8528H168.139V74.6804ZM172.251 61.4265C172.251 58.7244 173.395 56.9986 175.436 56.9986C177.517 56.9986 178.622 58.8033 178.622 61.4265C178.622 64.0694 177.498 65.9036 175.436 65.9036C173.415 65.9036 172.251 64.1285 172.251 61.4265Z" fill="url(#paint5_linear)"/>
<path d="M192.556 69.296C197.152 69.296 200.011 66.1502 200.011 61.4857C200.011 56.7916 197.152 53.6556 192.556 53.6556C187.961 53.6556 185.101 56.7916 185.101 61.4857C185.101 66.1502 187.961 69.296 192.556 69.296ZM192.576 66.0417C190.456 66.0417 189.371 64.099 189.371 61.4561C189.371 58.8132 190.456 56.8606 192.576 56.8606C194.657 56.8606 195.741 58.8132 195.741 61.4561C195.741 64.099 194.657 66.0417 192.576 66.0417Z" fill="url(#paint6_linear)"/>
<path d="M215.346 58.1722C214.971 55.3814 212.723 53.6556 208.897 53.6556C205.021 53.6556 202.467 55.4504 202.477 58.3694C202.467 60.6376 203.897 62.1069 206.855 62.6986L209.479 63.2213C210.8 63.4875 211.402 63.9708 211.421 64.7301C211.402 65.6275 210.425 66.2685 208.956 66.2685C207.457 66.2685 206.461 65.6275 206.204 64.3948L202.072 64.6118C202.467 67.5111 204.932 69.296 208.946 69.296C212.871 69.296 215.681 67.2941 215.691 64.3061C215.681 62.1168 214.251 60.8052 211.313 60.2037L208.571 59.6514C207.161 59.3457 206.638 58.8625 206.648 58.1327C206.638 57.2255 207.664 56.6338 208.966 56.6338C210.425 56.6338 211.293 57.4326 211.5 58.4089L215.346 58.1722Z" fill="url(#paint7_linear)"/>
<path d="M226.394 53.8528H223.544V50.2238H219.343V53.8528H217.272V57.0085H219.343V64.8977C219.323 67.8661 221.344 69.3354 224.392 69.2072C225.476 69.1678 226.246 68.9508 226.67 68.8128L226.009 65.6867C225.802 65.7261 225.358 65.8247 224.964 65.8247C224.125 65.8247 223.544 65.5092 223.544 64.3455V57.0085H226.394V53.8528Z" fill="url(#paint8_linear)"/>
<path d="M235.87 69.296C239.618 69.296 242.142 67.4716 242.734 64.6611L238.849 64.4047C238.425 65.5585 237.34 66.16 235.939 66.16C233.839 66.16 232.508 64.7695 232.508 62.5113V62.5014H242.823V61.3476C242.823 56.1999 239.707 53.6556 235.703 53.6556C231.245 53.6556 228.356 56.8211 228.356 61.4955C228.356 66.2981 231.206 69.296 235.87 69.296ZM232.508 59.8979C232.596 58.1722 233.908 56.7916 235.772 56.7916C237.596 56.7916 238.859 58.0933 238.868 59.8979H232.508Z" fill="url(#paint9_linear)"/>
<path d="M251.146 69.2467C253.592 69.2467 254.864 67.8365 255.446 66.5742H255.623V69.0002H259.765V48.8037H255.574V56.3971H255.446C254.884 55.1644 253.671 53.6556 251.136 53.6556C247.813 53.6556 245.002 56.2393 245.002 61.4462C245.002 66.515 247.694 69.2467 251.146 69.2467ZM252.477 65.9036C250.416 65.9036 249.292 64.0694 249.292 61.4265C249.292 58.8033 250.397 56.9986 252.477 56.9986C254.519 56.9986 255.663 58.7244 255.663 61.4265C255.663 64.1285 254.499 65.9036 252.477 65.9036Z" fill="url(#paint10_linear)"/>
<path d="M273.966 69.2861C276.204 69.2861 277.654 68.3098 278.393 66.8996H278.512V69.0002H282.496V58.7836C282.496 55.1743 279.439 53.6556 276.066 53.6556C272.437 53.6556 270.051 55.3912 269.469 58.1524L273.354 58.468C273.64 57.4621 274.538 56.7225 276.046 56.7225C277.476 56.7225 278.295 57.4424 278.295 58.685V58.7441C278.295 59.7204 277.259 59.8486 274.626 60.105C271.628 60.3812 268.936 61.387 268.936 64.7695C268.936 67.7675 271.076 69.2861 273.966 69.2861ZM275.169 66.3868C273.877 66.3868 272.95 65.7853 272.95 64.6315C272.95 63.4481 273.926 62.8663 275.405 62.6592C276.323 62.531 277.821 62.314 278.324 61.9787V63.5862C278.324 65.1739 277.013 66.3868 275.169 66.3868Z" fill="url(#paint11_linear)"/>
<path d="M304.785 58.1722C304.411 55.3814 302.162 53.6556 298.336 53.6556C294.46 53.6556 291.906 55.4504 291.916 58.3694C291.906 60.6376 293.336 62.1069 296.295 62.6986L298.918 63.2213C300.239 63.4875 300.841 63.9708 300.861 64.7301C300.841 65.6275 299.864 66.2685 298.395 66.2685C296.896 66.2685 295.9 65.6275 295.644 64.3948L291.512 64.6118C291.906 67.5111 294.372 69.296 298.385 69.296C302.31 69.296 305.121 67.2941 305.131 64.3061C305.121 62.1168 303.691 60.8052 300.752 60.2037L298.011 59.6514C296.6 59.3457 296.078 58.8625 296.088 58.1327C296.078 57.2255 297.103 56.6338 298.405 56.6338C299.864 56.6338 300.732 57.4326 300.939 58.4089L304.785 58.1722Z" fill="url(#paint12_linear)"/>
<path d="M315.833 53.8528H312.983V50.2238H308.782V53.8528H306.711V57.0085H308.782V64.8977C308.762 67.8661 310.784 69.3354 313.831 69.2072C314.916 69.1678 315.685 68.9508 316.109 68.8128L315.448 65.6867C315.241 65.7261 314.797 65.8247 314.403 65.8247C313.565 65.8247 312.983 65.5092 312.983 64.3455V57.0085H315.833V53.8528Z" fill="url(#paint13_linear)"/>
<path d="M325.251 69.296C329.846 69.296 332.706 66.1502 332.706 61.4857C332.706 56.7916 329.846 53.6556 325.251 53.6556C320.655 53.6556 317.795 56.7916 317.795 61.4857C317.795 66.1502 320.655 69.296 325.251 69.296ZM325.27 66.0417C323.15 66.0417 322.065 64.099 322.065 61.4561C322.065 58.8132 323.15 56.8606 325.27 56.8606C327.351 56.8606 328.436 58.8132 328.436 61.4561C328.436 64.099 327.351 66.0417 325.27 66.0417Z" fill="url(#paint14_linear)"/>
<path d="M335.438 69.0002H339.639V60.4305C339.639 58.5666 340.999 57.2846 342.853 57.2846C343.435 57.2846 344.234 57.3832 344.629 57.5114V53.7838C344.254 53.695 343.731 53.6359 343.307 53.6359C341.611 53.6359 340.22 54.622 339.668 56.4957H339.51V53.8528H335.438V69.0002Z" fill="url(#paint15_linear)"/>
<path d="M349.855 74.6804C352.981 74.6804 354.638 73.0828 355.496 70.6372L361.383 53.8725L356.936 53.8528L353.77 64.9766H353.612L350.476 53.8528H346.058L351.492 69.4341L351.246 70.0751C350.693 71.4951 349.638 71.5642 348.159 71.1105L347.212 74.2465C347.814 74.5029 348.79 74.6804 349.855 74.6804Z" fill="url(#paint16_linear)"/>
<path d="M379.674 62.5507C379.684 64.5822 378.293 65.6472 376.785 65.6472C375.197 65.6472 374.171 64.5329 374.161 62.7479V53.8528H369.96V63.4974C369.97 67.0377 372.041 69.1974 375.088 69.1974C377.366 69.1974 379.003 68.0239 379.684 66.2488H379.842V69.0002H383.875V53.8528H379.674V62.5507Z" fill="url(#paint17_linear)"/>
<path d="M399.838 58.1722C399.464 55.3814 397.215 53.6556 393.389 53.6556C389.513 53.6556 386.959 55.4504 386.969 58.3694C386.959 60.6376 388.389 62.1069 391.348 62.6986L393.971 63.2213C395.292 63.4875 395.894 63.9708 395.913 64.7301C395.894 65.6275 394.917 66.2685 393.448 66.2685C391.949 66.2685 390.953 65.6275 390.697 64.3948L386.565 64.6118C386.959 67.5111 389.425 69.296 393.438 69.296C397.363 69.296 400.174 67.2941 400.184 64.3061C400.174 62.1168 398.744 60.8052 395.805 60.2037L393.064 59.6514C391.653 59.3457 391.131 58.8625 391.141 58.1327C391.131 57.2255 392.156 56.6338 393.458 56.6338C394.917 56.6338 395.785 57.4326 395.992 58.4089L399.838 58.1722Z" fill="url(#paint18_linear)"/>
<path d="M402.829 69.0002H407.03V53.8528H402.829V69.0002ZM404.939 51.9002C406.192 51.9002 407.217 50.9437 407.217 49.7701C407.217 48.6065 406.192 47.6499 404.939 47.6499C403.697 47.6499 402.671 48.6065 402.671 49.7701C402.671 50.9437 403.697 51.9002 404.939 51.9002Z" fill="url(#paint19_linear)"/>
<path d="M414.596 60.2431C414.606 58.2905 415.77 57.1466 417.466 57.1466C419.152 57.1466 420.168 58.2511 420.158 60.105V69.0002H424.359V59.3556C424.359 55.8251 422.288 53.6556 419.133 53.6556C416.884 53.6556 415.257 54.7601 414.576 56.5253H414.399V53.8528H410.395V69.0002H414.596V60.2431Z" fill="url(#paint20_linear)"/>
<path d="M434.494 74.996C438.824 74.996 441.9 73.0237 441.9 69.1481V53.8528H437.729V56.3971H437.571C437.009 55.1644 435.776 53.6556 433.242 53.6556C429.919 53.6556 427.108 56.2393 427.108 61.3969C427.108 66.4361 429.84 68.7832 433.252 68.7832C435.668 68.7832 437.019 67.5702 437.571 66.3178H437.749V69.0889C437.749 71.1697 436.417 71.9783 434.593 71.9783C432.739 71.9783 431.802 71.1697 431.457 70.2526L427.572 70.7752C428.074 73.1617 430.412 74.996 434.494 74.996ZM434.583 65.6275C432.522 65.6275 431.398 63.9905 431.398 61.3772C431.398 58.8033 432.502 56.9986 434.583 56.9986C436.624 56.9986 437.768 58.7244 437.768 61.3772C437.768 64.0497 436.605 65.6275 434.583 65.6275Z" fill="url(#paint21_linear)"/>
<path d="M459.728 53.8528H456.878V50.2238H452.677V53.8528H450.606V57.0085H452.677V64.8977C452.657 67.8661 454.678 69.3354 457.726 69.2072C458.81 69.1678 459.58 68.9508 460.004 68.8128L459.343 65.6867C459.136 65.7261 458.692 65.8247 458.298 65.8247C457.459 65.8247 456.878 65.5092 456.878 64.3455V57.0085H459.728V53.8528Z" fill="url(#paint22_linear)"/>
<path d="M466.991 60.2431C467 58.2905 468.194 57.1466 469.91 57.1466C471.616 57.1466 472.622 58.2412 472.612 60.105V69.0002H476.813V59.3556C476.823 55.8054 474.732 53.6556 471.576 53.6556C469.278 53.6556 467.74 54.7404 467.05 56.5253H466.872V48.8037H462.79V69.0002H466.991V60.2431Z" fill="url(#paint23_linear)"/>
<path d="M487.022 69.296C490.769 69.296 493.294 67.4716 493.885 64.6611L490 64.4047C489.576 65.5585 488.491 66.16 487.091 66.16C484.99 66.16 483.659 64.7695 483.659 62.5113V62.5014H493.974V61.3476C493.974 56.1999 490.858 53.6556 486.854 53.6556C482.397 53.6556 479.507 56.8211 479.507 61.4955C479.507 66.2981 482.357 69.296 487.022 69.296ZM483.659 59.8979C483.748 58.1722 485.059 56.7916 486.923 56.7916C488.748 56.7916 490.01 58.0933 490.02 59.8979H483.659Z" fill="url(#paint24_linear)"/>
<path d="M511.289 53.8528H508.281V52.8371C508.281 51.8115 508.695 51.2099 509.928 51.2099C510.431 51.2099 510.943 51.3184 511.279 51.4269L512.018 48.2712C511.496 48.1134 510.342 47.857 509.05 47.857C506.2 47.857 504.08 49.4644 504.08 52.7582V53.8528H501.94V57.0085H504.08V69.0002H508.281V57.0085H511.289V53.8528Z" fill="url(#paint25_linear)"/>
<path d="M513.855 69.0002H518.056V53.8528H513.855V69.0002ZM515.966 51.9002C517.218 51.9002 518.244 50.9437 518.244 49.7701C518.244 48.6065 517.218 47.6499 515.966 47.6499C514.723 47.6499 513.697 48.6065 513.697 49.7701C513.697 50.9437 514.723 51.9002 515.966 51.9002Z" fill="url(#paint26_linear)"/>
<path d="M525.622 48.8037H521.421V69.0002H525.622V48.8037Z" fill="url(#paint27_linear)"/>
<path d="M537.045 53.8528H534.195V50.2238H529.994V53.8528H527.923V57.0085H529.994V64.8977C529.974 67.8661 531.995 69.3354 535.043 69.2072C536.127 69.1678 536.897 68.9508 537.321 68.8128L536.66 65.6867C536.453 65.7261 536.009 65.8247 535.615 65.8247C534.776 65.8247 534.195 65.5092 534.195 64.3455V57.0085H537.045V53.8528Z" fill="url(#paint28_linear)"/>
<path d="M546.522 69.296C550.269 69.296 552.793 67.4716 553.385 64.6611L549.5 64.4047C549.076 65.5585 547.991 66.16 546.591 66.16C544.49 66.16 543.159 64.7695 543.159 62.5113V62.5014H553.474V61.3476C553.474 56.1999 550.358 53.6556 546.354 53.6556C541.896 53.6556 539.007 56.8211 539.007 61.4955C539.007 66.2981 541.857 69.296 546.522 69.296ZM543.159 59.8979C543.247 58.1722 544.559 56.7916 546.423 56.7916C548.247 56.7916 549.51 58.0933 549.519 59.8979H543.159Z" fill="url(#paint29_linear)"/>
<path d="M556.215 69.0002H560.416V60.4305C560.416 58.5666 561.777 57.2846 563.631 57.2846C564.213 57.2846 565.012 57.3832 565.406 57.5114V53.7838C565.032 53.695 564.509 53.6359 564.085 53.6359C562.389 53.6359 560.998 54.622 560.446 56.4957H560.288V53.8528H556.215V69.0002Z" fill="url(#paint30_linear)"/>
<path d="M578.325 69.2861C580.564 69.2861 582.013 68.3098 582.753 66.8996H582.871V69.0002H586.855V58.7836C586.855 55.1743 583.798 53.6556 580.426 53.6556C576.796 53.6556 574.41 55.3912 573.828 58.1524L577.714 58.468C578 57.4621 578.897 56.7225 580.406 56.7225C581.836 56.7225 582.654 57.4424 582.654 58.685V58.7441C582.654 59.7204 581.619 59.8486 578.986 60.105C575.988 60.3812 573.296 61.387 573.296 64.7695C573.296 67.7675 575.436 69.2861 578.325 69.2861ZM579.528 66.3868C578.236 66.3868 577.309 65.7853 577.309 64.6315C577.309 63.4481 578.286 62.8663 579.765 62.6592C580.682 62.531 582.181 62.314 582.684 61.9787V63.5862C582.684 65.1739 581.372 66.3868 579.528 66.3868Z" fill="url(#paint31_linear)"/>
<path d="M594.315 60.2431C594.325 58.2905 595.489 57.1466 597.185 57.1466C598.872 57.1466 599.887 58.2511 599.877 60.105V69.0002H604.078V59.3556C604.078 55.8251 602.008 53.6556 598.852 53.6556C596.603 53.6556 594.976 54.7601 594.296 56.5253H594.118V53.8528H590.114V69.0002H594.315V60.2431Z" fill="url(#paint32_linear)"/>
<path d="M612.971 69.2467C615.417 69.2467 616.689 67.8365 617.271 66.5742H617.448V69.0002H621.59V48.8037H617.399V56.3971H617.271C616.709 55.1644 615.496 53.6556 612.961 53.6556C609.638 53.6556 606.827 56.2393 606.827 61.4462C606.827 66.515 609.52 69.2467 612.971 69.2467ZM614.302 65.9036C612.241 65.9036 611.117 64.0694 611.117 61.4265C611.117 58.8033 612.222 56.9986 614.302 56.9986C616.344 56.9986 617.488 58.7244 617.488 61.4265C617.488 64.1285 616.324 65.9036 614.302 65.9036Z" fill="url(#paint33_linear)"/>
<path d="M635.791 69.2861C638.029 69.2861 639.479 68.3098 640.219 66.8996H640.337V69.0002H644.321V58.7836C644.321 55.1743 641.264 53.6556 637.891 53.6556C634.262 53.6556 631.876 55.3912 631.294 58.1524L635.179 58.468C635.465 57.4621 636.363 56.7225 637.872 56.7225C639.301 56.7225 640.12 57.4424 640.12 58.685V58.7441C640.12 59.7204 639.085 59.8486 636.451 60.105C633.454 60.3812 630.761 61.387 630.761 64.7695C630.761 67.7675 632.901 69.2861 635.791 69.2861ZM636.994 66.3868C635.702 66.3868 634.775 65.7853 634.775 64.6315C634.775 63.4481 635.751 62.8663 637.231 62.6592C638.148 62.531 639.647 62.314 640.15 61.9787V63.5862C640.15 65.1739 638.838 66.3868 636.994 66.3868Z" fill="url(#paint34_linear)"/>
<path d="M103.822 91.8528H100.814V90.8371C100.814 89.8115 101.228 89.2099 102.461 89.2099C102.964 89.2099 103.477 89.3184 103.812 89.4269L104.552 86.2712C104.029 86.1134 102.875 85.857 101.583 85.857C98.7333 85.857 96.6131 87.4644 96.6131 90.7582V91.8528H94.4731V95.0085H96.6131V107H100.814V95.0085H103.822V91.8528Z" fill="url(#paint35_linear)"/>
<path d="M112.749 107.296C116.496 107.296 119.021 105.472 119.613 102.661L115.727 102.405C115.303 103.558 114.218 104.16 112.818 104.16C110.718 104.16 109.386 102.77 109.386 100.511V100.501H119.701V99.3476C119.701 94.1999 116.585 91.6556 112.581 91.6556C108.124 91.6556 105.235 94.8211 105.235 99.4955C105.235 104.298 108.085 107.296 112.749 107.296ZM109.386 97.8979C109.475 96.1722 110.787 94.7916 112.65 94.7916C114.475 94.7916 115.737 96.0933 115.747 97.8979H109.386Z" fill="url(#paint36_linear)"/>
<path d="M125.323 107H129.76L132.364 97.4739H132.551L135.154 107H139.602L143.714 91.8528H139.474L137.166 101.971H137.038L134.553 91.8528H130.382L127.936 102.03H127.798L125.451 91.8528H121.2L125.323 107Z" fill="url(#paint37_linear)"/>
<path d="M157.964 107.247C160.41 107.247 161.682 105.836 162.264 104.574H162.441V107H166.583V86.8037H162.392V94.3971H162.264C161.702 93.1644 160.489 91.6556 157.954 91.6556C154.631 91.6556 151.82 94.2393 151.82 99.4462C151.82 104.515 154.513 107.247 157.964 107.247ZM159.296 103.904C157.234 103.904 156.11 102.069 156.11 99.4265C156.11 96.8033 157.215 94.9986 159.296 94.9986C161.337 94.9986 162.481 96.7244 162.481 99.4265C162.481 102.129 161.317 103.904 159.296 103.904Z" fill="url(#paint38_linear)"/>
<path d="M174.357 107.286C176.595 107.286 178.045 106.31 178.784 104.9H178.903V107H182.887V96.7836C182.887 93.1743 179.83 91.6556 176.457 91.6556C172.828 91.6556 170.442 93.3912 169.86 96.1525L173.745 96.468C174.031 95.4621 174.929 94.7225 176.437 94.7225C177.867 94.7225 178.686 95.4424 178.686 96.685V96.7441C178.686 97.7204 177.65 97.8486 175.017 98.105C172.019 98.3812 169.327 99.387 169.327 102.77C169.327 105.767 171.467 107.286 174.357 107.286ZM175.56 104.387C174.268 104.387 173.341 103.785 173.341 102.631C173.341 101.448 174.317 100.866 175.796 100.659C176.714 100.531 178.212 100.314 178.715 99.9787V101.586C178.715 103.174 177.404 104.387 175.56 104.387Z" fill="url(#paint39_linear)"/>
<path d="M188.197 112.68C191.323 112.68 192.98 111.083 193.838 108.637L199.725 91.8725L195.278 91.8528L192.112 102.977H191.955L188.819 91.8528H184.401L189.834 107.434L189.588 108.075C189.036 109.495 187.98 109.564 186.501 109.111L185.554 112.246C186.156 112.503 187.132 112.68 188.197 112.68Z" fill="url(#paint40_linear)"/>
<path d="M214.478 96.1722C214.104 93.3814 211.855 91.6556 208.029 91.6556C204.153 91.6556 201.599 93.4504 201.609 96.3694C201.599 98.6376 203.029 100.107 205.988 100.699L208.611 101.221C209.932 101.488 210.534 101.971 210.553 102.73C210.534 103.628 209.557 104.269 208.088 104.269C206.589 104.269 205.593 103.628 205.337 102.395L201.205 102.612C201.599 105.511 204.065 107.296 208.078 107.296C212.003 107.296 214.814 105.294 214.823 102.306C214.814 100.117 213.384 98.8052 210.445 98.2037L207.703 97.6514C206.293 97.3457 205.771 96.8625 205.78 96.1327C205.771 95.2255 206.796 94.6338 208.098 94.6338C209.557 94.6338 210.425 95.4326 210.632 96.4089L214.478 96.1722Z" fill="url(#paint41_linear)"/>
<path d="M228.097 86.8037H223.896V107H228.097V86.8037Z" fill="url(#paint42_linear)"/>
<path d="M235.782 107.286C238.02 107.286 239.47 106.31 240.21 104.9H240.328V107H244.312V96.7836C244.312 93.1743 241.255 91.6556 237.882 91.6556C234.253 91.6556 231.867 93.3912 231.285 96.1525L235.17 96.468C235.456 95.4621 236.354 94.7225 237.862 94.7225C239.292 94.7225 240.111 95.4424 240.111 96.685V96.7441C240.111 97.7204 239.075 97.8486 236.442 98.105C233.445 98.3812 230.752 99.387 230.752 102.77C230.752 105.767 232.892 107.286 235.782 107.286ZM236.985 104.387C235.693 104.387 234.766 103.785 234.766 102.631C234.766 101.448 235.742 100.866 237.221 100.659C238.139 100.531 239.638 100.314 240.141 99.9787V101.586C240.141 103.174 238.829 104.387 236.985 104.387Z" fill="url(#paint43_linear)"/>
<path d="M255.628 91.8528H252.778V88.2238H248.577V91.8528H246.506V95.0085H248.577V102.898C248.557 105.866 250.579 107.335 253.626 107.207C254.711 107.168 255.48 106.951 255.904 106.813L255.243 103.687C255.036 103.726 254.593 103.825 254.198 103.825C253.36 103.825 252.778 103.509 252.778 102.346V95.0085H255.628V91.8528Z" fill="url(#paint44_linear)"/>
<path d="M265.105 107.296C268.852 107.296 271.377 105.472 271.969 102.661L268.083 102.405C267.659 103.558 266.574 104.16 265.174 104.16C263.074 104.16 261.742 102.77 261.742 100.511V100.501H272.057V99.3476C272.057 94.1999 268.941 91.6556 264.937 91.6556C260.48 91.6556 257.591 94.8211 257.591 99.4955C257.591 104.298 260.44 107.296 265.105 107.296ZM261.742 97.8979C261.831 96.1722 263.143 94.7916 265.006 94.7916C266.831 94.7916 268.093 96.0933 268.103 97.8979H261.742Z" fill="url(#paint45_linear)"/>
<path d="M274.799 107H279V98.4305C279 96.5666 280.361 95.2846 282.215 95.2846C282.797 95.2846 283.595 95.3833 283.99 95.5115V91.7838C283.615 91.695 283.092 91.6359 282.668 91.6359C280.972 91.6359 279.582 92.622 279.03 94.4957H278.872V91.8528H274.799V107Z" fill="url(#paint46_linear)"/>
<path d="M288.992 104.239H285.521L285.472 105.343C285.353 108.026 284.584 110.777 284.298 111.931H287.02C287.493 110.738 288.617 107.937 288.884 105.324L288.992 104.239Z" fill="url(#paint47_linear)"/>
<path d="M302.66 86.8037H298.39V107H302.66V86.8037Z" fill="url(#paint48_linear)"/>
<path d="M319.346 112.996C323.675 112.996 326.752 111.024 326.752 107.148V91.8528H322.581V94.3971H322.423C321.861 93.1644 320.628 91.6556 318.094 91.6556C314.77 91.6556 311.96 94.2393 311.96 99.3969C311.96 104.436 314.691 106.783 318.103 106.783C320.52 106.783 321.871 105.57 322.423 104.318H322.6V107.089C322.6 109.17 321.269 109.978 319.445 109.978C317.591 109.978 316.654 109.17 316.309 108.253L312.423 108.775C312.926 111.162 315.263 112.996 319.346 112.996ZM319.435 103.628C317.374 103.628 316.249 101.99 316.249 99.3772C316.249 96.8033 317.354 94.9986 319.435 94.9986C321.476 94.9986 322.62 96.7244 322.62 99.3772C322.62 102.05 321.456 103.628 319.435 103.628Z" fill="url(#paint49_linear)"/>
<path d="M336.939 107.296C341.534 107.296 344.394 104.15 344.394 99.4857C344.394 94.7916 341.534 91.6556 336.939 91.6556C332.343 91.6556 329.484 94.7916 329.484 99.4857C329.484 104.15 332.343 107.296 336.939 107.296ZM336.959 104.042C334.838 104.042 333.754 102.099 333.754 99.4561C333.754 96.8132 334.838 94.8606 336.959 94.8606C339.039 94.8606 340.124 96.8132 340.124 99.4561C340.124 102.099 339.039 104.042 336.959 104.042Z" fill="url(#paint50_linear)"/>
<path d="M355.183 91.8528H352.333V88.2238H348.132V91.8528H346.061V95.0085H348.132V102.898C348.112 105.866 350.134 107.335 353.181 107.207C354.266 107.168 355.035 106.951 355.459 106.813L354.798 103.687C354.591 103.726 354.147 103.825 353.753 103.825C352.915 103.825 352.333 103.509 352.333 102.346V95.0085H355.183V91.8528Z" fill="url(#paint51_linear)"/>
<path d="M368.666 107.286C370.905 107.286 372.354 106.31 373.094 104.9H373.212V107H377.196V96.7836C377.196 93.1743 374.139 91.6556 370.767 91.6556C367.138 91.6556 364.751 93.3912 364.169 96.1525L368.055 96.468C368.341 95.4621 369.238 94.7225 370.747 94.7225C372.177 94.7225 372.995 95.4424 372.995 96.685V96.7441C372.995 97.7204 371.96 97.8486 369.327 98.105C366.329 98.3812 363.637 99.387 363.637 102.77C363.637 105.767 365.777 107.286 368.666 107.286ZM369.869 104.387C368.577 104.387 367.65 103.785 367.65 102.631C367.65 101.448 368.627 100.866 370.106 100.659C371.023 100.531 372.522 100.314 373.025 99.9787V101.586C373.025 103.174 371.713 104.387 369.869 104.387Z" fill="url(#paint52_linear)"/>
<path d="M384.657 98.2431C384.666 96.2905 385.83 95.1466 387.526 95.1466C389.213 95.1466 390.228 96.2511 390.218 98.105V107H394.419V97.3556C394.419 93.8251 392.349 91.6556 389.193 91.6556C386.944 91.6556 385.317 92.7601 384.637 94.5253H384.459V91.8528H380.456V107H384.657V98.2431Z" fill="url(#paint53_linear)"/>
<path d="M411.061 107.296C414.808 107.296 417.333 105.472 417.924 102.661L414.039 102.405C413.615 103.558 412.53 104.16 411.13 104.16C409.029 104.16 407.698 102.77 407.698 100.511V100.501H418.013V99.3476C418.013 94.1999 414.897 91.6556 410.893 91.6556C406.436 91.6556 403.546 94.8211 403.546 99.4955C403.546 104.298 406.396 107.296 411.061 107.296ZM407.698 97.8979C407.787 96.1722 409.098 94.7916 410.962 94.7916C412.787 94.7916 414.049 96.0933 414.059 97.8979H407.698Z" fill="url(#paint54_linear)"/>
<path d="M420.755 107H424.956V97.9078C424.956 96.2313 426.021 95.117 427.421 95.117C428.802 95.117 429.729 96.0637 429.729 97.5528V107H433.802V97.75C433.802 96.182 434.699 95.117 436.228 95.117C437.569 95.117 438.575 95.9552 438.575 97.6415V107H442.766V96.8132C442.766 93.5293 440.813 91.6556 437.993 91.6556C435.774 91.6556 434.048 92.7897 433.427 94.5253H433.269C432.786 92.7699 431.238 91.6556 429.157 91.6556C427.115 91.6556 425.567 92.7404 424.936 94.5253H424.759V91.8528H420.755V107Z" fill="url(#paint55_linear)"/>
<path d="M450.403 107.286C452.642 107.286 454.092 106.31 454.831 104.9H454.95V107H458.934V96.7836C458.934 93.1743 455.877 91.6556 452.504 91.6556C448.875 91.6556 446.488 93.3912 445.907 96.1525L449.792 96.468C450.078 95.4621 450.975 94.7225 452.484 94.7225C453.914 94.7225 454.733 95.4424 454.733 96.685V96.7441C454.733 97.7204 453.697 97.8486 451.064 98.105C448.066 98.3812 445.374 99.387 445.374 102.77C445.374 105.767 447.514 107.286 450.403 107.286ZM451.607 104.387C450.315 104.387 449.388 103.785 449.388 102.631C449.388 101.448 450.364 100.866 451.843 100.659C452.76 100.531 454.259 100.314 454.762 99.9787V101.586C454.762 103.174 453.451 104.387 451.607 104.387Z" fill="url(#paint56_linear)"/>
<path d="M462.193 107H466.394V91.8528H462.193V107ZM464.303 89.9002C465.556 89.9002 466.581 88.9437 466.581 87.7701C466.581 86.6065 465.556 85.6499 464.303 85.6499C463.061 85.6499 462.035 86.6065 462.035 87.7701C462.035 88.9437 463.061 89.9002 464.303 89.9002Z" fill="url(#paint57_linear)"/>
<path d="M473.96 86.8037H469.759V107H473.96V86.8037Z" fill="url(#paint58_linear)"/>
<path d="M491.898 91.8528H488.891V90.8371C488.891 89.8115 489.305 89.2099 490.538 89.2099C491.04 89.2099 491.553 89.3184 491.889 89.4269L492.628 86.2712C492.105 86.1134 490.952 85.857 489.66 85.857C486.81 85.857 484.69 87.4644 484.69 90.7582V91.8528H482.55V95.0085H484.69V107H488.891V95.0085H491.898V91.8528Z" fill="url(#paint59_linear)"/>
<path d="M494.465 107H498.666V98.4305C498.666 96.5666 500.027 95.2846 501.881 95.2846C502.463 95.2846 503.261 95.3833 503.656 95.5115V91.7838C503.281 91.695 502.758 91.6359 502.334 91.6359C500.638 91.6359 499.248 92.622 498.695 94.4957H498.538V91.8528H494.465V107Z" fill="url(#paint60_linear)"/>
<path d="M511.967 107.296C516.562 107.296 519.422 104.15 519.422 99.4857C519.422 94.7916 516.562 91.6556 511.967 91.6556C507.371 91.6556 504.511 94.7916 504.511 99.4857C504.511 104.15 507.371 107.296 511.967 107.296ZM511.986 104.042C509.866 104.042 508.781 102.099 508.781 99.4561C508.781 96.8132 509.866 94.8606 511.986 94.8606C514.067 94.8606 515.152 96.8132 515.152 99.4561C515.152 102.099 514.067 104.042 511.986 104.042Z" fill="url(#paint61_linear)"/>
<path d="M522.154 107H526.355V97.9078C526.355 96.2313 527.42 95.117 528.82 95.117C530.201 95.117 531.128 96.0637 531.128 97.5528V107H535.2V97.75C535.2 96.182 536.098 95.117 537.626 95.117C538.968 95.117 539.973 95.9552 539.973 97.6415V107H544.165V96.8132C544.165 93.5293 542.212 91.6556 539.392 91.6556C537.173 91.6556 535.447 92.7897 534.826 94.5253H534.668C534.185 92.7699 532.636 91.6556 530.556 91.6556C528.514 91.6556 526.966 92.7404 526.335 94.5253H526.157V91.8528H522.154V107Z" fill="url(#paint62_linear)"/>
<path d="M553.989 107H558.259V101.261L560.36 98.6967L565.892 107H571L563.417 95.8467L570.912 86.8037H565.793L558.525 95.7087H558.259V86.8037H553.989V107Z" fill="url(#paint63_linear)"/>
<path d="M574.538 112.68C577.664 112.68 579.321 111.083 580.179 108.637L586.066 91.8725L581.619 91.8528L578.453 102.977H578.295L575.159 91.8528H570.741L576.175 107.434L575.929 108.075C575.376 109.495 574.321 109.564 572.842 109.111L571.895 112.246C572.497 112.503 573.473 112.68 574.538 112.68Z" fill="url(#paint64_linear)"/>
<path d="M592.417 86.8037H588.216V107H592.417V86.8037Z" fill="url(#paint65_linear)"/>
<path d="M595.782 107H599.983V91.8528H595.782V107ZM597.893 89.9002C599.145 89.9002 600.171 88.9437 600.171 87.7701C600.171 86.6065 599.145 85.6499 597.893 85.6499C596.65 85.6499 595.625 86.6065 595.625 87.7701C595.625 88.9437 596.65 89.9002 597.893 89.9002Z" fill="url(#paint66_linear)"/>
<path d="M610.252 107.296C613.999 107.296 616.524 105.472 617.115 102.661L613.23 102.405C612.806 103.558 611.721 104.16 610.321 104.16C608.22 104.16 606.889 102.77 606.889 100.511V100.501H617.204V99.3476C617.204 94.1999 614.088 91.6556 610.084 91.6556C605.627 91.6556 602.737 94.8211 602.737 99.4955C602.737 104.298 605.587 107.296 610.252 107.296ZM606.889 97.8979C606.978 96.1722 608.289 94.7916 610.153 94.7916C611.978 94.7916 613.24 96.0933 613.25 97.8979H606.889Z" fill="url(#paint67_linear)"/>
<path d="M623.466 86.8037H620.311V88.9535C620.311 90.6201 619.719 91.8331 619.058 92.8784L620.912 93.973C622.303 92.8094 623.466 90.7385 623.466 88.9338V86.8037Z" fill="url(#paint68_linear)"/>
<path d="M636.969 96.1722C636.594 93.3814 634.346 91.6556 630.52 91.6556C626.644 91.6556 624.09 93.4504 624.1 96.3694C624.09 98.6376 625.52 100.107 628.478 100.699L631.102 101.221C632.423 101.488 633.025 101.971 633.044 102.73C633.025 103.628 632.048 104.269 630.579 104.269C629.08 104.269 628.084 103.628 627.828 102.395L623.695 102.612C624.09 105.511 626.555 107.296 630.569 107.296C634.494 107.296 637.304 105.294 637.314 102.306C637.304 100.117 635.875 98.8052 632.936 98.2037L630.194 97.6514C628.784 97.3457 628.261 96.8625 628.271 96.1327C628.261 95.2255 629.287 94.6338 630.589 94.6338C632.048 94.6338 632.916 95.4326 633.123 96.4089L636.969 96.1722Z" fill="url(#paint69_linear)"/>
<path d="M103.733 129.853H100.883V126.224H96.6821V129.853H94.6112V133.009H96.6821V140.898C96.6624 143.866 98.684 145.335 101.731 145.207C102.816 145.168 103.585 144.951 104.009 144.813L103.349 141.687C103.141 141.726 102.698 141.825 102.303 141.825C101.465 141.825 100.883 141.509 100.883 140.346V133.009H103.733V129.853Z" fill="url(#paint70_linear)"/>
<path d="M113.21 145.296C116.957 145.296 119.482 143.472 120.074 140.661L116.188 140.405C115.764 141.558 114.679 142.16 113.279 142.16C111.179 142.16 109.847 140.77 109.847 138.511V138.501H120.162V137.348C120.162 132.2 117.046 129.656 113.042 129.656C108.585 129.656 105.696 132.821 105.696 137.496C105.696 142.298 108.546 145.296 113.21 145.296ZM109.847 135.898C109.936 134.172 111.248 132.792 113.111 132.792C114.936 132.792 116.198 134.093 116.208 135.898H109.847Z" fill="url(#paint71_linear)"/>
<path d="M127.223 145.286C129.462 145.286 130.912 144.31 131.651 142.9H131.77V145H135.754V134.784C135.754 131.174 132.696 129.656 129.324 129.656C125.695 129.656 123.308 131.391 122.726 134.152L126.612 134.468C126.898 133.462 127.795 132.723 129.304 132.723C130.734 132.723 131.553 133.442 131.553 134.685V134.744C131.553 135.72 130.517 135.849 127.884 136.105C124.886 136.381 122.194 137.387 122.194 140.77C122.194 143.767 124.334 145.286 127.223 145.286ZM128.426 142.387C127.135 142.387 126.208 141.785 126.208 140.631C126.208 139.448 127.184 138.866 128.663 138.659C129.58 138.531 131.079 138.314 131.582 137.979V139.586C131.582 141.174 130.271 142.387 128.426 142.387Z" fill="url(#paint72_linear)"/>
<path d="M139.013 145H143.214V135.908C143.214 134.231 144.279 133.117 145.679 133.117C147.06 133.117 147.987 134.064 147.987 135.553V145H152.06V135.75C152.06 134.182 152.957 133.117 154.486 133.117C155.827 133.117 156.833 133.955 156.833 135.642V145H161.024V134.813C161.024 131.529 159.071 129.656 156.251 129.656C154.032 129.656 152.306 130.79 151.685 132.525H151.527C151.044 130.77 149.496 129.656 147.415 129.656C145.374 129.656 143.825 130.74 143.194 132.525H143.017V129.853H139.013V145Z" fill="url(#paint73_linear)"/>
<path d="M166.798 145.257C168.06 145.257 169.155 144.201 169.164 142.89C169.155 141.598 168.06 140.543 166.798 140.543C165.496 140.543 164.421 141.598 164.431 142.89C164.421 144.201 165.496 145.257 166.798 145.257Z" fill="url(#paint74_linear)"/>
<defs>
<linearGradient id="paint0_linear" x1="229.603" y1="0.699976" x2="145.98" y2="227.045" gradientUnits="userSpaceOnUse">
<stop/>
<stop offset="1" stop-color="#FFE2AF"/>
</linearGradient>
<linearGradient id="paint1_linear" x1="229.603" y1="0.699976" x2="145.98" y2="227.045" gradientUnits="userSpaceOnUse">
<stop/>
<stop offset="1" stop-color="#FFE2AF"/>
</linearGradient>
<linearGradient id="paint2_linear" x1="229.603" y1="0.699976" x2="145.98" y2="227.045" gradientUnits="userSpaceOnUse">
<stop/>
<stop offset="1" stop-color="#FFE2AF"/>
</linearGradient>
<linearGradient id="paint3_linear" x1="229.603" y1="0.699976" x2="145.98" y2="227.045" gradientUnits="userSpaceOnUse">
<stop/>
<stop offset="1" stop-color="#FFE2AF"/>
</linearGradient>
<linearGradient id="paint4_linear" x1="229.603" y1="0.699976" x2="145.98" y2="227.045" gradientUnits="userSpaceOnUse">
<stop/>
<stop offset="1" stop-color="#FFE2AF"/>
</linearGradient>
<linearGradient id="paint5_linear" x1="229.603" y1="0.699976" x2="145.98" y2="227.045" gradientUnits="userSpaceOnUse">
<stop/>
<stop offset="1" stop-color="#FFE2AF"/>
</linearGradient>
<linearGradient id="paint6_linear" x1="229.603" y1="0.699976" x2="145.98" y2="227.045" gradientUnits="userSpaceOnUse">
<stop/>
<stop offset="1" stop-color="#FFE2AF"/>
</linearGradient>
<linearGradient id="paint7_linear" x1="229.603" y1="0.699976" x2="145.98" y2="227.045" gradientUnits="userSpaceOnUse">
<stop/>
<stop offset="1" stop-color="#FFE2AF"/>
</linearGradient>
<linearGradient id="paint8_linear" x1="229.603" y1="0.699976" x2="145.98" y2="227.045" gradientUnits="userSpaceOnUse">
<stop/>
<stop offset="1" stop-color="#FFE2AF"/>
</linearGradient>
<linearGradient id="paint9_linear" x1="229.603" y1="0.699976" x2="145.98" y2="227.045" gradientUnits="userSpaceOnUse">
<stop/>
<stop offset="1" stop-color="#FFE2AF"/>
</linearGradient>
<linearGradient id="paint10_linear" x1="229.603" y1="0.699976" x2="145.98" y2="227.045" gradientUnits="userSpaceOnUse">
<stop/>
<stop offset="1" stop-color="#FFE2AF"/>
</linearGradient>
<linearGradient id="paint11_linear" x1="229.603" y1="0.699976" x2="145.98" y2="227.045" gradientUnits="userSpaceOnUse">
<stop/>
<stop offset="1" stop-color="#FFE2AF"/>
</linearGradient>
<linearGradient id="paint12_linear" x1="229.603" y1="0.699976" x2="145.98" y2="227.045" gradientUnits="userSpaceOnUse">
<stop/>
<stop offset="1" stop-color="#FFE2AF"/>
</linearGradient>
<linearGradient id="paint13_linear" x1="229.603" y1="0.699976" x2="145.98" y2="227.045" gradientUnits="userSpaceOnUse">
<stop/>
<stop offset="1" stop-color="#FFE2AF"/>
</linearGradient>
<linearGradient id="paint14_linear" x1="229.603" y1="0.699976" x2="145.98" y2="227.045" gradientUnits="userSpaceOnUse">
<stop/>
<stop offset="1" stop-color="#FFE2AF"/>
</linearGradient>
<linearGradient id="paint15_linear" x1="229.603" y1="0.699976" x2="145.98" y2="227.045" gradientUnits="userSpaceOnUse">
<stop/>
<stop offset="1" stop-color="#FFE2AF"/>
</linearGradient>
<linearGradient id="paint16_linear" x1="229.603" y1="0.699976" x2="145.98" y2="227.045" gradientUnits="userSpaceOnUse">
<stop/>
<stop offset="1" stop-color="#FFE2AF"/>
</linearGradient>
<linearGradient id="paint17_linear" x1="229.603" y1="0.699976" x2="145.98" y2="227.045" gradientUnits="userSpaceOnUse">
<stop/>
<stop offset="1" stop-color="#FFE2AF"/>
</linearGradient>
<linearGradient id="paint18_linear" x1="229.603" y1="0.699976" x2="145.98" y2="227.045" gradientUnits="userSpaceOnUse">
<stop/>
<stop offset="1" stop-color="#FFE2AF"/>
</linearGradient>
<linearGradient id="paint19_linear" x1="229.603" y1="0.699976" x2="145.98" y2="227.045" gradientUnits="userSpaceOnUse">
<stop/>
<stop offset="1" stop-color="#FFE2AF"/>
</linearGradient>
<linearGradient id="paint20_linear" x1="229.603" y1="0.699976" x2="145.98" y2="227.045" gradientUnits="userSpaceOnUse">
<stop/>
<stop offset="1" stop-color="#FFE2AF"/>
</linearGradient>
<linearGradient id="paint21_linear" x1="229.603" y1="0.699976" x2="145.98" y2="227.045" gradientUnits="userSpaceOnUse">
<stop/>
<stop offset="1" stop-color="#FFE2AF"/>
</linearGradient>
<linearGradient id="paint22_linear" x1="229.603" y1="0.699976" x2="145.98" y2="227.045" gradientUnits="userSpaceOnUse">
<stop/>
<stop offset="1" stop-color="#FFE2AF"/>
</linearGradient>
<linearGradient id="paint23_linear" x1="229.603" y1="0.699976" x2="145.98" y2="227.045" gradientUnits="userSpaceOnUse">
<stop/>
<stop offset="1" stop-color="#FFE2AF"/>
</linearGradient>
<linearGradient id="paint24_linear" x1="229.603" y1="0.699976" x2="145.98" y2="227.045" gradientUnits="userSpaceOnUse">
<stop/>
<stop offset="1" stop-color="#FFE2AF"/>
</linearGradient>
<linearGradient id="paint25_linear" x1="229.603" y1="0.699976" x2="145.98" y2="227.045" gradientUnits="userSpaceOnUse">
<stop/>
<stop offset="1" stop-color="#FFE2AF"/>
</linearGradient>
<linearGradient id="paint26_linear" x1="229.603" y1="0.699976" x2="145.98" y2="227.045" gradientUnits="userSpaceOnUse">
<stop/>
<stop offset="1" stop-color="#FFE2AF"/>
</linearGradient>
<linearGradient id="paint27_linear" x1="229.603" y1="0.699976" x2="145.98" y2="227.045" gradientUnits="userSpaceOnUse">
<stop/>
<stop offset="1" stop-color="#FFE2AF"/>
</linearGradient>
<linearGradient id="paint28_linear" x1="229.603" y1="0.699976" x2="145.98" y2="227.045" gradientUnits="userSpaceOnUse">
<stop/>
<stop offset="1" stop-color="#FFE2AF"/>
</linearGradient>
<linearGradient id="paint29_linear" x1="229.603" y1="0.699976" x2="145.98" y2="227.045" gradientUnits="userSpaceOnUse">
<stop/>
<stop offset="1" stop-color="#FFE2AF"/>
</linearGradient>
<linearGradient id="paint30_linear" x1="229.603" y1="0.699976" x2="145.98" y2="227.045" gradientUnits="userSpaceOnUse">
<stop/>
<stop offset="1" stop-color="#FFE2AF"/>
</linearGradient>
<linearGradient id="paint31_linear" x1="229.603" y1="0.699976" x2="145.98" y2="227.045" gradientUnits="userSpaceOnUse">
<stop/>
<stop offset="1" stop-color="#FFE2AF"/>
</linearGradient>
<linearGradient id="paint32_linear" x1="229.603" y1="0.699976" x2="145.98" y2="227.045" gradientUnits="userSpaceOnUse">
<stop/>
<stop offset="1" stop-color="#FFE2AF"/>
</linearGradient>
<linearGradient id="paint33_linear" x1="229.603" y1="0.699976" x2="145.98" y2="227.045" gradientUnits="userSpaceOnUse">
<stop/>
<stop offset="1" stop-color="#FFE2AF"/>
</linearGradient>
<linearGradient id="paint34_linear" x1="229.603" y1="0.699976" x2="145.98" y2="227.045" gradientUnits="userSpaceOnUse">
<stop/>
<stop offset="1" stop-color="#FFE2AF"/>
</linearGradient>
<linearGradient id="paint35_linear" x1="229.603" y1="0.699976" x2="145.98" y2="227.045" gradientUnits="userSpaceOnUse">
<stop/>
<stop offset="1" stop-color="#FFE2AF"/>
</linearGradient>
<linearGradient id="paint36_linear" x1="229.603" y1="0.699976" x2="145.98" y2="227.045" gradientUnits="userSpaceOnUse">
<stop/>
<stop offset="1" stop-color="#FFE2AF"/>
</linearGradient>
<linearGradient id="paint37_linear" x1="229.603" y1="0.699976" x2="145.98" y2="227.045" gradientUnits="userSpaceOnUse">
<stop/>
<stop offset="1" stop-color="#FFE2AF"/>
</linearGradient>
<linearGradient id="paint38_linear" x1="229.603" y1="0.699976" x2="145.98" y2="227.045" gradientUnits="userSpaceOnUse">
<stop/>
<stop offset="1" stop-color="#FFE2AF"/>
</linearGradient>
<linearGradient id="paint39_linear" x1="229.603" y1="0.699976" x2="145.98" y2="227.045" gradientUnits="userSpaceOnUse">
<stop/>
<stop offset="1" stop-color="#FFE2AF"/>
</linearGradient>
<linearGradient id="paint40_linear" x1="229.603" y1="0.699976" x2="145.98" y2="227.045" gradientUnits="userSpaceOnUse">
<stop/>
<stop offset="1" stop-color="#FFE2AF"/>
</linearGradient>
<linearGradient id="paint41_linear" x1="229.603" y1="0.699976" x2="145.98" y2="227.045" gradientUnits="userSpaceOnUse">
<stop/>
<stop offset="1" stop-color="#FFE2AF"/>
</linearGradient>
<linearGradient id="paint42_linear" x1="229.603" y1="0.699976" x2="145.98" y2="227.045" gradientUnits="userSpaceOnUse">
<stop/>
<stop offset="1" stop-color="#FFE2AF"/>
</linearGradient>
<linearGradient id="paint43_linear" x1="229.603" y1="0.699976" x2="145.98" y2="227.045" gradientUnits="userSpaceOnUse">
<stop/>
<stop offset="1" stop-color="#FFE2AF"/>
</linearGradient>
<linearGradient id="paint44_linear" x1="229.603" y1="0.699976" x2="145.98" y2="227.045" gradientUnits="userSpaceOnUse">
<stop/>
<stop offset="1" stop-color="#FFE2AF"/>
</linearGradient>
<linearGradient id="paint45_linear" x1="229.603" y1="0.699976" x2="145.98" y2="227.045" gradientUnits="userSpaceOnUse">
<stop/>
<stop offset="1" stop-color="#FFE2AF"/>
</linearGradient>
<linearGradient id="paint46_linear" x1="229.603" y1="0.699976" x2="145.98" y2="227.045" gradientUnits="userSpaceOnUse">
<stop/>
<stop offset="1" stop-color="#FFE2AF"/>
</linearGradient>
<linearGradient id="paint47_linear" x1="229.603" y1="0.699976" x2="145.98" y2="227.045" gradientUnits="userSpaceOnUse">
<stop/>
<stop offset="1" stop-color="#FFE2AF"/>
</linearGradient>
<linearGradient id="paint48_linear" x1="229.603" y1="0.699976" x2="145.98" y2="227.045" gradientUnits="userSpaceOnUse">
<stop/>
<stop offset="1" stop-color="#FFE2AF"/>
</linearGradient>
<linearGradient id="paint49_linear" x1="229.603" y1="0.699976" x2="145.98" y2="227.045" gradientUnits="userSpaceOnUse">
<stop/>
<stop offset="1" stop-color="#FFE2AF"/>
</linearGradient>
<linearGradient id="paint50_linear" x1="229.603" y1="0.699976" x2="145.98" y2="227.045" gradientUnits="userSpaceOnUse">
<stop/>
<stop offset="1" stop-color="#FFE2AF"/>
</linearGradient>
<linearGradient id="paint51_linear" x1="229.603" y1="0.699976" x2="145.98" y2="227.045" gradientUnits="userSpaceOnUse">
<stop/>
<stop offset="1" stop-color="#FFE2AF"/>
</linearGradient>
<linearGradient id="paint52_linear" x1="229.603" y1="0.699976" x2="145.98" y2="227.045" gradientUnits="userSpaceOnUse">
<stop/>
<stop offset="1" stop-color="#FFE2AF"/>
</linearGradient>
<linearGradient id="paint53_linear" x1="229.603" y1="0.699976" x2="145.98" y2="227.045" gradientUnits="userSpaceOnUse">
<stop/>
<stop offset="1" stop-color="#FFE2AF"/>
</linearGradient>
<linearGradient id="paint54_linear" x1="229.603" y1="0.699976" x2="145.98" y2="227.045" gradientUnits="userSpaceOnUse">
<stop/>
<stop offset="1" stop-color="#FFE2AF"/>
</linearGradient>
<linearGradient id="paint55_linear" x1="229.603" y1="0.699976" x2="145.98" y2="227.045" gradientUnits="userSpaceOnUse">
<stop/>
<stop offset="1" stop-color="#FFE2AF"/>
</linearGradient>
<linearGradient id="paint56_linear" x1="229.603" y1="0.699976" x2="145.98" y2="227.045" gradientUnits="userSpaceOnUse">
<stop/>
<stop offset="1" stop-color="#FFE2AF"/>
</linearGradient>
<linearGradient id="paint57_linear" x1="229.603" y1="0.699976" x2="145.98" y2="227.045" gradientUnits="userSpaceOnUse">
<stop/>
<stop offset="1" stop-color="#FFE2AF"/>
</linearGradient>
<linearGradient id="paint58_linear" x1="229.603" y1="0.699976" x2="145.98" y2="227.045" gradientUnits="userSpaceOnUse">
<stop/>
<stop offset="1" stop-color="#FFE2AF"/>
</linearGradient>
<linearGradient id="paint59_linear" x1="229.603" y1="0.699976" x2="145.98" y2="227.045" gradientUnits="userSpaceOnUse">
<stop/>
<stop offset="1" stop-color="#FFE2AF"/>
</linearGradient>
<linearGradient id="paint60_linear" x1="229.603" y1="0.699976" x2="145.98" y2="227.045" gradientUnits="userSpaceOnUse">
<stop/>
<stop offset="1" stop-color="#FFE2AF"/>
</linearGradient>
<linearGradient id="paint61_linear" x1="229.603" y1="0.699976" x2="145.98" y2="227.045" gradientUnits="userSpaceOnUse">
<stop/>
<stop offset="1" stop-color="#FFE2AF"/>
</linearGradient>
<linearGradient id="paint62_linear" x1="229.603" y1="0.699976" x2="145.98" y2="227.045" gradientUnits="userSpaceOnUse">
<stop/>
<stop offset="1" stop-color="#FFE2AF"/>
</linearGradient>
<linearGradient id="paint63_linear" x1="229.603" y1="0.699976" x2="145.98" y2="227.045" gradientUnits="userSpaceOnUse">
<stop/>
<stop offset="1" stop-color="#FFE2AF"/>
</linearGradient>
<linearGradient id="paint64_linear" x1="229.603" y1="0.699976" x2="145.98" y2="227.045" gradientUnits="userSpaceOnUse">
<stop/>
<stop offset="1" stop-color="#FFE2AF"/>
</linearGradient>
<linearGradient id="paint65_linear" x1="229.603" y1="0.699976" x2="145.98" y2="227.045" gradientUnits="userSpaceOnUse">
<stop/>
<stop offset="1" stop-color="#FFE2AF"/>
</linearGradient>
<linearGradient id="paint66_linear" x1="229.603" y1="0.699976" x2="145.98" y2="227.045" gradientUnits="userSpaceOnUse">
<stop/>
<stop offset="1" stop-color="#FFE2AF"/>
</linearGradient>
<linearGradient id="paint67_linear" x1="229.603" y1="0.699976" x2="145.98" y2="227.045" gradientUnits="userSpaceOnUse">
<stop/>
<stop offset="1" stop-color="#FFE2AF"/>
</linearGradient>
<linearGradient id="paint68_linear" x1="229.603" y1="0.699976" x2="145.98" y2="227.045" gradientUnits="userSpaceOnUse">
<stop/>
<stop offset="1" stop-color="#FFE2AF"/>
</linearGradient>
<linearGradient id="paint69_linear" x1="229.603" y1="0.699976" x2="145.98" y2="227.045" gradientUnits="userSpaceOnUse">
<stop/>
<stop offset="1" stop-color="#FFE2AF"/>
</linearGradient>
<linearGradient id="paint70_linear" x1="229.603" y1="0.699976" x2="145.98" y2="227.045" gradientUnits="userSpaceOnUse">
<stop/>
<stop offset="1" stop-color="#FFE2AF"/>
</linearGradient>
<linearGradient id="paint71_linear" x1="229.603" y1="0.699976" x2="145.98" y2="227.045" gradientUnits="userSpaceOnUse">
<stop/>
<stop offset="1" stop-color="#FFE2AF"/>
</linearGradient>
<linearGradient id="paint72_linear" x1="229.603" y1="0.699976" x2="145.98" y2="227.045" gradientUnits="userSpaceOnUse">
<stop/>
<stop offset="1" stop-color="#FFE2AF"/>
</linearGradient>
<linearGradient id="paint73_linear" x1="229.603" y1="0.699976" x2="145.98" y2="227.045" gradientUnits="userSpaceOnUse">
<stop/>
<stop offset="1" stop-color="#FFE2AF"/>
</linearGradient>
<linearGradient id="paint74_linear" x1="229.603" y1="0.699976" x2="145.98" y2="227.045" gradientUnits="userSpaceOnUse">
<stop/>
<stop offset="1" stop-color="#FFE2AF"/>
</linearGradient>
</defs>
</svg>
