<svg width="629" height="151" viewBox="0 0 629 151" fill="none" xmlns="http://www.w3.org/2000/svg">
<path d="M32.2356 107C23.2586 107 15.6418 103.881 9.38506 97.6426C3.12835 91.4043 0 81.3688 0 67.5361C0 50.1774 4.89655 35.2598 14.6897 22.7833C24.4828 10.0355 37.9483 2.44107 55.0862 0L56.7184 13.019C50.1897 13.8327 43.6609 16.4094 37.1322 20.749C30.8755 24.8175 27.7471 29.8352 27.7471 35.8023C27.7471 38.7858 28.4272 40.82 29.7874 41.905C31.4195 42.9899 33.8678 44.0748 37.1322 45.1597C54.5421 50.0418 63.2471 60.0773 63.2471 75.2661C63.2471 84.2167 60.3908 91.8111 54.6782 98.0494C49.2375 104.016 41.7567 107 32.2356 107ZM110.989 107C102.011 107 94.3946 103.881 88.1379 97.6426C81.8812 91.1331 78.7529 80.962 78.7529 67.1293C78.7529 50.0418 83.6494 35.2598 93.4425 22.7833C103.236 10.0355 116.701 2.44107 133.839 0L135.471 12.6122C128.671 13.6971 122.142 16.2738 115.885 20.3422C109.628 24.4106 106.5 29.4284 106.5 35.3954C106.5 38.379 107.18 40.4132 108.54 41.4981C110.172 42.583 112.621 43.6679 115.885 44.7529C133.295 49.635 142 59.8061 142 75.2661C142 84.2167 139.144 91.8111 133.431 98.0494C127.99 104.016 120.51 107 110.989 107Z" fill="#FEF5E1"/>
<path d="M113.575 55.8744C113.013 51.2099 109.483 48.5276 104.808 48.5276C99.4731 48.5276 95.4002 52.2947 95.4002 58.9019C95.4002 65.4894 99.404 69.2763 104.808 69.2763C109.985 69.2763 113.112 65.8346 113.575 62.1168L109.256 62.0971C108.851 64.2567 107.155 65.4993 104.877 65.4993C101.81 65.4993 99.7295 63.2213 99.7295 58.9019C99.7295 54.7009 101.781 52.3046 104.907 52.3046C107.244 52.3046 108.93 53.6556 109.256 55.8744H113.575Z" fill="url(#paint0_linear)"/>
<path d="M120.759 60.2431C120.769 58.2905 121.962 57.1466 123.678 57.1466C125.384 57.1466 126.39 58.2412 126.38 60.105V69.0002H130.581V59.3556C130.591 55.8054 128.501 53.6556 125.345 53.6556C123.047 53.6556 121.509 54.7404 120.818 56.5253H120.641V48.8037H116.558V69.0002H120.759V60.2431Z" fill="url(#paint1_linear)"/>
<path d="M138.207 69.2861C140.445 69.2861 141.895 68.3098 142.635 66.8996H142.753V69.0002H146.737V58.7836C146.737 55.1743 143.68 53.6556 140.307 53.6556C136.678 53.6556 134.292 55.3912 133.71 58.1524L137.595 58.468C137.881 57.4621 138.779 56.7225 140.288 56.7225C141.717 56.7225 142.536 57.4424 142.536 58.685V58.7441C142.536 59.7204 141.5 59.8486 138.867 60.105C135.87 60.3812 133.177 61.387 133.177 64.7695C133.177 67.7675 135.317 69.2861 138.207 69.2861ZM139.41 66.3868C138.118 66.3868 137.191 65.7853 137.191 64.6315C137.191 63.4481 138.167 62.8663 139.647 62.6592C140.564 62.531 142.063 62.314 142.566 61.9787V63.5862C142.566 65.1739 141.254 66.3868 139.41 66.3868Z" fill="url(#paint2_linear)"/>
<path d="M154.197 60.2431C154.207 58.2905 155.371 57.1466 157.067 57.1466C158.753 57.1466 159.769 58.2511 159.759 60.105V69.0002H163.96V59.3556C163.96 55.8251 161.889 53.6556 158.734 53.6556C156.485 53.6556 154.858 54.7601 154.178 56.5253H154V53.8528H149.996V69.0002H154.197V60.2431Z" fill="url(#paint3_linear)"/>
<path d="M174.095 74.996C178.425 74.996 181.501 73.0237 181.501 69.1481V53.8528H177.33V56.3971H177.172C176.61 55.1644 175.377 53.6556 172.843 53.6556C169.52 53.6556 166.709 56.2393 166.709 61.3969C166.709 66.4361 169.441 68.7832 172.853 68.7832C175.269 68.7832 176.62 67.5702 177.172 66.3178H177.35V69.0889C177.35 71.1697 176.018 71.9783 174.194 71.9783C172.34 71.9783 171.403 71.1697 171.058 70.2526L167.173 70.7752C167.676 73.1617 170.013 74.996 174.095 74.996ZM174.184 65.6275C172.123 65.6275 170.999 63.9905 170.999 61.3772C170.999 58.8033 172.103 56.9986 174.184 56.9986C176.225 56.9986 177.369 58.7244 177.369 61.3772C177.369 64.0497 176.206 65.6275 174.184 65.6275Z" fill="url(#paint4_linear)"/>
<path d="M184.844 69.0002H189.045V53.8528H184.844V69.0002ZM186.955 51.9002C188.207 51.9002 189.233 50.9437 189.233 49.7701C189.233 48.6065 188.207 47.6499 186.955 47.6499C185.712 47.6499 184.687 48.6065 184.687 49.7701C184.687 50.9437 185.712 51.9002 186.955 51.9002Z" fill="url(#paint5_linear)"/>
<path d="M196.612 60.2431C196.622 58.2905 197.785 57.1466 199.481 57.1466C201.168 57.1466 202.184 58.2511 202.174 60.105V69.0002H206.375V59.3556C206.375 55.8251 204.304 53.6556 201.148 53.6556C198.9 53.6556 197.272 54.7601 196.592 56.5253H196.415V53.8528H192.411V69.0002H196.612V60.2431Z" fill="url(#paint6_linear)"/>
<path d="M216.51 74.996C220.839 74.996 223.916 73.0237 223.916 69.1481V53.8528H219.744V56.3971H219.587C219.025 55.1644 217.792 53.6556 215.257 53.6556C211.934 53.6556 209.124 56.2393 209.124 61.3969C209.124 66.4361 211.855 68.7832 215.267 68.7832C217.683 68.7832 219.034 67.5702 219.587 66.3178H219.764V69.0889C219.764 71.1697 218.433 71.9783 216.608 71.9783C214.755 71.9783 213.818 71.1697 213.473 70.2526L209.587 70.7752C210.09 73.1617 212.427 74.996 216.51 74.996ZM216.599 65.6275C214.538 65.6275 213.413 63.9905 213.413 61.3772C213.413 58.8033 214.518 56.9986 216.599 56.9986C218.64 56.9986 219.784 58.7244 219.784 61.3772C219.784 64.0497 218.62 65.6275 216.599 65.6275Z" fill="url(#paint7_linear)"/>
<path d="M233.686 74.6804H237.887V66.5742H238.015C238.597 67.8365 239.869 69.2467 242.315 69.2467C245.767 69.2467 248.459 66.515 248.459 61.4462C248.459 56.2393 245.648 53.6556 242.325 53.6556C239.791 53.6556 238.578 55.1644 238.015 56.3971H237.828V53.8528H233.686V74.6804ZM237.798 61.4265C237.798 58.7244 238.942 56.9986 240.984 56.9986C243.065 56.9986 244.169 58.8033 244.169 61.4265C244.169 64.0694 243.045 65.9036 240.984 65.9036C238.962 65.9036 237.798 64.1285 237.798 61.4265Z" fill="url(#paint8_linear)"/>
<path d="M258.163 69.296C261.91 69.296 264.435 67.4716 265.026 64.6611L261.141 64.4047C260.717 65.5585 259.632 66.16 258.232 66.16C256.131 66.16 254.8 64.7695 254.8 62.5113V62.5014H265.115V61.3476C265.115 56.1999 261.999 53.6556 257.995 53.6556C253.538 53.6556 250.648 56.8211 250.648 61.4955C250.648 66.2981 253.498 69.296 258.163 69.296ZM254.8 59.8979C254.889 58.1722 256.2 56.7916 258.064 56.7916C259.888 56.7916 261.151 58.0933 261.161 59.8979H254.8Z" fill="url(#paint9_linear)"/>
<path d="M274.7 69.296C279.296 69.296 282.156 66.1502 282.156 61.4857C282.156 56.7916 279.296 53.6556 274.7 53.6556C270.105 53.6556 267.245 56.7916 267.245 61.4857C267.245 66.1502 270.105 69.296 274.7 69.296ZM274.72 66.0417C272.6 66.0417 271.515 64.099 271.515 61.4561C271.515 58.8132 272.6 56.8606 274.72 56.8606C276.801 56.8606 277.886 58.8132 277.886 61.4561C277.886 64.099 276.801 66.0417 274.72 66.0417Z" fill="url(#paint10_linear)"/>
<path d="M284.887 74.6804H289.088V66.5742H289.217C289.798 67.8365 291.071 69.2467 293.516 69.2467C296.968 69.2467 299.66 66.515 299.66 61.4462C299.66 56.2393 296.849 53.6556 293.526 53.6556C290.992 53.6556 289.779 55.1644 289.217 56.3971H289.029V53.8528H284.887V74.6804ZM289 61.4265C289 58.7244 290.144 56.9986 292.185 56.9986C294.266 56.9986 295.37 58.8033 295.37 61.4265C295.37 64.0694 294.246 65.9036 292.185 65.9036C290.163 65.9036 289 64.1285 289 61.4265Z" fill="url(#paint11_linear)"/>
<path d="M306.662 48.8037H302.461V69.0002H306.662V48.8037Z" fill="url(#paint12_linear)"/>
<path d="M316.93 69.296C320.677 69.296 323.202 67.4716 323.794 64.6611L319.908 64.4047C319.484 65.5585 318.399 66.16 316.999 66.16C314.899 66.16 313.567 64.7695 313.567 62.5113V62.5014H323.882V61.3476C323.882 56.1999 320.766 53.6556 316.762 53.6556C312.305 53.6556 309.416 56.8211 309.416 61.4955C309.416 66.2981 312.265 69.296 316.93 69.296ZM313.567 59.8979C313.656 58.1722 314.968 56.7916 316.831 56.7916C318.656 56.7916 319.918 58.0933 319.928 59.8979H313.567Z" fill="url(#paint13_linear)"/>
<path d="M330.144 48.8037H326.989V50.9535C326.989 52.6201 326.397 53.8331 325.736 54.8784L327.59 55.973C328.981 54.8094 330.144 52.7385 330.144 50.9338V48.8037Z" fill="url(#paint14_linear)"/>
<path d="M343.647 58.1722C343.273 55.3814 341.024 53.6556 337.198 53.6556C333.322 53.6556 330.768 55.4504 330.778 58.3694C330.768 60.6376 332.198 62.1069 335.157 62.6986L337.78 63.2213C339.101 63.4875 339.703 63.9708 339.723 64.7301C339.703 65.6275 338.726 66.2685 337.257 66.2685C335.758 66.2685 334.762 65.6275 334.506 64.3948L330.374 64.6118C330.768 67.5111 333.234 69.296 337.247 69.296C341.172 69.296 343.983 67.2941 343.993 64.3061C343.983 62.1168 342.553 60.8052 339.614 60.2037L336.873 59.6514C335.462 59.3457 334.94 58.8625 334.95 58.1327C334.94 57.2255 335.965 56.6338 337.267 56.6338C338.726 56.6338 339.594 57.4326 339.801 58.4089L343.647 58.1722Z" fill="url(#paint15_linear)"/>
<path d="M361.211 53.8528H358.203V52.8371C358.203 51.8115 358.617 51.2099 359.85 51.2099C360.353 51.2099 360.866 51.3184 361.201 51.4269L361.941 48.2712C361.418 48.1134 360.264 47.857 358.972 47.857C356.122 47.857 354.002 49.4644 354.002 52.7582V53.8528H351.862V57.0085H354.002V69.0002H358.203V57.0085H361.211V53.8528Z" fill="url(#paint16_linear)"/>
<path d="M370.138 69.296C373.885 69.296 376.41 67.4716 377.002 64.6611L373.116 64.4047C372.692 65.5585 371.607 66.16 370.207 66.16C368.107 66.16 366.775 64.7695 366.775 62.5113V62.5014H377.09V61.3476C377.09 56.1999 373.974 53.6556 369.97 53.6556C365.513 53.6556 362.624 56.8211 362.624 61.4955C362.624 66.2981 365.474 69.296 370.138 69.296ZM366.775 59.8979C366.864 58.1722 368.176 56.7916 370.039 56.7916C371.864 56.7916 373.126 58.0933 373.136 59.8979H366.775Z" fill="url(#paint17_linear)"/>
<path d="M384.151 69.2861C386.39 69.2861 387.839 68.3098 388.579 66.8996H388.697V69.0002H392.682V58.7836C392.682 55.1743 389.624 53.6556 386.252 53.6556C382.623 53.6556 380.236 55.3912 379.654 58.1524L383.54 58.468C383.826 57.4621 384.723 56.7225 386.232 56.7225C387.662 56.7225 388.48 57.4424 388.48 58.685V58.7441C388.48 59.7204 387.445 59.8486 384.812 60.105C381.814 60.3812 379.122 61.387 379.122 64.7695C379.122 67.7675 381.262 69.2861 384.151 69.2861ZM385.354 66.3868C384.063 66.3868 383.136 65.7853 383.136 64.6315C383.136 63.4481 384.112 62.8663 385.591 62.6592C386.508 62.531 388.007 62.314 388.51 61.9787V63.5862C388.51 65.1739 387.199 66.3868 385.354 66.3868Z" fill="url(#paint18_linear)"/>
<path d="M403.998 53.8528H401.148V50.2238H396.947V53.8528H394.876V57.0085H396.947V64.8977C396.927 67.8661 398.949 69.3354 401.996 69.2072C403.08 69.1678 403.85 68.9508 404.274 68.8128L403.613 65.6867C403.406 65.7261 402.962 65.8247 402.568 65.8247C401.729 65.8247 401.148 65.5092 401.148 64.3455V57.0085H403.998V53.8528Z" fill="url(#paint19_linear)"/>
<path d="M416.448 62.5507C416.458 64.5822 415.067 65.6472 413.558 65.6472C411.971 65.6472 410.945 64.5329 410.935 62.7479V53.8528H406.734V63.4974C406.744 67.0377 408.815 69.1974 411.862 69.1974C414.14 69.1974 415.777 68.0239 416.458 66.2488H416.615V69.0002H420.649V53.8528H416.448V62.5507Z" fill="url(#paint20_linear)"/>
<path d="M424.009 69.0002H428.21V60.4305C428.21 58.5666 429.571 57.2846 431.425 57.2846C432.007 57.2846 432.806 57.3832 433.2 57.5114V53.7838C432.825 53.695 432.303 53.6359 431.879 53.6359C430.183 53.6359 428.792 54.622 428.24 56.4957H428.082V53.8528H424.009V69.0002Z" fill="url(#paint21_linear)"/>
<path d="M441.57 69.296C445.318 69.296 447.842 67.4716 448.434 64.6611L444.548 64.4047C444.124 65.5585 443.04 66.16 441.639 66.16C439.539 66.16 438.207 64.7695 438.207 62.5113V62.5014H448.522V61.3476C448.522 56.1999 445.406 53.6556 441.402 53.6556C436.945 53.6556 434.056 56.8211 434.056 61.4955C434.056 66.2981 436.906 69.296 441.57 69.296ZM438.207 59.8979C438.296 58.1722 439.608 56.7916 441.471 56.7916C443.296 56.7916 444.558 58.0933 444.568 59.8979H438.207Z" fill="url(#paint22_linear)"/>
<path d="M463.867 58.1722C463.492 55.3814 461.244 53.6556 457.418 53.6556C453.542 53.6556 450.988 55.4504 450.998 58.3694C450.988 60.6376 452.418 62.1069 455.376 62.6986L457.999 63.2213C459.321 63.4875 459.922 63.9708 459.942 64.7301C459.922 65.6275 458.946 66.2685 457.477 66.2685C455.978 66.2685 454.982 65.6275 454.725 64.3948L450.593 64.6118C450.988 67.5111 453.453 69.296 457.467 69.296C461.392 69.296 464.202 67.2941 464.212 64.3061C464.202 62.1168 462.772 60.8052 459.834 60.2037L457.092 59.6514C455.682 59.3457 455.159 58.8625 455.169 58.1327C455.159 57.2255 456.185 56.6338 457.487 56.6338C458.946 56.6338 459.814 57.4326 460.021 58.4089L463.867 58.1722Z" fill="url(#paint23_linear)"/>
<path d="M473.285 69.0002H477.486V53.8528H473.285V69.0002ZM475.395 51.9002C476.648 51.9002 477.673 50.9437 477.673 49.7701C477.673 48.6065 476.648 47.6499 475.395 47.6499C474.153 47.6499 473.127 48.6065 473.127 49.7701C473.127 50.9437 474.153 51.9002 475.395 51.9002Z" fill="url(#paint24_linear)"/>
<path d="M493.454 58.1722C493.079 55.3814 490.831 53.6556 487.005 53.6556C483.129 53.6556 480.575 55.4504 480.585 58.3694C480.575 60.6376 482.005 62.1069 484.963 62.6986L487.587 63.2213C488.908 63.4875 489.51 63.9708 489.529 64.7301C489.51 65.6275 488.533 66.2685 487.064 66.2685C485.565 66.2685 484.569 65.6275 484.313 64.3948L480.181 64.6118C480.575 67.5111 483.04 69.296 487.054 69.296C490.979 69.296 493.789 67.2941 493.799 64.3061C493.789 62.1168 492.36 60.8052 489.421 60.2037L486.679 59.6514C485.269 59.3457 484.746 58.8625 484.756 58.1327C484.746 57.2255 485.772 56.6338 487.074 56.6338C488.533 56.6338 489.401 57.4326 489.608 58.4089L493.454 58.1722Z" fill="url(#paint25_linear)"/>
<path d="M505.86 69.0002H510.298L512.901 59.4739H513.089L515.692 69.0002H520.14L524.252 53.8528H520.011L517.704 63.9708H517.576L515.09 53.8528H510.919L508.473 64.0299H508.335L505.988 53.8528H501.738L505.86 69.0002Z" fill="url(#paint26_linear)"/>
<path d="M530.694 60.2431C530.704 58.2905 531.897 57.1466 533.613 57.1466C535.319 57.1466 536.325 58.2412 536.315 60.105V69.0002H540.516V59.3556C540.526 55.8054 538.435 53.6556 535.279 53.6556C532.982 53.6556 531.443 54.7404 530.753 56.5253H530.576V48.8037H526.493V69.0002H530.694V60.2431Z" fill="url(#paint27_linear)"/>
<path d="M548.141 69.2861C550.38 69.2861 551.83 68.3098 552.569 66.8996H552.688V69.0002H556.672V58.7836C556.672 55.1743 553.615 53.6556 550.242 53.6556C546.613 53.6556 544.226 55.3912 543.645 58.1524L547.53 58.468C547.816 57.4621 548.713 56.7225 550.222 56.7225C551.652 56.7225 552.471 57.4424 552.471 58.685V58.7441C552.471 59.7204 551.435 59.8486 548.802 60.105C545.804 60.3812 543.112 61.387 543.112 64.7695C543.112 67.7675 545.252 69.2861 548.141 69.2861ZM549.345 66.3868C548.053 66.3868 547.126 65.7853 547.126 64.6315C547.126 63.4481 548.102 62.8663 549.581 62.6592C550.498 62.531 551.997 62.314 552.5 61.9787V63.5862C552.5 65.1739 551.189 66.3868 549.345 66.3868Z" fill="url(#paint28_linear)"/>
<path d="M567.988 53.8528H565.138V50.2238H560.937V53.8528H558.866V57.0085H560.937V64.8977C560.917 67.8661 562.939 69.3354 565.986 69.2072C567.071 69.1678 567.84 68.9508 568.264 68.8128L567.603 65.6867C567.396 65.7261 566.952 65.8247 566.558 65.8247C565.72 65.8247 565.138 65.5092 565.138 64.3455V57.0085H567.988V53.8528Z" fill="url(#paint29_linear)"/>
<path d="M102.52 107.296C106.554 107.296 109.088 104.929 109.285 101.448H105.321C105.074 103.065 104.009 103.973 102.57 103.973C100.607 103.973 99.335 102.326 99.335 99.4265C99.335 96.5666 100.617 94.9296 102.57 94.9296C104.108 94.9296 105.094 95.9454 105.321 97.4542H109.285C109.108 93.9533 106.455 91.6556 102.501 91.6556C97.9051 91.6556 95.0649 94.8409 95.0649 99.4857C95.0649 104.091 97.8558 107.296 102.52 107.296Z" fill="url(#paint30_linear)"/>
<path d="M116.294 107.286C118.533 107.286 119.983 106.31 120.722 104.9H120.841V107H124.825V96.7836C124.825 93.1743 121.768 91.6556 118.395 91.6556C114.766 91.6556 112.379 93.3912 111.798 96.1525L115.683 96.468C115.969 95.4621 116.866 94.7225 118.375 94.7225C119.805 94.7225 120.624 95.4424 120.624 96.685V96.7441C120.624 97.7204 119.588 97.8486 116.955 98.105C113.957 98.3812 111.265 99.387 111.265 102.77C111.265 105.767 113.405 107.286 116.294 107.286ZM117.497 104.387C116.206 104.387 115.279 103.785 115.279 102.631C115.279 101.448 116.255 100.866 117.734 100.659C118.651 100.531 120.15 100.314 120.653 99.9787V101.586C120.653 103.174 119.342 104.387 117.497 104.387Z" fill="url(#paint31_linear)"/>
<path d="M137.797 100.551C137.807 102.582 136.417 103.647 134.908 103.647C133.32 103.647 132.295 102.533 132.285 100.748V91.8528H128.084V101.497C128.094 105.038 130.165 107.197 133.212 107.197C135.49 107.197 137.127 106.024 137.807 104.249H137.965V107H141.999V91.8528H137.797V100.551Z" fill="url(#paint32_linear)"/>
<path d="M157.962 96.1722C157.587 93.3814 155.339 91.6556 151.512 91.6556C147.637 91.6556 145.083 93.4504 145.093 96.3694C145.083 98.6376 146.513 100.107 149.471 100.699L152.094 101.221C153.416 101.488 154.017 101.971 154.037 102.73C154.017 103.628 153.041 104.269 151.572 104.269C150.073 104.269 149.077 103.628 148.82 102.395L144.688 102.612C145.083 105.511 147.548 107.296 151.562 107.296C155.487 107.296 158.297 105.294 158.307 102.306C158.297 100.117 156.867 98.8052 153.929 98.2037L151.187 97.6514C149.777 97.3457 149.254 96.8625 149.264 96.1327C149.254 95.2255 150.28 94.6338 151.581 94.6338C153.041 94.6338 153.909 95.4326 154.116 96.4089L157.962 96.1722Z" fill="url(#paint33_linear)"/>
<path d="M167.855 107.296C171.603 107.296 174.127 105.472 174.719 102.661L170.834 102.405C170.41 103.558 169.325 104.16 167.925 104.16C165.824 104.16 164.493 102.77 164.493 100.511V100.501H174.808V99.3476C174.808 94.1999 171.692 91.6556 167.688 91.6556C163.23 91.6556 160.341 94.8211 160.341 99.4955C160.341 104.298 163.191 107.296 167.855 107.296ZM164.493 97.8979C164.581 96.1722 165.893 94.7916 167.757 94.7916C169.581 94.7916 170.844 96.0933 170.853 97.8979H164.493Z" fill="url(#paint34_linear)"/>
<path d="M190.152 96.1722C189.778 93.3814 187.529 91.6556 183.703 91.6556C179.827 91.6556 177.273 93.4504 177.283 96.3694C177.273 98.6376 178.703 100.107 181.662 100.699L184.285 101.221C185.606 101.488 186.208 101.971 186.228 102.73C186.208 103.628 185.232 104.269 183.762 104.269C182.263 104.269 181.267 103.628 181.011 102.395L176.879 102.612C177.273 105.511 179.739 107.296 183.752 107.296C187.677 107.296 190.488 105.294 190.498 102.306C190.488 100.117 189.058 98.8052 186.119 98.2037L183.378 97.6514C181.967 97.3457 181.445 96.8625 181.455 96.1327C181.445 95.2255 182.47 94.6338 183.772 94.6338C185.232 94.6338 186.099 95.4326 186.306 96.4089L190.152 96.1722Z" fill="url(#paint35_linear)"/>
<path d="M207.627 91.8528H204.777V88.2238H200.576V91.8528H198.505V95.0085H200.576V102.898C200.556 105.866 202.578 107.335 205.625 107.207C206.71 107.168 207.479 106.951 207.903 106.813L207.243 103.687C207.035 103.726 206.592 103.825 206.197 103.825C205.359 103.825 204.777 103.509 204.777 102.346V95.0085H207.627V91.8528Z" fill="url(#paint36_linear)"/>
<path d="M214.89 98.2431C214.9 96.2905 216.093 95.1466 217.809 95.1466C219.515 95.1466 220.521 96.2412 220.511 98.105V107H224.712V97.3556C224.722 93.8054 222.631 91.6556 219.476 91.6556C217.178 91.6556 215.64 92.7404 214.949 94.5253H214.772V86.8037H210.689V107H214.89V98.2431Z" fill="url(#paint37_linear)"/>
<path d="M234.921 107.296C238.669 107.296 241.193 105.472 241.785 102.661L237.9 102.405C237.476 103.558 236.391 104.16 234.99 104.16C232.89 104.16 231.559 102.77 231.559 100.511V100.501H241.874V99.3476C241.874 94.1999 238.758 91.6556 234.754 91.6556C230.296 91.6556 227.407 94.8211 227.407 99.4955C227.407 104.298 230.257 107.296 234.921 107.296ZM231.559 97.8979C231.647 96.1722 232.959 94.7916 234.823 94.7916C236.647 94.7916 237.909 96.0933 237.919 97.8979H231.559Z" fill="url(#paint38_linear)"/>
<path d="M256.624 107.247C259.07 107.247 260.342 105.836 260.924 104.574H261.101V107H265.243V86.8037H261.052V94.3971H260.924C260.362 93.1644 259.149 91.6556 256.614 91.6556C253.291 91.6556 250.48 94.2393 250.48 99.4462C250.48 104.515 253.173 107.247 256.624 107.247ZM257.955 103.904C255.894 103.904 254.77 102.069 254.77 99.4265C254.77 96.8033 255.875 94.9986 257.955 94.9986C259.997 94.9986 261.141 96.7244 261.141 99.4265C261.141 102.129 259.977 103.904 257.955 103.904Z" fill="url(#paint39_linear)"/>
<path d="M271.291 112.68C274.417 112.68 276.074 111.083 276.932 108.637L282.819 91.8725L278.371 91.8528L275.206 102.977H275.048L271.912 91.8528H267.494L272.928 107.434L272.681 108.075C272.129 109.495 271.074 109.564 269.595 109.111L268.648 112.246C269.249 112.503 270.226 112.68 271.291 112.68Z" fill="url(#paint40_linear)"/>
<path d="M297.572 96.1722C297.197 93.3814 294.949 91.6556 291.122 91.6556C287.247 91.6556 284.693 93.4504 284.702 96.3694C284.693 98.6376 286.123 100.107 289.081 100.699L291.704 101.221C293.026 101.488 293.627 101.971 293.647 102.73C293.627 103.628 292.651 104.269 291.182 104.269C289.683 104.269 288.687 103.628 288.43 102.395L284.298 102.612C284.693 105.511 287.158 107.296 291.172 107.296C295.097 107.296 297.907 105.294 297.917 102.306C297.907 100.117 296.477 98.8052 293.538 98.2037L290.797 97.6514C289.387 97.3457 288.864 96.8625 288.874 96.1327C288.864 95.2255 289.89 94.6338 291.191 94.6338C292.651 94.6338 293.519 95.4326 293.726 96.4089L297.572 96.1722Z" fill="url(#paint41_linear)"/>
<path d="M300.562 107H304.763V97.9078C304.763 96.2313 305.828 95.117 307.229 95.117C308.609 95.117 309.536 96.0637 309.536 97.5528V107H313.609V97.75C313.609 96.182 314.507 95.117 316.035 95.117C317.376 95.117 318.382 95.9552 318.382 97.6415V107H322.573V96.8132C322.573 93.5293 320.621 91.6556 317.8 91.6556C315.581 91.6556 313.856 92.7897 313.234 94.5253H313.077C312.593 92.7699 311.045 91.6556 308.964 91.6556C306.923 91.6556 305.375 92.7404 304.744 94.5253H304.566V91.8528H300.562V107Z" fill="url(#paint42_linear)"/>
<path d="M332.736 107.296C337.331 107.296 340.191 104.15 340.191 99.4857C340.191 94.7916 337.331 91.6556 332.736 91.6556C328.14 91.6556 325.28 94.7916 325.28 99.4857C325.28 104.15 328.14 107.296 332.736 107.296ZM332.755 104.042C330.635 104.042 329.55 102.099 329.55 99.4561C329.55 96.8132 330.635 94.8606 332.755 94.8606C334.836 94.8606 335.921 96.8132 335.921 99.4561C335.921 102.099 334.836 104.042 332.755 104.042Z" fill="url(#paint43_linear)"/>
<path d="M342.923 107H347.124V98.4305C347.124 96.5666 348.484 95.2846 350.338 95.2846C350.92 95.2846 351.719 95.3833 352.114 95.5115V91.7838C351.739 91.695 351.216 91.6359 350.792 91.6359C349.096 91.6359 347.705 92.622 347.153 94.4957H346.995V91.8528H342.923V107Z" fill="url(#paint44_linear)"/>
<path d="M354.286 112.68H358.487V104.574H358.615C359.197 105.836 360.469 107.247 362.914 107.247C366.366 107.247 369.058 104.515 369.058 99.4462C369.058 94.2393 366.248 91.6556 362.924 91.6556C360.39 91.6556 359.177 93.1644 358.615 94.3971H358.427V91.8528H354.286V112.68ZM358.398 99.4265C358.398 96.7244 359.542 94.9986 361.583 94.9986C363.664 94.9986 364.768 96.8033 364.768 99.4265C364.768 102.069 363.644 103.904 361.583 103.904C359.561 103.904 358.398 102.129 358.398 99.4265Z" fill="url(#paint45_linear)"/>
<path d="M376.06 98.2431C376.07 96.2905 377.263 95.1466 378.979 95.1466C380.685 95.1466 381.691 96.2412 381.681 98.105V107H385.882V97.3556C385.892 93.8054 383.801 91.6556 380.645 91.6556C378.348 91.6556 376.809 92.7404 376.119 94.5253H375.942V86.8037H371.859V107H376.06V98.2431Z" fill="url(#paint46_linear)"/>
<path d="M389.188 107H393.389V91.8528H389.188V107ZM391.298 89.9002C392.551 89.9002 393.576 88.9437 393.576 87.7701C393.576 86.6065 392.551 85.6499 391.298 85.6499C390.056 85.6499 389.03 86.6065 389.03 87.7701C389.03 88.9437 390.056 89.9002 391.298 89.9002Z" fill="url(#paint47_linear)"/>
<path d="M401.074 107.286C403.312 107.286 404.762 106.31 405.501 104.9H405.62V107H409.604V96.7836C409.604 93.1743 406.547 91.6556 403.174 91.6556C399.545 91.6556 397.159 93.3912 396.577 96.1525L400.462 96.468C400.748 95.4621 401.646 94.7225 403.154 94.7225C404.584 94.7225 405.403 95.4424 405.403 96.685V96.7441C405.403 97.7204 404.367 97.8486 401.734 98.105C398.736 98.3812 396.044 99.387 396.044 102.77C396.044 105.767 398.184 107.286 401.074 107.286ZM402.277 104.387C400.985 104.387 400.058 103.785 400.058 102.631C400.058 101.448 401.034 100.866 402.513 100.659C403.431 100.531 404.93 100.314 405.432 99.9787V101.586C405.432 103.174 404.121 104.387 402.277 104.387Z" fill="url(#paint48_linear)"/>
<path d="M423.61 107.286C425.848 107.286 427.298 106.31 428.038 104.9H428.156V107H432.14V96.7836C432.14 93.1743 429.083 91.6556 425.71 91.6556C422.081 91.6556 419.695 93.3912 419.113 96.1525L422.998 96.468C423.284 95.4621 424.182 94.7225 425.691 94.7225C427.12 94.7225 427.939 95.4424 427.939 96.685V96.7441C427.939 97.7204 426.904 97.8486 424.271 98.105C421.273 98.3812 418.58 99.387 418.58 102.77C418.58 105.767 420.72 107.286 423.61 107.286ZM424.813 104.387C423.521 104.387 422.594 103.785 422.594 102.631C422.594 101.448 423.57 100.866 425.05 100.659C425.967 100.531 427.466 100.314 427.969 99.9787V101.586C427.969 103.174 426.657 104.387 424.813 104.387Z" fill="url(#paint49_linear)"/>
<path d="M439.6 98.2431C439.61 96.2905 440.774 95.1466 442.47 95.1466C444.156 95.1466 445.172 96.2511 445.162 98.105V107H449.363V97.3556C449.363 93.8251 447.292 91.6556 444.137 91.6556C441.888 91.6556 440.261 92.7601 439.581 94.5253H439.403V91.8528H435.399V107H439.6V98.2431Z" fill="url(#paint50_linear)"/>
<path d="M458.256 107.247C460.702 107.247 461.974 105.836 462.556 104.574H462.733V107H466.875V86.8037H462.684V94.3971H462.556C461.993 93.1644 460.78 91.6556 458.246 91.6556C454.923 91.6556 452.112 94.2393 452.112 99.4462C452.112 104.515 454.804 107.247 458.256 107.247ZM459.587 103.904C457.526 103.904 456.402 102.069 456.402 99.4265C456.402 96.8033 457.506 94.9986 459.587 94.9986C461.629 94.9986 462.772 96.7244 462.772 99.4265C462.772 102.129 461.609 103.904 459.587 103.904Z" fill="url(#paint51_linear)"/>
<path d="M476.756 107H480.957V91.8528H476.756V107ZM478.866 89.9002C480.119 89.9002 481.145 88.9437 481.145 87.7701C481.145 86.6065 480.119 85.6499 478.866 85.6499C477.624 85.6499 476.598 86.6065 476.598 87.7701C476.598 88.9437 477.624 89.9002 478.866 89.9002Z" fill="url(#paint52_linear)"/>
<path d="M492.379 91.8528H489.529V88.2238H485.328V91.8528H483.257V95.0085H485.328V102.898C485.309 105.866 487.33 107.335 490.377 107.207C491.462 107.168 492.231 106.951 492.655 106.813L491.995 103.687C491.788 103.726 491.344 103.825 490.949 103.825C490.111 103.825 489.529 103.509 489.529 102.346V95.0085H492.379V91.8528Z" fill="url(#paint53_linear)"/>
<path d="M499.314 86.8037H496.159V88.9535C496.159 90.6201 495.567 91.8331 494.906 92.8784L496.76 93.973C498.151 92.8094 499.314 90.7385 499.314 88.9338V86.8037Z" fill="url(#paint54_linear)"/>
<path d="M512.817 96.1722C512.443 93.3814 510.194 91.6556 506.368 91.6556C502.492 91.6556 499.938 93.4504 499.948 96.3694C499.938 98.6376 501.368 100.107 504.327 100.699L506.95 101.221C508.271 101.488 508.873 101.971 508.892 102.73C508.873 103.628 507.896 104.269 506.427 104.269C504.928 104.269 503.932 103.628 503.676 102.395L499.544 102.612C499.938 105.511 502.404 107.296 506.417 107.296C510.342 107.296 513.153 105.294 513.162 102.306C513.153 100.117 511.723 98.8052 508.784 98.2037L506.042 97.6514C504.632 97.3457 504.11 96.8625 504.119 96.1327C504.11 95.2255 505.135 94.6338 506.437 94.6338C507.896 94.6338 508.764 95.4326 508.971 96.4089L512.817 96.1722Z" fill="url(#paint55_linear)"/>
<path d="M526.554 107.286C528.793 107.286 530.243 106.31 530.982 104.9H531.101V107H535.085V96.7836C535.085 93.1743 532.028 91.6556 528.655 91.6556C525.026 91.6556 522.639 93.3912 522.058 96.1525L525.943 96.468C526.229 95.4621 527.126 94.7225 528.635 94.7225C530.065 94.7225 530.884 95.4424 530.884 96.685V96.7441C530.884 97.7204 529.848 97.8486 527.215 98.105C524.217 98.3812 521.525 99.387 521.525 102.77C521.525 105.767 523.665 107.286 526.554 107.286ZM527.758 104.387C526.466 104.387 525.539 103.785 525.539 102.631C525.539 101.448 526.515 100.866 527.994 100.659C528.911 100.531 530.41 100.314 530.913 99.9787V101.586C530.913 103.174 529.602 104.387 527.758 104.387Z" fill="url(#paint56_linear)"/>
<path d="M545.188 107.296C549.221 107.296 551.756 104.929 551.953 101.448H547.989C547.742 103.065 546.677 103.973 545.237 103.973C543.275 103.973 542.003 102.326 542.003 99.4265C542.003 96.5666 543.285 94.9296 545.237 94.9296C546.776 94.9296 547.762 95.9454 547.989 97.4542H551.953C551.775 93.9533 549.123 91.6556 545.168 91.6556C540.573 91.6556 537.733 94.8409 537.733 99.4857C537.733 104.091 540.523 107.296 545.188 107.296Z" fill="url(#paint57_linear)"/>
<path d="M562.699 91.8528H559.85V88.2238H555.648V91.8528H553.578V95.0085H555.648V102.898C555.629 105.866 557.65 107.335 560.698 107.207C561.782 107.168 562.552 106.951 562.976 106.813L562.315 103.687C562.108 103.726 561.664 103.825 561.27 103.825C560.431 103.825 559.85 103.509 559.85 102.346V95.0085H562.699V91.8528Z" fill="url(#paint58_linear)"/>
<path d="M575.15 100.551C575.16 102.582 573.769 103.647 572.26 103.647C570.673 103.647 569.647 102.533 569.637 100.748V91.8528H565.436V101.497C565.446 105.038 567.517 107.197 570.564 107.197C572.842 107.197 574.479 106.024 575.16 104.249H575.317V107H579.351V91.8528H575.15V100.551Z" fill="url(#paint59_linear)"/>
<path d="M587.03 107.286C589.269 107.286 590.719 106.31 591.458 104.9H591.577V107H595.561V96.7836C595.561 93.1743 592.504 91.6556 589.131 91.6556C585.502 91.6556 583.115 93.3912 582.534 96.1525L586.419 96.468C586.705 95.4621 587.602 94.7225 589.111 94.7225C590.541 94.7225 591.36 95.4424 591.36 96.685V96.7441C591.36 97.7204 590.324 97.8486 587.691 98.105C584.693 98.3812 582.001 99.387 582.001 102.77C582.001 105.767 584.141 107.286 587.03 107.286ZM588.234 104.387C586.942 104.387 586.015 103.785 586.015 102.631C586.015 101.448 586.991 100.866 588.47 100.659C589.387 100.531 590.886 100.314 591.389 99.9787V101.586C591.389 103.174 590.078 104.387 588.234 104.387Z" fill="url(#paint60_linear)"/>
<path d="M603.021 86.8037H598.82V107H603.021V86.8037Z" fill="url(#paint61_linear)"/>
<path d="M610.587 86.8037H606.386V107H610.587V86.8037Z" fill="url(#paint62_linear)"/>
<path d="M616.546 112.68C619.672 112.68 621.329 111.083 622.187 108.637L628.074 91.8725L623.627 91.8528L620.461 102.977H620.303L617.167 91.8528H612.749L618.183 107.434L617.936 108.075C617.384 109.495 616.329 109.564 614.85 109.111L613.903 112.246C614.505 112.503 615.481 112.68 616.546 112.68Z" fill="url(#paint63_linear)"/>
<path d="M95.7552 145H99.8971V142.574H100.084C100.666 143.836 101.938 145.247 104.384 145.247C107.836 145.247 110.528 142.515 110.528 137.446C110.528 132.239 107.717 129.656 104.394 129.656C101.86 129.656 100.647 131.164 100.084 132.397H99.9563V124.804H95.7552V145ZM99.8675 137.426C99.8675 134.724 101.011 132.999 103.053 132.999C105.134 132.999 106.238 134.803 106.238 137.426C106.238 140.069 105.114 141.904 103.053 141.904C101.031 141.904 99.8675 140.129 99.8675 137.426Z" fill="url(#paint64_linear)"/>
<path d="M117.65 145.286C119.889 145.286 121.339 144.31 122.078 142.9H122.197V145H126.181V134.784C126.181 131.174 123.124 129.656 119.751 129.656C116.122 129.656 113.735 131.391 113.153 134.152L117.039 134.468C117.325 133.462 118.222 132.723 119.731 132.723C121.161 132.723 121.98 133.442 121.98 134.685V134.744C121.98 135.72 120.944 135.849 118.311 136.105C115.313 136.381 112.621 137.387 112.621 140.77C112.621 143.767 114.761 145.286 117.65 145.286ZM118.853 142.387C117.562 142.387 116.635 141.785 116.635 140.631C116.635 139.448 117.611 138.866 119.09 138.659C120.007 138.531 121.506 138.314 122.009 137.979V139.586C122.009 141.174 120.698 142.387 118.853 142.387Z" fill="url(#paint65_linear)"/>
<path d="M133.641 136.243C133.651 134.291 134.814 133.147 136.511 133.147C138.197 133.147 139.213 134.251 139.203 136.105V145H143.404V135.356C143.404 131.825 141.333 129.656 138.177 129.656C135.929 129.656 134.302 130.76 133.621 132.525H133.444V129.853H129.44V145H133.641V136.243Z" fill="url(#paint66_linear)"/>
<path d="M150.916 136.243C150.926 134.291 152.089 133.147 153.786 133.147C155.472 133.147 156.488 134.251 156.478 136.105V145H160.679V135.356C160.679 131.825 158.608 129.656 155.452 129.656C153.204 129.656 151.577 130.76 150.896 132.525H150.719V129.853H146.715V145H150.916V136.243Z" fill="url(#paint67_linear)"/>
<path d="M170.893 145.296C174.64 145.296 177.165 143.472 177.756 140.661L173.871 140.405C173.447 141.558 172.362 142.16 170.962 142.16C168.861 142.16 167.53 140.77 167.53 138.511V138.501H177.845V137.348C177.845 132.2 174.729 129.656 170.725 129.656C166.268 129.656 163.378 132.821 163.378 137.496C163.378 142.298 166.228 145.296 170.893 145.296ZM167.53 135.898C167.619 134.172 168.93 132.792 170.794 132.792C172.619 132.792 173.881 134.093 173.891 135.898H167.53Z" fill="url(#paint68_linear)"/>
<path d="M186.168 145.247C188.614 145.247 189.886 143.836 190.468 142.574H190.646V145H194.787V124.804H190.596V132.397H190.468C189.906 131.164 188.693 129.656 186.159 129.656C182.835 129.656 180.025 132.239 180.025 137.446C180.025 142.515 182.717 145.247 186.168 145.247ZM187.5 141.904C185.439 141.904 184.314 140.069 184.314 137.426C184.314 134.803 185.419 132.999 187.5 132.999C189.541 132.999 190.685 134.724 190.685 137.426C190.685 140.129 189.521 141.904 187.5 141.904Z" fill="url(#paint69_linear)"/>
<path d="M211.513 145.296C216.108 145.296 218.968 142.15 218.968 137.486C218.968 132.792 216.108 129.656 211.513 129.656C206.917 129.656 204.057 132.792 204.057 137.486C204.057 142.15 206.917 145.296 211.513 145.296ZM211.532 142.042C209.412 142.042 208.327 140.099 208.327 137.456C208.327 134.813 209.412 132.861 211.532 132.861C213.613 132.861 214.698 134.813 214.698 137.456C214.698 140.099 213.613 142.042 211.532 142.042Z" fill="url(#paint70_linear)"/>
<path d="M225.901 136.243C225.91 134.291 227.074 133.147 228.77 133.147C230.457 133.147 231.472 134.251 231.462 136.105V145H235.663V135.356C235.663 131.825 233.593 129.656 230.437 129.656C228.188 129.656 226.561 130.76 225.881 132.525H225.703V129.853H221.7V145H225.901V136.243Z" fill="url(#paint71_linear)"/>
<path d="M249.751 124.804H245.481V145H249.751V124.804Z" fill="url(#paint72_linear)"/>
<path d="M257.386 136.243C257.396 134.291 258.56 133.147 260.256 133.147C261.942 133.147 262.958 134.251 262.948 136.105V145H267.149V135.356C267.149 131.825 265.078 129.656 261.922 129.656C259.674 129.656 258.047 130.76 257.366 132.525H257.189V129.853H253.185V145H257.386V136.243Z" fill="url(#paint73_linear)"/>
<path d="M283.063 134.172C282.688 131.381 280.44 129.656 276.614 129.656C272.738 129.656 270.184 131.45 270.194 134.369C270.184 136.638 271.614 138.107 274.572 138.699L277.195 139.221C278.517 139.488 279.118 139.971 279.138 140.73C279.118 141.628 278.142 142.269 276.673 142.269C275.174 142.269 274.178 141.628 273.921 140.395L269.789 140.612C270.184 143.511 272.649 145.296 276.663 145.296C280.588 145.296 283.398 143.294 283.408 140.306C283.398 138.117 281.968 136.805 279.03 136.204L276.288 135.651C274.878 135.346 274.355 134.862 274.365 134.133C274.355 133.225 275.381 132.634 276.683 132.634C278.142 132.634 279.01 133.433 279.217 134.409L283.063 134.172Z" fill="url(#paint74_linear)"/>
<path d="M294.11 129.853H291.26V126.224H287.059V129.853H284.988V133.009H287.059V140.898C287.04 143.866 289.061 145.335 292.108 145.207C293.193 145.168 293.962 144.951 294.387 144.813L293.726 141.687C293.519 141.726 293.075 141.825 292.68 141.825C291.842 141.825 291.26 141.509 291.26 140.346V133.009H294.11V129.853Z" fill="url(#paint75_linear)"/>
<path d="M301.166 145.286C303.405 145.286 304.855 144.31 305.594 142.9H305.713V145H309.697V134.784C309.697 131.174 306.639 129.656 303.267 129.656C299.638 129.656 297.251 131.391 296.669 134.152L300.555 134.468C300.841 133.462 301.738 132.723 303.247 132.723C304.677 132.723 305.496 133.442 305.496 134.685V134.744C305.496 135.72 304.46 135.849 301.827 136.105C298.829 136.381 296.137 137.387 296.137 140.77C296.137 143.767 298.277 145.286 301.166 145.286ZM302.369 142.387C301.078 142.387 300.151 141.785 300.151 140.631C300.151 139.448 301.127 138.866 302.606 138.659C303.523 138.531 305.022 138.314 305.525 137.979V139.586C305.525 141.174 304.214 142.387 302.369 142.387Z" fill="url(#paint76_linear)"/>
<path d="M319.78 150.996C324.109 150.996 327.186 149.024 327.186 145.148V129.853H323.015V132.397H322.857C322.295 131.164 321.062 129.656 318.528 129.656C315.204 129.656 312.394 132.239 312.394 137.397C312.394 142.436 315.125 144.783 318.537 144.783C320.954 144.783 322.305 143.57 322.857 142.318H323.034V145.089C323.034 147.17 321.703 147.978 319.879 147.978C318.025 147.978 317.088 147.17 316.743 146.253L312.857 146.775C313.36 149.162 315.697 150.996 319.78 150.996ZM319.869 141.628C317.808 141.628 316.683 139.99 316.683 137.377C316.683 134.803 317.788 132.999 319.869 132.999C321.91 132.999 323.054 134.724 323.054 137.377C323.054 140.05 321.89 141.628 319.869 141.628Z" fill="url(#paint77_linear)"/>
<path d="M330.529 145H334.73V136.43C334.73 134.567 336.091 133.285 337.945 133.285C338.527 133.285 339.326 133.383 339.72 133.511V129.784C339.345 129.695 338.823 129.636 338.399 129.636C336.702 129.636 335.312 130.622 334.76 132.496H334.602V129.853H330.529V145Z" fill="url(#paint78_linear)"/>
<path d="M345.777 145.286C348.016 145.286 349.466 144.31 350.205 142.9H350.324V145H354.308V134.784C354.308 131.174 351.251 129.656 347.878 129.656C344.249 129.656 341.862 131.391 341.281 134.152L345.166 134.468C345.452 133.462 346.349 132.723 347.858 132.723C349.288 132.723 350.107 133.442 350.107 134.685V134.744C350.107 135.72 349.071 135.849 346.438 136.105C343.44 136.381 340.748 137.387 340.748 140.77C340.748 143.767 342.888 145.286 345.777 145.286ZM346.981 142.387C345.689 142.387 344.762 141.785 344.762 140.631C344.762 139.448 345.738 138.866 347.217 138.659C348.134 138.531 349.633 138.314 350.136 137.979V139.586C350.136 141.174 348.825 142.387 346.981 142.387Z" fill="url(#paint79_linear)"/>
<path d="M357.567 145H361.768V135.908C361.768 134.231 362.833 133.117 364.233 133.117C365.614 133.117 366.541 134.064 366.541 135.553V145H370.614V135.75C370.614 134.182 371.511 133.117 373.04 133.117C374.381 133.117 375.387 133.955 375.387 135.642V145H379.578V134.813C379.578 131.529 377.625 129.656 374.805 129.656C372.586 129.656 370.86 130.79 370.239 132.525H370.081C369.598 130.77 368.05 129.656 365.969 129.656C363.928 129.656 362.379 130.74 361.748 132.525H361.571V129.853H357.567V145Z" fill="url(#paint80_linear)"/>
<path d="M385.352 145.257C386.614 145.257 387.709 144.201 387.719 142.89C387.709 141.598 386.614 140.543 385.352 140.543C384.05 140.543 382.975 141.598 382.985 142.89C382.975 144.201 384.05 145.257 385.352 145.257Z" fill="url(#paint81_linear)"/>
<defs>
<linearGradient id="paint0_linear" x1="229.603" y1="0.699986" x2="145.98" y2="227.045" gradientUnits="userSpaceOnUse">
<stop/>
<stop offset="1" stop-color="#FFE2AF"/>
</linearGradient>
<linearGradient id="paint1_linear" x1="229.603" y1="0.699986" x2="145.98" y2="227.045" gradientUnits="userSpaceOnUse">
<stop/>
<stop offset="1" stop-color="#FFE2AF"/>
</linearGradient>
<linearGradient id="paint2_linear" x1="229.603" y1="0.699986" x2="145.98" y2="227.045" gradientUnits="userSpaceOnUse">
<stop/>
<stop offset="1" stop-color="#FFE2AF"/>
</linearGradient>
<linearGradient id="paint3_linear" x1="229.603" y1="0.699986" x2="145.98" y2="227.045" gradientUnits="userSpaceOnUse">
<stop/>
<stop offset="1" stop-color="#FFE2AF"/>
</linearGradient>
<linearGradient id="paint4_linear" x1="229.603" y1="0.699986" x2="145.98" y2="227.045" gradientUnits="userSpaceOnUse">
<stop/>
<stop offset="1" stop-color="#FFE2AF"/>
</linearGradient>
<linearGradient id="paint5_linear" x1="229.603" y1="0.699986" x2="145.98" y2="227.045" gradientUnits="userSpaceOnUse">
<stop/>
<stop offset="1" stop-color="#FFE2AF"/>
</linearGradient>
<linearGradient id="paint6_linear" x1="229.603" y1="0.699986" x2="145.98" y2="227.045" gradientUnits="userSpaceOnUse">
<stop/>
<stop offset="1" stop-color="#FFE2AF"/>
</linearGradient>
<linearGradient id="paint7_linear" x1="229.603" y1="0.699986" x2="145.98" y2="227.045" gradientUnits="userSpaceOnUse">
<stop/>
<stop offset="1" stop-color="#FFE2AF"/>
</linearGradient>
<linearGradient id="paint8_linear" x1="229.603" y1="0.699986" x2="145.98" y2="227.045" gradientUnits="userSpaceOnUse">
<stop/>
<stop offset="1" stop-color="#FFE2AF"/>
</linearGradient>
<linearGradient id="paint9_linear" x1="229.603" y1="0.699986" x2="145.98" y2="227.045" gradientUnits="userSpaceOnUse">
<stop/>
<stop offset="1" stop-color="#FFE2AF"/>
</linearGradient>
<linearGradient id="paint10_linear" x1="229.603" y1="0.699986" x2="145.98" y2="227.045" gradientUnits="userSpaceOnUse">
<stop/>
<stop offset="1" stop-color="#FFE2AF"/>
</linearGradient>
<linearGradient id="paint11_linear" x1="229.603" y1="0.699986" x2="145.98" y2="227.045" gradientUnits="userSpaceOnUse">
<stop/>
<stop offset="1" stop-color="#FFE2AF"/>
</linearGradient>
<linearGradient id="paint12_linear" x1="229.603" y1="0.699986" x2="145.98" y2="227.045" gradientUnits="userSpaceOnUse">
<stop/>
<stop offset="1" stop-color="#FFE2AF"/>
</linearGradient>
<linearGradient id="paint13_linear" x1="229.603" y1="0.699986" x2="145.98" y2="227.045" gradientUnits="userSpaceOnUse">
<stop/>
<stop offset="1" stop-color="#FFE2AF"/>
</linearGradient>
<linearGradient id="paint14_linear" x1="229.603" y1="0.699986" x2="145.98" y2="227.045" gradientUnits="userSpaceOnUse">
<stop/>
<stop offset="1" stop-color="#FFE2AF"/>
</linearGradient>
<linearGradient id="paint15_linear" x1="229.603" y1="0.699986" x2="145.98" y2="227.045" gradientUnits="userSpaceOnUse">
<stop/>
<stop offset="1" stop-color="#FFE2AF"/>
</linearGradient>
<linearGradient id="paint16_linear" x1="229.603" y1="0.699986" x2="145.98" y2="227.045" gradientUnits="userSpaceOnUse">
<stop/>
<stop offset="1" stop-color="#FFE2AF"/>
</linearGradient>
<linearGradient id="paint17_linear" x1="229.603" y1="0.699986" x2="145.98" y2="227.045" gradientUnits="userSpaceOnUse">
<stop/>
<stop offset="1" stop-color="#FFE2AF"/>
</linearGradient>
<linearGradient id="paint18_linear" x1="229.603" y1="0.699986" x2="145.98" y2="227.045" gradientUnits="userSpaceOnUse">
<stop/>
<stop offset="1" stop-color="#FFE2AF"/>
</linearGradient>
<linearGradient id="paint19_linear" x1="229.603" y1="0.699986" x2="145.98" y2="227.045" gradientUnits="userSpaceOnUse">
<stop/>
<stop offset="1" stop-color="#FFE2AF"/>
</linearGradient>
<linearGradient id="paint20_linear" x1="229.603" y1="0.699986" x2="145.98" y2="227.045" gradientUnits="userSpaceOnUse">
<stop/>
<stop offset="1" stop-color="#FFE2AF"/>
</linearGradient>
<linearGradient id="paint21_linear" x1="229.603" y1="0.699986" x2="145.98" y2="227.045" gradientUnits="userSpaceOnUse">
<stop/>
<stop offset="1" stop-color="#FFE2AF"/>
</linearGradient>
<linearGradient id="paint22_linear" x1="229.603" y1="0.699986" x2="145.98" y2="227.045" gradientUnits="userSpaceOnUse">
<stop/>
<stop offset="1" stop-color="#FFE2AF"/>
</linearGradient>
<linearGradient id="paint23_linear" x1="229.603" y1="0.699986" x2="145.98" y2="227.045" gradientUnits="userSpaceOnUse">
<stop/>
<stop offset="1" stop-color="#FFE2AF"/>
</linearGradient>
<linearGradient id="paint24_linear" x1="229.603" y1="0.699986" x2="145.98" y2="227.045" gradientUnits="userSpaceOnUse">
<stop/>
<stop offset="1" stop-color="#FFE2AF"/>
</linearGradient>
<linearGradient id="paint25_linear" x1="229.603" y1="0.699986" x2="145.98" y2="227.045" gradientUnits="userSpaceOnUse">
<stop/>
<stop offset="1" stop-color="#FFE2AF"/>
</linearGradient>
<linearGradient id="paint26_linear" x1="229.603" y1="0.699986" x2="145.98" y2="227.045" gradientUnits="userSpaceOnUse">
<stop/>
<stop offset="1" stop-color="#FFE2AF"/>
</linearGradient>
<linearGradient id="paint27_linear" x1="229.603" y1="0.699986" x2="145.98" y2="227.045" gradientUnits="userSpaceOnUse">
<stop/>
<stop offset="1" stop-color="#FFE2AF"/>
</linearGradient>
<linearGradient id="paint28_linear" x1="229.603" y1="0.699986" x2="145.98" y2="227.045" gradientUnits="userSpaceOnUse">
<stop/>
<stop offset="1" stop-color="#FFE2AF"/>
</linearGradient>
<linearGradient id="paint29_linear" x1="229.603" y1="0.699986" x2="145.98" y2="227.045" gradientUnits="userSpaceOnUse">
<stop/>
<stop offset="1" stop-color="#FFE2AF"/>
</linearGradient>
<linearGradient id="paint30_linear" x1="229.603" y1="0.699986" x2="145.98" y2="227.045" gradientUnits="userSpaceOnUse">
<stop/>
<stop offset="1" stop-color="#FFE2AF"/>
</linearGradient>
<linearGradient id="paint31_linear" x1="229.603" y1="0.699986" x2="145.98" y2="227.045" gradientUnits="userSpaceOnUse">
<stop/>
<stop offset="1" stop-color="#FFE2AF"/>
</linearGradient>
<linearGradient id="paint32_linear" x1="229.603" y1="0.699986" x2="145.98" y2="227.045" gradientUnits="userSpaceOnUse">
<stop/>
<stop offset="1" stop-color="#FFE2AF"/>
</linearGradient>
<linearGradient id="paint33_linear" x1="229.603" y1="0.699986" x2="145.98" y2="227.045" gradientUnits="userSpaceOnUse">
<stop/>
<stop offset="1" stop-color="#FFE2AF"/>
</linearGradient>
<linearGradient id="paint34_linear" x1="229.603" y1="0.699986" x2="145.98" y2="227.045" gradientUnits="userSpaceOnUse">
<stop/>
<stop offset="1" stop-color="#FFE2AF"/>
</linearGradient>
<linearGradient id="paint35_linear" x1="229.603" y1="0.699986" x2="145.98" y2="227.045" gradientUnits="userSpaceOnUse">
<stop/>
<stop offset="1" stop-color="#FFE2AF"/>
</linearGradient>
<linearGradient id="paint36_linear" x1="229.603" y1="0.699986" x2="145.98" y2="227.045" gradientUnits="userSpaceOnUse">
<stop/>
<stop offset="1" stop-color="#FFE2AF"/>
</linearGradient>
<linearGradient id="paint37_linear" x1="229.603" y1="0.699986" x2="145.98" y2="227.045" gradientUnits="userSpaceOnUse">
<stop/>
<stop offset="1" stop-color="#FFE2AF"/>
</linearGradient>
<linearGradient id="paint38_linear" x1="229.603" y1="0.699986" x2="145.98" y2="227.045" gradientUnits="userSpaceOnUse">
<stop/>
<stop offset="1" stop-color="#FFE2AF"/>
</linearGradient>
<linearGradient id="paint39_linear" x1="229.603" y1="0.699986" x2="145.98" y2="227.045" gradientUnits="userSpaceOnUse">
<stop/>
<stop offset="1" stop-color="#FFE2AF"/>
</linearGradient>
<linearGradient id="paint40_linear" x1="229.603" y1="0.699986" x2="145.98" y2="227.045" gradientUnits="userSpaceOnUse">
<stop/>
<stop offset="1" stop-color="#FFE2AF"/>
</linearGradient>
<linearGradient id="paint41_linear" x1="229.603" y1="0.699986" x2="145.98" y2="227.045" gradientUnits="userSpaceOnUse">
<stop/>
<stop offset="1" stop-color="#FFE2AF"/>
</linearGradient>
<linearGradient id="paint42_linear" x1="229.603" y1="0.699986" x2="145.98" y2="227.045" gradientUnits="userSpaceOnUse">
<stop/>
<stop offset="1" stop-color="#FFE2AF"/>
</linearGradient>
<linearGradient id="paint43_linear" x1="229.603" y1="0.699986" x2="145.98" y2="227.045" gradientUnits="userSpaceOnUse">
<stop/>
<stop offset="1" stop-color="#FFE2AF"/>
</linearGradient>
<linearGradient id="paint44_linear" x1="229.603" y1="0.699986" x2="145.98" y2="227.045" gradientUnits="userSpaceOnUse">
<stop/>
<stop offset="1" stop-color="#FFE2AF"/>
</linearGradient>
<linearGradient id="paint45_linear" x1="229.603" y1="0.699986" x2="145.98" y2="227.045" gradientUnits="userSpaceOnUse">
<stop/>
<stop offset="1" stop-color="#FFE2AF"/>
</linearGradient>
<linearGradient id="paint46_linear" x1="229.603" y1="0.699986" x2="145.98" y2="227.045" gradientUnits="userSpaceOnUse">
<stop/>
<stop offset="1" stop-color="#FFE2AF"/>
</linearGradient>
<linearGradient id="paint47_linear" x1="229.603" y1="0.699986" x2="145.98" y2="227.045" gradientUnits="userSpaceOnUse">
<stop/>
<stop offset="1" stop-color="#FFE2AF"/>
</linearGradient>
<linearGradient id="paint48_linear" x1="229.603" y1="0.699986" x2="145.98" y2="227.045" gradientUnits="userSpaceOnUse">
<stop/>
<stop offset="1" stop-color="#FFE2AF"/>
</linearGradient>
<linearGradient id="paint49_linear" x1="229.603" y1="0.699986" x2="145.98" y2="227.045" gradientUnits="userSpaceOnUse">
<stop/>
<stop offset="1" stop-color="#FFE2AF"/>
</linearGradient>
<linearGradient id="paint50_linear" x1="229.603" y1="0.699986" x2="145.98" y2="227.045" gradientUnits="userSpaceOnUse">
<stop/>
<stop offset="1" stop-color="#FFE2AF"/>
</linearGradient>
<linearGradient id="paint51_linear" x1="229.603" y1="0.699986" x2="145.98" y2="227.045" gradientUnits="userSpaceOnUse">
<stop/>
<stop offset="1" stop-color="#FFE2AF"/>
</linearGradient>
<linearGradient id="paint52_linear" x1="229.603" y1="0.699986" x2="145.98" y2="227.045" gradientUnits="userSpaceOnUse">
<stop/>
<stop offset="1" stop-color="#FFE2AF"/>
</linearGradient>
<linearGradient id="paint53_linear" x1="229.603" y1="0.699986" x2="145.98" y2="227.045" gradientUnits="userSpaceOnUse">
<stop/>
<stop offset="1" stop-color="#FFE2AF"/>
</linearGradient>
<linearGradient id="paint54_linear" x1="229.603" y1="0.699986" x2="145.98" y2="227.045" gradientUnits="userSpaceOnUse">
<stop/>
<stop offset="1" stop-color="#FFE2AF"/>
</linearGradient>
<linearGradient id="paint55_linear" x1="229.603" y1="0.699986" x2="145.98" y2="227.045" gradientUnits="userSpaceOnUse">
<stop/>
<stop offset="1" stop-color="#FFE2AF"/>
</linearGradient>
<linearGradient id="paint56_linear" x1="229.603" y1="0.699986" x2="145.98" y2="227.045" gradientUnits="userSpaceOnUse">
<stop/>
<stop offset="1" stop-color="#FFE2AF"/>
</linearGradient>
<linearGradient id="paint57_linear" x1="229.603" y1="0.699986" x2="145.98" y2="227.045" gradientUnits="userSpaceOnUse">
<stop/>
<stop offset="1" stop-color="#FFE2AF"/>
</linearGradient>
<linearGradient id="paint58_linear" x1="229.603" y1="0.699986" x2="145.98" y2="227.045" gradientUnits="userSpaceOnUse">
<stop/>
<stop offset="1" stop-color="#FFE2AF"/>
</linearGradient>
<linearGradient id="paint59_linear" x1="229.603" y1="0.699986" x2="145.98" y2="227.045" gradientUnits="userSpaceOnUse">
<stop/>
<stop offset="1" stop-color="#FFE2AF"/>
</linearGradient>
<linearGradient id="paint60_linear" x1="229.603" y1="0.699986" x2="145.98" y2="227.045" gradientUnits="userSpaceOnUse">
<stop/>
<stop offset="1" stop-color="#FFE2AF"/>
</linearGradient>
<linearGradient id="paint61_linear" x1="229.603" y1="0.699986" x2="145.98" y2="227.045" gradientUnits="userSpaceOnUse">
<stop/>
<stop offset="1" stop-color="#FFE2AF"/>
</linearGradient>
<linearGradient id="paint62_linear" x1="229.603" y1="0.699986" x2="145.98" y2="227.045" gradientUnits="userSpaceOnUse">
<stop/>
<stop offset="1" stop-color="#FFE2AF"/>
</linearGradient>
<linearGradient id="paint63_linear" x1="229.603" y1="0.699986" x2="145.98" y2="227.045" gradientUnits="userSpaceOnUse">
<stop/>
<stop offset="1" stop-color="#FFE2AF"/>
</linearGradient>
<linearGradient id="paint64_linear" x1="229.603" y1="0.699986" x2="145.98" y2="227.045" gradientUnits="userSpaceOnUse">
<stop/>
<stop offset="1" stop-color="#FFE2AF"/>
</linearGradient>
<linearGradient id="paint65_linear" x1="229.603" y1="0.699986" x2="145.98" y2="227.045" gradientUnits="userSpaceOnUse">
<stop/>
<stop offset="1" stop-color="#FFE2AF"/>
</linearGradient>
<linearGradient id="paint66_linear" x1="229.603" y1="0.699986" x2="145.98" y2="227.045" gradientUnits="userSpaceOnUse">
<stop/>
<stop offset="1" stop-color="#FFE2AF"/>
</linearGradient>
<linearGradient id="paint67_linear" x1="229.603" y1="0.699986" x2="145.98" y2="227.045" gradientUnits="userSpaceOnUse">
<stop/>
<stop offset="1" stop-color="#FFE2AF"/>
</linearGradient>
<linearGradient id="paint68_linear" x1="229.603" y1="0.699986" x2="145.98" y2="227.045" gradientUnits="userSpaceOnUse">
<stop/>
<stop offset="1" stop-color="#FFE2AF"/>
</linearGradient>
<linearGradient id="paint69_linear" x1="229.603" y1="0.699986" x2="145.98" y2="227.045" gradientUnits="userSpaceOnUse">
<stop/>
<stop offset="1" stop-color="#FFE2AF"/>
</linearGradient>
<linearGradient id="paint70_linear" x1="229.603" y1="0.699986" x2="145.98" y2="227.045" gradientUnits="userSpaceOnUse">
<stop/>
<stop offset="1" stop-color="#FFE2AF"/>
</linearGradient>
<linearGradient id="paint71_linear" x1="229.603" y1="0.699986" x2="145.98" y2="227.045" gradientUnits="userSpaceOnUse">
<stop/>
<stop offset="1" stop-color="#FFE2AF"/>
</linearGradient>
<linearGradient id="paint72_linear" x1="229.603" y1="0.699986" x2="145.98" y2="227.045" gradientUnits="userSpaceOnUse">
<stop/>
<stop offset="1" stop-color="#FFE2AF"/>
</linearGradient>
<linearGradient id="paint73_linear" x1="229.603" y1="0.699986" x2="145.98" y2="227.045" gradientUnits="userSpaceOnUse">
<stop/>
<stop offset="1" stop-color="#FFE2AF"/>
</linearGradient>
<linearGradient id="paint74_linear" x1="229.603" y1="0.699986" x2="145.98" y2="227.045" gradientUnits="userSpaceOnUse">
<stop/>
<stop offset="1" stop-color="#FFE2AF"/>
</linearGradient>
<linearGradient id="paint75_linear" x1="229.603" y1="0.699986" x2="145.98" y2="227.045" gradientUnits="userSpaceOnUse">
<stop/>
<stop offset="1" stop-color="#FFE2AF"/>
</linearGradient>
<linearGradient id="paint76_linear" x1="229.603" y1="0.699986" x2="145.98" y2="227.045" gradientUnits="userSpaceOnUse">
<stop/>
<stop offset="1" stop-color="#FFE2AF"/>
</linearGradient>
<linearGradient id="paint77_linear" x1="229.603" y1="0.699986" x2="145.98" y2="227.045" gradientUnits="userSpaceOnUse">
<stop/>
<stop offset="1" stop-color="#FFE2AF"/>
</linearGradient>
<linearGradient id="paint78_linear" x1="229.603" y1="0.699986" x2="145.98" y2="227.045" gradientUnits="userSpaceOnUse">
<stop/>
<stop offset="1" stop-color="#FFE2AF"/>
</linearGradient>
<linearGradient id="paint79_linear" x1="229.603" y1="0.699986" x2="145.98" y2="227.045" gradientUnits="userSpaceOnUse">
<stop/>
<stop offset="1" stop-color="#FFE2AF"/>
</linearGradient>
<linearGradient id="paint80_linear" x1="229.603" y1="0.699986" x2="145.98" y2="227.045" gradientUnits="userSpaceOnUse">
<stop/>
<stop offset="1" stop-color="#FFE2AF"/>
</linearGradient>
<linearGradient id="paint81_linear" x1="229.603" y1="0.699986" x2="145.98" y2="227.045" gradientUnits="userSpaceOnUse">
<stop/>
<stop offset="1" stop-color="#FFE2AF"/>
</linearGradient>
</defs>
</svg>
