<svg width="419" height="260" viewBox="0 0 419 260" fill="none" xmlns="http://www.w3.org/2000/svg">
<path d="M32.2356 107C23.2586 107 15.6418 103.881 9.38506 97.6426C3.12835 91.4043 0 81.3688 0 67.5361C0 50.1774 4.89655 35.2598 14.6897 22.7833C24.4828 10.0355 37.9483 2.44107 55.0862 0L56.7184 13.019C50.1897 13.8327 43.6609 16.4094 37.1322 20.749C30.8755 24.8175 27.7471 29.8352 27.7471 35.8023C27.7471 38.7858 28.4272 40.82 29.7874 41.905C31.4195 42.9899 33.8678 44.0748 37.1322 45.1597C54.5421 50.0418 63.2471 60.0773 63.2471 75.2661C63.2471 84.2167 60.3908 91.8111 54.6782 98.0494C49.2375 104.016 41.7567 107 32.2356 107ZM110.989 107C102.011 107 94.3946 103.881 88.1379 97.6426C81.8812 91.1331 78.7529 80.962 78.7529 67.1293C78.7529 50.0418 83.6494 35.2598 93.4425 22.7833C103.236 10.0355 116.701 2.44107 133.839 0L135.471 12.6122C128.671 13.6971 122.142 16.2738 115.885 20.3422C109.628 24.4106 106.5 29.4284 106.5 35.3954C106.5 38.379 107.18 40.4132 108.54 41.4981C110.172 42.583 112.621 43.6679 115.885 44.7529C133.295 49.635 142 59.8061 142 75.2661C142 84.2167 139.144 91.8111 133.431 98.0494C127.99 104.016 120.51 107 110.989 107Z" fill="#FEF5E1"/>
<path d="M100.025 48.8035H95.7551V68.9999H100.025V48.8035Z" fill="url(#paint0_linear)"/>
<path d="M117.944 53.8526H115.094V50.2235H110.893V53.8526H108.822V57.0083H110.893V64.8975C110.873 67.8658 112.895 69.3352 115.942 69.207C117.027 69.1676 117.796 68.9506 118.22 68.8125L117.559 65.6864C117.352 65.7259 116.908 65.8245 116.514 65.8245C115.675 65.8245 115.094 65.5089 115.094 64.3453V57.0083H117.944V53.8526Z" fill="url(#paint1_linear)"/>
<path d="M125.207 60.2429C125.217 58.2903 126.41 57.1463 128.126 57.1463C129.832 57.1463 130.838 58.241 130.828 60.1048V68.9999H135.029V59.3553C135.039 55.8052 132.948 53.6553 129.792 53.6553C127.495 53.6553 125.956 54.7401 125.266 56.5251H125.088V48.8035H121.006V68.9999H125.207V60.2429Z" fill="url(#paint2_linear)"/>
<path d="M138.335 68.9999H142.536V53.8526H138.335V68.9999ZM140.445 51.9C141.698 51.9 142.723 50.9434 142.723 49.7699C142.723 48.6062 141.698 47.6497 140.445 47.6497C139.203 47.6497 138.177 48.6062 138.177 49.7699C138.177 50.9434 139.203 51.9 140.445 51.9Z" fill="url(#paint3_linear)"/>
<path d="M150.102 60.2429C150.112 58.2903 151.276 57.1463 152.972 57.1463C154.658 57.1463 155.674 58.2508 155.664 60.1048V68.9999H159.865V59.3553C159.865 55.8249 157.794 53.6553 154.638 53.6553C152.39 53.6553 150.763 54.7598 150.082 56.5251H149.905V53.8526H145.901V68.9999H150.102V60.2429Z" fill="url(#paint4_linear)"/>
<path d="M163.176 68.9999H167.377V64.1875L168.511 62.8956L172.643 68.9999H177.564L171.657 60.4105L177.278 53.8526H172.456L167.604 59.6019H167.377V48.8035H163.176V68.9999Z" fill="url(#paint5_linear)"/>
<path d="M190.115 48.8035H185.845V68.9999H190.115V48.8035Z" fill="url(#paint6_linear)"/>
<path d="M197.751 60.2429C197.761 58.2903 198.924 57.1463 200.62 57.1463C202.307 57.1463 203.322 58.2508 203.313 60.1048V68.9999H207.514V59.3553C207.514 55.8249 205.443 53.6553 202.287 53.6553C200.039 53.6553 198.411 54.7598 197.731 56.5251H197.553V53.8526H193.55V68.9999H197.751V60.2429Z" fill="url(#paint7_linear)"/>
<path d="M223.428 58.1719C223.053 55.3811 220.804 53.6553 216.978 53.6553C213.103 53.6553 210.548 55.4501 210.558 58.3692C210.548 60.6373 211.978 62.1067 214.937 62.6984L217.56 63.221C218.881 63.4873 219.483 63.9705 219.503 64.7299C219.483 65.6273 218.507 66.2683 217.037 66.2683C215.538 66.2683 214.542 65.6273 214.286 64.3946L210.154 64.6115C210.548 67.5108 213.014 69.2958 217.028 69.2958C220.952 69.2958 223.763 67.2939 223.773 64.3058C223.763 62.1165 222.333 60.805 219.394 60.2034L216.653 59.6512C215.243 59.3455 214.72 58.8622 214.73 58.1325C214.72 57.2252 215.746 56.6335 217.047 56.6335C218.507 56.6335 219.375 57.4323 219.582 58.4086L223.428 58.1719Z" fill="url(#paint8_linear)"/>
<path d="M234.475 53.8526H231.625V50.2235H227.424V53.8526H225.353V57.0083H227.424V64.8975C227.404 67.8658 229.426 69.3352 232.473 69.207C233.558 69.1676 234.327 68.9506 234.751 68.8125L234.09 65.6864C233.883 65.7259 233.44 65.8245 233.045 65.8245C232.207 65.8245 231.625 65.5089 231.625 64.3453V57.0083H234.475V53.8526Z" fill="url(#paint9_linear)"/>
<path d="M241.531 69.2859C243.77 69.2859 245.219 68.3096 245.959 66.8994H246.077V68.9999H250.061V58.7833C250.061 55.174 247.004 53.6553 243.632 53.6553C240.002 53.6553 237.616 55.391 237.034 58.1522L240.92 58.4678C241.206 57.4619 242.103 56.7223 243.612 56.7223C245.042 56.7223 245.86 57.4422 245.86 58.6847V58.7439C245.86 59.7202 244.825 59.8484 242.192 60.1048C239.194 60.3809 236.502 61.3868 236.502 64.7693C236.502 67.7672 238.642 69.2859 241.531 69.2859ZM242.734 66.3866C241.442 66.3866 240.515 65.785 240.515 64.6312C240.515 63.4479 241.492 62.866 242.971 62.6589C243.888 62.5307 245.387 62.3138 245.89 61.9785V63.5859C245.89 65.1736 244.578 66.3866 242.734 66.3866Z" fill="url(#paint10_linear)"/>
<path d="M260.145 74.8971C264.474 74.8971 267.551 72.9248 267.551 69.1478V53.8526H263.379V56.3968H263.221C262.659 55.1642 261.427 53.6553 258.892 53.6553C255.569 53.6553 252.758 56.2391 252.758 61.3967C252.758 66.4359 255.49 68.783 258.902 68.783C261.318 68.783 262.669 67.57 263.221 66.3176H263.399V69.0887C263.399 71.0708 262.068 71.8795 260.243 71.8795C258.389 71.8795 257.452 71.0708 257.107 70.2523L253.222 70.775C253.725 73.0629 256.062 74.8971 260.145 74.8971ZM260.233 65.6273C258.172 65.6273 257.048 63.9902 257.048 61.3769C257.048 58.8031 258.153 56.9984 260.233 56.9984C262.275 56.9984 263.419 58.7242 263.419 61.3769C263.419 64.0494 262.255 65.6273 260.233 65.6273Z" fill="url(#paint11_linear)"/>
<path d="M270.894 68.9999H275.095V60.4302C275.095 58.5664 276.456 57.2844 278.31 57.2844C278.891 57.2844 279.69 57.383 280.085 57.5112V53.7835C279.71 53.6948 279.187 53.6356 278.763 53.6356C277.067 53.6356 275.677 54.6218 275.124 56.4955H274.967V53.8526H270.894V68.9999Z" fill="url(#paint12_linear)"/>
<path d="M286.142 69.2859C288.381 69.2859 289.83 68.3096 290.57 66.8994H290.688V68.9999H294.672V58.7833C294.672 55.174 291.615 53.6553 288.243 53.6553C284.614 53.6553 282.227 55.391 281.645 58.1522L285.531 58.4678C285.817 57.4619 286.714 56.7223 288.223 56.7223C289.653 56.7223 290.471 57.4422 290.471 58.6847V58.7439C290.471 59.7202 289.436 59.8484 286.803 60.1048C283.805 60.3809 281.113 61.3868 281.113 64.7693C281.113 67.7672 283.253 69.2859 286.142 69.2859ZM287.345 66.3866C286.053 66.3866 285.126 65.785 285.126 64.6312C285.126 63.4479 286.103 62.866 287.582 62.6589C288.499 62.5307 289.998 62.3138 290.501 61.9785V63.5859C290.501 65.1736 289.189 66.3866 287.345 66.3866Z" fill="url(#paint13_linear)"/>
<path d="M297.932 68.9999H302.133V59.9076C302.133 58.2311 303.198 57.1167 304.598 57.1167C305.979 57.1167 306.906 58.0635 306.906 59.5525V68.9999H310.978V59.7498C310.978 58.1818 311.876 57.1167 313.404 57.1167C314.746 57.1167 315.751 57.955 315.751 59.6413V68.9999H319.943V58.8129C319.943 55.529 317.99 53.6553 315.17 53.6553C312.951 53.6553 311.225 54.7894 310.604 56.5251H310.446C309.963 54.7697 308.414 53.6553 306.334 53.6553C304.292 53.6553 302.744 54.7401 302.113 56.5251H301.935V53.8526H297.932V68.9999Z" fill="url(#paint14_linear)"/>
<path d="M342.291 58.1719C341.917 55.3811 339.668 53.6553 335.842 53.6553C331.966 53.6553 329.412 55.4501 329.422 58.3692C329.412 60.6373 330.842 62.1067 333.801 62.6984L336.424 63.221C337.745 63.4873 338.347 63.9705 338.366 64.7299C338.347 65.6273 337.37 66.2683 335.901 66.2683C334.402 66.2683 333.406 65.6273 333.15 64.3946L329.018 64.6115C329.412 67.5108 331.878 69.2958 335.891 69.2958C339.816 69.2958 342.627 67.2939 342.637 64.3058C342.627 62.1165 341.197 60.805 338.258 60.2034L335.516 59.6512C334.106 59.3455 333.584 58.8622 333.593 58.1325C333.584 57.2252 334.609 56.6335 335.911 56.6335C337.37 56.6335 338.238 57.4323 338.445 58.4086L342.291 58.1719Z" fill="url(#paint15_linear)"/>
<path d="M349.483 60.2429C349.493 58.2903 350.686 57.1463 352.402 57.1463C354.108 57.1463 355.114 58.241 355.104 60.1048V68.9999H359.305V59.3553C359.315 55.8052 357.224 53.6553 354.068 53.6553C351.771 53.6553 350.232 54.7401 349.542 56.5251H349.365V48.8035H345.282V68.9999H349.483V60.2429Z" fill="url(#paint16_linear)"/>
<path d="M369.455 69.2958C374.05 69.2958 376.91 66.1499 376.91 61.4854C376.91 56.7913 374.05 53.6553 369.455 53.6553C364.86 53.6553 362 56.7913 362 61.4854C362 66.1499 364.86 69.2958 369.455 69.2958ZM369.475 66.0414C367.354 66.0414 366.27 64.0987 366.27 61.4558C366.27 58.8129 367.354 56.8603 369.475 56.8603C371.555 56.8603 372.64 58.8129 372.64 61.4558C372.64 64.0987 371.555 66.0414 369.475 66.0414Z" fill="url(#paint17_linear)"/>
<path d="M389.356 62.5505C389.365 64.5819 387.975 65.647 386.466 65.647C384.878 65.647 383.853 64.5326 383.843 62.7477V53.8526H379.642V63.4972C379.652 67.0375 381.723 69.1971 384.77 69.1971C387.048 69.1971 388.685 68.0236 389.365 66.2485H389.523V68.9999H393.557V53.8526H389.356V62.5505Z" fill="url(#paint18_linear)"/>
<path d="M401.118 48.8035H396.917V68.9999H401.118V48.8035Z" fill="url(#paint19_linear)"/>
<path d="M410.065 69.2464C412.51 69.2464 413.783 67.8362 414.364 66.574H414.542V68.9999H418.684V48.8035H414.493V56.3968H414.364C413.802 55.1642 412.589 53.6553 410.055 53.6553C406.732 53.6553 403.921 56.2391 403.921 61.446C403.921 66.5148 406.613 69.2464 410.065 69.2464ZM411.396 65.9034C409.335 65.9034 408.211 64.0691 408.211 61.4262C408.211 58.8031 409.315 56.9984 411.396 56.9984C413.437 56.9984 414.581 58.7242 414.581 61.4262C414.581 64.1283 413.418 65.9034 411.396 65.9034Z" fill="url(#paint20_linear)"/>
<path d="M95.6763 107H99.8773V98.4302C99.8773 96.5664 101.238 95.2844 103.092 95.2844C103.674 95.2844 104.473 95.383 104.867 95.5112V91.7835C104.492 91.6948 103.97 91.6356 103.546 91.6356C101.85 91.6356 100.459 92.6218 99.9069 94.4955H99.7491V91.8526H95.6763V107Z" fill="url(#paint21_linear)"/>
<path d="M113.237 107.296C116.985 107.296 119.509 105.471 120.101 102.661L116.215 102.404C115.791 103.558 114.707 104.16 113.306 104.16C111.206 104.16 109.874 102.769 109.874 100.511V100.501H120.19V99.3473C120.19 94.1996 117.073 91.6553 113.07 91.6553C108.612 91.6553 105.723 94.8209 105.723 99.4953C105.723 104.298 108.573 107.296 113.237 107.296ZM109.874 97.8977C109.963 96.1719 111.275 94.7913 113.139 94.7913C114.963 94.7913 116.225 96.093 116.235 97.8977H109.874Z" fill="url(#paint22_linear)"/>
<path d="M130.988 91.8526H128.138V88.2235H123.937V91.8526H121.866V95.0083H123.937V102.898C123.917 105.866 125.939 107.335 128.986 107.207C130.071 107.168 130.84 106.951 131.264 106.813L130.603 103.686C130.396 103.726 129.953 103.824 129.558 103.824C128.72 103.824 128.138 103.509 128.138 102.345V95.0083H130.988V91.8526Z" fill="url(#paint23_linear)"/>
<path d="M138.251 98.2429C138.261 96.2903 139.454 95.1463 141.17 95.1463C142.876 95.1463 143.882 96.241 143.872 98.1048V107H148.073V97.3553C148.083 93.8052 145.992 91.6553 142.837 91.6553C140.539 91.6553 139 92.7401 138.31 94.5251H138.133V86.8035H134.05V107H138.251V98.2429Z" fill="url(#paint24_linear)"/>
<path d="M151.379 107H155.58V91.8526H151.379V107ZM153.49 89.9C154.742 89.9 155.768 88.9434 155.768 87.7699C155.768 86.6062 154.742 85.6497 153.49 85.6497C152.247 85.6497 151.221 86.6062 151.221 87.7699C151.221 88.9434 152.247 89.9 153.49 89.9Z" fill="url(#paint25_linear)"/>
<path d="M163.146 98.2429C163.156 96.2903 164.32 95.1463 166.016 95.1463C167.703 95.1463 168.718 96.2508 168.708 98.1048V107H172.909V97.3553C172.909 93.8249 170.839 91.6553 167.683 91.6553C165.434 91.6553 163.807 92.7598 163.127 94.5251H162.949V91.8526H158.945V107H163.146V98.2429Z" fill="url(#paint26_linear)"/>
<path d="M176.22 107H180.421V102.187L181.556 100.896L185.688 107H190.608L184.701 98.4105L190.322 91.8526H185.5L180.648 97.6019H180.421V86.8035H176.22V107Z" fill="url(#paint27_linear)"/>
<path d="M206.868 91.8526H204.018V88.2235H199.817V91.8526H197.746V95.0083H199.817V102.898C199.797 105.866 201.819 107.335 204.866 107.207C205.951 107.168 206.72 106.951 207.144 106.813L206.483 103.686C206.276 103.726 205.832 103.824 205.438 103.824C204.6 103.824 204.018 103.509 204.018 102.345V95.0083H206.868V91.8526Z" fill="url(#paint28_linear)"/>
<path d="M214.131 98.2429C214.141 96.2903 215.334 95.1463 217.05 95.1463C218.756 95.1463 219.762 96.241 219.752 98.1048V107H223.953V97.3553C223.963 93.8052 221.872 91.6553 218.716 91.6553C216.419 91.6553 214.88 92.7401 214.19 94.5251H214.012V86.8035H209.93V107H214.131V98.2429Z" fill="url(#paint29_linear)"/>
<path d="M234.162 107.296C237.909 107.296 240.434 105.471 241.026 102.661L237.14 102.404C236.716 103.558 235.631 104.16 234.231 104.16C232.13 104.16 230.799 102.769 230.799 100.511V100.501H241.114V99.3473C241.114 94.1996 237.998 91.6553 233.994 91.6553C229.537 91.6553 226.647 94.8209 226.647 99.4953C226.647 104.298 229.497 107.296 234.162 107.296ZM230.799 97.8977C230.888 96.1719 232.199 94.7913 234.063 94.7913C235.888 94.7913 237.15 96.093 237.16 97.8977H230.799Z" fill="url(#paint30_linear)"/>
<path d="M243.856 107H248.057V91.8526H243.856V107ZM245.966 89.9C247.219 89.9 248.244 88.9434 248.244 87.7699C248.244 86.6062 247.219 85.6497 245.966 85.6497C244.724 85.6497 243.698 86.6062 243.698 87.7699C243.698 88.9434 244.724 89.9 245.966 89.9Z" fill="url(#paint31_linear)"/>
<path d="M251.422 107H255.623V98.4302C255.623 96.5664 256.984 95.2844 258.838 95.2844C259.42 95.2844 260.219 95.383 260.613 95.5112V91.7835C260.238 91.6948 259.716 91.6356 259.292 91.6356C257.595 91.6356 256.205 92.6218 255.653 94.4955H255.495V91.8526H251.422V107Z" fill="url(#paint32_linear)"/>
<path d="M269.291 107H273.433V104.574H273.62C274.202 105.836 275.474 107.246 277.92 107.246C281.372 107.246 284.064 104.515 284.064 99.446C284.064 94.2391 281.253 91.6553 277.93 91.6553C275.396 91.6553 274.183 93.1642 273.62 94.3969H273.492V86.8035H269.291V107ZM273.404 99.4262C273.404 96.7242 274.547 94.9984 276.589 94.9984C278.67 94.9984 279.774 96.8031 279.774 99.4262C279.774 102.069 278.65 103.903 276.589 103.903C274.567 103.903 273.404 102.128 273.404 99.4262Z" fill="url(#paint33_linear)"/>
<path d="M291.186 107.286C293.425 107.286 294.875 106.31 295.614 104.899H295.733V107H299.717V96.7833C299.717 93.174 296.659 91.6553 293.287 91.6553C289.658 91.6553 287.271 93.391 286.689 96.1522L290.575 96.4678C290.861 95.4619 291.758 94.7223 293.267 94.7223C294.697 94.7223 295.516 95.4422 295.516 96.6847V96.7439C295.516 97.7202 294.48 97.8484 291.847 98.1048C288.849 98.3809 286.157 99.3868 286.157 102.769C286.157 105.767 288.297 107.286 291.186 107.286ZM292.389 104.387C291.098 104.387 290.171 103.785 290.171 102.631C290.171 101.448 291.147 100.866 292.626 100.659C293.543 100.531 295.042 100.314 295.545 99.9785V101.586C295.545 103.174 294.234 104.387 292.389 104.387Z" fill="url(#paint34_linear)"/>
<path d="M307.177 98.2429C307.187 96.2903 308.35 95.1463 310.047 95.1463C311.733 95.1463 312.749 96.2508 312.739 98.1048V107H316.94V97.3553C316.94 93.8249 314.869 91.6553 311.713 91.6553C309.465 91.6553 307.838 92.7598 307.157 94.5251H306.98V91.8526H302.976V107H307.177V98.2429Z" fill="url(#paint35_linear)"/>
<path d="M326.678 107H330.879V91.8526H326.678V107ZM328.788 89.9C330.041 89.9 331.066 88.9434 331.066 87.7699C331.066 86.6062 330.041 85.6497 328.788 85.6497C327.546 85.6497 326.52 86.6062 326.52 87.7699C326.52 88.9434 327.546 89.9 328.788 89.9Z" fill="url(#paint36_linear)"/>
<path d="M338.445 98.2429C338.455 96.2903 339.619 95.1463 341.315 95.1463C343.001 95.1463 344.017 96.2508 344.007 98.1048V107H348.208V97.3553C348.208 93.8249 346.137 91.6553 342.982 91.6553C340.733 91.6553 339.106 92.7598 338.426 94.5251H338.248V91.8526H334.244V107H338.445V98.2429Z" fill="url(#paint37_linear)"/>
<path d="M366.003 91.8526H363.153V88.2235H358.952V91.8526H356.882V95.0083H358.952V102.898C358.933 105.866 360.954 107.335 364.002 107.207C365.086 107.168 365.855 106.951 366.28 106.813L365.619 103.686C365.412 103.726 364.968 103.824 364.574 103.824C363.735 103.824 363.153 103.509 363.153 102.345V95.0083H366.003V91.8526Z" fill="url(#paint38_linear)"/>
<path d="M373.266 98.2429C373.276 96.2903 374.47 95.1463 376.185 95.1463C377.892 95.1463 378.897 96.241 378.888 98.1048V107H383.089V97.3553C383.098 93.8052 381.008 91.6553 377.852 91.6553C375.554 91.6553 374.016 92.7401 373.326 94.5251H373.148V86.8035H369.065V107H373.266V98.2429Z" fill="url(#paint39_linear)"/>
<path d="M393.298 107.296C397.045 107.296 399.57 105.471 400.161 102.661L396.276 102.404C395.852 103.558 394.767 104.16 393.367 104.16C391.266 104.16 389.935 102.769 389.935 100.511V100.501H400.25V99.3473C400.25 94.1996 397.134 91.6553 393.13 91.6553C388.673 91.6553 385.783 94.8209 385.783 99.4953C385.783 104.298 388.633 107.296 393.298 107.296ZM389.935 97.8977C390.024 96.1719 391.335 94.7913 393.199 94.7913C395.023 94.7913 396.286 96.093 396.296 97.8977H389.935Z" fill="url(#paint40_linear)"/>
<path d="M103.822 129.853H100.814V128.837C100.814 127.811 101.228 127.21 102.461 127.21C102.964 127.21 103.477 127.318 103.812 127.427L104.552 124.271C104.029 124.113 102.875 123.857 101.583 123.857C98.7333 123.857 96.6131 125.464 96.6131 128.758V129.853H94.4731V133.008H96.6131V145H100.814V133.008H103.822V129.853Z" fill="url(#paint41_linear)"/>
<path d="M116.102 138.55C116.112 140.582 114.721 141.647 113.213 141.647C111.625 141.647 110.599 140.533 110.589 138.748V129.853H106.388V139.497C106.398 143.037 108.469 145.197 111.516 145.197C113.794 145.197 115.431 144.024 116.112 142.249H116.27V145H120.303V129.853H116.102V138.55Z" fill="url(#paint42_linear)"/>
<path d="M131.72 129.853H128.87V126.224H124.669V129.853H122.598V133.008H124.669V140.898C124.649 143.866 126.671 145.335 129.718 145.207C130.803 145.168 131.572 144.951 131.996 144.813L131.336 141.686C131.129 141.726 130.685 141.824 130.29 141.824C129.452 141.824 128.87 141.509 128.87 140.345V133.008H131.72V129.853Z" fill="url(#paint43_linear)"/>
<path d="M144.17 138.55C144.18 140.582 142.79 141.647 141.281 141.647C139.693 141.647 138.668 140.533 138.658 138.748V129.853H134.457V139.497C134.467 143.037 136.538 145.197 139.585 145.197C141.863 145.197 143.5 144.024 144.18 142.249H144.338V145H148.371V129.853H144.17V138.55Z" fill="url(#paint44_linear)"/>
<path d="M151.732 145H155.933V136.43C155.933 134.566 157.294 133.284 159.148 133.284C159.729 133.284 160.528 133.383 160.923 133.511V129.784C160.548 129.695 160.025 129.636 159.601 129.636C157.905 129.636 156.515 130.622 155.962 132.495H155.805V129.853H151.732V145Z" fill="url(#paint45_linear)"/>
<path d="M169.293 145.296C173.04 145.296 175.565 143.471 176.156 140.661L172.271 140.404C171.847 141.558 170.762 142.16 169.362 142.16C167.261 142.16 165.93 140.769 165.93 138.511V138.501H176.245V137.347C176.245 132.2 173.129 129.655 169.125 129.655C164.668 129.655 161.778 132.821 161.778 137.495C161.778 142.298 164.628 145.296 169.293 145.296ZM165.93 135.898C166.019 134.172 167.33 132.791 169.194 132.791C171.018 132.791 172.281 134.093 172.291 135.898H165.93Z" fill="url(#paint46_linear)"/>
<path d="M189.733 145.286C191.972 145.286 193.421 144.31 194.161 142.899H194.279V145H198.263V134.783C198.263 131.174 195.206 129.655 191.834 129.655C188.205 129.655 185.818 131.391 185.236 134.152L189.122 134.468C189.408 133.462 190.305 132.722 191.814 132.722C193.244 132.722 194.062 133.442 194.062 134.685V134.744C194.062 135.72 193.027 135.848 190.394 136.105C187.396 136.381 184.704 137.387 184.704 140.769C184.704 143.767 186.844 145.286 189.733 145.286ZM190.936 142.387C189.644 142.387 188.717 141.785 188.717 140.631C188.717 139.448 189.694 138.866 191.173 138.659C192.09 138.531 193.589 138.314 194.092 137.978V139.586C194.092 141.174 192.78 142.387 190.936 142.387Z" fill="url(#paint47_linear)"/>
<path d="M205.724 136.243C205.734 134.29 206.897 133.146 208.593 133.146C210.28 133.146 211.295 134.251 211.286 136.105V145H215.487V135.355C215.487 131.825 213.416 129.655 210.26 129.655C208.012 129.655 206.384 130.76 205.704 132.525H205.526V129.853H201.523V145H205.724V136.243Z" fill="url(#paint48_linear)"/>
<path d="M224.379 145.246C226.825 145.246 228.097 143.836 228.679 142.574H228.856V145H232.998V124.803H228.807V132.397H228.679C228.117 131.164 226.904 129.655 224.369 129.655C221.046 129.655 218.236 132.239 218.236 137.446C218.236 142.515 220.928 145.246 224.379 145.246ZM225.711 141.903C223.65 141.903 222.525 140.069 222.525 137.426C222.525 134.803 223.63 132.998 225.711 132.998C227.752 132.998 228.896 134.724 228.896 137.426C228.896 140.128 227.732 141.903 225.711 141.903Z" fill="url(#paint49_linear)"/>
<path d="M247.199 145.286C249.437 145.286 250.887 144.31 251.627 142.899H251.745V145H255.729V134.783C255.729 131.174 252.672 129.655 249.299 129.655C245.67 129.655 243.284 131.391 242.702 134.152L246.587 134.468C246.873 133.462 247.771 132.722 249.28 132.722C250.71 132.722 251.528 133.442 251.528 134.685V134.744C251.528 135.72 250.493 135.848 247.86 136.105C244.862 136.381 242.17 137.387 242.17 140.769C242.17 143.767 244.309 145.286 247.199 145.286ZM248.402 142.387C247.11 142.387 246.183 141.785 246.183 140.631C246.183 139.448 247.159 138.866 248.639 138.659C249.556 138.531 251.055 138.314 251.558 137.978V139.586C251.558 141.174 250.246 142.387 248.402 142.387Z" fill="url(#paint50_linear)"/>
<path d="M263.189 124.803H258.988V145H263.189V124.803Z" fill="url(#paint51_linear)"/>
<path d="M270.756 124.803H266.555V145H270.756V124.803Z" fill="url(#paint52_linear)"/>
<path d="M280.965 145.296C285.56 145.296 288.42 142.15 288.42 137.485C288.42 132.791 285.56 129.655 280.965 129.655C276.369 129.655 273.51 132.791 273.51 137.485C273.51 142.15 276.369 145.296 280.965 145.296ZM280.985 142.041C278.864 142.041 277.78 140.099 277.78 137.456C277.78 134.813 278.864 132.86 280.985 132.86C283.065 132.86 284.15 134.813 284.15 137.456C284.15 140.099 283.065 142.041 280.985 142.041Z" fill="url(#paint53_linear)"/>
<path d="M293.76 145H298.198L300.801 135.474H300.989L303.592 145H308.04L312.152 129.853H307.912L305.604 139.971H305.476L302.991 129.853H298.819L296.374 140.03H296.235L293.888 129.853H289.638L293.76 145Z" fill="url(#paint54_linear)"/>
<path d="M325.14 145.286C327.378 145.286 328.828 144.31 329.567 142.899H329.686V145H333.67V134.783C333.67 131.174 330.613 129.655 327.24 129.655C323.611 129.655 321.225 131.391 320.643 134.152L324.528 134.468C324.814 133.462 325.712 132.722 327.22 132.722C328.65 132.722 329.469 133.442 329.469 134.685V134.744C329.469 135.72 328.433 135.848 325.8 136.105C322.802 136.381 320.11 137.387 320.11 140.769C320.11 143.767 322.25 145.286 325.14 145.286ZM326.343 142.387C325.051 142.387 324.124 141.785 324.124 140.631C324.124 139.448 325.1 138.866 326.579 138.659C327.497 138.531 328.996 138.314 329.498 137.978V139.586C329.498 141.174 328.187 142.387 326.343 142.387Z" fill="url(#paint55_linear)"/>
<path d="M336.929 145H341.13V136.43C341.13 134.566 342.491 133.284 344.345 133.284C344.927 133.284 345.726 133.383 346.12 133.511V129.784C345.745 129.695 345.223 129.636 344.799 129.636C343.102 129.636 341.712 130.622 341.16 132.495H341.002V129.853H336.929V145Z" fill="url(#paint56_linear)"/>
<path d="M357.108 129.853H354.258V126.224H350.057V129.853H347.986V133.008H350.057V140.898C350.038 143.866 352.059 145.335 355.106 145.207C356.191 145.168 356.96 144.951 357.384 144.813L356.724 141.686C356.517 141.726 356.073 141.824 355.678 141.824C354.84 141.824 354.258 141.509 354.258 140.345V133.008H357.108V129.853Z" fill="url(#paint57_linear)"/>
<path d="M359.845 145H364.046V129.853H359.845V145ZM361.955 127.9C363.208 127.9 364.233 126.943 364.233 125.77C364.233 124.606 363.208 123.65 361.955 123.65C360.713 123.65 359.687 124.606 359.687 125.77C359.687 126.943 360.713 127.9 361.955 127.9Z" fill="url(#paint58_linear)"/>
<path d="M380.014 134.172C379.639 131.381 377.391 129.655 373.565 129.655C369.689 129.655 367.135 131.45 367.145 134.369C367.135 136.637 368.565 138.107 371.523 138.698L374.147 139.221C375.468 139.487 376.07 139.971 376.089 140.73C376.07 141.627 375.093 142.268 373.624 142.268C372.125 142.268 371.129 141.627 370.873 140.395L366.741 140.612C367.135 143.511 369.6 145.296 373.614 145.296C377.539 145.296 380.35 143.294 380.359 140.306C380.35 138.117 378.92 136.805 375.981 136.203L373.239 135.651C371.829 135.345 371.306 134.862 371.316 134.132C371.306 133.225 372.332 132.634 373.634 132.634C375.093 132.634 375.961 133.432 376.168 134.409L380.014 134.172Z" fill="url(#paint59_linear)"/>
<path d="M391.062 129.853H388.212V126.224H384.011V129.853H381.94V133.008H384.011V140.898C383.991 143.866 386.013 145.335 389.06 145.207C390.144 145.168 390.914 144.951 391.338 144.813L390.677 141.686C390.47 141.726 390.026 141.824 389.632 141.824C388.793 141.824 388.212 141.509 388.212 140.345V133.008H391.062V129.853Z" fill="url(#paint60_linear)"/>
<path d="M406.184 134.172C405.81 131.381 403.561 129.655 399.735 129.655C395.859 129.655 393.305 131.45 393.315 134.369C393.305 136.637 394.735 138.107 397.694 138.698L400.317 139.221C401.638 139.487 402.24 139.971 402.259 140.73C402.24 141.627 401.263 142.268 399.794 142.268C398.295 142.268 397.299 141.627 397.043 140.395L392.911 140.612C393.305 143.511 395.77 145.296 399.784 145.296C403.709 145.296 406.52 143.294 406.529 140.306C406.52 138.117 405.09 136.805 402.151 136.203L399.409 135.651C397.999 135.345 397.477 134.862 397.486 134.132C397.477 133.225 398.502 132.634 399.804 132.634C401.263 132.634 402.131 133.432 402.338 134.409L406.184 134.172Z" fill="url(#paint61_linear)"/>
<path d="M99.9956 183.286C102.234 183.286 103.684 182.31 104.423 180.899H104.542V183H108.526V172.783C108.526 169.174 105.469 167.655 102.096 167.655C98.4671 167.655 96.0806 169.391 95.4987 172.152L99.3842 172.468C99.6702 171.462 100.568 170.722 102.076 170.722C103.506 170.722 104.325 171.442 104.325 172.685V172.744C104.325 173.72 103.289 173.848 100.656 174.105C97.6584 174.381 94.9662 175.387 94.9662 178.769C94.9662 181.767 97.1062 183.286 99.9956 183.286ZM101.199 180.387C99.9069 180.387 98.9799 179.785 98.9799 178.631C98.9799 177.448 99.9562 176.866 101.435 176.659C102.353 176.531 103.851 176.314 104.354 175.978V177.586C104.354 179.174 103.043 180.387 101.199 180.387Z" fill="url(#paint62_linear)"/>
<path d="M115.986 174.243C115.996 172.29 117.16 171.146 118.856 171.146C120.542 171.146 121.558 172.251 121.548 174.105V183H125.749V173.355C125.749 169.825 123.678 167.655 120.522 167.655C118.274 167.655 116.647 168.76 115.966 170.525H115.789V167.853H111.785V183H115.986V174.243Z" fill="url(#paint63_linear)"/>
<path d="M134.642 183.246C137.087 183.246 138.359 181.836 138.941 180.574H139.119V183H143.261V162.803H139.07V170.397H138.941C138.379 169.164 137.166 167.655 134.632 167.655C131.308 167.655 128.498 170.239 128.498 175.446C128.498 180.515 131.19 183.246 134.642 183.246ZM135.973 179.903C133.912 179.903 132.788 178.069 132.788 175.426C132.788 172.803 133.892 170.998 135.973 170.998C138.014 170.998 139.158 172.724 139.158 175.426C139.158 178.128 137.995 179.903 135.973 179.903Z" fill="url(#paint64_linear)"/>
<path d="M162.856 176.55C162.865 178.582 161.475 179.647 159.966 179.647C158.378 179.647 157.353 178.533 157.343 176.748V167.853H153.142V177.497C153.152 181.037 155.223 183.197 158.27 183.197C160.548 183.197 162.185 182.024 162.865 180.249H163.023V183H167.057V167.853H162.856V176.55Z" fill="url(#paint65_linear)"/>
<path d="M183.02 172.172C182.645 169.381 180.397 167.655 176.571 167.655C172.695 167.655 170.141 169.45 170.151 172.369C170.141 174.637 171.571 176.107 174.529 176.698L177.152 177.221C178.474 177.487 179.075 177.971 179.095 178.73C179.075 179.627 178.099 180.268 176.63 180.268C175.131 180.268 174.135 179.627 173.878 178.395L169.746 178.612C170.141 181.511 172.606 183.296 176.62 183.296C180.545 183.296 183.355 181.294 183.365 178.306C183.355 176.117 181.925 174.805 178.987 174.203L176.245 173.651C174.835 173.345 174.312 172.862 174.322 172.132C174.312 171.225 175.338 170.634 176.64 170.634C178.099 170.634 178.967 171.432 179.174 172.409L183.02 172.172Z" fill="url(#paint66_linear)"/>
<path d="M192.914 183.296C196.661 183.296 199.186 181.471 199.777 178.661L195.892 178.404C195.468 179.558 194.383 180.16 192.983 180.16C190.882 180.16 189.551 178.769 189.551 176.511V176.501H199.866V175.347C199.866 170.2 196.75 167.655 192.746 167.655C188.288 167.655 185.399 170.821 185.399 175.495C185.399 180.298 188.249 183.296 192.914 183.296ZM189.551 173.898C189.64 172.172 190.951 170.791 192.815 170.791C194.639 170.791 195.902 172.093 195.911 173.898H189.551Z" fill="url(#paint67_linear)"/>
<path d="M202.607 183H206.808V174.43C206.808 172.566 208.169 171.284 210.023 171.284C210.605 171.284 211.404 171.383 211.798 171.511V167.784C211.424 167.695 210.901 167.636 210.477 167.636C208.781 167.636 207.39 168.622 206.838 170.495H206.68V167.853H202.607V183Z" fill="url(#paint68_linear)"/>
<path d="M226.573 172.172C226.199 169.381 223.95 167.655 220.124 167.655C216.248 167.655 213.694 169.45 213.704 172.369C213.694 174.637 215.124 176.107 218.083 176.698L220.706 177.221C222.027 177.487 222.629 177.971 222.649 178.73C222.629 179.627 221.653 180.268 220.183 180.268C218.684 180.268 217.688 179.627 217.432 178.395L213.3 178.612C213.694 181.511 216.16 183.296 220.173 183.296C224.098 183.296 226.909 181.294 226.919 178.306C226.909 176.117 225.479 174.805 222.54 174.203L219.799 173.651C218.388 173.345 217.866 172.862 217.876 172.132C217.866 171.225 218.891 170.634 220.193 170.634C221.653 170.634 222.52 171.432 222.727 172.409L226.573 172.172Z" fill="url(#paint69_linear)"/>
<path d="M244.048 167.853H241.198V164.224H236.997V167.853H234.926V171.008H236.997V178.898C236.977 181.866 238.999 183.335 242.046 183.207C243.131 183.168 243.9 182.951 244.324 182.813L243.664 179.686C243.456 179.726 243.013 179.824 242.618 179.824C241.78 179.824 241.198 179.509 241.198 178.345V171.008H244.048V167.853Z" fill="url(#paint70_linear)"/>
<path d="M253.466 183.296C258.061 183.296 260.921 180.15 260.921 175.485C260.921 170.791 258.061 167.655 253.466 167.655C248.87 167.655 246.011 170.791 246.011 175.485C246.011 180.15 248.87 183.296 253.466 183.296ZM253.486 180.041C251.365 180.041 250.281 178.099 250.281 175.456C250.281 172.813 251.365 170.86 253.486 170.86C255.566 170.86 256.651 172.813 256.651 175.456C256.651 178.099 255.566 180.041 253.486 180.041Z" fill="url(#paint71_linear)"/>
<path d="M270.08 183H274.281V173.908C274.281 172.231 275.346 171.117 276.747 171.117C278.127 171.117 279.054 172.063 279.054 173.553V183H283.127V173.75C283.127 172.182 284.024 171.117 285.553 171.117C286.894 171.117 287.9 171.955 287.9 173.641V183H292.091V172.813C292.091 169.529 290.139 167.655 287.318 167.655C285.099 167.655 283.374 168.789 282.752 170.525H282.594C282.111 168.77 280.563 167.655 278.482 167.655C276.441 167.655 274.893 168.74 274.261 170.525H274.084V167.853H270.08V183Z" fill="url(#paint72_linear)"/>
<path d="M299.729 183.286C301.967 183.286 303.417 182.31 304.157 180.899H304.275V183H308.259V172.783C308.259 169.174 305.202 167.655 301.829 167.655C298.2 167.655 295.814 169.391 295.232 172.152L299.117 172.468C299.403 171.462 300.301 170.722 301.81 170.722C303.24 170.722 304.058 171.442 304.058 172.685V172.744C304.058 173.72 303.023 173.848 300.39 174.105C297.392 174.381 294.7 175.387 294.7 178.769C294.7 181.767 296.839 183.286 299.729 183.286ZM300.932 180.387C299.64 180.387 298.713 179.785 298.713 178.631C298.713 177.448 299.689 176.866 301.169 176.659C302.086 176.531 303.585 176.314 304.088 175.978V177.586C304.088 179.174 302.776 180.387 300.932 180.387Z" fill="url(#paint73_linear)"/>
<path d="M311.518 183H315.719V178.187L316.853 176.896L320.985 183H325.906L319.999 174.411L325.62 167.853H320.798L315.946 173.602H315.719V162.803H311.518V183Z" fill="url(#paint74_linear)"/>
<path d="M333.961 183.296C337.708 183.296 340.233 181.471 340.824 178.661L336.939 178.404C336.515 179.558 335.43 180.16 334.03 180.16C331.929 180.16 330.598 178.769 330.598 176.511V176.501H340.913V175.347C340.913 170.2 337.797 167.655 333.793 167.655C329.336 167.655 326.446 170.821 326.446 175.495C326.446 180.298 329.296 183.296 333.961 183.296ZM330.598 173.898C330.687 172.172 331.998 170.791 333.862 170.791C335.687 170.791 336.949 172.093 336.959 173.898H330.598Z" fill="url(#paint75_linear)"/>
<path d="M358.139 167.853H355.289V164.224H351.088V167.853H349.017V171.008H351.088V178.898C351.068 181.866 353.09 183.335 356.137 183.207C357.222 183.168 357.991 182.951 358.415 182.813L357.754 179.686C357.547 179.726 357.103 179.824 356.709 179.824C355.871 179.824 355.289 179.509 355.289 178.345V171.008H358.139V167.853Z" fill="url(#paint76_linear)"/>
<path d="M365.402 174.243C365.412 172.29 366.605 171.146 368.321 171.146C370.027 171.146 371.033 172.241 371.023 174.105V183H375.224V173.355C375.234 169.805 373.143 167.655 369.987 167.655C367.69 167.655 366.151 168.74 365.461 170.525H365.284V162.803H361.201V183H365.402V174.243Z" fill="url(#paint77_linear)"/>
<path d="M385.433 183.296C389.181 183.296 391.705 181.471 392.297 178.661L388.411 178.404C387.987 179.558 386.903 180.16 385.502 180.16C383.402 180.16 382.07 178.769 382.07 176.511V176.501H392.386V175.347C392.386 170.2 389.269 167.655 385.266 167.655C380.808 167.655 377.919 170.821 377.919 175.495C377.919 180.298 380.769 183.296 385.433 183.296ZM382.07 173.898C382.159 172.172 383.471 170.791 385.335 170.791C387.159 170.791 388.421 172.093 388.431 173.898H382.07Z" fill="url(#paint78_linear)"/>
<path d="M395.127 183H399.328V167.853H395.127V183ZM397.237 165.9C398.49 165.9 399.515 164.943 399.515 163.77C399.515 162.606 398.49 161.65 397.237 161.65C395.995 161.65 394.969 162.606 394.969 163.77C394.969 164.943 395.995 165.9 397.237 165.9Z" fill="url(#paint79_linear)"/>
<path d="M402.693 183H406.894V174.43C406.894 172.566 408.255 171.284 410.109 171.284C410.691 171.284 411.49 171.383 411.884 171.511V167.784C411.51 167.695 410.987 167.636 410.563 167.636C408.867 167.636 407.476 168.622 406.924 170.495H406.766V167.853H402.693V183Z" fill="url(#paint80_linear)"/>
<path d="M102.52 221.296C107.116 221.296 109.975 218.15 109.975 213.485C109.975 208.791 107.116 205.655 102.52 205.655C97.9247 205.655 95.0648 208.791 95.0648 213.485C95.0648 218.15 97.9247 221.296 102.52 221.296ZM102.54 218.041C100.42 218.041 99.3349 216.099 99.3349 213.456C99.3349 210.813 100.42 208.86 102.54 208.86C104.621 208.86 105.705 210.813 105.705 213.456C105.705 216.099 104.621 218.041 102.54 218.041Z" fill="url(#paint81_linear)"/>
<path d="M115.316 221H119.753L122.357 211.474H122.544L125.147 221H129.595L133.707 205.853H129.467L127.159 215.971H127.031L124.546 205.853H120.374L117.929 216.03H117.791L115.444 205.853H111.193L115.316 221Z" fill="url(#paint82_linear)"/>
<path d="M140.149 212.243C140.159 210.29 141.323 209.146 143.019 209.146C144.705 209.146 145.721 210.251 145.711 212.105V221H149.912V211.355C149.912 207.825 147.841 205.655 144.686 205.655C142.437 205.655 140.81 206.76 140.13 208.525H139.952V205.853H135.948V221H140.149V212.243Z" fill="url(#paint83_linear)"/>
<path d="M165.232 221.246C167.678 221.246 168.95 219.836 169.532 218.574H169.709V221H173.851V200.803H169.66V208.397H169.532C168.97 207.164 167.757 205.655 165.222 205.655C161.899 205.655 159.088 208.239 159.088 213.446C159.088 218.515 161.781 221.246 165.232 221.246ZM166.564 217.903C164.502 217.903 163.378 216.069 163.378 213.426C163.378 210.803 164.483 208.998 166.564 208.998C168.605 208.998 169.749 210.724 169.749 213.426C169.749 216.128 168.585 217.903 166.564 217.903Z" fill="url(#paint84_linear)"/>
<path d="M184.208 221.296C187.956 221.296 190.48 219.471 191.072 216.661L187.186 216.404C186.762 217.558 185.678 218.16 184.277 218.16C182.177 218.16 180.846 216.769 180.846 214.511V214.501H191.161V213.347C191.161 208.2 188.044 205.655 184.041 205.655C179.583 205.655 176.694 208.821 176.694 213.495C176.694 218.298 179.544 221.296 184.208 221.296ZM180.846 211.898C180.934 210.172 182.246 208.791 184.11 208.791C185.934 208.791 187.196 210.093 187.206 211.898H180.846Z" fill="url(#paint85_linear)"/>
<path d="M200.746 221.296C204.779 221.296 207.314 218.929 207.511 215.448H203.547C203.3 217.065 202.235 217.972 200.795 217.972C198.833 217.972 197.561 216.326 197.561 213.426C197.561 210.566 198.843 208.929 200.795 208.929C202.334 208.929 203.32 209.945 203.547 211.454H207.511C207.334 207.953 204.681 205.655 200.726 205.655C196.131 205.655 193.291 208.841 193.291 213.485C193.291 218.091 196.082 221.296 200.746 221.296Z" fill="url(#paint86_linear)"/>
<path d="M210.201 221H214.402V205.853H210.201V221ZM212.311 203.9C213.564 203.9 214.589 202.943 214.589 201.77C214.589 200.606 213.564 199.65 212.311 199.65C211.069 199.65 210.043 200.606 210.043 201.77C210.043 202.943 211.069 203.9 212.311 203.9Z" fill="url(#paint87_linear)"/>
<path d="M230.37 210.172C229.995 207.381 227.747 205.655 223.921 205.655C220.045 205.655 217.491 207.45 217.501 210.369C217.491 212.637 218.921 214.107 221.879 214.698L224.503 215.221C225.824 215.487 226.426 215.971 226.445 216.73C226.426 217.627 225.449 218.268 223.98 218.268C222.481 218.268 221.485 217.627 221.229 216.395L217.097 216.612C217.491 219.511 219.956 221.296 223.97 221.296C227.895 221.296 230.705 219.294 230.715 216.306C230.705 214.117 229.276 212.805 226.337 212.203L223.595 211.651C222.185 211.345 221.662 210.862 221.672 210.132C221.662 209.225 222.688 208.634 223.99 208.634C225.449 208.634 226.317 209.432 226.524 210.409L230.37 210.172Z" fill="url(#paint88_linear)"/>
<path d="M233.361 221H237.562V205.853H233.361V221ZM235.471 203.9C236.723 203.9 237.749 202.943 237.749 201.77C237.749 200.606 236.723 199.65 235.471 199.65C234.229 199.65 233.203 200.606 233.203 201.77C233.203 202.943 234.229 203.9 235.471 203.9Z" fill="url(#paint89_linear)"/>
<path d="M247.771 221.296C252.366 221.296 255.226 218.15 255.226 213.485C255.226 208.791 252.366 205.655 247.771 205.655C243.175 205.655 240.316 208.791 240.316 213.485C240.316 218.15 243.175 221.296 247.771 221.296ZM247.791 218.041C245.67 218.041 244.586 216.099 244.586 213.456C244.586 210.813 245.67 208.86 247.791 208.86C249.871 208.86 250.956 210.813 250.956 213.456C250.956 216.099 249.871 218.041 247.791 218.041Z" fill="url(#paint90_linear)"/>
<path d="M262.159 212.243C262.169 210.29 263.332 209.146 265.029 209.146C266.715 209.146 267.731 210.251 267.721 212.105V221H271.922V211.355C271.922 207.825 269.851 205.655 266.695 205.655C264.447 205.655 262.82 206.76 262.139 208.525H261.962V205.853H257.958V221H262.159V212.243Z" fill="url(#paint91_linear)"/>
<path d="M285.979 221.286C288.218 221.286 289.668 220.31 290.407 218.899H290.526V221H294.51V210.783C294.51 207.174 291.453 205.655 288.08 205.655C284.451 205.655 282.064 207.391 281.483 210.152L285.368 210.468C285.654 209.462 286.551 208.722 288.06 208.722C289.49 208.722 290.309 209.442 290.309 210.685V210.744C290.309 211.72 289.273 211.848 286.64 212.105C283.642 212.381 280.95 213.387 280.95 216.769C280.95 219.767 283.09 221.286 285.979 221.286ZM287.183 218.387C285.891 218.387 284.964 217.785 284.964 216.631C284.964 215.448 285.94 214.866 287.419 214.659C288.336 214.531 289.835 214.314 290.338 213.978V215.586C290.338 217.174 289.027 218.387 287.183 218.387Z" fill="url(#paint92_linear)"/>
<path d="M301.97 212.243C301.98 210.29 303.143 209.146 304.84 209.146C306.526 209.146 307.542 210.251 307.532 212.105V221H311.733V211.355C311.733 207.825 309.662 205.655 306.506 205.655C304.258 205.655 302.631 206.76 301.95 208.525H301.773V205.853H297.769V221H301.97V212.243Z" fill="url(#paint93_linear)"/>
<path d="M320.626 221.246C323.071 221.246 324.343 219.836 324.925 218.574H325.103V221H329.245V200.803H325.053V208.397H324.925C324.363 207.164 323.15 205.655 320.616 205.655C317.292 205.655 314.482 208.239 314.482 213.446C314.482 218.515 317.174 221.246 320.626 221.246ZM321.957 217.903C319.896 217.903 318.772 216.069 318.772 213.426C318.772 210.803 319.876 208.998 321.957 208.998C323.998 208.998 325.142 210.724 325.142 213.426C325.142 216.128 323.978 217.903 321.957 217.903Z" fill="url(#paint94_linear)"/>
<path d="M102.52 259.296C106.554 259.296 109.088 256.929 109.285 253.448H105.321C105.074 255.065 104.009 255.972 102.569 255.972C100.607 255.972 99.3349 254.326 99.3349 251.426C99.3349 248.566 100.617 246.929 102.569 246.929C104.108 246.929 105.094 247.945 105.321 249.454H109.285C109.108 245.953 106.455 243.655 102.5 243.655C97.905 243.655 95.0648 246.841 95.0648 251.485C95.0648 256.091 97.8557 259.296 102.52 259.296Z" fill="url(#paint95_linear)"/>
<path d="M116.176 250.243C116.186 248.29 117.379 247.146 119.095 247.146C120.801 247.146 121.807 248.241 121.797 250.105V259H125.998V249.355C126.008 245.805 123.917 243.655 120.762 243.655C118.464 243.655 116.925 244.74 116.235 246.525H116.058V238.803H111.975V259H116.176V250.243Z" fill="url(#paint96_linear)"/>
<path d="M136.148 259.296C140.744 259.296 143.603 256.15 143.603 251.485C143.603 246.791 140.744 243.655 136.148 243.655C131.553 243.655 128.693 246.791 128.693 251.485C128.693 256.15 131.553 259.296 136.148 259.296ZM136.168 256.041C134.048 256.041 132.963 254.099 132.963 251.456C132.963 248.813 134.048 246.86 136.168 246.86C138.249 246.86 139.333 248.813 139.333 251.456C139.333 254.099 138.249 256.041 136.168 256.041Z" fill="url(#paint97_linear)"/>
<path d="M146.335 259H150.536V243.853H146.335V259ZM148.445 241.9C149.698 241.9 150.723 240.943 150.723 239.77C150.723 238.606 149.698 237.65 148.445 237.65C147.203 237.65 146.177 238.606 146.177 239.77C146.177 240.943 147.203 241.9 148.445 241.9Z" fill="url(#paint98_linear)"/>
<path d="M160.745 259.296C164.779 259.296 167.313 256.929 167.51 253.448H163.546C163.299 255.065 162.234 255.972 160.795 255.972C158.832 255.972 157.56 254.326 157.56 251.426C157.56 248.566 158.842 246.929 160.795 246.929C162.333 246.929 163.319 247.945 163.546 249.454H167.51C167.333 245.953 164.68 243.655 160.725 243.655C156.13 243.655 153.29 246.841 153.29 251.485C153.29 256.091 156.081 259.296 160.745 259.296Z" fill="url(#paint99_linear)"/>
<path d="M177.103 259.296C180.85 259.296 183.375 257.471 183.967 254.661L180.081 254.404C179.657 255.558 178.572 256.16 177.172 256.16C175.072 256.16 173.74 254.769 173.74 252.511V252.501H184.055V251.347C184.055 246.2 180.939 243.655 176.935 243.655C172.478 243.655 169.589 246.821 169.589 251.495C169.589 256.298 172.439 259.296 177.103 259.296ZM173.74 249.898C173.829 248.172 175.141 246.791 177.004 246.791C178.829 246.791 180.091 248.093 180.101 249.898H173.74Z" fill="url(#paint100_linear)"/>
<path d="M189.252 259.256C190.515 259.256 191.609 258.201 191.619 256.89C191.609 255.598 190.515 254.542 189.252 254.542C187.951 254.542 186.876 255.598 186.886 256.89C186.876 258.201 187.951 259.256 189.252 259.256Z" fill="url(#paint101_linear)"/>
<path d="M195.823 238.803H192.667V240.953C192.667 242.62 192.075 243.833 191.415 244.878L193.269 245.973C194.659 244.809 195.823 242.738 195.823 240.934V238.803ZM200.773 238.803H197.618V240.953C197.618 242.62 197.026 243.833 196.365 244.878L198.219 245.973C199.61 244.809 200.773 242.738 200.773 240.934V238.803Z" fill="url(#paint102_linear)"/>
<defs>
<linearGradient id="paint0_linear" x1="177.524" y1="-38.6" x2="-75.5127" y2="172.33" gradientUnits="userSpaceOnUse">
<stop/>
<stop offset="1" stop-color="#FFE2AF"/>
</linearGradient>
<linearGradient id="paint1_linear" x1="177.524" y1="-38.6" x2="-75.5127" y2="172.33" gradientUnits="userSpaceOnUse">
<stop/>
<stop offset="1" stop-color="#FFE2AF"/>
</linearGradient>
<linearGradient id="paint2_linear" x1="177.524" y1="-38.6" x2="-75.5127" y2="172.33" gradientUnits="userSpaceOnUse">
<stop/>
<stop offset="1" stop-color="#FFE2AF"/>
</linearGradient>
<linearGradient id="paint3_linear" x1="177.524" y1="-38.6" x2="-75.5127" y2="172.33" gradientUnits="userSpaceOnUse">
<stop/>
<stop offset="1" stop-color="#FFE2AF"/>
</linearGradient>
<linearGradient id="paint4_linear" x1="177.524" y1="-38.6" x2="-75.5127" y2="172.33" gradientUnits="userSpaceOnUse">
<stop/>
<stop offset="1" stop-color="#FFE2AF"/>
</linearGradient>
<linearGradient id="paint5_linear" x1="177.524" y1="-38.6" x2="-75.5127" y2="172.33" gradientUnits="userSpaceOnUse">
<stop/>
<stop offset="1" stop-color="#FFE2AF"/>
</linearGradient>
<linearGradient id="paint6_linear" x1="177.524" y1="-38.6" x2="-75.5127" y2="172.33" gradientUnits="userSpaceOnUse">
<stop/>
<stop offset="1" stop-color="#FFE2AF"/>
</linearGradient>
<linearGradient id="paint7_linear" x1="177.524" y1="-38.6" x2="-75.5127" y2="172.33" gradientUnits="userSpaceOnUse">
<stop/>
<stop offset="1" stop-color="#FFE2AF"/>
</linearGradient>
<linearGradient id="paint8_linear" x1="177.524" y1="-38.6" x2="-75.5127" y2="172.33" gradientUnits="userSpaceOnUse">
<stop/>
<stop offset="1" stop-color="#FFE2AF"/>
</linearGradient>
<linearGradient id="paint9_linear" x1="177.524" y1="-38.6" x2="-75.5127" y2="172.33" gradientUnits="userSpaceOnUse">
<stop/>
<stop offset="1" stop-color="#FFE2AF"/>
</linearGradient>
<linearGradient id="paint10_linear" x1="177.524" y1="-38.6" x2="-75.5127" y2="172.33" gradientUnits="userSpaceOnUse">
<stop/>
<stop offset="1" stop-color="#FFE2AF"/>
</linearGradient>
<linearGradient id="paint11_linear" x1="177.524" y1="-38.6" x2="-75.5127" y2="172.33" gradientUnits="userSpaceOnUse">
<stop/>
<stop offset="1" stop-color="#FFE2AF"/>
</linearGradient>
<linearGradient id="paint12_linear" x1="177.524" y1="-38.6" x2="-75.5127" y2="172.33" gradientUnits="userSpaceOnUse">
<stop/>
<stop offset="1" stop-color="#FFE2AF"/>
</linearGradient>
<linearGradient id="paint13_linear" x1="177.524" y1="-38.6" x2="-75.5127" y2="172.33" gradientUnits="userSpaceOnUse">
<stop/>
<stop offset="1" stop-color="#FFE2AF"/>
</linearGradient>
<linearGradient id="paint14_linear" x1="177.524" y1="-38.6" x2="-75.5127" y2="172.33" gradientUnits="userSpaceOnUse">
<stop/>
<stop offset="1" stop-color="#FFE2AF"/>
</linearGradient>
<linearGradient id="paint15_linear" x1="177.524" y1="-38.6" x2="-75.5127" y2="172.33" gradientUnits="userSpaceOnUse">
<stop/>
<stop offset="1" stop-color="#FFE2AF"/>
</linearGradient>
<linearGradient id="paint16_linear" x1="177.524" y1="-38.6" x2="-75.5127" y2="172.33" gradientUnits="userSpaceOnUse">
<stop/>
<stop offset="1" stop-color="#FFE2AF"/>
</linearGradient>
<linearGradient id="paint17_linear" x1="177.524" y1="-38.6" x2="-75.5127" y2="172.33" gradientUnits="userSpaceOnUse">
<stop/>
<stop offset="1" stop-color="#FFE2AF"/>
</linearGradient>
<linearGradient id="paint18_linear" x1="177.524" y1="-38.6" x2="-75.5127" y2="172.33" gradientUnits="userSpaceOnUse">
<stop/>
<stop offset="1" stop-color="#FFE2AF"/>
</linearGradient>
<linearGradient id="paint19_linear" x1="177.524" y1="-38.6" x2="-75.5127" y2="172.33" gradientUnits="userSpaceOnUse">
<stop/>
<stop offset="1" stop-color="#FFE2AF"/>
</linearGradient>
<linearGradient id="paint20_linear" x1="177.524" y1="-38.6" x2="-75.5127" y2="172.33" gradientUnits="userSpaceOnUse">
<stop/>
<stop offset="1" stop-color="#FFE2AF"/>
</linearGradient>
<linearGradient id="paint21_linear" x1="177.524" y1="-38.6" x2="-75.5127" y2="172.33" gradientUnits="userSpaceOnUse">
<stop/>
<stop offset="1" stop-color="#FFE2AF"/>
</linearGradient>
<linearGradient id="paint22_linear" x1="177.524" y1="-38.6" x2="-75.5127" y2="172.33" gradientUnits="userSpaceOnUse">
<stop/>
<stop offset="1" stop-color="#FFE2AF"/>
</linearGradient>
<linearGradient id="paint23_linear" x1="177.524" y1="-38.6" x2="-75.5127" y2="172.33" gradientUnits="userSpaceOnUse">
<stop/>
<stop offset="1" stop-color="#FFE2AF"/>
</linearGradient>
<linearGradient id="paint24_linear" x1="177.524" y1="-38.6" x2="-75.5127" y2="172.33" gradientUnits="userSpaceOnUse">
<stop/>
<stop offset="1" stop-color="#FFE2AF"/>
</linearGradient>
<linearGradient id="paint25_linear" x1="177.524" y1="-38.6" x2="-75.5127" y2="172.33" gradientUnits="userSpaceOnUse">
<stop/>
<stop offset="1" stop-color="#FFE2AF"/>
</linearGradient>
<linearGradient id="paint26_linear" x1="177.524" y1="-38.6" x2="-75.5127" y2="172.33" gradientUnits="userSpaceOnUse">
<stop/>
<stop offset="1" stop-color="#FFE2AF"/>
</linearGradient>
<linearGradient id="paint27_linear" x1="177.524" y1="-38.6" x2="-75.5127" y2="172.33" gradientUnits="userSpaceOnUse">
<stop/>
<stop offset="1" stop-color="#FFE2AF"/>
</linearGradient>
<linearGradient id="paint28_linear" x1="177.524" y1="-38.6" x2="-75.5127" y2="172.33" gradientUnits="userSpaceOnUse">
<stop/>
<stop offset="1" stop-color="#FFE2AF"/>
</linearGradient>
<linearGradient id="paint29_linear" x1="177.524" y1="-38.6" x2="-75.5127" y2="172.33" gradientUnits="userSpaceOnUse">
<stop/>
<stop offset="1" stop-color="#FFE2AF"/>
</linearGradient>
<linearGradient id="paint30_linear" x1="177.524" y1="-38.6" x2="-75.5127" y2="172.33" gradientUnits="userSpaceOnUse">
<stop/>
<stop offset="1" stop-color="#FFE2AF"/>
</linearGradient>
<linearGradient id="paint31_linear" x1="177.524" y1="-38.6" x2="-75.5127" y2="172.33" gradientUnits="userSpaceOnUse">
<stop/>
<stop offset="1" stop-color="#FFE2AF"/>
</linearGradient>
<linearGradient id="paint32_linear" x1="177.524" y1="-38.6" x2="-75.5127" y2="172.33" gradientUnits="userSpaceOnUse">
<stop/>
<stop offset="1" stop-color="#FFE2AF"/>
</linearGradient>
<linearGradient id="paint33_linear" x1="177.524" y1="-38.6" x2="-75.5127" y2="172.33" gradientUnits="userSpaceOnUse">
<stop/>
<stop offset="1" stop-color="#FFE2AF"/>
</linearGradient>
<linearGradient id="paint34_linear" x1="177.524" y1="-38.6" x2="-75.5127" y2="172.33" gradientUnits="userSpaceOnUse">
<stop/>
<stop offset="1" stop-color="#FFE2AF"/>
</linearGradient>
<linearGradient id="paint35_linear" x1="177.524" y1="-38.6" x2="-75.5127" y2="172.33" gradientUnits="userSpaceOnUse">
<stop/>
<stop offset="1" stop-color="#FFE2AF"/>
</linearGradient>
<linearGradient id="paint36_linear" x1="177.524" y1="-38.6" x2="-75.5127" y2="172.33" gradientUnits="userSpaceOnUse">
<stop/>
<stop offset="1" stop-color="#FFE2AF"/>
</linearGradient>
<linearGradient id="paint37_linear" x1="177.524" y1="-38.6" x2="-75.5127" y2="172.33" gradientUnits="userSpaceOnUse">
<stop/>
<stop offset="1" stop-color="#FFE2AF"/>
</linearGradient>
<linearGradient id="paint38_linear" x1="177.524" y1="-38.6" x2="-75.5127" y2="172.33" gradientUnits="userSpaceOnUse">
<stop/>
<stop offset="1" stop-color="#FFE2AF"/>
</linearGradient>
<linearGradient id="paint39_linear" x1="177.524" y1="-38.6" x2="-75.5127" y2="172.33" gradientUnits="userSpaceOnUse">
<stop/>
<stop offset="1" stop-color="#FFE2AF"/>
</linearGradient>
<linearGradient id="paint40_linear" x1="177.524" y1="-38.6" x2="-75.5127" y2="172.33" gradientUnits="userSpaceOnUse">
<stop/>
<stop offset="1" stop-color="#FFE2AF"/>
</linearGradient>
<linearGradient id="paint41_linear" x1="177.524" y1="-38.6" x2="-75.5127" y2="172.33" gradientUnits="userSpaceOnUse">
<stop/>
<stop offset="1" stop-color="#FFE2AF"/>
</linearGradient>
<linearGradient id="paint42_linear" x1="177.524" y1="-38.6" x2="-75.5127" y2="172.33" gradientUnits="userSpaceOnUse">
<stop/>
<stop offset="1" stop-color="#FFE2AF"/>
</linearGradient>
<linearGradient id="paint43_linear" x1="177.524" y1="-38.6" x2="-75.5127" y2="172.33" gradientUnits="userSpaceOnUse">
<stop/>
<stop offset="1" stop-color="#FFE2AF"/>
</linearGradient>
<linearGradient id="paint44_linear" x1="177.524" y1="-38.6" x2="-75.5127" y2="172.33" gradientUnits="userSpaceOnUse">
<stop/>
<stop offset="1" stop-color="#FFE2AF"/>
</linearGradient>
<linearGradient id="paint45_linear" x1="177.524" y1="-38.6" x2="-75.5127" y2="172.33" gradientUnits="userSpaceOnUse">
<stop/>
<stop offset="1" stop-color="#FFE2AF"/>
</linearGradient>
<linearGradient id="paint46_linear" x1="177.524" y1="-38.6" x2="-75.5127" y2="172.33" gradientUnits="userSpaceOnUse">
<stop/>
<stop offset="1" stop-color="#FFE2AF"/>
</linearGradient>
<linearGradient id="paint47_linear" x1="177.524" y1="-38.6" x2="-75.5127" y2="172.33" gradientUnits="userSpaceOnUse">
<stop/>
<stop offset="1" stop-color="#FFE2AF"/>
</linearGradient>
<linearGradient id="paint48_linear" x1="177.524" y1="-38.6" x2="-75.5127" y2="172.33" gradientUnits="userSpaceOnUse">
<stop/>
<stop offset="1" stop-color="#FFE2AF"/>
</linearGradient>
<linearGradient id="paint49_linear" x1="177.524" y1="-38.6" x2="-75.5127" y2="172.33" gradientUnits="userSpaceOnUse">
<stop/>
<stop offset="1" stop-color="#FFE2AF"/>
</linearGradient>
<linearGradient id="paint50_linear" x1="177.524" y1="-38.6" x2="-75.5127" y2="172.33" gradientUnits="userSpaceOnUse">
<stop/>
<stop offset="1" stop-color="#FFE2AF"/>
</linearGradient>
<linearGradient id="paint51_linear" x1="177.524" y1="-38.6" x2="-75.5127" y2="172.33" gradientUnits="userSpaceOnUse">
<stop/>
<stop offset="1" stop-color="#FFE2AF"/>
</linearGradient>
<linearGradient id="paint52_linear" x1="177.524" y1="-38.6" x2="-75.5127" y2="172.33" gradientUnits="userSpaceOnUse">
<stop/>
<stop offset="1" stop-color="#FFE2AF"/>
</linearGradient>
<linearGradient id="paint53_linear" x1="177.524" y1="-38.6" x2="-75.5127" y2="172.33" gradientUnits="userSpaceOnUse">
<stop/>
<stop offset="1" stop-color="#FFE2AF"/>
</linearGradient>
<linearGradient id="paint54_linear" x1="177.524" y1="-38.6" x2="-75.5127" y2="172.33" gradientUnits="userSpaceOnUse">
<stop/>
<stop offset="1" stop-color="#FFE2AF"/>
</linearGradient>
<linearGradient id="paint55_linear" x1="177.524" y1="-38.6" x2="-75.5127" y2="172.33" gradientUnits="userSpaceOnUse">
<stop/>
<stop offset="1" stop-color="#FFE2AF"/>
</linearGradient>
<linearGradient id="paint56_linear" x1="177.524" y1="-38.6" x2="-75.5127" y2="172.33" gradientUnits="userSpaceOnUse">
<stop/>
<stop offset="1" stop-color="#FFE2AF"/>
</linearGradient>
<linearGradient id="paint57_linear" x1="177.524" y1="-38.6" x2="-75.5127" y2="172.33" gradientUnits="userSpaceOnUse">
<stop/>
<stop offset="1" stop-color="#FFE2AF"/>
</linearGradient>
<linearGradient id="paint58_linear" x1="177.524" y1="-38.6" x2="-75.5127" y2="172.33" gradientUnits="userSpaceOnUse">
<stop/>
<stop offset="1" stop-color="#FFE2AF"/>
</linearGradient>
<linearGradient id="paint59_linear" x1="177.524" y1="-38.6" x2="-75.5127" y2="172.33" gradientUnits="userSpaceOnUse">
<stop/>
<stop offset="1" stop-color="#FFE2AF"/>
</linearGradient>
<linearGradient id="paint60_linear" x1="177.524" y1="-38.6" x2="-75.5127" y2="172.33" gradientUnits="userSpaceOnUse">
<stop/>
<stop offset="1" stop-color="#FFE2AF"/>
</linearGradient>
<linearGradient id="paint61_linear" x1="177.524" y1="-38.6" x2="-75.5127" y2="172.33" gradientUnits="userSpaceOnUse">
<stop/>
<stop offset="1" stop-color="#FFE2AF"/>
</linearGradient>
<linearGradient id="paint62_linear" x1="177.524" y1="-38.6" x2="-75.5127" y2="172.33" gradientUnits="userSpaceOnUse">
<stop/>
<stop offset="1" stop-color="#FFE2AF"/>
</linearGradient>
<linearGradient id="paint63_linear" x1="177.524" y1="-38.6" x2="-75.5127" y2="172.33" gradientUnits="userSpaceOnUse">
<stop/>
<stop offset="1" stop-color="#FFE2AF"/>
</linearGradient>
<linearGradient id="paint64_linear" x1="177.524" y1="-38.6" x2="-75.5127" y2="172.33" gradientUnits="userSpaceOnUse">
<stop/>
<stop offset="1" stop-color="#FFE2AF"/>
</linearGradient>
<linearGradient id="paint65_linear" x1="177.524" y1="-38.6" x2="-75.5127" y2="172.33" gradientUnits="userSpaceOnUse">
<stop/>
<stop offset="1" stop-color="#FFE2AF"/>
</linearGradient>
<linearGradient id="paint66_linear" x1="177.524" y1="-38.6" x2="-75.5127" y2="172.33" gradientUnits="userSpaceOnUse">
<stop/>
<stop offset="1" stop-color="#FFE2AF"/>
</linearGradient>
<linearGradient id="paint67_linear" x1="177.524" y1="-38.6" x2="-75.5127" y2="172.33" gradientUnits="userSpaceOnUse">
<stop/>
<stop offset="1" stop-color="#FFE2AF"/>
</linearGradient>
<linearGradient id="paint68_linear" x1="177.524" y1="-38.6" x2="-75.5127" y2="172.33" gradientUnits="userSpaceOnUse">
<stop/>
<stop offset="1" stop-color="#FFE2AF"/>
</linearGradient>
<linearGradient id="paint69_linear" x1="177.524" y1="-38.6" x2="-75.5127" y2="172.33" gradientUnits="userSpaceOnUse">
<stop/>
<stop offset="1" stop-color="#FFE2AF"/>
</linearGradient>
<linearGradient id="paint70_linear" x1="177.524" y1="-38.6" x2="-75.5127" y2="172.33" gradientUnits="userSpaceOnUse">
<stop/>
<stop offset="1" stop-color="#FFE2AF"/>
</linearGradient>
<linearGradient id="paint71_linear" x1="177.524" y1="-38.6" x2="-75.5127" y2="172.33" gradientUnits="userSpaceOnUse">
<stop/>
<stop offset="1" stop-color="#FFE2AF"/>
</linearGradient>
<linearGradient id="paint72_linear" x1="177.524" y1="-38.6" x2="-75.5127" y2="172.33" gradientUnits="userSpaceOnUse">
<stop/>
<stop offset="1" stop-color="#FFE2AF"/>
</linearGradient>
<linearGradient id="paint73_linear" x1="177.524" y1="-38.6" x2="-75.5127" y2="172.33" gradientUnits="userSpaceOnUse">
<stop/>
<stop offset="1" stop-color="#FFE2AF"/>
</linearGradient>
<linearGradient id="paint74_linear" x1="177.524" y1="-38.6" x2="-75.5127" y2="172.33" gradientUnits="userSpaceOnUse">
<stop/>
<stop offset="1" stop-color="#FFE2AF"/>
</linearGradient>
<linearGradient id="paint75_linear" x1="177.524" y1="-38.6" x2="-75.5127" y2="172.33" gradientUnits="userSpaceOnUse">
<stop/>
<stop offset="1" stop-color="#FFE2AF"/>
</linearGradient>
<linearGradient id="paint76_linear" x1="177.524" y1="-38.6" x2="-75.5127" y2="172.33" gradientUnits="userSpaceOnUse">
<stop/>
<stop offset="1" stop-color="#FFE2AF"/>
</linearGradient>
<linearGradient id="paint77_linear" x1="177.524" y1="-38.6" x2="-75.5127" y2="172.33" gradientUnits="userSpaceOnUse">
<stop/>
<stop offset="1" stop-color="#FFE2AF"/>
</linearGradient>
<linearGradient id="paint78_linear" x1="177.524" y1="-38.6" x2="-75.5127" y2="172.33" gradientUnits="userSpaceOnUse">
<stop/>
<stop offset="1" stop-color="#FFE2AF"/>
</linearGradient>
<linearGradient id="paint79_linear" x1="177.524" y1="-38.6" x2="-75.5127" y2="172.33" gradientUnits="userSpaceOnUse">
<stop/>
<stop offset="1" stop-color="#FFE2AF"/>
</linearGradient>
<linearGradient id="paint80_linear" x1="177.524" y1="-38.6" x2="-75.5127" y2="172.33" gradientUnits="userSpaceOnUse">
<stop/>
<stop offset="1" stop-color="#FFE2AF"/>
</linearGradient>
<linearGradient id="paint81_linear" x1="177.524" y1="-38.6" x2="-75.5127" y2="172.33" gradientUnits="userSpaceOnUse">
<stop/>
<stop offset="1" stop-color="#FFE2AF"/>
</linearGradient>
<linearGradient id="paint82_linear" x1="177.524" y1="-38.6" x2="-75.5127" y2="172.33" gradientUnits="userSpaceOnUse">
<stop/>
<stop offset="1" stop-color="#FFE2AF"/>
</linearGradient>
<linearGradient id="paint83_linear" x1="177.524" y1="-38.6" x2="-75.5127" y2="172.33" gradientUnits="userSpaceOnUse">
<stop/>
<stop offset="1" stop-color="#FFE2AF"/>
</linearGradient>
<linearGradient id="paint84_linear" x1="177.524" y1="-38.6" x2="-75.5127" y2="172.33" gradientUnits="userSpaceOnUse">
<stop/>
<stop offset="1" stop-color="#FFE2AF"/>
</linearGradient>
<linearGradient id="paint85_linear" x1="177.524" y1="-38.6" x2="-75.5127" y2="172.33" gradientUnits="userSpaceOnUse">
<stop/>
<stop offset="1" stop-color="#FFE2AF"/>
</linearGradient>
<linearGradient id="paint86_linear" x1="177.524" y1="-38.6" x2="-75.5127" y2="172.33" gradientUnits="userSpaceOnUse">
<stop/>
<stop offset="1" stop-color="#FFE2AF"/>
</linearGradient>
<linearGradient id="paint87_linear" x1="177.524" y1="-38.6" x2="-75.5127" y2="172.33" gradientUnits="userSpaceOnUse">
<stop/>
<stop offset="1" stop-color="#FFE2AF"/>
</linearGradient>
<linearGradient id="paint88_linear" x1="177.524" y1="-38.6" x2="-75.5127" y2="172.33" gradientUnits="userSpaceOnUse">
<stop/>
<stop offset="1" stop-color="#FFE2AF"/>
</linearGradient>
<linearGradient id="paint89_linear" x1="177.524" y1="-38.6" x2="-75.5127" y2="172.33" gradientUnits="userSpaceOnUse">
<stop/>
<stop offset="1" stop-color="#FFE2AF"/>
</linearGradient>
<linearGradient id="paint90_linear" x1="177.524" y1="-38.6" x2="-75.5127" y2="172.33" gradientUnits="userSpaceOnUse">
<stop/>
<stop offset="1" stop-color="#FFE2AF"/>
</linearGradient>
<linearGradient id="paint91_linear" x1="177.524" y1="-38.6" x2="-75.5127" y2="172.33" gradientUnits="userSpaceOnUse">
<stop/>
<stop offset="1" stop-color="#FFE2AF"/>
</linearGradient>
<linearGradient id="paint92_linear" x1="177.524" y1="-38.6" x2="-75.5127" y2="172.33" gradientUnits="userSpaceOnUse">
<stop/>
<stop offset="1" stop-color="#FFE2AF"/>
</linearGradient>
<linearGradient id="paint93_linear" x1="177.524" y1="-38.6" x2="-75.5127" y2="172.33" gradientUnits="userSpaceOnUse">
<stop/>
<stop offset="1" stop-color="#FFE2AF"/>
</linearGradient>
<linearGradient id="paint94_linear" x1="177.524" y1="-38.6" x2="-75.5127" y2="172.33" gradientUnits="userSpaceOnUse">
<stop/>
<stop offset="1" stop-color="#FFE2AF"/>
</linearGradient>
<linearGradient id="paint95_linear" x1="177.524" y1="-38.6" x2="-75.5127" y2="172.33" gradientUnits="userSpaceOnUse">
<stop/>
<stop offset="1" stop-color="#FFE2AF"/>
</linearGradient>
<linearGradient id="paint96_linear" x1="177.524" y1="-38.6" x2="-75.5127" y2="172.33" gradientUnits="userSpaceOnUse">
<stop/>
<stop offset="1" stop-color="#FFE2AF"/>
</linearGradient>
<linearGradient id="paint97_linear" x1="177.524" y1="-38.6" x2="-75.5127" y2="172.33" gradientUnits="userSpaceOnUse">
<stop/>
<stop offset="1" stop-color="#FFE2AF"/>
</linearGradient>
<linearGradient id="paint98_linear" x1="177.524" y1="-38.6" x2="-75.5127" y2="172.33" gradientUnits="userSpaceOnUse">
<stop/>
<stop offset="1" stop-color="#FFE2AF"/>
</linearGradient>
<linearGradient id="paint99_linear" x1="177.524" y1="-38.6" x2="-75.5127" y2="172.33" gradientUnits="userSpaceOnUse">
<stop/>
<stop offset="1" stop-color="#FFE2AF"/>
</linearGradient>
<linearGradient id="paint100_linear" x1="177.524" y1="-38.6" x2="-75.5127" y2="172.33" gradientUnits="userSpaceOnUse">
<stop/>
<stop offset="1" stop-color="#FFE2AF"/>
</linearGradient>
<linearGradient id="paint101_linear" x1="177.524" y1="-38.6" x2="-75.5127" y2="172.33" gradientUnits="userSpaceOnUse">
<stop/>
<stop offset="1" stop-color="#FFE2AF"/>
</linearGradient>
<linearGradient id="paint102_linear" x1="177.524" y1="-38.6" x2="-75.5127" y2="172.33" gradientUnits="userSpaceOnUse">
<stop/>
<stop offset="1" stop-color="#FFE2AF"/>
</linearGradient>
</defs>
</svg>
