<svg width="678" height="151" viewBox="0 0 678 151" fill="none" xmlns="http://www.w3.org/2000/svg">
<path d="M31.9557 107C23.0567 107 15.5059 103.881 9.30357 97.6426C3.10119 91.4043 0 81.3688 0 67.5361C0 50.1774 4.85404 35.2598 14.5621 22.7833C24.2702 10.0355 37.6188 2.44107 54.6079 0L56.2259 13.019C49.7539 13.8327 43.2818 16.4094 36.8098 20.749C30.6074 24.8175 27.5062 29.8352 27.5062 35.8023C27.5062 38.7858 28.1804 40.82 29.5287 41.905C31.1467 42.9899 33.5737 44.0748 36.8098 45.1597C54.0686 50.0418 62.6979 60.0773 62.6979 75.2661C62.6979 84.2167 59.8664 91.8111 54.2034 98.0494C48.81 104.016 41.3941 107 31.9557 107ZM110.025 107C101.126 107 93.575 103.881 87.3726 97.6426C81.1702 91.1331 78.069 80.962 78.069 67.1293C78.069 50.0418 82.9231 35.2598 92.6312 22.7833C102.339 10.0355 115.688 2.44107 132.677 0L134.295 12.6122C127.553 13.6971 121.081 16.2738 114.879 20.3422C108.676 24.4106 105.575 29.4284 105.575 35.3954C105.575 38.379 106.249 40.4132 107.598 41.4981C109.216 42.583 111.643 43.6679 114.879 44.7529C132.138 49.635 140.767 59.8061 140.767 75.2661C140.767 84.2167 137.935 91.8111 132.272 98.0494C126.879 104.016 119.463 107 110.025 107Z" fill="#FFEECA"/>
<path d="M111.881 55.115C111.132 50.9732 107.818 48.5275 103.756 48.5275C98.5881 48.5275 94.8407 52.5116 94.8407 58.9019C94.8407 65.2921 98.5881 69.2762 103.756 69.2762C107.818 69.2762 111.132 66.8306 111.881 62.6887H109.436C108.844 65.4894 106.438 66.9883 103.756 66.9883C100.087 66.9883 97.2075 64.1482 97.2075 58.9019C97.2075 53.6555 100.087 50.8154 103.756 50.8154C106.438 50.8154 108.844 52.3144 109.436 55.115H111.881Z" fill="black"/>
<path d="M117.845 59.888C117.845 57.2451 119.532 55.7462 121.829 55.7462C124.019 55.7462 125.34 57.1268 125.34 59.533V69.0001H127.667V59.3752C127.667 55.4799 125.596 53.6555 122.5 53.6555C120.113 53.6555 118.752 54.6515 118.042 56.2195H117.845V48.8036H115.518V69.0001H117.845V59.888Z" fill="black"/>
<path d="M136.382 69.3551C139.025 69.3551 140.406 67.935 140.879 66.9489H140.998V69.0001H143.325V59.0202C143.325 54.2078 139.656 53.6555 137.724 53.6555C135.436 53.6555 132.832 54.4444 131.649 57.2057L133.858 57.9946C134.371 56.8901 135.584 55.7067 137.803 55.7067C139.942 55.7067 140.998 56.8408 140.998 58.7835V58.8624C140.998 59.9866 139.854 59.888 137.092 60.243C134.282 60.6079 131.215 61.2292 131.215 64.7005C131.215 67.6589 133.503 69.3551 136.382 69.3551ZM136.737 67.2645C134.883 67.2645 133.542 66.4361 133.542 64.8188C133.542 63.0437 135.16 62.4915 136.974 62.2548C137.96 62.1365 140.603 61.8603 140.998 61.387V63.5171C140.998 65.4105 139.499 67.2645 136.737 67.2645Z" fill="black"/>
<path d="M149.9 59.888C149.9 57.2451 151.537 55.7462 153.766 55.7462C155.926 55.7462 157.237 57.1564 157.237 59.533V69.0001H159.564V59.3752C159.564 55.5095 157.503 53.6555 154.436 53.6555C152.149 53.6555 150.729 54.6811 150.018 56.2195H149.821V53.8528H147.573V69.0001H149.9V59.888Z" fill="black"/>
<path d="M169.931 74.9959C173.56 74.9959 176.479 73.3392 176.479 69.434V53.8528H174.231V56.259H173.994C173.482 55.47 172.535 53.6555 169.576 53.6555C165.75 53.6555 163.107 56.6929 163.107 61.3475C163.107 66.0811 165.868 68.7634 169.537 68.7634C172.495 68.7634 173.442 67.0278 173.955 66.1994H174.152V69.2762C174.152 71.8008 172.377 72.9447 169.931 72.9447C167.18 72.9447 166.214 71.4951 165.592 70.6568L163.738 71.9586C164.685 73.5463 166.549 74.9959 169.931 74.9959ZM169.853 66.6728C166.934 66.6728 165.435 64.4638 165.435 61.3081C165.435 58.2313 166.894 55.7462 169.853 55.7462C172.693 55.7462 174.192 58.0341 174.192 61.3081C174.192 64.661 172.653 66.6728 169.853 66.6728Z" fill="black"/>
<path d="M180.74 69.0001H183.067V53.8528H180.74V69.0001ZM181.923 51.3282C182.83 51.3282 183.58 50.6182 183.58 49.7504C183.58 48.8825 182.83 48.1725 181.923 48.1725C181.016 48.1725 180.266 48.8825 180.266 49.7504C180.266 50.6182 181.016 51.3282 181.923 51.3282Z" fill="black"/>
<path d="M189.657 59.888C189.657 57.2451 191.294 55.7462 193.523 55.7462C195.682 55.7462 196.994 57.1564 196.994 59.533V69.0001H199.321V59.3752C199.321 55.5095 197.26 53.6555 194.193 53.6555C191.905 53.6555 190.485 54.6811 189.775 56.2195H189.578V53.8528H187.33V69.0001H189.657V59.888Z" fill="black"/>
<path d="M209.688 74.9959C213.317 74.9959 216.236 73.3392 216.236 69.434V53.8528H213.988V56.259H213.751C213.238 55.47 212.292 53.6555 209.333 53.6555C205.507 53.6555 202.864 56.6929 202.864 61.3475C202.864 66.0811 205.625 68.7634 209.294 68.7634C212.252 68.7634 213.199 67.0278 213.712 66.1994H213.909V69.2762C213.909 71.8008 212.134 72.9447 209.688 72.9447C206.937 72.9447 205.97 71.4951 205.349 70.6568L203.495 71.9586C204.442 73.5463 206.306 74.9959 209.688 74.9959ZM209.609 66.6728C206.69 66.6728 205.191 64.4638 205.191 61.3081C205.191 58.2313 206.651 55.7462 209.609 55.7462C212.449 55.7462 213.948 58.0341 213.948 61.3081C213.948 64.661 212.41 66.6728 209.609 66.6728Z" fill="black"/>
<path d="M228.307 74.6803H230.634V66.6728H230.831C231.344 67.5011 232.33 69.3157 235.249 69.3157C239.036 69.3157 241.679 66.2783 241.679 61.4659C241.679 56.6929 239.036 53.6555 235.21 53.6555C232.251 53.6555 231.344 55.47 230.831 56.259H230.555V53.8528H228.307V74.6803ZM230.595 61.4264C230.595 58.0341 232.094 55.7462 234.934 55.7462C237.892 55.7462 239.352 58.2313 239.352 61.4264C239.352 64.661 237.853 67.225 234.934 67.225C232.133 67.225 230.595 64.8582 230.595 61.4264Z" fill="black"/>
<path d="M251.58 69.3157C254.657 69.3157 256.905 67.7773 257.615 65.4894L255.367 64.8582C254.775 66.4361 253.404 67.225 251.58 67.225C248.848 67.225 246.965 65.4598 246.856 62.2153H257.852V61.2292C257.852 55.5884 254.499 53.6555 251.343 53.6555C247.241 53.6555 244.519 56.8901 244.519 61.5448C244.519 66.1994 247.202 69.3157 251.58 69.3157ZM246.856 60.2036C247.014 57.8467 248.681 55.7462 251.343 55.7462C253.868 55.7462 255.485 57.6396 255.485 60.2036H246.856Z" fill="black"/>
<path d="M267.546 69.3157C271.648 69.3157 274.41 66.1994 274.41 61.5053C274.41 56.7718 271.648 53.6555 267.546 53.6555C263.444 53.6555 260.682 56.7718 260.682 61.5053C260.682 66.1994 263.444 69.3157 267.546 69.3157ZM267.546 67.225C264.43 67.225 263.01 64.5427 263.01 61.5053C263.01 58.468 264.43 55.7462 267.546 55.7462C270.662 55.7462 272.082 58.468 272.082 61.5053C272.082 64.5427 270.662 67.225 267.546 67.225Z" fill="black"/>
<path d="M277.962 74.6803H280.29V66.6728H280.487C281 67.5011 281.986 69.3157 284.905 69.3157C288.692 69.3157 291.334 66.2783 291.334 61.4659C291.334 56.6929 288.692 53.6555 284.865 53.6555C281.907 53.6555 281 55.47 280.487 56.259H280.211V53.8528H277.962V74.6803ZM280.25 61.4264C280.25 58.0341 281.749 55.7462 284.589 55.7462C287.548 55.7462 289.007 58.2313 289.007 61.4264C289.007 64.661 287.508 67.225 284.589 67.225C281.788 67.225 280.25 64.8582 280.25 61.4264Z" fill="black"/>
<path d="M297.212 48.8036H294.885V69.0001H297.212V48.8036Z" fill="black"/>
<path d="M307.825 69.3157C310.902 69.3157 313.151 67.7773 313.861 65.4894L311.612 64.8582C311.021 66.4361 309.65 67.225 307.825 67.225C305.094 67.225 303.21 65.4598 303.102 62.2153H314.097V61.2292C314.097 55.5884 310.744 53.6555 307.589 53.6555C303.486 53.6555 300.765 56.8901 300.765 61.5448C300.765 66.1994 303.447 69.3157 307.825 69.3157ZM303.102 60.2036C303.26 57.8467 304.926 55.7462 307.589 55.7462C310.113 55.7462 311.731 57.6396 311.731 60.2036H303.102Z" fill="black"/>
<path d="M319.689 48.8036H317.48V50.6182C317.48 52.0777 316.77 53.34 315.941 54.5233L317.204 55.5489C318.782 54.2867 319.689 52.196 319.689 50.5787V48.8036Z" fill="black"/>
<path d="M331.35 57.2451C330.62 55.0953 328.983 53.6555 325.985 53.6555C322.79 53.6555 320.424 55.47 320.424 58.0341C320.424 60.1247 321.666 61.525 324.447 62.1759L326.972 62.7676C328.5 63.1226 329.22 63.8524 329.22 64.8977C329.22 66.1994 327.839 67.2645 325.67 67.2645C323.767 67.2645 322.573 66.4459 322.159 64.8188L319.95 65.371C320.493 67.9449 322.613 69.3157 325.709 69.3157C329.23 69.3157 331.626 67.3927 331.626 64.7794C331.626 62.669 330.305 61.3377 327.603 60.6769L325.354 60.1247C323.56 59.6809 322.751 59.0794 322.751 57.9157C322.751 56.614 324.132 55.6673 325.985 55.6673C328.017 55.6673 328.855 56.7915 329.26 57.8368L331.35 57.2451Z" fill="black"/>
<path d="M349.685 53.8528H346.293V52.3144C346.293 50.8154 346.924 50.0265 348.462 50.0265C349.133 50.0265 349.527 50.1843 349.764 50.2632L350.435 48.2514C350.08 48.0936 349.37 47.8569 348.226 47.8569C346.056 47.8569 343.966 49.1587 343.966 51.7621V53.8528H341.52V55.8251H343.966V69.0001H346.293V55.8251H349.685V53.8528Z" fill="black"/>
<path d="M358.674 69.3157C361.751 69.3157 363.999 67.7773 364.709 65.4894L362.461 64.8582C361.869 66.4361 360.498 67.225 358.674 67.225C355.942 67.225 354.059 65.4598 353.95 62.2153H364.946V61.2292C364.946 55.5884 361.593 53.6555 358.437 53.6555C354.335 53.6555 351.613 56.8901 351.613 61.5448C351.613 66.1994 354.295 69.3157 358.674 69.3157ZM353.95 60.2036C354.108 57.8467 355.775 55.7462 358.437 55.7462C360.962 55.7462 362.579 57.6396 362.579 60.2036H353.95Z" fill="black"/>
<path d="M372.944 69.3551C375.587 69.3551 376.967 67.935 377.441 66.9489H377.559V69.0001H379.886V59.0202C379.886 54.2078 376.218 53.6555 374.285 53.6555C371.997 53.6555 369.394 54.4444 368.21 57.2057L370.419 57.9946C370.932 56.8901 372.145 55.7067 374.364 55.7067C376.504 55.7067 377.559 56.8408 377.559 58.7835V58.8624C377.559 59.9866 376.415 59.888 373.654 60.243C370.843 60.6079 367.776 61.2292 367.776 64.7005C367.776 67.6589 370.064 69.3551 372.944 69.3551ZM373.299 67.2645C371.445 67.2645 370.104 66.4361 370.104 64.8188C370.104 63.0437 371.721 62.4915 373.535 62.2548C374.522 62.1365 377.164 61.8603 377.559 61.387V63.5171C377.559 65.4105 376.06 67.2645 373.299 67.2645Z" fill="black"/>
<path d="M390.722 53.8528H387.487V50.2237H385.16V53.8528H382.872V55.8251H385.16V65.2921C385.16 67.935 387.29 69.1973 389.262 69.1973C390.13 69.1973 390.682 69.0395 390.998 68.9212L390.524 66.8306C390.327 66.87 390.012 66.9489 389.499 66.9489C388.473 66.9489 387.487 66.6333 387.487 64.661V55.8251H390.722V53.8528Z" fill="black"/>
<path d="M403.768 62.807C403.768 65.6472 401.599 66.9489 399.863 66.9489C397.93 66.9489 396.55 65.5288 396.55 63.3198V53.8528H394.222V63.4776C394.222 67.3434 396.274 69.1973 399.114 69.1973C401.402 69.1973 402.901 67.9745 403.611 66.4361H403.768V69.0001H406.096V53.8528H403.768V62.807Z" fill="black"/>
<path d="M410.358 69.0001H412.686V59.4147C412.686 57.3635 414.303 55.8645 416.512 55.8645C417.133 55.8645 417.774 55.9828 417.932 56.0223V53.6555C417.666 53.6358 417.054 53.6161 416.709 53.6161C414.895 53.6161 413.317 54.6417 412.765 56.1406H412.607V53.8528H410.358V69.0001Z" fill="black"/>
<path d="M426.581 69.3157C429.657 69.3157 431.906 67.7773 432.616 65.4894L430.367 64.8582C429.776 66.4361 428.405 67.225 426.581 67.225C423.849 67.225 421.965 65.4598 421.857 62.2153H432.853V61.2292C432.853 55.5884 429.5 53.6555 426.344 53.6555C422.242 53.6555 419.52 56.8901 419.52 61.5448C419.52 66.1994 422.202 69.3157 426.581 69.3157ZM421.857 60.2036C422.015 57.8467 423.681 55.7462 426.344 55.7462C428.869 55.7462 430.486 57.6396 430.486 60.2036H421.857Z" fill="black"/>
<path d="M447.122 57.2451C446.392 55.0953 444.755 53.6555 441.758 53.6555C438.562 53.6555 436.196 55.47 436.196 58.0341C436.196 60.1247 437.438 61.525 440.219 62.1759L442.744 62.7676C444.272 63.1226 444.992 63.8524 444.992 64.8977C444.992 66.1994 443.611 67.2645 441.442 67.2645C439.539 67.2645 438.345 66.4459 437.931 64.8188L435.722 65.371C436.265 67.9449 438.385 69.3157 441.481 69.3157C445.002 69.3157 447.398 67.3927 447.398 64.7794C447.398 62.669 446.077 61.3377 443.375 60.6769L441.126 60.1247C439.332 59.6809 438.523 59.0794 438.523 57.9157C438.523 56.614 439.904 55.6673 441.758 55.6673C443.789 55.6673 444.627 56.7915 445.032 57.8368L447.122 57.2451Z" fill="black"/>
<path d="M458.712 69.0001H461.039V53.8528H458.712V69.0001ZM459.895 51.3282C460.803 51.3282 461.552 50.6182 461.552 49.7504C461.552 48.8825 460.803 48.1725 459.895 48.1725C458.988 48.1725 458.239 48.8825 458.239 49.7504C458.239 50.6182 458.988 51.3282 459.895 51.3282Z" fill="black"/>
<path d="M476.031 57.2451C475.302 55.0953 473.665 53.6555 470.667 53.6555C467.472 53.6555 465.105 55.47 465.105 58.0341C465.105 60.1247 466.347 61.525 469.128 62.1759L471.653 62.7676C473.181 63.1226 473.901 63.8524 473.901 64.8977C473.901 66.1994 472.521 67.2645 470.351 67.2645C468.448 67.2645 467.255 66.4459 466.84 64.8188L464.631 65.371C465.174 67.9449 467.294 69.3157 470.391 69.3157C473.911 69.3157 476.307 67.3927 476.307 64.7794C476.307 62.669 474.986 61.3377 472.284 60.6769L470.036 60.1247C468.241 59.6809 467.432 59.0794 467.432 57.9157C467.432 56.614 468.813 55.6673 470.667 55.6673C472.698 55.6673 473.536 56.7915 473.941 57.8368L476.031 57.2451Z" fill="black"/>
<path d="M491.053 69.0001H493.341L496.654 57.3635H496.891L500.204 69.0001H502.492L507.108 53.8528H504.662L501.388 65.4105H501.23L498.035 53.8528H495.55L492.315 65.4499H492.157L488.883 53.8528H486.438L491.053 69.0001Z" fill="black"/>
<path d="M512.512 59.888C512.512 57.2451 514.198 55.7462 516.496 55.7462C518.685 55.7462 520.006 57.1268 520.006 59.533V69.0001H522.334V59.3752C522.334 55.4799 520.263 53.6555 517.166 53.6555C514.78 53.6555 513.419 54.6515 512.709 56.2195H512.512V48.8036H510.184V69.0001H512.512V59.888Z" fill="black"/>
<path d="M531.049 69.3551C533.692 69.3551 535.072 67.935 535.546 66.9489H535.664V69.0001H537.991V59.0202C537.991 54.2078 534.323 53.6555 532.39 53.6555C530.102 53.6555 527.499 54.4444 526.315 57.2057L528.524 57.9946C529.037 56.8901 530.25 55.7067 532.469 55.7067C534.609 55.7067 535.664 56.8408 535.664 58.7835V58.8624C535.664 59.9866 534.52 59.888 531.759 60.243C528.948 60.6079 525.881 61.2292 525.881 64.7005C525.881 67.6589 528.169 69.3551 531.049 69.3551ZM531.404 67.2645C529.55 67.2645 528.209 66.4361 528.209 64.8188C528.209 63.0437 529.826 62.4915 531.641 62.2548C532.627 62.1365 535.27 61.8603 535.664 61.387V63.5171C535.664 65.4105 534.165 67.2645 531.404 67.2645Z" fill="black"/>
<path d="M548.827 53.8528H545.592V50.2237H543.265V53.8528H540.977V55.8251H543.265V65.2921C543.265 67.935 545.395 69.1973 547.367 69.1973C548.235 69.1973 548.787 69.0395 549.103 68.9212L548.63 66.8306C548.432 66.87 548.117 66.9489 547.604 66.9489C546.578 66.9489 545.592 66.6333 545.592 64.661V55.8251H548.827V53.8528Z" fill="black"/>
<path d="M566.292 69.3157C569.645 69.3157 571.854 67.2645 572.248 64.5821H569.921C569.487 66.2389 568.106 67.225 566.292 67.225C563.53 67.225 561.755 64.9371 561.755 61.4264C561.755 57.9946 563.57 55.7462 566.292 55.7462C568.343 55.7462 569.566 57.0084 569.921 58.3891H572.248C571.854 55.5489 569.447 53.6555 566.252 53.6555C562.15 53.6555 559.428 56.8901 559.428 61.5053C559.428 66.0416 562.031 69.3157 566.292 69.3157Z" fill="black"/>
<path d="M580.108 69.3551C582.751 69.3551 584.131 67.935 584.605 66.9489H584.723V69.0001H587.05V59.0202C587.05 54.2078 583.382 53.6555 581.449 53.6555C579.161 53.6555 576.558 54.4444 575.374 57.2057L577.583 57.9946C578.096 56.8901 579.309 55.7067 581.528 55.7067C583.668 55.7067 584.723 56.8408 584.723 58.7835V58.8624C584.723 59.9866 583.579 59.888 580.818 60.243C578.007 60.6079 574.94 61.2292 574.94 64.7005C574.94 67.6589 577.228 69.3551 580.108 69.3551ZM580.463 67.2645C578.609 67.2645 577.268 66.4361 577.268 64.8188C577.268 63.0437 578.885 62.4915 580.699 62.2548C581.685 62.1365 584.328 61.8603 584.723 61.387V63.5171C584.723 65.4105 583.224 67.2645 580.463 67.2645Z" fill="black"/>
<path d="M600.844 62.807C600.844 65.6472 598.674 66.9489 596.939 66.9489C595.006 66.9489 593.625 65.5288 593.625 63.3198V53.8528H591.298V63.4776C591.298 67.3434 593.349 69.1973 596.189 69.1973C598.477 69.1973 599.976 67.9745 600.686 66.4361H600.844V69.0001H603.171V53.8528H600.844V62.807Z" fill="black"/>
<path d="M618.163 57.2451C617.434 55.0953 615.797 53.6555 612.799 53.6555C609.604 53.6555 607.237 55.47 607.237 58.0341C607.237 60.1247 608.479 61.525 611.26 62.1759L613.785 62.7676C615.313 63.1226 616.033 63.8524 616.033 64.8977C616.033 66.1994 614.653 67.2645 612.483 67.2645C610.58 67.2645 609.387 66.4459 608.972 64.8188L606.763 65.371C607.306 67.9449 609.426 69.3157 612.523 69.3157C616.043 69.3157 618.44 67.3927 618.44 64.7794C618.44 62.669 617.118 61.3377 614.416 60.6769L612.168 60.1247C610.373 59.6809 609.564 59.0794 609.564 57.9157C609.564 56.614 610.945 55.6673 612.799 55.6673C614.83 55.6673 615.668 56.7915 616.073 57.8368L618.163 57.2451Z" fill="black"/>
<path d="M628.294 69.3157C631.371 69.3157 633.619 67.7773 634.329 65.4894L632.081 64.8582C631.489 66.4361 630.118 67.225 628.294 67.225C625.562 67.225 623.678 65.4598 623.57 62.2153H634.566V61.2292C634.566 55.5884 631.213 53.6555 628.057 53.6555C623.955 53.6555 621.233 56.8901 621.233 61.5448C621.233 66.1994 623.915 69.3157 628.294 69.3157ZM623.57 60.2036C623.728 57.8467 625.394 55.7462 628.057 55.7462C630.582 55.7462 632.199 57.6396 632.199 60.2036H623.57Z" fill="black"/>
<path d="M648.835 57.2451C648.106 55.0953 646.468 53.6555 643.471 53.6555C640.275 53.6555 637.909 55.47 637.909 58.0341C637.909 60.1247 639.151 61.525 641.932 62.1759L644.457 62.7676C645.985 63.1226 646.705 63.8524 646.705 64.8977C646.705 66.1994 645.325 67.2645 643.155 67.2645C641.252 67.2645 640.059 66.4459 639.644 64.8188L637.435 65.371C637.978 67.9449 640.098 69.3157 643.194 69.3157C646.715 69.3157 649.111 67.3927 649.111 64.7794C649.111 62.669 647.79 61.3377 645.088 60.6769L642.839 60.1247C641.045 59.6809 640.236 59.0794 640.236 57.9157C640.236 56.614 641.617 55.6673 643.471 55.6673C645.502 55.6673 646.34 56.7915 646.745 57.8368L648.835 57.2451Z" fill="black"/>
<path d="M101.902 91.8528H98.667V88.2237H96.3396V91.8528H94.0518V93.8251H96.3396V103.292C96.3396 105.935 98.4697 107.197 100.442 107.197C101.31 107.197 101.862 107.04 102.178 106.921L101.704 104.831C101.507 104.87 101.192 104.949 100.679 104.949C99.6531 104.949 98.667 104.633 98.667 102.661V93.8251H101.902V91.8528Z" fill="black"/>
<path d="M108.055 97.888C108.055 95.2451 109.741 93.7462 112.039 93.7462C114.228 93.7462 115.55 95.1268 115.55 97.533V107H117.877V97.3752C117.877 93.4799 115.806 91.6555 112.71 91.6555C110.323 91.6555 108.962 92.6515 108.252 94.2195H108.055V86.8036H105.728V107H108.055V97.888Z" fill="black"/>
<path d="M128.486 107.316C131.563 107.316 133.811 105.777 134.521 103.489L132.273 102.858C131.681 104.436 130.31 105.225 128.486 105.225C125.754 105.225 123.871 103.46 123.762 100.215H134.758V99.2292C134.758 93.5884 131.405 91.6555 128.249 91.6555C124.147 91.6555 121.425 94.8901 121.425 99.5448C121.425 104.199 124.107 107.316 128.486 107.316ZM123.762 98.2036C123.92 95.8467 125.587 93.7462 128.249 93.7462C130.774 93.7462 132.391 95.6396 132.391 98.2036H123.762Z" fill="black"/>
<path d="M151.828 107.316C154.747 107.316 155.733 105.501 156.246 104.673H156.522V107H158.771V86.8036H156.443V94.259H156.246C155.733 93.47 154.826 91.6555 151.868 91.6555C148.041 91.6555 145.398 94.6929 145.398 99.4659C145.398 104.278 148.041 107.316 151.828 107.316ZM152.144 105.225C149.225 105.225 147.726 102.661 147.726 99.4264C147.726 96.2313 149.185 93.7462 152.144 93.7462C154.984 93.7462 156.483 96.034 156.483 99.4264C156.483 102.858 154.944 105.225 152.144 105.225Z" fill="black"/>
<path d="M164.855 112.68C166.956 112.68 168.435 111.566 169.313 109.209L175.762 91.8922L173.218 91.8528L169.036 103.923H168.879L164.697 91.8528H162.173L167.774 107.079L167.34 108.262C166.492 110.57 165.447 110.787 163.751 110.353L163.159 112.404C163.396 112.523 164.066 112.68 164.855 112.68Z" fill="black"/>
<path d="M189.571 95.2451C188.841 93.0953 187.204 91.6555 184.206 91.6555C181.011 91.6555 178.644 93.47 178.644 96.034C178.644 98.1247 179.887 99.525 182.668 100.176L185.192 100.768C186.721 101.123 187.441 101.852 187.441 102.898C187.441 104.199 186.06 105.264 183.89 105.264C181.987 105.264 180.794 104.446 180.38 102.819L178.171 103.371C178.713 105.945 180.833 107.316 183.93 107.316C187.45 107.316 189.847 105.393 189.847 102.779C189.847 100.669 188.525 99.3377 185.823 98.6769L183.575 98.1247C181.78 97.6809 180.971 97.0794 180.971 95.9157C180.971 94.614 182.352 93.6673 184.206 93.6673C186.237 93.6673 187.076 94.7915 187.48 95.8368L189.571 95.2451Z" fill="black"/>
<path d="M193.35 107H195.677V97.533C195.677 95.3142 197.295 93.7462 199.109 93.7462C200.875 93.7462 202.107 94.9 202.107 96.6257V107H204.474V97.1385C204.474 95.186 205.697 93.7462 207.827 93.7462C209.484 93.7462 210.904 94.6239 210.904 96.8624V107H213.231V96.8624C213.231 93.3024 211.318 91.6555 208.616 91.6555C206.446 91.6555 204.859 92.6515 204.08 94.2195H203.922C203.172 92.6022 201.851 91.6555 199.859 91.6555C197.886 91.6555 196.427 92.6022 195.796 94.2195H195.599V91.8528H193.35V107Z" fill="black"/>
<path d="M223.64 107.316C227.742 107.316 230.504 104.199 230.504 99.5053C230.504 94.7718 227.742 91.6555 223.64 91.6555C219.537 91.6555 216.776 94.7718 216.776 99.5053C216.776 104.199 219.537 107.316 223.64 107.316ZM223.64 105.225C220.524 105.225 219.104 102.543 219.104 99.5053C219.104 96.468 220.524 93.7462 223.64 93.7462C226.756 93.7462 228.176 96.468 228.176 99.5053C228.176 102.543 226.756 105.225 223.64 105.225Z" fill="black"/>
<path d="M234.056 107H236.383V97.4147C236.383 95.3635 238.001 93.8645 240.21 93.8645C240.831 93.8645 241.472 93.9829 241.63 94.0223V91.6555C241.364 91.6358 240.752 91.6161 240.407 91.6161C238.592 91.6161 237.015 92.6417 236.462 94.1406H236.305V91.8528H234.056V107Z" fill="black"/>
<path d="M244.389 112.68H246.716V104.673H246.913C247.426 105.501 248.412 107.316 251.331 107.316C255.118 107.316 257.761 104.278 257.761 99.4659C257.761 94.6929 255.118 91.6555 251.292 91.6555C248.333 91.6555 247.426 93.47 246.913 94.259H246.637V91.8528H244.389V112.68ZM246.676 99.4264C246.676 96.034 248.175 93.7462 251.016 93.7462C253.974 93.7462 255.434 96.2313 255.434 99.4264C255.434 102.661 253.935 105.225 251.016 105.225C248.215 105.225 246.676 102.858 246.676 99.4264Z" fill="black"/>
<path d="M263.638 97.888C263.638 95.2451 265.325 93.7462 267.622 93.7462C269.812 93.7462 271.133 95.1268 271.133 97.533V107H273.46V97.3752C273.46 93.4799 271.389 91.6555 268.293 91.6555C265.906 91.6555 264.546 92.6515 263.836 94.2195H263.638V86.8036H261.311V107H263.638V97.888Z" fill="black"/>
<path d="M277.718 107H280.045V91.8528H277.718V107ZM278.902 89.3282C279.809 89.3282 280.558 88.6182 280.558 87.7504C280.558 86.8825 279.809 86.1725 278.902 86.1725C277.994 86.1725 277.245 86.8825 277.245 87.7504C277.245 88.6182 277.994 89.3282 278.902 89.3282Z" fill="black"/>
<path d="M288.766 107.355C291.408 107.355 292.789 105.935 293.262 104.949H293.381V107H295.708V97.0202C295.708 92.2078 292.04 91.6555 290.107 91.6555C287.819 91.6555 285.215 92.4444 284.032 95.2057L286.241 95.9946C286.754 94.8901 287.967 93.7067 290.186 93.7067C292.326 93.7067 293.381 94.8408 293.381 96.7835V96.8624C293.381 97.9866 292.237 97.888 289.476 98.243C286.665 98.6079 283.598 99.2292 283.598 102.7C283.598 105.659 285.886 107.355 288.766 107.355ZM289.121 105.264C287.267 105.264 285.925 104.436 285.925 102.819C285.925 101.044 287.543 100.491 289.357 100.255C290.343 100.136 292.986 99.8603 293.381 99.387V101.517C293.381 103.41 291.882 105.264 289.121 105.264Z" fill="black"/>
<path d="M312.224 107.355C314.867 107.355 316.247 105.935 316.721 104.949H316.839V107H319.166V97.0202C319.166 92.2078 315.498 91.6555 313.565 91.6555C311.277 91.6555 308.674 92.4444 307.49 95.2057L309.699 95.9946C310.212 94.8901 311.425 93.7067 313.644 93.7067C315.784 93.7067 316.839 94.8408 316.839 96.7835V96.8624C316.839 97.9866 315.695 97.888 312.934 98.243C310.123 98.6079 307.056 99.2292 307.056 102.7C307.056 105.659 309.344 107.355 312.224 107.355ZM312.579 105.264C310.725 105.264 309.384 104.436 309.384 102.819C309.384 101.044 311.001 100.491 312.815 100.255C313.802 100.136 316.444 99.8603 316.839 99.387V101.517C316.839 103.41 315.34 105.264 312.579 105.264Z" fill="black"/>
<path d="M325.741 97.888C325.741 95.2451 327.378 93.7462 329.607 93.7462C331.767 93.7462 333.078 95.1564 333.078 97.533V107H335.406V97.3752C335.406 93.5095 333.345 91.6555 330.278 91.6555C327.99 91.6555 326.57 92.6811 325.86 94.2195H325.663V91.8528H323.414V107H325.741V97.888Z" fill="black"/>
<path d="M345.378 107.316C348.297 107.316 349.283 105.501 349.796 104.673H350.072V107H352.321V86.8036H349.993V94.259H349.796C349.283 93.47 348.376 91.6555 345.418 91.6555C341.591 91.6555 338.948 94.6929 338.948 99.4659C338.948 104.278 341.591 107.316 345.378 107.316ZM345.694 105.225C342.775 105.225 341.276 102.661 341.276 99.4264C341.276 96.2313 342.735 93.7462 345.694 93.7462C348.534 93.7462 350.033 96.034 350.033 99.4264C350.033 102.858 348.494 105.225 345.694 105.225Z" fill="black"/>
<path d="M364.717 107H367.044V91.8528H364.717V107ZM365.9 89.3282C366.807 89.3282 367.557 88.6182 367.557 87.7504C367.557 86.8825 366.807 86.1725 365.9 86.1725C364.993 86.1725 364.243 86.8825 364.243 87.7504C364.243 88.6182 364.993 89.3282 365.9 89.3282Z" fill="black"/>
<path d="M377.894 91.8528H374.66V88.2237H372.332V91.8528H370.044V93.8251H372.332V103.292C372.332 105.935 374.462 107.197 376.435 107.197C377.302 107.197 377.855 107.04 378.17 106.921L377.697 104.831C377.5 104.87 377.184 104.949 376.671 104.949C375.646 104.949 374.66 104.633 374.66 102.661V93.8251H377.894V91.8528Z" fill="black"/>
<path d="M384.233 86.8036H382.024V88.6182C382.024 90.0777 381.314 91.34 380.485 92.5233L381.748 93.5489C383.325 92.2867 384.233 90.196 384.233 88.5787V86.8036Z" fill="black"/>
<path d="M395.894 95.2451C395.164 93.0953 393.527 91.6555 390.529 91.6555C387.334 91.6555 384.967 93.47 384.967 96.034C384.967 98.1247 386.21 99.525 388.991 100.176L391.515 100.768C393.044 101.123 393.764 101.852 393.764 102.898C393.764 104.199 392.383 105.264 390.214 105.264C388.31 105.264 387.117 104.446 386.703 102.819L384.494 103.371C385.036 105.945 387.157 107.316 390.253 107.316C393.774 107.316 396.17 105.393 396.17 102.779C396.17 100.669 394.849 99.3377 392.147 98.6769L389.898 98.1247C388.103 97.6809 387.295 97.0794 387.295 95.9157C387.295 94.614 388.675 93.6673 390.529 93.6673C392.561 93.6673 393.399 94.7915 393.803 95.8368L395.894 95.2451Z" fill="black"/>
<path d="M411.941 107.355C414.584 107.355 415.965 105.935 416.438 104.949H416.556V107H418.884V97.0202C418.884 92.2078 415.215 91.6555 413.282 91.6555C410.994 91.6555 408.391 92.4444 407.208 95.2057L409.417 95.9946C409.929 94.8901 411.142 93.7067 413.361 93.7067C415.501 93.7067 416.556 94.8408 416.556 96.7835V96.8624C416.556 97.9866 415.412 97.888 412.651 98.243C409.841 98.6079 406.774 99.2292 406.774 102.7C406.774 105.659 409.062 107.355 411.941 107.355ZM412.296 105.264C410.442 105.264 409.101 104.436 409.101 102.819C409.101 101.044 410.718 100.491 412.533 100.255C413.519 100.136 416.162 99.8603 416.556 99.387V101.517C416.556 103.41 415.057 105.264 412.296 105.264Z" fill="black"/>
<path d="M429.285 107.316C432.638 107.316 434.847 105.264 435.242 102.582H432.914C432.48 104.239 431.1 105.225 429.285 105.225C426.524 105.225 424.749 102.937 424.749 99.4264C424.749 95.9946 426.563 93.7462 429.285 93.7462C431.336 93.7462 432.559 95.0085 432.914 96.3891H435.242C434.847 93.5489 432.441 91.6555 429.246 91.6555C425.143 91.6555 422.422 94.8901 422.422 99.5053C422.422 104.042 425.025 107.316 429.285 107.316Z" fill="black"/>
<path d="M445.231 91.8528H441.997V88.2237H439.669V91.8528H437.382V93.8251H439.669V103.292C439.669 105.935 441.799 107.197 443.772 107.197C444.64 107.197 445.192 107.04 445.507 106.921L445.034 104.831C444.837 104.87 444.521 104.949 444.008 104.949C442.983 104.949 441.997 104.633 441.997 102.661V93.8251H445.231V91.8528Z" fill="black"/>
<path d="M458.278 100.807C458.278 103.647 456.109 104.949 454.373 104.949C452.44 104.949 451.059 103.529 451.059 101.32V91.8528H448.732V101.478C448.732 105.343 450.783 107.197 453.623 107.197C455.911 107.197 457.41 105.974 458.12 104.436H458.278V107H460.605V91.8528H458.278V100.807Z" fill="black"/>
<path d="M469.326 107.355C471.968 107.355 473.349 105.935 473.822 104.949H473.941V107H476.268V97.0202C476.268 92.2078 472.6 91.6555 470.667 91.6555C468.379 91.6555 465.775 92.4444 464.592 95.2057L466.801 95.9946C467.314 94.8901 468.527 93.7067 470.746 93.7067C472.885 93.7067 473.941 94.8408 473.941 96.7835V96.8624C473.941 97.9866 472.797 97.888 470.036 98.243C467.225 98.6079 464.158 99.2292 464.158 102.7C464.158 105.659 466.446 107.355 469.326 107.355ZM469.681 105.264C467.827 105.264 466.485 104.436 466.485 102.819C466.485 101.044 468.103 100.491 469.917 100.255C470.903 100.136 473.546 99.8603 473.941 99.387V101.517C473.941 103.41 472.442 105.264 469.681 105.264Z" fill="black"/>
<path d="M482.843 86.8036H480.516V107H482.843V86.8036Z" fill="black"/>
<path d="M489.433 86.8036H487.106V107H489.433V86.8036Z" fill="black"/>
<path d="M495.195 112.68C497.295 112.68 498.775 111.566 499.652 109.209L506.102 91.8922L503.557 91.8528L499.376 103.923H499.218L495.037 91.8528H492.512L498.114 107.079L497.68 108.262C496.832 110.57 495.787 110.787 494.09 110.353L493.499 112.404C493.735 112.523 494.406 112.68 495.195 112.68Z" fill="black"/>
<path d="M517.307 107H519.555V104.673H519.831C520.344 105.501 521.33 107.316 524.249 107.316C528.036 107.316 530.679 104.278 530.679 99.4659C530.679 94.6929 528.036 91.6555 524.21 91.6555C521.251 91.6555 520.344 93.47 519.831 94.259H519.634V86.8036H517.307V107ZM519.595 99.4264C519.595 96.034 521.094 93.7462 523.934 93.7462C526.892 93.7462 528.352 96.2313 528.352 99.4264C528.352 102.661 526.853 105.225 523.934 105.225C521.133 105.225 519.595 102.858 519.595 99.4264Z" fill="black"/>
<path d="M538.697 107.355C541.339 107.355 542.72 105.935 543.193 104.949H543.312V107H545.639V97.0202C545.639 92.2078 541.971 91.6555 540.038 91.6555C537.75 91.6555 535.146 92.4444 533.963 95.2057L536.172 95.9946C536.685 94.8901 537.898 93.7067 540.117 93.7067C542.257 93.7067 543.312 94.8408 543.312 96.7835V96.8624C543.312 97.9866 542.168 97.888 539.407 98.243C536.596 98.6079 533.529 99.2292 533.529 102.7C533.529 105.659 535.817 107.355 538.697 107.355ZM539.052 105.264C537.198 105.264 535.856 104.436 535.856 102.819C535.856 101.044 537.474 100.491 539.288 100.255C540.274 100.136 542.917 99.8603 543.312 99.387V101.517C543.312 103.41 541.813 105.264 539.052 105.264Z" fill="black"/>
<path d="M552.214 97.888C552.214 95.2451 553.851 93.7462 556.08 93.7462C558.24 93.7462 559.551 95.1564 559.551 97.533V107H561.879V97.3752C561.879 93.5095 559.818 91.6555 556.751 91.6555C554.463 91.6555 553.043 92.6811 552.333 94.2195H552.135V91.8528H549.887V107H552.214V97.888Z" fill="black"/>
<path d="M568.459 97.888C568.459 95.2451 570.096 93.7462 572.324 93.7462C574.484 93.7462 575.796 95.1564 575.796 97.533V107H578.123V97.3752C578.123 93.5095 576.062 91.6555 572.995 91.6555C570.707 91.6555 569.287 92.6811 568.577 94.2195H568.38V91.8528H566.131V107H568.459V97.888Z" fill="black"/>
<path d="M588.727 107.316C591.803 107.316 594.052 105.777 594.762 103.489L592.513 102.858C591.922 104.436 590.551 105.225 588.727 105.225C585.995 105.225 584.111 103.46 584.003 100.215H594.999V99.2292C594.999 93.5884 591.646 91.6555 588.49 91.6555C584.388 91.6555 581.666 94.8901 581.666 99.5448C581.666 104.199 584.348 107.316 588.727 107.316ZM584.003 98.2036C584.161 95.8467 585.827 93.7462 588.49 93.7462C591.015 93.7462 592.632 95.6396 592.632 98.2036H584.003Z" fill="black"/>
<path d="M604.259 107.316C607.178 107.316 608.164 105.501 608.677 104.673H608.953V107H611.201V86.8036H608.874V94.259H608.677C608.164 93.47 607.256 91.6555 604.298 91.6555C600.472 91.6555 597.829 94.6929 597.829 99.4659C597.829 104.278 600.472 107.316 604.259 107.316ZM604.574 105.225C601.655 105.225 600.156 102.661 600.156 99.4264C600.156 96.2313 601.616 93.7462 604.574 93.7462C607.414 93.7462 608.913 96.034 608.913 99.4264C608.913 102.858 607.375 105.225 604.574 105.225Z" fill="black"/>
<path d="M629.751 107.316C633.853 107.316 636.614 104.199 636.614 99.5053C636.614 94.7718 633.853 91.6555 629.751 91.6555C625.648 91.6555 622.887 94.7718 622.887 99.5053C622.887 104.199 625.648 107.316 629.751 107.316ZM629.751 105.225C626.634 105.225 625.214 102.543 625.214 99.5053C625.214 96.468 626.634 93.7462 629.751 93.7462C632.867 93.7462 634.287 96.468 634.287 99.5053C634.287 102.543 632.867 105.225 629.751 105.225Z" fill="black"/>
<path d="M642.494 97.888C642.494 95.2451 644.131 93.7462 646.36 93.7462C648.52 93.7462 649.831 95.1564 649.831 97.533V107H652.159V97.3752C652.159 93.5095 650.098 91.6555 647.031 91.6555C644.743 91.6555 643.323 92.6811 642.613 94.2195H642.415V91.8528H640.167V107H642.494V97.888Z" fill="black"/>
<path d="M98.0753 124.804H95.6296V145H98.0753V124.804Z" fill="black"/>
<path d="M104.991 135.888C104.991 133.245 106.628 131.746 108.856 131.746C111.016 131.746 112.328 133.156 112.328 135.533V145H114.655V135.375C114.655 131.509 112.594 129.656 109.527 129.656C107.239 129.656 105.819 130.681 105.109 132.22H104.912V129.853H102.663V145H104.991V135.888Z" fill="black"/>
<path d="M129.637 133.245C128.907 131.095 127.27 129.656 124.272 129.656C121.077 129.656 118.711 131.47 118.711 134.034C118.711 136.125 119.953 137.525 122.734 138.176L125.259 138.768C126.787 139.123 127.507 139.852 127.507 140.898C127.507 142.199 126.126 143.264 123.957 143.264C122.054 143.264 120.86 142.446 120.446 140.819L118.237 141.371C118.78 143.945 120.9 145.316 123.996 145.316C127.517 145.316 129.913 143.393 129.913 140.779C129.913 138.669 128.592 137.338 125.89 136.677L123.641 136.125C121.847 135.681 121.038 135.079 121.038 133.916C121.038 132.614 122.418 131.667 124.272 131.667C126.304 131.667 127.142 132.791 127.547 133.837L129.637 133.245Z" fill="black"/>
<path d="M140.004 129.853H136.77V126.224H134.442V129.853H132.154V131.825H134.442V141.292C134.442 143.935 136.572 145.197 138.545 145.197C139.412 145.197 139.965 145.04 140.28 144.921L139.807 142.831C139.61 142.87 139.294 142.949 138.781 142.949C137.756 142.949 136.77 142.633 136.77 140.661V131.825H140.004V129.853Z" fill="black"/>
<path d="M147.962 145.355C150.605 145.355 151.986 143.935 152.459 142.949H152.578V145H154.905V135.02C154.905 130.208 151.236 129.656 149.304 129.656C147.016 129.656 144.412 130.444 143.229 133.206L145.438 133.995C145.951 132.89 147.164 131.707 149.382 131.707C151.522 131.707 152.578 132.841 152.578 134.784V134.862C152.578 135.987 151.434 135.888 148.672 136.243C145.862 136.608 142.795 137.229 142.795 140.7C142.795 143.659 145.083 145.355 147.962 145.355ZM148.317 143.264C146.463 143.264 145.122 142.436 145.122 140.819C145.122 139.044 146.74 138.491 148.554 138.255C149.54 138.136 152.183 137.86 152.578 137.387V139.517C152.578 141.41 151.079 143.264 148.317 143.264Z" fill="black"/>
<path d="M165.267 150.996C168.896 150.996 171.815 149.339 171.815 145.434V129.853H169.567V132.259H169.33C168.817 131.47 167.87 129.656 164.912 129.656C161.086 129.656 158.443 132.693 158.443 137.348C158.443 142.081 161.204 144.763 164.872 144.763C167.831 144.763 168.778 143.028 169.29 142.199H169.488V145.276C169.488 147.801 167.713 148.945 165.267 148.945C162.516 148.945 161.549 147.495 160.928 146.657L159.074 147.959C160.021 149.546 161.884 150.996 165.267 150.996ZM165.188 142.673C162.269 142.673 160.77 140.464 160.77 137.308C160.77 134.231 162.23 131.746 165.188 131.746C168.028 131.746 169.527 134.034 169.527 137.308C169.527 140.661 167.989 142.673 165.188 142.673Z" fill="black"/>
<path d="M176.075 145H178.402V135.415C178.402 133.363 180.02 131.865 182.229 131.865C182.85 131.865 183.491 131.983 183.649 132.022V129.656C183.383 129.636 182.771 129.616 182.426 129.616C180.611 129.616 179.034 130.642 178.481 132.141H178.324V129.853H176.075V145Z" fill="black"/>
<path d="M190.865 145.355C193.508 145.355 194.889 143.935 195.362 142.949H195.48V145H197.808V135.02C197.808 130.208 194.139 129.656 192.206 129.656C189.918 129.656 187.315 130.444 186.131 133.206L188.34 133.995C188.853 132.89 190.066 131.707 192.285 131.707C194.425 131.707 195.48 132.841 195.48 134.784V134.862C195.48 135.987 194.336 135.888 191.575 136.243C188.765 136.608 185.698 137.229 185.698 140.7C185.698 143.659 187.985 145.355 190.865 145.355ZM191.22 143.264C189.366 143.264 188.025 142.436 188.025 140.819C188.025 139.044 189.642 138.491 191.457 138.255C192.443 138.136 195.086 137.86 195.48 137.387V139.517C195.48 141.41 193.981 143.264 191.22 143.264Z" fill="black"/>
<path d="M202.055 145H204.383V135.533C204.383 133.314 206 131.746 207.815 131.746C209.58 131.746 210.812 132.9 210.812 134.626V145H213.179V135.139C213.179 133.186 214.402 131.746 216.532 131.746C218.189 131.746 219.609 132.624 219.609 134.862V145H221.936V134.862C221.936 131.302 220.023 129.656 217.321 129.656C215.152 129.656 213.564 130.652 212.785 132.22H212.627C211.878 130.602 210.556 129.656 208.564 129.656C206.592 129.656 205.132 130.602 204.501 132.22H204.304V129.853H202.055V145Z" fill="black"/>
<path d="M227.888 145.158C228.864 145.158 229.663 144.359 229.663 143.383C229.663 142.407 228.864 141.608 227.888 141.608C226.911 141.608 226.113 142.407 226.113 143.383C226.113 144.359 226.911 145.158 227.888 145.158Z" fill="black"/>
</svg>
