<svg width="708" height="293" viewBox="0 0 708 293" fill="none" xmlns="http://www.w3.org/2000/svg">
<path d="M277.707 285.872C266.42 281.386 256.069 274.823 247.189 266.519C238.578 258.438 231.681 248.697 226.914 237.878C222.043 226.88 219.562 214.968 219.637 202.934C219.608 191.019 222.114 179.236 226.987 168.37C231.758 157.557 238.654 147.82 247.263 139.741C256.157 131.434 266.48 124.815 277.731 120.204C302.119 110.465 329.3 110.465 353.688 120.204C364.954 124.824 375.293 131.451 384.205 139.766C392.809 147.853 399.704 157.593 404.48 168.407C409.348 179.27 411.854 191.048 411.831 202.958C411.879 215.001 409.373 226.917 404.48 237.915C399.705 248.726 392.81 258.462 384.205 266.544C375.323 274.845 364.973 281.408 353.688 285.896C329.249 295.368 302.169 295.368 277.731 285.896L277.707 285.872ZM291.71 125.721C285.774 130.811 281.346 137.437 278.907 144.877C275.983 153.613 274.256 162.706 273.774 171.909C273.121 182.058 272.79 192.395 272.782 202.921C272.774 213.447 273.104 223.846 273.774 234.118C274.237 243.393 275.955 252.561 278.883 261.371C281.327 268.809 285.754 275.433 291.685 280.527C298.557 285.785 307.08 288.4 315.709 287.899C324.329 288.417 332.849 285.828 339.734 280.6C345.656 275.502 350.078 268.878 352.524 261.445C355.466 252.638 357.193 243.469 357.657 234.192C358.302 223.928 358.633 213.529 358.649 202.995C358.666 192.461 358.335 182.132 357.657 172.007C357.187 162.805 355.468 153.711 352.548 144.975C350.099 137.54 345.673 130.917 339.746 125.82C332.873 120.563 324.351 117.948 315.722 118.447C307.106 117.934 298.591 120.522 291.71 125.746V125.721ZM629.704 287.874H590.353L511.947 113.311H565.116L609.979 214.643L654.843 113.311H708L629.704 287.813V287.874ZM436.137 287.788V5.62716H409.712V0.110245H484.137V287.788H436.137ZM111.362 287.788L31.2769 76.917C30.8399 75.6907 30.0356 74.6298 28.9741 73.8798C27.9126 73.1297 26.6459 72.7271 25.3474 72.7271H6.29704C5.13881 72.725 4.00378 72.4013 3.01773 71.7919C2.03168 71.1824 1.23313 70.3111 0.710566 69.2744C0.250021 68.3948 0.00636297 67.4173 5.5249e-06 66.4238C-0.00135353 65.3967 0.248039 64.3849 0.726401 63.4768C1.20476 62.5686 1.89754 61.7918 2.74424 61.214H2.81775L75.3929 11.439C75.8453 11.1419 76.3414 10.918 76.8631 10.7755C77.3311 10.6264 77.8177 10.5436 78.3087 10.5297C79.2496 10.5303 80.1727 10.7872 80.9794 11.2729C81.7861 11.7587 82.4461 12.4551 82.8889 13.2878C83.3317 14.1205 83.5407 15.0582 83.4935 16.0007C83.4463 16.9432 83.1448 17.8552 82.621 18.6392C82.9763 18.1354 79.3133 24.7828 76.4955 30.0294C76.0214 30.9352 75.7734 31.9429 75.7727 32.966C75.7743 33.7529 75.9239 34.5324 76.2137 35.2637L148.899 226.156L167.276 170.483L178.302 136.878L178.485 136.35C185.07 116.13 185.581 94.4153 179.956 73.9066C178.925 70.1584 177.698 66.4672 176.28 62.8482C176.096 62.369 175.913 61.9021 175.717 61.4352C174.63 59.0083 172.976 56.8801 170.895 55.2311C168.813 53.5821 166.366 52.461 163.761 51.9629C161.155 51.4649 158.468 51.6046 155.928 52.3702C153.388 53.1357 151.069 54.5046 149.169 56.3606C148.602 56.9466 147.928 57.418 147.184 57.7491C146.849 57.8947 146.5 58.0058 146.143 58.0808H145.971C144.624 58.3689 143.22 58.2008 141.978 57.6027C140.737 57.0045 139.728 56.0103 139.111 54.7756V54.6282C138.667 53.7696 138.432 52.8182 138.425 51.8513C138.424 50.8212 138.674 49.8066 139.155 48.8963C139.635 47.9859 140.331 47.2075 141.181 46.6292L152.746 38.7041L158.455 34.7968L159.509 34.0841L164.311 30.7912L207.937 0.945769C209.106 0.156786 210.532 -0.155357 211.922 0.0729401C213.313 0.301237 214.565 1.0528 215.422 2.17448C230.476 21.4878 238.54 45.3584 238.291 69.8717C238.041 94.385 229.494 118.086 214.05 137.087V137.308L182.541 180.19L182.014 180.915C171.053 197.836 161.167 215.433 152.415 233.602L131 287.764L111.362 287.788Z" fill="white"/>
</svg>
